<?xml version="1.0" encoding="UTF-8"?>
<svg id="Layer_2" data-name="Layer 2" xmlns="http://www.w3.org/2000/svg" viewBox="0 0 99.84 60.95">
  <defs>
    <style>
      .cls-1 {
        fill: #0a3161;
      }
    </style>
  </defs>
  <g id="Ebene_1" data-name="Ebene 1">
    <path class="cls-1" d="M77.04,36.68c.02.3.8.35.87.04.02-.08-.12-.11-.22-.24-.17-.24-.01-.18-.18-.18-.04,0-.48.31-.47.39ZM78.48,34.75c.04-.2-.38-.21-.37-.22-.27.22.32.47.37.22ZM77.51,34.74c-.09.04-.29.16-.25.27.04.09.67-.48.25-.27ZM62.39,33.37c.05-.19-.23-.32-.24-.45-.03-.39.36-.74.01-1.03-.34-.28-1.22,0-1.26.16,0-.01.33.44.4.73.13.59,0,1.16.44,1.1.04,0,.1-.25.09-.24.26-.19.47.04.56-.27ZM61.68,33.92c-.12.22.88.28.52-.02-.08-.07-.5-.01-.52.02ZM75.37,32.03c.13-.04.02-.32-.11-.28-.26.1-.02.32.11.28ZM56.99,37.13c.05.18,1.2.28,1.45.24.31-.05.01-.4.31-.31-.04-.01.29.28.68.27.13,0,.29-.16.44-.19.45-.08.71.16.78-.03.04-.11-.26-.22-.31-.31-.11-.2.01-.62-.13-.79-.22-.26-.72.06-.65-.11.03-.07.54-.13.62-.31.15-.32-.16-.92-.07-1.46.02-.1.13-.17.15-.28.11-.55-.03-1.17.09-1.53.06-.18.25-.24.22-.38-.07-.29-.5-.26-.68-.27-.33,0-.6.04-.81.23-.23.2-.14.46-.43.44-.22,0-.28-.36-.5-.44-.33-.12-.8-.04-.91.21-.18.43.42,1.13.4,1.35,0,.04-.23.21-.25.27-.04.12.06.27.04.37-.02.12-.15.23-.16.39-.03.32.61.75.56.97,0,.03-.31-.01-.42.34-.05.18.17.67-.01,1.03-.03.06-.4.31-.41.29ZM59.7,35.3c-.12.09-.24-.17-.23-.19.07-.15.36.09.23.19ZM58.71,32.83c.11-.12.08.74.26.92.02.02.15.05.14.07-.08.45-.78-.59-.41-.99ZM58.26,35.63c.36-.11-.05,1-.25.58-.11-.25.18-.56.25-.58ZM75.73,35.23c.21-.27-.04-.38-.09-.38-.57.08-.03.53.09.38ZM75.09,32.81c.06.26.56.86.58,1.17.04-.03.05-.01-.02.11.02-.03.02-.07.02-.11-.08.06-.29.29-.29.22,0,.04-.05-.02,0,.05-.04-.08.32.07.35.06.11-.07.19-1.15.19-1.15-.04-.16-.19-.19-.25-.35-.06-.16.02-.42-.08-.48-.29-.17-.55.24-.49.49ZM75.25,36.59c.15.4.93-.66.53-.74-.44-.08-.14.33-.17.43-.09.27-.49-.04-.36.3ZM76.46,49.45c-.04-.11-.34-.23-.49-.13-.25.17.6.49.49.13ZM79.15,31.61c-.15-.03-.63,0-.74.14-.46.53.68,1.22.22,1.48-.27.15.4,1.34.5,1.37.06.01.35-.15.41-.34.05-.15-.05-.56-.18-.8-.03-.06-.43-.26-.45-.43,0-.09.35-.4.4-.55,0,.01-.08-.24-.04-.42.09-.37.21-.36-.13-.43ZM76.7,32.09s.29.18.33.21c.41.24-.1.4-.02,1.08.02.21.2.3.19.39,0,.23-.19.31-.12.44.22.4.39-.27.34-.2.29-.4.41.13.75.12.44,0,.22-.59-.19-.44-.41.15,0,0,0-.05,0,.02.13-.13.14-.23.01-.19-.42-.83-.53-1.17-.04.1-.07.11-.03-.15,0,.04,0,.09.03.15.06-.13.14-.42.12-.44-.32-.32-1.03.2-1.03.3ZM54.3,34.01c-.11.08-.12.19-.04.25.24.17.33-.46.04-.25ZM45.18,50.24c.47-.02.4-.51.52-.69.05-.07.17-.01.28-.11.08-.07.08-.23.15-.29.62-.5,2.25-.83,3.36-.43.13.05.22.2.37.27.54.24,1.31.39,1.45.9.18.65-.43,1.59-.16,1.62.44.06.68-.21.86-.53.19-.33.06-.58.05-.92-.01-.3.12-.58.06-.71-.09-.19-.43-.19-.61-.36-.07-.06,0-.18-.06-.27-.05-.08-.32-.28-.41-.32-.89-.41-3.43-.71-4.25-.43-.16.05-.46.32-.74.45-.35.16-.88.39-1.1.75-.12.19-.39.71-.38.76.03.09.61.31.62.31ZM49.41,42.9c.19.08.28.29.46.33.31.08.79-.09.85-.17.46-.59-.45-1.01-.89-.87-.19.06-.18.29-.32.41-.1.09-.32.16-.39.19.02,0,.07.03.04.06,0,0-.14-.07-.14-.07.04.2.17.02.4.11ZM48.19,42.8c-.03-.26-.79-.23-.79-.23-.52.26.84.69.79.23ZM47.21,35.8c.37-.44-.37-.63-.46-.64-.47-.06-1.85-.12-2.06.02-.24.16-.31.69-.14.85.32.32,2.41.07,2.67-.24ZM51.09,34.47c0,.5.17,1.32.28,1.75.15.54.1.97.9,1.12.48.1,1.4-.29,1.37-.81-.01-.2-.29-.16-.3-.41,0-.15.29-.17.28-.16.04-.09-.23-.45-.29-.46-.52-.13-.62,1.17-.96,1.13-.1-.01-.22-.45-.28-.51-.13-.15-.31-.08-.32-.26,0-.08.23-.07.28-.16.09-.17-.12-.67-.11-.89.01-.33.17-.54.2-.95.04-.56-.21-1.38.19-1.46.39-.08.31.79.42.89.02.02.39.19.61.05.39-.25.14-.6.1-.91-.09-.61.04-.5-.36-.62-.79-.24-1.51-.16-1.74.54-.08.26.03.48-.07,1.07-.07.39-.23.69-.22,1.04ZM46.3,43.63c.05-.33-.41-.39-.48-.54-.08-.2.14-.06.15-.28.01-.3-.23-.08-.14-.38.11-.41.84-.7.12-.75-.9-.07-1.1.46-1.7.65-.34.11-.72.21-1.13.28-.78.13-1.79.02-2.54.1-.88.1.08.34.3.36.39.04.7.07,1.07.07.54,0,1.64-.02,2.15.09.53.12,1.11.74,1.68.74.1,0,.48-.04.52-.33ZM55.53,31.84c-.05-.2-.59-.29-.84-.19-.47.18-.64,1.15-.34,1.49-.02-.02-.08.03-.06.04.38.24.24-.25.34-.51.03-.07.49-.5.67-.66-.11.09.27,0,.23-.17ZM54.18,36.31s-.11.11-.08.19c.31.9,1.8,1.18,2.14.09.03-.09-.06-.21-.05-.32.03-.23.25-.49.22-.74,0-.09-.16-.28-.16-.28-.2-.02.02.07.09-.24.12-.48-.24-.51-.31-.62-.14-.23.23-.22.25-.27.06-.13-.1-.15-.1-.33,0-.1.14-.21.16-.34.02-.14-.09-.27-.09-.42,0-.29.15-.72-.05-.94-.15-.16-.46-.22-.63.05-.19.32.29,1.11.23,1.43-.01.08-.25.23-.22.43.03.24.42.25.41.32,0,0,0,.05,0,.05-.38.07-.45.66-.1.91.07.05.17,0,.19.08.02.08-.56.71-.51.95-.01-.07.26.19.22.24-.15.18-.77.08-.9-.15-.03-.05.08-.14.08-.19.02-.2-.3-.75-.36-.99-.06-.27.18-.62.01-.72-.08-.05-.32-.04-.46.29-.01.03.12.23.11.28-.03.21-.36.41-.29.83.02.13.19.24.19.39ZM38.04,24.47c-.32-.08-.23-.11-.39-.11-.18,0-.48-.02-.54.12-.21.53.92.24,1.05.22.05,0,.22.06.3.05.68-.14-.13-.2-.42-.27ZM36.27,24.55c0-.13-.36-.13-.39-.11-.35.15.4.39.39.11ZM38.65,42.85c-.16.02-.42-.11-.42.04,0,.21,2.91.13,1.46-.12-.47-.08-.66.05-1.04.09ZM39.08,32.62c.6-.05.04,1.62,1.02.99.37-.24.4-1.27,0-1.55-.14-.1-.29-.06-.45-.07-.38-.04-1.76-.09-1.91.31-.13.36.15.5.24.76.14.43.04.52-.04.87-.03.13.03.33,0,.57-.04.45-.28,1.03-.26,1.3.02.26.27.36.31.62.09.5-.24.93-.03,1.13.09.09.4-.03.52-.02.14.02.27.15.44.17.42.07,1.13-.07,1.33-.3.26-.29.16-1.12-.04-1.3-.04-.04-.58-.28-.75-.17-.3.2.14.99-.39,1.12-.29.07-.51-.51-.43-.84.05-.19.26-.25.27-.42.02-.3-.32-.1-.12-.48.14-.28.65-.03.82-.28.35-.54-.77-.37-.93-.62-.02-.03-.02-.81-.01-.88.03-.34.17-.89.41-.91ZM34.38,33.35c-.06.31.2.71.55.76.08.01.22-.11.31-.05.41.25-.08,1.1-.03,1.44.03.24.25.43.29.72.04.25-.05.87.38.83.09,0,.2-.24.18-.18,0,0-.09-.06-.09-.07-.08-.3.23-1.24.26-1.92,0-.09-.12-.26-.09-.37.02-.07.14-.14.13-.19,0-.13-.16-.31-.14-.38.03-.14.2-.21.21-.33,0-.07-.29-.42-.06-.58.46-.31.33.86.24.71,0-.01.37.23.54.14.12-.07.21-.54.21-.69.04-.68-.25-1.11-1.02-1.04-.38.04-.77.22-.92.47,0-.01,0-.03-.02-.06.02.04-.35-.24-.54-.19-.3.08-.04.48-.17.74,0,.01-.21.07-.24.22ZM35.18,32.86c.04-.13.11-.16.15-.18-.02.04-.03.09-.04.14,0-.03.09.04.12.06-.01-.04-.03-.07-.04-.09,0,.02.03.06.05.1,0,0,0,0-.02-.01.04.12.08.29,0,.37-.31.34-.29-.25-.24-.4ZM39.39,47.5c.12.29,1.74.59,1.61-.1-.02-.08-.19-.08-.29-.15-.22-.15-.36-.25-.74-.22-.19.02-.75.08-.59.47ZM40.72,50.09c.1-.09.64-.7.63-.72-.03-.17-.46-.37-.83-.29-.27.06-.76.72-.92.88-.31.33-.82,1.4-1.28.56-.1-.18-.23-.59-.41-.94-.12-.22-.12-.5-.2-.65-.07-.11-.27-.23-.31-.31-.08-.17-.06-.56-.14-.74-.1-.24-.1,0-.22-.24-.31-.62.61-.24,1.07-.24.19,0,1.02-.24,1.02-.25,0-.27-1.38-.43-1.37-.43-.37-.03-1.01.06-1.74-.08-.12-.02-1.42-.43-1.44-.03,0,.33.96.3,1.37.48.46.21.2.33.19.7,0,.11.21.42.3.72.12.41.26.61.5,1.06.16.31.24.67.37.88.1.16.25.24.3.36.12.25.14.76.27.87.35.27,1.15.13,1.4-.08.09-.07.05-.23.1-.29.05-.07.21-.08.28-.16.18-.21.29-.61.55-.84.32-.28.21.02.5-.23ZM42.71,48.35c.11,0,.23.1.39.11.28.02,1.07-.17,1.12-.23.41-.53-1.01-.78-1.41-.85-.23-.04-.58-.16-.8-.13-.31.05-.74.67-.9,1.09-.21.57.13.53.49.44.44-.11.7-.41,1.1-.44ZM37.05,42.9c.1.26,1.35-.07.54-.17-.22-.03-.65-.1-.54.17ZM79.69,34.63c-.08-.21-.26-.04-.25-.04.07,0-.48.13-.43.09-.11.1.09.36.04.42-.01.02-1.08.13-.55.53.36.27,1.28-.77,1.19-.99ZM78.92,45.99c.13-.01.31-.32.21-.33-.23-.01-.32.34-.21.33ZM80.18,43.31c-.11-.22-.05-.37-.08-.42-.15-.22-1.09-.84-1.54-.66-.18.07-.29.4-.2.59.09.17.47.24.64.47.05.07.05.23.1.33.15.26.36.38.42.58.12.41-.17.62.2.65,0,0,.32-.27.17-.13.56-.57.58-.81.28-1.4ZM64.29,47.63c.1-.03.28-.4.14-.54-.1-.11-.25.11-.3-.05-.04-.12.41-.33.07-.4-.08-.02-.34.01-.39.19-.06.21.09.16-.12.13-.52-.07.28.32.12.17.16.16,0,.63.49.49ZM81.51,33.54c-.06.02-.03.05-.05.08-.02-.01-.34.12-.26.23.1.14.68-.42.31-.31ZM65.59,33.32c-.15,0-.32-.05-.28.16.07.44.89-.18.28-.16ZM63.52,53.63c.13-.2-.2-.34-.2-.34-.4.09,0,.66.2.34ZM64.45,46.99c.63.04.41-.73-.02-.21-.01.02-.04.09.02.16.02.02-.12.04,0,.05ZM73.81,44.8s-.03.14-.02.15c.16.23.22-.44.02-.15ZM63.92,32.18c-.08-.15-.34-.21-.6-.1-.1.04-.35.57-.22.69.11.09.94-.37.82-.59ZM82.32,34.91c.18-.13,0-.67-.14-.74-.13-.07-.25-.01-.36,0-1.06.08.49.75.5.75ZM90.46,33.96c-.15.07-.2.62,0,.67.38.1.29-.8,0-.67ZM90.54,35.37c.08-.06.03-.33-.12-.22-.16.11.03.29.12.22ZM90.41,32.98s-.11.18-.09.24c.07.28.44.06.39.11.13-.14-.11-.29-.13-.48-.04-.37.24-1.06-.22-.86-.24.1.02.15-.07.45-.05.16-.2.1-.19.23,0,.03.28.23.31.31ZM39.25,24.62c.08.31.9.01,1.44.03.19,0,.66.14.9.15.25,0,.57-.11.94-.1.4,0,.89.17,1.36.17.63,0,1.19-.24,1.66-.09.56.18.76,1.25,1.4,1.2.29-.02.65-.65.86-.84.29-.25.69-.57,1.19-.37.27.11.3.43.52.6.51.37,1.36.4,1.86,0,.21-.17.26-.58.53-.69.16-.06.65.02.81.08.49.19.75.85,1.3.88.4.02.64-.43.98-.67.28-.2.79-.37,1.04-.4,1.07-.1,2.42.05,3.75.04,1.28,0,2.56-.18,3.57-.14.79.03.94-.01,1.6,0,.36,0,.62.13.96.11.59-.05,1.15-.54.37-.66-.33-.05-.76.09-1.2.12-.92.05-2-.12-2.92-.11-.24,0-.5.15-.74.14-.11,0-.26-.15-.39-.16-.45-.06-1.08.03-1.65.04-.65,0-1.37.13-1.98.14-.25,0-.53-.08-.86-.09-.53,0-1.08.14-1.39.03-.7-.24-.85-1.31-1.68-.79-.52.33-.96,1.05-1.54.93-.32-.07-.4-.7-.73-.89-.3-.18-1.08-.23-1.31-.16-.46.14-.57.91-1.03.96-.28.03-1.09-.12-1.35-.27-.08-.05-.13-.27-.2-.34-.23-.25-.63-.53-.79-.49-.25.06-.36.5-.51.64-.52.45-1.33.33-2.22.36-1.11.04-2.38.42-3.21.41-.38,0-1.41-.09-1.33.25ZM81.73,33.47c.12.17.33-.17.12-.13-.03,0-.2.03-.12.13ZM81.44,31.78c-.25.07-.55.68-.56.89,0,.23.26.6.31.62.08.03.53-.04.58-.11.26-.35-.28-.84-.22-1.17.01-.08.24-.32-.12-.23ZM85.6,36.62c-.18.03-.29.08-.27.06.07-.07-.14.21-.09.24.11.09.9-.39.36-.3ZM87.42,31.41c-.11.07-.22.91-.16.95.39.22.41-1.13.16-.95ZM84.9,32.34c-.16-.01-.54.33-.34.51.22.2.69-.48.34-.51ZM65.3,35.75c.09.06.45-.01.54-.12.27-.33.02-.83.03-1.13.01-.3.06-.42-.19-.39-.08,0-.41.37-.43.44-.03.09.1.19.09.43-.01.37-.22.63-.02.77ZM71.96,35.64c-.03-.19-.46-.52-.58-.87-.02-.05.06-.15.03-.2-.13-.23-.48-.42-.57-.61-.03-.07.02-.23,0-.26-.08-.09-.26-.04-.34-.11-.4-.28-.28-.91-.42-1.25-.04-.1-.25-.21-.26-.3,0-.05.12-.2.1-.29-.01-.05-.17.03-.16.02-.19.02-.46.44-.51.59-.15.47.24,1.7.68,1.86.14.06.44-.1.52-.02.23.22-.07.39-.07.4.01.18.74,1.3.58,1.54-.45.64-.63-1.07-.99-1.19-.45-.15-.71.5-.72.6,0,.11.19.14.24.4.12.6.21.71.64.82.22.06.44.25.58.25.57.01,1.34-.82,1.26-1.39ZM70.04,47.43c.19.25.46-.13.45-.24,0-.06-.49-.51-.54-.45-.1.11.06.17.07.22.02.13-.04.38.03.47ZM70.75,48.78s-.08-.16-.06-.27c.06-.35.28-.28,0-.36-.41-.12-.43.3-.59.47-.23.24-.46-.02-.48.13-.05.31.89.54,1.13.03ZM64.53,48.7c-.08.06,0,.27.12.22.13-.05.07-.36-.12-.22ZM70.44,46.52c.44-.32-.88-.96-.56-1.27.04-.04.26.13.5.08.29-.06.47-.58.42-.65-.01-.01-.14.02-.26.01-.43-.02-.6.32-1.04.4-.15.03-.34-.06-.51-.03-.26.05-.5.31-.74.44-.07.04-.26.08-.38.14-1,.53.84.06.92.05-.08.01.59-.05.58-.06.1.06.14.6.3.72.08.06.72.23.79.18ZM74.25,32.62c.15,0,.84-.81.61-.88,0,0-.49.14-.61.26-.06.06.05.16,0,.26-.05.15-.39.36,0,.36ZM74.11,34.4c.09-.04.25-.42,0-.36-.29.07-.14.41,0,.36ZM70.23,31.66c-.08.08.07.08.04.06.23.18-.03.24-.03.46,0,.02.4,1.27.46,1.31.42.29.69-.33.77-.6.07-.26-.05-.44-.06-.57-.04-.36.12-.54-.31-.62-.17-.03-.68.15-.69.15.09.03-.02-.34-.17-.18ZM72.33,36.53c0,.06-.14.3-.06.35.03.02.46-.08.55-.22.05-.08-.12-.23-.1-.33.01-.09.22-.21.26-.32.17-.48-.16-.98-.1-1.3.03-.13.14-.2.15-.29,0-.04-.11-.21-.09-.37.04-.36-.09-.32-.11-.58-.06-.6.44-1.7-.18-1.73-.37-.02-.27.22-.32.36-.05.15-.18.25-.17.44,0,.1.22.36.24.45.13.61-.3,1.8-.28,2.68.01.39.22.65.22.86ZM66.05,31.75c-.05-.12-.28-.19-.49-.18-.38.01-.59.12-.62.31-.03.21.56.78.64.77.11,0,.59-.59.46-.9ZM66.39,47.05c-.18-.21-.96-.48-1.12-.39-.5.27-.05.43.37.57.5.18,1.35.76,1.87.87.18.04.36.04.5.08.28.09.55.37.75.43.55.17.57.07.48-.13-.15-.33-.1-.09-.36-.32-.18-.16-.15-.35-.24-.4-.13-.07-.22.01-.41-.01-.41-.06-.76-.36-1.07-.43-.33-.08-.7.01-.77-.02-.03-.01.02-.23,0-.26ZM68.71,35.63c-.11,0-.44.3-.33.46.34.48.92-.5.33-.46ZM67.97,36.7c-.24-.02-.18-.23-.48-.23-.12,0-.45-.12-.46.29,0,.37.32.08.58.2.21.09.16.25.32.26.2.01.77-.39.47-.64-.24-.2-.29.15-.44.13ZM64.92,37.13c.13.25,1.16.08,1.19-.32.01-.23-.23-.48-.6-.41-.11.02-.69.52-.58.73ZM64.9,50.2c-.2.12.11.62.24.45.18-.23-.11-.53-.24-.45ZM64.68,49.35c-.29.12.12.43.22.24.12-.24-.2-.25-.22-.24ZM67.26,33.49c.07-.22-.35-.21-.49-.18-.68.16.42.37.49.18ZM68.2,31.84c-.1-.02-.14.07-.27.06-.14-.01-.29-.2-.54-.19-.3.02-1.08.59-.71.86.32.23.45-.45.64-.46.14-.01.31.41.57.61.08.06.15,0,.19.08.11.24-.12.42.02.52.53.39.31-.37.31-.36,0-.22.24-.42.25-.58.02-.34-.18-.47-.48-.54ZM17.07,33.42c.23-.05.18-.11.17-.08.23-.63-.71.2-.17.08ZM23.05,32.39c-.15.15-.2,1.2,0,1.29.38.17.47-.77.73-1.01.06-.05.14.02.21-.02.52-.22-.45-.35-.51-.34-.1,0-.37.03-.43.09ZM24.82,36.07s.14.27.18.13c.04-.1-.14-.22-.18-.13ZM22.22,42.29c-.58.32.9.65.92.66.65.5-.38,1.44-.24,1.82.07.2.56.21.58.2.11-.03.47-.55.47-.7,0-.04-.13-.2-.12-.22.05-.1.61-.4.68-.4.24,0,1.13.73,1.3.21.03-.1-.32-.51-.61-.67-.57-.3-1.19-.17-1.79-.39-.28-.11-.8-.72-1.2-.51ZM56.08,41.46c-.67.31.46,1.2.52,1.53.1.52.17.29.54.14.49-.19,1.45-.42,1.82-.43.1,0,1.06.02,1.01-.2,0-.02-.19-.08-.35-.06-.25.04-.08.14-.33.15-.5.03-1.28-.65-1.58-.77-.34-.13-1.54-.41-1.64-.37ZM23.83,38.07c.29-.01,1.07-.17,1.19-.32.32-.42-.08-1.53-.27-1.53-.42,0-.24.56-.27.68-.07.4-.51.77-.81.54-.21-.16-.01-1.08-.23-1.12-.01,0-.1.26-.09.32.02,0,.04-.01.04-.02-.03.04-.04.04-.04.02-.07.02-.22.04-.29.13-.17.22-.37.95-.36.97.1.25.87.34,1.13.34ZM14.96,32.77c.59-.25.78,1.05.94,1.18.41.33.42-.65.3-.88-.18-.35-1-.74-1.11-.75-.17,0-.98.13-1.08.34-.06.11.07.25.07.53,0,.22-.09.4-.08.5.03.49.25.86.17,1.47,0,.05-.09.18-.09.24,0,.3-.13,2.34-.08,2.41.14.19.81.2.94.21.26,0,1.2-.09,1.26-.15.23-.24.09-1.48-.23-1.48-.22,0-.11.32-.17.43-.08.15-.43.62-.75.5-.24-.09-.28-.89-.26-1.23.03-.88.69-.28.83-.69.1-.3-.74-.53-.82-.65-.24-.33-.2-1.83.17-1.98ZM24.01,49.33c.11-.15-.17-.16-.13-.18-.24.07.06.26.13.18ZM27.14,48.76c.14-.08.55-1.07.54-1.15-.02-.25-.3-.38-.45-.38-.26,0-.68.61-.93.67-.76.18-1.58-.39-2.12-.6-.37-.14-.74-.22-.88-.3-.43-.25-.08-.37-.03-.78.03-.22-.19-.45-.18-.49.03-.16.31-.18.3-.31,0-.11-.31-.51-.54-.45-.39.1-.09.38-.15.6-.05.17-.52.77-.75.81-.16.03-.41-.1-.69-.17,0,0-.72-.22-.8-.13-.16.17.3.43.49.49.26.09.63.28.77.33.17.07.38.04.55.09,1.68.52,2.49,1.5,4.24,1.77.21.03.55.03.62,0ZM25.19,32.89c.1-.41-.28-.66-.63-.56-.37.09-.23.2-.31.62-.09.53-.2.59-.15.9.04.25-.26.49-.34.82-.01.05.01.61-.04.56.35.32.36-.25.43-.4,0,0,.05.07.11-.03.21-.39-.04-1.07.24-1.15.33-.09.11-.07.27-.37.14-.27.39-.23.43-.39ZM25.67,37.5c.06.11.83.33,1.06.12.15-.14-.07-.52-.1-.94-.04-.51.13-1.05.09-1.48-.03-.28.03-.55.01-.72-.02-.28-.2-.37-.17-.54.1-.64.6-1.59-.03-1.7-.11-.02-.67,0-.75.19-.13.29.2.55.24.76.04.23.07.57.07.83,0,.53-.3,1.28-.32,1.96,0,.28.2.97.1,1.3.02-.07-.21.18-.19.23ZM12.3,33.63c-.46-.21-.07.67.18.49.08-.06.2-.68.21-.64-.01-.09-.13-.15-.12-.23,0,.02.27-.18.2-.27-.12-.18-.47-.1-.5-.08-.38.26.39.89.04.73ZM17.18,35.6c.51-.02.1-1.14-.07-1.14-.9,0-.03,1.15.07,1.14ZM28.08,36.29c.1.22.17-.1.31,0,.13.08-.12.26.12.23,0,0,.13-.28.09-.24.31-.31.87.11.86.09,0,.02.16.09.13.12-.09.14-.24.1-.31.31-.09.3.11.16.1.33-.02.27-.34.26-.23.48.19.4.91,0,.93-.31,0-.08-.26-.28-.28-.51,0-.06.16-.11.18-.18.07-.24-.3-.88-.35-.98-.06-.11-.07-.3-.08-.48-.07-1.02-.07-2.3-.43-2.44-.06-.02-.66.13-.64.1-.03.03-.16.71-.16.69-.13.88.07,1.58-.14,2.4-.05.22-.25.09-.11.39ZM18.49,32.88c-.42.22-.25,1.72.36,1.6.43-.08-.1-1.74-.36-1.6ZM33.04,33.03c-.6.06.03,1.52.37.93.13-.24-.16-.21-.23-.5-.06-.27.18-.47-.14-.43ZM33.99,24.95c0-.11-.27-.21-.34-.11-.14.19.35.39.34.11ZM33.59,32.5c.08-.22-.19-.37-.51-.34-.18.02-.49.19-.42.35.07.14.84.24.93,0ZM31.94,32.85c-.21-.26-.22.11-.42.04-.16-.06-.28-.83-.53-.55-.06.06.22.57.26.61.16.14.44-.06.43.23,0,.12-.52.18-.54.48-.03.38,1.13.62.64,1.13-.02.02-.3-.12-.35-.11-.14.04-.26.38-.27.42-.08.29.23.67.22.86,0,.14-.2.36-.25.58-.04.2.03.45,0,.67,0,.04-.13.3-.11.34.08.14.83.31,1.05.22.38-.16-.19-.45-.15-.64.07-.36.73-.31.95-.15.21.14.06.46.33.47.22,0,.37-.41.39-.5,0-.02.1-.94.08-1.12-.06-.52-.37-.42-.68-.57-.21-.11-.52-.41-.55-.45-.06-.1.04-.27-.03-.47-.02-.07-.19-.12-.23-.19-.04-.08.04-.19,0-.31-.11-.31-.42-.49-.41-.63,0,.02.33-.12.16-.34ZM17.37,37.9c.5.26.8-.05,1.04-.09.21-.03.55.19.71.06.3-.24-.18-1.02-.15-1.62.02-.48.38-.7-.17-.85-.14-.04-.84-.09-.87-.04-.15.25.37.46.42.58.06.15-.05,1.59-.32,1.65-.16.04-.42-.36-.45-.43-.09-.22-.02-.9-.18-1.11-.08-.11-.48-.19-.54-.14-.17.14-.19.63-.15.9.06.36.4.96.65,1.08ZM28.68,37.68c.1-.17-.25-.97-.4-1.04-.05-.03-.09.03-.11.03-.36.04-.66.83-.28,1.09.18.12.68.1.79-.08ZM31.69,47.02s.07-.41.07-.4c.37-.3,1.89.53,2.04-.18.02-.12-.48-.49-.78-.59-.43-.14-1.27-.11-1.96-.32-.48-.14-.86-.32-1.24-.3-.25,0-.83,0-.87.27-.05.42,1.01.34,1.4.59.38.25.18,1.17.02,1.75-.15.59-.43,1.5-.82,1.57-.35.06-1.39-.53-1.59-.05-.13.31.72.63,1.06.74.41.13.76.08,1.25.2.59.14,1.38.63,2.02.54.21-.03.51-.35.48-.44-.12-.52-1.37-.26-1.68-.74-.12-.19-.04-1.24.08-1.74.07-.31.39-.63.51-.9ZM21.79,37.64s-.05-.23.01-.41c.06-.18.23-.24.26-.32.1-.31.2-.87.19-1.15-.01-.32-.27-.49-.29-.77-.02-.37.17-1.02.14-1.52-.03-.65-.45-1.15-1.16-1.07-.53.06-.97.58-.68,1.02.55.83.12-.98.85-.79.26.07.17.38.25.66.03.1.16.17.17.23.02.11-.07.26-.07.4.02.31.26.55.25.66,0,.08-.16.22-.15.28,0,.08.18.15.17.18-.02.15-.22.39-.26.63-.02.16.03.75.09.99.11.37.23.29-.24.53-.75.38-.47-.22-.61-.67-.05-.16-.28-.29-.29-.41,0-.07.15-.26.17-.43.03-.29-.17-.85-.25-1.02-.12-.26-.05-.56-.22-.55-.24.02-.39,1.18-.29,1.5.08.24.2.11.2.39,0,.09-.15.17-.21.33-.14.38.2,1.18.59,1.43.37.24,1.13.18,1.36-.14ZM11.64,38c.05-.22-.19-.28-.28-.51-.14-.35-.04-1.05-.12-1.46-.02-.1-.4-1.01-.07-1.15.18-.07.42.57.42.58.03.21.03.57.12.84.1.28.31.51.39.78.09.33.12.61.4.73.59.26.22-.35.26-.63.05-.38-.26-1-.12-1.15.14-.15.02-.16,0-.31-.03-.23.1-.67.04-.92-.03-.13-.36-.67-.46-.64-.45.11.09.58.1.68,0,.14-.28.47-.29.47-.49.11-.19-.47-.21-.6-.03-.17-.24-.29-.34-.47-.2-.35-.5-1.04-.83-.91-.19.07-.23.97-.24,1.15-.02.67.28,1.7-.02,2.67-.09.28-.34.56-.37.71-.1.52,1.54.46,1.63.11ZM52.09,53.94c-.11.15.24.27.25.09,0-.16-.2-.15-.25-.09ZM53.24,48.16c-.09.05-.17.06-.13.18.12.38.65-.43.13-.18ZM54.29,48.07c-.07.11.13.39.32.26.15-.11-.19-.46-.32-.26ZM53.1,42.67c-.02-.12-.44-.28-.67-.31-.29-.04-.59-.03-.74.09-.28.23-.31,1,.29,1.08.2.03,1.15-.63,1.12-.85ZM51.91,54.12c.17-.12-.32-.41-.4-.37-.27.1.24.49.4.37ZM51.44,54.45s-.56.12-.55.22c.07.47,1.16-.07.55-.22ZM50.84,51.83c-.11,0-.39.15-.25.27.18.14.56-.28.25-.27ZM57.61,52.01c0-.22-.27-.21-.38-.22-.41-.03-.14.18-.39.19-.02,0-.08-.16-.23-.19-.31-.07-.75.11-.67.3.09.2.66-.02.97,0,.27.02.69.29.69-.1ZM56.7,53.5c-.23.19.24.35.24.09,0-.08-.15-.16-.24-.09ZM48.21,52.8c-.21-.52-.53.4-.05,0-.04.03.07.06.05,0ZM55.52,49.97c.07.15.59.19.68-.04.06-.17-.09-.24-.05-.32,0,.02.47-.35.03-.2-.34.11-.08.22-.15.28-.02.02-.6.07-.51.28ZM55.24,51.05s-.19.09-.12.14c.17.12.3-.13.12-.14ZM53.44,42.78c0,.55,1.09.09,1.23.04.58-.19-.59-.33-.83-.29-.25.05-.4.02-.4.24ZM57.86,47.62c-.2-.02-.61-.04-.88.01-.37.07-.3.29-.11.34.3.09,1.4-.16,1.38-.24-.05-.24-.37-.11-.39-.12ZM55.41,51.91c.04-.17-.2-.22-.28-.2-.5.13.21.53.28.2ZM53.26,54.03c-.1-.02-.51-.03-.58.06-.51.74,1.72.19.58-.06ZM45.96,52.43c.14,0,.4-.23.4-.24.03-.22-.9-.7-.83-1.27.02-.17.27-.11.16-.33-.09-.18-.58-.21-.64-.21-.18.02-.35-.02-.43.14,0,0,.02.51.09.69.17.42.98,1.22,1.24,1.23ZM61.12,51.65c.57-.16.69-1.28-.03-1.08-.17.05-.09.45-.39.45-.28,0-.27-.44-.47-.59-.1-.07-.32.01-.45-.07-.17-.11-.31-.68-.29-.72.04-.1.35-.12.5-.23.23-.17.74-.68.74-1.06,0-.51-.65-.66-1.17-.76-.11-.02-.92-.18-1.08.03-.29.37,1.06.66,1,1.09-.04.29-.7.5-.99.71-.15.11-.3.37-.43.39-.11.03-.15-.15-.33-.16-.25-.02-.65.22-.66.25-.09.38.97.16,1,.16.04,0,.68.11.7.12.25.09,1.08.92,1.05,1.15-.02.17-.2.2-.16.33.17.55.77.02.99-.04.16-.05.34.06.46.02ZM47.69,12.89c-.12-.5-.4-.6-.54-.83-.08-.14-.14-.24-.22-.35-.2-.27-.04-.49-.15-.71-.14-.29-.65-.46-.68-.56-.04-.13.19-.36.22-.65,0-.09-.13-.17-.13-.25,0-.11.14-.2.15-.28.1-.56-.24-1.23-.63-.98-.25.16-.09.27-.13.56,0,.04-.15.2-.15.28,0,.07.12.19.12.2-.06.23-.38.47-.48.78-.04.15-.2.88-.19.93,0,.08.14.18.13.25-.02.1-.19.14-.22.24-.04.11-.25,1.11-.24,1.18.02.11.29.28.25.45-.03.17-.44.26-.47.37-.04.13.16.9.14.89.42.37.88-.6.93-.62.11-.04,1.16.16,1.27.15.16-.02.38-.13.43-.12.04,0,.17.3.36.24.33-.09.19-.4.18-.58-.01-.2.1-.42.06-.6ZM46.41,12.91c-.13.11-.82,0-.94-.25-.08-.15.09-1.15.17-1.22.55-.52,1.09,1.18.77,1.46ZM33.85,6.37c.33-.09,1.67-.22,1.54-.51-.06-.14-.81-.04-.94-.02-.44.09-1.43.3-1.5.44,0,0-.09.04-.04.07.47.28.52.13.94.02ZM89.04,44.89c-.11.06-.39.46-.32.5.22.12.72-.71.32-.5ZM26.47,13.82c.11.38.21.48.34.78.08.19.08.39.14.48.06.09.27.13.36.24.23.31.22.86.34,1.36.13.56.61,1.68,1.12,1.65.23-.01.19-.25.31-.32.2-.11.49-.04.77-.16.34-.15,1.55-.75,1.52-.97-.04-.31-1.24-.24-2.03.24-.06.04-.1.32-.28.25-.2-.08.04-.16-.07-.44-.1-.26-.54-.6-.63-.75-.05-.08-.04-.29-.11-.38-.11-.14-.21-.05-.29-.21-.29-.53-.27-1.49-.57-2.16-.12-.28-.34-.41-.47-.62-.23-.36-.38-1.92-1-1.22-.09.1.12.43.1.55-.02.19-.2.16-.19.35.02.54.5.92.62,1.33ZM96.55,26.86c-.08-.25-.33-.39-.42-.23-.13.23.23,1.58.54,1.24.25-.27-.15-.07-.21-.52-.03-.19.13-.36.09-.49ZM42.61,5.05c.05-.09-.37-.44-.4-.17-.03.26.33.3.4.17ZM96.89,29.84c-.02-.35-.06-1.73-.44-1.51-.42.26.15,1.06.18,1.64.04.66-.46.75-.34,1.44.06.37.17.09.25.45.04.18-.45,1.92.06,2.02.06.01.38-.44.39-.46.05-.17-.09-.33-.08-.68,0-.25.06-.51.04-.88-.02-.24.15-.48.15-.68,0-.44-.2-.94-.22-1.33ZM83.18,48.98c-.18.06-.25.2-.24.18-.53.54.71.16.59-.17-.08-.22-.2-.07-.35-.01ZM86.04,17.97c-.24.08-.2.27-.37.34-.09.04-.13-.14-.26-.1-.5.14-.59,1-.74,1.26-.21.37-.6.42-.95.74-.18.17-.22.61-.39.87-.26.42-1.09.69-1.4.99-.23.22-.27.55-.47.78-.27.32-.69.36-.65.77.05.42.69.52,1.03.93.28.33.24.4.53.6.33.22.85.62,1.11.61,1.66-.04-.67-1.49-.81-1.98-.15-.52.35-.73.63-1.05.08-.1.07-.27.13-.33.06-.05.3-.07.36-.16.06-.09-.05-.28,0-.41.03-.06.3-.4.43-.53.17-.16.4-.2.6-.35.4-.3.6-.68.83-.94.15-.16.39-.2.49-.32.1-.12.12-.34.17-.4.21-.22.71-.39.65-.77-.06-.32-.58-.65-.92-.55ZM85.48,47.67c-.31-.24-.13-.04-.43.13-.83.45.71.09.43-.13ZM23.46,12.89c.08-.14-.34-.39-.34-.19,0,.08.28.3.34.19ZM46.54,4.72c-.45-.02-1.56-.23-2.07-.1-.24.06-.74.11-.77.17-.03.08.68.23.88.21.11-.01.26-.12.43-.12.12,0,.33.14.51.14.3,0,.63-.2,1-.17.07,0,.89.35.73-.1-.08-.21-.2,0-.71-.03ZM31.94,10.6c.08.2.33.09.33.31,0,.06-.22.27-.25.36-.05.19-.04.57-.01.76.05.38.41.84.43,1.1.02.23-.21.2-.21.47,0,.11.14.09.2.29.08.28.17,1.12.6.87.48-.27-.42-1.52-.43-1.68,0-.05.25-.23.26-.31,0-.05-.15-.61-.25-.86-.2-.49-.1-.28.01-.76.07-.28-.04-.68-.05-.98-.01-.26.54-.73.59-.75-.04.02.87-.25,1.18-.17.28.08.69.9.81,1.39.17.67.44,2.21.55,3.28.03.3.03,1.16-.17,1.39-.51.57-1.79.33-2.04.01-.16-.22-.06-.42-.25-.45-.17-.02-.4.22-.4.23-.19.6.56.87.76,1,.42.29.74.58,1.37.3.19-.08.33-.37.61-.52.59-.34.97-.44.99-.99.02-.35-.36-.77-.36-1.23,0-.07.25-.24.26-.31.05-.21-.16-.62-.23-.98-.13-.69-.39-1.8-.62-2.32-.1-.24-.44-.43-.66-.68-.1-.11-.16-.31-.22-.34-.47-.32-1.49-.18-2.02.06-.43.2-.92,1.15-.79,1.51ZM89.45,15.87s-.04.18,0,.23c.31.3.26-.66,0-.23ZM85.99,47.41s.36-.22.35-.22c.37-.11.88-.08,1.23-.36.33-.26.27-.55.47-.78.15-.17.44-.1.31-.32-.09-.17-.2-.01-.28.02-.27.12-.15.35-.44.48-.11.05-.26-.02-.39.06-.01,0-.34.34-.31.32-.21.14-1.14.6-.93.8ZM36.18,58.18c-.36-.02-1.11-.27-1.67-.33-.06,0-.09.11-.2.12-.15,0-.19-.13-.4-.18-.33-.08-.93,0-1.13-.08-.21-.08-.58-.53-.58-.59,0-.18.32-.27.37-.34.03-.04.06-.26.08-.31.25-.64-.2-.36-.6-.47-.33-.08-.66-.44-.96-.3-.12.06-.08.4-.43.53-.28.11-.61.06-.67-.1-.14-.37.76-.53.77-.57.07-.4-1.08.01-1.1.03-.19.17.22.26-.21.47-.11.05-.63-.11-.94-.02-.25.07-.76.12-.89-.03-.05-.06-.04-.88-.29-.79-.1.04,0,.38,0,.41-.02.09-.2.46-.32.5-.14.05-.24-.17-.52-.2-.33-.03-.8-.11-1.03-.34-.08-.08-.03-.2-.13-.25-.15-.08-.53-.05-.81-.17-.25-.12-.44-.38-.58-.41-.34-.08-.85.17-1.08.08-.08-.03-.23-.33-.34-.37-.21-.06-.41.06-.53-.02-.11-.07,0-.23-.11-.38-.18-.26-.96-.25-1.1-.38-.05-.05-.02-.24-.08-.27-.1-.05-.28.06-.41,0-.08-.04-.13-.24-.2-.29-.17-.13-.77-.11-1.1-.38-.09-.07-.06-.21-.13-.25-.13-.08-.43-.08-.58-.18-.17-.12-.17-.25-.25-.27-.2-.06-.5.12-.69.02-.25-.12-.39-.72-.71-.84-.2-.08-.44.07-.59,0-.07-.04-.05-.27-.09-.32-.08-.1-.41-.11-.59-.24-.14-.09-.21-.31-.36-.42-.17-.13-.48-.17-.68-.33-.08-.06-.04-.15-.13-.25-.33-.35-1-.54-1.21-.76-.33-.34-.44-.17-.8-.35-.3-.15-.89-.76-1.13-1.07-.25-.33-.36-.3-.62-.52-.11-.09-.12-.24-.22-.35-.23-.24-.62-.34-.83-.63-.12-.17-.15-.44-.28-.56-.08-.07-.28-.02-.37-.07-.17-.09-.47-.35-.6-.47-.19-.17-.22-.43-.42-.63-.29-.31-.75-.48-1.03-.75-.04-.05-.02-.21-.09-.32-.08-.11-.3-.13-.35-.19-.05-.08.04-.21-.02-.29-.39-.42-.87-.29-.94-.83-.08-.68-.35-.65-.68-1.32-.26-.54-.48-.79-.64-1.21-.09-.22-.11-.49-.2-.7-.18-.42-.44-.51-.56-.71-.07-.12-.06-.38-.16-.54-.08-.14-.22-.15-.24-.22-.07-.25.13-.66.07-.95-.04-.23-.28-.46-.33-.72-.1-.59-.1-1.43-.29-2.01-.12-.36-.36-.64-.42-1.04-.06-.42.05-.85-.06-1.21-.22-.69.12-.75.3-1.37.03-.1-.06-.23-.04-.34.03-.16.19-.35.25-.54.08-.25.05-.5.1-.67.05-.18.21-.27.23-.41.01-.14-.15-.21-.16-.36,0-.12.15-.19.19-.35.06-.22.01-.48.08-.72.06-.22.22-.4.29-.61.09-.29.05-.61.12-.79.17-.45.64-.85.81-1.23.14-.31.31-.72.36-.98.02-.14-.09-.32-.02-.46.03-.06.26-.1.31-.15.16-.16.31-.64.53-.97.35-.52.82-.88.93-1.2.06-.19-.04-.29.05-.42.07-.1.19-.02.36-.16.25-.2.46-.81.7-1.02.38-.34,1.35-.37,1.4-.58.05-.21-.46-.34-.4-.58.03-.11.37-.12.65-.36.28-.24.78-1.12,1.01-1.34.08-.08.3-.08.41-.18.16-.14.16-.38.37-.52.16-.1.43-.09.64-.19.32-.15.46-.58.77-.75.21-.11.47-.09.7-.2.69-.35,1.12-1.39,1.62-1.64.25-.12.38-.3.58-.4.11-.06.23.05.35.01.25-.08.46-.44.76-.57.29-.12.67-.1.93-.21.14-.06.2-.26.31-.32.21-.12.5-.08.7-.2.33-.22.41-.66.59-.75.09-.05.43.02.68-.08.2-.08.35-.32.53-.39.17-.07.41-.02.55-.1.34-.18.57-.79,1.12-.96.54-.18,1.64,0,1.65-.54,0-.15-.37-.4-.46-.39-.17.02-.21.31-.38.29-.2-.03-.28-.38-.46-.39-.23-.01-.07.24-.26.31-.17.06-.94-.39-1.24-.45-.25-.06-.58-.02-.75.04-.2.07-.49.27-.62.47-.08.12.02.33-.04.48-.02.04-.2.13-.28.25-.11.17-.14.43-.23.59-.06.11-.21.14-.28.26-.09.15-.05.35-.11.44-.4.59-.66.44-1.26.48-.88.06-2.51-.25-3.11.32-.26.25-.11.88-.33,1.08-.12.11-.26-.19-.48-.04.01,0-.16.55-.17.63-.09.68-.04,1.68-.87,1.83-.13.02-.24-.17-.46-.16-.47.02-.59.42-.74.45-.14.03-.18-.21-.24-.22-.17-.04-.28.12-.37.11-.3-.03-.42-.23-.65-.22-1.56.11-1.71,1.55-1.79,2.44-.02.22-.25.46-.27.66-.02.12.08.27.05.39-.22.92-.69,1.06-1.55,1.27-.51.12-.81.83-.72.33.06-.34-.39-.42-.7-.2-.05.04.02.2-.1.44-.03.06-.16.06-.2.12-.07.09-.08.37-.2.52-.12.16-.2-.11-.24.19-.03.23.24.54.24.81,0,.19-.2.4-.22.65-.04.44.1.98.02,1.28-.08.31-.4.45-.63.65-.49.42-.89.88-1.51,1.2-.55.28-.25.62-.13.97.1.29-.01.63,0,.81.01.16.16.27.18.42.02.11-.09.2-.08.31.01.14.11.33.13.43.05.38-.2.7-.29,1.02-.02.08.05.23.02.28-.1.21-.36.31-.53.56-.05.07,0,.26-.07.37C.51,30.09.02,30.27,0,30.56c0,.03.18.22.22.34.1.32-.12.77.01,1.04.09.19.41.26.53.43.14.19.12.69.2.88.19.44.63.7.69.96.02.11-.1.27-.07.37.14.39.22.29.2.7-.01.45-.08.62-.07.95,0,.1.11.13.13.25.06.39-.36.72-.36.98,0,.11.27.51.33.72.11.38.04.71.14.89.02.03.19.07.28.15.36.34.28.15.66.27.16.05.78.64.86.74.29.36.32.92.41,1.4.07.41.29.65.02.87-.4.33.18.25.26.51.08.22-.3.6-.24.77.07.21.61.49.9.49.25,0,.46-.25.41,0-.12.51.72.12.91.14.38.04,1.37.66,1.46,1.21.02.15-.11.24-.07.37.06.19.32.81.47,1.03.06.08.2.1.23.17.06.16-.06.54.03.69.13.24.51.35.6.46.02.02-.04.27-.03.3.13.31.59.22.84.28.09.02.16.19.24.22.5.19.85.05,1.22,0,.41-.06,1.18.32,1.33.55.04.07-.05.19-.03.3.15.75.46.72.71,1.25.08.18.06.37.15.54.02.03.22.09.29.21.08.13.04.26.1.32.25.31.43.02.68.15.02,0,.14.28.2.29.48.08,1.1-.2,1.55-.27.12-.02.17.09.32.08.09,0,.22-.13.31-.15.49-.08,1.29.28,1.43.52.1.17.05.49.13.66.27.58.98.56,1.21,1.16.06.15-.09.34-.02.53.06.16.29.43.43.46.21.05.43-.19.59-.17.15.02.28.22.36.25.16.04.32-.08.45-.07.08,0,.26.22.24.22.46.08.72-.3.88-.37.14-.06.5.05.64-.01.17-.08.22-.31.42-.36.45-.11.86.12,1.06.45.14.21,0,.5.17.77.12.19.33.04.5.32.04.06-.08.33-.07.37.01.03.23.17.31.26.38.45.15.25.69.38.12.03.27.2.29.2.29.02.46-.27.6-.12.07.07-.19.25-.03.3,0,0,.81-.13.67-.08.08-.03.15-.19.22-.24.22-.14.5-.43.67-.49.37-.13,1.22.2,1.62.17.2-.01.29-.17.43-.12.22.07,0,.15.21.34.13.11.27.06.33.14.04.05-.08.15,0,.23.14.12.39.16.56.31.17.16.23.41.4.58.31.3.52.14.79.12.11-.01.28.12.38.12.04,0,.24-.1.37-.11.28-.01.89.08,1.49-.08.4-.11,1.97-.47,1.99-.58.07-.45-1.05-.25-1.3-.26ZM84.33,48.3c-.14.26.52-.03.31-.15-.21-.12-.26.05-.31.15ZM63,16.65c0-.18-.34-.32-.3-.44.17-.44,1.04-.21,1.19-.52.13-.27-.28-.64-.33-.95-.03-.15.02-.74.15-1.09.05-.15.24-.26.28-.43.05-.18-.04-.4,0-.58.02-.09.19-.15.22-.24.04-.14.01-.41.06-.6.05-.23.17-.45.18-.58.05-.53.05-2.31-.66-1.85-.11.08,0,.28,0,.23-.06.25-.87,1.21-.86,1.65,0,.09.18.29.16.36-.05.16-.3.24-.37.34-.08.12-.19.44-.18.58,0,.01.14.19.13.25-.02.12-.2.28-.23.42-.03.16.05.32.02.46-.04.18-.19.3-.21.47-.01.11.07.27.05.39-.02.11-.17.27-.17.4,0,.23.19.52.16.77-.03.27-.37.52-.42.76-.18.98,1.1.61,1.11.2ZM89.65,44.18c-.07.25.52.2.39-.06-.07-.15-.36-.06-.39.06ZM94.01,39.36c.26.14.68-.86,1-1.17.18-.17.43-.58.35-.8-.06-.16-.12.16-.32-.08-.11-.14-.03-.42-.28-.15,0,0-.05.02-.05.01.26.45-.12.9-.39,1.45-.04.08-.48.64-.31.73ZM77.4,17.7c-.21.22-.18.63-.32.91-.11.22-.32.24-.35.39-.03.14.12.25.09.5-.03.22-.22.34-.18.58.1.55.94.81,1.14,1.13.05.07.01.34.05.39.03.03.23.06.33.14.47.35.31.36.81.17.21-.08.61-.03.73-.09.08-.04.18-.27.3-.38.22-.2.61-.32.69-.44.1-.14.03-.35.1-.44.28-.33.67-.35.86-.66.1-.16.07-.39.18-.58.03-.05.18-.02.21-.06.15-.16.13-.56.28-.84.26-.47.64-.74.7-1.02.02-.14-.12-.32-.12-.43,0-.06.11-.09.11-.21,0-.23-.2-.13-.14-.31.02-.06.29-.13.29-.2,0-.18-.21-.82-.28-.97-.18-.39-1.13-1.17-1.4-1.22-.38-.07-.99.17-1.26.25-.42.12-.8.19-.88.37-.02.06.07.24.03.28-.1.11-.5-.03-.44.3-.03-.13.45.21.27.33-.26.16-.32-.27-.42-.23-.12.05-.13.5-.07.37-.11.22-.43.38-.5.5-.04.07.07.17.03.28-.06.13-.6.67-.61.7-.04.13.07.27.04.34-.05.09-.18.05-.25.13ZM77.99,19.74c.03-.14.2-.23.28-.43.1-.23.05-.48.08-.55.03-.06.2-.14.28-.25.15-.22.4-.57.51-.85.07-.16.04-.43.13-.56.16-.27.38-.27.6-.53.41-.46.54-1,.93-1.2,0,0,.9-.22,1-.18.16.08.47.78.48.85.03.22-.2.71-.33,1.09-.13.39-.18.84-.33,1.09-.12.2-.36.31-.59.58-.2.23-.3.59-.49.9-.21.34-.77,1.12-.98,1.22-.65.29-1.75-.33-1.57-1.18ZM93.61,39.77c-.15.05-.37.29-.51.44-.47.53-.93,1.45-1.33,1.84-.21.21-.7.34-.45.65.04.06.47.15.69-.03.15-.11-.06-.21.11-.44.11-.15.39-.24.44-.3.17-.23.08-.58.3-.78.18-.17.5-.15.61-.29.06-.07-.03-.32.04-.48.11-.24.86-.87.11-.62ZM75.06,15.87c-.03.45-.08.4-.12.79-.01.09-.2.16-.22.24-.02.06.08.15.06.21-.05.26-.21.37-.21.47,0,.03.09.25.08.27-.05.11-.38.12-.41.18-.02.03.07.34.06.39-.07.3-.54.8-.36,1.16.03.05.29.14.29.2,0,.1-.34.14-.2.29.05.06.27.18.54.07.47-.18.43-1.16.68-1.48.08-.11.21-.05.25-.13.1-.23-.01-.49.07-.78.11-.38.42-.65.44-.89,0-.07-.1-.2-.08-.27.11-.29.45-.43.54-.74.02-.08-.05-.21-.02-.29.12-.31.45-.51.58-.81.14-.32,0-.75.1-1.25.09-.45.48-.76.39-1.05-.11-.39-.9-.52-1.15-.36-.35.21-.13.49-.3.79-.08.13-.21.1-.24.18-.03.09.06.26.04.34-.08.3-.37.59-.39.87,0,.2.2.48.17.59,0,.04-.23.04-.27.08,0,0-.3.64-.32.91ZM95.71,35.37c-.04.07.02.26-.07.54-.1.29-.39.59-.39.64-.05.36.15.67.13.66.26.14.26-.38.32-.5.12-.25.35-.5.52-1.03.1-.33.39-1.77-.21-1.1-.25.28.1.24.03.51-.02.07-.26.16-.33.27ZM69.23,17.45c.07.15.31.19.48.44.04.06-.08.22-.03.3.03.06.14-.03.26.1.07.07.08.21.13.25.45.34.72.19,1.28.21.25,0,.43.14.56.13.71-.07.56-.33.97-.87.08-.1.23-.16.27-.26.03-.06-.09-.2-.08-.27.04-.19.34-.72.21-.88-.08-.1-.43-.08-.53-.02,0,0-.11.45-.1.44-.28.45-1.31.95-1.69.38-.83-1.22.3-1.77.28-2.82,0-.43-.02-.24.18-.58.12-.21.38-.75.43-.94.04-.13-.04-.31,0-.41.32-.74,1.41-.89,1.69-.2.12.29-.34,1.32-.23,1.41.08.07.89-.14.89-.14.31-.18.61-.92.53-1.38-.03-.16-.29-.9-.35-1-.3-.49-1.52-.8-1.95-.71-.96.2-1.69,1.03-1.96,1.68-.13.3.03.93-.17,1.21-.09.12-.26.05-.31.15-.09.21-.02.58-.16.86-.12.24-.38.36-.41.59-.02.12.1.3.07.44-.12.57-.53,1.35-.27,1.88ZM64.52,15.68c-.12.6.3,1.73.76,1.82.16.03.3-.12.45-.07.05.02.03.24.08.27.08.05.58.1.72.08.19-.03.97-.34,1.04-.42.1-.12-.09-.2.03-.3.04-.03.27.05.35.01.33-.13.74-1.15.71-1.37-.06-.4-.52-.75-.87-.56-.06.03-.66,1.01-.68,1.07-.1.29.03.54-.06.6-.09.06-.34-.13-.46-.16-.29-.08-.76-.08-.91-.32-.38-.64.15-1.7.1-2.24-.03-.31-.2-.36-.14-.48.01-.02.43-.13.43-.13.22-.18.05-.61.12-.79.07-.16.35-.29.44-.48.16-.33.02-.66.14-.91.36-.78,1.63-.96,1.72.31.02.28-.37.74-.11,1.02.38.41.65-.28.77-.57.16-.41.19-.51.18-.99,0-.13.09-.22.08-.31-.16-1.36-1.7-1.66-2.79-1.17-.54.25-.5.48-.74.86-.1.15-.26.22-.31.32-.07.16-.05.48-.15.69-.08.16-.26.24-.3.38-.09.33.07.74-.02,1.12-.08.33-.14.4-.17.81-.01.18-.16.4-.18.58-.04.28.1.55.06.8-.04.21-.27.38-.3.55ZM57.06,7.66c.06-.11-.13-.42-.28-.15-.12.22.21.27.28.15ZM49.91,14.51c.79-.32,0-1.74-.67-1.09-.4.39.14,1.3.67,1.09ZM43.42.44c.29.06.26-.6,0-.41-.11.08-.22.36,0,.41ZM22.97,9.42c.19.42.96-.68.22-.24-.12.07-.26.15-.22.24ZM90.74,43.52c.33-.43.43-.58-.09-.32-.16.08-.71.53-.49.72.24.21.49-.29.58-.4ZM22.23,12.67c-.08-.09-.17-.03-.22.06-.07.13.34.07.22-.06ZM27.15,7.97c.14-.02.65.17.96.07.26-.08.8-.58.73-.68-.13-.19-.5.11-.82.18-.7.16-1.08.18-1.63.42-.15.07-.63.22-.47.37.16.15,1.01-.33,1.23-.36ZM56.51,13.99c.02.23.3-.04.49.27.02.04.05.47.05.57,0,.22-.23.42,0,.58.57.43.54-.82.62-1.05.07-.2.33-.38.37-.52.17-.53-.01-1.28.43-1.52.18-.1.3.04.58,0,.1-.01.24-.15.31-.15.25.02.16.2.41.23.38.04.94-.31.57-.63-.16-.14-1.44-.02-1.82-.46-.35-.4,0-.44.07-.78.04-.19-.06-.4-.03-.52.04-.16.21-.24.27-.48.05-.24-.02-.42.03-.48.29-.32,1.4.02,1.57.18.35.34.23,1.68.93,1.19.05-.04.21-.62.14-.92-.02-.07-.2-.14-.27-.33-.08-.22-.29-.83-.37-.88-.24-.17-.4.1-.82,0-.25-.06-.38-.37-.58-.41-.37-.08-1.04.08-1.32.27-.42.28-.22.55-.29,1.02-.04.25-.28.45-.33.67-.08.4-.05.91-.18,1.39-.13.49-.33,1.07-.3,1.37.05.47.11.69-.11,1.02-.12.17-.43.3-.42.35ZM90.06,21.17c-.14.06-.28.38-.56.69-.26.29-.7.49-.9.73-.07.08-.09.28-.18.4-.13.18-.38.3-.46.42-.14.22-.12.51-.26.72-.16.24-.48.51-.72.73-.26.24-.49.51-.72.73-.16.15-.59.34-.71.56-.07.13,0,.28-.07.37-.2.26-.45.19-.39.46.14.65,1.02-.06,1.08-.31.03-.16-.1-.24-.04-.34.08-.12.35-.21.48-.37.18-.23.13-.52.24-.59.08-.06.3.05.46-.02.19-.07.42-.48.81-.82.24-.21.56-.24.76-.4.16-.12.26-.36.39-.46.08-.06.3-.09.42-.18.37-.27,1.48-1.41,1.49-1.48.08-.67-.81-.98-1.12-.84ZM98.5,22.74c-.76-.51-1.65-.91-1.94-2.06-.11-.42.08-.81-.11-1.19-.07-.14-.28-.17-.34-.37-.09-.28.17-.63-.05-.98,0,0-.79-.48-.78-.47-.19-.04-.25.14-.39.06-.05-.03-.07-.22-.15-.31-.12-.12-.48-.4-.65-.45-.31-.08-.62.1-.87.02-.08-.03-.2-.19-.31-.26-.55-.36-.66-1.33-1.09-1.95-.06-.09-.55-.31-.59-.41-.08-.24.38-.47.19-.75-.24-.35-.96.18-1.2-.12-.05-.06.12-.37.09-.49-.06-.28-.61-.67-.89-.67-.43,0-.52.4-.93.39-.22,0-.35-.36-.57-.36-.2,0-.41.32-.72.33-.2,0-.74-.4-.87-.79-.2-.61-.42-.82-.8-1.34-.17-.23-.25-.53-.38-.71-.1-.13-.29-.2-.32-.31-.04-.1.13-.23.03-.3-.28-.2-.69.18-1.17.17-.16,0-.37-.27-.61-.29-.29-.02-.61.25-.81.23-.47-.04-.48-.56-.62-.93-.1-.27-.6-.64-.89-1.08-.19-.28-.22-.63-.34-.77-.31-.38-1.15-.6-1.57-.59-1.04.02-2.44,1.03-3.28.32-.12-.1-.37-.4-.53-.6-.19-.26-.51-.74-.72-1.07-.07-.11-.06-.27-.16-.36-.03-.03-.26.04-.28.02-.06-.04-.08-.21-.13-.25-.29-.21-.84-.35-1.14-.31-.09.01-.19.17-.34.22-.08.02-.26-.02-.41,0-.84.14-2.13.97-2.55.86-.03,0-.48-.59-.64-.8-.21-.26-.24-.53-.4-.76-.05-.07-.24-.13-.31-.26-.27-.53-.24-.27-.66-.45-.31-.13-.44-.33-.62-.34-.25-.02-.74.08-1.05.19-.96.34-2.43,1.61-3.14,1.03-.1-.08-.03-.29-.12-.43-.01-.02-.24-.05-.35-.19-.19-.26-.27-.28-.48-.44-.42-.33-.27-.26-.69-.38-.15-.04-.29-.24-.43-.28-.6-.19-1.56-.25-2.02.06-.08.06-.15.38-.32.5-.07.05-.24-.05-.3-.03-.13.05-.23.26-.37.34-1.47.86-1.56-.49-2.43-.75-.34-.1-.61.2-.88-.04-.09-.07-.04-.26-.15-.31-.06-.03-.66-.15-.74-.14-.14.03-.15.21-.29.2-.11,0-.22-.16-.33-.14-.03,0-.12.18-.27.25-.44.22-.66.08-.77.17-.18.15.1.53-.22.65-.17.06-.5-.18-.63-.17-.36.03-.69.32-.97.28-.26-.04-.46-.44-.81-.58-.13-.05-.29-.02-.37-.07-.11-.06-.12-.23-.2-.29-.24-.18-.88-.29-1.25-.28-.35.01-.69.23-1,.17-.04,0-.03-.2-.06-.21-.06-.02-.66-.04-.65-.04-.13.06-.29.44-.37.52-.23.2-.91.69-1.06.77-.07.04-.25,0-.34.04-.17.06-.3.26-.44.3-.42.12-.63-.21-1.09-.15-.11.01-.25.2-.43.12-.15-.06.13-.24.08-.31-.1-.17-.97-.16-1.18-.24-.16-.06-.24-.34-.41-.4-.22-.08-.57.07-.92.03-.23-.02-.39-.19-.52-.2-.46,0-.52.44-.71.56.02-.01-.2-.13-.32-.08-.04.02-.16.3-.35.39-.27.12-.15-.16-.34.04-.11.12-.07.44-.14.51-.43.43-1.1.2-1.47.14-.31-.05-.69.03-.81,0-.34-.08-.67-.58-1.13-.66-.45-.08-1.18.2-1.5.26-.11.02-.43-.05-.51.03-.03.03.05.38.02.46-.06.15-.49.32-.53.39-.07.12.13.21.09.32-.05.15-.91.61-1.25.71-.43.13-.46-.09-.75-.19-.41-.14-.81.18-1.14.1-.09-.02-.17-.31-.22-.34-.06-.04-.91-.2-.93-.2-.18.01-.6.3-.95.33-.17.02-.23,0-.28.02-.49.25-.31.41-.5.67-.02.02-.27.13-.34.22-.19.23-.43,1.05-.69,1.42-.04.06-.2.07-.25.13-.58.67.03.83.71.43.37-.22.3-.43.76-.57.42-.13,1.24-.12,1.83-.3.45-.14.79-.52,1.26-.66.42-.12.92-.06,1.41-.18.91-.22,1.66-.48,2.54-.68.44-.1.83-.41,1.2-.47.17-.03.26.11.44.1.61-.01,1.59-.38,2.46-.54.47-.08.99-.04,1.3-.14.11-.04.23-.2.34-.22.24-.04.55.12.67.1.11-.02.2-.24.33-.27.08-.02.22.12.33.14.2.02.56-.13.89-.14.28,0,.51.09.72.08.52-.02,1.03-.24,1.6-.29.2-.02.38.13.62.11.23-.01.58-.24.91-.27.16-.01.33.06.48.03.22-.04.44-.17.65-.19.36-.03.69.23.93.19.1-.01.22-.24.33-.27,0,0,.34.02.47.03.34.05.76.23,1.16.19.22-.02.43-.16.64-.19.36-.05.73.12,1.08.09.64-.04,1.18-.37,1.62-.24.16.05.22.28.38.3.28.03.44-.16.64-.19.14-.01.47.11.78.07.15-.02.3-.13.43-.12.16,0,.31.12.44.11.22-.02.32-.14.43-.12.16.03.27.27.45.34.59.23,1.4-.03,2.16.01.21.01.41.2.65.22.25.02.56-.13.73-.1.17.04.27.26.43.28.39.06.99-.07,1.41.05.19.06.25.18.4.17.14,0,.29-.14.43-.13.07,0,.24.14.4.18.11.02.36-.02.41,0,.19.07.25.34.46.39.05.01.81.05.99,0,.08-.02.13-.19.23-.19.22,0,.54.32.91.32.37,0,.24.05.58.18.34.13.49,0,.63.17.03.03.05.34.16.36.22.04.24-.32.47-.37.15-.03.06.13.22.17.14.03.29-.05.34-.04.24.08.46.31.82.4.34.08.81.05,1.2.12.09.01.21.17.35.19.12.02.26-.07.34-.04.35.11.61.39.87.39.18,0,.29-.12.37-.11.15.01.23.15.39.12.16-.03.49-.36.81-.41.65-.11.45.33.83.86.15.21.8.54,1.25.69.27.08.61,0,.9.09.38.11,1.01.6,1.36.65.27.05.55-.11.81,0,.19.08.31.32.46.39.26.12.56.04.86.16.29.11.48.41.74.54.13.06.28,0,.42.05.29.1.71.47,1.06.62.2.08.4.06.51.14.1.07.16.28.27.33.06.03.2-.09.27-.08.14.03.44.38.73.49.16.06.28,0,.37.07.18.12.29.41.51.55.28.18.69.16.79.3.04.06,0,.26.03.29.08.06.24-.02.49.09.13.06.2.23.31.26.12.04.29-.07.41,0,.25.14.34.51.54.66.1.08.32.03.44.1.51.3.97.85,1.27.97.15.06.29-.08.39-.06.39.1.18.2.06.21-.46.04-.12.49-.4.64-.3.16-1.35-.56-1.79-.94-.06-.05-.02-.22-.08-.27-.03-.03-.24-.06-.33-.14-.34-.28-.51-.63-.6-.64-.09-.01-.29.21-.36.16-.12-.07.03-.16-.11-.38-.09-.14-.27-.16-.29-.21-.1-.17-.06-.39-.12-.43-.06-.03-.44.12-.61.12-.65,0-1.42-.33-1.87-.62-.21-.14-.35-.45-.58-.59-.08-.04-.27.02-.42-.05-.12-.06-.18-.25-.25-.28-.12-.04-.29.08-.39.06-.11-.03-.4-.23-.56-.3-.21-.1-.43-.18-.55-.3-.06-.06-.1-.23-.2-.29-.11-.06-.33.02-.55-.07-.12-.05-.2-.27-.32-.31-.39-.14-.53,0-.8-.17-.23-.14-.53-.35-.71-.43-.21-.09-.51-.05-.74-.13-.2-.07-.36-.23-.55-.31-.5-.19-1.04-.13-1.59-.24-.36-.07-.62-.36-.95-.48-.24-.09-.53,0-.78-.06-.26-.07-.48-.28-.75-.36-.51-.17-1.06-.06-1.51-.2-.23-.07-.33-.32-.57-.36-.13-.02-.35.07-.51.03-.16-.04-.3-.23-.49-.27-.23-.04-.48.09-.74.04-.54-.1-1.05-.46-1.54-.48-.12,0-.27.11-.38.11-.31,0-.6-.2-.94-.25-.11-.02-.15.08-.27.08-.44-.01-.88-.32-1.34-.42-.25-.06-.58-.05-.85-.1-.29-.06-.59-.2-.82-.23-.16-.02-.36.08-.57.05-.17-.03-.26-.18-.42-.23-.4-.12-1.2-.16-1.43-.11-.16.04-.23.16-.36.16-.35.02-.77-.17-1.21-.17-.68,0-1.33.12-2.06.13-.68.02-1.35-.29-1.83-.28-.4,0-.14.14-.36.16-.23.03-.66-.15-1.04-.16-.97-.04-2.04.16-3.04.18-.4.01-.24-.14-.8.06-.89.33.44.25.59.24,1-.06,1.12-.05,1.86-.02.11,0,.26-.06.39-.06.5,0,.69.14,1.04.16.35.02.73-.22,1.16-.22.35,0,.63.26.96.3.61.08,1.24-.18,1.93-.16.13,0,.31.14.46.16.25.02.5-.15.89-.14.58.01.88.41,1.56.36.08,0,.22-.18.29-.2.11-.03.3.13.56.13.04,0,.23-.09.27-.08.21.05.33.33.52.37.15.04.41-.1.62-.07.17.03.32.23.48.27.23.05.52-.1.8-.06.14.02.28.19.42.23.36.09.77-.02,1.06.04.32.07.53.33.8.35.22.02.43-.14.66-.13.16,0,.49.23.79.3.14.03.3-.04.41,0,.24.08.44.32.69.38.32.07.73,0,1.06.04.32.04.72.08.99.18.14.05.23.21.36.24.29.07.62-.03.83.05.09.03.11.25.2.29.19.09.63.01.9.09.55.15.87.28,1.29.44.15.06.44.1.51.14.03.02.08.27.08.27.33.31.59.05.98.18.04.02.11.22.18.24.2.05.48-.07.71.03.07.03.11.28.15.31.13.09.48.18.65.22.17.04.42-.01.6.06.18.07.28.33.48.44.39.22,1.21.28,1.82.46.06.02.11.16.17.18.13.05.31-.04.41,0,.22.08.34.27.5.32.19.06.38-.03.55.07.12.08.14.33.3.44.14.1.41.02.62.11.18.08.37.4.63.57.49.33,1.19.49,1.55.71.1.06.14.24.2.29.18.16.56.38.64.4.16.02.38-.16.5-.09.03.02.03.34.06.39.11.19.91.52,1.35.83.14.1.35.41.49.5.19.12.36.06.52.2.14.12.16.35.32.49.14.12.39.12.59.24.39.22.71.62,1.08.91.31.25.71.35.98.59.38.32.44.72.68.73.2.01.29-.21.38-.11,0,0-.09.5-.09.49.03.17.38.94.6,1.28.33.51,1.08.69,1.48,1.26.33.48.34,1.15.61,1.51.12.15.36.22.53.43.11.14.09.33.19.47.05.08.22.09.28.15.31.33.29.77.49,1.08.11.17.72.55.86.56.22.02.49-.19.59-.17.08.01.64.35.73.72.08.3-.2.7-.12.97.04.13.21.03.28.15.23.4-.24,1.09-.23,1.41.01.39.32.75.38,1.11.09.51,0,1.15.13,1.65.13.47.16.51.07,1.03-.05.25-.05.51-.08.72,0,.02-.18.11-.18.17,0,.09.14.12.12.2-.05.17-.25.27-.28.43-.04.22.13.54.1.73-.01.06-.22.1-.28.26-.04.14.08.35.06.39-.11.21-.38.28-.46.43-.16.27-.07.7-.16,1.04-.19.7-.86,1.13-1.13,1.73-.09.21-.03.45-.11.61-.08.17-.39.62-.54.74-.06.05-.25.06-.31.15-.07.1.03.37-.04.48-.03.05-.22.04-.27.08-.11.09-.13.3-.19.35-.25.2-.28.17-.42.35-.43.55-.41,1.29-1.05,1.59-.1.04-.29-.02-.34.04-.02.03.08.33.06.39-.07.18-.35.17-.53.39-.12.15-.15.4-.25.54-.21.3-.49.39-.84.71-.46.43-.63,1.04-1.24,1.35-.44.23-.62.31-.89.55-.36.32-.57.59-.86.84-.08.06-.24.04-.32.09-.2.13-.3.43-.48.55-.17.11-.46.1-.63.24-.11.09-.11.32-.18.4-.29.39-.55.42-.94.57-.45.16-.81.64-1.22.82-.43.19-.86.17-1.16.4-.2.15-.25.41-.48.55-.1.06-.29,0-.45.07-.13.06-.19.27-.35.39-.27.21-.87.63-1.03.65-.19.02-.38-.3-.59-.24-.35.1-.37.98-.98,1.04-.08,0-.22-.14-.28-.15-.29-.04-1.04-.01-1.21.06-.06.03-.14.26-.24.36-.66.67-1.83.58-2.87.95-.16.06-.3.22-.45.25-.1.02-.42-.11-.71-.03-.34.09-.74.14-.98.23-.39.14-.75.64-1.26.89-.14.07-.3.05-.43.13-.29.18-.45.45-.77.57-.26.1-.63.03-.94.16-.33.14-.7.26-1.13.33-.79.12-1.89.24-2.72.27-.46.01-1.83.85-2.18.52-.2-.18.06-.61.04-.66-.04-.08-.3-.4-.69-.15-.26.17,0,.59-.04.65-.11.13-.65.14-.9.32-.15.1-.09.24-.26.31-.48.18-1.17.02-1.79.05-.49.03-.98.24-1.55.28-.15,0-.26-.11-.44-.11-.58,0-1.13.31-1.68.43-.73.16-1.47.04-2.25.07-.18,0-.39.14-.61.12-.14-.01-.25-.13-.38-.12-.13,0-.3.15-.41.18-.84.18-1.8-.12-2.35-.07-.18.02-.33.17-.52.21-.13.02-.32-.1-.49-.09-.15,0-.28.12-.38.11-.53-.04-1.04-.39-1.51-.38-.16,0-.28.16-.47.19-.49.08-1.03-.23-1.58-.24-.4-.01-.85.16-1.3.14-.52-.02-1.85-.29-2.38-.18-.13.03-.23.16-.36.16-.33,0-.45-.25-.86-.33-.28-.06-.53.06-.87.02-.34-.04-1.43-.39-.89.14.2.19-.06-.05.24.22.34.3.68.32.92.55.23.21.24.26.59.41.18.08.4.24.48.27.45.15.76-.15,1.27-.25.11-.02.25.08.37.07.09,0,.19-.12.3-.15.25-.06.45.05.53.02.23-.09.32-.37.51-.44.18-.06.13.14.48.04.13-.04.23-.22.34-.22.22,0,.47.38.92.55.2.07.43.02.55.07.13.06.29.38.46.39.08,0,.3-.15.37-.11.21.11.11.36.32.49.03.02.77.19.75.19.73.12.82-.22,1.48-.32.39-.06,1.35-.34,1.65-.54.16-.1.22-.36.4-.41.51-.14,1.32.36,1.73.55.33.15.73.45.9.49.06.01.22-.11.27-.08.03.02.07.3.22.34.17.05,1.22,0,1.27-.02.06-.01.07-.18.22-.24.51-.19.45-.4.9-.73.08-.06.22-.03.32-.09.55-.3,1.01-.92,1.72-.91.3,0,.43.34.71.43.19.07.51-.03.77.06.41.15.74.51.99.59.05.02.23-.1.32-.09.33.04.12.25.35.19.27-.07.21-.29.42-.36-.05.02.1.13.15.13.32-.01.77-.22,1.01-.35.32-.19.44-.58.69-.84.05-.05.23-.02.32-.09.22-.17.26-.51.41-.58.9-.44,1.69.36,2.26.56.01,0,.2-.07.34-.04.13.03.19.19.29.2.09.02.22-.11.32-.09.06,0,.12.18.17.18.27.04.82.09.95.07,1.45-.24,1.62-1.98,3.12-2.31.61-.13,1.13.52,1.73.72.42.14.8.05,1.27-.02.35-.05.69.02.96-.1.2-.09.5-.5.79-.69.15-.1.29-.1.36-.16.28-.27.38-.87.65-1.18.75-.84,1.52-.24,2.48-.49.25-.07.45-.26.67-.31.15-.04.33.03.46-.02,1.14-.41,1.3-2.34,2.03-3.04.4-.39.69-.26,1.04-.24.46.03,1.16-.1,1.51-.03.18.04.33.2.52.2,1.13-.04,1.86-1.07,2.08-1.66.16-.42.23-2.04.62-2.28.13-.08.5-.03.62-.06.13-.04.26-.18.4-.23.59-.22,1.6-.23,2.18-.52.2-.1.3-.35.51-.44.07-.03.33,0,.39-.06.26-.23.23-1.17.34-1.61.03-.1.19-.18.22-.24.21-.44-.02-.78-.05-1.15,0-.08.14-.19.15-.28.01-.11-.13-.17-.13-.25,0-.19.2-.49.29-.61.25-.33.5-.35.85-.48.15-.05.28-.25.38-.29.13-.04.29.06.41,0,.11-.06.18-.3.3-.38.17-.12.4-.11.57-.23.2-.14.31-.46.52-.62.38-.3.67-.38.83-.76.03-.07-.09-.2-.08-.27.02-.14.22-.31.23-.42,0-.08-.09-.21-.1-.32-.02-.25.15-.54.13-.74-.05-.53-.69-1.63-.71-2.06-.05-.74,1.41-1.26,1.77-1.91.11-.2.01-.58.1-.85.06-.16.23-.26.25-.36.04-.33-.09-.99-.17-1.4-.1-.43-.27-1.12-.42-1.45-.18-.4-.87-1.16-.91-1.54-.01-.12.15-.01.17-.22,0-.08-.1-.2-.08-.27.04-.13.27-.32.31-.55.08-.46.04-.6.33-.85.25-.22.6-.22.75-.63.03-.08-.14-.21-.11-.38.01-.1.18-.22.2-.29.28-.92-.7-1.43-1.29-1.84ZM48.15,2.27c.2-.27.87.15.84.28-.08.34-1.28.31-.84-.28ZM90.14,16.43c-.12.08-.85-.22-.98-.36-.3-.32-.09-.59-.5-.73-.22-.07-.66.12-.79-.3-.08-.28.23-.35.36-.57.06-.09,0-.34.12-.38.2-.08.24.3.55.48.14.08.37.03.44.11.13.15.03.49.19.64.11.11.26-.1.39-.05.44.14.33,1.09.22,1.16ZM92.05,18.21c-.02-.32-.35.05-.6-.06-.15-.07.1-.21.03-.3-.06-.08-.16.02-.3-.03-.59-.21-.95-1.11-.36-1.41.07-.03.11-.13.27-.08.1.03.65.57.59.41.12.31-.26.27-.2.52.05.21.51.22.61.29.25.17.62.64.61.7-.02.11-.63.41-.65-.04ZM93.63,19.61c.09-.34,1.06.05.8.35-.08.09-.84-.18-.8-.35ZM94.76,21.32c-.39.23-.85-.33-.49-.67.54-.52.86.45.49.67ZM96.68,24.9c.05-.09.46-.01.42.23-.05.26-.53-.02-.42-.23ZM72.78,55.04c0-.05.2-.16.27-.08.11.14-.26.22-.27.08ZM73.36,55.04s-.28.06-.21-.12c.1-.25.31.04.21.12ZM97.66,38.88c.13-.23.39.16.24.22-.12.05-.35-.03-.24-.22ZM71.38,54.46c0-.2-.83-.23-.82-.23-.05.01-.08.08-.09.09-.1.03-.24.1-.36.16-1.24.67,1.26.51,1.28-.02ZM11.72,30.41c0-.13-.21-.21-.25-.05-.04.18.24.11.25.05ZM10.39,32.43c.07-.12-.11-.2-.15-.13-.1.18.09.26.15.13ZM12.65,47.61c.06.08.35.15.61.29.25.13.43.34.59.41.1.05.26-.02.36.01.91.33.99,1.02,1.75,1.41.83.43.51-.1.17-.4-.39-.34-.91-.55-1.21-.76-.06-.04-.07-.21-.13-.25-.17-.13-.42-.17-.47-.21-.31-.25-.55-.74-.89-.85-.18-.06-.33.03-.42-.05-.14-.13-.03-.37-.23-.58-.04-.04-.29-.02-.45-.16-.11-.1-.15-.26-.2-.29-.14-.09-.37-.05-.51-.14-.15-.09-.41-.34-.55-.48-.34-.34-.66-.83-1.05-1.21-.16-.16-.42-.25-.59-.41-.29-.29-.47-.69-.74-.95-.19-.18-.5-.25-.71-.43-.15-.14-.44-.5-.46-.57-.03-.1.1-.29.07-.37-.12-.26-.65-.47-.68-.73-.02-.16.21-.21.12-.38-.08-.17-.36-.18-.57-.36-.25-.21-.28-.54-.48-.85-.1-.16-.31-.24-.41-.4-.23-.36-.25-.8-.44-1.33-.14-.38-.53-.65-.6-.87-.05-.14.05-.31.04-.48-.03-.27-.14-.81-.23-.98-.1-.19-.34-.26-.41-.4-.23-.49-.08-1.23-.16-1.94-.1-.86-.2-1.61-.13-2.23.02-.2.17-.39.18-.58,0-.17-.13-.31-.14-.48-.01-.2.2-.53.23-.82.01-.16-.08-.29-.05-.39.07-.27.36-.46.49-.72.42-.86.56-1.85.9-2.71.27-.69.91-1.38,1.12-1.96.06-.16-.02-.31.05-.42.07-.12.27-.15.33-.27.16-.33.04-.99.26-1.12.19-.12.32.12.46-.02.03-.02.02-.35.09-.49.16-.31.64-.54.77-.75.1-.16.03-.33.16-.46.11-.11.17.07.47-.19.1-.09.28-.48.37-.67-.04.03-.05.02.05-.1,0,0-.03.05-.05.1.1-.08.42-.42.35-.47-.09-.07-.59.14-.7.2-.19.11-.35.2-.38.29-.06.14.17.37.05.57-.04.06-.3.04-.43.12-.2.13-.29.66-.37.75-.08.09-.33.11-.41.18-.31.23-.36.64-.6.93-.11.14-.32.18-.44.3-.3.32-.32.75-.59,1.16-.35.53-.95.94-1.07,1.53,0,.04.06.29.04.34-.03.06-.26.17-.29.2-.15.2-.41.75-.54,1.15-.07.21,0,.51-.08.72-.04.09-.2.15-.22.24-.07.25-.19,1-.19,1.16,0,.09.11.22.1.32-.03.19-.21.31-.27.48-.18.56-.24,1.38-.25,1.94-.01.66.15,1.29.19,2.04,0,.14-.1.33-.11.44,0,.49,0,1.06.21,1.51.06.13.24.26.3.44.17.46.18.97.37,1.47.26.66.93,1.3,1.18,2.04.16.48.21.96.39,1.34.2.43.9.81,1.07,1.08.2.31.2.73.35,1.01.3.53.83.82,1.26,1.32.28.32.43.79.72,1.07.04.04.26.04.32.08.15.12.18.35.32.49.13.14.41.2.57.36.2.2.28.49.4.58.18.12.41.02.63.17.06.04.03.22.08.27.29.32,1.05.63,1.29.85.24.22,0,.21.09.32ZM15.49,13.12c-.06.05-.27.35-.12.39.36.07.56-.72.12-.39ZM4.52,30.06c-.07.27.25.52.35.42.19-.17-.28-.72-.35-.42ZM14.77,13.85c0-.1-.22-.24-.25-.04-.03.22.24.15.25.04ZM16.8,25.03c.2-.16.58-.13.67-.49.21-.82-.75-2.64-1.3-2.48-.61.18,0,.65.16.94.44.82.25,1.76-.65,1.76-.62,0-.85-.54-1.28-.79-.12-.07-.34-.03-.44-.11-.05-.04-.02-.24-.08-.27-.1-.05-.24.12-.39.06,0,0-.32-.34-.43-.46-.16-.19-.27-.53-.5-.73-.18-.15-.66-.3-.78-.47-.21-.29-.52-1.12-.53-1.42-.02-.67.96-1.17,1.57-.81.08.05.15.3.29.38.43.28.85-.07.87-.2.06-.37-1.05-.96-1.39-.99-.23-.02-.39.11-.43.12-.26.1-.76.4-.93.62-.07.09-.03.33-.14.51-.11.18-.34.26-.37.34-.08.26.1,1.51.2,1.69.12.2.42.2.57.36.15.16.47.62.6.87.06.1.03.3.11.38.06.06.36.05.52.2.14.12.19.38.32.49.18.16.58.27.78.47.3.3.25.13.56.3.14.08.19.3.27.33.11.05.27-.06.46-.02.12.02.23.16.35.19.86.23.89-.43,1.34-.8ZM14.05,14.58c.09-.1-.03-.39-.18-.24-.19.18.11.32.18.24ZM8.73,28.54c-.08.04-.29.21-.21.29.27.27.76-.62.21-.29ZM23.21,53.27c-.06.27.46.25.49.09.03-.17-.44-.34-.49-.09ZM46.05,57.69c.86.21,1.13.19,2.48.1,1.2-.09,2.41.29,3.5.21.61-.05.99-.12,1.37-.11.62.02,1.53-.02,1.95-.1.46-.09.77-.39,1.22-.41.27-.01.53.26.84.28.27.02.87-.02,1.26-.07.53-.08,1.17-.17,1.55-.28.33-.09.69-.26.62-.47-.11-.32-.88.03-1.31.09-.43.06-1.36,0-1.68.02-1,.06-1.82.38-3.01.47-.9.07-1.78-.02-2.73.04-.47.03-.97.04-1.38.05-.34,0-.51.12-.78.11-.13,0-.29-.15-.45-.16-.36-.03-.8.13-1.25.13-.21,0-.44-.1-.61-.11-.15,0-1.71-.01-1.74.22,0,.02.16,0,.18,0ZM40.68,5.03c-.62.05-1.21,0-1.61.06-.25.03-.49.2-.75.22-.59.04-1.11-.11-1.61.06-.21.07-.98.46-.86.66.15.23.95-.15,1.23-.18.16-.02.6.1.83.05.06-.01.22-.18.4-.23.63-.19,1.77.08,2.56-.4.52-.31.03-.25-.18-.24ZM44.27,57.57c.05-.08-.24-.22-.31-.08-.11.19.27.16.31.08ZM36.98,56.72c-.24-.06-.4-.25-.61-.29-.32-.06-1.43-.06-1.45.01-.02.09.43.32.38.3.19.06.61.07.84.1.51.08.76.07,1.2.12.32.03.63.22.95.25.41.04,2,0,1.21-.24-.77-.23-1.81-.09-2.52-.26ZM67.53,13c-.19-.23-.88.05-.83-.05-.09.17.27.72.45.74.4.05.65-.35.38-.69ZM66.9,14.46c-.13.23.5.23.34-.04-.1-.17-.26-.11-.34.04ZM28,54.91c-.1.19.26.19.26.1,0-.08-.23-.15-.26-.1ZM18.69,51.15c.51.37.62.25,1.22.4.07.02.23.31.29.21.02-.05-.94-.83-1.01-.87-.48-.24-1.22-.25-.51.26ZM79.32,51.1s-.17.08-.13.15c.14.23.51-.42.13-.15ZM24.41,15.76c-.23.26.3.4.39.53.03.05-.02.21.04.34.1.22.38.5.53.83.39.82.62,1.75,1.11,1.6.7-.22-.23-1.56-.38-1.93-.07-.16-.07-.36-.14-.48-.35-.54-1.48-.96-1.54-.89ZM79.54,51.67s.21.19.3.03c.09-.15-.31-.17-.3-.03ZM31.93,6.58c-.23.04-.49.03-.73.1,0,0-.67.13-.7.2-.07.15.34.16.51.14.29-.04.98-.24,1.29-.37.65-.29.03-.13-.37-.07ZM23.97,13.45c-.07.12-.03.25.08.27.32.06.11-.61-.08-.27ZM24.17,15.95c.08-.15-.24-.09-.21-.11-.25.19.15.22.21.11ZM23.22,18.26c-.07-.1-.05-.28-.13-.43-.2-.37-.54-.64-.56-.71-.03-.16.4-.76.23-1-.13-.19-.68-.05-.71-.03-.29.25-.04.32.03.52.05.13-.02.21.02.28.06.09.22.09.24.22,0,.07-.18.23-.19.35-.03.42.31.73.39.94.04.1-.03.27,0,.41.13.51.82,1.44.83,1.45.35.09.72-.43.71-.38-.01.05-.36-1.07-.38-1.11-.07-.14-.35-.28-.49-.5ZM24.69,8.52c-.12.07-.17.09-.29.2-.74.7,1.05,0,.97-.28-.07-.27-.74.12-.68.08ZM18.17,16.53s-.82-.51-1.05-.22c-.09.11.05.18.05.39,0,.25-.13.51.12.61.11.04.34-.25.45-.25.05,0,.39.1.39.35,0,.45-.5.04-.67.31-.12.2.24.64.28,1.14.03.35.06.93.2,1.28.13.35.46.54.52.78.01.04-.03.31-.01.35-.01-.03.21.12.21.11,0,.1-.16.27-.16.46,0,.11.16.14.22.34.05.19-.07.26-.02.35.17.31.54.54.67.5.08-.02.32-.41.32-.5,0-.2-.24-.38-.28-.56-.06-.27-.03-.67.16-.86.07-.07.2.02.34-.04.41-.18.64-.71,1.06-.54.15.06.09.29.18.41.1.14.57.52.62.52.24,0,.69-.54.56-.86-.04-.12-.58-.32-.96-.71-.31-.32-.4-.21-.71-.44-.05-.03-.05-.22-.15-.31-.09-.08-.2-.03-.26-.1-.05-.06-.02-.23-.09-.32-.18-.22-.58-.35-.67-.5-.26-.42-.17-.29-.44-.51-.06-.05-.05-.19-.13-.25-.3-.26-.65-.31-.73-.49-.06-.15.05-.37-.02-.46ZM18.3,18.18c.25-.26,1.73,1.1,1.72,1.71,0,.19-.63.87-1.03.65.07.04-.73-1.68-.68-1.55-.08-.21-.12-.69,0-.82ZM18.65,11.38c-.06.05-.36.17-.15.28.2.11.59-.62.15-.28ZM20.33,10.54c-.07-.07-.21-.03-.27.08-.22.39.57.22.27-.08ZM16.58,12.27c-.05.04-.29.38-.16.45.2.11.53-.71.16-.45ZM72.51,54.13c.5-.19,1.09-.12,1.6-.29.47-.15,1.24-.35,1.81-.59.24-.1.39-.32.63-.42.48-.18,1.14-.08,1.43-.3.11-.08.02-.25.16-.45.15-.24.33-.09.26-.31-.1-.31-1.15-.07-1.29-.03-.41.1-.59.18-1,.35-1.11.46-2.02,1.02-3.01,1.46-.35.16-1.53.45-1.51.62.04.27.73.04.92-.04ZM17.77,28.59c-.32.15-.07.29.1.32.46.08.26-.48-.1-.32ZM27.04,16.39c.03-.16-.24-.22-.31-.08-.13.23.29.22.31.08ZM20.94,14.44c-.22.29.57.77.57.77.21-.17-.18-1.27-.57-.77ZM65.33,56.27c.47-.14.68-.05,1.12-.15.48-.11.98-.52,1.28-.61.33-.09.9-.07,1.21-.24.26-.14.52-.63.28-.43-.22.18-.24.06-.55.1-.5.07-1.46.35-1.88.55-.35.17-.48.1-.89.14-.37.04-.76.14-1.13.33-.38.19-.75.32-.14.33.04,0,.54.02.69-.03Z"/>
  </g>
</svg>