<?xml version="1.0" encoding="UTF-8"?>
<svg id="Layer_2" data-name="Layer 2" xmlns="http://www.w3.org/2000/svg" viewBox="0 0 42.85 68.14">
  <defs>
    <style>
      .cls-1 {
        fill: #0a3161;
        fill-rule: evenodd;
      }
    </style>
  </defs>
  <g id="Ebene_1" data-name="Ebene 1">
    <g>
      <path class="cls-1" d="M7.71,7.97c.37-.11.07.52-.16.33-.15-.14,0-.28.16-.33Z"/>
      <path class="cls-1" d="M5.5,19.9c.15-.03.26-.12.27.07.01.25-.75.04-.27-.07Z"/>
      <path class="cls-1" d="M.84,25.96c.22-.1.82.13.89.24.08.13-.21.18-.25.37-.05.22.42.89.21,1.38-.05.12-.28.22-.31.35-.11.38.12.82.14,1.36.02.5-.28,1.04-.26,1.25,0,.19.23.33.23.5,0,.15-.18.1-.21.24-.06.25.2.75.11,1.2-.03.17-.18.31-.2.46-.01.14.12.26.11.4,0,.12-.15.19-.16.32-.01.1.11.26.11.4,0,.3-.19.7-.19.97,0,.17.11.33.09.46-.02.15-.19.31-.2.46,0,.11.1.16.13.33.03.18-.14.33-.13.48.02.28.2.51.22.79.04.38-.13.81-.1,1.22,0,.22.14.4.12.62-.01.24-.17.45-.18.68-.01.3.22.54.28.88.03.25-.08.54-.07.79,0,.26-.03.41,0,.81.06.69.35,1.25.21,1.67-.04.11-.54.53-.71.47-.22-.08-.12-.47-.19-.93-.06-.36-.26-.88-.28-1.4,0-.25.15-.55.14-.77,0-.14-.16-.27-.18-.42-.12-.85.19-1.67,0-2.12-.16-.37-.16,0-.07-.54.03-.16-.12-.34-.12-.4.03-.16.2-.2.25-.37.15-.48-.11-1.67-.1-2.3,0-.12.19-.16.19-.17,0-.28-.03-.61-.06-.89,0-.1-.14-.15-.14-.26-.04-.91.2-1.75.24-2.5.02-.36-.18-.64-.19-.93,0-.11.15-.19.16-.32.04-.3-.1-.85-.08-1.34,0-.16.13-.33.13-.47,0-.32-.06-.91,0-1.32.05-.3.26-1.55.45-1.64Z"/>
      <path class="cls-1" d="M19.75,59.68c.17-.1.52.86.83.45.01-.01.07-.27.07-.27.83.21-.08,1.7-.82.87-.07-.07.14-.29.14-.25.01-.32-.51-.63-.22-.79Z"/>
      <path class="cls-1" d="M42.06,20.97c0-.12.92.36.77.95-.04.16-.3.25-.31.35-.02.23.45.56.1.69-.28.11-.3-.35-.4-.4-.13-.06-.38.02-.52,0-.57-.08-1.51-.46-2.29-.48-.5,0-.89.2-1.21.11-.05,0-.32-.24-.37-.24-.25-.02-.52.21-.79.22-.35.03-.74-.13-1.13-.16-1-.07-2.12.13-3.12.17-.94.04-1.9-.21-2.81-.17-.41.01-.82.25-1.24.25-.18,0-.38-.13-.55-.15-.35-.04-.81.22-1.22.18-.14-.01-.26-.18-.39-.18-.16,0-.32.16-.48.16-.22,0-.45-.18-.68-.18-.14,0-.32.11-.47.09-.22-.02-.47-.19-.69-.19-.52,0-1.78.33-2.36.31-.29-.01-.6-.22-.89-.24-.32-.03-.7.14-1.06.15-.31,0-.61-.14-.93-.11-.4.04-1.1.2-1.58.16-.23-.03-.41-.17-.62-.17-.16,0-.29.14-.48.16-.39.03-.84-.2-1.2-.18-.21.01-.37.19-.57.21-.73.09-1.5-.08-2.25-.1-.33-.01-.69.17-1.06.15-.26,0-.49-.13-.77-.13-.45-.01-.98.2-1.43.12-.33-.05-.88-.24-1.33-.22-.47.03-1.35.2-1.96.2-.27,0-.52-.13-.77-.14-.31,0-.57.2-.87.21-.15,0-.32-.14-.48-.13-.4.04-1.75.53-2.21.06-.05-.05.09-1.79.38-1.95.35-.2-.18-.28-.11-.69.01-.06.25-.19.3-.28.2-.35.54-1.05.63-1.52.1-.5,0-.86.84-.94.76-.07,2.06.33,2.93.28.2,0,.4-.14.55-.14.12,0,.2.14.32.16.32.04.74-.1,1.11-.06.44.04.79.2,1.2.18.25-.02.86.07,1.3.06.23,0,.47-.19.64-.19.62,0,1.18.22,1.78.19.24-.01.49-.13.68-.1.4.07.6.25.66.25.19.02.34-.16.48-.16.2,0,.34.19.53.22.34.07.99.07,1.39.01.2-.03.42-.24.66-.26.67-.04,1.46.32,2.27.25.37-.03.66-.32,1.04-.3.33,0,.68.3,1.03.28.14-.01.21-.23.36-.27.33-.08,1.33.13,1.7.24.71.21,2.08-.34,2.92-.23.21.03.44.15.55.15.56-.02.91-.37,1.33-.3.51.1.68.42,1.26.2.16-.05.4-.34.39-.34.15-.02.39.14.77.14.38,0,.75-.22.93-.19.15.03.32.26.44.27.43.03.78-.4,1.39-.5.26-.04.56.11.93.11.35,0,.71-.21.93-.19.28.02.55.27.8.29.13,0,.36-.18.64-.2.18,0,.4.1.57.08.69-.08,1.26-.48,1.84-.3.14.04.11.28.33.38.19.09.29-.16.45-.02-.01-.01.57,1.04.58,1.11.02.08-.13.26-.09.34.19.4.93.87.97,1.29,0,.07-.15.34-.16.32.07.14.48.2.49.35.01.29-.34.47-.33.65ZM24.33,18.27c.14.24.85-.15.24-.08-.03,0-.33-.07-.24.08ZM20.83,18.2s-.17-.42-.24-.21c-.07.25.13.42.24.21ZM23.87,19.98s-.5-1.26-.59-1.33c-.1-.08-.3-.03-.36-.03-1.24.09.59,1.93.95,1.36ZM29.72,20.84c.1-.16-.42-.55-.56-.37-.12.15.47.52.56.37ZM21.73,19.47c-.4.11.26.46.4.41.4-.14.02-.52-.07-.54-.2-.05-.38.15-.33.13ZM21.25,20.15c-.05.11.21.18.24.21-.02-.03.07.39.04.38.43.21.73-.37.67-.56-.03-.08-.32-.02-.29,0-.22-.13-.61-.12-.66-.03ZM15.2,18.43c-.2-.32-.43-.14-.48-.13-.5.1.74.55.48.13ZM17.06,19.67s.87.16,1.03.28c0,0-.02.33.19.35.81.07.34-1.42-.7-1.22-.06.01-.67.08-.52.59ZM20.36,20.49c.35-.32-.56-.68-.71-.63-.53.18.52.81.71.63ZM16.49,19.37c.03.53.63-.43.1-.12,0,0-.1.12-.1.12ZM20.38,20.94s0,.78.07.82c.36.26.71-.13.67-.33,0-.02-.95-.7-1-.64.02-.02.25.13.25.15ZM15.43,20.55s.28-.38.15-.54c-.14-.17-.82-.08-.77-.14-.16.2.34.74.62.68ZM9.43,19.43c.02.08-.18.21-.14.26.25.26,1.02.45.48.13-.27-.16.07-.27.04-.43-.05-.33-.59-.46-.69-.41-.43.22.21.13.31.45ZM16.36,21.46c.1-.22-.38-.59-.61-.46-.47.25.41.89.61.46ZM15.55,20.65c-.11.06.01.46.2.35.19-.11-.1-.4-.2-.35ZM4.9,18.86c.44.63.54-1.27.07-.79-.33.32.2.09.18.42-.03.28-.29.31-.25.37ZM8.18,19.45c.08.08.15.27.15.27,1.21.75.17-1.06-.37-.54-.13.12.22.27.22.27ZM7.4,19.61c.25-.22-.35-.42-.18-.42-.54,0-.06.62.18.42ZM10.68,20.5c.36.46.46-.76.03-.36,0,0-.14.21-.03.36ZM4.96,19.98c-.08.03-.37-.17-.63-.1-.03,0-.55.45-.55.43.03.2.45.42.65.33.22-.13-.03-.36.17-.39.09-.02.17.23.38.24.15.01.34-.29.59-.28.22,0,.41.23.67.25.05,0,.22-.2.34-.21.39,0,.51.41.63.1.02-.03-.18-.13-.25-.14-.39-.08-.2.02-.27-.37-.05-.27-.73-.82-1.04-.72-.48.13-.34.74-.67.85ZM4.93,19.01c-.05-.27-.23-.14-.4-.11-.75.11.5.58.4.11ZM10.17,21.02c-.03-.06-.15.03-.16.03-.57.12.37.34.16-.03ZM7.75,21.32c-.83-.07.08.35.42.04.23-.21.32-.55.06-.49-.38.07-.12.48-.49.45Z"/>
      <path class="cls-1" d="M21.74.57c.34.04.38.2.71.34.5.21,1.22.35,1.88.66.3.14.53.46.79.58.08.03.31-.08.45-.03.16.07.11.26.21.28.23.04.38-.15.53-.08.5.24.32.51.98.71.2.06.38.26.44.27.6.07.04-.29.68.18.23.17.61.12.63.39.01.25-.77.44-.63.42-.17.02-.21-.14-.38-.18-1.06-.21-2.72-.16-3.76-.21-.58-.03-1.18-.09-1.73-.11-1.06-.03-2.01.14-2.88.1-.41-.02-.9.1-1.26.02-.25-.05-.38-.25-.58-.3-.18-.04-.27.11-.46.09-.35,0-.5-.32-.66-.25-.18.08.12.39,0,.51.13-.14-.72.16-.77.16-.26.03-.56-.1-.79-.07-.27.03-.44.2-.57.21-.11,0-.24-.11-.34-.09-.23.04-.02.18-.2.23-.73.2-.06-.15-.67-.25-.51-.08-1.28.09-1.34.08-.08-.01-.94-.21-.92-.39.01-.11,1.01.17,1.26-.32.04-.08-.08-.26.02-.37.14-.15.68-.29.89-.57.13-.17.11-.39.2-.45.27-.19.65,0,.91-.12.12-.05.18-.31.33-.42.26-.18.45-.04.55-.14.05-.05-.12-.16-.06-.32-.07.16.72-.81.74-.82.25-.08.68.45.92.1.09-.13,0-.37.11-.41.23-.07,1.69.3,1.12.45-1.16.31.52,1.05.53.22,0-.02-.23-.34-.28-.3.18-.18.71-.15,1.03-.01.19.08.29.3.42.34.2.04.4-.15.62-.12.12,0,.26.17.32.16.37-.02.61-.21,1-.17Z"/>
      <path class="cls-1" d="M32.51,7.31c.43.04.79.23.96.55.03.06.12.41.11.4.35.35,1.03.24,1.03.8,0,.1-.29.43-.21.52.2.24,1.06-.05,1.48.19.17.1.24.5.4.69.5.6,1.51,1.31,1.78,1.81.05.1-.04.28-.03.35.1.44.73.98.48,1.23-.33.34-1.01-.39-1.46-.54-.46-.15-.28.02-.57-.08-.28-.1-.1-.2-.51-.28-.18-.04-.41.08-.59.05-.5-.07-1.02-.36-1.58-.43-.53-.06-1.08.18-1.73.19-.28,0-.61-.1-.92-.11-.27,0-.56.08-.83.07-.39,0-.85-.2-1.26-.2-.18,0-.43.15-.62.13-.42-.04-.52-.13-1.01-.06-.42.06-.59.03-1.24-.04-.71-.09-1.24.38-1.86.37-.42,0-.83-.22-1.26-.2-.27,0-.72-.06-1.17-.02-.16.01-.3.15-.48.16-.21,0-.47-.1-.7-.11-.36-.02-.72.12-.99.1-.61-.05-.85-.35-1.35-.15,0,0-.22.21-.27.22-.44.04-.9-.34-1.08-.37-.47-.07-1.15.19-1.86.15-.7-.03-1.3-.21-2.08-.2-.19,0-.39.15-.55.15-.21,0-.54-.16-.7-.12-.04.01.13.12.18.12-.24,0-.46-.11-.77-.13-.41-.03-.91.16-1.43.12-.42-.03-.84-.24-1.25-.26-.44-.03-.94.23-1.29.17-.38-.07-.72-.49-1.11-.23-.14.09-.05.24-.15.26.02-.01-.82.15-.89-.24-.04-.27.44-.16.63-.42.06-.09.1-.46.13-.48.19-.16.43-.04.7-.17.14-.08.64-.68.63-.42.01-.23-.55-.23-.61-.46-.03-.07.19-.77.48-.96.24-.17.71.06.89-.06-.01.02.11-.4.11-.4.15-.29.54-1.1.61-1.16.29-.26,1.02.02,1.79.12.69.09,1.79-.09,2.28-.04.31.02.52.19.75.2.25,0,.45-.13.62-.13.43,0,.84.21,1.2.18.27-.02.53-.25.72-.25.19,0,.26.15.46.21.68.17,1.74-.2,2.68-.16.93.04,1.81.25,2.58.19.28-.02.85-.31,1.2-.33.28-.02.59.11.92.1.99-.02,1.81-.26,2.78-.27.29,0,.84.21.91.17.17-.07-.03-.4.05-.43.07-.03.32.09.56.08.77-.04,2.1-.29,3.05-.2.48.05.92.02,1.23.05ZM27.13,9.58c-.06-.24-.35-.29-.52-.21-.76.31.71,1,.52.21ZM26.08,10.47c.35.23.8-.48.06-.2,0,0-.06.2-.06.2ZM27.49,11.22c-.17-.02-.54-.4-.74-.27.07-.04.08.2.08.24-.04.31-.29.15-.18.39.05.1.99.45,1.25.27.35-.26-.21-.78-.04-.67-.29-.21-.13.08-.37.03ZM18.86,9.54c.27.26,1.08-.84.31-.58-.11.04-.54.34-.31.58ZM18.92,10.65c.02.39,1.27-.14.49-.16-.06,0-.49.08-.49.16ZM21.64,11.46c-.1.02-.94.23-.42.47.19.1,1.01-.53.52-.58-.08,0-.05.12-.1.12ZM12.72,11.09c-.15.69,2.24.77,1.58.14-.18-.18-.17-.34-.01-.22-.09-.07-.64-.28-.89-.24-.02,0-.71.46-.68.32Z"/>
      <path class="cls-1" d="M24.28,26.03c.48.05,1.04.7,1.78,1,.2.08.1.36.19.64.16.47.85,1.05.95,1.36.04.13-.12.26-.11.41.02.3.63.91.57,1.41-.01.11-.16.21-.14.25.04.2.34.32.39.47.04.17-.1.24-.11.4-.02.45.39,1.4.14,2.17-.15.46-.06,0,.09.47.08.23-.22.93-.21,1.33,0,.21.21.25.25.44.04.2-.16.53-.17.9-.02.3.14.63-.04.94-.08.14-.25.08-.28.22-.02.06.15.22.15.26,0,.1-.19.32-.2.46-.01.22.17.4.16.48-.05.34-.64,2.11-.83,2.27-.02.02-.35,0-.38.04-.2.27-.08.7-.24.88-.06.07-.29.08-.34.14-.07.1.03.26-.02.36-.12.24-1.2,1.37-1.51,1.5-.31.13-.85-.05-1.22.18-.07.05.12.38-.51.23-.15-.04-.06-.14-.16-.19-.45-.25-1.62-.42-2.13-.8-.23-.17.01-.21-.06-.31-.31-.42-.84-.29,0-.29.93-.01-.25-1.37-.47-.72,0,0,.35.34.25.43-.12.11-.71.09-.44-.26.2-.27-.14-.76.09-1.66.07-.27.21-.39.22-.53,0-.1-.17-.29-.11-.4.27-.51-.05.13.39-.11.14-.07.15-.32.25-.37.21-.12.68.12.7.12.17,0,.23-.31.48-.16.12.07.44.67.44.85-.03.33-.51.56-.5.74.02.33.36.14.44.27,0,.01.03.5-.01.59-.2.4-.18.07-.17.61,0,.3-.17.53-.12.7.08.27.62.81.94.84.2.02.59-.59.9-.34,0,0-.08.28-.08.28.69,0,.92-.65,1.14-1.23.39-1.01.69-2,.77-3.09.03-.34-.23-1.71-.16-2.1.05-.27.37-.39.34-.71-.02-.16-.41-.63-.69-.69-.14-.03-.69.15-.62.12-.33.14-.55.52-1.09.22-.13-.08-.13-.35-.25-.44-.1-.06-.29.09-.45.03-.3-.12-.63-.82-.91-.98-.42-.24-.95-.92-1.16-1.41-.21-.53-.05-1.12-.09-1.57-.03-.36-.2-.75-.22-1.08-.04-.78.11-2.18.62-2.54-.06.04.39-.06.38-.05.12-.29-.41-.43-.02-1.03.07-.1.21-.11.28-.22.06-.09.02-.32.11-.41.13-.14,1.02-.48,1.22-.7.02-.02-.08-.19-.02-.22.21-.13.5-.04.69-.11.28-.11.41-.33.88-.28ZM22.34,28.28c-.04.14.09.29.06.6-.03.32-.25.67-.22.81.04.21.16.06.15.27,0,.14-.2.31-.2.45,0,.15.14.21.13.33,0,.09-.18.08-.19.17,0,.04.11.25.11.4,0,.22-.12.51-.1.63.01.07.17.1.17.19.03.68-.88.56-.83.87.04.26.56-.04.65.03.36.27-.16.35-.1.63.02.11.39.17.36.54,0,.03-.17.26-.16.32.03.23.21.01.22.28,0,.52.16.17.46.49.23.24.07.76.2.87.23.17,1.55.32,1.61.29.28-.15.68-1.76.74-1.93.16-.45.57-.95.62-1.22.06-.35-.18-.9-.02-1.26.07-.17.32-.23.31-.35,0-.18-.45-.2-.26-.36.02-.01.38.23.36.02-.01-.19-.27-.14-.4-.4-.04-.09.08-.43-.05-.6-.16-.22-.27-.06-.3-.23-.03-.11.12-.32.13-.48.03-.67-.56-1.57-.75-2.11-.08-.23-.02-.45-.14-.55-.16-.13-.96-.27-1.18-.25-.56.07-1.23,1.07-1.37,1.53ZM26.12,35.98c.13.5.84-.15.26-.15-.08,0-.27.12-.26.15Z"/>
      <path class="cls-1" d="M36.85,26.44c.88.14,1.8.69,1.94,1.47.07.39.51.73.63,1.2.34,1.31.31,3.07-.62,4.45-.31.46-.96,1.16-1.31,1.33-.22.1-.92.06-.54.66.17.27.32.04.6.24.31.22.93,1.08.93,1.13,0,.12-.42.5-.27.73.16.25.84-.12,1.02.28.15.33-.25.61-.28,1.03-.03.42.27.72.19.94-.25.68-.99.16-.5,1.03.06.12.45.47.46.5,0,.19-.41.36-.39.33-.1.12-.23.47-.41.69-.14.17-.45.37-.51.52-.42.99.28,1.18-.33,1.75-.12.11-.17-.09-.36-.02-.18.06-.27.34-.49.45-.33.15-.83.11-1.18.05-.73-.13-1.36.13-2.13-.51-.15-.11-.09-.31-.23-.5-.27-.34-.65-.5-.75-.72-.16-.33-.05-.73-.17-1-.14-.3-.61-.54-.7-.92-.06-.23.11-.47.14-.77.02-.32-.12-.59-.09-.75.04-.19.28-.29.35-.49.17-.47.01-.98.23-1.4.15-.3.59-.42.79-.74.24-.4.41-1.31.72-1.57.42-.33.81-.14.82-.58.02-.6-.98-.57-1.49-.98-.25-.2-.19-.51-.41-.93-.21-.38-.53-.59-.56-.88-.04-.33.13-.64.11-.93-.04-.28-.27-.53-.3-.81-.07-.77.19-1.88.6-2.47.09-.13.31-.2.38-.34.13-.26.06-.5.19-.68.38-.53,1.73-1.08,2.63-1.04.39.02.97.23,1.32.29ZM34.15,28.78c-.11.66.02,1.6,0,2.19-.04.67,0,.57.08,1.05.11.59.03,1.4.14,1.65.09.2,1.17,1.15,1.29,1.16.29.02,1.35-.98,1.55-1.64.11-.37-.09-.77-.05-1.41.03-.56.19-1.35.11-2.02-.02-.17-.2-.37-.21-.57-.02-.16.06-.34.05-.42-.02-.07-.59-1.51-.56-1.48-.29-.3-1.1-.43-1.28-.42-.64.04-.95.94-1.1,1.9ZM34.55,36.21c-.4.46-.3,1.96-.89,1.96-.28,0-.31-.65-.58-.6-.2.04-.32.63-.27.74.2.39.76,0,.95.26.06.06.05.54.04.67-.01.2-.06.81-.01,1.39.02.25.04.64.03.67-.1.63-.06.57.05,1.19.04.28-.02.65.05.9.15.51.83,1.24,1.24,1.36.13.04,1.05-.02,1.22-.18.09-.08.61-1.15.7-1.5.07-.27-.04-.77.03-1.16.08-.45.28-.8.3-1.09.02-.25-.09-.42-.06-.6.02-.07.19-.25.19-.17,0-.16-.06-1.05-.09-1.28-.04-.26-.25-.59-.35-.9-.29-1.01-.43-2.05-1.73-2-.21,0-.71.22-.83.35ZM32.89,40.17c.03.3.6-.05.24-.08-.08,0-.25-.02-.24.08ZM32.5,41.89c.21,0,.31-.5.05-.43-.3.07-.25.42-.05.43Z"/>
      <path class="cls-1" d="M4.71,26.28c.45-.17.42.28.4.19.05.18-.18.11-.21.46-.02.33.29.43.28.59,0,.18-.29.28-.33.42-.1.33.3.54.32.97,0,.12-.17.25-.22.52-.03.16.11.36.09.46-.04.25-.28.46-.31.87-.02.29.01.57-.07,1.08-.05.3.09.52.08.75,0,.05-.14.13-.14.25,0,.13.12.29.11.4,0,.07-.21.17-.21.23,0,.18.16.4.15.56-.01.11-.19.12-.21.23-.02.12.11.24.11.4,0,.42-.19,1.01-.13,1.28.03.14.25.27.25.43,0,.22-.25.32-.28.51-.02.11.19.25.19.35.01.12-.14.2-.16.32-.08.51.27,1,.28,1.4.01.44-.32.77-.3,1.09.01.2.19.39.21.58.02.15-.14.16-.14.25,0,.12.22.34.22.57-.01.16-.2.19-.16.32.06.21.36.27.45.49.06.12-.14.19-.14.25,0,.24.3.37.3.52,0,.13-.32.28-.34.42-.04.26.25.43.21.57-.09.34-.25-.04-.4.12-.34.34.52.28-.04.42-.06.02-.67-.17-.68-.18.05.05.11-.54.13-.77.02-.16-.17-.31-.21-.57-.07-.43.12-.92.08-1.08-.08-.26-.35-.38-.37-.54-.02-.12.15-.18.16-.32.01-.08-.16-.35-.14-.56.02-.11.16-.33.16-.32-.05-.36-.23-.34-.18-.7.03-.2-.1-.71-.07-.82.02-.07.2-.15.21-.24,0-.11-.15-.2-.13-.33.03-.17.22-.25.26-.44.08-.32-.22-.77-.2-1.15.02-.43.27-.81.21-1.33-.01-.17-.17-.34-.16-.48.02-.19.24-.29.27-.45.02-.09-.18-.3-.16-.48.01-.13.16-.28.16-.32,0-.16-.17-.24-.18-.42-.01-.13.13-.17.16-.32.06-.3-.1-.72-.08-1.04.02-.48.28-.95.32-1.46.06-.53-.17-.95-.06-1.41.06-.22.28-.4.32-.64.06-.33-.2-.78-.14-1.07.08-.4.46-.84.44-.84Z"/>
      <path class="cls-1" d="M13.86,26.35s.68-.06.87.3c.29.57-.31,1.01-.32,1.17,0,.21.3.65.28,1.1-.02.67.13,1.32.11,2.01,0,.26-.15.51-.13.77.02.39.15.43.06.82-.09.4-.12,1.14-.13,1.58,0,.27.22,1.95-.5,1.03-.23-.29.19-.81-.29-.81-.22,0-.08.44-.15.55-.03.04-.24-.06-.24.08-.01.32.29.26.16.48-.23.38-1.15.35-.87,1.08.1.27.31-.02.48.13.3.28-.23.56.35.6.22.03.67-.66.62-.93-.09-.42-.22-.05.09-.34.03-.02.05-.27.07-.27.7-.04-.2,1.08.85,1.18.16.01.38-.26.57-.21.5.13.04.11.27.36.08.09.46.11.44.27-.05.45-1.51.13-1.71.34-.13.14,0,1.88-.14,2.38-.19.71-.22,1.68-.14,2.45,0,.13.19.28.18.41-.02.24-.61,1.21-.09,1.44.07.03.76-.46.38-.34.05-.02.37.14.77.13.29,0,.55-.19.64-.19.05,0,.92.44.42.84-.26.21-.79-.21-1.06-.13-.08.02-.41.21-.28.21-.31-.01-.59-.36-.85-.38-.24-.02-.39.27-.59.28-.44,0-.53-.41-.97-.48-.31-.05-.21.17-.43.25-.1.04-.11-.13-.19-.12-.05,0-.09.18-.12.19-.7.08-1.53-.33-2.21-.24-.05.01-.64.21-.7-.11-.11-.56.11-.25,1.03-.31.13,0,.34-.17.57-.21.39-.06.95.21,1.16-.2.07-.16-.16-.37-.16-.49-.02-.28.17-.48.22-.82.13-.96-.25-2.1-.17-2.61.03-.16.22-.12.3-.29.06-.15-.05-1.24-.29-1.4-.3-.19-.84-.03-1.37-.08-.41-.04-.88.11-1.11.06-.15-.02-.3-.17-.39-.18-.1-.01-.65.19-.94-.04-.14-.1-.25-1.09-.12-1.42.08-.21.41-.46.59-.58-.01,0,.27-.15.25-.08.04-.12-.28-.4-.17-.48.48-.35.62.3.47.71-.09.24-.9,1.29-.44,1.35.58.07,1.51-.13,2.25-.19.21-.02.71.24.96-.04.25-.27.02-1.26.09-1.95.03-.32.21-.45.19-.69-.02-.15-.24-.28-.25-.43-.03-.51.38-1.29.43-1.86.05-.64-.16-1.08-.07-1.93.04-.32.28-1.43.26-1.76-.07-1.03-1.06.2-1.15.72-.04.2.13.36.09.46-.1.28-.56.53-.65.78-.09.23.08.53.04.66-.09.25-.3.32-.43.77-.16.55-.55,1.25-.69,1.72-.15.55-.05.78-.4,1.21-.37.46-.76.1-.63-.39.06-.23.19-.09.29-.28.09-.16.04-.54.15-.84.17-.46.59-.88.64-1,.01-.05-.13-.32-.11-.4.06-.37.54-.79.73-1.34.18-.51.13-1.04.29-1.31.12-.21.41-.27.49-.46.04-.1-.04-.35-.02-.44.02-.1.54-1.62.6-1.67.26-.26,2-.2,1.96-.2ZM12.64,32.17c.02.21.79.48.92.39-.09.06-.02-.23-.02-.22-.7-.38-.65-.09-.5-.29.11-.16.35.26.37-.04.04-.47-.41-.36-.33-.38-.04.01-.42.75-.44.54ZM14.3,38.71c.18-.14.11-.62-.16-.49-.44.23-.07.66.16.49ZM13.86,38.73c0-.15-.37-.19-.41-.11-.1.16.41.36.41.11Z"/>
      <path class="cls-1" d="M35.76,49.59s.18-.09.13.04c-.12.34-.57,1.08-.58,1.08-.09.05-.71-.33-.99-.12-.09.06-.04.73-.1.93-.05.12-.44.39-.32.65.07.14,1.47.11,1.06.65-.25.33-.5.1-1.2.12-.37,0-.95.2-1.51.17-.47-.02-.89-.26-1.17-.25-.46.02-.64.33-1.09.22-.62-.15-1.59-.3-2.43-.22-.21.02-.41.16-.62.12-.19-.02-.35-.2-.53-.21-.27-.02-.53.15-.77.15-.13,0-.2-.14-.32-.16-.33-.05-.7.15-1.05.08-.22-.04-.42-.29-.64-.32-.49-.06-.69.23-1.21.11-.42-.1-1,.16-1.58.16-.35,0-.64-.17-.84-.15-.03,0-.27.14-.32.13-.09,0-.14-.22-.24-.21-.23.01.18.22,0,.29-.13.05-.31-.18-.52-.22-.09-.01-.95-.02-1.46-.03-.26,0-.58.14-.84.14-.27-.01-.52-.18-.61-.17-.16.02-.24.2-.35.2-.3,0-.6-.25-.89-.24-.2,0-.37.2-.57.21-.28.02-.52-.22-.82-.22-.23-.01-.4.18-.64.19-.23,0-.5-.2-.75-.2-.68,0-1.45.29-2.27.27-.39-.01-1.3-.17-1.86-.15-.2.01-.44.21-.64.2-.35-.03-.67-.49-1.03-.5-.23,0-.4.38-.77.38-.19,0-.31-.14-.47-.13-.75.05-1.75.65-2.04-.04-.03-.07-.28-.31-.37-.54-.08-.23.07-.5-.1-.7-.19-.2-.38-.04-.46-.2-.15-.29.08-1.01.02-1.16-.06-.15-.34.04-.43-.05-.09-.09-.06-.74.02-.87.14-.23.61-.34.95-.26.17.04.29.25.44.27.17.02.17-.17.35-.2.2-.03,1.17.11,1.66.08.67-.03,1-.02,1.82.05.39.03.75-.22,1.09-.22.2,0,.4.14.62.17.59.08,1.77-.23,1.81.05.05.28.19-.13.48-.16.08-.01.27.15.39.17.34.08.75-.11,1.2-.11.25,0,.54.14.84.16.68.02,1.4-.24,1.87-.15.09.02.27.17.39.18.64.05,1.43-.17,2.39-.16.65.01,1.78,0,2.03.11-.05-.02.17.34.19.34.5.05.29-.35.65-.48.23-.08,1.54.23,2.23.16.06,0,.14-.16.18-.16.28,0,.62.17.97.19,1,.04,2.35-.07,3.52,0,.28.02.72.04.92.11.09.02.34.26.44.26.33.04.52-.3.82-.29.19,0,.23.35.33.38.3.1.8-.37.99-.39.6-.06,0,.11.48.13.37.01.17-.12.48-.16.55-.08,1.95.06,2.71.29.84.25.46.12.15.26-.64.28-.75,1.01.05.6.05-.02.51-.23.5-.23.06-.1-.24-.78.27-.45ZM22.77,50.46c-.26.45.88.16.51.8-.37.65.49.36.61-.06.13-.49-.31-.96-.63-.9,0,0-.53.25-.48.16ZM22.04,50.99c-.18.35-.67.15-.49.46.13.22.96.15,1.12-.06-.03.05-.03-.55,0-.51-.08-.15-.27-.19-.39-.18-.41.03-.05-.04-.23.3ZM19.09,52.1c.01.42.79.04.96-.03.24-.1.93-.22.31-.36-.1-.03-1.29.1-1.28.38ZM11.61,49.99c-.09,0-.26-.12-.35-.09-.01,0-.86.96-.87.79,0,.02.74.39.92.4.31,0,.4-.35.55-.15.11.14-.4.14-.34.42.1.43.84.05.86-.43,0,.04-.37-.39-.3-.23-.05-.12-.04-.46.17-.61.35-.27.85.41.92.39.57-.12-.7-.62-.5-.57-.2-.04-.72.1-1.05.08ZM12.69,51.17c.3.14.81-.59.22-.53-.24.02-.52.38-.22.53ZM14.69,51.86s-.79-.85-.99-.64c-.14.14.85.78.99.64ZM11.45,51.63c-.06-.2-.1-.2-.33-.09-.61.28.45.48.33.09ZM4.97,50.17c-.23.62,1.4.58,1.43.39.05-.23-1-.41-1.14-.38-.1.02-.25-.12-.29,0Z"/>
      <path class="cls-1" d="M34.08,57.12c.83.14-.46.69-.24,1.69.11.5.29.25.26.95-.01.26.22,1.07-.57.73-.65-.28.46-.92.46-.9.02-.25-1.4-.4-1.46-.03-.04.25.42.08.36.32-.08.33-.22-.07-.4.11-.13.15-.04.51-.1.64-.16.35-.73.58-1.16.49-.19-.04-.3-.28-.51-.28-.47-.02-.8.43-1.33.3-.12-.03-.29-.25-.44-.26-.32-.04-.5.04-1.03,0-.91-.06-2,.25-2.71,0-.09-.02-.36-.26-.45-.26-.14,0-.21.24-.45.32-.47.15-1.14-.22-1.56-.21-.25.01-.4.25-.57.21-.4-.09-1.05-.77-1.05-.73,0-.05.65-1.04.57-1.02-.09.02.33.78.61.46.07-.08-.45-.68-.43-.55-.07-.45.53-.38.62-.64,0-.01-.34-.07-.34-.09.1.26.15-.95.09-.86.14-.23.74-.26,1.29-.16.67.12,1.57-.22,2.23-.13.16.02.31.13.48.13.46,0,.93-.27,1.38-.21.15.02.3.19.46.2.18.01.33-.14.49-.16.38-.05.91.1,1.3.06.25-.03.47-.19.63-.19.38,0,.77.28,1.19.25.15,0,.32-.16.48-.16.29,0,.65.2.97.19.41-.01.65-.24.94-.19ZM29.97,59.01c-.03-.24-.29-.15-.4-.11-.61.2.48.55.4.11Z"/>
      <path class="cls-1" d="M21.29,57.24c.49.14.45-.05.43.55,0,.25.29.16.2.34-.15.35-.75.17-.81.3-.13.24.42.39.21.57.02-.01-.64-.11-.77-.13-.32-.06-.71-.5-.74-.49-.68.23.46.78.22,1.08-.1.13-.48-.1-.72-.04-.17.03-.08.14-.3.28-.12.08-.49.02-.49.17.02.23,1.16.38,1.14.68-.02.33-1.35.44-1.64.36-.25-.08-.34-.27-.5-.29-.2-.03-.82.22-1.56.32-.24.03-.59.21-.86.2-.46-.02-.96-.37-1.36-.37-.23,0-1.26.63-1.76.26-.17-.13.09-.28-.12-.62-.08-.13-.31-.12-.31-.23,0-.39.84-.47.87-.79.03-.3-.76-.68-1.02-.57-.09.04-.36.48-.33.64.01.05.37.21.37.25,0-.12-.05.48-.06.49-.08.17-.32.02-.28.22.03.15.45.25.42.34-.13.35-.57.14-1.29.16-.47.02-1.18.3-1.86.08-.15-.04-.42-.3-.58-.3-.12,0-.26.28-.43.25-.23-.05-.16-.27-.4-.41-.5-.28-.93-.41-.89-1.04.04-.59.78-1.05-.16-1.29-.05-.01-.29.25-.43.24-.03,0-.65-.46-.63-.39-.06-.24.25-.77.4-.92.64-.62,2.52.11,3.45-.01.16-.03.33-.18.41-.18.24,0,.45.16.68.18.33.04.62-.21,1.02-.24.33-.01,1.18.04,1.67.08.41.04.77.34,1.16.32.25-.01.22-.23.45-.32.36-.13.76.13,1.22.11.16,0,.31-.16.48-.16.09,0,.22.15.32.16.21.03.34-.14.55-.14.31,0,.74.24,1.11.23.69,0,2.4-.25,3.5.07ZM14.11,58.59s-.17-.53-.21-.57c-.14-.12-.35-.04-.43-.04-.8,0,.48.77.64.61ZM18.43,59.4c-.09-.16-.46-.11-.5-.06-.12.18.68.38.5.06ZM9.57,57.5c.11.2.72-.17.34-.2-.1,0-.44.04-.34.2ZM13.36,60c-.01-.22-.22.23-.21.24.1.11.67.25.67.25-.01,0-.08-.89-.17-1-.08-.09-.23.05-.36-.03-.13-.07,0-.37-.31-.23-.66.3.36.4.38.76ZM7.14,58.09c-.03-.19-.5-.18-.46-.2-.65.22.54.64.46.2Z"/>
      <path class="cls-1" d="M28.64,64.73c.43.11.6.19.14.56,0-.01-.48.2-.35.2-.31,0-.14-.29-.31-.24-.26.09.15.05-.07.27-.02.03-.3.04-.48.16-.28.19-.52.55-.77.67-.18.09-.86.28-.88.27,0,0-.25-.44-.25-.44-.34,0-.69.84-1.08,1.02-.13.06-.41.01-.6.06-.37.09-.66.37-.77.38-.13.01-.36-.13-.41-.11-.53.18-1.35,1.24-1.39-.01-.01-.41-.25.2-.69.11-.14-.03-.66-.47-.69-.7,0,.09.18-.3.16-.33-.43-.56-2.17-.33-1.52.47.02.02.36.3.36.31,0,.18-.86.7-.99.68-.2-.03-.35-.52-.57-.59-.36-.11-.73.44-1.12.36-.59-.13-.46-1.21-1.49-.99-.32.06-.54.41-1.19.04-.2-.11-.09-.29-.29-.51-.14-.14-.27-.07-.32-.17.07.13-.03-.39.03-.36-.26-.15-.91.33-1.05.08-.09-.16.31-.18.37-.27.33-.49-.06-.68.24-.88.09-.06,2.13.08,2.67.14,1.42.13,3.11-.1,4.32,0,.34.04.5.22.84.16.66-.13,1.11-.03,1.75.04,1.12.11,2.26-.25,3.39-.32.73-.06,1.48.19,2.09.12.35-.04.58-.27.93-.19ZM13.12,66.02c.02.32,1.06.09.95-.26-.07-.21-.35-.2-.55-.15-.04,0-.41.3-.4.41Z"/>
    </g>
  </g>
</svg>