<?xml version="1.0" encoding="UTF-8"?>
<svg id="Layer_2" data-name="Layer 2" xmlns="http://www.w3.org/2000/svg" viewBox="0 0 133.66 66.9">
  <defs>
    <style>
      .cls-1 {
        fill: #272c49;
      }
    </style>
  </defs>
  <g id="Ebene_1" data-name="Ebene 1">
    <g>
      <path class="cls-1" d="M26.23,52.67c.07-.12-.05-.3-.21-.38-.62-.32,0,.74.21.38ZM26.74,51.9c.1-.11,0-.42-.21-.53-.47-.23-.08.86.21.53ZM18.53,53.82s-.51.03-.5-.01c-.06.49.94.42.5.01ZM18.49,54.55c-.07-.03-.5.49-.49.54.15.84,1.03-.38.49-.54ZM31.34,53.98c-.03.16-.26.06-.13.43.25.7.27-.55.51-.77.03-.03.16.07.17.05.04-.2-.11-.29-.18-.33-.15-.11-.39-.21-.53-.07-.22.22.22.39.16.7ZM16.27,55.31c-.28-.19-.48-.07-.56.16-.17.48,1.26.32.56-.16ZM13.89,56.03s-.1.34.07.39c.24.07.07-.44-.07-.39ZM23.58,56.89s.31-.32.32-.34c.06-.12-.14-.23-.12-.22-.27-.08-.41.52-.2.56ZM19.09,54.87c.18-.23.26,0,.05-.31-.01-.02-.35-.34-.43-.26-.05.04.37,1.17.34,1.16.36.13-.12-.38.04-.59ZM22.82,56.97c-.18-.02-.55.15-.55.24-.01-.19.57.3.7.12.13-.16-.17-.34-.16-.36ZM26.34,54.6c-.31-.27-.34.37-.08.26.15-.07.03-.29.08-.26ZM23.66,56.89s-.05,0-.08,0c0,.01.03.01.08,0ZM21.27,56.54c-.01-.3.4-.23.23-.62-.08-.19-.47-.8-.94-.42-.07.06.04.3.09.36.02,0,.03,0,.03,0,0,.02-.02,0-.03,0-.09.03-.34.23-.27.24-.46-.06-.28-.85-.39-.86-.32-.02-.24.5-.27.43.08.22.49.46.5.8,0,.04-.17.09-.13.15.45.83.4-.23.55-.44-.05.07.36-.05.22-.12.27.13.3,1.1.57,1.33.42.37-.17-1-.16-.84ZM23.06,56.43c.37.21.12-.3.13-.28-.25-.5-.23.23-.13.28ZM23.83,57.87c-.25-.41-.22.35-.16.37.23.08.21-.29.16-.37ZM13.71,53.84c.04-.07-.28-.39-.29-.41-.09-.18.04-.36-.21-.53-.24-.16-.44-.15-.53-.07-.45.41.48.55.55.63.04.04-.13.27-.13.29.05.18.56.22.62.09ZM11.17,54s-.06.03-.05.03c-.13-.22-.44-.21-.51-.16-.38.28.74.63.56.12ZM9.92,55.39c-.09-.1-.02-.4-.1-.45-.19-.1-.55.06-.55.16,0,.53.74.53.86.35-.06.04-.23-.09-.2-.06ZM38.11,52.98c.37-.04.03-.96-.14-1.06-.87-.52,0,1.08.14,1.06ZM11.45,54.28c.08.13.48.07.62-.05.3-.26-.07-.99-.11-1.01-.05-.02-.41.13-.44.38-.01.11.36.18.34.38,0,.01,0,.03-.02.09.01-.03.02-.06.02-.09-.03-.06-.4.32-.41.3ZM23.93,52.77c-.07-.05-.31-.17-.36-.01-.08.25.66.24.36.01ZM17.71,53.48c-.06-.29-.33-.38-.43-.41-.19-.06-.08-.23-.26-.22-.16.01-.73.19-.31.74-.02-.03.22-.07.28-.01.06.06.06.25.07.25.08.04.22-.15.45.04-.05-.18.22-.38.21-.4ZM13.98,54.34c-.11-.13-.68-.1-.75.05-.33.64,1.21.47.75-.05ZM12.64,55.42c-.18-.06-.66.61-.34.82.4.27.94-.63.34-.82ZM22.41,51.52s-.42-.31-.48-.1c-.06.19.73.36.48.1ZM20.2,53.35c.27-.04.03-.72,0-.78,0,0-.05.03-.05.03-.07-.04-.35-.09-.42.15,0,.05.54.59.47.6ZM17.73,54.18s-.23-.3-.23-.3c0,0-.06.08-.07.1.03.05.22.51.31.2ZM23.67,49.64c-.15-.23-.24-.55-.38-.58-.15-.03-.42.71-.43.66,0,0,.53.44.6.46-.05-.01.31-.31.43-.27-.05-.07-.15-.16-.22-.27ZM23.9,49.91s.04.06.04.09c0-.06,0-.08-.04-.09ZM17.54,52.64c-.09-.05-.19-.12-.28.01-.21.3.66.21.28-.01ZM16.11,54.34c.31.01.63-.48.32-.74-.15-.12-.38-.12-.56.02-.28.21-.05.71.24.72ZM14.57,55.31c-.57-.62-.11.82.14.14.02-.07-.14-.14-.14-.14ZM19.02,55.7c-.06.08.15.43.21.23.07-.23-.19-.21-.21-.23ZM33.23,51.83s-.16.22-.13.42c.13.71-.03.32-.29.66-.03.04.09.2-.05.31.09-.07-.36-.14-.36.12,0,.31.48.11.49.52,0,.16-.3.31-.44.38-.03.02-.08.02-.12.02.09.03.24.34.25.34.39.18.33-.55.37-.62.19-.44.43-.28.61-.33.46-.14.79-.58.67-.86-.12-.29-.27-.05-.43-.27,0,0-.3-.56-.33-.74-.04-.26.14-.11.16-.23.04-.25-.17-.27-.07-.39-.01.02.33-.04.34-.04-.06-.29-1.12-.63-.62-.09.47.51-.57-.14-.61.19-.02.21.43.28.55.63ZM41.11,46.25c-.22,0-.3.25-.16.37.16.14.43-.38.16-.37ZM31.88,51.28c-.34.04-.48.31-.5.41-.09.43,1.02-.04,1-.25,0,0-.06.02-.05.03.03.11-.41-.19-.45-.18ZM26.86,56.1c.29.01.05-.27.32-.45,0,0,.19.12.23.02.13-.36-.06-.76-.22-.81.01,0-.22.43-.16.37-.2.21-.6-.31-.76-.09-.21.31.57.77.52.71.03.04.03.25.06.25ZM40.75,49.15c.24,0-.27.15-.22.39.04.21.68.31.71.26.1-.17-.07-.14-.15-.27-.22-.37-.22-.38-.34-.38ZM55.04,41.76c-.1-.11-.33-.27-.45-.04-.23.42.98.59.45.04ZM41.89,47.97c.28.08.51-.48.15-.65-.47-.21-.44.57-.15.65ZM39.71,48.14c-.04-.08-.1-.22-.17-.19-.28.12.49.7.17.19ZM27.34,54.49c.08.04.48-.06.5-.12.06-.13-.14-.27-.15-.28-.13-.28-.68-.39-.77-.51-.1-.13.03-.66-.22-.81-.33-.19-.73.34-.35.68.12.1.3,0,.4.07.09.07-.02.18.06.25.05.04.28.05.34.1.04.04.12.58.19.61ZM36.62,49.94c-.51.36.61.64.45.18-.07-.19-.3-.3-.45-.18ZM43.6,47.19c.26.08.14-.53.01-.5-.14.02-.22.44-.01.5ZM27.8,52.83c.08-.05,0-.38-.12-.36-.23.04-.05.48.12.36ZM40.26,51.54c.08.18-.06.28-.05.31.05.19.35.65.52.71.21.07.21-.29.41-.29.26,0-.07.17.23.3.03.01.13-.09.16-.09.2-.01.16.38.32.33.01,0,.12-.69.12-.7,0-.02-1.2-.76-1.11-.75-.02,0-.55.22-.53.21.02-.01-.14-.16-.08-.03ZM16.06,44.06s-.05.03-.06.03c-.32,0,.08,1.6.54,1.27-.03.02,0-.25,0-.28-.12-.48-.4-.73-.48-1.02ZM13.02,46.47s-.16.08-.16.09c-.11.3.57-.12.16-.09ZM10.45,46.43s-.49.41-.49.41c.03.15.49.38.34.24.31.3.21-.61.15-.65ZM7.36,54.2c-.08-.02-.29.37-.16.37.09,0,.41-.31.16-.37ZM22.21,53.27c.05.12-.28.29-.02.36.47.12.4-1.51.29-1.72,0,0-.05.03-.06.03-.54-.46-.31.46-.43.52.01,0-.22-.11-.23-.02,0,.13.36.4.3.55,0,.02-.22-.03-.22-.02.15.43.26,0,.37.3ZM20.15,50.89c.34.12.07-.38.13-.29-.27-.41-.22.26-.13.29ZM12.2,54.87c.04.07-.48-.13-.45-.18-.25.43.76.71.45.18ZM29.5,49.64s-.05.03-.05.03c.07.05-.31-.08-.2-.11-.59.16.71.61.25.08ZM14.96,45.72c-.24-.52-.23.17-.16.23.25.2.14-.29.16-.23ZM30.95,57.11c-.14.15.1.38.23.54.05-.08.1-.16.15-.24-.12-.21-.27-.4-.37-.29ZM31.24,58.58c-.88-.41-.06,1.55.39.86-.02.03-.57-.94-.39-.86ZM29.34,57.82c-.19.03.04.46.18.33.08-.07-.09-.34-.18-.33ZM37.69,55.76c.07,0,.35-.36.35-.4.03-.13-.3-.8-.24-.72-.3-.39-.54-.15-.74-.32-.33-.27.18-.13-.04-.47-.12-.18-.66-.28-.71-.26-.16.09-.12.55-.09.62.06.18.47.39.69.42,0-.05.15-.2.24-.14-.03-.01.49.69.44.55.06.16-.19.7.1.73ZM30.32,58.44c-.24-.36-.25-.17-.45-.04-.44.27.11.05.23.16.14.12.08.43.21.38.34-.12.16-.28.01-.51ZM37.01,54.63s-.06,0-.11,0c0,.02.04.03.11,0ZM46.72,49.7c-.22-.06-.15-.04,0,0h0ZM46.81,49.73s0,0,0,0c-.03,0-.07-.02-.1-.03.03,0,.06.02.1.03ZM39.68,54.05s-.16.09-.16.09c.02.03-.01-.56-.27-.78-.04-.03-.25.1-.3.09-.06,0-.56-.18-.7-.22,0,0,.02.01.02.01-.08-.03-.08-.03-.02-.01-.03-.03-.09-.07-.09-.07-.36-.24.11.22.12.22.25.19.21.32.41.49.26.23.64.31.74.46.07.1-.13.46.18.47.56.02.16-.63.09-.76ZM35.61,55.6c.14.19-.2.31.09.3.2,0,.14-.2.1-.34-.02-.07-.16-.05-.2-.1,0,0,0-.54-.15-.56-.11-.02-.07.19-.03.27.02-.06.04-.08.04,0,0,.05-.02.03-.04,0-.03.1-.07.3-.04.4-.02-.05.2,0,.22.02ZM46.91,48.97c-.16-.16-.57-.29-.65-.29.05,0-.46.26-.55.3-.06.02-.2.54-.18.73.08.62.79-.12.92-.14.07,0,.38.15.37.16.17.04.38.09.39.07.18-.2-.17-.7-.3-.83ZM48.8,48.66c-.19-.24-.02.11-.25.06-.06,0-.18-.23-.29-.27-.06-.03-.18.03-.28,0-.21-.06-.35-.2-.45-.18-.37.06-.4.39-.63.41,0,0-.18-.2-.2-.11-.05.4.7.08.79.15.11.09.1.36.15.42.04.04.1-.17.16-.09.16.2.13.51.41.63,0,0,.6-.03.61-.04.15-.16,0-.94-.03-.98ZM35.72,57.39c-.23-.2-.09.24,0,.28.19.08-.04-.31,0-.28ZM32.59,54.73c.05-.23-.32-.15-.32-.32,0-.1.02-.14.04-.15-.18,0-.41-.06-.46.02-.23.33.58,1.2.74.45ZM27.79,56.38c.01-.09.53-.18.18-.45-.42-.33-.31.29-.38.35-.15.11-.48-.06-.75.19-.03.03-.15.33-.07.39.04.03.65-.26.5-.26.19.01.68.86.88.45-.05.12-.34-.78-.35-.66ZM35.14,57.63c.06-.33-.29-.51-.38-.58.03.02-.04.22-.11.2-.36-.12-.44-.96-.44-.96.09-.09.35.05.39-.07.03-.09-.3-.07-.23-.3,0-.01.17-.08.17-.09-.09-.21-.47-.2-.44-.55.01-.07.17-.03-.03-.2-.22-.17-.64-.22-.7.16-.02.17.64.15.29.41-.18.13-.3-.21-.31-.05-.01.25.54.33.24.58-.35.31.3.34.46.46.21.17.48.53.61.74.09.15.39.76.49.24ZM50.05,46.5c.43.62.82-.28.66-.36-.01,0-.15.08-.16.09-.27.14-.79-.14-.5.26ZM30.86,57.86c.07.28.89.85,1.06.64.14-.19-.18-.17-.26-.35-.08-.17-.08-.29-.15-.42-.03-.06-.08-.16-.14-.25-.03.08-.07.18-.12.31.01-.04-.02-.09-.07-.15-.13.22-.28.39-.32.22ZM31.53,56.87c.12-.2-.12-.4-.23-.44-.37-.13.02.79.23.44ZM30.41,55.97c-.24-.05-.18.35-.21.4-.24.4-.47.39-.02.37-.05,0,.27.13.36.02.2-.22-.26-.8-.13-.78ZM31.32,57.4s.03.06.04.08c.19-.5.1-.34-.04-.08ZM32.8,55.4c-.25-.27-.23.04-.16.23.15.42.38,0,.16-.23ZM43,50.43c-.25-.06-.47.36-.24.48.22.12.6-.4.24-.48ZM18.42,50.97c.18.14.44-.5.1-.48-.14,0-.21.39-.1.48ZM15.78,51.74s0,.31-.1.34c-.16.04-.29-.2-.42-.13-.37.21.03.11-.16.37-.08.11-.28.15-.3.23-.11.48.32.22.46.18.09-.02.31-.02.44.02-.01-.04,0-.04.09.05-.02-.02-.05-.04-.09-.05.03.09.19.35.19.35,0,0,.4-.23.39-.21-.02.03.25-.89.25-.85-.02-.11-.28-.38-.34-.48-.06.08-.45.23-.39.17ZM19.16,46.52c.03-.09-.17-.19-.17-.19-.6-.46-.01.7.17.19ZM22.24,48.56c.1.03-.17.09-.17.09.03.34.57.02.17-.09ZM25.2,48.25s.14-.13.02-.22c-.24-.19-.04.17-.02.22ZM21.86,49.69c-.12-.15-.41-.39-.59-.18-.27.3,1.01.69.59.18ZM15.7,48.94c-.47-.86-1.06.45-.33.46.33,0,.41-.3.33-.46ZM20.44,49.03c.15.08.2-.27.27-.29-.03,0,.42.22.42.13.01-.2-.23-.26-.2-.24-.45-.22-.95.19-.49.4ZM15,49.89c-.22-.08-.11.63.13.5.13-.07.06-.43-.13-.5ZM16.74,51.15c.07-.24-.04-.36-.26-.5-.03-.02-.06-.16-.09-.17-.23-.03-.27.69-.26.7.2.26.68-.28.61-.04ZM14.52,50.72c-.2-.06-.08.61.15.42.13-.11-.18-.42-.15-.42ZM16.17,51.57s.02-.03,0-.04c-.02,0-.01,0,0,.04ZM48.95,39.27c-.05-.06-.3-.23-.31-.19-.04.21.67.63.31.19ZM33.79,45.99c.12-.08-.05-.19-.12-.22-.22-.13,0,.29.12.22ZM36.12,45.16s-.22-.04-.25.06c-.06.21.58-.04.25-.06ZM29.08,48.59c-.47-.26-.11.65.12.22.08-.15-.03-.17-.12-.22ZM32.04,47.35c-.24-.04-.33.11-.33.18,0,.28.63-.12.33-.18ZM25.52,48.72c.31-.05-.21-.35-.32-.47.06.17-.03.52.32.47ZM26.26,49.03c.04.1-.02.2,0,.28.21.56.45-.56.38-.49.17-.17.46.03.21-.26-.22-.26-.14.14-.3.09-.13-.04-.14-.4-.32-.47-.11-.04-.38.03-.48.06.04.07-.03.44-.03.43.07.13.44.11.54.35ZM25.75,48.26s-.02-.02-.04,0c0,0,.02,0,.04,0ZM27.82,47.7c.07.13-.22,1.03-.28,1.07-.21.16-.39-.03-.47.08.12-.13.32.79.16.52.17.29.22.42.54.35.09-.02.57-.48.58-.52,0-.27-.51-.12-.46-.46,0,.02.24.27.42.13.02-.02.04-.73.04-.73-.08-.17-.35-.18-.4-.35,0,0,.07-.11.1-.2-.04-.03-.27-.31-.5-.01-.2.26.21-.02.28.13ZM28.01,47.53s.02.05.03.05c.03-.08.04-.13-.03-.05ZM28.04,47.58h0s0,0,0,0h0ZM29.21,47.24s.82.23.38.58c-.13.1-.17-.28-.23-.3-.26-.08-.24.21-.28.29-.09.19-.22-.04-.19.17.05.33.49.24.71.26.34.03.56.42.65.15.08-.27-.53-.38-.47-.75,0-.06.41.09.39.07.35.35.14.55.19.75.01.07.09.82.35.53.09-.1-.29-.38-.2-.25-.23-.35-.09-.21.05-.17.42.12.96-.32.48-.83-.03-.03-.52-.02-.5-.01-.06-.05-.08-.25-.15-.27-.05-.02-.16.2-.22.12-.08-.11.11-.31.1-.34-.06-.38-1.09-.55-1.06,0ZM9.16,42.72c-.09-.06-.27-.15-.37-.02-.27.38.8.36.37.02ZM4.6,45.73c-.08.02-.04.36-.02.36.23.07.22-.41.02-.36ZM6.24,45.21c-.5-.24-.29.6-.06.68.27.08.52-.46.06-.68ZM10.09,42.86c.14-.04-.08-.63-.01-.56-.34-.39-.29.65.01.56ZM17.81,45.18c-.3-.09-.25.87.08.81.24-.04.25-.72-.08-.81ZM17.26,44.39s0,.02-.01.02c.03-.01.03-.02.01-.02ZM16.47,44.41c.08.07.71-.04.8-.02.03-.06.01-.2.09-.17.05.01.04.19-.05.17.22.05.46.6.39-.06-.03-.27.03-.2-.2-.25-.1-.02-.37-.1-.46-.13,0,.02-.01.01-.04-.02,0,0,.02,0,.04.02.01-.06-.09-.36-.08-.36-.34-.08-1.02.35-.48.83ZM16.95,44.79c-.34-.12-.18.97.21.53.12-.14-.17.06-.26-.22-.03-.08.27-.23.05-.31ZM9.17,43.92c.22.01.16-.2.08-.25-.32-.23-.22.24-.08.25ZM15.12,44.28c-.39-.24-.14.55.01.56.25,0,.28-.38-.01-.56ZM11.5,48.14c-.42-.02-.07.64.12.22,0,.02-.08-.22-.12-.22ZM10.57,44.8s.5-.13.3-.23c-.21-.11-.44.14-.3.23ZM13.24,45.15c.05.04.76-.32.21-.54-.32-.12-.43.38-.21.54ZM10.06,44.79c-.33-.7-.26.07-.59-.04,0,0-.05-.34-.15-.28-.1.07-.22.36-.12.56.08.18.08-.08.25.08.16.15,0,.3.18.33.06,0,.58-.27.6-.46,0-.11-.17-.18-.17-.19ZM11.87,44.32c-.09-.05-.37-.13-.42,0-.11.28.78.19.42,0ZM7.98,43.28c-.01-.19.21-.22.39-.07.38.32.15-.13.11-.2-.11-.16-.65-.66-.91-.5.02-.01-.11.42-.05.31-.14.23.1.5-.2.68-.49.29.37.37.68.2.37-.2,0-.2-.01-.42ZM55.07,50.27c-.13-.23-.29-.38-.43-.41-.88-.19.91,1.23.43.41ZM44.9,56.23c-.17-.05-.2.17-.11.2.08.03.31-.14.11-.2ZM32.2,66.59c-.25-.26-.57.02-.44.24.1.17.61-.05.44-.24ZM53.96,50.08c-.08-.07-.24-.14-.25-.08-.06.2.51.29.25.08ZM55.13,45.62s-.56.17-.56.16c-.05.55.9.12.56-.16ZM54.1,45.82c-.14-.13-.78-.1-.78.14,0,.67,1.38.44.78-.14ZM51.36,50.91c.5.48.17-.58,0-.64.04.01-.41.24-.41.29,0,.08.41.36.4.35ZM49.35,49.29c.07-.15-.35.11-.25.2.26.25.34-.09.65-.13.09-.01.1.15.28.13.15-.02.81-.25.89-.33.07-.08.02-.47.15-.51.02,0,.38.19.43.26.02.04-.26.47.18.47.08,0,.75-.63.79-.64.09-.02.3.12.4.08.25-.12,0-.1.21-.26.44-.34.84-.13.57-.52-.02-.03-.34-.3-.62-.09-.23.17.04.45-.24.48-.04,0-.2-.32-.26-.36-.56-.36-.38.4-.6.46-.34.1-.1-.29-.26-.35-.39-.17-.88.52-1.41.55-.21,0-.39-.24-.57-.27-.92-.13-.22.53-.34.82ZM44.14,54.93c-.02-.23-.45-.58-.45-.97,0-.49.41.1.1-.48-.09-.19-.39-.45-.6-.46-.14,0-.31.27-.55.3-.26.03-.29-.28-.45-.19-.16.1-.31.84.03,1.12.17.14.55-.13.67-.07.27.11,1.14,1.84,1.04,1.14-.04-.26.23-.28.22-.4ZM52.32,46.35s.38.02.48.1c.23.18.11.47.32.33.01,0-.17-.6-.18-.61-.44-.67-1.12-.41-.61.18ZM53.88,44.09c.03-.07-.02-.31-.15-.28-.08.02.04.49.15.28ZM32.43,50.34s-.17,0-.19.03c-.16.39.68.11.19-.03ZM32.45,51.04c.09-.11-.12-.28-.15-.28-.16.02-.07.54.15.28ZM50.23,42.13c.09-.02-.17.58-.06.62.37.12.4-.48.32-.6-.04-.06-.15-.09-.26-.02ZM42.45,45.96c.27-.04,0-.51.02-.51-.23-.07-.16.52-.02.51ZM58.97,37.17s.08-.03.15-.03c-.03-.02-.02-.03.05,0,0,0-.02,0-.05,0,.08.06.46.22.53.1.03-.06-.15-.16-.14-.14-.18-.53-.8-.26-.53.07ZM29.14,53.6c.1.02.23-.48.19-.45-.02,0,.58.25.54.21.22.22.1,1.12.28,1.06.19-.07.03-.44.18-.6.04-.04.17.04.2-.03.13-.38-.25-.32.09-.62.2-.18.16.07.37.01,0,0,.3-.24.28-.15.12-.48-.39-.21-.46-.32-.13-.2.01-.44-.07-.53-.25-.28-.46-.35-.76-.09-.46.41.74.57.75.59.08.23-.94.43-1.11.31-.12-.08.07-.15-.04-.34-.58-1.01-1.11.82-.42.94ZM33.69,48.31c.09.03.43-.28.16-.37-.23-.07-.22.35-.16.37ZM28.65,51.09c.17.12.81-.16.58-.38-.32-.31-.85.19-.58.38ZM30.76,50.53c.34.06.29-.44.24-.48-.19-.14-.41.46-.24.48ZM29.13,51.19c-.69-.5-.08,1.24.26.5.07-.15-.1-.38-.26-.5ZM36.33,47.54c.27.79,1.04-.36.63-.55,0,0-.46.13-.53.21.09-.1-.04.52-.1.34ZM54.91,43.89c.02-.08-.13-.13-.14-.13-.44-.13.05.45.14.13ZM51.13,44c-.47-.28-.61,1.02-.42,1.08.41.12.39-1.09.42-1.08ZM50.15,42.18s.05-.05.07-.06c-.02,0-.04.02-.07.06ZM27.58,51.09s.01,0,.02-.03c-.08-.03-.35-.06-.36.07-.03.3.61.53.63.51.17-.13-.09-.59-.22-.67-.02,0-.04.05-.06.09.03.01.04.02-.02.03ZM51.27,46.91c.14-.11.1-.48-.1-.58-.58-.3-.38.95.1.58ZM55.05,44.03c.13-.02.15-.19.02-.22-.15-.05-.12.24-.02.22ZM47.72,47.18c-.19-.44-.96-.38-.92,0,.02.26.24-.07.51.16.29.24.55.17.41-.15ZM52.17,42.24s.67-.17.64-.13c.15-.18-.23-.66-.13-.64-.19-.05-.71.62-.51.77ZM57.49,40.09c.06.03.15-.14.3-.23.18-.1.9-.39.63-.55-.11-.07-.84-.02-1,.25-.02.03.16.57.07.53ZM56.18,41.22c-.1-.11-.22-.34-.4-.21-.41.3,1.08.93.4.21ZM56.64,40.9c-.07-.03-.34-.06-.31.09.05.24.65.04.31-.09Z"/>
      <path class="cls-1" d="M112.44,8.04c-.12.05-.23.11-.35.17.01,0,.03,0,.04,0,.11.02.21-.1.31-.17ZM118.05,19.59c.21-.1.24-.11.44-.21-.21-.06-.32-.14-.53-.07-.03.09.04.18.09.28ZM117.09,19.15c.34-.12.5-.46.74-.79-.66.33-1.24.69-1.98,1,.48-.03,1.12-.18,1.23-.21ZM92.1,35.49c.05-.05.14.04.26,0,.03,0,.05-.03.07-.05-.47-.05-.93-.1-1.38-.19-1.08-.21-2.11-.6-3.18-.84-1.11-.25-2.25-.33-3.42-.56-1.09-.21-2.18-.56-3.38-.7-1.08-.13-2.22-.31-3.44-.35-1.08-.04-2.23,0-3.46.07-1.08.06-2.22.19-3.45.34-.44.05-.9.1-1.37.14.08.11.15.22.15.31.02.31-.58.85.21.66-.01.04-.02.08-.04.13.39-.07.78-.14,1.15-.18,1.2-.15,2.34.08,3.4.02,1.2-.06,2.32-.1,3.37-.08,1.2.04,2.33-.12,3.39,0,1.16.14,2.27.34,3.34.55,1.12.22,2.18.58,3.28.83,1.11.25,2.18.69,3.35.92.32.06.65.1.99.12-.03-.23.24-.39.24-.51,0-.27-.34-.38-.08-.64ZM90.95,36.11c-.22.03-.18-.31-.41-.32-.16,0-.6.12-.7,0-.12-.14.01-.42.05-.45.06-.06.42-.15.62.01.03.03.03.25.06.3.04.08.82.39.39.45ZM87.77,16.34c-.03-.07-.02-.18-.01-.31-.25-.07-.51-.14-.77-.19-1.08-.22-2.17-.31-3.24-.55-.77-.17-1.52-.47-2.32-.66,0,.04-.05.08-.19.08,0-.06,0-.1.03-.12-.03,0-.07-.02-.1-.03-.85-.17-1.68-.06-2.58-.21-.16.44-.52.37-.91.42-.31.04-.7.21-.85-.13-.13-.28.1-.27.15-.61-.21-.02-.25-.2-.46-.22-.37-.04-.63.3-.67.67-.04.37.18.44.55.48.62.06,1.23.19,1.82.32,0,0,0,0,.01,0,.06-.01.09,0,.11.04.54.12,1.08.26,1.61.36,1.22.23,2.36.59,3.51.85,1.01.23,2.03.44,3.07.64.99.2,2.02.35,3.1.49.98.13,2.01.33,3.12.4.99.05,2.07.07,3.18.04.11-.9-1.12-.66-1.11-1.21,0-.05-.27.04-.23-.02-.16,0-.25-.01-.4-.02,0,0,.17.06.18.06-.11.1-.65-.2-.88-.37-1.16-.04-2.29.24-3.32.11-.13-.01-.27-.05-.4-.07-.04.18-.16.39-.2.39-.18.04-.3-.34-.43-.4-.28-.14-1.25.23-1.4-.22ZM76.34,14.46c-.07.17-.57,0-.34-.2.05-.05.44-.04.34.2ZM80.29,15.43c.09-.03.16-.03.22,0,.01.22-.29.23-.22,0ZM92.82,17.15s0,0-.01,0c-.02,0-.02,0,.01,0ZM63.15,14.47c-1.2.21-2.27.72-3.33.96-.39.09-.78.18-1.16.26.07.03.14.05.17.06.15.01.27-.19.35-.02.1.21-.37.18-.4.21-.06.05-.17.26-.09.46.12.27.25.04.6.15.04.02.07.03.1.05.22-.06.44-.12.67-.18,1.03-.24,2.19-.2,3.37-.4,1.4-.25,2.7-.66,3.98-.83,0-.06,0-.12.04-.17.13-.2.23-.02.23.14,1.43-.15,2.82-.01,4.15-.03.37,0,.44-.41.44-.78,0-.37-.08-.44-.45-.44-1.4.02-2.85-.27-4.35-.11-1.37.15-2.8.42-4.3.68ZM65.88,14.59c.1-.31.73.07.69.24-.04.17-.81.11-.69-.24ZM71.59,8.55c1.26.02,2.43.2,3.54.32.59.06,1.17.14,1.73.21,0-.05.01-.11.06-.16.18-.19.38.04.39.24.45.07.9.14,1.33.22,1.2.23,2.35.46,3.47.71.19.05.42.16.62.2.12-.81.84-.27.4.14,1.07.24,2.17.66,3.31.86.12.02.25.02.37.03,0-.01,0-.03.01-.04,0,.02.02.03.02.05.25.02.51.03.77.03.03-.11.1-.23.04-.28-.24-.07-.44-.12-.5-.34-.04-.13.11-.71.16-.77.04-.05.12-.09.22-.14-.43-.12-.86-.24-1.29-.32-.02.06-.22.18-.27.25-.11.18-.58.18-.74.11-.22-.1-.57-.01-.58-.31-.43-.09-.73-.42-1.16-.51-.22.29-.72.59-.92.1-.02-.08-.05,0-.05-.06-.09-.02-.01-.32-.1-.34-.1-.02-.2-.04-.29-.06.21.44-.55,1.15-.89,1.02-.58-.22-.06-.98.61-1.06-.01,0-.02-.01-.03-.02-.97-.21-1.95-.41-2.97-.6-1.14-.22-2.36-.17-3.63-.31-1.14-.12-2.32-.22-3.62-.24-.37,0-.63.13-.64.51,0,.37.26.59.62.59ZM87.25,9.87c-.09.13-.27-.06-.3-.2.12.03.2.14.3.2ZM83.91,9.54c-.04.16-.16.57-.54.62.05-.29.32-.44.54-.62ZM77.78,8.59c-.11.51-.57-.11,0,0h0ZM132.03,31.96c-.21-.21-.61-.34-.88-.18-.7.41-1.53.76-2.19,1.18.21.23.93.66.79,1.01-.2.49-.69.2-1.01.44-.42.31-.61.67-.77,1,.22-.14.46-.36.68-.51.61-.4,1.16-.95,1.8-1.36.03-.05.17.04.18,0,.03.01.08.11.11.13.33-.2.63-.42.96-.62-.15-.01-.36.03-.56.09-.11-.5.43-.87.9-1.21ZM106.87,42.96c.86-.14,1.74-.34,2.66-.51,1.14-.21,2.3-.03,3.31-.26,1.14-.27,2.1-.91,3.09-1.21,1.12-.34,2.24-.42,3.2-.8,1.09-.42,2.03-1,2.97-1.45,1.04-.5,1.91-1.06,2.82-1.58-.06-.41.46-.82.58-1.18.05-.16.02-.3.03-.46-.96.59-1.86,1.32-2.93,1.87-.97.51-2.09.85-3.23,1.31-1,.41-2.12.71-3.3,1.07-1.03.32-2.14.65-3.34.93-.8.19-1.65.38-2.53.56.17.1.36.28.43.24.01.23-.6.24-.67.17-.03-.03-.05-.23-.03-.35-.2.04-.4.08-.61.12-.68.12-1.35.19-2,.26.22.05.5.16.55.28.03.08-.06.1-.09.24-.06.27.13.17-.02.35-.07.09-.74.21-.91.42ZM89.83,11.35c.21.02.44.04.65.05.21-.28.48-.55.34-.75-.12-.17-.4-.03-.57.02-.27.08-.85.3-.84.64,0,0,.01,0,.04.02.13,0,.25,0,.38.01ZM82.09,8.66s.03,0,.04,0c0,0,0,0,0-.01-.01,0-.03,0-.04,0ZM126.58,36.36c.29-.17.52-.39.79-.56-.32.01-.29-.12-.49.05-.07.06-.25.23-.3.51ZM129.9,25.59c-1.12.67-2.31,1.16-3.35,1.83-.2.13-.31.29-.51.42.35.12,1.12.16.95.69-.12.35-1.22.25-1.75-.09-1.03.65-2.1,1.2-3.22,1.82-1.04.57-2.12,1.14-3.33,1.67.16.04.33.04.41.11.13.09.17.66.39.69.45.06.67-.63,1.12-.55,0,0,.15.28.3.43.44-.22.7-.7,1.12-.93-.36-.14-.62-.6-.43-1.03.33.03.97.21,1.13.5,1.63-.91,3.24-1.47,4.68-2.4,1.02-.66,1.88-1.67,2.98-2.33.32-.18.59-.45.4-.77-.19-.32-.58-.25-.89-.06ZM94.7,11.06c.08.03.23-.08.34-.06.17.02.26.16.29.16.23.02.6-.14,1.01-.23.12-.03.28.03.39-.03.09-.04.1-.25.28-.36.1-.06.38-.05.46-.13,0,0,.01-.02.02-.03-.51.05-1.01.09-1.49.12-.12,0-.23,0-.34,0-.18.08-.34.15-.45.24-.09-.05-.05-.16-.06-.23-.29,0-.58-.01-.86-.03.03.23.29.52.41.57ZM98.51,11.05c.09.11.16.24.22.36.41.02.82.02,1.23-.03.15-.34.2-.98.34-1.04.03-.01.13.14.24.16.09.02.38.14.59.49.53-.08,1.05-.02,1.6-.12,1.2-.21,2.25-.72,3.3-.96,1.18-.28,2.39-.17,3.41-.48.98-.3,1.82-.82,2.65-1.21-1.07-.17.49-.56.7-.67.41-.21,1.13-1.11,1.55-1.07.33.04.2.19.67.46.02.01.05.28.07.29.22-.11.28-.41.49-.52-.05-.37-.17-.65-.44-.99-.94.48-1.94.79-3.03,1.22-.97.38-1.98.83-3.12,1.17-1,.3-2.07.58-3.22.85-1.02.24-2.11.43-3.27.63-1.14.2-2.21.47-3.22.6-.38.05-.74.08-1.1.12.02.23,0,.45.03.49.04.09.21.13.31.25ZM106.64,9.34s-.07.33-.08.33c-.04-.01,0-.34.08-.33ZM128,33.92c-.19.12-.37.02-.56.14.42-.06.88-.13,1.03-.49-.15.1-.32.25-.47.34ZM69.48,28.11c1.19-.15,2.31-.1,3.37-.15,1.2-.06,2.32-.21,3.37-.18,1.19.04,2.29.25,3.35.38,1.17.14,2.23.42,3.3.63.62.12,1.24.15,1.87.19.02,0,.04,0,.06,0,.49.04.97.07,1.44.18,1.03.23,2.07.56,3.15.77.14.03.27,0,.38-.05.04-.04.08-.08.15-.11,0,0,.01,0,.01,0,.09-.09.16-.2.19-.35.07-.36-.14-.63-.5-.71-1.07-.21-2.07-.68-3.08-.91-1.11-.25-2.24-.46-3.4-.68-1.09-.21-2.22-.44-3.42-.58-1.08-.13-2.25-.05-3.48-.09-1.08-.03-2.23-.09-3.47-.02-1.08.06-2.23.2-3.45.34-1.08.13-2.23.27-3.44.49-.69.12-1.35.3-1.98.47.07.07.12.13.12.18,0,.1-.17.25-.23.39-.06.14-.19.5-.26.76.84-.08,1.73-.04,2.64-.2,1.18-.21,2.24-.61,3.3-.74ZM92.91,10.87c-.06.09-.04.21.05.25.32.14.11-.48-.05-.25ZM98.3,16.74c.05.16.2.21.24.35.16.59-.38.55-.37.86,0,.01.01.03.02.04.58-.04,1.17-.08,1.78-.15.02,0,.03,0,.05,0,.02-.07,0-.14.07-.16.05-.02.26.07.31.03.25-.24,0-.94.53-.93-.04.27-.19.81,0,.98.12-.01.25-.02.37-.03.18-.13.06-.42.16-.7.12-.32.57-.42.12-.73.05-.04.11-.07.18-.1-.23.04-.45.06-.67.09-.02.11-.06.21-.16.26-.01-.09-.02-.17-.01-.24-.13.02-.26.04-.39.05-.15.28-.35.47-.46.26-.01-.03-.01-.11,0-.2-.02,0-.03,0-.04,0-.14.02-.28.03-.42.04-.12.13-.4.13-.64.07-.24.02-.47.05-.7.07,0,.05,0,.09.01.13ZM99.93,16.52c-.1.37-.43-.1,0,0h0ZM100.2,22.99c-.41-.01-.8-.03-1.19-.03-.04.09-.06.19-.05.25.01.14.55.79.49,1,0,.02-.03.04-.05.06.22-.02.43-.03.65-.05-.04-.05-.03-.13.11-.23.17-.13.64-.1.57.16.12-.01.24-.03.36-.04.02-.02.03-.05.04-.08.1-.32-.15-.42.12-.55.32-.16.26.26.66.23.16,0,.19-.21.32-.14-.08.13-.09.28-.07.43,1.05-.12,2.16-.2,3.32-.4,1.05-.19,2.05-.38,2.99-.59,1.04-.24,2.09-.34,3.01-.6,0-.07-.25-.31-.27-.39-.19-.56-.85-.35-1.14-.6-1.44.37-3.1.33-4.86.65-1.18.21-2.23.75-3.28.88-.53.07-1.05.07-1.56.05.01.02.02.05.02.09-.13,0-.17-.04-.17-.09ZM103.75,23.15c0,.16-.1.25-.25.31-.1-.22.13-.35.25-.31ZM97.6,17.17c.12,0,.21-.24.23-.52-.16.01-.32.03-.49.04.02.25.06.48.25.49ZM98.98,24.09s-.03.12.02.13c.19.02.1-.31-.02-.13ZM112.6,21.61c.03.08-.01-.17-.01-.17,1.64-.9-.95-1.83.01.17ZM98.22,24.24c.08-.32.56-.19.63-.38.18-.5-.82.07-.63.38ZM114.1,20.9c.72,0,1.62-.41,1.43-1.44-.75-.03-1.31.68-1.43,1.44ZM116.18,20.52s-.1.1-.09.11c.3-.13.5-.32.79-.45-.3-.13-.73-.04-.7.34ZM96.23,16.74c-.01.49.07,1.09-.22,1.35.41-.01.84-.03,1.27-.06,0-.04,0-.09-.02-.14-.05-.1-.47-.26-.57-.47-.11-.21-.14-.47-.17-.7-.09,0-.19.01-.28.01ZM109.97,21.33s.05.06.08.09c.02,0,.04,0,.06-.01.01.03-.15-.11-.14-.08ZM104.54,16.96c1.35-.25,2.53-.62,3.69-.91,1.33-.33,2.67-.31,3.8-.69,1.31-.44,2.34-1.25,3.43-1.74-.09-.08-.24.04-.25-.08-.05-.29.54-.87.6-1.38-.9.43-1.83.98-2.86,1.37-.92.34-1.86.85-2.93,1.16-.94.27-2,.38-3.08.62-.89.2-1.85.32-2.86.49.06.13.07.25.06.37.48-.2.61.41.4.78ZM95.11,24.43c.73.02,1.5,0,2.3-.03-.05-.12-.08-.25-.06-.36.04-.21.48-.29.66-.47.13-.14.21-.38.3-.59-.28.02-.56.04-.83.06-.03.07-.05.14-.05.24-.14-.13-.29-.18-.43-.2-.15.01-.3.02-.45.03-.48.16-.93.61-1.29.71.15-.16.39-.38.4-.67-.17,0-.35,0-.52,0-1.19-.03-2.3-.27-3.35-.4-1.17-.14-2.32-.04-3.39-.25-1.12-.22-2.11-.88-3.21-1.13-1.09-.25-2.27-.19-3.43-.41-.66-.13-1.34-.24-2.03-.35-.05.22-.17.4-.35.44-.15.03-.29,0-.38-.15-.08-.14.09-.14.06-.37,0,0,0-.02,0-.02-.23-.03-.45-.07-.69-.1-.37-.04-.84.08-.88.45-.05.37.39.55.75.6,1.16.14,2.23.55,3.3.76,1.13.22,2.26.33,3.33.57,1.11.25,2.25.33,3.42.56,1.09.21,2.17.56,3.38.71,1.09.13,2.22.31,3.45.35ZM88.39,23.19c-.38-.18.23-.57.44-.21-.03.13-.33.27-.44.21ZM118.18,25.5c.29.05.29-.29.17-.35-.06.03,0,.21-.06.24,0,0,0-.13,0-.12-.04.05-.22.22-.12.24ZM93.02,36.46c.2-.09.18-.54-.03-.65-.13-.07-.33.12-.51.05.23.23.2.75.55.6ZM102.66,17.6c.38-.04.77-.09,1.16-.15-.04-.24-.36-.59-.39-.93,0-.09.08-.25.07-.32,0-.08-.04-.19-.06-.29-.37.07-.72.13-1.08.18,0,.02-.01.04-.01.06.01.26.58.45.6.63.02.36-.65.28-.29.82ZM64.63,35.63c.18-.05.37-.1.56-.15-.16-.04-.19-.14-.32-.11-.13.03-.2.14-.24.26ZM120.54,10.98c.55-.34,1.09-.67,1.62-1-.13.01-.25-.05-.31-.21-.06-.15.25-.81.48-1.33-.41.27-.82.54-1.23.8-.07.14-.2.26-.39.29-.66.42-1.41.76-2.11,1.16-.02.9-.95.84-.97,1.42-.01.18.23.58.4.74.94-.5,1.67-1.36,2.51-1.88ZM121.61,9.56c.08.02.17-.01.17-.01-.27.76-1.06-.29-.17.01ZM69.13,34.56s-.02-.02-.03-.02c-.02,0-.03.02-.04.04.02,0,.05-.01.07-.01ZM123.06,16.46c.05,0,.11.16.16.16.44-.28.93-.48,1.37-.76.96-.61,1.93-1.28,2.95-1.89-.31-.3.04-.33-.31-.6-.26-.21-.51-.14-.76-.35-.66.4-1.33.81-1.95,1.21,0,.26-.1.38-.32.54-.3.21-.6.54-1.01.58-.38.25-.72.43-1.1.67-.1.33.1.78.26,1.19.09-.06.18-.12.26-.18.12-.19.25-.52.46-.56ZM122.16,9.98c.2-.02.44-.19.68-.43-.22.14-.45.28-.68.43ZM68.65,33.57s0-.08-.02-.12c-.16.02-.33.04-.5.06-.05.12-.1.24-.05.3.07.08.55.14.57-.24ZM67.27,33.64c-.33.06-.64.12-.96.18-.06.15.07.41-.1.56-.19.16-.6.12-.79.23-.44.27-.28.53-.12.83.09-.02.18-.05.28-.08.04-.05.08-.09.14-.11.09-.03.17-.03.26-.01.48-.14.98-.28,1.51-.37.33-.06.66-.12.97-.18-.03-.03-.06-.05-.1-.06-.2-.04-.39.19-.4-.28,0-.09.16-.39.13-.46-.08-.18-.18.03-.37-.1-.13-.09-.1-.15-.11-.2-.12.02-.23.03-.34.05ZM123.59,8.97c.08-.34.55-.42.69-.71.1-.02.24-.07.27,0-.05.18-.27.42-.3.62.71-.45,1.35-1.04,2.1-1.48.31-.19.52-.56.33-.88-.19-.32-.62-.32-.94-.13-.79.47-1.34.97-2.09,1.45.18.32-.29,1.18-.81,1.71.1-.06.19-.12.29-.19.2-.13.26-.26.46-.39ZM122.39,17.34s-.04-.1-.06-.14c-.05.04-.1.07-.16.1.06.02.13.03.21.04ZM120.7,18.32c.52-.3,1-.68,1.48-1.02-.47-.12-.55-.4-.86-.35-.58.08-.82.8-.63,1.37ZM121.74,2.96c1.03-.66,2.21-1.15,3.31-1.8.32-.19.32-.62.13-.94-.18-.32-.4-.24-.72-.06-1.12.67-2.27,1.21-3.3,1.88-.36.23-.77.37-1.12.6-.21.47-.37.99-.36,1.21.01.22.09.32.2.44.66-.41,1.23-.92,1.87-1.34ZM127.5,12.68c.14.18.22.25.53.28-.14-.22-.29-.3-.53-.28ZM117.2,5.75c.09-.05.3.09.39.04.13-.35-.18-1.09-.57-.63-.18.2-.02.36.14.45.09.05-.02.14.04.15ZM128.52,19.22c-1.02.61-2.12,1.04-3.07,1.66.13.1.33.36.25.54-.11.27-.59.37-.71.13-.97.62-1.96,1.07-2.97,1.67-.95.57-2,1.04-3.08,1.57.13.31.24.6.18.75-.12.32-1.37.38-.96,1.01-.65.23-.58-.55-1-.61-.6-.08-.96.6-1.4.57-.15,0-.34-.26-.49-.39-.89.33-1.75,1.02-2.77,1.31-.91.26-1.9.49-2.93.73-.92.21-1.89.52-2.94.7-.87.15-1.74.13-2.58.13.07.05.07.19-.21.29-.01-.17.03-.25.09-.29-.16,0-.31,0-.46,0-.03.33-.07.83-.51.72-.32-.09-.19-.42-.11-.68-.11,0-.22,0-.33.02-.64.07-1.26.2-1.87.33-.1.11-.26.51-.33.52-.18.02-.15-.28-.38-.37-.01,0-.03,0-.04,0-.48.09-.96.17-1.43.17-1.4.03-2.75-.3-4.08-.41-.37-.03-.62.32-.65.69-.03.37.15.75.52.78.9.08,1.81-.09,2.74-.13-.06-.02-.12-.1-.11-.13.01-.14.25,0,.19.09-.01.02-.03.03-.05.03.13,0,.26-.02.39-.02,1.03,0,2.08.4,3.16.33,1.01-.07,2.03-.49,3.11-.63,1.01-.13,2.03-.29,3.11-.48,1.24-.22,2.45-.2,3.54-.45,1.23-.29,2.37-.64,3.43-.97,1.22-.38,2.25-.99,3.28-1.41,1.17-.48,2.37-.73,3.36-1.24,0-.11-.08-.47.16-.63.14-.09.36-.2.58-.18.84-.46,1.66-.8,2.43-1.27.8-.49,1.51-1.06,2.28-1.55,1.02-.66,2.08-1.34,3.18-2,.32-.19.4-.43.21-.74-.19-.32-.42-.34-.74-.15ZM96.58,30.41c-.15.43-.95.07-.44-.22.26-.15.49.06.44.22ZM106.66,29.35c-.02-.21.08-.34.32-.37.1.25-.19.39-.32.37ZM107.25,28.76c.06-.05.32-.02.33.11.02.3-.56.1-.33-.11ZM7.31,49.88c-.1.76-.18.75-.08,1.52.05-.03.16-.13.22-.15.46-.1.69.16.98.48.05-1.04.27-1.04-.04-2.03-.39.14-.71.09-1.08.18ZM7.95,52.99c.23.68.86,1.17.35,2.12-.24-.02-.34.02-.55.03.1,2.09.33,2.06.59,4.14.12.14.03.2.33.21.34.01.42-.33.69-.16-.39.54-.3,1.41.24,1.77.07-2.01-.24-2-.44-4.01-.2-2-.08-2.01-.3-4.02-.02.04-.09.03-.13.07-.31-.09-.26-.32-.78-.16ZM9.08,62.68c-.13-.29.35-.5.14-.74-.08-.1-.39-.09-.63-.12.19,2.1.05,2.2.28,4.45.04.37.28.66.65.63.37-.04.62-.38.58-.75-.15-1.52-.07-1.53-.34-3.03-.26-.12-.6-.23-.69-.43ZM34.9,24.38c-.41.09-.44.19-.72-.05-.29-.24-.3-.23-.49-.56-.21-.36-.1-.33-.14.09-.04.41.04.59-.28.8-.32.2-.42,0-.79.07-.41.09-.42.3-.04.46.38.17.64-.06.73.31.09.37-.14.38-.18.76-.04.41.25.55.53.24.28-.31.07-.39.44-.37.38.02.42-.22.77-.07.38.17.35.22.14-.14-.22-.36-.63-.45-.49-.81.14-.35.6-.08.85-.36.28-.31.08-.44-.32-.35ZM70.29,40.7c.12.07.07.41.26.5.58-.1,1.14-.2,1.69-.26,1.19-.15,2.31-.27,3.36-.33,1.2-.06,2.32-.3,3.38-.27,1.19.04,2.29.42,3.35.55,1.16.13,2.27.21,3.34.42,1.12.22,2.23.35,3.33.59.79.18.7.54,1.49.71.36.08.57-.43.65-.79.08-.37.01-.51-.35-.59-.78-.17-.7-.52-1.48-.69-1.11-.25-2.31-.11-3.47-.33-1.08-.21-2.19-.41-3.4-.55-1.08-.13-2.2-.64-3.42-.67-1.08-.04-2.24.13-3.47.2-1.08.06-2.2.43-3.42.58-1.08.13-2.27-.06-3.48.15-.42.07-.81.2-1.2.34,0,.02.01.05.03.09.1.16.57-.03.49.3-.05.22-.75.14-.9-.14-.03-.04-.03-.08-.02-.11-.59.22-1.16.45-1.72.59-1.2.28-2.39.27-3.43.59-1.18.36-2.14,1.05-3.15,1.45-1.14.45-2.29.69-3.26,1.18-1.08.55-2.04,1.18-2.99,1.75-.57.35-1.1.73-1.62,1.12.34.19.14.63.05.96-.24-.17-.5-.31-.76-.45-.17.12-.34.24-.51.35-.94.61-1.9,1.2-2.87,1.79-.93.57-2.08.8-3.12,1.33-.95.48-1.84,1.22-2.95,1.66-.98.39-2.16.42-3.3.77-1.01.31-2.02.83-3.19,1.1-1.03.24-2.16.32-3.33.53-1.16.2-2.24.5-3.27.62-1.18.15-2.29.12-3.32.17-1.19.07-2.28-.02-3.32-.04-1.18-.03-2.29.24-3.34.12-1.15-.13-2.23-.39-3.28-.6-1.1-.21-2.2-.46-3.29-.71-1-2.34-.99-2.43-1.18-4.96.78.17,1.63.51,2.45.67-.01-.09.11-.36.12-.52.01-.19.33-.92.3-1.09-1.04-.21-2.11-.27-3.14-.51-.08-.03.07-.18,0-.22-.22.01-.47.08-.62.29-.23.29.05.9-.36,1.18-.04.03.03.07,0,.09.33,1.5.23,1.52.57,3.02.34,1.5.59,1.43.96,2.93.06.08.11.19.08.3.37,1.67.02,1.75.41,3.42.38,1.67.57,1.63.96,3.3.38,1.67.14,1.73.53,3.4.08.36.56.32.92.24.36-.09.77-.25.69-.61-.36-1.56-1.15-1.51-.97-3.1,1.05.23,2.24.43,3.35.62,1.03.18,2.11.34,3.26.46,1.03.1,2.12.21,3.28.22,1.04.02,2.12-.07,3.29-.14,1.03-.06,2.13-.12,3.28-.26,1.03-.13,2.09-.41,3.24-.62,1.21-.21,2.4-.12,3.46-.37,1.2-.28,2.32-.6,3.35-.91,1.18-.36,2.19-.97,3.19-1.37,1.14-.46,2.26-.78,3.23-1.27,1.08-.55,2.16-1,3.1-1.57,1.02-.61,1.74-1.61,2.7-2.22.94-.61,1.88-1.23,2.85-1.81.21-.13.43-.25.65-.37-.07-.19-.38-.15-.55.09-.21-.43.36-.89.61-.69.11.09-.03.35.05.47.01.02.03.02.05.04.49-.26,1.01-.5,1.53-.75-.08-.25.24-.42.24-.55.01-.27-.34-.38-.08-.64.05-.05.15.03.26,0,.15-.05.15-.25.29-.32.22-.1.41.09.8.07.24-.02.45-.24.65-.26.09,0,.2.18.39.19.19.01.26-.1.34-.06.01,0,.02.02.04.03.25-.12.5-.24.77-.34.98-.39,2.19-.34,3.34-.7.63-.19,1.29-.36,1.98-.52.04-.06.09-.08.19-.05.36-.09.71-.17,1.09-.26,1.03-.24,2.07-.73,3.25-.94.41-.07.8-.15,1.19-.24-.11-.02-.22-.08-.26-.16-.07-.14.1-.33.08-.5-.03-.28-.31-.22-.16-.42-.35.05-.69.1-1.06.16-.53.09-1.03.21-1.52.34,0,.04-.02.07-.03.09-.07.07-.62.29-.69.26-.01,0-.05-.07-.08-.14-.17.04-.34.09-.51.13-.02,0-.03.01-.04.01-.16.04-.32.08-.47.12-1.2.28-2.41.2-3.45.51-1.18.36-2.14,1.1-3.14,1.5-.22.09-.44.16-.66.24-.05.19-.19.34-.24.34-.09,0-.11-.1-.2-.2-.76.24-1.51.45-2.17.79-.41.21-.8.44-1.18.68.17.11.31.22.07.26-.12.02-.16-.08-.21-.17-.56.36-1.09.72-1.63,1.05-1.01.61-2.05,1.1-3,1.72-.95.61-1.73,1.46-2.7,2.05-.93.56-2.11.75-3.15,1.28-.95.48-1.83,1.24-2.94,1.68-.98.39-2.04.77-3.2,1.12-1,.31-2.16.34-3.33.61-1.03.24-2.12.49-3.3.7-1.16.21-2.21.6-3.24.72-1.17.14-2.29-.04-3.32.02-1.18.07-2.27.37-3.31.34-.74-.01-1.45-.03-2.14-.07.13.16.1.43-.44.56-.08.02-.14.08-.14.08-.03-.36.04-.57.14-.68-.25-.02-.51-.03-.75-.05-1.15-.13-2.21-.44-3.26-.64-1.1-.21-2.27-.42-3.35-.66-.53-.72-.21-.93-.43-1.81-.01,0,0,.03,0,.04-.04-.11-.15-.21-.13-.29-.32-1.47-.9-1.52-.69-3.01,1.05.24,2.36.42,3.49.62,1.04.19,2.12.33,3.28.45,1.04.11,2.12.42,3.29.44,1.04.02,2.15.04,3.33-.03,1.03-.06,2.14-.17,3.31-.31,1.04-.13,2.06-.71,3.21-.91,1.2-.22,2.39-.16,3.45-.41,1.2-.28,2.26-.77,3.29-1.09,1.18-.36,2.22-.83,3.22-1.23,1.14-.46,2.32-.63,3.29-1.12,1.08-.54,2.07-1.13,3.02-1.71,1.01-.61,1.85-1.44,2.8-2.05.95-.61,1.9-1.2,2.87-1.79.93-.56,1.97-1.02,3.01-1.55.95-.49,2.04-.77,3.15-1.21.79-.32,1.57-.78,2.45-1.13,0-.06.01-.11,0-.12-.12-.19-.64-.05-.7-.44-.04-.25.28-.38.5-.58.07-.06.1-.19.14-.2.06-.02.35-.14.33.12-.01.16-.36.09-.34.28.15.29.32-.15.45-.17.45-.06.14.54.24.88,0,0,.01,0,.02,0,1.01-.31,2.12-.5,3.29-.78.03,0,.06,0,.09-.02,0-.02,0-.04,0-.06.04,0,.11.01.17.03.68-.14,1.4-.23,2.14-.34.07-.02.14-.04.19-.07,0,.02,0,.03,0,.04.24-.03.48-.07.73-.11.48-.09.94-.17,1.4-.25-.02-.02-.04-.04-.05-.06-.18-.21-.51-.24-.38-.41.07-.09.32-.14.42-.08ZM72.1,40.32c-.13-.7.58-.21,0,0h0ZM52.52,46.79c0,.46-.56.07,0,0h0ZM55.03,45.71c-.34.26-.83-.34-.32-.56.36-.16.57.36.32.56ZM64.92,41.75c-.08.37-.36-.11,0,0h0ZM8.42,47.85c-.66.08-1.06-.13-1.48-.26-.26.09.04.17.17.43.2-.09.27,0,.49,0,.41.01.38.24.78.07-.02-.21.13.02.04-.24ZM8.38,61.75c.05.03.13.05.22.07,0-.08-.01-.14-.02-.22.03.02-.23.13-.2.16ZM19.8,62.52c.14,0,.29.02.44.03-.1-.12-.3-.17-.44-.03ZM8.01,33.74c.38.17.46.11.56.48.09.36.11.36.07.74-.04.41-.12.32.16,0,.28-.31.33-.5.7-.48.37.02.33.26.68.4.38.17.52,0,.31-.35-.21-.36-.55-.32-.41-.68.14-.35.33-.23.59-.51.27-.31.12-.59-.29-.5-.41.09-.28.28-.57.04-.3-.24-.47-.07-.66-.39-.21-.36-.15-.38-.19.03-.04.42.24.74-.08.94-.32.21-.53-.28-.9-.2-.41.08-.33.31.05.48ZM14.66,50.56s.04.01.05.01c-.02-.02-.05-.04-.08-.05,0,.02,0,.04.03.04ZM14.9,50.71c-.05-.09-.12-.13-.19-.14.06.05.11.13.19.14ZM14.62,50.52s0,0,.01,0c0-.03,0-.05-.01,0ZM9.44,27.37c.28-.31.08-.44-.33-.35-.41.09-.43.18-.73-.06-.29-.24-.3-.23-.49-.56-.21-.36-.1-.33-.14.08-.04.41.03.59-.29.8-.32.21-.42,0-.79.08-.41.08-.42.29-.04.46.38.17.64-.06.73.3.1.36-.14.38-.18.75-.04.42.25.55.53.24.28-.31.06-.4.44-.37.37.02.42-.23.77-.07.38.17.34.22.14-.14-.21-.36-.63-.45-.49-.81.14-.35.6-.08.85-.36ZM12.01,42.74c.2.47-.6.61-.62,1.08,0,.03-.22-.03-.22,0,.76.15,1.51.38,2.32.5.02-.06-.12-.13-.12-.18-.01-.37.06-.95.14-1.24-.51-.08-1-.06-1.5-.16ZM9.7,40.97c-.04.42.19.41.47.1.28-.31.24-.4.62-.38.37.02.38.01.72.17.38.17.27.21.06-.15-.21-.36-.38-.46-.24-.81.13-.35.34-.24.59-.52.28-.31.16-.49-.24-.4-.41.09-.48.43-.77.18-.29-.23-.11-.39-.3-.71-.21-.36-.53-.29-.57.12-.04.42.18.36-.14.56-.32.2-.21.43-.58.51-.41.08-.41.02-.03.19.38.17.77,0,.87.36.1.36-.43.42-.47.79ZM57.25,51.24c.11.12.17.31.23.45.15-.08.29-.16.44-.24-.02-.11-.07-.22-.15-.26-.13-.07-.33.12-.51.05ZM93.92,49.04s.06.02.1.02c-.03,0-.07-.02-.1-.02ZM111.79,35.37c1.29-.31,2.55-.35,3.66-.71,1.27-.41,2.39-.95,3.45-1.4-.19,0-.4.13-.57.09-.33-.08-.46-.8-.7-.84-.58-.11-1.25.78-1.82.71-.18.06-.25.04-.43.11,0,.1-.22-.04-.21.05-.3.18-.38.42-.57.27-.44.14-.85.22-1.27.31.12,0,.24.06.32.19.28.41-1.02.33-.5-.12.03-.03.06-.04.09-.05-.29.06-.58.12-.92.21.71.1-.5,1.3-.83.43-.08-.19-.24-.29-.14-.38-1.07.25-2.16.76-3.38.98-1.05.18-2.1-.02-3.04.1-1.06.14-2.02.61-2.98.68-.82.06-1.62-.09-2.37-.16,0,.03,0,.06-.03.11-.03.06-.23-.02-.24-.13-.14,0-.28-.03-.42-.03.03.25.11.79-.11.93-.53.33-1.24-.42-1.21-.9-.49-.02-.95-.03-1.42-.05.04.03.08.06.1.12.04.14-.16.24-.14.42.04.32.83.51.35.74.44.05.89.09,1.36.1,1.08.03,2.24.16,3.47.09,1.08-.05,2.23-.21,3.45-.36,1.08-.13,2.22-.33,3.43-.54,1.3-.23,2.46-.7,3.59-.97ZM99.46,36.26s.04-.12.06-.14c.23-.22.06.35-.06.14ZM106.86,36.23c-.11.12-.61-.14-.28-.34.19-.12.43.18.28.34ZM107.86,48.22s-.01,0-.02.01c.01.02.02.01.02-.01ZM105.73,41.84s.06,0,.08.01c0,0-.01-.01-.01-.02-.02,0-.05,0-.07,0ZM133.6,38.36c-.19-.32-.69-.28-1.01-.09-1.12.67-2.09,1.51-3.12,2.17-.94.61-1.97,1.08-2.95,1.67-.93.57-1.95,1.04-3,1.57-.95.48-1.95.97-3.06,1.42-.98.39-2.03.8-3.18,1.15-1,.31-2.11.5-3.28.78-1.03.24-2.13.45-3.31.66-.65.11-1.34.06-1.94.15,0,.14.2.4.24.47.32.54,1,.33,1.25.79.26-.04.39-.21.66-.26,1.13-.2,2.26-.02,3.26-.25,1.12-.26,2.06-.9,3.03-1.2.04-.03.19.2.24.17.08-.04.1-.18.18-.16.92-.28,1.8-.49,2.62-.76-.02-.3-.09-1.57.54-1.23-.06.47-.17.94-.48,1.21.22-.07.43-.14.64-.23,1.15-.46,2.07-1.19,3.04-1.68,1.09-.55,2.29-.75,3.24-1.32,1.01-.61,1.81-1.51,2.77-2.12,1.02-.66,2.08-1.35,3.18-2,.32-.19.61-.58.42-.89ZM120.25,46.67s.04-.04.06-.06c-.02,0-.04.01-.06.02,0,.01,0,.03,0,.04ZM107.86,48.22c.06-.02.12-.07.18-.11-.05,0-.12-.02-.15,0-.04,0-.03.07-.03.1ZM57.82,9.68c-.54-.09-.27.43-.42.69.43-.08.86-.16,1.3-.26,1.04-.24,2.16-.36,3.33-.57.99-.18,1.98-.14,2.91-.27,1-.13,1.94-.61,2.87-.68.37-.03.89-.2.86-.57-.03-.37-.57-.47-.93-.45-.96.07-1.96.03-2.99.17-.96.13-1.93.39-2.94.58-1.21.21-2.32.48-3.37.73-.72.17-1.42.29-2.09.43.11.05.25.05.43.05.36,0,.89-.02,1.04.16ZM102.45,48.61c.33.47.12,1.32.56,1.37.02,0,.04-.15.05-.15.07,0,.04-.17.13-.19.42-.14.51-.67.16-1-.37.01-.54-.04-.9-.03ZM99,48.99c-.19.01-.31-.28-.38-.42-1.43-.12-2.74-.41-4.02-.64-1.35-.25-2.66-.52-3.98-.82-1.11-.25-2.23-.47-3.4-.69-1.09-.21-2.2-.5-3.4-.64-1.08-.12-2.23-.23-3.46-.27-1.08-.03-2.25-.19-3.48-.12-1.08.06-2.19.54-3.42.69-.63.08-1.29.16-1.95.26.15.08.29.26.31.47.02.14-.18.58-.19.63.67-.14,1.31-.27,1.94-.35,1.19-.15,2.34.07,3.39.01,1.21-.07,2.32-.32,3.37-.29,1.19.04,2.32.08,3.38.21,1.16.14,2.29.23,3.36.44,1.11.22,2.21.47,3.31.71,1.16.27,2.31.63,3.54.87,0,0,0,0,0,0-.34-1.4,1.77-.47,1.94.48,1.55.23,3.22.35,5.08.38.08-.4.45-.64.49-.88.02-.16.14-.42.08-.55-.78,0-1.53.17-2.24.13.06.11.02.37-.26.38ZM99.45,49.26c-.08.1-.41-.03-.21-.18.09-.07.33.03.21.18ZM101.77,42.94c.03.16.16.26.33.33,0-.13-.15-.24-.33-.33ZM104.48,43.16c1,.04.13-.8,0,0h0ZM105.11,42.78c.12-.02.23-.04.19-.17-.14,0-.16.09-.19.17ZM102.26,43.22c.17.03.34-.22.31-.45-.19-.04-.4.18-.31.45ZM102.5,42.12c.01.05.02.11.06.17.05-.05.09-.12.11-.19-.02,0-.04,0-.06,0-.04,0-.07,0-.11.02ZM107.03,41.7c-.21.02-.42.05-.63.07.07.18.19.27.28.27.19,0,.21-.24.35-.34ZM53.21,10.54c-.1.05-.19.09-.28.14,0,0,0,0,.01,0,.08,0,.18-.06.27-.14ZM54.25,10.26c.3-.08.59.29.75.25.24-.05.29-.53.3-.5-.11-.23-.36-.05-.57-.11-.29.1-.58.21-.85.33-.15.13-.26.32-.12.42.19.13.23-.33.49-.4ZM55.46,16.58s0,0-.01,0c-.01,0-.03.01-.05.03-.12.11-.08.3.06.29.11,0,.12-.34,0-.33ZM52.49,10.88c-.07.03-.14.06-.22.09,0,.03.01.06.04.09.12.02.15-.07.18-.18ZM14.74,43.32c-.08,0-.17,0-.25-.02.06.04.16.03.25.02ZM48.08,12.82c.11.22-.14.29.08.42.16.1.49-.08.58-.15-.05-.24-.25-.1-.27-.3-.01-.1.25-.41.36-.42.43-.02.29.59.34.9.12.04.23-.65.44-.43.24.24-.19.39-.2.56,0,.07.04.15.09.24.36-.18.74-.36,1.12-.54-.03-.03-.05-.06-.06-.09-.04-.12.03-.37-.02-.57-.04-.16-.18-.25-.15-.32.25-.45.9.81,1.1.28.04-.1-.17-.3-.18-.49,0-.21.14-.16.1-.41-.07-.05-.16-.06-.25-.1-.38.13-.76.24-1.12.34.01.14.03.27.13.38-.31.05-.17.4-.44.47-.09-.14-.11-.47-.18-.7-.34.11-.67.23-.97.39-.24.12-.47.24-.7.37.08.04.14.09.18.17ZM53.08,12.01c.07-.04.14-.08.21-.12-.11.01-.18.06-.21.12ZM53.32,11.86c.64-.38,1.3-.82,2.07-1.05.18-.05.37-.1.55-.14-.13-.11-.27-.18-.42-.16-.09,0-.18.21-.39.25-.08.02-.24-.05-.27-.04-.24.1-.21.31-.37.33-.23.03-.43-.35-.62-.28-.11.04-.17.44-.3.49-.11.05-.29-.08-.41-.05-.33.08-.36.45-.26.7.15-.08.32-.39.42-.05ZM64.27,35.22c.11-.05.23-.09.17-.25-.15.02-.21.1-.17.25ZM63.87,34.32c-.2.05-.4.08-.59.13-.11.17-.21.35-.34.45-.11.09-.26.1-.4.21-.08.07-.08.24-.21.26-.17.03-.43-.18-.45-.31-.02-.18.15-.25.25-.38-.58.11-1.13.23-1.65.39-1.18.36-2.13,1.11-3.14,1.52-1.14.46-2.18.9-3.15,1.4-.21.11-.41.22-.61.33.01.02.03.03.05.05-.02.13-.33.27-.44.22-.01,0-.01-.01-.02-.02-.67.4-1.3.81-1.93,1.19-1.02.61-2.19.89-3.14,1.51-.95.61-1.68,1.53-2.65,2.12-.94.56-2.04.88-3.09,1.41-.95.49-1.9,1.09-3.01,1.53-.98.39-2.08.62-3.24.98-1.01.31-2.02.88-3.19,1.15-1.03.24-2.22.05-3.4.26-1.24.22-2.36.71-3.46.84-1.26.15-2.44.25-3.54.3-1.27.06-2.44-.21-3.55-.26-1.26-.05-2.46-.13-3.57-.29-.3.5-.57.95.61.78-.09.22-.22.72-.3.89,1.1.14,2.32-.04,3.56,0,1.1.04,2.26-.05,3.51-.11,1.1-.06,2.27-.02,3.51-.18,1.1-.13,2.24-.39,3.47-.6,1.21-.21,2.33-.44,3.39-.69,1.2-.28,2.31-.55,3.34-.87,1.18-.36,2.22-.84,3.22-1.25,1.15-.45,2.16-.93,3.14-1.43,1.08-.55,2.13-.98,3.08-1.55,1.02-.61,1.96-1.24,2.92-1.86.3-.19.61-.36.92-.53-.05-.2.02-.5.17-.54.21-.07.27.13.24.34.56-.27,1.12-.54,1.66-.86.93-.57,1.91-1.08,2.95-1.6.95-.48,1.95-.94,3.06-1.39.71-.28,1.39-.77,2.15-1.14,0-.13-.01-.25-.04-.32-.12-.34-.35-.41-.06-.78-.07.08.2-.36.36-.2.16.16-.14.41-.08.49.2.29.22-.19.3-.27.03-.04.15-.06.24-.13.2-.16.39-.55.55-.58.56-.12.54.54.27,1,.15.08.38-.41.63-.12.09.11.04.2-.04.29.59-.09,1.19-.16,1.81-.28.02-.02.05-.05.05-.09.08-.48-.77-.18-1.01-.25.01-.23.15-.1.27-.18.25-.19.37-.62.6-.77.18-.12.33-.02.45-.17.03-.03.03-.07.02-.12-.14.03-.29.06-.43.09ZM58.38,29.16c-.42.18-.81.37-1.2.56.06,0,.13.01.24.04-.11.21-.33.34-.17.73-.29.14-.57-.23-.6-.41,0-.04,0-.08.01-.11-.23.11-.45.21-.68.3-.44.18-.86.36-1.27.54.06.08.1.15.06.23-.12.25-.34.11-.58,0-.27.13-.54.26-.81.38.05.06.09.15.18.18.37.15.89,0,.98.12.02.03.02.06.02.1.09-.04.18-.08.27-.12-.02-.02-.03-.05-.04-.08.09-.03.15-.03.2,0,.43-.18.86-.37,1.32-.55.44-.18.93-.28,1.44-.37.07-.09.11-.08.14-.03.36-.07.73-.14,1.1-.22.04-.15.24-.32.3-.34.22-.07.3.04.31.19,0,0,.01,0,.02,0,.19-.06.37-.13.56-.2-.22-.02-.43-.03-.52-.14-.2-.24.04-.53-.09-.73-.07-.1-.48-.22-.7-.22-.15,0-.34.12-.48.11ZM57.79,30.3c.03-.14.24-.04.23.04,0,.08-.25.07-.23-.04ZM59.34,23.36c-.03-.31.19-1.17.58-1.12.03,0,.27.16.24.35,0,.05-.22.09-.31.19-.11.11-.26.33-.37.56.62-.21,1.27-.42,1.96-.58,1.03-.24,2.19-.14,3.37-.35,1.29-.23,2.52-.42,3.71-.56,1.3-.15,2.52-.48,3.73-.53.37-.01.75-.25.74-.61-.01-.37-.42-.88-.79-.87-1.24.04-2.48.59-3.81.73-1.23.14-2.48.33-3.81.57-1.21.21-2.36.31-3.41.55,0,0,0,0,0,0,.09.13.13.26-.1.33-.22.06-.17-.17-.26-.22,0,0,0,0-.01,0-.49.13-.96.28-1.42.44.02.08.03.16.02.21-.05.33-.4.41-.67.61.33-.08.28.38.62.28ZM62.93,28.55c.17-.19-.06-.4-.2-.52-.07.02-.13.04-.2.05-.17.04-.34.08-.51.11,0,.12-.11.16-.06.32.26-.23.84.17.97.04ZM60.38,36.43s.02.04.04.07c.15-.06.3-.12.45-.16.03,0,.07-.01.1-.02.02-.16,0-.3-.12-.36-.15-.08-.46.3-.48.49ZM61.89,28.22c-.17.04-.34.08-.5.11.03.01.05.03.07.05.25.41.29.05.43-.16ZM31.13,36.68c.28-.31.12-.59-.29-.5-.41.09-.28.28-.58.04-.29-.24-.47-.06-.66-.4-.21-.36-.15-.38-.19.03-.04.42.24.74-.08.94-.32.2-.53-.29-.9-.21-.41.09-.33.31.05.48.38.17.46.11.56.47.1.37.11.36.07.74-.04.41-.12.32.16.01.28-.32.32-.5.7-.48.38.02.33.25.68.4.38.17.52,0,.31-.35-.21-.36-.55-.33-.41-.68.14-.35.34-.23.59-.51ZM14.74,43.32c.08,0,.16,0,.24,0,0,0,0,0,0,0-.02-.04-.13-.02-.24,0ZM22.49,27.54c-.41.09-.43.18-.73-.06-.29-.24-.3-.23-.49-.56-.21-.36-.1-.33-.14.09-.05.41.03.59-.28.8-.32.2-.42,0-.79.07-.41.09-.42.3-.04.47.38.17.64-.06.73.3.09.37-.14.39-.17.76-.04.41.25.55.53.24.28-.31.07-.39.44-.37.38.02.42-.22.77-.07.38.17.34.22.14-.14-.21-.36-.62-.45-.49-.8.14-.35.6-.08.85-.37.28-.31.08-.44-.33-.35ZM16.17,29.98c-.41.09-.44.18-.73-.06-.29-.24-.3-.24-.49-.56-.21-.36-.09-.33-.13.09-.05.41.03.59-.28.8-.32.2-.42,0-.79.07-.41.09-.42.3-.04.47.38.17.64-.06.73.3.1.37-.14.39-.17.76-.04.41.25.55.53.24.27-.31.06-.39.44-.38.37.03.42-.22.77-.07.38.17.34.22.14-.14-.21-.36-.63-.45-.49-.8.13-.35.6-.08.85-.36.28-.31.08-.44-.33-.35ZM25.33,39.91c.28-.31.12-.59-.29-.5-.41.09-.29.28-.57.04-.3-.24-.47-.06-.66-.39-.21-.36-.15-.38-.19.04-.04.41.24.74-.08.94-.32.2-.53-.28-.9-.21-.41.09-.33.31.06.48.38.17.46.11.56.47.09.37.11.36.07.74-.04.41-.12.33.16.01.28-.3.32-.5.69-.48.38.02.33.25.68.41.38.17.52,0,.31-.36-.21-.36-.55-.32-.41-.68.13-.35.33-.23.59-.51ZM36.15,30.21c-.4.08-.28.28-.57.04-.29-.24-.47-.07-.66-.39-.21-.37-.16-.38-.2.03-.04.41.24.74-.08.94-.32.2-.53-.28-.9-.21-.41.09-.33.31.06.47.38.17.46.11.55.47.09.37.11.37.07.74-.04.42-.12.32.17.01.27-.31.32-.5.69-.48s.34.25.68.41c.38.17.51,0,.3-.36-.21-.36-.55-.33-.41-.67.13-.35.34-.23.59-.51.28-.31.12-.59-.29-.5ZM37.74,36.76c.28-.31.12-.59-.29-.5-.41.09-.28.28-.57.04-.3-.24-.48-.06-.66-.39-.21-.36-.15-.38-.19.03-.04.41.24.74-.08.94-.32.2-.54-.28-.9-.2-.41.09-.33.31.05.47.38.17.46.11.56.47.09.37.1.37.07.75-.05.41-.12.32.16.01.28-.31.32-.5.7-.48.38.02.33.25.68.41.38.17.51,0,.31-.36-.21-.36-.55-.32-.41-.68.13-.35.33-.22.59-.51ZM29.27,28.87c-.41.09-.43.18-.72-.05-.29-.24-.3-.23-.49-.56-.21-.36-.1-.33-.14.08-.04.42.04.59-.28.8-.32.2-.42,0-.79.07-.41.09-.42.3-.04.47.38.17.64-.06.73.31.1.37-.14.38-.17.75-.05.42.25.55.53.24.28-.31.06-.39.44-.37.37.02.42-.22.76-.07.39.17.35.22.14-.14-.21-.36-.62-.45-.49-.8.14-.35.6-.08.85-.37.28-.31.09-.44-.32-.36ZM23.74,33.36c-.41.09-.29.28-.58.04-.29-.24-.47-.07-.66-.39-.21-.36-.15-.38-.19.03-.04.42.24.74-.08.94-.32.2-.53-.29-.9-.21-.41.09-.33.31.06.48.38.17.46.1.56.47.1.37.11.37.07.74-.04.42-.12.32.16.01.28-.31.32-.5.69-.48.38.03.34.26.68.41.38.17.52,0,.31-.36-.21-.36-.55-.32-.41-.68.14-.35.33-.23.59-.51.28-.31.12-.59-.29-.51ZM11,42.54s-.02.06-.02.1c.07.01.13.03.2.04-.03.02-.14-.18-.17-.15ZM3.39,27.51c.22,2,.29,2.01.74,3.96.45,1.96.81,1.88,1.28,3.83.07.1.1.24.1.33,0,.02.08,0,.07.02.39,1.75.03,1.83.41,3.58-.03.09.32.13.33.23.2,1.98-.22,2.04.12,4,.2-.5.5-1.11.62-1.17,1.54-.75.22,2.02-.5,2.23-.24,1.01.06,1.04.47,1.99.47-.5-.18-1.66.88-1.55-.19.74-.78,2.25.58,1.88.52-.14.26-.59.41-1.15-.13-1.05.1-1.11-.21-2.12-.06.32-.2.59-.49.72-.05-.69,0-1.12.21-1.58.1-.03.08.05.1.12-.04.16.16.25.14.42.51.11.97.13,1.48.24.33-.11.64-.1.91-.37.03-.02-.08-.31-.06-.5-.97-.2-1.98-.49-2.93-.71-.79-1.64-.52-1.77-.93-3.55-.41-1.77-.42-1.77-.83-3.55-.41-1.78-.26-1.81-.67-3.58-.41-1.78-.42-1.77-.83-3.55-.22-.95-.41-1.39-.52-1.87-.09.51-.54,1.35-.87,1.68ZM18.02,37.79c.28-.31.12-.59-.29-.51-.41.09-.28.28-.58.04-.29-.24-.47-.07-.66-.39-.21-.36-.15-.38-.19.03-.04.42.24.74-.08.94-.32.21-.53-.29-.9-.2-.41.08-.33.3.05.47.38.17.46.11.55.47.1.36.11.37.07.74-.04.41-.12.32.16.01.28-.31.32-.5.7-.48.37.02.33.25.68.41.38.16.52,0,.31-.36-.21-.36-.55-.32-.41-.67.14-.35.34-.23.59-.51ZM4.23,25.49s-.02-.01-.03-.02c.02.13.04.26.07.37.03-.15.02-.28-.04-.35ZM43.2,17.23s-.01,0-.02,0c-.05.02-.08.05-.11.08.04-.02.09-.05.13-.08ZM.86,19.43c.28.46-.16.98.03,1.49.3.17.71.27,1.13.27.75,2.41.36,2.52,1.16,4.91.35-.5.58-1.08,1.01-.63-.04-.33-.04-.72,0-1.32,1.09.25,1.99.67,3.13.89,1.07.2,2.19.38,3.38.51,1.06.12,2.21-.22,3.42-.2,1.07.03,2.19.3,3.4.24,1.07-.06,2.17-.36,3.37-.5,1.06-.13,2.16-.38,3.34-.59,1.15-.2,2.28-.1,3.29-.33,1.14-.26,2.19-.58,3.18-.88,1.12-.33,2.07-.92,3.04-1.29,1.08-.42,2.28-.78,3.21-1.22.88,1.58.3,1.84.69,3.61.4,1.77.21,1.81.61,3.58.39,1.73.65,1.72,1.03,3.37.13-.12.31.13.21.21-.05.04-.11.03-.16,0,.37,1.66.29,1.73.68,3.46.4,1.77.72,1.73.66,3.54-.94.47-1.84.87-2.93,1.3-.97.38-1.99.77-3.13,1.11-.99.3-2.01.8-3.16,1.07-1.01.24-2.16.17-3.32.37-1.2.21-2.31.5-3.37.62-1.21.15-2.34.37-3.41.42-1.22.06-2.36-.3-3.43-.34-1.03-.04-2.01.21-2.94.21.15.39-.15.98-.22,1.31,1.06.12,2.26-.19,3.47-.16,1.06.03,2.18.03,3.39-.04,1.06-.06,2.23.26,3.43.12,1.06-.13,2.17-.46,3.35-.67,1.2-.21,2.27-.71,3.33-.96,1.2-.28,2.4-.23,3.44-.55,1.18-.36,2.13-1.1,3.14-1.5,1.14-.46,2.31-.64,3.28-1.13,1.08-.55,1.92-1.39,2.87-1.97,1.01-.61,2.11-1,3.07-1.62.94-.61,1.84-1.29,2.81-1.88.93-.57,1.83-1.25,2.88-1.79.27-.14.56-.27.85-.4-.04-.07-.08-.12-.13-.15-.26-.12-1.08.16-1.33-.13-1.01.46-2.08.71-2.95,1.24-1.02.61-1.87,1.4-2.83,2.02-.78.5-1.69.79-2.48,1.29-.78.48-1.7,1.19-2.54,1.65-1.02-2.36-.67-2.55-.76-5.11.93-.49,1.61-1.09,2.45-1.6.89-.54,1.78-1.04,2.62-1.58.95-.61,1.88-1.22,2.85-1.81.25-.15.5-.29.76-.43-.1-.04-.1-.17-.04-.25.12-.18.24,0,.24.13.65-.36,1.31-.72,2.01-1.07.02-.01.05-.03.07-.04-.04-.04-.07-.08-.08-.14-.04-.13.12-.71.16-.78.09-.12.4-.16.5-.36.11-.23,0-.42.15-.6.05-.06.16-.02.29-.1.15-.09.09-.18.22-.22.17-.05.33.06.48,0,.16-.07.15-.24.24-.35,0,0,0,0,.01-.01-.96.39-1.88.78-2.72,1.2-1.08.55-1.95,1.35-2.9,1.92-1.01.61-1.9,1.34-2.86,1.96-.79.51-1.74.75-2.55,1.25-.79.48-1.6,1.12-2.45,1.58-1.02-2.35-1.08-2.48-1.17-5.04.36-.19.7-.41,1.04-.63.04-.33.11-.9.37-.79.36.13-.17.36-.25.53-.03.05-.02.12,0,.19.53-.35,1.04-.72,1.54-1.02.9-.55,1.75-1.1,2.6-1.64.95-.62,1.95-1.13,2.92-1.71.93-.57,1.92-1.11,2.96-1.64.38-.2.79-.37,1.2-.53.04-.06.08-.13.06-.26-.03-.19-.29-.56-.42-.58-.09-.02-1.45.66-1.71.71-.12.03-.24-.03-.39.03-.1.04-.22.36-.38.29-.08-.04-.14-.34.09-.46.04-.02.24-.03.25-.05.04-.05.06-.09.08-.14-.25.13-.5.25-.73.38h0s-.06.05-.1.05c-.57.3-1.11.61-1.63.93-.25.15-.48.31-.71.48.14.1.16.34-.35.47-.01-.07-.02-.13-.02-.19-.57.45-1.12.92-1.71,1.31-.06.04-.13.09-.19.13.03.06.03.12,0,.17-.05.07-.18.08-.3.03-.62.42-1.24.84-1.88,1.24-.79.49-1.74.93-2.59,1.39-1.03-2.34-1.17-2.46-1.24-5.02.96-.5,1.99-1.14,2.85-1.66.57-.35,1.18-.63,1.76-.92-.09-.1-.19-.17-.3-.17-.21,0-.43.39-.5-.12.2-.04.59.09.62-.2.02-.13-.16-.22-.11-.38.02-.07.33-.4.48-.48.38-.23.96-.14.97-.66.23-.01.14.2.27.25.16.07.3-.09.48,0,.13.06.18.29.25.51.58-.33,1.16-.66,1.75-1.01.32-.2.66-.39.99-.59,0,0,0,0,0,0-.15-.05-.38.01-.53-.03.22-.31.38-.65.41-1.09-.24.03-.1.25-.29.32-.54.19-.35-.27-.36-.55-.33.2-.65.41-.97.6-.08.05-.16.09-.24.14-.08.24-.39.54-.43.54-.12,0-.19-.06-.22-.14-.7.42-1.38.84-2.05,1.27-.92.6-1.92,1.02-2.87,1.59-.9.55-1.69,1.33-2.7,1.85-.06.02-.26-.2-.32-.16-.95.48-1.88,1.1-2.99,1.54-.98.39-1.99.91-3.14,1.26-1.01.31-2.15.4-3.32.68-1.03.23-2.11.51-3.3.72-1.18.21-2.3.23-3.35.37-1.2.14-2.29.41-3.34.47-1.2.07-2.31,0-3.37-.04-1.19-.03-2.28-.26-3.34-.39-1.17-.14-2.29-.1-3.36-.31-1.12-.22-2.2-.48-3.29-.73l-.05.21c-.08-.02-.27-.14-.35-.13-.25-.9-.55-.96-.39-1.88.81-.39,1.26-1.04,1.11-1.73-.18-.86-1.13-1.44-2.31-1.18-1.18.25-2.15,1.25-1.97,2.11,0,.01.33.04.33.05.09-.29.17-.66.5-.7ZM48.09,35.75c-.27-.45.33-.34,0,0h0ZM52.03,25.25c-.09.13-.27-.07-.3-.21.13.04.2.14.3.21ZM49.02,26.47c.18-.06.26-.11.33.12.01.04-.25.65-.27.66-.43.2-.41-.66-.06-.78ZM48.22,27.59s.26.22.11.37c-.22.24-.44-.35-.11-.37ZM46.6,28.76c.11-.08.42.06.32.29-.11.26-.63-.07-.32-.29ZM43.02,30.66c.31-.08.06.67-.16.34-.11-.17.03-.3.16-.34ZM42.55,23.96c-.11.51-.57-.11,0,0h0ZM41.7,24.3c.27-.3.61.39.21.44-.19.03-.38-.26-.21-.44ZM45.97,13.91c.08-.04.27.17.14.28-.14.12-.4-.15-.14-.28ZM45.99,15s.11-.11.16-.07c.23.16-.36.36-.16.07ZM38.13,26.55c-.21-.09,0-.36.1-.41.31-.15.12.5-.1.41ZM2.2,19.49c.64-.3.78,1.01.33,1.14-.5.14-.92-.87-.33-1.14Z"/>
    </g>
  </g>
</svg>