<?xml version="1.0" encoding="UTF-8"?>
<svg id="Layer_2" data-name="Layer 2" xmlns="http://www.w3.org/2000/svg" viewBox="0 0 152.65 53.91">
  <defs>
    <style>
      .cls-1 {
        fill: #272c49;
      }
    </style>
  </defs>
  <g id="Ebene_1" data-name="Ebene 1">
    <path class="cls-1" d="M28.32,38.35c-.13-.16-.5.08-.58.23.19.24.71-.05.58-.23ZM29.16,42c-.05-.31-.26.05,0,0h0ZM27.17,38.26c-.09,0-.23-.03-.21.1.06.04.24,0,.21-.1ZM28.07,38.94c-.08.03-.21.16-.1.23.16.09.28-.29.1-.23ZM28.19,39.67c-.1.06-.48-.33-.61-.2-.05.06-.01.36.02.39.06.05.61,0,.59-.2ZM17.91,37.2c.09-.06-.03-.32-.13-.21-.13.14.03.27.13.21ZM27.71,40.75c-.13.06-.39.32-.3.52.1.22.51.15.67-.02.03-.03.04-.44.05-.41-.08-.14-.24-.17-.42-.09ZM25.77,41.54c.11.05.22.09.4.02-.02-.17-.37-.2-.4-.02ZM18.85,37.43c-.09.04-.2.1-.11.19.17.18.35-.3.11-.19ZM25.11,39.2c.2-.06.43-.09.46-.24-.17-.04-.47.07-.46.24ZM37.4,37.22h0,0ZM22.43,39.48c-.3.2.29.19.11-.03-.04-.05-.09.02-.11.03ZM24.75,37.7c-.57.04-.03.51,0,0h0ZM44.28,37.5c.28-.05.28.21.43.1.14-.1.26-.7.25-1.11-.15.02-.3.03-.45.04-.24.34-.57.68-.76.23-.03-.06-.03-.11-.04-.16-.97.08-2,.13-3.1.15-.1.08-.2.11-.25,0-.55,0-1.12,0-1.72,0-8.58-.11-13.03-1.81-17.41-3.7-.01,0-.03-.01-.04-.02-.3-.13-.61-.26-.92-.4-1.49-.65-2.99-1.3-4.66-1.9-.12.13-.22.25-.22.24-.01-.07.54.31.47.42-.22.4-.85.23-1.23-.07,0-.04-.03-.06-.06-.05-.16-.15-.25-.32-.2-.47.12.12.43.13.49-.12.02-.07-.02-.13-.08-.18.03,0,.06-.02.1-.03-1.07-.36-2.21-.7-3.46-.99-.14.25-.49.52-.46.06,0,.09.12-.03.19-.12-.59-.13-1.21-.26-1.86-.37-.09.17-.21.29-.42.26-.28-.05.06-.1-.13-.31-.02-.02-.05-.04-.1-.06-2.15-.34-4.61-.56-7.5-.6-.54,0-.99.43-1,.97,0,.54.43.99.97,1,2.56.03,4.75.21,6.68.49,0,0,0,0,0,0-.26-.4.16-.57.22-.61,0,0-.07.01-.07.01-.06-.12,0-.09.08-.01,0,0,0,0,0,0h0s0,0,0,0c.09.08.21.21.2.21.23,0,.36-.32.6-.34,0,0,.87.31.88.35.09.28-.31.48-.34.47.4.2.43-.5.76-.37.04.01.28.53.36.79,2.99.66,5.35,1.58,7.66,2.56.02-.02.04-.04.08-.06.36-.23.39.08.42.28.08.03.15.07.22.1.3-.02.88-.03.8-.11.17.16.08.3-.1.42,4.65,2.03,9.5,4.11,19.02,4.24.06-.1.12-.22.06-.4-.03-.09-1-.82-1.2-.79-.22.03-.05.65-.28.3-.26-.41.16-.57.22-.61,0,0-.07.01-.07.01-.07-.12,0-.09.07-.01,0,0,0,0,0,0,0,0,0,0,0,0h0c.09.09.21.22.2.21.23,0,.36-.32.6-.34,0,0,.87.31.88.35.1.28-.31.48-.33.46.4.2.43-.49.76-.37.04.02.41.8.39.92,0,.12-.04.21-.08.27.77,0,1.51-.02,2.21-.05-.15-.23-.31-.5-.24-.58.12-.14.54-.02.89-.04.17,0,.33-.06.45-.07.03-.03.07-.03.12.02-.03-.02-.08-.02-.12-.02-.1.09-.06.52-.01.63.4-.03.79-.06,1.17-.09-.54-.26-.94-.85-.03-1.03ZM9.7,29.36c.1-.09.17-.22.32-.05.42.47-.84.52-.32.05ZM12.36,30.08c.37-.19.44.71.23.87-.35.25-.74-.61-.23-.87ZM12.91,30.4c.22-.15.57-.26.72-.12.76.73-1.62.76-.72.12ZM41.74,37.09c.37-.19.45.71.23.87-.35.25-.74-.61-.23-.87ZM42.29,37.41c.21-.15.57-.26.72-.12.76.73-1.62.76-.72.12ZM8.02,30.21h0,0ZM116.19,38.33s.02-.02-.03,0c-.04.02,0,.02.03,0ZM129.27,23.24s.08.05.22,0c.14-.05.16-.11.05-.11-.07,0-.14,0-.2.04-.02.02-.04.04-.06.07ZM121.78,44.54c.05.09.13.15.18.14.05-.01.18-.09.26-.21.08-.12,0-.2-.19-.16-.18.03-.31.14-.26.23ZM117.4,39.65s-.04,0-.1,0c-.05.02-.06.02,0,.02.06,0,.1-.02.1-.03ZM122.03,46.31c.08-.01.12-.06.08-.09-.03-.02-.06-.03-.1-.03-.04,0-.06.02-.09.05-.03.05.02.08.11.07ZM118.48,32.52c.5-.03.57-.13.18-.27-.35-.13-.64-.25-.72-.22-.1.03-.17.12-.23.23-.09.16.28.29.78.26ZM144.4,23.64c-.72.09-1.11.54-1.4.57-.3.03-.92-.22-1.54-.09-.62.12-1.12.32-1.16.39-.02.05-.06.09-.11.1-.06.01-.12,0-.17-.02-.08-.04-.69.02-1.39.22-1.63.47-3.09,1-4.49,1.55-.68.27-1.3.59-1.41.69-.11.1-.22.11-.21.06,0-.05,0-.09-.03-.08-.01,0-.03.01-.04.02-.41.16-.81.33-1.22.49-.67.27-1.01.66-.95.96.04.2,0,.39-.16.51-.19.14-.44.07-.63-.09-.29-.24-.83-.4-1.52-.17-1.46.49-3.03.91-4.82,1.25-.72.13-.99.53-.68.98.17.26.15.47-.49.58-.36.06-.6-.31-1.09-.11-.2.08-.29.26-.37.45-.13.3.28.45,1,.35.51-.07,1.01-.14,1.49-.22.72-.12,1.29-.32,1.3-.42,0-.1.15-.24.3-.28.09-.03.19-.02.25.07.03.04.02.09,0,.15-.03.08.5,0,1.2-.18,2.71-.7,4.95-1.6,7.14-2.48,4.77-1.93,9.27-3.75,18.48-3.63.54,0,.99-.43,1-.97,0-.54-.43-.99-.97-1-2.79-.04-5.18.11-7.28.37ZM123.31,30.83c-.24-.11.33-.26.51-.2.09.03.13.1-.05.26-.05.05-.3,0-.46-.06ZM124.09,30.39c-.22-.17-.09-.48,0-.51.09-.03.22.16.29.31.07.16.18.23.19.21t0,0s-.26.15-.48-.01ZM126.23,30.91c-.06.07-1-.21-.38-.35.12-.03.58.09.38.35ZM128.99,30.44c-.13.14-.73-.35-.27-.55.01,0,.62.17.27.55ZM144.61,24.36c-.16-.09-.09-.22,0-.31.35-.35.45.56,0,.31ZM126.06,43.49s-.1-.03-.22,0c-.11.03.03.09.15.3.06.11.05.24-.1.4-.04.04-.12.06-.22.06-.13,0-.23.04-.25.12,0,.04-.02.08-.05.13-.06.12-.58.08-.73-.16-.02-.04,0-.12.05-.2.05-.11-.02-.22-.16-.24-.14-.02-.36,0-.48.03-.13.03-.3.08-.36.16-.06.07.06.29.27.23.21-.06.12.39.46.76.35.37.68.64.74.63.06,0,.13-.1.15-.2.01-.06.02-.12,0-.19,0-.03-.29-.54-.21-.62.13-.14.74.09.74.34,0,.02-.29.25-.27.31.01.02.06.06.12.11.07.05.33.04.57-.03.24-.06.24-.13,0-.21-.21-.06-.36-.14-.38-.22-.01-.05.57-.53.85-.94.4-.58-.66-.54-.67-.57ZM122.77,46.14s.11.03.3,0c.19-.04.33-.13.31-.2-.02-.07-.05-.11-.07-.07,0,.02-.01.03-.03.05-.06.1-.32.08-.46.18-.02.02-.04.03-.05.05ZM127.37,37.88c.02.09.6-.01,1.29-.24,1.57-.53,3.01-1.1,4.43-1.68,4.77-1.93,9.27-3.75,18.47-3.62.55,0,.99-.43,1-.97,0-.55-.43-.99-.97-1-9.6-.13-14.5,1.85-19.24,3.77-1.26.51-2.51,1.01-3.83,1.47-.69.24-1.22.49-1.19.58.02.06.03.11.04.17.06.44-.08.9-.02,1.37,0,.05.02.1.03.16ZM129.83,35.56c.62-.09-.08.87-.37.36-.15-.27.15-.33.37-.36ZM124.91,36.67c-1.94.47-4.13.82-6.76.99-.73.04-1.28.44-1.29.9,0,.46.13.71.26.7.13-.01.28-.05.35-.19.07-.14.02-.27-.07-.35-.06-.05-.1-.11-.13-.18-.09-.28,0-.56.22-.7.44-.27.91.32.77.7-.02.04-.04.08-.07.11-.05.05-.08.13-.07.19,0,.03.02.07.03.11.02.08-.21.08-.22.13-.02.09-.02.17,0,.26.02.14.09.26.1.27.02,0,.36,0,.78-.03.42-.03.74-.07.72-.08,0,0-.02-.01-.03-.02-.23-.19-.3-.49.05-.75.36-.27.5-.12.51.12.01.4.32.59,1.04.5,1.42-.18,2.7-.41,3.89-.68.71-.16,1.46-.76,1.4-1.33-.05-.57-.76-.85-1.47-.68ZM119.3,38.89c-.47.31-.91-.65-.53-1.01.45-.43.84.81.53,1.01ZM93.28,34.82s.33.15.72.32c.24.1.47.2.71.31.22.1.45.2.68.29.37.16.7.26.73.24.03-.02.01-.03-.05-.05-.05-.02-.1-.05-.11-.06-.14-.14-.14-.21-.08-.25.15-.08.09-.07-.17-.2-.26-.14-.31-.41-.32-.44,0-.03-.27-.09-.46-.35-.2-.26-.11-.5,0-.46.12.04.28,0,.28-.15,0-.07.01-.15.08-.25.05-.07.1-.03.15-.02.09.03.12-.08.09-.09-.02,0-.03-.01-.05-.02-4.69-2.04-9.53-4.15-19.13-4.28-.56,0-1.11,0-1.64,0-.73.01-1.3.07-1.3.12,0,.02,0,.05.01.08.08.65-.34,0-.73,0-.03,0-.23.02-.24,0-.01-.02-.02-.04,0-.06,0-.04-.56-.03-1.29.02-6.34.5-10.25,2.07-14.05,3.61-2.94,1.19-5.79,2.34-9.7,3.01-.01.03-.06.05-.16.07.03.33-.64.28-.82.09-.36.05-.72.1-1.1.14.21.51.3.05.71.36.08.06-.07.19-.04.25.13.25.64.22.65.47,0,.25-1.05-.27-1.42-.1.06-.03-.48.6-.48.57-.01-.07.54.3.48.42,1.22-.11,2.36-.29,3.43-.5,0-.02,0-.04.02-.06-.02.04.02.04.08.04.54-.11,1.05-.22,1.55-.35.07-.1.28-.16.51-.2-.1-.12-.19-.21-.22-.26-.02.05-.05.08-.07.1-.03.02-.17-.01-.31-.06-.18.12-.57.13-.64,0-.07.08-.14.16-.18.17-.13.05-.18-.15-.32-.1-.15.06-.16.33-.35.39-.64.2-.95-.6-.53-.84.33-.18.83.32,1.04.29.19-.03.68-.56,1.08-.52,0,0,.29-.13.41.02.04.05-.04.35-.11.52.04.02.14.1.33.26.14-.03.27-.04.36-.06.04,0,.08,0,.13-.01.27-.07.54-.15.81-.23.03-.02.05-.03.07-.02,1.59-.49,3.03-1.03,4.43-1.59-.01-.1-.07-.24-.16-.4-.27.04-.67.15-.75-.1-.05-.19.26-.22.57-.22-.19-.34-.32-.54.12,0,.14,0,.27.01.36.01,0-.04,0-.08,0-.12,0,.03-.15-.2-.08-.24.16-.1.49.32.55.43.03.01.05.02.08.03.01,0,.02,0,.03,0,.26.02.46-.34.57-.05.02.04,0,.09-.01.13,3.35-1.36,6.61-2.64,11.5-3.23.72-.09,1.46-.41,1.71-.69.2-.22.41-.36.57-.2.05.05.02.2-.06.36-.1.19.38.28,1.11.25,1.08-.05,2.23-.07,3.47-.05,4.19.06,7.39.49,10.08,1.14.71.17,1.24.24,1.21.11-.02-.09-.03-.16-.02-.23.03-.15.36-.08.41-.42.05-.41.18-.11.33.34.14.44.81.97,1.5,1.21.58.2,1.14.41,1.69.62.67.27,1.15.28,1.29.09.07-.08.19-.12.39-.06.39.12,0,.49.06.65,0,0,0,.01.01.02ZM47.21,37.2c.19-.12.48-.14.57.02.26.48-1.34.46-.57-.02ZM54.92,35.51c-.27.53-.11.27-.4-.26-.04-.07-.52-.26-.3-.5-.11.13.84,0,.96.37.05.18-.29.46-.27.4ZM55.32,34.07c.12-.1.51-.23.65.03.25.46-1.04.3-.65-.03ZM59.49,32.71c-.21-.35.8-.25,1.06-.25.09,0,.17-.02.25-.05.13-.04.15.07.1.27-.05.16-.08.33-.11.35-.35.21-1.22-.18-1.3-.32ZM62.49,31.96c-.31-.36.5-.23.41.08-.06.2-.34,0-.41-.08ZM63.55,32.36c-.28.04-.28-.3-.33-.49-.34-1.24.98.39.33.49ZM65.33,32.27c-.27.18-.43-.14-.49-.32-.27-.95,1-.02.49.32ZM67.6,30.4c-.16-.04-.08-.35,0-.41.26-.17.1.43,0,.41ZM77.59,30.76c-.2.45-1.11.05-1.06-.56.04-.45.39-.37.57.08.17.42.62.18.49.49ZM85.56,31.88c0-.08,0-.2-.02-.35,0-.21-.21-.27,0-.4.05-.04.73.47.66.73-.03.12-.16.18-.28.2-.2.04-.34.02-.35-.18ZM90.91,33.78c-.25.03-.45-.23-.4-.49.09-.62,1.21.38.4.49ZM96.25,35.9s0,.04.02.01c.03-.03,0-.04-.02-.01ZM108.92,38.81c.22-.32.42-.59.3-.64-.11-.06-.26.08-.37.19-.1.11-.37,0-.35-.33.01-.18.07-.38.19-.55,0-.01.02-.02.03-.02.02,0-.55-.07-1.27-.16-.65-.09-1.28-.19-1.88-.31-.71-.13-1.3-.26-1.32-.27,0,0-.02,0-.03,0-.64-.15-1.25-.3-1.84-.47-.7-.2-1.31-.24-1.46-.16-.15.07-.1.34-.2.75-.07.3-.26.48-.47.06-.11-.24-.17-.6,0-.73.04-.03.08-.06.12-.07.07-.03.05-.08-.04-.14-.05-.04-.1-.09-.13-.15-.05-.07-.07-.11-.08-.15-.03-.09-.01-.15-.15-.2-.14-.05-.39-.06-.54-.11-.15-.05-.34-.21-.5-.27-.15-.06-.3-.05-.33,0-.03.06-.05.21-.07.32-.02.08-.06.15-.13.12-.08-.03-.09-.17-.08-.32.01-.19-.05-.39-.19-.44-.14-.06-.15-.07-.11.03.02.05,0,.11-.05.17-.08.09-.4.32-.81.17-.03-.01-.11-.15-.19-.28-.1-.16-.23-.21-.25-.21-.02,0,.17-.13.48-.13.3,0,.16-.08-.31-.28-.47-.2-.85-.32-.86-.27-.01.05.04.24.12.42.06.13.11.25.04.34-.04.06-.1.07-.17.05-.1-.04-.09.07-.01.28.08.21.17.41.23.41.06,0,.05-.1.03-.22-.01-.08,0-.16.08-.19.14-.06.21-.02.22.05.04.14.15.37.35.58.15.15.26.31.26.44,0,.03,0,.1-.03.18-.02.1.06.23.2.28.14.06.32.03.43.02.06,0,.12.02.19.07.02.02.03.04.03.07,0,.05.41.25.95.45.54.2.95.32.93.28-.01-.02-.03-.05-.04-.08-.13-.39.77-.33.89-.09.06.11.02.21-.07.28-.13.11-.19.15-.06.19.12.04.31.04.4-.03.05-.04.09-.08.14-.15.04-.05.11-.32.23-.52.16-.27.47-.08.48-.02.02.06.04.1.05.09,0,0,.02-.01.03-.01,0,0,.05.03.11.1.05.06.1.1.1.09,0,0,0-.01,0-.02.06-.22-.42-.25-.28-.52.48-.86,1.16.51.76.84-.04.03-.11.02-.19,0-.1-.03-.11.05-.07.21.03.11.02.21-.03.29-.04.07-.14.05-.24.01-.13-.06-.23-.13-.27-.11-.03.02-.05.03-.06.02-.03-.05-.05-.16-.06-.28-.01-.16-.14-.27-.3-.2-.12.05-.21.11-.24.21,0,.04-.01.07-.01.1,0,.05.34.2.76.32.41.12.95-.05,1.15-.4.2-.35.7-.09.65.27-.04.28-.19.5-.39.23-.02-.03-.04-.06-.05-.09-.02-.05-.05-.09-.08-.07-.01.01-.02.03-.03.05-.03.05-.04.11-.04.16,0,.09.23.22.5.28.27.06.54.06.61.09.05.02.1.05.13.03.24-.14.18-.65.44-.68.1,0,.09.16.04.38-.04.23.5.53,1.21.65.02,0,.03,0,.05,0,.72.11,1.28.19,1.25.18-.01,0-.03-.02-.04-.03-.01-.01-.05-.22-.04-.24.06-.23.14-.15.18-.02.06.18.03.32.11.33.09.01.09-.05.05-.16-.02-.07-.02-.14.03-.2.05-.06.59-.05.67.03.02.02.03.1.02.21,0,.12.04.22.09.22.06,0,.24-.28.45-.6ZM104.49,37.53c-.13-.18-.16-.47,0-.57.47-.28.52,1.32,0,.57ZM105.78,38.18c-.29.2-.86-.15-.58-.48.5-.58.64.44.58.48ZM107.58,38.49c-.15.16-.36-.13-.41-.24-.21-.44.64,0,.41.24ZM57.36,34.8h0s0,0,0-.02c-.03-.02-.06-.03-.06-.03.03.03.05.05.06.05ZM98.48,35.26s.06-.09.04-.11c0-.01-.02,0-.03.03-.02.05-.02.08-.01.08ZM50.88,37.4s.08-.02.13-.03c-.02-.01-.04-.03-.06-.05-.04,0-.08.01-.12.02.02.02.03.04.05.06ZM56.6,35.01c.11-.01.19-.02.22.02-.11-.14-.2-.25-.27-.34-.04,0-.08,0-.12,0,.06.1.12.21.17.32ZM116.61,38.48c-.02-.09-.12-.15-.24-.12-.12.02-.29.13-.35.28-.04.11-.07.21-.08.28-.01.18.12.82-.42.48-.04-.03-.06-.09-.07-.17-.02-.1-.04-.15-.05-.11,0,.02,0,.05-.02.08-.02.07-.82.4-.89.33-.16-.16-.11-.35.04-.51.21-.24.48-.32.47-.36,0-.02,0-.04-.01-.07-.04-.2.32-.26.33-.47,0-.07-.07-.12-.16-.16-.12-.05-.19-.11-.19-.14,0-.03-.07-.06-.16-.06-.09,0-.17.03-.18.07-.02.04-.08.03-.12,0-.04-.03-.19-.07-.34-.07-.15,0-.33.12-.46.2-.13.08-.28-.01-.3-.04-.02-.03-.08-.05-.14-.06-.03,0-.06-.01-.09-.04-.01,0-.02-.02-.01-.04,0-.02-.58-.06-1.31-.09-.32-.02-.63-.03-.94-.05-.72-.05-1.12.09-.98.37.1.2.13.41-.02.53-.04.03-.08.04-.11.04-.07,0-.18-.01-.26.03-.05.03-.1.06-.1.11-.02.14.01.18.06.21.11.05.19.06.23.02.02-.03.05-.04.09-.05.18-.03.21.14.16.27-.07.2-.29.09-.29.1,0,.01-.06-.02-.12-.07-.07-.05-.18,0-.18.11,0,.1.61.24,1.34.29.98.06,2.01.11,3.11.12.42,0,.82,0,1.21,0,.67,0,1.17-.11,1.14-.22-.03-.08-.04-.16-.05-.21-.03-.26.06-.34.17-.4.24-.12.31-.33.29-.42ZM112.34,38.02c.16-.2.63-.14.66.06.06.35-.85.18-.66-.06ZM113.44,38.87c.12-.02.24-.02.28.07.07.17-.1.24-.27.23-.24-.01-.17-.27,0-.3ZM113.75,39.12c-.05-.5-.1-.17.24-.33.05-.02.09-.06.11-.12.04-.08.04-.18.03-.21,0-.03-.07-.22-.01-.4.03-.1.1-.13.26.04.04.03.03.15.01.28-.03.15-.14.5-.19.79-.05.28-.1.51-.13.51-.13.04-.32-.54-.33-.56ZM148.12,16.45c-.09-.11-.56-.19-1.29-.14-6.49.48-10.46,2.08-14.3,3.63-.42.17-.84.34-1.26.51-.68.27-1.32.85-1.7,1.13-.38.28-.62.28-.71.12-.09-.15-.3-.21-.45-.16-.15.05-.46.13-.68.2-.22.07-.39.24-.45.36-.06.12-.2.62-.32.39-.05-.09-.12-.23-.26-.39,0,0-.02-.01-.03-.02-.02,0-.59.15-1.3.33-1.36.34-2.85.62-4.52.82-.72.09-1.41.22-1.55.27-.09.03-.19.04-.27,0-.02,0-.03-.02-.04-.04-.02-.03-.59,0-1.29.02-.7.03-1.11.12-1.06.3.02.08-.04.14-.25.15-.11,0-.2-.12-.35-.11-.04,0-.07.01-.1.02-.05.02-.08.08-.08.12,0,.03,0,.06,0,.08-.02.05-.13.13-.28.23-.17.11-.25.17-.23.22,0,.02.01.06,0,.1-.08.46-.48.19-.71.2-.01,0-.04,0-.08,0-.04,0-.18.05-.31.09-.1.03-.18.05-.24.05-.12,0-1.43-.23-1.08-1.11.08-.21.21-.23.36-.22.25.01-.14-.07-.86-.1-8.11-.32-12.32-2.14-16.74-4.07-4.69-2.04-9.53-4.15-19.13-4.28-1.3-.02-2.51,0-3.65.06-.73.04-1.37.44-1.61.81-.24.37-.58.02-.5-.23.08-.25-.41-.4-1.13-.31-5.37.62-8.91,2.05-12.36,3.44-1.43.58-2.83,1.14-4.34,1.65.09-.02.18-.03.24-.01.14.03.07.37.4.43.89.17-1.59.51-1.84.79-.11.13.05.71-.19.86-.49.29-1.33-.2-1.39-.44-.05-.24.35-.14.42-.48.03-.14-.01-.29-.06-.43-.48.13-.97.24-1.48.35.14.17.23.4.22.59.19.1.37.2.37.21,0,.22-.47,0-.54.25-.01.04.07.21.04.24-.28.31-.35-.16-.47.16-.08.23.31.38.2.59,3.67-.73,6.45-1.85,9.16-2.95.42-.17.84-.34,1.26-.51-.25-.17-.43-.39-.43-.51,0-.25.37-.07.5-.38.13-.29-.07-.66.04-.81.15-.22.63-.38.91-.36.86.04-.08.09.47.43.43.26,1.11.02,1.38.14.06.03.06.1.08.19.02.12.63,0,1.33-.21,3.29-.99,7.2-1.67,12.95-1.6,9.2.12,13.66,2.06,18.37,4.12,3.52,1.53,7.14,3.1,12.79,3.84.72.1,1.32.13,1.35.1.02-.03.04-.04.05-.05.09-.06.35-.09.62-.04.35.06,1.16.31,1.88.34.78.04,1.59.07,2.44.08,1.2.02,2.32,0,3.38-.05.73-.03,1.25-.18,1.19-.33-.03-.08-.07-.16-.13-.25-.3-.42-.74-.32-.72-.65.01-.31.5-.5.92-.54.49-.04.75.14.82.29.02.06.04.11.05.17.02.1.07.19.13.21.04.02.07.04.08.07.06.11.04.19-.02.25-.11.11-.31.27-.45.43-.13.16.1.22.57.18.46-.04.82-.18.85-.28.02-.06.05-.12.11-.17.28-.25.87.14,1.08.07.1-.04.25-.24.44-.42.24-.24.59-.37.71-.41.07-.02.15-.02.2.03.06.05.02.59-.06.67-.06.06-.76-.07-.82-.03-.03.02-.07.07-.1.12-.05.08.5.06,1.21-.07,1.58-.29,3-.65,4.31-1.05.7-.21,1.08-.58,1.16-.78.02-.06.11-.11.34-.17.16-.04.31-.1.42-.1.24,0,.75.13,1.43-.13.73-.27,1.43-.56,2.14-.85,2.08-.84,4.12-1.67,6.52-2.31.7-.19,1.22-.48,1.21-.69,0-.21.32-.39.47-.18.15.21.7.31,1.42.19,1.76-.31,3.73-.52,6.03-.6.72-.02,1.34-.1,1.41-.17.04-.04.08-.08.13-.11.19-.13.52.03.79-.23.22-.21.26-.51.39-.73.24-.39.75-.37.71-.46-.04-.1-.19-.23-.32-.26-.08-.02-.16-.04-.25-.04-.72-.01-1.41,0-2.07,0-.72.01-1.26.11-1.27.2,0,.06-.04.11-.08.14-.07.04-.17,0-.22-.07ZM55.32,20.41c-.07.1-.33-.03-.2-.21.16-.23.27.12.2.21ZM57.72,20.03s.03.22,0,.24c-.34.25-.31-.23-.49.06-.14.22.28.46.05.65-.18.16-.9.18-1.14.11-.04-.01-.06-.22-.32-.26-.19-.02.08-.1.09-.07,0,.03.1-.7.11-.73-.07.09,1.55-.75,1.58-.74.01,0,.71.59.71.6-.05.22-.46-.09-.58.14ZM120.84,23.56c.03-.15.46-.12.5,0,.08.27-.55.29-.5,0ZM130.43,21.78c.35-.05.65.51-.02.58-.68.06-.33-.52.02-.58ZM142.03,17.39c.35-.14,1,.06.94.33-.11.55-1.93.07-.94-.33ZM149.83,17.02c.82-.3.26.88-.24.39-.25-.24.17-.37.24-.39ZM101.95,37.96s0-.02-.03-.02c-.03,0,.02.03.03.02ZM114.63,24.79s.06-.01.14-.06c.07-.05.07-.06,0-.02-.08.04-.14.07-.13.08ZM128.85,21.4s-.07-.01-.12,0c-.05.02-.03.02.03.01.07,0,.1,0,.09-.02ZM17.92,35.44c.1-.2-.17-.2-.17-.19-.17.13.14.26.17.19ZM151.56,18.15c.06,0,.12,0,.19,0,.26,0,.49-.09.67-.25.3-.27.25-.64.17-.64-.05,0-.1.01-.15.03-.17.05-.38.2-.58.37-.29.25-.4.49-.3.49ZM23.97,38.07s-.12.16.01.19c.22.06.13-.34-.01-.19ZM21.91,44.44s-.21.14-.06.22c.3.16.41-.47.06-.22ZM17.89,35.61s-.06.11-.04.13c.12.18.24-.34.04-.13ZM24.35,44.16c.86-.01.16-.62,0,0h0ZM22.8,43.61c.06-.22-.57-.42-.73-.2-.33.44.65.49.73.2ZM21.05,42.56c.03-.13-.21-.24-.3-.08-.11.19.27.19.3.08ZM21.02,44.28c-.12.1.06.19.11.13.06-.06,0-.22-.11-.13ZM20.03,44.46c.03-.3.13-.37.47-.36,0-.09.01-.25-.08-.3-.91.64-.13-.49-.28-.77-.26-.47-.74.45-.73.55,0,.18.2.29.27.41.08.15.06.54.36.46ZM20.8,43.58c.09-.16-.27-.35-.4-.14-.1.18.32.27.4.14ZM19.41,41.79c-.21.2.24.43.3.24.05-.15-.25-.29-.3-.24ZM19.58,42.43c.08.31.32-.09,0,0h0ZM23.33,45.15c-.22.16.12.34.23.26.11-.09.03-.45-.23-.26ZM48.44,9.44c0,.08.09.14.19.19,3.9-.73,6.78-1.89,9.61-3.03.42-.17.85-.34,1.27-.51.03-.08.07-.14.14-.19.07-.05.15,0,.23.04.11-.04.23-.09.34-.13,0-.28-.86-.57-.12-.94.08-.04.55-.01.57-.06.14-.33-.35-.22-.38-.58-.04-.45.46-.62.51-.63.62-.04.11.27.2.98.04.34.18.05.14.41-.01.14-.3.27-.34.4,0,.01,0,.08.03.19.36-.14.72-.27,1.09-.4.61-.21,1.13-.44,1.21-.5.05-.03.1-.06.15-.08.06-.02.1-.03.12-.02.07,0,.58-.08,1.29-.27,3.1-.85,6.8-1.4,12.02-1.33,9.2.12,13.66,2.06,18.37,4.12,4.69,2.04,9.53,4.15,19.13,4.28,4.73.06,8.32-.39,11.31-1.09.71-.17,1.27-.37,1.27-.42,0-.05,0-.09.02-.1.12-.07.28-.1.44-.11.25,0,.49.04.53.02.04-.01.08-.05.07-.09,0-.04.12-.1.29-.12.17-.02.87-.18,1.55-.42,1.31-.46,2.53-.95,3.74-1.44,2.97-1.2,5.84-2.36,9.8-3.03.72-.12,1.25-.22,1.19-.23-.07,0,.24-.36.26-.93.02-.57-.72-.95-1.44-.83-1.25.2-2.41.45-3.48.73-.7.18-1.16.51-1.13.74.03.17,0,.32-.08.38-.17.11-.34.03-.45-.12-.16-.23-.69-.32-1.38-.08-1.42.49-2.73,1.02-4.03,1.54-4.77,1.93-9.27,3.75-18.48,3.63-9.2-.12-13.66-2.06-18.37-4.11-4.69-2.04-9.53-4.15-19.13-4.28-9.6-.13-14.5,1.85-19.24,3.77-2.54,1.03-5.02,2.02-8.17,2.71-.07.1-.17.2-.18.28,0,.06.48,1.15.45,1.24-.18.54-.6.01-.66.02-.12.03-.51.38-.51.41ZM128.11,8.93c.57-.33.23.8-.16.39-.24-.24.04-.32.16-.39ZM118.82,10.23c.27.47-.35.54-.49.45-.14-.09-.29-.24-.29-.44,0-.2.51-.47.79,0ZM115.45,10.13c.17-.39.21.5-.03.34-.12-.09.02-.32.03-.34ZM63.49,3.71c.13-.14.4-.22.74-.21,1.24.01-1.53,1.07-.74.21ZM57.25,5.22c.25-.15.69.05.72.28.09.78-1.43.17-.72-.28ZM56.74,5.61c.19-.13.93.9-.04.97-.65.05.02-.34.03-.73,0-.03,0-.23.01-.24ZM144.35,9.58c.06-.06-.23-.06-.65,0-.42.06-.63.26-.44.41.15.12.28.22.27.32,0,.04-.83.77-.95.78-.65,0-.3-.69-.7-.88-.14-.07-.45.01-.76.07-.42.08-1.31.07-2.02.26-2.42.67-4.47,1.5-6.48,2.31-2.3.93-4.54,1.83-7.27,2.51-.71.18-.93.39-.74.75.1.21.17.46.16.72,0,.04,0,.08-.02.11-.02.06.09.15.2.25.11.11.46.17.84.08.39-.09.74-.25.81-.32.04-.05.09-.08.14-.12.29-.18.17,0,.25.04.02,0,.04.02.07.03.04.01.13,0,.21-.03.08-.02.24-.12.35-.2.07-.05.14-.09.23-.1,0,0,0,.03.01.06,0,.04.53-.09,1.18-.31.64-.22,1.11-.45,1.15-.49.04-.04.15-.06.24-.07.09,0,.72-.2,1.39-.47.52-.21,1.03-.41,1.54-.62,1.64-.66,3.25-1.31,5.04-1.88.69-.22,1.14-.77,1.34-1.19.2-.41.88-.11,1.09-.43.13-.2.21-.33.57-.27.3.05.08.32.47.56.16.1.39.02.47.09.03.03.06.06.08.1.04.06.63,0,1.35-.1,1.15-.18,2.39-.31,3.75-.4.73-.04,1.1-.46.65-.8-.34-.26-.69-.5-.69-.7,0-.18.12-.25.31-.33.25-.1-.07-.16-.71-.12-.64.05-1.2.24-1.29.4-.07.12-.14.21-.21.25-.41.23-1.29,0-1.33-.18,0-.01.04-.05.1-.12ZM128.03,15.15s-.06.07-.1.13c-.04.08-.14.12-.28.06-.13-.06-.32-.12-.43-.15-.09-.02-.15-.06-.12-.14.04-.08.2-.08.37-.06.22.03.44.06.48-.01.03-.05.06-.09.11-.09.19.02.46.02.37.27-.12.36-.13-.1-.41-.02ZM146.37,10.43c.13-.07.65.36.46.64-.22.34-.98-.36-.46-.64ZM144.24,11.28c-.42.14-.27-.32.17-.46.44-.14.25.32-.17.46ZM145.61,3.82c.06.22.69.35,1.41.29.45-.03.91-.06,1.38-.08.73-.03,1.31-.21,1.33-.4.01-.13.04-.24.11-.34.09-.14.58-.18.71-.31.15-.14.2-.3.23-.45.06-.27.13-.5-.06-.44-.18.05-.32-.07-.31-.08,0-.01-.59-.02-1.32.01-.11,0-.23,0-.34.01-.73.03-1.36.2-1.4.36-.03.11-.05.21-.02.3.12.34.62.19.62.48,0,.27-.18.39-.41.39-.36,0-.21-.74-.66-.94-.45-.2-.87.06-.83-.12.03-.18-.02-.3-.2-.28-.17.01-.3.29-.33.6-.02.19-.03.38,0,.57.02.13.05.27.09.41ZM149.59,2.53c.06.15-.12.23-.22.09-.11-.13.16-.24.22-.09ZM16.76,4.78c.67.27,1.24.48,1.28.46.02,0,.04-.02.07-.03.07-.03,1.08.12,1.21.38,0,0,0,.05-.02.12-.02.07.1.18.27.25.1.04.2.09.3.13,4.69,2.04,9.53,4.15,19.13,4.28,3.66.05,6.63-.21,9.17-.65-.11-.47-.29-.94-.05-1.21.15-.17.53.29.55-.17.01-.23-.55-.34-.55-.61-1.27.23-2.64.41-4.17.53,0,.04-.01.07-.04.11-.06.07-.29.03-.54-.07-1.33.08-2.76.12-4.34.1-1.04-.01-2.02-.05-2.95-.11-.14.09-.31.15-.4.1-.02-.01.03-.06.09-.12-7.07-.48-11-2.19-15.12-3.98-.16-.07-.33-.14-.49-.21-.27-.12-.49-.17-.5-.11,0,.04,0,.08-.01.1-.05.24-.26.18-.28.29-.08.38.3.62-.11.84-.07.04-.14-.07-.18-.19-.05-.15-.32-.22-.77-.29-.21-.04-.32-.18-.06-.67.05-.1.17-.18.29-.27.17-.13-.28-.52-.95-.78-.67-.27-1.28-.37-1.39-.31-.06.03-.12.06-.21.09-.26.08-.32.03-.29-.08.04-.21-.42-.56-1.11-.78-.99-.31-2.06-.6-3.2-.86C8.68.45,5.51.05,1.52,0c-.54,0-.99.43-1,.97,0,.54.43.99.97,1,7.19.09,11.49,1.3,15.27,2.8ZM45.63,8.33c.21-.2.69-.09.76.13.24.74-1.37.46-.76-.13ZM45.21,8.81c.16-.16,1.09.69.16.96-.63.18-.05-.33-.12-.72,0-.03-.05-.23-.04-.24ZM6.66,1.07c.69-.26-.13.45-.37.3-.05-.03.26-.27.37-.3ZM127.38,15.15s.08.06.11.05c.01,0,0-.02-.03-.03-.05-.02-.08-.02-.08-.02ZM24.12,45.41c.12.23.73-.07.71-.35-.19-.07-.82.13-.71.35ZM12.83,24.78c.7.2,1.34.16,1.55-.05.21-.21.44-.14.41-.02-.02.12.04.27.19.25.07-.01.15-.01.26.05.15.07-.12.24.21.29.24.04,1.04-.09,1.06-.09.33-.1.1-.39.51-.41.4-.03.8.57.77,1.19,0,.09-.05.18-.08.28-.05.15.42.46.93.68.31.14.62.27.94.41,4.68,2.04,9.53,4.15,19.13,4.28,2.38.03,4.47-.07,6.34-.26.02-.01.04-.03.06-.04.11-.06.2-.16.31,0,1.66-.19,3.15-.45,4.52-.77-.05-.15-.07-.34.03-.56.02-.06.65-.35.51-.38,0,0,0-.08,0-.08.13.06.13.52.05.88.64-.16,1.26-.33,1.85-.51-.08-.38.3-.34-.5-.63-.24-.09-.33-.39-.38-.42-.08.13-.23.1-.4.02-.29.09-.52.28-.67.16-.1-.08-.04-.2.07-.33-.24.09-.78.26-.76.24-.05.05-.05.14-.03.21.04-.04.33-.14.39.02.1.28-.16.26-.31.16-.15.26-.56.64-.79.63-.1,0-.68-.15-.72-.38-.01-.06.34-.69.62-.76.26-.06.29.05.32.13-.02-.06.08-.21.09-.23.06-.06.11-.08.15-.1-.98.23-2.02.42-3.15.58-.02.16-.09.32-.21.43-.14.13-.38.19.16.17-.2,0,.36-.23.41-.06.15.49-.73.07-.81.04-.26-.07-.34-.44-.96-.29.03,0-.41.33-.34.39.37.3.9-.3,1.14-.03.25.28-.34.27-.6.63-.17.23-.36.77-.76.62-.26-.11.08-.09-.07-.33-.05-.09-.4-.26-.14-.5.06-.06.52.16.49-.06-.09-.72-.9.03-.89.04-.31-.17-.26-.5-.07-.78-1.48.11-3.09.16-4.89.14-.34,0-.67-.02-1-.03-.11.04-.23.05-.23,0-6.41-.21-10.42-1.34-13.96-2.74-.68-.27-1.37-.45-1.55-.37-.12.05-.23.1-.31.16-.22.14-.53.93-.76.37-.19-.47-.52.17-.82.05-.19-.08.27-.09.19-.36-.17-.54-.43.29-.63.19-.45-.23-.21-.73.1-.92.29-.18.17,0,.25.04.18.09.31.04.43-.04.21-.15.27-.29.15-.35-.08-.03-.15-.07-.23-.1-4.69-2.04-9.53-4.15-19.13-4.28-.55,0-.99.43-1,.98,0,.54.43.99.97,1,5.01.07,8.61.67,11.62,1.54ZM48.01,30.17c.08-.03.67.24.38.59-.14.17-.66-.47-.38-.59ZM40.31,30.25c.22-.3.46.25.39.35-.05.07-.57-.1-.39-.35ZM10.93,23.24c.22-.3.46.25.38.35-.05.07-.56-.1-.38-.35ZM8.18,22.53c.08-.06.27-.23.32-.05.04.16-.57.27-.32.05ZM79.79,38.58c.08,0,.13-.01.11-.04-.02-.02-.03-.04-.04-.05-.06-.03-.1-.03-.13-.02-.07.03-.02.1.06.11ZM6.83,37.8c0-.07-.01-.12-.05-.07.19-.29.32-.07.29.1,1.79.23,3.36.55,4.79.93.21.08.3.28.27.57.23.13.22-.16.39-.18.29-.03.65.44,1,.17-.03-.03-.04-.06-.05-.09.39.13.78.25,1.15.38-.13.21.15.55.31.37.05-.06,0-.19-.06-.29.65.23,1.28.48,1.89.73-.05.02-.11.03-.18.04.03.22,0,.4-.05.57.3.04.22.41.52.46-.26.06-.24.4-.34.53,0,0-.22.11-.23.18-.05.64.58.04.78.07.21.04.14.41.45.32.06-.02.35-.48.35-.49-.03-.14-.58-.13-.46-.52-.11,0-.2.17-.3.08,0-.26.46-.26.65-.25-.13-.11-.34-.75-.16-.91.03,0,.05.01.06.03.05.08,0,.19-.09.3.15.06.3.13.45.19,0,.03,0,.05.03.08.04-.02.06-.02.09-.03.08.04.16.07.25.11-.04.2-.27.52-.25.54.04.08.49.07.65-.09.04-.04.06-.13.08-.24.12.05.24.1.35.15.94.41,1.9.82,2.9,1.22.08.07.16.13.2.13.02,0,.04-.02.05-.03.31.12.62.24.94.36,0,.03-.02.06-.04.09-.1.13-.58.12-.58.35,0,.07.21.19.19.27-.45.08-.25.39-.39.62-.09.16-.27.13-.34.21-.16.18-.06.52.18.52.33-.01.21-.28.27-.47.05-.14.25-.48.4-.59.19-.13.58-.06.72-.15.16-.1.03-.44.17-.57.02-.02.05-.04.07-.05,2.33.83,4.98,1.54,8.36,1.96-.22-.11-.45-.31.07-.26-.07,0,.43.15.22.29,1.35.16,2.82.27,4.43.33.07-.04.13-.07.19-.09.24-.09.31-.02.29.1.28,0,.55.02.84.02.45,0,.87,0,1.3,0,.03-.02.05-.04.04-.03.11-.05.15-.03.15.03,2.75-.03,5.09-.24,7.15-.57.04-.61.84-.64,1.09-.61.31.04.33.19.36.35.55-.11,1.08-.23,1.59-.35-.1-.07-.04-.58.1-.77.01.03.41-.18.51.07.11.27-.78.58-.6.7,2.9-.71,5.25-1.66,7.56-2.59,1.08-.44,2.15-.87,3.26-1.27.68-.25,1.27-.5,1.32-.56.03-.03.07-.06.13-.09.04-.02.08-.02.12,0,.06.03.65-.1,1.35-.29,1.52-.43,3.2-.79,5.12-1.04.72-.09,1.29-.18,1.28-.22-.01-.03-.02-.06-.03-.07-.06-.31,0-.32.08-.22.13.17.76.29,1.48.24,1.33-.09,2.78-.12,4.36-.1.42,0,.82.02,1.21.03.67.02,1.14.04,1.05,0-.05-.02-.1-.04-.16-.06-.21-.1-.35-.48-.61-.54-.67-.16-1.52.52-1.95.17-.18-.14.26-.54-.2-.54-.31,0-.35,1.01-.92.36-.06-.07-.15-.53-.2-.54-.35-.06-.13.39-.47.51-.42.15-.72-.29-.74-.34-.19-.59.23-.18.9-.44.32-.12,0-.19.36-.24.14-.02.34.23.47.23.06,0,1.12-.53,1.22-.51.55.16.04.6.06.65.03.12.41.49.43.49.18,0,.26-.5.38-.58.12-.07,1.03-.12,1.22-.1.24.04.19.25.31.27.39.06.61-.33.85.07.04.07-.06.15-.18.19-.15.06-.28.21-.26.52.02.31-.01.48.19.49.2.01.36,0,.35-.02,0-.01-.01-.03-.02-.04-.03-.06.07-1.08.32-1.23,0,0,.2.03.39.08.21.05.57.25.6.53.02.17.01.34.08.5.05.12.2-.12.24-.06.02.04.01.11,0,.2,0,.11.19.22.43.25.24.03.29-.19.23-.53-.05-.24-.04-.48.11-.58.03-.02.26.12.46.24.02,0,.04.02.06.03.03.02.03.02,0,0-.03-.02.02.05.13.15.09.07.18.14.22.14.18.03,1.32-.64,1.2.16-.01.09-.07.21-.14.35-.09.18.39.41,1.11.56,1.19.24,2.28.52,3.31.83.7.21,1.23.33,1.21.25-.01-.04-.02-.1-.04-.15-.05-.2-.26-.23-.08-.4.04-.04.8.31.79.58,0,.07-.04.12-.08.16-.07.07.4.29,1.08.55,1.19.46,2.33.96,3.48,1.46,1.77.77,3.57,1.55,5.63,2.23.69.23,1.41.3,1.61.31.12,0,.25.04.35.1.11.07.21.21.19.08-.02-.16-.14-.27-.22-.4-.05-.1-.09-.21-.02-.25.22-.14.28.04.29.26,0,.29,0,.55.04.57.05.02.14,0,.19.02.05.02.58.18,1.19.32.61.13,1.14.15,1.17.05.03-.1.06-.18.07-.18.11-.04.21,0,.3.06.14.11.23,0,.02-.14-.14-.1-.3-.18-.25-.35.01-.05.78-.45.9-.44.23.01.33.07.41.19.13.22.04.47.03.74,0,.26-.02.41-.18.34-.09-.04-.19-.06-.32,0-.01,0-.04.03-.07.07-.03.04.13.11.36.14.23.04.51.07.63.08.12,0,.27-.3.49-.56.16-.21.34-.32.37.06,0,.11-.11.21-.09.35,0,.06.03.11.06.16.05.08.69.2,1.42.27.24.02.49.04.74.06.73.06,1.3,0,1.28-.11-.01-.07-.03-.13-.05-.19-.02-.07-.05-.15-.09-.21-.05-.11-.13-.23-.13-.26,0-.04,0-.04.01,0,0,.03.17.1.36.04.18-.06.45,0,.6.23.16.22.23.44.17.51-.06.07.21.14.61.15.4,0,.74-.2.92-.15.18.06.68.18,1.14.18.46,0,.81-.13.85-.26.04-.14.1-.35.16-.5.03-.08.1-.11.24-.01.03.02.03.11.02.22-.02.12-.05.29-.06.38-.02.09.02.15.1.15.08,0,.15-.08.19-.17.02-.05.05-.1.1-.14.04-.04.16,0,.29.04.16.05.33,0,.39-.07.05-.06.12-.04.11.09,0,.12.12.21.33.2.2-.01.42-.12.53-.18.08-.05.16-.06.2.01.01.02.02.04.02.06,0,.04.59.03,1.32-.04.1,0,.19-.02.29-.03.72-.07,1.26-.26,1.2-.4-.05-.14.02-.38.12-.53.1-.15.17-.35.19-.44.02-.09,0-.16-.07-.17-.05,0-.09-.02-.1-.03,0-.01-.01-.08-.01-.18,0-.1-.1-.11-.25-.09-.11.02-.22,0-.28,0-.07-.01-.1-.04-.11-.07-.03-.07-.06-.13-.1-.13-.04,0,.05.16-.04.31-.04.07-.12.13-.27.16-.09.02-.21,0-.33-.11-.16-.12-.81-.22-1.54-.17-.31.02-.62.04-.94.05-.73.03-1.38.25-1.58.39-.14.1-.28.11-.35-.09,0-.03,0-.07,0-.13.02-.07-.02-.12-.11-.12-.08,0-.25.2-.44.4-.14.16-.3.27-.41.2-.04-.03.02-.21,0-.24-.04-.06-.07-.12-.09-.17-.04-.1-.17-.18-.31-.18-.09,0-.17,0-.26,0-1.57-.02-2.99-.1-4.3-.22-.72-.07-1.24-.07-1.17.02.07.09.22.11.35.03.09-.06.19-.1.25-.02.22.3.06.48-.2.49-.39,0-.67-.38-.71-.48-.03-.1-.11-.21-.25-.22-.14-.02-.29.14-.45.21-.09.04-.19.02-.29-.09-.04-.04-.06-.08-.08-.11-.03-.06-.6-.21-1.32-.34-1.01-.19-1.94-.4-2.82-.63-.7-.19-1.19-.3-1.27-.23-.04.03-.08.06-.15.1-.26.15-.32.43-.08.5.27.08.43-.38.52.16.07.44-.39,1.47-.54.74-.05-.22-.17-.29-.31-.33-.26-.08-.49-.2-.59-.27-.11-.07-.14-.46.17-.69.23-.17.5-.3.63-.33.03,0,.1-.02.17-.02.09,0-.39-.17-1.08-.41-.54-.19-1.07-.38-1.58-.59-.68-.26-1.39-.48-1.57-.56-.18-.09-.61-.34-1-.51-.23-.1-.46-.2-.7-.3-1.94-.84-3.91-1.7-6.23-2.42-.69-.21-1.21-.15-1.39,0-.11.09-.26.14-.39.06-.15-.08-.16-.2-.11-.3.1-.18-.29-.38-1-.55-2.71-.61-5.93-1.02-10.01-1.08-9.6-.13-14.5,1.85-19.24,3.77-2.06.83-4.08,1.65-6.44,2.29.03.17.09.46.14.45.02-.02.04-.04.05-.08-.02.06-.03.08-.05.08-.14.15-.48-.1-.55-.35-3.01.78-6.61,1.29-11.58,1.23.03.06.05.1.06.08-.05.08-.82.54-.82.55.06,0-.44-.41-.59-.66-1.6-.05-3.04-.16-4.37-.32-.25.04-.59-.02-.89-.12-2.78-.39-5.03-1-7.05-1.71-.03-.16-.07-.28-.07-.32-.04-.25.75-.44.82-.54.12-.17-.04-.07,0-.32.02-.12.1-.15.06-.22-.07-.15-.58-.26-.73-.21-.18.07-.15.36-.34.37-.13,0-.33-.13-.34-.51-.22.08-.39-.24-.53-.18-.27.11-.03.43.07.58-.39-.12-1.15.39-1.28-.18-.09-.09-.14.16-.22.06-.03-.28-.48-.36-.58-.37-.08,0-.44.01-.51.06-.1.06-.15.15-.17.25-.32-.14-.63-.27-.95-.41-.16-.07-.33-.14-.5-.21-.01-.1-.08-.19-.15-.11,0,0-.01.02-.02.04-.42-.18-.84-.36-1.26-.54-.06-.1-.12-.2-.17-.31-.08-.18-.08-.39-.15-.56-.05-.13-.2-.25-.26-.37-.12-.25-.12-.56-.32-.44.04.21-.05.33-.21.42.14.3.43.66.53,1.02-1.12-.46-2.29-.9-3.57-1.31.16,0,.32-.02.42-.1.14-.11.03-.37.19-.49.18-.14.32-.01.46-.08.57-.27-.24-.37-.3-.68-.03-.17.15-.27.1-.39-.11-.27-.46-.08-.64-.31-.07-.08.01-.42-.19-.43-.21,0-.09.34-.2.45-.13.03-.16-.26-.32-.31-.07-.03-.13.08-.3.08-.17,0-.28-.15-.36-.14-.18.02-.35.24-.57.27-.34.05-.53-.11-.72,0-.12.07-.11.25-.24.3-.1.05-.19-.02-.23.02-.22.25.1.33.11.57,0,.11-.2.25-.19.44-2.73-.62-5.96-1.04-10.08-1.1-.55,0-.99.43-1,.97,0,.55.43.99.97,1,2.18.03,4.09.16,5.81.37ZM116.97,46.06c-.05.24-.29.13-.29-.04,0-.12.02-.24.11-.26.18-.04.22.13.18.3ZM104.06,45.7c-.09-.1-.23-.16-.07-.32.44-.44.56.81.07.32ZM104.13,44.29c-.08-.07-.16-.07-.18-.07-.02,0-.05-.41.26-.2.31.21,0,.34-.08.27ZM95.15,41.29c-.23.08-.48-.14-.5-.39-.03-.63,1.26.12.5.39ZM91.75,40.03c.17-.02.18.61,0,.33-.05-.09-.19-.31,0-.33ZM88.74,39.65c-.09-.04-.23-.25-.03-.21.15.03.3.1.2.2-.05.04-.11.04-.17.01ZM51.98,43.35c.12,0,.55.21.31.42-.07.06-.94-.41-.31-.42ZM49.64,42.92s.72.06.23.33c-.13.07-.95-.38-.23-.33ZM43.66,43.95s0-.08,0-.08c.08.01,1.01.2.87.53.04-.09-.94.16-.98.12-.23-.23,0-.52.1-.57ZM42.04,44.45c.4-.27.09.63-.18.44-.18-.13.08-.38.18-.44ZM40.23,44.37c.19-.39.74.33.47.43-.18.07-.55-.26-.47-.43ZM36.2,44.98s.04-.35-.04-.24c.3-.46.46.35.04.24ZM31.06,44.04c.39-.2.81.08.63.35-.11.17-1.16-.08-.63-.35ZM23.48,41.03s.01.06,0,.08c-.03-.01-.07-.03-.1-.04.02-.02.05-.04.1-.04ZM21.72,40.4s-.09-.04-.13-.05c.05-.03.11,0,.13.05ZM18.87,39.71c.12-.03.58.1.39.35-.06.07-1-.21-.39-.35ZM16.87,41.11c.12-.03.17.07.21.18-.11.01-.15-.11-.21-.18ZM17.65,40.46s-.02.01-.03.01c0,0-.01,0-.01,0,.01,0,.03,0,.04,0ZM16.96,39.12s.19-.18.32-.05c.02.02.21.55.29.53.02-.02.03-.05.04-.09,0,.07-.02.09-.04.09-.14.24-.82-.19-.61-.48ZM16.49,39.77s.71-.09.29.28c-.11.1-1.01-.17-.29-.28ZM12.02,35.76c.2.09.25.48.07.58-.3.16-.31-.31-.53-.5.17.05.34-.13.46-.08ZM11.44,36.6s0,.02-.01.02c-.03,0-.06-.02-.09-.02.04-.02.07-.03.1,0ZM8.12,36.53s0,.06.02.1c.09.2.52.28.82.1-.03-.12-.14-.22-.26-.3h0c.16-.04.31-.13.42-.17.02-.03.06-.04.13,0-.03-.02-.08,0-.13,0-.1.13.11.7.15.65-.05.08-.82.54-.81.55.07,0-.73-.63-.62-.81.04-.07.15-.1.27-.12ZM49.3,29.08s-.06-.04-.09-.08c.02.04.03.08.09.08ZM135.76,49.01c.37-.14.31-.5-.11-.32-.42.17-.26.46.11.32ZM134.14,48.02c-.59.4.57,1.16.9.83.33-.33-.53-1.08-.9-.83ZM151.28,9.16s.09.07.19.03c.11-.04.09-.11,0-.11-.1,0-.18.03-.19.07ZM127.34,50.61c-.12-.23-.67-.28-1.29-.1-.63.18-.95.5-.86.82.07.26.09.51.05.59,0,.02-1.12.54-1.19.53-.34-.05-.86-1.03-1.63-1.11-.01,0-.02,0-.04,0-.02,0-.15.02-.29.04-.08.01-.17.02-.25.04-1.37.21-2.84.37-4.48.45-.73.03-1.26.06-1.24.11.02.05.13.39-.06.4-.19.01-.3-.26-.34-.32-.04-.06-.51-.12-1.05-.11-.32,0-.66,0-.99,0-.05,0-.1,0-.15,0-.08,0-.17.11-.28.15-.11.04-.46-.17-.92-.19-.46-.02-.84.27-.96.63-.12.35-.41.48-.43.48-.02,0,0-.26-.02-.59-.01-.33-.29-.61-.66-.63-.37-.03-.66-.02-.63.02.02.04-.02.04-.07.1-.04.05-.06.11-.03.13.04.04.08.01.12-.03.05-.06.08-.13.09-.13.01,0,.02,0,.01,0,0,0,.2.11.46.22.21.09.43.19.45.25.15.41,0,.64-.22.75-.44.2-.81-.2-.78-.32.03-.13-.02-.33-.14-.45-.09-.09-.18-.17-.23-.21-.13-.11-.18-.12-.18-.17,0-.14-.49-.29-1.21-.38-5.52-.69-8.97-2.19-12.57-3.76-.15-.07-.31-.13-.46-.2-.26-.11-.52-.13-.62-.15-.1-.01-.29-.06-.28-.13.01-.07-.42-.29-1.09-.56-1.56-.64-3.21-1.25-5.11-1.77-.7-.19-1.3-.26-1.36-.23-.06.03-.12-.04-.12-.07,0-.03-.58-.19-1.29-.33-2.45-.47-5.3-.78-8.79-.83-.36,0-.69,0-1.04,0-8.92.03-13.64,1.93-18.2,3.77-3.33,1.35-6.54,2.64-11.32,3.26-.03.08-.17.15-.49.21-.05,0-.06-.07-.08-.14-.21.02-.43.05-.65.07-.14.16-.31.25-.46.09-.04.01-.09.02-.12.02.04,0-.02-.02-.11-.05-1.57.13-3.3.2-5.25.17-4-.05-7.11-.45-9.72-1.05-.02.06-.04.12-.06.15.04.07.06.18.07.28.22-.04.46-.08.75-.05.04,0,.35.15.35.11.12.41-.54.52-1.1.46,0,.05-.01.08-.02.09-.15.18-.21-.1-.48-.02-.29.08,0,.25-.25.23-.29-.02-.54-.35-.55-.51-.01-.15.41.01.4.02.28-.24-.27-.58.06-.64-.08-.1-.12-.23-.14-.36-2.93-.76-5.27-1.78-7.67-2.82-1.73-.75-3.49-1.52-5.49-2.19-.06.09-.36.13-.42.06.02-.01.05-.1.11-.16-.11-.04-.21-.07-.32-.1,0,.03-.02.07-.06.12.02-.03-1.54,0-1.58-.07-.05-.11.35-.33.47-.39-.65-.18-1.33-.35-2.04-.5.01-.11-.04-.22-.16-.09-.01.01-.03.03-.05.05-.8-.17-1.64-.32-2.54-.46.14.11.24.28.12.36-.16.1-.59-.15-.54-.32,0-.04.03-.07.05-.09-1.95-.27-4.15-.44-6.67-.48-.1,0-.2.02-.29.05.23.41-.21.47-.52.37-.07.09-.11.19-.14.3.04,0,.07,0,.12,0,.04,0,.36.15.35.11.07.25-.15.39-.46.44.12.4.49.7.93.71,3.51.05,6.33.36,8.74.84.03-.05.08-.1.14-.14.23-.2.26.02.2.21.14.03.27.06.41.08.12-.09.27-.17.49-.15.01,0,.08.18.19.31.1.03.21.05.31.08.13-.05.33-.13.36-.11.15.1.11.17.02.21,2.86.76,5.15,1.75,7.51,2.78.04.02.09.04.13.06.05.04.09.05.12.05,1.61.7,3.25,1.4,5.09,2.03.23-.1.47-.16.59-.16.11,0,.75.04.15.25-.07.03-.12.06-.17.1.84.27,1.72.52,2.67.75,0,0,.01-.02.02-.03.33-.27.78-.1.7.19,2.12.47,4.55.81,7.45.96,0-.03,0-.06,0-.09.02-.04.21-.02.24-.04.26-.21.45-.31.72-.12-.14-.1-.08.08-.05.29.47.02.95.03,1.45.04.28,0,.54,0,.82,0,.07-.13.22.02.35-.17.07-.1.26-.33.56-.35-.04-.08-.09-.15-.12-.15-.14.03-.91.97-1.07.2-.03-.16.1-.39.43-.55.36-.18.47.08.73.11.03,0,.6-.14.65-.05.09.13-.17.53-.39.62.07.11.17.24.29.24,0,0,.24-.1.38-.14.05-.26.29-.65.45-.68.54-.1.44.55.16.89,7.52-.3,11.82-2.04,16-3.73,1.78-.72,3.54-1.43,5.51-2.02.7-.21,1.2-.37,1.12-.4-.07-.02-.12-.05-.13-.07-.27-.3.73-.4.99-.46.09-.02.16-.06.23-.1.12-.07.17,0,.16.14-.01.15.56.13,1.27,0,1.2-.23,2.5-.41,3.94-.53.72-.06,1.3-.19,1.31-.31.02-.12.28-.16.52-.15.21.01.41.02.42.03.03.04.03.1.01.15-.03.08.42.12,1.05.11.62-.01,1.19-.15,1.34-.21.08-.03.18-.03.28.05.02.01.03.04.02.08-.01.05.08.08.21.08.08,0,.16,0,.24,0,9.2.12,13.66,2.06,18.37,4.11,4.69,2.04,9.53,4.15,19.13,4.28.09,0,.18,0,.27,0,.15,0,.09-.32.36-.42.2-.07.49-.05.51-.01.03.07.04.15.02.23-.03.12.36.2.92.2.56-.01.91-.27.99-.56.06-.22.19-.39.34-.37.16.02.22.2.21.41,0,.28.47.46,1.19.41.7-.05,1.37-.11,2.02-.19.72-.08.79-.36.67-.91-.07-.33.05-.65.52-.72.02,0,.17-.16.28-.09.17.13.38,1.22.25,1.37-.02.03-.05.06-.08.08-.05.04.49-.03,1.2-.16.41-.08.81-.16,1.2-.25.71-.16,1.27-.31,1.26-.31,0,0,0,0-.02,0-.02,0-.04-.08-.05-.16,0-.09.15-.38.29-.24.14.15.38.25.82.12.44-.13.7-.46.7-.76,0-.19.02-.39-.01-.53-.03-.13-.11-.28-.19-.43ZM11.44,45.12c.05.03.22-.61.23-.61.67-.36.34.89-.23.61ZM13.01,45.68c-.07,0-.52-.75-.46-.83.43-.6,1.56,1,.46.83ZM25.11,50.03c-.08-.19.13-.34.26-.39.67-.26-.02.95-.26.39ZM26.72,50.43c-.11.15-.7-.04-.23-.25.11-.05.39.02.23.25ZM30.99,51.27c.25-.07-.31.29-.5.22,0,0-.18-.79-.13-.82.08-.04,1.16.45.63.6ZM32.96,50.63s.34.04.32.01c.34.49-.63.44-.32-.01ZM40.82,52.13c.05.03.22-.61.23-.61.67-.36.34.89-.23.61ZM41.7,51.49c-.05-.12.48-.4.51-.41.48-.13.15-.13.36.19.19.29,1.02-.1.71.3.02-.03-1.54,0-1.57-.07ZM42.81,52.26c.11.26.05.5-.41.43-.07,0-.52-.75-.46-.83.2-.28.56-.07.76.21.05-.04.13-.07.29-.11,0,0,.18-.15.25-.07.35.43-.15.46-.42.37ZM43.56,51.7s.12-.34.38-.16c.22.16-.3.27-.38.16ZM66.95,45.31c-.38-.29.44-.33.41,0-.02.21-.34.06-.41,0ZM68.07,45.48c-.27.1-.33-.23-.42-.41-.59-1.15,1.04.18.42.41ZM69.8,45.03c-.23.24-.46-.05-.54-.21-.46-.88.97-.23.54.21ZM101.11,51.83c-.15-.29.57-.39.64-.13.09.31-.42.54-.64.13ZM112.11,53.33c-.22-.38.04-.81.33-.65.17.1-.02,1.16-.33.65ZM119.18,53.65c-.2.05-.39.09-.41.06-.02-.04.07-.32.19-.54.16-.28.45-.13.54.04.09.17-.09.38-.32.43ZM18.52,44.18c-.06,0-.24.12-.3.08-.17-.1-.17-.47-.33-.47-.36,0,.05.37-.26.51-.16-.04-.04-.22-.19-.27-.32.03-.28.32-.53.26-.21-.05-.08-.3-.22-.38-.08-.05-.36-.04-.41.11-.02.06.1.14.13.2.24.46.22.21.62.39.12.05.19.19.29.2.06,0,.18-.1.29-.12.32-.05.65.29.79.27.03,0,.42-.34.42-.35.01-.07-.14-.41-.32-.44ZM18.12,44.61c.16-.54.66.12,0,0h0ZM132.49,48.4c-.09-.09-.21-.15-.25-.13-.03.01-.06.02-.08.03-.09.04-.18.08-.28.11-.15.06-.27.13-.28.16,0,.02-.01.03-.02.04-.03.05-.09.08-.17.09-.11,0-.66.17-1.23.39-.57.22-1.33.9-1.71,1.51-.1.16-.17.3-.2.41-.18.7,1.17.12,1.18.24.01.12.27.12.63-.01.36-.13.68-.38.79-.52.08-.1.17-.17.23-.2.11-.04.21-.05.27-.04.15.02.48.06.85-.08.23-.09.45-.18.67-.27.2-.08.4-.16.61-.24.33-.13.53-.36.43-.51-.07-.11-.13-.21-.18-.27-.21-.3-.75-.31-1.09-.56-.06-.04-.12-.09-.18-.15ZM130.36,50.8c-.25.25-1.16-.22-.81-.56.43-.42,1.11.25.81.56ZM137.05,48.34c0,.12.19.15.43.07.23-.08.27-.23.05-.28-.14-.03-.28-.03-.39.02-.07.03-.09.1-.09.18ZM132.25,41.22c-1.02.41-2.03.82-3.08,1.2-.68.25-1.22.49-1.2.56.01.04.02.08.03.13.03.15.03.31.02.49-.02.27-.06.53-.07.59-.01.06-.07.21-.12.35-.05.14-.03.26.05.29.08.03.66-.09,1.29-.31.63-.22,1.11-.45,1.06-.48-.04-.03,0-.09.13-.09.13,0,.4-.02.59-.1.2-.08.54-.35.83-.52.29-.17.71-.09.88-.16.11-.04.21-.08.31-.12,2.13-.86,4.21-1.7,6.67-2.35.7-.19,1.31-.34,1.34-.37.03-.02.05-.04.08-.05.05-.03.09-.04.13-.04.07,0,.36.02.66-.04.31-.06.64-.27.85-.29.21-.02.37.04.37.05,0,0,.57-.08,1.3-.17,2.03-.26,4.35-.4,7.08-.36.54,0,.99-.43,1-.97,0-.54-.43-.99-.98-1-9.6-.13-14.5,1.85-19.24,3.77ZM141.99,45.23c-.71.13-1.27.45-1.14.64.1.14.22.22.33.24.44.09.55-.58,1.01-.63.38-.04,1.46.56,1.54.93.04.18-.16.19-.28.45-.01.02-.02.04-.03.06,0,.03.56-.03,1.29-.11.68-.08,1.4-.15,2.15-.2.73-.05,1.31-.26,1.36-.49.04-.18.1-.34.17-.38.17-.1.38.07.59.28.27.27.92.48,1.44.48.31,0,.62,0,.94,0,.54,0,.99-.43,1-.97,0-.54-.43-.99-.97-1-3.77-.05-6.81.23-9.4.7ZM149.49,45.31c-.2-.21.18-.44.37-.45.45-.04-.07.76-.37.45ZM137.94,46.96c.17-.05,0-.3-.15-.21-.13.08-.03.27.15.21ZM128.56,51.7c-.16.05-.13.13.03.07.16-.05.14-.12-.03-.07ZM17.65,42.86s-.14.05-.23.02c-.21-.06-.15-.22-.29-.2-.3.04-.15.21-.39.5-.59-.48-.21,1.23.1.21.13-.09.11.2.23.26.21.1.5-.16.75-.2.26-.04.56.19.76,0,.1-.1.02-.38.07-.5-.15.02-.2.14-.32.16-.05.01-.34,0-.45-.04-.09-.04-.12-.18-.22-.22ZM13.19,44.26c.1.15.37.12.56.11-.2-.06-.4-.12-.6-.18,0,.02.02.04.04.07ZM18.86,42.3c-.16-.36-.43.09-.68.14.18.31.4-.12.68-.14ZM109.73,52.59s.02,0,0-.02c0-.02-.02,0,0,.02ZM17.39,45.04c-.47.22.2.84.36.46.03-.08-.17-.49-.26-.53-.05-.02-.1.06-.1.07ZM18.27,45.64c-.41.32.51.31.49.03-.01-.13-.34-.14-.49-.03ZM13.3,39.7c.38.36.49-.41,0,0h0ZM40.74,52.9s-.06-.08-.05-.09c-.05.03-.09.06-.12.09.06,0,.11,0,.17,0ZM.58,42.61c-.12.05-.22.11-.31.2,0,0,.01,0,.02,0,.2,0,.26-.12.29-.2ZM11.52,39.01c-.08.05-.2.2-.07.34.33.37.42-.55.07-.34ZM21.07,43.39c-.07.05-.18.29-.03.33.29.09.36-.56.03-.33ZM14.4,25.24s.01.04.09.07c.08.03.37-.15.22-.17-.04,0-.12.02-.26.08-.02.01-.04.02-.06.03ZM14.4,29.38c.22.37.69-.45.2-.29-.15.05-.3.12-.2.29ZM5.32,32.63c-.2.02-.67-.08-.69.26.35.18.72.31,1.06.52.07-.31.23-.75-.15-.88-.04-.01-.17.09-.22.1ZM15.19,29.02c-.19.23.33.1.19-.05-.07-.07-.13-.02-.19.05ZM4.16,32.3c.26.15.57-.38.43-.63-.18-.06-.67.49-.43.63ZM52.63,28.67c.34-.03.18-.36.58-.3.34.05.59.57.55,1.1.91-.31,1.77-.63,2.61-.96-.01-.03-.01-.05,0-.08.04-.05.14-.05.24-.02.45-.18.89-.36,1.34-.54,4.11-1.66,8.03-3.24,14.92-3.57.73-.03,1.3-.33,1.41-.66.12-.32.41.18.47.32.07.15.46.27.89.27.26,0,.52,0,.78,0,2.77.03,5.11.24,7.16.56.72.11,1.31.17,1.35.19.04.03.08.06.11.06.03,0,.1-.01.15-.07.02-.03.05-.07.07-.11.24-.44-.04-1.11.07-1.38.03-.08.14-.07.25-.11.15-.05-.37-.3-1.08-.42-2.29-.4-4.92-.65-8.07-.69-1.69-.02-3.23.02-4.65.12-.73.05-1.2.3-1.22.54-.01.14-.1.17-.34-.02-.05-.04-.09-.1-.13-.17-.05-.11-.66-.15-1.38-.05-4.5.61-7.68,1.8-10.7,3.01.24.03.5.08.56.14.04.03.27.58.22.66-.22.32-.66-.33-.88-.36.2.03-.93.14-.9.12-.12.07-.06.34,0,.37.04-.05.06-.09.07-.12-.02.1-.04.12-.07.12-.18.22-.69.54-.93.49-.08-.02-.46-.2-.59-.4-1.33.52-2.68,1.02-4.16,1.45.02.01.05.02.07.05.13.1-.16.21.15.33.23.09,1.04.13,1.05.13ZM71.38,23.32c-.05.06-.19-.11-.24-.24-.17-.41.44.04.24.24ZM60.81,19.69c.21-.08.22-.14.03-.11-.16.02-.28.05-.33.08-.04.03-.06.09-.08.17.13-.05.25-.1.38-.14ZM7.04,32.17c-.5.1.04.41,0,0h0ZM15.16,30.74s.12.18.18.07c.05-.09-.18-.2-.18-.07ZM15.43,25.65s.02,0,0,0c0,0-.02,0,0,0ZM56.6,26.29s.09,0,.19-.04c.07-.02.11-.06.15-.11-.12.05-.23.09-.35.14ZM12.96,33.88c-.17.06-.34.19-.31.32.03.14.2.04.37.18.11.08.12.2.21.18.07-.01.34-.37.1-.67-.04-.05-.17-.09-.37-.02ZM10.63,34.58c-.04.39.52.34.57.33.15-.04.64-.48.65-.57,0-.06-.17-.39-.32-.44-.08-.03-.38.04-.48.13-.11.1,0,.16-.08.3-.12.18-.31.05-.33.25ZM8.33,33.15c-.54.26.25.29.3.08.06-.22-.2-.12-.3-.08ZM149.95,9.36c.01.15.19.18.29.03.1-.15.05-.29-.07-.29-.11,0-.23.12-.22.27ZM17.06,37.14c-.17.09-.19-.07-.36.01.05.43.75-.09.55-.34-.21.02-.13.22-.19.33ZM18.21,34.72c.14-.18-.16-.52-.34-.39-.34.25.18.6.34.39ZM9.82,35.91c.21,0,.2.3.39.26.38-.09-.33-.31-.38-.38-.03-.04-.04-.24-.07-.26-.19-.13-.5-.04-.55.03-.03.03-.13.28-.01.4.09.1.48-.04.62-.05ZM8.18,33.91c-.19.21.34.31.4.13.06-.21-.27-.28-.4-.13ZM7.5,32.53c.07.14.49-.08.42-.35-.19.06-.49.22-.42.35ZM9.21,31.04c.21-.19,0-.64-.33-.47-.16.08-.19.2-.17.3-.26-.19-.54-.35-.64-.34-.12.02-.12.21-.14.32.29.04.56.09.83.13.1.13.29.19.44.06ZM10.25,31.17c-.43-.05-.12.76.25.65-.06-.25-.05-.63-.25-.65ZM116.45,18.39c-.15,0-.14.06,0,.05.14,0,.15-.06,0-.05ZM69.99,10.3c-.07-.07-.19-.56-.25-.57-.38-.04-.11.43-.47.58-.44.19-.79-.26-.81-.31-.24-.62.24-.2.94-.53.33-.15,0-.2.37-.28.15-.03.38.22.52.22.06,0,1.17-.65,1.28-.63.6.13.08.64.1.7.04.12.47.5.5.49.19-.02.24-.56.36-.64.13-.08,1.1-.2,1.31-.18.26.02.22.26.35.27.42.04.63-.39.91.02.05.07-.04.15-.15.2-.14.07-.3.13-.3.24,0,.11.15.2.32.2.17,0,.32-.18.37-.4.04-.17.1-.3.18-.36.01,0,.22.03.42.06.24.04.57.17.63.35.06.19.3.35.58.36.28,0,.48-.11.5-.25.01-.1.05-.18.12-.23.02-.02.29.11.51.22.03.01.04.02.07.03-.04-.02.02.06.15.15.12.09.57-.01,1-.13.43-.12,1.13.39,1.85.46,6.16.61,9.82,2.2,13.65,3.86,1.39.61,2.8,1.22,4.35,1.79.68.25,1.19.39,1.13.33-.06-.05.14-.56.68-.49.34.04.71.19.94.23.11.02.48-.14.55-.09.22.14.32.32.36.51.06.35.48.78,1.19.94,2.7.6,5.89,1.01,9.93,1.06.15,0,.3,0,.45,0,.25,0,.53-.12.67-.21.1-.06.19-.09.29-.07.04,0,.2.32.37.27.12-.04-.1-.27-.05-.32.03-.04.12-.04.2-.04.11,0,.24-.16.3-.34.05-.14.11-.29.13-.3.82-.37,1.13.48.81.94-.02.03.04.03.12.03.08,0,.21-.05.3-.07.09-.02.74.01,1.47-.04.23-.01.45-.03.67-.05.72-.06,1.31-.18,1.3-.23,0-.03,0-.06,0-.1,0-.03.13-.13.24-.24.14-.13.17-.26.17-.28,0-.02.12.07.17.28.05.2.5.31,1.06.21.56-.09,1.01-.19,1.02-.21.01-.02,0-.06,0-.1-.01-.04-.07-.09-.14-.1-.06,0-.11,0-.13-.03-.3-.46.25-.49-.67-.63-.27-.04-.42-.34-.47-.34-.48,0-.76.52-1,.41-.14-.07-.06-.24.05-.42.14-.22.17-.39.05-.38-.11.02-.25.04-.29.05-.05,0-.67.07-1.39.14-.59.05-1.21.1-1.85.13-.73.04-1.33.11-1.38.13-.03.01-.06.01-.1,0-.01,0-.03-.02-.05-.03-.02-.02-.47-.03-1-.02-.53,0-.98.22-1.01.5-.03.27-.4.48-.61.15-.21-.33-.8-.68-1.52-.71-4.4-.19-7.64-.82-10.4-1.68-.7-.21-1.42-.2-1.72-.1-.19.07-.38.05-.53-.1-.08-.08-.1-.18-.08-.28.04-.16-.41-.48-1.08-.75-.92-.37-1.81-.76-2.7-1.15-4.68-2.04-9.53-4.15-19.13-4.28-9.31-.12-14.2,1.74-18.81,3.6.29,0,.59.06.66.26,0,.03-.18.22-.34.39-.04.04-.07.07-.09.09.03-.02.06-.06.09-.09,0-.02-.38.23-.42.31-.07.16.29,1.44-.46,1.12-.23-.1-.71-.6-.7-.68.01-.12.07-.86.04-.81.01-.02.06-.08.13-.13-2.6,1.05-5.19,2.03-8.58,2.66-.05.09-.12.2-.2.31-.03.05-.05.08-.07.11.02-.03.05-.07.07-.11,0-.02-.33.3-.34.39-.04.17.57,1.35-.22,1.19-.25-.05-.82-.45-.83-.52,0-.12-.11-.86-.13-.8.01-.05.1-.18.22-.32-2.19.32-4.7.49-7.73.45-9.2-.12-13.66-2.06-18.37-4.11C15.87,9.33,11.03,7.22,1.43,7.09c-.55,0-.99.43-1,.97,0,.54.43.99.97,1,4.58.06,7.99.57,10.84,1.33.7.19,1.42.24,1.65.29.23.05.79.45,1.48.69,1.54.56,2.96,1.18,4.41,1.81.24.1.47.21.71.31.39.17.84.16,1.04.05.13-.07.27-.13.39-.15.85-.13-.06.11.54.32.47.17,1.09-.21,1.38-.14.15.03.07.37.4.43.41.08.1.19-.38.32-.45.12-.28.44.41.68,3.62,1.31,7.99,2.36,14.65,2.45,9.6.13,14.5-1.85,19.24-3.77,3.17-1.28,6.22-2.51,10.62-3.16.72-.11,1.29-.19,1.27-.2,0-.01-.02-.02-.04-.03ZM121.11,17.1c.23.38-.44.27-.4.07,0-.03.3-.22.4-.07ZM120.24,16.83c.38-.54.36.61-.04.25-.04-.04.03-.23.04-.25ZM107.81,17.28c-.32.14-.68.13-.72-.08-.04-.19.2-.33.5-.42.37-.11.63.31.23.5ZM106.75,17.39c.02.32-.52.44-.65,0-.09-.31.63-.26.65,0ZM51.05,14.7c-.08.18-.79-.14-.55-.35,0,0,.69.04.55.35ZM53.19,14.23c-.2.18-.62-.18-.55-.35.06-.16.81.11.55.35ZM21.05,25.85c-.09-.04-.16-.03-.16.03,0,.05,0,.09.01.1.07.04.12.05.17.04.09-.02.07-.13-.03-.17ZM20.38,18.8c.3.01.53.04.52-.02-.01-.06-.01-.12,0-.12.01,0-.08-.05-.21-.1-.08-.03-.15-.07-.23-.1-4.68-2.04-9.53-4.15-19.13-4.28-.55,0-.99.43-1,.97,0,.55.43.99.97,1,8.59.12,13.04,1.81,17.43,3.71.1.04.18.08.27.11.15.07.4-.05.55-.26.13-.18.26-.35.28-.39.03-.07-.04-.38.01-.41.15-.09.34-.11.53-.11ZM13.33,16.27c0-.11.2-.11.31-.13.76-.17-.29.53-.31.13ZM95.41,28.56s.07-.07.06-.1c0-.01-.02,0-.04.03-.03.05-.03.07-.03.07ZM149.33,11.08c.11,0,.33-.1.42-.27.09-.17-.2-.43-.42-.22-.22.21-.12.49,0,.49ZM140.41,12.21s.02.03.07.01c.05-.01.07-.06.03-.06-.04,0-.09.03-.1.05ZM73.04,10.12c.15,0,.14-.04,0-.03-.14,0-.14.03,0,.03ZM70.88,10.28c.15-.01.34-.15.32-.31-.01-.08-.07-.12-.24-.11-.09,0-.15.09-.21.19-.08.14-.01.25.14.24ZM123.67,15.92c.06-.11-.22-.14-.65-.07-.42.07-.79.21-.72.25.03.02.07.03.13.04.24.04,1.04-.08,1.06-.09.11-.03.15-.08.18-.14ZM114.2,32.06c-.16-.14-.38-.21-.64-.18-.19.02-.33.13-.44.28-.18.24-.06.45.26.46.19,0,.37.01.57.01.11,0,.21,0,.31,0,.17,0,.25-.34-.05-.58ZM108.89,37.52s.12.06.16.04c.04-.02,0-.06-.09-.07-.09-.01-.12,0-.07.04ZM110.51,32.17c.08-.09.17-.14.28-.02.01.02,0,.09-.04.19-.04.1.06.18.24.19.18,0,.3-.01.29-.05,0-.02-.01-.05-.02-.07-.04-.38.38-.34.56-.63.11-.17.14-.37.15-.57.02-.33-.45-.62-1.04-.65-.6-.04-1.29.13-1.62.1-.33-.04-.55-.21-.54-.24.01-.02-.56-.11-1.28-.21-1.62-.22-3.07-.52-4.39-.87-.7-.19-1.28-.35-1.29-.33,0,0-.02.02-.03.02-.05.02-.09,0-.12-.02-.05-.05-.63-.29-1.32-.53-.41-.14-.81-.29-1.21-.45-.68-.26-1.21-.46-1.2-.43,0,.02.01.04.02.06.11.24.84.67.25.81-.49.11.09.54-.08.82-.11.18-.04-.28-.33-.25-.27.04-.23.15-.14.27.15.19.4.42.61.5.21.08.38.12.36.09,0-.01-.01-.03-.02-.05-.11-.4.4-.73.32-.16,0,.05-.02.11-.04.17-.03.09.47.37,1.16.6,1.11.38,2.3.73,3.6,1.04.71.17,1.28.26,1.28.25,0-.01-.02-.13-.06-.26-.03-.13-.04-.26.01-.28.05-.03.1-.13.1-.24,0-.11.31-.19.44.2.13.39.37.61.59.62.19,0,.38.03.4.06.01.02,0,.06-.02.1-.03.05.53.18,1.25.27.46.06.94.12,1.44.16.72.07,1.32-.06,1.43-.2ZM100.96,29.59c-.11-.12-.26-.5,0-.65.45-.27.35,1.03,0,.65ZM101.99,30.6c-.12.14-.25-.16-.21-.46.03-.21.08-.41.24-.46.07-.03.16.01.24.07.12.08.59.3.35.39-.1.03-.25.09-.43.2-.04.02-.1.17-.19.27ZM109.79,31.52c.06-.04.12-.06.17-.02.27.21,0,.38-.24.43-.37.08-.01-.36.07-.41ZM97.63,27.72c.05-.15-.41-.47-.99-.71-.35-.15-.7-.31-1.06-.46-2.48-1.08-5.01-2.18-8.26-2.99-.71-.18-1.23.12-1.18.64.04.42.09.81.17.92.11.13.71.06.82.32,0,.02.01.04.01.05,0,.03.58.2,1.28.41.12.04.24.07.36.11.69.22,1.32.31,1.46.31.06,0,.14.03.23.08.05.03.09.06.11.09.04.07.44.29.96.49.51.2.94.23.97.05.02-.15.05-.28.08-.32.03-.04.57-.3.65-.25.17.11.08.28-.04.46-.17.23-.25.44-.24.52.02.08.43.31.93.53.3.13.61.26.91.39.08.03.15.06.22.1.12.06.25-.01.3-.15.05-.13.08-.29.02-.35-.05-.04-.09-.08-.07-.13.05-.18.09-.45.32-.33.33.18-.12.11-.08.41,0,.02.06.07.11.11.07.05.1.16.02.28-.08.12-.17.23-.18.27,0,.03.32.21.72.38.41.17.76.28.8.27.02,0,.05,0,.07-.03.25-.37-.19-.59-.17-.9,0-.01.23.01.25,0,.22-.22-.17-.39-.08-.49.06-.06.15,0,.24.06.12.09.29-.02.34-.17ZM44.73,29.43s-.05,0-.06,0c.01,0,.03.02.04.02.01,0,.01-.01.02-.02ZM48.45,22.22c-.02-.07,0-.26.04-.42-.9.18-1.87.33-2.9.45-.13.23-.34.5-.5.48-.18-.02-.25-.25-.29-.39-1.76.18-3.72.26-5.96.23-7.56-.1-11.92-1.43-15.84-3.04-.67-.28-1.22-.5-1.22-.48,0,.01,0,.02,0,.03-.14.38-.49-.02-.65.02-.21.06-.48.49-.87.72-.15.09-.27.1-.39.13-.22.05-.4.16-.41.17-.02,0,.03.04.1.07.05.02.09.04.13.06,4.69,2.04,9.53,4.15,19.13,4.28,2.38.03,4.46-.07,6.33-.26.06-.02.11-.03.15-.02.81-.09,1.58-.19,2.32-.32-.05-.03-.11-.05-.2-.04-.19.02.06-.12.07-.09,0,.03-.05-.71-.03-.73-.04.07.69-.51,1.11-.83-.07-.06-.13-.08-.11-.03ZM42.71,23.28c0-.11.2-.11.31-.13.76-.17-.29.53-.31.13ZM21.8,26.4c.28.02.3-.1.05-.21-.25-.11-.49-.12-.53-.03-.04.09.2.23.48.25ZM49.73,28.6c-.08.02-.17.04-.25.06.11,0,.1.2.03.33.13-.1.16-.24.23-.39Z"/>
  </g>
</svg>