<?xml version="1.0" encoding="UTF-8"?>
<svg id="Layer_2" data-name="Layer 2" xmlns="http://www.w3.org/2000/svg" viewBox="0 0 25.43 23.85">
  <defs>
    <style>
      .cls-1 {
        fill: #0a3161;
      }
    </style>
  </defs>
  <g id="Ebene_1" data-name="Ebene 1">
    <path class="cls-1" d="M22.24,6.51c.12-.02-.04-.13-.07-.22-.04-.1.05-.4.02-.43-.12-.13-.33,0-.38.1-.06.15.25.59.43.55ZM20.79,4.5c.08-.02.02-.37-.12-.35-.12.02-.05.38.12.35ZM23.15,8.74c.03.05.39.39.45.39.07,0,.45-.25.35-.52-.06-.16-.72-.3-.69-.63,0-.08.16-.25.17-.24-.12-.21-.5.07-.57.06-.31-.02.09.17.17.34.12.22,0,.41.13.61ZM20.21,3.45c-.2.06-.03.15.07.22.41.29.01-.25-.07-.22ZM23.91,9.33c-.27.12.1.55.17.55.41-.02.06-.65-.17-.55ZM24.75,9.13c-.07-.1-.63.15-.46.23.08.03.51-.16.46-.23ZM16.03,1.09c-.02.18-.04.19.1.24.33.12.27-.35.39-.05.11.29.44,0,.62.06.15.04.2.33.37.24.07-.04.12-.27.09-.34-.02-.04-.53-.4-.6-.43-.25-.13-1.06,0-1.08.04-.05.07.12.07.1.24ZM24.41,10.45s.11-.4-.08-.41c-.25-.02-.09.5.08.41ZM15.7,22.65c-.18.11-.15.1-.02.16.47.21.38-.38.02-.16ZM25.39,11.23c-.1-.15-.45.15-.48.13-.12-.09.15-.44-.02-.63-.5-.55-.89.41-.5.68.13.1.14-.07.26.08-.05-.07.19.55.2.57.01.04,0,.45-.02.43.02.04.26-.02.22.14-.01.05-.19.03-.25.1-.09.12.06.23-.09.47-.13.2-.42.28-.46.36-.09.19.19.51.06.65-.04.04-.28-.06-.35,0-.1.06,0,.17-.12.32-.08.1-.25.11-.29.17-.01.02.04.17.02.24-.08.32-.6.73-.69,1.04-.03.1.07.25.04.34-.07.26-.39.42-.42.52-.03.07.1.19.06.3-.06.21-.45.37-.59.63-.12.22-.1.5-.2.71-.13.27-.36.44-.55.7-.1.14-.29.36-.33.44-.15.32.03.66-.15.83-.09.08-.47.03-.49.08-.05.09-.04.23.22.27.15.02.14-.14.31-.2.24-.08.35.17.5-.02.05-.06-.07-.35-.01-.45.08-.13.88-.47,1-.58.35-.32.29-.78.52-1.2.05-.09.21-.18.25-.31.04-.14-.09-.25-.09-.46,0-.14.15-.23.06-.36,0,0-.27-.01-.24-.11.07-.19.01.03.27,0-.05,0,.19-.15.27-.13.02,0,.1.09.12.08.44-.2.15-.47.25-.71.03-.09.14-.11.22-.21.14-.16.22-.42.31-.54.09-.12.22-.13.26-.26.02-.06-.11-.27-.09-.33.03-.11.33-.25.29-.43-.02-.07-.48.01-.26-.21.21-.22.6.28.76.19.15-.09-.09-.34.06-.62.05-.1.17-.16.19-.23.06-.21-.07-.59-.12-.96-.04-.37.02-.56-.04-.74-.07-.2-.28-.17-.19-.38-.07.16.44-.19.33-.36ZM15.19,10.19s.04.03.05-.01c.09-.24-.37.08-.05.01ZM10.11,7.07c-.41.04-.48.08-.81.48-.41.51-.54.9-.82,1.44-.36.69-1.25,1.76-1.11,2.09.13.32.71.33.89.19.1-.08.53-.94.56-1.13.02-.13-.09-.17-.03-.28.03-.08.28-.3.28-.3.08-.03.63.08.58.25-.02.07-.22-.04-.25-.03-.08.05.03.16-.07.31-.05.08-.2.17-.2.17-.01.07.14.26.15.37,0,.05-.06.14-.06.23,0,.2.1.37.06.57-.04.22-.15.37-.15.56,0,.23.14.41.13.61,0,.07-.1.16-.11.24-.02.12.08.28.06.44,0,.07-.09.14-.09.2,0,.16.09.27.05.39-.03.09-.16.17-.16.25,0,.06.13.17.16.29.1.33-.08.95-.06,1.15.02.18.16.18.09.33-.19.39-.89-.04-1.23.12-.53.25-.35.56.02.72.3.12.72,0,1.02-.08.37-.11.78.15,1.2.18.27.02.57-.13.66-.14.13,0,.32.05.43.02.23-.07.37-.47.24-.63-.11-.15-.31-.1-.36-.19-.11-.2.14-.42.13-.66,0-.04-.11-.14-.12-.21-.03-.2.08-.86,0-1.14-.06-.23-.32-.28-.16-.5.03-.04.71-.1.35-.26-.2-.09-.28-.43-.27-.66,0-.06.12-.13.12-.19,0-.05-.12-.25-.1-.37.02-.13.11-.05.07-.17-.05-.15-.2-.16-.22-.28,0-.1.16-.03.18-.27,0,0-.12-.15-.12-.21,0-.07.1-.12.11-.24.01-.12-.12-.18-.1-.24,0-.03.17-.15.19-.23.07-.21-.11-.22,0-.35.03-.03.26-.01.27-.08.03-.14-.22-.26-.26-.35,0-.02.08-.13.07-.18-.03-.18-.24-.36-.25-.43,0-.16.17-.4.17-.46,0-.03-.08-.11-.1-.19-.03-.19.06-.6.03-.78-.13-.6-.83-.37-1.14-.35ZM10.3,9.93s-.12-.12-.08-.15c.08-.06.21.12.08.15ZM14.66.37c-.24-.03-.4-.09-.58-.12-.17-.03-.39-.16-.51-.16-.11,0-.2.07-.31.06-.11-.01-.22-.1-.34-.09-.12,0-.24.12-.35.12-.07,0-.14-.09-.2-.09-.08,0-.2.09-.33.09-.25,0-.44-.11-.57-.07-.06.02-.1.11-.16.11-.28,0-.54-.24-.82-.23-.08,0-.18.12-.31.15-.17.03-.39-.06-.51-.03-.19.04-.36.26-.53.27-.06,0-.14-.11-.18-.12-.07-.02-.3.02-.45.01-.55-.02-.54.02-1,.31-.47.3-1.03.46-1.44.77-.09.07-.16.19-.26.27-.12.08-.32.05-.45.15-.19.14-.38.54-.62.74-.13.11-.31.1-.39.19-.06.07-.03.24-.07.31-.16.25-.46.3-.58.54-.07.14,0,.35-.08.52-.03.06-.14.09-.18.14-.1.12-.16.36-.29.51-.27.31-.25.6-.44.94-.04.06-.16.11-.2.17-.23.32-.36.89-.62,1.27-.1.15-.23.25-.29.38-.06.12-.02.25-.06.36-.12.32-.36.42-.48.66-.07.14,0,.39-.08.52-.05.08-.23.12-.31.19-.31.3-.15.52-.31.94-.16.41-.1.74-.17.99-.01.05-.12.1-.13.13-.16.35.08.45.12.7.01.06-.09.15-.09.2,0,.12.13.31.13.53,0,.18.05.87.13,1.01.04.07.17.09.2.17.01.04-.07.14-.06.23.02.16.16.34.18.47,0,.09-.04.2-.02.3.09.36.54.8.77,1.17.23.37.33.84.59,1.18.06.08.17.11.23.19.05.08.04.22.11.3.05.06.2.09.25.16.08.12.03.28.09.41.06.15.23.24.32.39.24.4.18.76.55,1.11.07.07.19.1.28.18.1.1.14.29.25.43.07.09.22.15.26.21.06.1.01.25.07.36.1.2.69.86.92,1,.08.05.13-.02.2.04.22.2.37.61.74.75.2.08.55-.17.72-.1.06.03.11.22.28.32.07.04.32.02.5.11.13.06.18.18.28.18.12,0,.23-.19.36-.21.17-.02.45.17.76.19.21,0,.39-.08.52-.05.36.07.29.08.55-.04.23-.09.23.02.5.11.11.04.23,0,.3.02.12.05.29.16.37.24.04.04.17.3.2.31.11.03.19-.2.38-.24.13-.03.12.1.19.04.07-.06-.02-.19.05-.28.18-.24.66-.02.9-.03.51,0,.9-.4,1.19-.4.03,0,.18.1.23.11.17.03.64-.11.66-.27,0-.04-.06-.32-.23-.33-.11,0-.11.16-.12.18-.07.13-.17.23-.39.19-.28-.06-.8-.45-.99-.43-.1,0-.2.26-.31.28-.15.03-.04-.13-.33-.17-.15-.02-.33.17-.5.16-.07-.01-.13-.12-.22-.15-.22-.06-.97,0-1.16.03-.16.03-.32.17-.5.15-.13,0-.27-.15-.43-.15-.28,0-.47.16-.69.12-.11-.02-.19-.13-.3-.15-.14-.04-.54-.04-.72-.04-.38.01-.8.02-.92.06-.19.05-.13.17-.26.13-.4-.12-.36-.82-.58-1.13-.04-.06-.14-.08-.18-.12-.2-.21-.08-.41-.17-.55-.09-.15-.25-.15-.39-.34-.08-.12-.09-.4-.17-.55-.05-.08-.14-.1-.19-.17-.1-.14-.14-.4-.23-.59-.04-.09-.16-.14-.17-.2-.03-.1.04-.18,0-.27-.06-.12-.21-.19-.28-.31-.12-.23-.11-.47-.27-.66-.06-.08-.19-.12-.26-.21-.2-.28-.21-.76-.44-1.13-.09-.14-.26-.22-.34-.36-.05-.08-.03-.2-.08-.27-.07-.11-.21-.16-.27-.26-.02-.04,0-.17-.02-.23-.05-.13-.18-.27-.25-.43-.06-.13-.08-.31-.15-.45-.12-.26-.39-.48-.56-.76-.13-.22-.19-.56-.33-.83-.18-.38-.45-.65-.46-.83-.02-.34.37-.83.54-1.23.09-.19.13-.39.24-.64.1-.22.07-.5.1-.55.04-.06.24-.12.28-.17.46-.48.6-1.19.97-1.87.16-.29.4-.54.54-.75.1-.16.04-.36.13-.53.07-.14.31-.31.43-.51.1-.19.09-.37.17-.46.06-.06.23-.08.29-.16.05-.08-.02-.27,0-.35.08-.22.5-.58.75-1.01.07-.12.08-.25.14-.35.04-.06.16-.1.2-.17.22-.36.6-.84.81-1.23.08-.15.07-.34.15-.43.28-.32.88-.21,1.23-.07.09.04.21.15.3.15.08,0,.16-.11.32-.14.2-.04.41.07.51.03.07-.03.09-.11.13-.13.1-.04.11.19.16.02.04-.14-.19,0-.25-.08-.1-.12-.02-.28.1-.29.03,0,.19.35.35.41.05.02.27-.05.37-.02.25.08.3.34.48.27.09-.03-.02-.24.09-.34.04-.03.3.02.4,0,.11-.02.21-.11.35-.12.24-.02.55.19.76.19.1,0,.21-.07.3-.06.15.01.19.13.31.07.19-.1.11-.35.3-.38.1-.02.2.2.36.19.29-.02.14-.28.27,0,.16.35.33.04.59.04.17,0,.15.15.34.09.2-.06.23-.44.37-.5.09-.04.46.22.49.19.01,0,0-.23-.04-.33-.25-.56-.62-.34-.98-.38ZM16.53,9.36c-.39-.1-.3-.16-.38-.43-.04-.13-.22-.51-.25-.56.05.08-.33-.08-.19-.25-.02.02.2.04.19.04.21,0,.44-.46.28-.69-.17-.25-.78-.24-.88-.27-.37-.11-.07-.16-.33.09-.12.12-.14-.04-.22.08-.06.08,0,.16-.07.31-.04.08-.16.12-.22.2-.26.37-.52,1.35-.87,1.86-.19.28-.17.18-.17.46,0,.28-.01.5.28.18.19-.21.41-.98.48-1,.43-.15.24.65.24.64,0,.16.1.31.08.54-.03.46-.14.91-.09,1.21,0,.05.19.47.17.47.41-.08-.08-.63.12-.71.13-.06.72.44.74.48,0,0-.19.3,0,.35.13.03.03-.35.17-.33.11.02,0,.25.04.34.14.31.52.25.6-.04,0,0-.11-.18-.12-.21-.06-.26.11-.29-.06-.31-.36-.03-.18-.15-.08-.27.08-.12-.03-.2.05-.28.03-.03.37-.05.37-.16,0-.07-.33-.13-.37-.24-.02-.07.16-.13.15-.3,0-.13-.11,0-.19-.17.08.17-.42.78-.6.57-.11-.12.24-.32.17-.46-.03-.05-.25,0-.29-.02-.3-.11-.61-.55-.44-.73.28-.3.69.35.78.42.12.1.32.06.39.21-.03-.05.04-.13.02-.16-.03-.04-.16-.03-.17-.07-.01-.04.04-.24.04-.32.02.04.05.09.02.1.13-.04.15.11.23.06.05-.03-.04-.14.06-.23.16-.12.7.27.86.17.08-.06.19-.32.16-.38-.06-.13-.61-.16-.67-.18ZM15.99,10.85c.1.06,0,.12-.08.12-.19,0,.01-.16.08-.12ZM15.18,8.6s.19.36.23.33c-.13.1-.54-.38-.23-.33ZM15.9,15.87s.14-.22.1-.29c-.1-.17-.22,0-.31-.07-.11-.1-.02-.58.03-.64.09-.13.25-.07.34-.17.23-.29.03-.33-.14-.53-.07-.09-.24-.51-.24-.51.02-.07.25.05.29.02.06-.04-.02-.17,0-.27.09-.5-.17-.29-.55-.63-.18-.16-.04-.34-.35-.41-.14-.03-.36.11-.37.15,0,.05.37,0,.37.11,0,.18-.55.26-.62.34-.06.07.04.13,0,.26-.06.26-.03.18.1.38.14.22-.01.17-.14.35-.23.33-.19.7-.21,1.05-.02.3-.11.58-.12.71,0,0,.19.29.01.45-.13.11-.42-.09-.54-.05-.29.1-.3.37-.11.5.15.1.35,0,.62.06.34.08.27.04.54.05.23,0,.21-.04.38-.1.23-.08.38.09.6.09.07,0,.2-.09.38-.1.38-.03.74.16.92-.19.28-.57-.47-.22-.68-.31-.06-.03-.28-.15-.32-.25ZM15.37,16.13c.06.01-.29-.43-.1-.51.24-.1.48.57.1.51ZM16.06,13.02c.23.02.03-.3-.08-.28-.16.03,0,.27.08.28Z"/>
  </g>
</svg>