<?xml version="1.0" encoding="UTF-8"?>
<svg id="Layer_2" data-name="Layer 2" xmlns="http://www.w3.org/2000/svg" viewBox="0 0 101.6 82.1">
  <defs>
    <style>
      .cls-1 {
        fill: #272c49;
      }
    </style>
  </defs>
  <g id="Ebene_1" data-name="Ebene 1">
    <path class="cls-1" d="M71.77,49.6c-.1.05-.19.15-.19.27v.08c0,.11.09.2.2.16.56-.16,1-.77,1-1.46,0-.58-.3-.97-.72-.97-.34,0-.6.3-.6.68,0,.34.21.58.51.57.05,0,.09,0,.14-.02.07-.02.14.04.1.14-.06.23-.23.43-.45.54ZM73.54,20.01s.34.2.33.21c-.04.25-.3,0-.42-.03-.15-.04-.31-.02-.47,0-.11.02-.11.07,0,.1.19.06.37.13.56.2.1.04.19.07.2.06,0,0,.01,0,.02,0,.12-.06.53-.14.61-.11.1.03.14-.08.2-.05.03.02.09.19.14.2.2,0,.41-.29.62-.28.11,0,.09.14,0,.21-.26.16-.59.39-.23.57.2.1.29-.16.52-.25.13-.05.27-.02.37-.04.11-.02.04-.2-.05-.26-.56-.39-1.14-.77-1.75-1.11-.1-.05-.24-.02-.35,0-.16.02-.3-.08-.41.03-.12.12-.04.42.1.57ZM74.05,20.25c-.06-.02-.06-.13.02-.11.08.02.04.13-.02.11ZM71.88,35.11c.16.25.24.51.3.9.02.11.11.2.22.2h.55c.11,0,.2-.09.2-.2v-2.41c0-.11-.1-.2-.21-.2h-.41c-.11,0-.22.1-.25.2l-.04.14c-.03.11-.12.13-.2.06-.52-.44-1.1-.63-1.89-.63-1.16,0-2.03.51-2.44,1.38-.05.1-.07.18-.05.17,0,0,.01,0,.02,0,.1-.02.1.05.06.1-.05.07-.17.09-.2.19-.06.25-.1.52-.09.81,0,.59.15,1.08.45,1.45.29.36.71.58,1.56.79q1.61.43,1.94.56s.06.02.08.03c.04.02.15-.01.23-.08.13-.09.23-.17.26-.17.38.02.11.39.13.42.04.07.34.26.36.25.12-.03.09-.37.16-.43.05-.05.35-.14.58-.21.1-.02.18-.13.16-.23-.13-.63-.47-1.08-1.03-1.36-.43-.21-.73-.29-2.05-.61-1.05-.24-1.4-.49-1.4-.98,0-.63.54-1.07,1.3-1.08.7,0,1.35.36,1.69.93ZM72.48,37.22c.09.07.18.16.18.19,0,.03-.11.09-.21.14-.09.05-.23.04-.27-.07-.08-.21-.14-.53-.01-.51.11.01.23.17.31.24ZM70.23,37.77s-.15-.02-.21-.08c-.22-.2.28-.1.21.08ZM69.42,37.84c-.12-.03-.25-.17-.35-.38-.38-.74,1.12.59.35.38ZM68.64,35.06c-.15.35-.58-.27-.16-.21.13.02.22.09.16.21ZM73.31,39.07s-.09-.03-.13-.03c-.47,0-.92.56-1.26.4,0,0-.01,0-.02-.01,0,0-.02.08-.04.18-.14.46-.6.75-1.24.76-.75,0-1.48-.35-1.82-.87-.15-.23-.25-.48-.36-.98-.03-.11-.13-.2-.25-.2h-.56c-.11,0-.2.09-.2.21v2.5c0,.11.1.2.21.2h.41c.11,0,.22-.09.27-.2l.08-.25c.04-.11.13-.13.21-.06.26.22.53.39.82.51.1.04.12-.02.15-.12.08-.27.83-.25.8.21,0,.03-.02.06-.04.08-.04.04.02.06.13.06.09,0,.19,0,.29.01.04,0,.08,0,.12,0,.07,0,.04-.05-.03-.13-.05-.05-.08-.11-.12-.17,0-.01-.14-.54-.13-.55.19-.11.08.13.26.3.09.08.38.07.41.12.05.06.08.13.11.18.04.11.11.18.21.15.18-.04.35-.1.5-.17.1-.04.09-.14.05-.25-.04-.13-.02-.3.07-.36.16-.11.27-.03.34.1.05.1.11.14.19.06.35-.35.58-.82.67-1.38.01-.11-.02-.24-.09-.28ZM90.64,36.63c.11.04.18-.01.18-.11,0-.1-.11-.17-.21-.13-.14.05-.23.11-.2.18,0,0,.11.03.24.07ZM60.66,59.28c.05.07.15.09.25.05.14-.07.09-.31-.04-.35-.14-.04-.33.15-.21.29ZM75.98,21.63c-.07.09,0,.23.08.3.14.11.28.23.42.34.02.02.03.03.05.04.03.03.1-.03.14-.14.06-.16.11-.37.23-.5.05-.05.18-.08.22-.12.01-.01.03-.03.03-.04.02-.02.02-.05.02-.06,0,0-.01,0-.02,0-.15-.13-.31-.25-.47-.37-.09-.07-.18-.04-.17.08.01.16.06.33,0,.39-.16.17-.4-.11-.54.09ZM61.16,58.52c.12-.2-.53-.27-.26.01.11.11.21.08.26-.01ZM61.62,58.67s.15.18.16.07c0-.1-.06-.28-.17-.11,0,.01,0,.03.01.04ZM75.71,16.27c.11-.02.15.07.07.09-.08.02-.04.1.03.19.14.16.2.46.31.46.25,0,.18-.39.19-.47.05-.22.23-.28.09-.38-.13-.09-.31.19-.4.1-.13-.12.28-.3.08-.43-.06-.04-.3.17-.38.12-.06-.03-.06-.1-.05-.18,0-.11-.02-.23-.09-.26-.07-.04-.13-.03-.17,0-.02.01-.04.02-.08.03-.64.09.23.27.15.57-.09.31.07.21.25.17ZM70.51,44.21s.08,0,.18,0c.1,0,.18-.09.18-.21v-.26c0-.11-.1-.19-.2-.19h-2.16c-.11,0-.19.09-.19.21v.25c0,.12.07.2.15.2h.15c.14,0,.27.03.33.11.04.05.06.1.06.26,0,0,0,.02,0,.05,0,.03.06.08.08.16.02.04.02.09-.02.15,0,.01-.02.03-.03.04-.02.02-.03.11-.04.23v.35c0,.11-.09.2-.2.2h-1.46c-.11,0-.2-.09-.2-.2v-.97c0-.15,0-.2.03-.25.07-.08.19-.13.33-.13,0,0,.07,0,.15,0,.08,0,.15-.09.15-.2v-.25c0-.11-.09-.2-.2-.2h-2.16c-.11,0-.2.1-.2.21v.25c0,.11.08.2.18.2h.18c.14,0,.26.03.32.11.04.06.05.11.05.27v1.68c0,.11.05.18.1.16.04-.01.07-.03.1-.04.05-.02.1-.06.13-.1.07-.05.11,0,.13.11.02.12.05.26.04.27-.06.08-.17.13-.3.16-.11.03-.2.12-.2.24v.79c0,.15,0,.19-.03.25-.05.08-.19.13-.33.13,0,0-.09,0-.19,0-.1,0-.18.09-.18.19v.26c0,.11.09.2.2.2h2.16c.11,0,.2-.09.2-.2v-.26c0-.11-.07-.2-.15-.2h-.15c-.14,0-.26-.04-.32-.11-.04-.05-.06-.1-.06-.26v-1.18c0-.11.08-.2.19-.2h1.46c.11,0,.2.09.2.2v1.18c0,.15,0,.2-.04.25-.06.08-.19.12-.33.13,0,0-.06,0-.14,0-.09,0-.15.09-.15.2v.26c0,.11.09.2.2.2h2.17c.11,0,.2-.09.2-.21v-.26c0-.11-.08-.2-.18-.2h-.18c-.14,0-.27-.04-.32-.11-.04-.06-.06-.1-.05-.26v-3.28c-.01-.15,0-.19.03-.25.05-.08.18-.13.33-.13ZM64.42,45.66h.24c.11,0,.2-.09.2-.2v-1.7c0-.11-.09-.2-.2-.2h-4.06c-.11.01-.2.1-.2.21v1.7c0,.11.09.19.21.2h.24c.11,0,.2-.09.2-.2.01-.35.05-.54.1-.69.12-.36.36-.52.75-.52h.09s.08.09.09.2v3.41c0,.15,0,.2-.03.25-.06.08-.19.13-.33.13h-.26c-.11,0-.2.09-.2.2v.27c0,.11.09.2.2.2h2.41c.11,0,.2-.09.2-.21v-.26c0-.11-.09-.2-.2-.2h-.24c-.14,0-.27-.04-.33-.11-.05-.06-.05-.11-.05-.26v-3.42c0-.11.03-.2.08-.2h.09c.54,0,.83.42.84,1.21,0,.02,0,.06,0,.1,0,.05.09.1.2.1ZM24.49,65.6s.1.01.1-.03c0-.05-.05-.07-.1-.06-.05.02-.04.06,0,.09ZM17.8,56.86c-.04.38,0,.89.35.78.02,0,.04,0,.07-.01.03,0,.03-.08-.02-.17-.1-.2-.2-.41-.29-.61-.04-.1-.1-.1-.11.01ZM15.37,49.94s-.01,0-.02.02c-.11.1-.05.16.04.2.1.05.14,0,.09-.08-.05-.09-.1-.15-.11-.14ZM74.37,20.86s.1.05.14.07c.1.05.11.03.05-.06-.04-.06-.07-.12-.1-.18-.04-.11-.13-.13-.19-.06-.06.07-.02.18.09.23ZM18.77,59.21c.06,0,.13-.12.21-.15.02-.01.04-.01.06,0,.03,0,0-.07-.05-.17-.01-.02-.02-.03-.03-.05-.06-.09-.17-.1-.28-.08-.15.02-.17-.16-.29-.08-.38.23.22.54.37.53ZM16.61,56.46s.03.05.05.03c0,0,.01-.02.01-.04,0-.01-.02-.03-.03-.04-.02-.01-.04.01-.03.04ZM24.89,65.17c.15.04.37,0,.37-.13,0-.13-.19-.16-.35-.1-.1.04-.13.2-.02.23ZM24.04,64.19c.07-.04.05-.12-.04-.18-.08-.06-.16-.1-.15-.09t0,.02c-.05.1-.15.15-.22.27-.04.07.02.19-.06.25-.11.07-.35.01-.41-.07-.11-.17.17-.32,0-.56-.06-.08-.22-.04-.29-.12-.09-.1.02-.44-.18-.59-.07-.05-.41-.04-.54-.15-.33-.26-.43-.8-.79-.71-.13.03-.25.24-.48.34-.39.16,0-.25.05-.32.06-.08.11-.27.18-.42.05-.1.05-.22-.01-.29-.06-.06-.13-.1-.15-.08-.01,0-.03.02-.04.02-.08.03-.17-.03-.26-.02-.25.03-.48.19-.63.12-.22-.1-.14-.37-.29-.47-.04-.02-.12-.03-.22-.02-.11.01-.14.1-.07.19.09.12.19.23.29.34.07.08.23.08.32.15.03.02.04.06.06.1.04.1.09.26.17.34.71.74,1.48,1.44,2.33,2.08.09.07.26.07.35.12.04.02.07.05.1.09.07.09.14.21.19.25.06.05.14.02.2,0,.04,0,.08,0,.12.02.06.02.08.06.08.1,0,.08.05.19.13.25.05.04.1.07.16.1.09.06.23.06.32,0,.07-.05.13-.1.14-.12.14-.17.03-.45.19-.69,0,0,0,0,.01,0,0,0-.06-.06-.15-.12,0,0,0,0-.01,0-.09-.06-.22-.08-.29-.04-.07.04-.18-.03-.11-.08ZM20.53,61.75c.07-.19.33.04.26.14-.08.13-.32.06-.26-.14ZM17.59,56.04c-.04-.1-.08-.21-.11-.33-.31-.91-.55-1.89-.66-2.84-.02-.23-.04-.45-.05-.66,0-.11-.02-.29-.05-.4-.13-.48-.37-.68-.71-1.07-.05-.04-.1-.1-.14-.15-.08-.08-.17-.06-.27-.05-.16.03-.4-.02-.49.07-.08.1.12.2,0,.4-.12.2-.22.17-.28.07-.07-.09-.1-.1-.14,0,0,.02-.02.03-.02.05-.05.1-.01.23.09.28.2.11.4.22.62.32.1.05.23.14.28.22.05.08.06.23.07.32,0,.09.11.2.13.31.04.14.03.35.19.56.05.06.16.1.18.15.05.12-.06.14-.17.14-.11-.01-.2-.03-.2-.02,0,0,0,.04,0,.08,0,.04.04.1.07.14.02.03.04.06.05.08,0,.01-.01.04-.02.07-.02.03-.02.15,0,.26.03.14.06.28.09.42.03.1.11.12.15.02.01-.02.02-.04.02-.06.05-.09.2-.09.23.02.13.36-.47.65-.05.99.17.14.52-.04.7.19.05.06,0,.14.03.26.06.21.32.42.37.58.05.18-.05.32-.16.46-.07.09-.03.1.07.14.05.01.1.05.15.07.11.03.14-.12.11-.23-.04-.16-.07-.37-.04-.54.02-.11.05-.27,0-.37ZM62.3,14.59c.1,0,.25.05.36.04.34-.06.68-.11,1.02-.14.8-.09,1.61-.13,2.41-.14,0,0,.02,0,.02,0,.01,0,.02-.04.03-.09,0-.03.02-.06.04-.08.05-.04.15-.02.25.01.11.03.15.09.12.11-.04.03.03.05.14.05,1.79.04,3.57.3,5.28.83.11.03.21.05.23.03.02,0,.04-.01.05-.02.05,0,.08,0,.1.01.04.03.07.11.18.15.3.1.6.22.9.34.04.02.09.03.13.05.08.03.18-.02.27-.09.08-.05.17-.1.19-.19.02-.1-.12-.38-.23-.5-.08-.09-.24-.14-.31-.22-.07-.08-.09-.22-.19-.26-.2-.07-.4-.14-.61-.21-.11-.04-.17.01-.12.09.05.08,0,.16-.11.18-.07,0-.13.04-.19.08-.08.07-.21.12-.25.02-.05-.14,0-.33.06-.41.02-.02.05-.04.09-.05.05-.03.02-.06-.09-.1-.67-.19-1.35-.36-2.05-.48-.11-.02-.14.04-.06.11.07.08.12.14.11.19-.02.14-.4.23-.43.2-.12-.08.04-.34,0-.44,0-.02-.02-.04-.03-.07-.03-.03-.14-.07-.25-.09-.82-.12-1.67-.2-2.54-.22-.11,0-.22.08-.3.13-.06.03-.12.03-.15-.03,0-.02,0-.04.01-.06.02-.03-.03-.04-.12-.04-.06,0-.11,0-.17,0-.21,0-.44,0-.65.01-.11,0-.24.02-.29.03-.06,0-.18-.02-.3,0-.42.02-.85.05-1.28.09-.72.08-1.47.21-2.22.39-.11.02-.18.06-.17.08,0,.01.01.01.02.03.04.04.09.04.13.04.08,0,.02.08-.06.14-.16.12-.25.32-.17.5.04.1.1.26,0,.28-.07.03-.15,0-.18.12,0,0,0,0,0,0,0,0,.08-.02.19-.05.3-.08.61-.15.92-.21.11-.02.18-.04.17-.05-.01,0,.02-.1.11-.11ZM72.52,15.01c.09-.06.14.11.09.15-.05.04-.16-.11-.09-.15ZM70.34,14.1c.03.07-.11.11-.12.04,0-.07.09-.11.12-.04ZM65.08,13.88c.3.02.18.35.03.34-.14,0-.27-.36-.03-.34ZM63.89,14s.12,0,.13.06c.03.18-.33-.03-.13-.06ZM73.09,19.8c0-.05-.05-.11-.13-.1-.2.03.11.28.13.1ZM71.08,21.42s.02,0,.03,0c.1.05.14-.1.05-.16-.01,0-.02,0-.03-.02-.1-.04-.14.11-.04.17ZM3.55,42.93s.09.05.14.07c.1.05.24.02.29-.07.03-.06.06-.12.08-.19.03-.11-.05-.13-.15-.09-.11.04-.24.07-.36.1-.11.04-.11.12,0,.17ZM25.29,60.47c.09-.11.19-.22.23-.36,0-.02-.02-.04-.04-.08-.03-.04-.11-.12-.2-.19-.06-.05-.12-.1-.18-.15-2.07-1.68-4.1-4.6-4.18-7.48,0-.11-.03-.25-.05-.34-.02-.07-.02-.12,0-.15.06-.08.38.05.44.12.13.15.09.27.24.26.11,0,.14.03.1.13-.04.11-.08.24-.19.26,0,0-.29-.11-.37-.17-.02-.02-.04-.05-.06-.09-.03-.05-.03,0,0,.09.85,2.97,3.05,6.09,6.35,7.4,1.79.71,3.72.97,5.5.85,2.13-.15,4.4-.86,5.78-2.6,1.21-1.52,1.59-3.34,1-4.89-.44-1.17-1.39-1.98-2.6-2.19-1.29-.23-2.49.08-3.28.86-.16.17-.3.35-.42.54-.06.09-.11.18-.12.19,0,0-.07.09-.12.19-.54,1.06-.56,2.7.73,3.49,1.26.78,2.71.25,3.04-.9.33-1.15-.08-1.86-.71-2.26-.48-.31-.78-.74-.08-.85.7-.11,2.55.5,2.74,2.31.02.94-.33,1.96-1.03,2.84-.98,1.24-2.77,1.98-4.79,2.18-.11,0-.29,0-.39-.02-1.19-.32-2.38-2.31-3.28-3.79-.31-.51-.59-.99-.84-1.35-.57-.82-1.22-1.11-1.76-1.11-.21,0-.42.05-.58.12-.73.32-1.11,1.2-.91,2.09.11.47.09.87-.06,1.08-.02.03-.08.11-.23.17-.1.04-.25,0-.32-.09-1.69-1.77-2.58-4.03-2.85-5.74-.02-.11.05-.23.14-.28.21-.1.41-.24.58-.39.48-.41.85-1.02,1.06-1.71.04-.1.06-.19.06-.19,0,0,.01-.03.02-.08.01-.02.01-.05.03-.08,0-.04.01-.1.03-.14.69-3.15-1.05-5.47-2.39-6.71-.08-.08-.15-.18-.15-.24,0-.06.06-.16.14-.23,1.35-1.27,3.11-3.63,2.34-6.83-.03-.11-.05-.19-.06-.19,0,0-.04-.08-.07-.19-.22-.66-.59-1.25-1.06-1.65-.19-.16-.39-.3-.61-.41-.1-.05-.17-.17-.16-.28.22-1.74,1.1-4.12,2.86-5.97.07-.09.22-.14.33-.1.15.07.21.14.23.18.15.22.18.61.07,1.09-.2.89.19,1.77.92,2.08.17.07.37.11.58.12.54,0,1.19-.3,1.76-1.12.25-.37.53-.83.84-1.34.89-1.5,2.07-3.49,3.26-3.81.1-.03.28-.04.39-.02,2.03.18,3.81.92,4.8,2.15.71.87,1.07,1.89,1.04,2.83-.18,1.81-2.03,2.44-2.73,2.33-.7-.11-.4-.54.07-.86.63-.41,1.03-1.12.69-2.26-.34-1.15-1.78-1.66-3.04-.88-1.29.8-1.25,2.45-.71,3.5.05.09.11.18.12.19,0,.01.07.1.12.19.11.19.25.37.42.54.8.78,1.99,1.08,3.29.84,1.21-.22,2.15-1.03,2.59-2.21.57-1.54.18-3.36-1.03-4.88-1.39-1.73-3.66-2.43-5.8-2.57-1.79-.12-3.71.16-5.5.88-3.38,1.36-5.59,4.61-6.38,7.66-.03.11-.04.1-.04,0,.12-2.83,2.1-5.7,4.13-7.38.45-.37.91-.71,1.38-1.03,2.81-1.67,6.78-2.13,9.4-1.58,1.41.29,2.78.83,3.93,1.7,1.16.87,1.87,2.13,3.29,2.64.1.04.2.06.3.09.1.02.19.05.19.05,0,0,.08.03.19.06.73.17,1.41.21,2.05.16.11,0,.21-.03.21-.04,0,0,.02,0,.02,0,0,0,.09,0,.19-.02.11-.02.21-.09.26-.1.02,0,.06,0,.1,0,0,0,0,0,.01,0,0,0,.1-.01.2-.04.12-.03.24-.07.35-.1.1-.04.14-.07.07-.09-.06-.01-.1-.03-.11-.03-.09-.09-.02-.48-.23-.66-.07-.07-.2-.09-.22-.13-.05-.07,0-.19-.02-.29-.01-.07-.03-.12-.05-.16-.04-.08-.16-.09-.25-.04-.55.32-1.25.49-1.91.5-.36,0-.7-.05-1-.16-1.09-.4-1.79-1.24-1.98-2.06-.18-.82.12-1.67.76-2.15.31-.24.67-.36,1.03-.36.27,0,.55.07.82.21.21.12.3.39.18.6-.08.15-.23.24-.39.24-.07,0-.14-.02-.21-.05-.14-.08-.28-.11-.4-.11-.23,0-.39.1-.49.17-.3.24-.55.71-.43,1.26.12.53.75,1.14,1.43,1.26.19.04.44.09.74.09.36,0,.76-.09,1.18-.39.78-.58,1.14-1.34,1.13-2.29-.02-.91-.44-1.73-1.13-2.2-.65-.44-1.27-.63-1.88-.63-.23,0-.46.03-.69.09-.77.2-1.55.78-2.04,1.63-.06.09-.18.12-.27.07l-.47-.28c-.7-.42-1.67-.65-2.46-.8-.8-.16-1.61-.23-2.42-.23-4.01.02-8.01,1.9-11.05,4.4-2.47,2.02-4.7,5.49-4.53,8.84l.03.54c0,.11-.08.2-.19.2-.98.04-1.9.38-2.42.98-.57.63-.79,1.53-.68,2.61.1.82.62,1.57,1.42,2.01.44.25.93.37,1.42.37.43,0,.87-.1,1.28-.3.85-.41,1.07-1.17,1.12-1.59.09-.71-.15-1.47-.56-1.82-.26-.22-.56-.3-.83-.3-.18,0-.35.04-.49.1-.18.08-.48.29-.48.75,0,.25-.2.45-.44.45-.25,0-.45-.2-.45-.44,0-.69.37-1.28.99-1.57.27-.13.56-.19.85-.19.5,0,1,.18,1.41.52.65.55,1.03,1.69.91,2.71-.13,1.03-.95,2.08-1.92,2.49-.54.22-1.13.34-1.72.34-.58,0-1.18-.11-1.73-.33-1.26-.52-2.26-1.59-2.49-3.14-.19-1.33.39-2.7,1.1-3.41.33-.39.58-.59.7-1.07.03-.1.05-.28.06-.39,0-.21.02-.44.05-.67.1-.96.33-1.94.65-2.85,1.68-4.98,5.87-8.62,10.64-10.59,2.32-.96,4.82-1.38,7.32-1.38.8,0,1.61.04,2.41.11,1.23.13,2.5.41,3.67.78.22.07.4.1.56.1.29,0,.55-.08.91-.17.38-.09.76-.14,1.15-.15.82,0,1.64.22,2.38.75.24.17.44.35.62.56.08.08.13.14.13.13,0,0,0-.01,0-.02.03-.16.18-.16.26-.13.13.05.1.15.02.22-.08.07-.12.15-.06.24.19.28.34.58.45.89.03.11.16.19.25.27.03.02.04.05.04.07,0,.11-.14.15-.11.25.08.39.12.79.12,1.19,0,.8-.23,1.55-.69,2.19-.07.09-.1.19-.09.24,0,.04.1.09.2.05.15-.04.2-.1.34.03.09.09-.05.13.02.3.03.08.12.1.13.15.02.08-.06.18-.03.26.03.09.17.29.21.32.04.03.09.04.14.06.08.02.05.11-.03.18-.07.06-.14.11-.2.1-.23-.03-.23-.35-.39-.51-.16-.15-.47-.2-.52-.39-.01-.05.02-.1.05-.16.05-.08-.06-.11-.15-.09-.08.02-.18.02-.21.05-.03.03-.06.06-.06.06h0c.02.14-.22.19-.14.35.06.13.16.09.28.12.11.03.18.17.13.24-.06.06.06.19.15.13.1-.08.16-.25.29-.08.08.11-.17.29-.15.47,0,.06.18.11.21.16.02.04.03.08.02.13,0,.07.05.1.15.05.71-.32,1.33-.73,1.85-1.17.08-.07.1-.1.04-.07-.05.02-.09.03-.12.03-.2-.02-.43-.31-.4-.39,0-.02.74-.04.53-.26-.08-.08-.11-.21,0-.2.16.02.4.13.46.02.08-.14-.16-.17-.27-.29-.03-.03-.1-.24-.18-.25-.14-.02-.35.2-.45.39-.06.1-.11.14-.14.09-.04-.06-.11-.05-.14.01-.02.04-.04.08-.06.11,0,0,0,0-.01.02,0,0-.04.04-.07.07-.05.03-.06.11-.05.18.02.06.02.1,0,.12,0,0-.11.02-.22.03-.11,0-.23.03-.28.06-.04.03-.07.03-.04,0,.02-.03.04-.06.04-.06t0,0c-.22-.16.07-.3-.01-.46-.08-.15-.81-.26-.35-.56.02-.02.07,0,.12,0,.06.03.2.03.31,0,.04-.01.1-.03.15-.04.11-.01.14-.04.17-.14.02-.07.06-.13.08-.2.03-.11.06-.22.16-.28.02-.02.05-.03.08-.05.09-.06.15-.12.16-.12,0,0,.02-.08.04-.2.05-.26.07-.53.07-.81,0-.63-.09-1.23-.25-1.77-.03-.11-.14-.14-.25-.13-.13.02-.25.02-.34.09-.09.07-.2.15-.27.06-.15-.18-.1-.52-.24-.65-.06-.06-.14-.04-.2-.04-.11,0-.05-.17.03-.25.06-.06.09-.13.11-.2.02-.11.05-.14.09-.04.02.08,0,.14.12.18.29.12.82-.59.39-.84-.18-.11-.38.15-.6.04-.05-.03-.25-.24-.17-.37.07-.12.18-.02.3-.06.18-.07.24-.31.39-.36.07-.03.24.08.32.07.04,0,.07,0,.09-.02.05-.02.07-.1.07-.16,0-.04,0-.07,0-.11,0-1.05.85-1.91,1.9-1.92,1.06,0,1.92.85,1.92,1.91,0,.71-.38,1.33-.96,1.67-.09.06-.14.14-.13.21,0,.04,0,.08-.03.12-.05.1-.21.03-.31.14-.17.19.18.79-.3.55-.11-.06-.1-.22-.29-.26-.16-.04-.28.16-.42.13-.27-.07-.47-.55-.54-.58-.11-.04-.28.15-.41.18-.1.03-.13,0-.13.11h0c0,.12-.02.22,0,.24.03.02.08.13.11.23.23,1,.4,1.9.22,2.86-.02.11,0,.21.03.24.02.02.04.04.06.06.11.13.04.29.12.38.07.07.17,0,.27.08.07.05.07.22.12.26.05.03.12.02.18.01.1,0,.07.13.03.23-.05.12,0,.26-.07.43-.01.02-.02.04-.04.06-.02.03.03,0,.11-.09.13-.12.25-.25.36-.37.08-.09.2-.09.27,0,.75.81,1.91,1.81,3.43,2.31.1.04.2.06.21.06,0,0,.02,0,.02,0,.02,0,.02,0,.03.01.02,0,.11.04.22.07.46.12.97.18,1.49.18.31,0,.62-.03.95-.08.11-.01.21-.09.27-.11.02,0,.06,0,.1,0,.02,0,.03.01.05.02.01,0,.11,0,.2-.03.09-.02.16-.05.15-.05,0,0,.09-.03.19-.06.11-.02.21-.05.31-.08.18-.07.36-.15.53-.24.09-.06.2-.15.26-.18.05-.04.18-.1.27-.16.73-.53,1.33-1.22,2.03-1.79.18-.15.36-.29.55-.42.09-.07.11-.2.12-.31.02-.14.14-.27.34-.17.02.01.04.02.06.04.03.03.12,0,.21-.05.86-.52,1.79-.89,2.79-1.1,1.16-.25,2.59-.3,4.07-.13.11,0,.26-.04.34-.12.06-.05.1-.1.12-.15.09-.18.08-.32.21-.38.1-.04.25-.06.36-.05.07.01.13.05.13.11-.01.17-.3.13-.32.21-.06.25.22.03.31.02.04,0,.11.06.19.06.2.04.51-.05.61.02.22.15.16.34-.02.48-.08.07-.08.12.03.15,0,0,.01,0,.02,0,.11.03.18,0,.18-.08,0-.05.02-.09.04-.12.13-.16.35.07.53-.16.06-.08-.03-.22.03-.31.07-.11.42-.12.51-.35,0-.01.01-.03,0-.05,0-.03-.09-.09-.18-.14-1.19-.56-2.43-.99-3.71-1.27-.11-.03-.24.04-.33.09-.09.05-.2.06-.23-.05-.01-.03,0-.06,0-.08.01-.04-.04-.08-.15-.1-.76-.13-1.54-.2-2.31-.2-.81,0-1.62.08-2.42.25-.34.07-.72.15-1.09.26-.1.03-.14.14-.16.25-.03.09-.09.19-.11.27-.04.12-.03.21-.06.24-.15.11-.32.04-.51-.04-.1-.04-.1-.11-.03-.19.02-.03.04-.05.05-.07.06-.09-.05-.15-.15-.11-.15.07-.28.14-.41.22l-.35.21c-.09.06-.23.18-.34.2-.09.01-.2,0-.24-.04-.08-.06-.11-.18-.09-.29.02-.1.03-.25-.04-.34-.07-.09-.15-.17-.23-.25-.08-.08-.2-.09-.29-.06-.05.02-.1.02-.16,0-.18-.08-.12-.21-.24-.22-.1,0-.61.61-.84.18-.14-.27.26-.35.43-.45.02-.02.05-.04.08-.06.04-.04-.01-.12-.11-.16-.13-.06-.25-.1-.37-.12-.23-.06-.46-.09-.69-.09-.61,0-1.23.21-1.88.65-.39.26-.68.64-.87,1.08-.05.09-.02.11.08.05.03-.03.06-.04.09-.05.11-.03.09.15-.01.19-.02.01-.03.02-.05.02-.1.03-.22.11-.25.21-.06.22-.1.45-.1.69-.01.96.36,1.72,1.13,2.29.42.3.83.39,1.18.38.3,0,.56-.06.75-.09.57-.11,1.12-.57,1.34-1.04.05-.1.03-.17-.02-.15-.05.02-.18.02-.23-.09-.03-.07-.04-.14-.01-.2.04-.11.23-.11.32-.2,0,0,.02-.02.02-.03,0-.02,0-.09-.01-.17-.02-.08-.07-.12-.11-.1-.04.01-.07-.06-.09-.17h0c-.03-.11-.08-.24-.13-.29-.03-.04-.06-.07-.1-.09-.1-.08-.27-.17-.49-.17-.12,0-.25.04-.4.11-.06.04-.14.05-.2.05-.16,0-.31-.09-.39-.24-.06-.1-.07-.23-.03-.34.03-.11.06-.19.01-.22-.05-.03-.07-.05-.08-.06-.01-.02.11-.34.16-.37.15-.1.34.06.4.07.19,0,.2-.12.41-.06.03,0,.09.04.15.08.08.05.21.13.32.15.24.05.47.16.68.31.64.48.95,1.33.77,2.15-.17.83-.87,1.67-1.97,2.07-.3.11-.65.16-1,.16-.78,0-1.61-.25-2.2-.67-1.04-.73-1.6-1.85-1.6-3.07,0-1.11.28-2.24,1.08-3.12.08-.09.05-.16-.05-.2h0c-.1-.04-.14-.2-.03-.22.07-.01.14,0,.21.02.1.04.21.07.3,0,.06-.05.12-.11.19-.15.73-.54,1.56-.75,2.37-.76.01,0,.02,0,.03,0,.02,0,.06-.06.12-.05.03,0,.06,0,.1.02.02,0,.02.01.04.02.02.01.11.03.21.04.1,0,.16-.07.07-.14-.11-.09-.27-.18-.35-.31-.07-.1-.03-.25-.09-.31-.12-.16-.37-.2-.51-.33-.08-.08-.16-.19-.21-.14-.05.06-.19.09-.23-.01-.04-.08-.02-.19-.07-.25-.1-.14-.3-.17-.31-.28,0-.01,0-.03.01-.04,0-.02-.06-.07-.16-.1-.24-.09-.48-.17-.72-.24-.98-.27-2-.34-3.09-.32-.11,0-.12-.04-.02-.08,1-.47,2.19-.53,3.28-.24.23.06.45.13.66.23.1.05.17.03.18-.03,0-.03.02-.06.05-.09.12-.14.36-.04.58-.01.07.01.16-.04.18-.02.04.02.26.13.1.24-.05.04-.11,0-.16-.03-.09-.05-.2.11-.09.13.09.01.21-.02.25.02.09.08.09.15.04.21-.07.08-.08.18,0,.25.35.27.66.6.91.96.06.09.03.13-.06.06-.38-.23-.75-.44-1.12-.63-.1-.05-.17-.06-.16-.03,0,.02.02.03.04.05.11.14.36.08.57.22.17.12.56.48.6.66.01.05-.08.21-.03.26.1.12.33-.01.43.13,0,0,0,.06,0,.14,0,.08.01.14.03.15.01,0,.02,0,.03,0,.36.09.61.17.9.17.17,0,.34-.03.56-.1.14-.05.29-.09.43-.13.11-.03.17-.11.16-.17,0-.04,0-.09.01-.12.04-.11.13-.06.14-.18,0-.06-.1-.18-.13-.26-.02-.08-.02-.15-.03-.21,0-.11-.1-.18-.2-.15-.08.02-.15.04-.23.06-.11.03-.23-.02-.29-.11-.12-.21-.26-.42-.4-.61-.06-.09-.15-.12-.19-.1-.02,0-.05,0-.09,0-.04-.02-.06-.07-.06-.12,0-.08-.02-.2-.1-.28-.92-.98-2.14-1.65-3.59-1.92-.43-.08-.85-.12-1.26-.12-.11,0-.16-.08-.12-.18.72-1.75.36-3.93-1.09-6.26-.82-1.31-1.34-2.87-1.58-3.68-.14-.49-.39-.73-.74-.74-.34,0-.59.25-.74.74-.23.81-.75,2.37-1.56,3.68-1.44,2.34-1.78,4.52-1.05,6.27.04.1-.01.18-.12.18-.42,0-.84.05-1.26.13-1.93.37-3.47,1.45-4.41,3.05-.05.09-.18.15-.29.12-1.13-.33-2.28-.56-3.36-.67-.84-.08-1.69-.13-2.52-.12-2.78,0-5.38.5-7.72,1.47-5.51,2.28-9.61,6.37-11.24,11.24-.36,1.06-.59,2.09-.69,3.08-.02.22-.04.45-.05.66,0,.11-.02.25-.04.31-.02.06-.14.14-.24.19-2.42,1.13-4.01,3.1-4.48,5.57-.11.56-.14,1.12-.12,1.67,0,.11-.08.16-.18.12-1.74-.68-3.87-.31-6.17,1.11-1.32.82-2.87,1.35-3.68,1.58-.49.15-.73.4-.73.74,0,.35.25.6.74.74.22.07.51.16.83.27.1.04.18,0,.16-.09,0-.06-.02-.11-.05-.14-.04-.05-.09-.05-.14-.06-.08-.01-.03-.16.02-.26.11-.22.17-.51.37-.41.1.05.21.06.29-.02.07-.07.15-.13.21-.1.11.04.18.12.28.1.1,0,.13-.08.15-.19.03-.2.22-.37.32-.13.05.09-.17.27-.13.42.02.11.19.08.27,0,.07-.06.13-.08.21.01.17.21-.28.3-.29.33-.04.09.07.39.17.4.35.07.59-.84.56-.96-.04-.17-.21-.21-.08-.34.1-.1.15.1.3.07.13-.03.13-.25.26-.14.12.1-.42.41-.41.5.02.12.43.3.51.27.02,0,.05-.04.08-.07.04-.05.03-.1,0-.1-.03,0-.02-.03.04-.05.05-.01.13-.06.17-.08.05-.02.18-.03.28-.05.83-.21,1.66-.28,2.49-.29.95,0,1.9.08,2.85.38.11.03.11.09,0,.12-.2.06-.4.11-.6.16-.1.03-.17.05-.14.08.03.03-.02.13-.13.14-.02,0-.04,0-.07,0-.11-.02-.23-.11-.34-.1-.52.07-1.04.1-1.57.11-.79,0-1.58-.06-2.38-.25-.11-.02-.17,0-.14.08.02.05.03.09.03.12,0,.11-.12.14-.06.25.1.17.46.14.65.3.15.12.18.26.24.38.04.1.02.19-.09.17-.19-.03-.34-.12-.44,0-.3.39.47.22.54.26.07.04.07.24.13.31.18.17,1.11-.16.84.33-.04.05-.09,0-.12,0-.32.03.02.42-.11.53-.09.08-.2,0-.31-.11-.08-.08-.04-.2-.04-.31.01-.12-.2-.18-.36-.26-.1-.05-.17-.02-.24.07-.22.33-.48-.58-.74-.56-.18,0-.31.38-.26.46.07.18.33.16.41.24.07.09-.01.19,0,.19,0,0,.09-.02.19.01.06.02.12.06.16.1,0,0,.01.02.02.04.01.02.11.07.2.12.64.3,1.27.5,1.87.62.1.02.19,0,.19-.03,0-.02,0-.04,0-.06.07-.19.21-.14.27-.03.05.1.08.2.2.21.19.02.38.04.56.04.64,0,1.23-.13,1.79-.35.1-.04.18.01.18.12-.01.53.03,1.08.14,1.62.05.25.11.51.18.75.03.1.07.19.09.19,0,0,.02,0,.03,0,.46-.12-.1-.53.15-.63.19-.07.2.37.1.61-.04.1-.05.18.01.26.18.21.29.56.12.64,0,0-.02,0-.04-.01-.03-.01-.02.06.03.15.04.09.17.13.27.08.1-.05.2-.08.29-.1.11-.02.08.02.02.1-.09.14.12.34.1.51-.01.11-.07.22.02.25.05.01.1.02.14.07.02.03.06.19.11.21.07.03.45-.17.51.04.03.1-.07.19-.21.27-.03.02-.07.04-.11.05-.07.02-.06.09,0,.17.17.18.34.35.53.52.08.07.17.04.12-.06-.05-.09-.12-.19-.02-.29.26-.27.38.17.54.37.07.09.06.02.09-.09,0-.07.16-.06.28-.17.06-.05.08-.19.13-.21.16-.06.34.16.46.03.19-.2-.2-.45-.08-.62.04-.07.1-.1.15-.1.1,0,.14-.02.11-.13-.17-.55-.24-1.16-.16-1.76.22-1.56,1.21-2.63,2.48-3.16.55-.23,1.13-.34,1.72-.34s1.18.11,1.73.33c.97.4,1.8,1.45,1.93,2.48.05.34.03.69-.03,1.04-.02.07-.02.14-.05.21-.14.6-.43,1.13-.81,1.46-.4.35-.9.52-1.4.52-.3,0-.59-.06-.86-.18-.62-.29-1-.87-1-1.56,0-.25.2-.45.44-.45.25,0,.45.2.45.44,0,.46.3.67.48.76.14.06.3.09.48.09.04,0,.09,0,.13,0,.07,0,.1-.05.08-.09,0-.03,0-.06,0-.08.02-.12.08-.12.14-.07.08.07.16.15.26.1.08-.04.15-.09.22-.15.41-.35.64-1.12.55-1.82-.05-.42-.27-1.18-1.13-1.59-.41-.19-.84-.29-1.28-.29-.49,0-.97.13-1.41.38-.79.44-1.32,1.2-1.41,2.03-.12,1.07.12,1.97.68,2.6.53.59,1.45.93,2.43.97.11,0,.2.09.19.2l-.03.54c-.16,3.25,1.95,6.59,4.33,8.62.08.07.16.13.17.14,0,.01.03.03.04.04,0,0,.02.02.03.02.04.03.08.07.12.1.07.05.12.04.1-.03,0-.08,0-.15.02-.15.02,0,.06.09.1.2,0,0,0,.01.01.03.04.1.12.25.21.31.05.04.11.08.16.12.08.06.16.11.16.1t0-.02c-.02-.2.14-.37.04-.47-.08-.08-.14-.15-.07-.23ZM26.33,55.69c.4.33,1.48,1.3,1.91,2.9.03.11-.04.17-.14.14-.23-.07-.65-.22-1.18-.5-.49-.26-.8-.5-.97-.64-.09-.07-.09-.2-.03-.29.24-.35.41-.98.29-1.55-.02-.1.02-.13.11-.07ZM28,23.12c.1-.03.17.04.14.14-.42,1.6-1.49,2.59-1.89,2.92-.09.07-.13.03-.11-.08.11-.56-.06-1.18-.3-1.54-.07-.09-.06-.21.02-.29.17-.14.48-.38.97-.65.53-.29.95-.44,1.18-.51ZM46.48,23.45s.08-.01.1.04c.02.07-.15.43-.22.44-.34.09-.26-.68.12-.48ZM43.99,18.11c.28.03-.12.33-.15.09-.01-.14.1-.09.15-.09ZM48.8,22.71c.11.03.22.05.28.11.07.08-.07.12-.18.08-.09-.03-.19-.05-.25-.1-.08-.07.04-.12.15-.09ZM48.64,18.78c.22-.03.06.41-.06.4-.2-.01-.12-.38.06-.4ZM49.56,18.54c-.09-.05.01-.05,0-.16,0-.15-.15-.37.15-.26.37.15.01.5-.16.42ZM50.35,20.5l-.03.04c-.07.1-.16.21-.26.33-.07.08-.11.07-.08-.04.24-.97.17-1.86,0-2.81-.02-.11.04-.17.16-.15.02,0,.03.01.05.01.11.02.2.12.2.23v2.15c0,.11,0,.22-.02.24ZM66.63,19.13c.08-.03.16.06.16.12-.04.17-.35-.05-.16-.12ZM60.69,22.03c-.16.07-.56-.47-.1-.25.08.04.27.17.1.25ZM60.84,20.91c.1.04.11.18,0,.18-.15,0-.32-.1-.28-.19.03-.07.16-.04.28,0ZM61.2,19.74c-.15.17-.33-.27-.1-.24.05,0,.17.17.1.24ZM61.43,18.97c.09-.06.12-.15.14-.14.02,0,0,.1,0,.21,0,.01,0,.03,0,.04,0,.11-.12.24-.22.27-.08.04-.15.06-.2.05-.14-.03-.44-.28-.38-.42.12-.26.46.13.68-.01ZM60.68,19.57s-.04,0-.05,0c-.11-.02-.1-.19,0-.19.01,0,.02,0,.03,0,.11,0,.13.19.02.19ZM57.07,18.27c-.12.36-.5-.28-.08-.1.05.02.11.03.08.1ZM59.47,18.42c.1.02.12.18.03.23-.19.1-.48.09-.51-.09-.03-.17.28-.2.48-.14ZM60,22.08c.16.01.29.27.12.34-.15.05-.35-.35-.12-.34ZM58.59,23.89c-.02.11-.16.15-.24.08-.17-.15-.26-.37-.19-.5.21-.38.46.09.43.42ZM56.81,24.15c.2-.04,0,.26-.08.11-.03-.06.04-.1.08-.11ZM56.69,23.72s.02.05-.04.06c-.02,0-.07-.05-.09-.09-.04-.07.12-.03.14.03ZM56.03,13.67c.08,0,.14.01.13.1-.03.18-.38-.1-.13-.1ZM55.38,13.34c.06-.16.19-.09.3-.02.36.25-.43.36-.3.02ZM54.86,14.54c.09-.06.13.15.05.16-.11.02-.07-.14-.05-.16ZM54.65,13.97c.21.08.22.31.09.36-.31.14-.51-.5-.09-.36ZM54.14,14.41c.05,0,.12.07.04.11-.05.03-.16-.11-.04-.11ZM51.19,22.12c-.04-.09.12-.17.16-.15.17.02-.09.33-.16.15ZM51.43,20.18s-.03.05-.04.06c-.03.04-.03.15-.01.26.01.08.03.14.04.22.02.11,0,.12-.08.04-.02-.02-.04-.04-.05-.06-.07-.09-.13-.15-.14-.14,0,0,0,0,0,.02-.14.24-.17.59-.42.5-.17-.06-.1-.2-.1-.33-.01-.11-.01-.17.08-.22.1-.06.18-.16.25-.28.05-.09.09-.26.09-.37v-1.75c0-.11.08-.21.19-.22.02,0,.03,0,.05-.01.11-.02.17.04.15.15-.08.42-.14.83-.14,1.24,0,.11,0,.19,0,.19,0,0,.09.04.2.02,0,0,.01,0,.03,0,.1-.03.26-.04.21.05-.04.08-.12.17-.17.29-.05.1-.06.26-.12.36ZM51.48,19.02c.02.08.16.07.25.03.09-.04.12.13.01.15-.14.03-.34-.03-.4-.13-.06-.09.11-.15.14-.06ZM53.2,18.61s.14.18-.04.22c-.07.01-.14-.26.04-.22ZM52.92,18.93s.09-.04.11-.04c.24.02-.16.21-.11.04ZM52.37,20.53s.02.12.04.23c.15.57.41,1.11.76,1.59.07.08.05.11-.04.05-.2-.13-.38-.27-.55-.41,0,0-.02-.02-.03-.03-.02-.01-.08-.1-.13-.2-.76-1.45-.55-2.62-.23-4.04.02-.11.12-.24.21-.3.04-.02.08-.06.12-.08.09-.07.12-.04.08.06-.23.65-.35,1.36-.35,2.14,0,.27.02.53.07.79.02.1.05.2.05.22ZM59.19,14.98c.05.13.08.29.02.33-.14.08-.29-.17-.24-.35.02-.1.18-.08.22.03ZM51.86,11.84c-.08.08-.22.09-.22-.02-.02-.25.24-.58.39-.33.06.1-.05.23-.17.36ZM51.73,10.27c.27.12.09.5-.14.46-.33-.06-.24-.64.14-.46ZM50.88,4.38c.17-.03,0,.23-.08.1-.03-.04.02-.09.08-.1ZM50.77,4.99c.08.24.15.49.2.72.02.11.07.11.15.04.1-.08.24-.14.31-.1.2.12-.03.33-.22.38-.1.03-.17.05-.15.17.07.5.1,1,.11,1.5-.01.9-.08,1.8-.37,2.7-.03.1-.09.11-.13,0-.3-.9-.37-1.8-.39-2.7.02-.9.08-1.81.37-2.7.03-.1.1-.11.13,0ZM47.74,14.69c-.08.11-.2.08-.29-.01-.08-.08-.01-.18.05-.27.07-.1,0-.21-.12-.27-.1-.04-.16-.12-.07-.18.21-.14.57-.05.57.14,0,.12-.21.17-.24.27-.04.14.16.22.09.31ZM47.72,13.33c-.01.11-.16.15-.24.08-.18-.15-.26-.38-.19-.5.21-.38.46.08.42.42ZM48.35,14.85c0-.08.11-.04.1.02-.02.07-.09.05-.1-.02ZM48.73,13.61c-.02.06.2.66-.05.44-.13-.1.09-.25-.03-.39-.07-.09-.37-.28-.35-.39.02-.14.24-.21.27-.2.08,0,.3.16.31.36,0,.03-.12.14-.14.18ZM49.82,11.48c-.17.07-.56-.47-.1-.25.08.04.28.17.1.25ZM49.97,10.54c-.15,0-.32-.1-.28-.19.03-.07.16-.05.28,0,.1.05.11.18,0,.18ZM49.44,6.92c.08,0,.14.01.13.1-.04.27-.43-.12-.13-.1ZM49.13,11.53c.16.01.29.28.11.33-.15.05-.35-.35-.11-.33ZM48.62,8.1c-.19.1-.48.09-.5-.09-.02-.17.28-.2.48-.15.11.03.12.18.02.24ZM48.68,9.04c.09.25-.12.38-.33.48-.1.05-.19,0-.21-.12-.04-.19-.09-.38-.13-.58-.02-.1.04-.26.15-.22.14.05.26.27.34.35.02.03.16.06.17.09ZM49.24,12.56c.1.04.09.08-.02.08-1.08-.01-2.1.06-3.09.34-.99.26-1.89.73-2.82,1.29-.09.06-.12.03-.06-.06.62-.91,1.62-1.57,2.71-1.88,1.09-.29,2.28-.25,3.29.22ZM10.48,43.54s.02-.09.06-.09c.17.03-.1.32-.06.09ZM11.42,46.15c-.04.09-.27.05-.2-.1.03-.06.23.01.2.1ZM21.19,38.93c.15-.06.29-.13.44-.22.09-.05.12-.03.05.06-.08.12-.17.23-.25.34-.07.08-.21.19-.31.24-1.18.54-2.22.51-3.37.29-.1-.02-.23-.12-.29-.21-.06-.09-.12-.17-.19-.26-.07-.08-.05-.12.05-.09.56.19,1.14.28,1.74.28.73,0,1.46-.15,2.13-.43ZM19.86,40.66s-.15.04-.25.05h-1.47c-.11,0-.2-.08-.22-.18-.02-.1.05-.16.16-.15.38.06.74.09,1.12.09.29,0,.57-.03.87-.08.11-.02.13.02.04.09-.06.05-.12.1-.17.14,0,0-.03.02-.06.04ZM20.03,41.68c-.66-.11-1.3-.08-1.95.02-.11.02-.18-.04-.16-.15,0-.1.11-.19.22-.19h1.45c.12,0,.23.01.26.05l.07.04s.1.08.16.13c.08.07.06.12-.04.1ZM13.66,33.41c.08-.07.12-.04.07.06-.47.9-.82,1.78-.98,2.72-.17.93-.1,1.86.15,2.85.02.11-.01.13-.08.04-.3-.37-.54-.83-.66-1.31-.15-.55-.16-1.13-.07-1.7.18-1.05.74-2.04,1.57-2.66ZM11.81,47.55c-.15.03-.24-.27-.2-.34.12-.22.47.28.2.34ZM12.94,48.87c.09-.02.15.12.04.14,0,0-.01,0-.02,0-.11.02-.11-.12-.02-.14ZM13.38,49.1c-.02-.11.05-.19.13-.12.11.09.18.24.1.33-.13.14-.19-.03-.23-.21ZM12.18,44.56c.12-.49.35-.94.65-1.32.07-.08.1-.07.08.04-.24.99-.31,1.92-.13,2.86.16.93.52,1.81.99,2.71.05.1.02.13-.06.06-.84-.61-1.4-1.6-1.59-2.65-.09-.56-.09-1.15.06-1.69ZM14.99,42.99c-1.05,0-1.91-.85-1.92-1.91,0-1.05.85-1.91,1.91-1.92,1.05,0,1.91.85,1.92,1.91,0,1.05-.86,1.91-1.91,1.91ZM19.07,42.77c-.6,0-1.18.1-1.74.29-.1.04-.12,0-.06-.08.08-.11.16-.21.23-.33.06-.1.18-.19.29-.21,1.13-.22,2.15-.25,3.32.27.1.04.24.15.31.24.11.14.23.29.33.44.06.1.03.12-.06.07-.16-.1-.32-.19-.5-.27-.66-.27-1.4-.41-2.13-.41ZM17.05,48.83c-.12-.04-.24-.08-.26-.21-.03-.2.32-.38.44-.28.12.1,0,.23-.03.37-.02.11-.05.15-.16.12ZM71.69,21.62c0,.16.11.36.23.31.12-.04.1-.23,0-.36-.07-.09-.22-.06-.22.05ZM54.53,56.15c-.03-.07-.08-.11-.11-.08-.02.02-.04.1,0,.16.03.05.06.08.1.05.04-.03.04-.08.01-.13ZM61.56,67.13s.05.02.03.01c-.02-.01-.04-.02-.03-.01ZM83.87,35.7s.05.02.03.02c-.02-.02-.04-.02-.03-.02ZM50.56,76.16s.02.07.03.06c0,0,.01-.04,0-.07,0-.04-.02-.04-.03.01ZM76.19,64.84c-.85.49-1.74.92-2.64,1.3-.7.29-1.42.53-2.16.73-.1.02-.18.1-.17.16,0,.05.02.09.03.1.05.05.25.06.29.1.07.07-.03.16.04.22.09.07.25,0,.34.08.04.04.06.08.08.12.04.07.12.12.23.08.59-.18,1.16-.38,1.72-.6.8-.34,1.58-.71,2.32-1.12.09-.05.12-.15.08-.23-.03-.06-.06-.12-.07-.16-.09-.24.05-.27.15-.36.08-.07.04-.22,0-.33,0,0,0,0,0-.01-.04-.1-.14-.14-.24-.09ZM67.82,63.64c-.03.07-.05.15-.04.17.01.02.05,0,.08-.06.04-.06.05-.13.03-.17-.02-.04-.04-.01-.08.05ZM70.99,67.13c-.09-.06-.24-.11-.34-.08-.54.12-1.08.21-1.63.29-.11.01-.19.05-.18.07.01.03.11.07.21.11.13.06.29.14.28.14-.04.02.1-.4.19-.38.59.13.04,1.71-.42.8-.08-.17.08-.22-.02-.3-.14-.11-1.04.02-.99.22,0,.01.48.11.66.27.08.08.14.16.25.16.49-.06.95-.14,1.42-.24.11-.02.19-.07.2-.11,0-.03.01-.05.03-.06.04-.02.08-.02.11,0,.05.03.15.07.26.04.1-.02.19-.04.29-.07.11-.03.18-.14.17-.25,0-.15.01-.29-.03-.35-.05-.07-.27-.15-.45-.27ZM62.83,64.86s.1.1.16.04c.16-.14-.33-.23-.16-.04ZM63.45,64.54c-.18.05-.02.09-.04.19-.01.09-.11.08-.18,0-.14-.18-.08.04-.07.07.01.05.09.17.18.25.08.07.19.04.21,0,.02-.04.06-.13.07-.21.01-.06.03-.1.1-.13.25-.08-.13-.2-.28-.16ZM67.63,67.85c-.04-.1.06-.18.13-.23.07-.05.22-.09.28-.03.03.04.07.05.16-.03.03-.02.06-.04.08-.07.04-.03-.03-.07-.14-.07-.09.01-.19.02-.28.03-.11,0-.23.03-.28.03-.04,0-.17,0-.28,0-.28.01-.57.02-.85.03-.11,0-.2.04-.2.08,0,.04.01.07,0,.09-.25.28-.37-.07-.28.55,0,.06-.01.13-.03.18-.04.1,0,.16.09.16.06,0,.12,0,.18,0,.58,0,1.15-.03,1.7-.07.11,0,.18-.03.16-.05-.01-.01-.02-.03-.03-.05-.07-.08.07-.28-.04-.46-.04-.08-.32.03-.39-.11ZM97.18,38.55c-2.3-1.41-4.43-1.77-6.16-1.09-.1.04-.19,0-.18-.08,0-.09-.09-.12-.2-.15-.09-.03-.18-.11-.28-.22-.07-.08.07-.28-.04-.46-.04-.08-.33.03-.39-.11-.04-.1.06-.18.13-.22.07-.05.21-.09.28-.03.03.03.07.04.16-.03.31-.23-.02-.2.11-.53,0,0,.01-.01.02-.01.02,0,.02-.1,0-.2-.55-2.35-2.12-4.22-4.48-5.29-.1-.04-.19-.08-.19-.07,0,0-.03-.04-.05-.09-.02-.05-.03-.2-.04-.31-.02-.21-.03-.43-.06-.66-.11-.99-.35-2.02-.71-3.07-1.27-3.7-3.95-6.94-7.6-9.27-.1-.06-.21-.02-.26.07-.04.06-.08.13-.11.2-.09.17-.05.35-.11.41-.03.03-.09.04-.16.04-.1,0-.1.07,0,.13,3.28,2.08,5.96,5.04,7.24,8.76.31.91.55,1.89.66,2.84.02.23.04.45.06.67,0,.11.02.29.05.39.13.48.38.68.71,1.07.21.2.4.47.57.76.05.09.07.12.05.05-.01-.06,0-.1.07-.06.03.02.07.1.09.17.03.11-.03.17,0,.27.29.66.44,1.44.34,2.22-.22,1.55-1.21,2.63-2.48,3.15-.55.23-1.13.34-1.72.34-.59,0-1.18-.11-1.72-.33-.97-.4-1.8-1.45-1.93-2.48-.02-.16-.02-.31-.02-.46.01-.15.03-.31.05-.47.02-.11,0-.25-.03-.32-.02-.05-.04-.1-.04-.13,0-.1.23-.11.2-.34,0-.05,0-.09,0-.11.02-.06.12-.06.17-.16.14-.3.33-.55.55-.73.41-.34.91-.52,1.41-.52.29,0,.58.06.85.18.62.29,1,.87,1,1.56,0,.25-.2.45-.45.45-.24,0-.44-.2-.45-.44,0-.46-.3-.67-.48-.75-.13-.06-.31-.1-.48-.1-.27,0-.57.09-.83.31-.27.22-.45.62-.53,1.07-.02.11,0,.23.02.26.02.03.04.04.06.05.1.05.44-.16.58-.03.28.26.12.89-.02.97-.15.08-.16-.2-.39-.18-.04,0-.07,0-.1.02-.05.02-.06.13-.02.23.09.23.25.47.48.69.08.07.17.03.2-.07.04-.17.09-.38.09-.38.15-.04.09.3.26.3.03,0,.12-.08.15-.07.25.12-.04.26.19.27.17.01.19-.31.37-.23.15.06.39.48.42.64,0,.01-.02.04-.04.08-.02.04.01.08.05.09.03,0,.06,0,.09,0,.49,0,.97-.12,1.41-.38.04-.02.08-.04.13-.07.07-.04.1-.17.08-.27,0-.17.03-.31.16-.31.02,0,.07.04.12.11.05.08.15.08.22,0,.29-.3.49-.66.61-1.03.03-.1.04-.19.04-.19,0,0,0,0,0,0-.14-.13-.3-.02-.49-.16-.09-.07-.15-.22-.19-.33-.05-.16-.14-.4-.12-.47,0-.03.26-.34.32-.33.18.02.11.25.07.44-.02.11.04.23.1.32.04.06.1.14.14.21.06.09.12.18.16.18.03,0,.06-.03.06-.06,0-.02,0-.03,0-.04,0-.01,0-.02,0-.03.11-1.06-.13-1.95-.69-2.57-.53-.59-1.44-.93-2.43-.97-.11,0-.19-.09-.19-.2l.03-.54c.15-3.1-1.76-6.28-4.01-8.33-.08-.08-.2-.07-.29,0-.14.1-.28.17-.22.33.04.1.03.22-.08.24-.03,0-.05,0-.08.01-.11.02-.11.14-.03.22,1.83,1.68,3.49,4.25,3.63,6.81.01.11,0,.11-.04,0-.6-2.2-1.94-4.5-3.92-6.1-.09-.08-.24-.08-.34-.05-.16.05-.32.09-.2.22.08.08.08.17-.02.21-.09.04-.17.06-.22.01-.11-.09.03-.31-.02-.35-.1-.07-.29.18-.38.12-.13-.09.05-.33-.04-.49-.08-.12-.31-.12-.05-.36.02-.02.05-.03.09-.05.06-.02.03-.08-.07-.14-.39-.23-.8-.42-1.23-.59-.18-.07-.35-.14-.54-.2-.1-.04-.2-.04-.21,0-.02.04-.07.04-.1-.02-.03-.05-.12-.13-.22-.16-.11-.03-.27,0-.34.08-.09.12-.12.27-.02.38.28.32.7-.28.99-.11.27.15.3.57.06.74-.09.07-.2-.01-.24-.11-.03-.1-.16-.04-.18.07,0,.02-.01.05-.02.07-.02.11.03.22.14.25.24.08.64.22,1.16.5.48.26.8.5.96.64.09.07.09.2.03.29-.24.36-.4.98-.29,1.54.02.11-.02.15-.11.08-.4-.32-1.46-1.29-1.9-2.87-.03-.1-.08-.11-.16-.05-.07.06-.21.02-.29-.05-.31-.29-.62-.4-.91-.42-.08,0-.35.12-.43.08-.05-.03-.08-.24-.16-.28-.18-.11-.47,0-.57.1-.07.08-.16.71-.31.79-.02,0-.05,0-.09,0-.05,0-.03.04.04.12.3.36.59.77.86,1.18.06.09.11.08.1-.03,0-.1-.03-.18-.12-.25-.09-.07-.1-.14,0-.15.06,0,.11,0,.17-.02.23-.11.16-.3.36-.21.25.1,0,.27.2.48.04.04.09.04.13.04.08,0,.03.08-.06.14-.16.12-.25.32-.17.5.04.1.11.22.03.27-.07.05-.09.12-.04.21.09.15.18.29.26.42.21.37.42.7.61.99.06.1.13.19.15.21.02.03.04.07.06.1,0,.02.02.04.03.04.57.83,1.22,1.11,1.76,1.11.21,0,.41-.04.58-.12.72-.32,1.11-1.19.91-2.08-.11-.48-.08-.87.06-1.08.03-.04.08-.12.23-.18.1-.04.25,0,.33.09,1.76,1.84,2.65,4.22,2.88,5.95.02.11-.06.23-.16.28-.22.12-.43.25-.62.41-.22.19-.42.43-.6.7-.06.09-.09.21-.11.24-.02.04-.1.13-.14.23-.24.52-.39,1.1-.43,1.71-.27,2.56,1.04,4.49,2.21,5.69.08.08.12.04.16-.06.05-.12.16-.22.28-.18.17.06.22.38.11.53-.06.09-.16.08-.15.09.01.01.03.07.02.14,0,.07-.07.17-.14.25-1.22,1.15-2.76,3.19-2.47,5.94.04,1.16.53,2.32,1.3,2.96.19.16.39.29.6.4.09.05.16.18.15.28-.26,1.71-1.14,3.97-2.82,5.75-.07.08-.22.13-.32.09-.15-.06-.21-.14-.23-.17-.15-.21-.18-.61-.07-1.08.2-.89-.19-1.77-.92-2.09-.17-.07-.37-.12-.58-.12-.54,0-1.19.3-1.76,1.12-.25.37-.54.84-.84,1.35-.89,1.49-2.07,3.48-3.26,3.81-.1.02-.28.03-.39.02-2.03-.18-3.81-.92-4.8-2.15-.71-.87-1.06-1.89-1.05-2.83.18-1.81,2.03-2.43,2.73-2.33.7.11.4.54-.07.85-.63.42-1.04,1.12-.7,2.27.34,1.15,1.78,1.67,3.04.88,1.29-.8,1.26-2.44.72-3.5-.05-.09-.11-.18-.12-.19,0-.01-.06-.09-.12-.19-.11-.19-.25-.38-.42-.53-.8-.78-2-1.09-3.28-.85-1.21.22-2.16,1.03-2.6,2.21-.57,1.55-.18,3.37,1.03,4.89,1.4,1.73,3.66,2.42,5.8,2.57,1.78.12,3.71-.16,5.49-.88,3.36-1.35,5.56-4.56,6.36-7.58.03-.11.05-.1.05,0-.05,2.89-2.06,5.83-4.14,7.53-.4.33-.81.64-1.22.94-1.99,1.24-4.62,1.85-6.94,1.9-.11,0-.16.09-.15.2.02.17-.02.3-.16.3-.11,0-.16-.13-.2-.23,0-.03-.02-.06-.03-.08-.04-.1-.17-.19-.28-.19-.66-.02-1.28-.09-1.84-.2-1.43-.29-2.89-.8-4.05-1.7-.16-.12-.3-.25-.43-.38-.08-.08-.11-.15-.07-.17.03,0,.05-.02.06-.03.1-.2-.12-.13-.19-.13-.02,0-.04,0-.07-.01-.05,0-.09-.03-.1-.05-.01-.01-.03-.06-.04-.1,0-.04-.03-.07-.05-.06-.02,0-.09-.05-.15-.12-.06-.08-.12-.15-.13-.16,0-.01-.01-.02-.02-.02-.01,0-.04-.03-.06-.06-.03-.03-.06-.06-.05-.07,0,0-.01-.02-.02-.01,0,0-.05-.03-.08-.07-.04-.04-.07-.11-.09-.16-.02-.04-.13-.06-.2-.13-.08-.07-.08-.15-.02-.2.05-.05.1-.09.1-.1,0-.21-.13-.17-.24-.08-.08.08-.11.16-.13.14-.02-.02-.04-.09-.05-.18,0-.08-.09-.16-.07-.07.02.09-.08.1-.16.04,0,0,0,0,0,0-.09-.07-.12-.13-.09-.18.03-.05,0-.18-.05-.27-.04-.07-.07-.15-.06-.23,0-.01.09-.02.07-.05-.08-.26-.14-.16-.19-.03-.04.1-.11.16-.16.17-.05.01-.1-.03-.1-.14-.02-.16,0-.38-.06-.46-.09-.12-.09.05-.06.21.02.11.02.25-.07.29-.04.02-.07.06-.05.14,0,.02,0,.04.02.07.01.03,0,.05-.01.04-.02,0-.03,0-.04-.01-.22-.1-.47-.16-.73-.19-.42-.1-.84-.15-1.23-.16-.11,0-.22-.06-.28-.13-.05-.06-.11-.12-.1-.16,0-.03,0-.06,0-.06-.08-.02-.08.02-.1.07-.03.08-.11.08-.14.07-.02,0-.04-.01-.06,0-.02.03-.03.07-.04.11-.01.07-.09.12-.21.14-.3.04-.6.09-.88.17-.11.03-.19,0-.19-.04,0-.05,0-.09-.03-.08-.05,0-.06.05-.07.1-.01.06-.06.12-.08.13-.02,0-.05,0-.06,0-.01,0-.02,0-.02.01h0s-.07.04-.16.07c-.08.03-.14,0-.17-.09-.02-.05-.03-.1-.01-.15.03-.07.12,0,.1-.18-.04-.34-.18.22-.31.29,0,0-.02,0-.03-.02-.02,0-.06.02-.04.07,0,.03.04.05.05.07.02.03.05.04.07.06.04.03,0,.07-.1.12-.22.1-.42.21-.62.32-.1.06-.18.09-.18.07,0,0,0-.02,0-.04,0-.02.1-.08.1-.17,0-.33.04-.14.19-.26,0,0,0-.04,0-.08,0-.04.07-.01.14-.01.04,0,.08-.02.09-.06.03-.13-.2-.1-.17-.28.02-.07.16-.11.23-.13,0,0,.02,0,.03,0,.02,0,0-.03-.02-.08-.02-.05-.14-.13-.19-.04-.03.07-.05.18-.07.19-.13.18-.22.08-.3.09-.22.02-.41.18-.39.31.03.14.12.05.17.16,0,0,.08.28.07.36,0,.12-.08.04-.09.09-.01.02-.02.04-.01.06,0,.03,0,.07-.03.08-.02.02-.06.02-.08.02-.02,0-.04,0-.04.02,0,.01-.06.07-.15.14-.45.32-.83.67-1.16,1-.08.08-.18.02-.29.05-.06.01-.14.08-.18.15-.06.09.03.18.06.17.03,0,.04.01.02.04-.02.02-.09-.03-.17-.11-.33-.37-.76-.77-1.27-1.16-.09-.06-.15-.11-.14-.11,0,0,.01-.02.07-.05.04-.02.08-.05.08-.1,0-.1-.27-.21-.29-.19-.06.07.02.07.04.14,0,.04.02.07.03.1.02.05-.03.04-.12-.03-1.33-.9-3.13-1.57-5.33-1.04-.25.04-.48.09-.71.18-1.34.5-1.96,1.64-3.01,2.5-1.2.99-2.68,1.57-4.19,1.89-1.82.38-4.3.29-6.58-.36-.11-.04-.15-.03-.12.02.01.03.02.07,0,.1-.05.13-.43.15-.34-.08.02-.04.03-.07.06-.08.04-.04,0-.07-.1-.11-.09-.03-.18-.06-.27-.09-.1-.04-.18,0-.19.06,0,.04-.01.08-.05.11-.12.08-.29-.12-.34-.08-.1.06.09.32,0,.39-.12.1-.29-.15-.47-.1-.15.03-.21.25-.37-.06-.03-.06-.01-.32-.05-.36-.11-.1-.11.07-.29.04-.19-.03-.06-.13-.23-.15-.07,0-.12.03-.19.05-.1.04-.25.01-.24.08.01.06.06.17.16.23.69.45,1.41.86,2.16,1.22.1.05.17.08.17.06,0,0,0-.02,0-.04,0,0,.04-.11.09-.1.07.01.07.06.04.1-.04.06-.02.11.07.16,2.11.98,4.4,1.59,6.69,1.58.81,0,1.62-.08,2.42-.25.79-.16,1.76-.39,2.45-.82l.47-.28c.1-.06.21-.03.27.07.5.84,1.29,1.42,2.05,1.62.23.05.46.08.69.08.6,0,1.23-.2,1.87-.65.69-.46,1.1-1.29,1.12-2.2.01-.96-.36-1.72-1.14-2.29-.41-.31-.82-.39-1.18-.39h-.01s0-.01-.01-.03c0-.02,0-.03-.02-.03-.03-.02-.06-.01-.09,0-.04.03-.15.08-.26.09-.14.02-.26.04-.36.06-.68.12-1.31.74-1.42,1.27-.12.55.14,1.03.44,1.25.1.08.27.18.49.18.12,0,.25-.03.4-.11.07-.04.14-.05.21-.05.16,0,.31.08.39.24.12.22.04.49-.18.6-.26.14-.54.21-.82.21-.36,0-.72-.12-1.03-.36-.58-.43-.87-1.15-.81-1.89.01-.11.06-.18.08-.19.02,0,.04-.01.03-.04,0-.02,0-.04-.02-.05-.02-.02-.03-.11,0-.21.2-.6.65-1.18,1.33-1.58.09-.05.25-.04.36-.03.08,0,.16,0,.17-.06,0-.03,0-.05,0-.08,0-.04-.02-.08,0-.09.01,0,.03-.01.04-.01.02,0,.04-.02.06-.02.04,0,.06.02.07.07,0,.05,0,.08,0,.08.13.34.46.3.29-.02,0-.03-.16-.05-.2-.09,0-.01-.02-.03-.02-.03-.01-.02.04-.06.1-.07.04-.01.08-.02.12-.02.02,0,.04,0,.06,0,.03,0,.14-.02.25-.03.09,0,.18-.01.27-.01.46,0,.94.09,1.38.25.1.04.19.08.19.09,0,0,0,.01,0,.02.02.1.11.17.2.19.11.02.25,0,.31.04.04.02.08.05.13.08,1.04.74,1.6,1.84,1.6,3.07,0,1.36-.43,2.75-1.7,3.68-.73.54-1.55.76-2.38.76-.39,0-.78-.04-1.15-.13-.36-.09-.61-.17-.9-.17-.16,0-.35.03-.56.1-1.16.38-2.43.67-3.66.8-.8.08-1.6.13-2.42.13-.67,0-1.34-.03-2.01-.09-.11,0-.25.06-.36.06-.1,0-.15-.11-.19-.11-.04,0-.14.05-.23.11-.11.06-.23.08-.28.04-.04-.03-.05-.07-.06-.1,0-.07-.05-.13-.17-.15-1.07-.16-2.12-.42-3.15-.77-.1-.03-.27-.03-.38-.03-.09,0-.17,0-.23-.05-.09-.06-.02-.14-.13-.18-.06-.02-.2.04-.29.04-.26,0-.4-.17-.61-.03-.09.06-.17.05-.15-.04.02-.06.04-.1.03-.17-.01-.08-.03-.12-.06-.16-.05-.08-.17-.19-.26-.24-.28-.13-.55-.27-.82-.41-.1-.05-.18,0-.18.1,0,.08-.01.16-.04.19-.04.04-.25,0-.31.06-.09.08-.12.2-.13.32,0,.11.1.24.2.29.67.35,1.36.68,2.07.97.53.21,1.07.41,1.62.57.11.03.21-.03.21-.14,0-.18-.03-.38-.12-.42-.1-.04-.25-.01-.2-.11.02-.05.07-.09.12-.13.08-.07.18-.04.28,0,.11.04.23-.05.29,0,.15.13.2.53.18.6-.06.18-.21.08-.2.22,0,.03,0,.06.01.08.01.04.09.09.16.11.07.02.22,0,.3-.08.11-.12.19-.29.1-.42-.05-.08-.38-.28-.16-.45.06-.04.24-.02.31.07.07.08.06.2.16.23.07.03.14.06.15.14.03.18-.18.15-.24.29-.03.07-.03.13-.03.19,0,.11.12.21.23.24,1.45.31,2.97.46,4.55.45.83,0,1.68-.05,2.52-.14,1.08-.11,2.24-.35,3.37-.69.11-.03.24.02.29.12.94,1.6,2.49,2.68,4.43,3.04.46.09.92.13,1.37.13.02,0,.04,0,.06,0,.04,0,.02.07-.02.17-.79,1.78-.45,4,1.04,6.39.81,1.31,1.34,2.87,1.58,3.68.14.49.4.74.74.73.35,0,.59-.25.74-.74.23-.81.74-2.36,1.56-3.68,1.47-2.41,1.81-4.63,1.01-6.4-.04-.1-.05-.18,0-.17.02,0,.06,0,.09,0,.45,0,.91-.05,1.36-.13,1.62-.31,2.97-1.12,3.91-2.32.07-.09.12-.16.12-.17s0-.01,0-.01c0,0-.14.05-.28.1-.1.04-.24,0-.33-.07-.16-.12-.41-.3-.59-.43-.09-.07-.21-.05-.28.04-.63.79-1.53,1.36-2.52,1.64-.13.04-.27.06-.41.09-.11.03-.2.12-.23.23-.05.19-.12.39-.16.4-.04.01-.2.08-.33.14-.1.05-.25.08-.36.04-.13-.06-.28-.14-.36-.23-.06-.05-.15-.2-.21-.35-.05-.1-.14-.2-.25-.22-.34-.06-.67-.17-.98-.31-.1-.04-.09-.08.02-.09,1.09.01,2.1-.06,3.09-.34.92-.24,1.76-.66,2.62-1.17.1-.05.19-.19.21-.29.04-.16.08-.32.09-.32.14-.04.09.3.25.3.03,0,.12-.09.15-.07.25.13-.04.25.19.28.17.01.19-.31.37-.23.15.05.39.48.42.64,0,.02-.03.04-.05.09-.02.05.03.03.09-.06.08-.12.16-.24.23-.36.05-.09.18-.15.29-.12.36.11.72.21,1.09.29.1.02.15-.03.12-.14-.07-.26-.08-.55.11-.56.06,0,.27.36.37.66.03.11.13.21.23.24.49.08.98.16,1.45.21.58.06,1.15.09,1.72.11.11,0,.17-.08.14-.19-.08-.19-.17-.4-.18-.41-.13-.2-.27,0-.36-.25-.01-.03-.02-.08-.01-.12,0-.07-.06-.12-.17-.13-.34-.02-.68-.05-1.02-.08-.69-.07-1.38-.18-2.06-.34-.1-.02-.13.02-.06.1.07.09.1.15-.06.03,0,0-.02-.02-.03-.03-.03-.02-.12-.07-.23-.1-.17-.07-.38-.15-.42-.16-.05,0-.24.09-.27.07-.03-.03-.06-.07-.08-.11-.03-.07-.14-.15-.24-.18-.07-.02-.15-.04-.22-.07-.22-.08-.4-.1-.56-.1-.29,0-.54.09-.9.17-.08.01-.15.03-.22.04-.11.02-.21.1-.25.17-.02.06-.06.09-.09.11-.15.08-.15-.19-.38-.18-.22.01-.37.24-.5.23-.08-.01-.18-.07-.27-.15-.08-.07-.23-.16-.33-.18-.52-.11-1.03-.32-1.49-.66-1.28-.92-1.72-2.3-1.72-3.67,0-.58.12-1.14.37-1.64.04-.1.1-.18.11-.18,0,0,.01,0,.02,0,.02.06-.08.13-.08.14,0,.12.19.24.34.23.11-.01.05-.16-.02-.24-.05-.06-.06-.12.04-.17.07-.03.05.14.07.16.11.06.13-.07.15-.11.06-.07.09.04.1-.06,0-.15-.19-.16-.29-.18-.03-.01-.06-.03-.08-.05-.04-.03-.01-.14.05-.22.05-.07.1-.13.16-.2.07-.08.15-.14.16-.12,0,.01.05.04.08,0,.02-.04.03-.14.11-.21.1-.08.19-.16.29-.23.05-.04.1-.06.15-.1.08-.05.15-.04.17,0,.02.04.03.07.05.09,0,0,0,0,.02-.02,0,0,0-.02,0-.03.01,0,.02,0,.01,0,0,0,.03.03.08.04.04,0,.08,0,.08-.03.02-.04,0-.09-.03-.13-.05-.06-.01-.13.08-.18.11-.05.23-.09.35-.13.1-.03.2-.02.22,0,.01.02.02.03.04.04.08.08.12.06.12.01.02-.08.05-.17.16-.19.23-.04.47-.06.7-.06.18,0,.37.01.54.05.11.02.14.11.11.21-.03.11-.06.22-.07.31-.02.11,0,.2,0,.2,0,0,.01,0,.01,0,.1.14.15.08.18,0,.04-.1.09-.16.11-.15.02.01.05.01.05,0,0-.02-.02-.08-.05-.13-.03-.07,0-.13.02-.13.03.01.07-.07,0-.08-.03,0-.07.03-.08-.06,0-.01,0-.03.01-.04.01-.02.06-.02.1,0,.02,0,.04,0,.06.02.17.06.33.13.48.21.1.06.16.15.16.22,0,.06.02.11.02.11,0,0,.01,0,.01,0,.03.03.15.08.2-.02,0,0,0-.02,0-.03,0-.01.06.03.14.1.51.42.85.96.97,1.49.14.67-.03,1.36-.45,1.85-.07.08-.16.13-.19.14-.01,0-.03.01-.05.02-.03.02-.02.02,0,.03.02,0,.02.04-.01.06-.02.02-.03.03-.06.05-.03.03-.06.05-.1.07-.06.04-.12.04-.13.06-.02.01-.09.08-.2.11-.2.07-.39.12-.6.12-.28,0-.55-.07-.82-.2-.22-.12-.3-.38-.18-.6.08-.16.23-.24.39-.24.07,0,.14.02.21.05.14.07.28.1.4.1.12,0,.22-.03.3-.07.1-.04.18-.1.19-.1,0,0,.08-.07.15-.16.22-.25.38-.66.28-1.11-.05-.24-.22-.5-.45-.72-.08-.08-.15-.16-.14-.18,0-.03,0-.04-.01-.05-.03-.02-.04-.02-.06-.02-.03,0-.1-.02-.19-.07-.18-.1-.37-.18-.57-.21-.19-.04-.45-.09-.75-.09-.35,0-.77.09-1.18.39-.02.02-.05.04-.07.06-.04.03-.07.06-.07.05,0,0,0,0,0,0-.02-.14-.1-.09-.15,0-.06.09-.12.2-.19.19-.04,0-.05,0,0,.08,0,0,0,.01.01.02,0,.01-.05.09-.12.17-.37.48-.55,1.05-.54,1.72.02.91.44,1.73,1.13,2.2.18.12.37.23.55.32.1.05.19-.08.26,0,.07.07.2.18.3.21.25.07.51.1.75.1.24,0,.46-.03.7-.09.76-.19,1.54-.78,2.04-1.62.05-.1.17-.13.26-.07l.47.28c.4.23.87.41,1.36.55.11.03.18.07.18.1,0,.02.01.03.02.05.04.04.07.05.08.03.04-.05.09-.08.2-.06.21.05.42.1.62.13.3.06.61.11.92.15.11.01.27,0,.36,0,.09.02.16-.1.15-.21-.04-.22-.11-.58-.32-.66-.03-.02-.06.02-.08.06-.03.05-.1.06-.18-.02-.1-.09-.19-.22-.15-.4.1-.45.34.1.41.23.1.19.32.52.5.67.08.07.36.12.45.23.07.08.05.17.16.18.07,0,.14,0,.21,0,.44,0,.89-.03,1.33-.07.12-.01.12-.07.06-.17-.04-.07-.06-.16,0-.23.1-.15.24,0,.29.16.04.1.11.19.22.17.03,0,.06,0,.09-.02.11,0,.2-.06.21-.1,0-.02.02-.05.04-.06.03-.03.11-.04.16-.03.1.02.2.06.24.06.05,0,.17-.02.28-.04,2.99-.64,5.84-2.18,8.14-4.07,2.46-2.02,4.7-5.5,4.53-8.85l-.03-.54c0-.11.08-.2.19-.2.98-.04,1.89-.39,2.42-.97.56-.63.79-1.54.67-2.61-.09-.83-.62-1.58-1.42-2.02-.44-.25-.93-.37-1.41-.37-.43,0-.87.1-1.28.3-.85.41-1.07,1.17-1.12,1.59-.09.71.15,1.48.56,1.82.26.22.56.3.83.3.18,0,.35-.04.48-.1.18-.09.48-.29.47-.76,0-.25.2-.44.44-.45.25,0,.45.2.45.44,0,.69-.37,1.27-.99,1.57-.27.13-.56.19-.85.19-.49,0-1-.17-1.41-.51-.31-.27-.56-.68-.73-1.15-.03-.1-.06-.19-.04-.2,0,0-.01-.08-.04-.2-.06-.27-.1-.53-.12-.79,0-.12,0-.25.02-.37.13-1.03.95-2.09,1.93-2.49.54-.23,1.13-.34,1.72-.34.59,0,1.18.1,1.73.33,1.26.51,2.27,1.59,2.49,3.15.2,1.33-.39,2.69-1.1,3.4-.34.4-.58.59-.71,1.08-.03.11-.04.28-.04.39,0,.22-.03.44-.05.67-.11.96-.34,1.94-.65,2.85-1.29,3.84-4.08,6.88-7.47,8.98-.09.06-.14.19-.12.3.04.19.08.39.13.54.04.1.13.11.2.08.07-.02.16-.08.19-.18.08-.3.14-.76.42-.16.02.05-.12.08-.12.12,0,.02,0,.04,0,.06,0,.03.08,0,.17-.05,3.66-2.35,6.35-5.62,7.6-9.34.36-1.06.59-2.09.69-3.07.03-.23.04-.45.06-.67,0-.11.02-.27.05-.35.04-.07.16-.16.27-.21,2.41-1.12,4-3.09,4.47-5.57.1-.54.14-1.07.12-1.6,0-.11.08-.16.18-.13.55.22,1.14.33,1.77.33,1.33,0,2.82-.49,4.38-1.46,1.32-.82,2.87-1.34,3.68-1.58.49-.14.73-.39.73-.74,0-.34-.25-.59-.74-.74-.81-.23-2.36-.75-3.69-1.56ZM83.99,35.72c.08.09.14.18-.04.05,0,0-.01-.01-.04-.03-.02-.02-.12-.06-.22-.1-.17-.07-.38-.15-.42-.16-.05,0-.24.09-.27.07-.12-.11-.18-.33-.2-.49,0-.11-.04-.19-.08-.17-.04.01-.11-.04-.16-.15-.08-.21-.15-.51.2-.48.28.02.08.33.14.42.07.13.4.22.62.43.11.12.13.2.2.3.06.09.19.21.26.3ZM71.2,24.05c-.17.05-.62-.5-.17-.42.16.03.41.35.17.42ZM73.19,25.15c.1,0,.09.14,0,.14-.08,0-.12-.14,0-.14ZM73.29,23.84c-.14.07-.31-.33,0-.25.11.03.13.2,0,.25ZM75.98,24.79c-.14,0-.27-.36-.02-.35.3.02.17.36.02.35ZM67.88,55.61c.1.2-.2.42-.39.19-.15-.16.31-.34.39-.19ZM73.61,58.61c-.1.03-.17-.04-.14-.14.42-1.6,1.49-2.59,1.89-2.92.09-.07.14-.04.11.08-.1.57.06,1.18.3,1.54.07.09.06.21-.02.29-.16.14-.48.38-.97.65-.52.29-.95.44-1.17.51ZM26.62,66.4c.08-.15.45-.29.45-.04,0,.17-.66.44-.45.04ZM31.4,67.34h0c0,.12-.11.18-.13.08-.01-.1.12-.18.13-.08ZM31.43,67.81c-.06-.09.04-.23.13-.29.1-.06.21-.12.27-.09.23.1.15.41.03.49-.13.1-.35.01-.43-.12ZM32.76,67.83s0-.01.01-.03c.04-.1.22-.06.19.04,0,.01,0,.03-.02.05-.05.1-.21.05-.18-.06ZM57.51,68.94c.19.12-.01.47-.23.41-.31-.09.05-.52.23-.41ZM51.23,61.54l.07-.1s.08-.1.12-.15c.07-.09.1-.07.08.04-.18.89-.1,1.73.07,2.6.02.11-.05.17-.15.15-.02,0-.04,0-.05,0-.11-.01-.2-.11-.21-.22v-2.02c0-.11.03-.25.07-.29ZM50.18,61.11c.1.12.2.23.27.33,0,0,0,0,.01.02.01.01.02.11.02.22v2.17c0,.11-.08.21-.19.23-.02,0-.04,0-.06.01-.11.02-.17-.04-.16-.14.19-.95.26-1.85.03-2.8-.03-.11,0-.13.08-.04ZM48.93,59.95s-.02.02-.02.02c0,0-.03.04-.05.09-.02.03-.01.06.03.07.02,0,.03,0,.05,0,.02,0,.08.06.13.16.69,1.42.57,2.6.25,4.01-.03.11-.12.24-.2.31-.02,0-.03.03-.05.04-.09.07-.12.04-.08-.06.23-.65.36-1.36.35-2.14,0-1.03-.33-2-.92-2.81-.06-.09-.04-.11.05-.05.11.08.23.16.33.23.09.07.15.13.13.14ZM47.92,69.19c-.02.05-.15-.01-.21-.08-.22-.21.28-.09.21.08ZM47.11,69.26c-.12-.03-.25-.17-.36-.38-.38-.74,1.12.58.36.38ZM43.39,67.93c-.06-.09-.03-.12.06-.06.93.56,1.84,1.03,2.83,1.28.99.27,2,.34,3.09.32.11,0,.12.04.02.09-1.01.47-2.19.52-3.28.23-1.09-.3-2.09-.96-2.72-1.86ZM47.6,74.58c-.11.02-.15-.19-.12-.25.11-.18.19.23.12.25ZM47.38,72.82c-.49-.54.73-.67.68-.08-.01.2-.57.2-.68.08ZM48.35,76.51c-.02-.06-.05-.13-.06-.2-.02-.1.11-.19.22-.21.16-.03.36-.07.37-.06.12.1-.1.42-.3.57-.09.07-.18,0-.23-.1ZM48.41,72.58s-.14-.54-.13-.54c.18-.11.07.13.26.3.08.07.38.07.41.11.41.55-.19.74-.54.13ZM49.91,74.35c.04-.3.13-.82.38-.72.14.06.04.82-.22.94-.1.04-.18-.11-.16-.22ZM49.9,72.01c.44-.29.55.8.06.51-.18-.1-.19-.43-.06-.51ZM50.84,77.11c-.08-.23-.14-.47-.19-.71-.02-.1-.04-.19-.06-.18,0,0-.07.04-.13.04-.05,0-.09-.03-.11-.06-.04-.06-.04-.26.03-.4.05-.09.14-.21.13-.32-.03-.35-.06-.71-.06-1.06,0-.54.04-1.07.12-1.61.02-.11,0-.19-.02-.19-.02,0-.03.01-.05.02-.02,0-.14.08-.15.07-.07-.04,0-.29.15-.41.08-.07.2-.16.23-.26.03-.1.06-.21.1-.32.03-.11.09-.11.13,0,.3.9.37,1.8.39,2.7-.02.9-.08,1.81-.37,2.71-.03.1-.1.1-.13,0ZM51.81,78.95s-.22-.12-.26-.18c-.29-.4.31,0,.26.18ZM51.69,70.22c.06.28.29.63-.34.5-.15-.03-.29-.26-.48-.26-.46,0-.91.57-1.26.41-.14-.07.09-.39-.21-.32-.2.04-.08.71-.55.38-.05-.04-.18-.33-.21-.33-.24.02-.02.28-.23.41-.26.16-.52-.08-.54-.11-.22-.35.13-.15.53-.42.19-.12-.02-.13.19-.21.09-.04.26.09.35.08.04,0,.66-.52.72-.51.38.02.12.38.13.42.05.07.35.26.36.25.12-.03.09-.37.16-.43.07-.07.66-.24.79-.25.17,0,.16.13.24.13.26-.02.35-.31.57-.08.04.04-.02.1-.09.15-.09.06-.17.1-.14.2ZM53.01,71.94c-.1-.29.13-.33.37-.11.22.21.43-.07.44.17,0,.33-.67.34-.81-.05ZM52.84,69.87c.09.13.09.31.19.44.05.07.11-.11.15-.07.04.05.02.29.11.37.07.06.75-.18.68.16,0,.04-.05.02-.09-.02-.05-.04-.17-.07-.25,0-.09.09-.19.22-.4.24-.09,0-.21-.12-.38-.18-.08-.03-.19.02-.25,0-.09-.04-.18-.24-.24-.25-.2-.05-.06.26-.21.05-.03-.04-.12-.72.02-.86,0,0,.19,0,.33,0,.11,0,.29.04.35.13ZM50.54,68.89c-.1-.02-.26.01-.36.06-.01,0-.03.01-.04.02-.1.05-.23.04-.27-.07-.01-.04-.03-.08-.04-.12-.03-.11-.11-.25-.2-.32-.42-.35-.68-.88-.68-1.46,0-1.05.85-1.91,1.9-1.91,1.06,0,1.92.85,1.92,1.91,0,1.05-.86,1.92-1.91,1.92-.11,0-.22-.01-.32-.03ZM52.64,64.63s-.07-.05-.11-.08c-.09-.06-.18-.19-.21-.3-.33-1.42-.45-2.62.29-4.08.05-.1.16-.24.25-.3.1-.08.2-.15.3-.23.09-.06.11-.04.05.05-.55.8-.86,1.75-.86,2.76,0,.77.13,1.49.37,2.13.04.1,0,.13-.08.06ZM54.01,60.6s-.08-.05-.09-.05c0,0,.02-.04.04-.08.03-.04.09-.03.12.04.02.04.03.08,0,.12,0,.02-.05,0-.09-.02ZM59.1,58.09c-.06-.04-.12-.07-.11-.07,0,0,0,0,.01,0,.02,0,.02-.04.02-.08,0-.05-.03-.08-.03-.09,0,0,0-.01,0,0,0,0,.05,0,.09-.02.04-.02.16,0,.17.1,0,.01,0,.03,0,.03,0,.12-.08.17-.14.13ZM55.91,64.2c-.18-.06.03-.2.1-.17.08.03.05.22-.1.17ZM63.92,63.5c-.02-.07-.02-.13.06-.09.03.02.08.12.1.2.01.11-.13-.02-.15-.1ZM68.06,63.8c.08.12.14.24.05.33-.07.06-.14,0-.21-.1-.06-.09-.14-.1-.21-.01-.04.07-.06.06,0-.06.04-.1.05-.23.02-.3-.02-.05-.04-.08-.05-.11-.06-.11-.05-.22-.11-.37-.07-.16-.35-.17-.21-.33.12-.14.59.19.79.44.07.08.04.08-.05.17,0,0-.01,0-.02.02-.07.09-.06.23,0,.32ZM69.12,63.05c-.19.1-.21.27-.39-.06-.12-.2-.27-.36.04-.44.12-.03.04.23.16.35.1.1.59-.06.19.15ZM69.54,63.58c-.08,0-.21-.24-.14-.3.12-.1.31.28.14.3ZM93.83,37.44c.28-.28.55.69.16.47-.18-.09-.25-.38-.16-.47ZM93.34,38.08c0,.06-.07.08-.14.07-.1,0-.18-.01-.2.01-.01.02-.02.04-.03.03-.11-.08-.31-.49-.15-.59.02-.02.56.21.52.47ZM91.99,37.86c0,.1-.02.16.04.16.04,0,.07.01.1.04.22.18-.27.59-.53.3-.09-.09-.01-.2.11-.26.1-.05.14-.07.09-.09-.02-.02-.06-.04-.09-.06-.13-.12-.27-.33-.21-.45.21-.4.47.08.48.36ZM91.63,40.21c-.08-.05-.17-.07-.1-.2.23-.36.49.45.1.2ZM91.46,39.28c-.06-.04-.12-.03-.13-.02-.01,0-.13-.06-.1-.17.04-.11.4.03.43.15.03.11-.14.06-.21.04ZM90.26,38.44c.15.03-.07.54-.23.41-.04-.04-.06-.47.23-.41ZM85.12,38.66c-.14.09-.34-.02-.39-.18-.11-.41.85-.11.39.18ZM79.58,37.92c-.3-.09.06-.52.24-.41.2.12,0,.47-.24.41ZM79.94,42.17c-.02.11-.17.03-.2-.08-.03-.12-.02-.24.1-.25.08,0,.13.2.1.33ZM80.4,43.02c-.15.07-.29.14-.44.23-.09.05-.12.03-.06-.06.1-.15.21-.29.31-.42.07-.08.2-.19.31-.24,1.15-.51,2.16-.49,3.27-.28.11.02.24.12.3.22.07.11.15.23.23.33.07.09.05.12-.05.09-.56-.18-1.14-.28-1.74-.28-.73,0-1.47.15-2.13.43ZM81.18,41.34c.12.12.03.32-.16.31-.23,0,.02-.44.16-.31ZM83.52,40.19c.11-.02.18.05.16.15-.02.1-.11.18-.23.18h-1.43c-.11,0-.22,0-.25-.03l-.06-.05s-.11-.09-.17-.13c-.09-.07-.06-.11.04-.09.29.05.57.08.85.07.36,0,.72-.04,1.09-.1ZM82.48,40.25c-.07.03-.11-.11-.14-.17-.25-.46.39.09.14.17ZM83.5,41.53c-.64-.1-1.27-.12-1.91-.01-.11.02-.13-.02-.04-.09.06-.05.11-.09.16-.13,0,0,.03-.02.06-.05.04-.03.15-.05.26-.05h1.42c.11,0,.2.08.22.18,0,.1-.06.17-.16.15ZM83.82,39.47c-1.14.23-2.15.25-3.32-.26-.1-.05-.24-.15-.31-.23-.08-.1-.16-.2-.23-.3-.07-.09-.04-.12.06-.07.12.07.24.13.37.18.25.11.51.19.78.25.1.03.15-.02.12-.1-.02-.03-.04-.08-.07-.14-.06-.12-.21-.1-.12-.24.02-.03.58.08.61.27.01.07-.02.12-.08.17-.07.07-.07.13.04.15.28.04.57.06.86.07.6,0,1.18-.1,1.74-.29.1-.03.13,0,.05.08-.07.09-.13.17-.19.27-.06.09-.2.18-.3.21ZM85.44,42.86c-.07,0-.22-.08-.12-.11.1-.03.25-.04.22.06-.02.04-.06.05-.1.05ZM84.76,41.4c-.03-.1-.05-.19-.06-.19-.01,0-.11-.05-.12-.16,0-.04,0-.08.02-.13.03-.1.09-.27.11-.38.16-.89.94-1.57,1.87-1.57,1.06,0,1.92.85,1.92,1.91,0,1.05-.86,1.91-1.91,1.92-.88,0-1.62-.59-1.84-1.4ZM87.94,48.7c-.09.07-.12.04-.07-.06.47-.9.82-1.78.98-2.71.17-.93.1-1.86-.15-2.85-.02-.1.02-.13.08-.04.31.38.54.83.66,1.31.15.55.16,1.14.07,1.7-.18,1.05-.74,2.04-1.57,2.66ZM89.28,41c0,.06-.09.19-.29.13-.26-.06.31-.38.29-.13ZM89.31,37.91c-.13.35-.31.68-.54.96-.06.09-.11.07-.08-.04,0-.05.02-.08.03-.13.02-.1-.08-.22-.05-.3.03-.08.14-.13.15-.2.01-.07-.01-.15-.03-.21-.01-.04,0-.06.02-.09.01-.01.02-.02.03-.03.02-.01.04-.09.05-.17,0-.08,0-.15,0-.15,0,0,0,0,0-.02,0-.01.02-.11.02-.22.01-.36,0-.72-.05-1.08-.01-.11-.08-.18-.15-.2-.07,0-.14-.02-.15.07,0,.06.03.13.01.14-.24.28-.36-.07-.29.56.02.18-.14.33-.13.36.09.31.48.39.44.58-.04.28-.92-.34-.54.13.33.39-.19.25-.42.05-.08-.07-.04-.17.04-.17.08,0,.17-.08.12-.16-.02-.05-.04-.1-.02-.18.03-.11.18.03.15-.19-.02-.16-.24-.66-.25-.67-.13-.19-.27,0-.36-.25-.09-.26.22-.62.63-.72.16-.04.36.12.55-.25,0-.02.02-.1.03-.18.01-.09,0-.26-.03-.36-.09-.26-.2-.53-.32-.79-.04-.1-.11-.2-.15-.2-.02,0-.04.01-.06.03-.32.21.26.23.23.37-.07.33-.43.27-.62.11-.17-.16-.03-.11-.02-.17.05-.3-.28-.31-.35-.5,0-.01.15-.06.15-.07.07-.2-.21-.2-.19-.28.02-.05.09-.04.16-.03.1.02.17-.1.16-.21-.04-.23-.12-.58-.33-.67-.03,0-.06.02-.08.06-.03.06-.1.06-.18-.02-.1-.09-.19-.22-.14-.39.1-.45.34.1.41.23.1.19.32.51.5.68.1.08.4.13.46.24.06.1,0,.23.08.3.1.1.2.2.29.31.07.08.09.05.16-.04.05-.06.12-.04.17.13.02.05.03.12.03.18,0,.1-.04.17,0,.25.05.08.18.1.28.13.23.09.45.48.31.66-.02.02-.05.03-.1.03-.06,0-.08.07-.04.18,0,.04.02.07.03.11.03.11.08.21.12.23.03.02.06.03.08.02.23-.18.3-1.27.48-.65.09.33-.1.23-.13.36-.07.27.31.44.1.62-.13.12-.34,0-.46-.09,0,0-.03-.02-.04-.03-.02-.03-.04-.04-.04-.04t0,0c.06.39.08.79.03,1.19,0,.11.06.17.17.2.07.02.11.06.09.15-.02.06-.08.18-.21.25-.09.06-.21.15-.25.26ZM91.69,41.15c-.1-.02-.22,0-.27,0-.02,0-.05,0-.09-.01,0,0-.02-.02-.03-.04,0-.02-.07-.06-.14-.08-.07-.02-.16.06-.09.14.04.06.12.1.19.14.09.05.19.18.12.26-.21.23-.84.05-.86-.24,0-.02.17-.18.11-.28-.05-.07-.16.11-.2.09-.03-.02-.05-.07-.06-.12-.02-.07-.14-.12-.25-.13-.11,0-.22-.02-.24-.03-.39-.46.11-.82.46-.69.09.03.17.1.14.02-.04-.1-.14-.16-.2-.24-.04-.06-.09-.12-.05-.16.24-.24.27.42.28.48.03.14-.1.28,0,.5.05.1.19.19.29.22.08.03.16.05.17.02,0,0,0-.01,0-.02,0-.01,0-.02-.01-.03,0,0,0,0,0,0,0,0,0-.1-.07-.19-.13-.16-.36-.27-.3-.43.09-.23.27.12.56.16.13.02.33,0,.47.07.1.05.21.13.32.11.03,0,.07-.01.11-.02.11-.02.2-.13.21-.24.01-.18.04-.4.05-.41.07-.05.15-.03.21,0,.1.05.17.02.09-.05-.12-.09-.33-.08-.32-.25,0-.03.44-.41.53-.42.21-.04.28.02.36.15.06.09.03.16.05.26,0,.08.03.17.05.24.04.11.03.16-.08.14-.07-.01-.14-.02-.23.04-.02.01-.06.11-.12.24-.04.1.02.18.13.17.25-.02.51-.04.76-.04.11,0,.18-.06.15-.13-.02-.05-.04-.09-.07-.1-.14-.05-.09.3-.27.07-.13-.17-.08-.16.01-.16.11,0,.18-.13.21-.24.07-.24.22-.55.33-.22.02.07-.04.15,0,.24.05.13.18.18.29.23.1.04.15.15.14.21,0,.06.04.11.12.11.08,0,.07-.05.02-.12-.05-.06-.05-.11.06-.12.11,0,.17.02.2.07.06.09.13.19.24.21.55.05,1.11.14,1.66.32.11.03.11.09,0,.12-.95.3-1.9.37-2.85.38-.77,0-1.53-.06-2.3-.23ZM96.39,39.57s-.06-.09-.09-.12c-.06-.07-.12-.13-.13-.16,0-.02,0-.03.01,0,0,.02.11.04.21-.01.02-.01.04-.02.06-.04.1-.06.22-.08.3,0,.06.06.14.12.2.18.08.08.1.2.05.3-.09.17-.23.41-.31.38-.12-.03-.18-.31-.3-.52ZM97.46,40.44s.09-.08.15-.08c.11,0,.07.14.02.16-.05.02-.21.02-.17-.08ZM98.48,39.79c-.18.17-.42-.06-.51-.19-.34-.46.76-.06.51.19ZM98.6,40.5s-.05-.08-.04-.14c0-.04.1-.01.19.03.1.05.22.04.27-.05.04-.07.09-.12.15-.09.32.18.06.43-.26.39-.11-.01-.26-.08-.31-.14ZM91.12,40.88s0,0,.03,0c.04,0,.05-.03.02-.03,0,0-.02,0-.03.01,0,0-.02.02-.02.02ZM88.61,35.61c.06.08.15,0,.12-.1,0-.01-.01-.03-.01-.05-.03-.11-.09-.17-.12-.13-.02.03-.04.06-.04.09,0,.08.02.13.05.18ZM93.02,38.11s.02.01.02,0c0,0,0-.01-.02,0ZM28.97,38.93c0-.66-.41-1.11-1-1.1-.63,0-1.07.57-1.07,1.41,0,.69.25,1.22.76,1.63.49.38,1.15.6,1.87.59,1.81,0,3.07-1.36,3.07-3.3,0-1.81-1.12-2.97-2.85-2.97-.45,0-.79.07-1.23.25-.1.04-.17,0-.16-.11l.1-1.07c0-.11.1-.18.21-.17.63.11.77.11,1.12.11,1.23,0,1.81-.33,2.63-1.56.06-.09.04-.22-.04-.3l-.03-.03c-.08-.07-.22-.08-.31-.03-.44.26-.94.37-1.59.38-.81,0-1.61-.13-2.45-.4-.1-.04-.25-.05-.33-.03-.07.03-.14.13-.15.24l-.29,4.19c-.01.11.08.21.18.21l.72.04c.11,0,.25-.07.32-.15.2-.23.48-.34.82-.34.83,0,1.32.69,1.32,1.86,0,1.28-.47,1.97-1.36,1.97-.29,0-.48-.04-.72-.19-.1-.05-.09-.14,0-.21.33-.23.46-.51.46-.92ZM48.67,17.24c.26-.07.13-.37-.01-.42-.41-.15-.22.48.01.42ZM48.88,21.17c.02-.07-.06-.06-.08,0-.02.07.07.07.08,0ZM48.73,21.66s0-.05-.01-.04c-.02,0-.04.04-.03.06,0,.02.03.01.05-.02ZM52.98,25.29s-.02,0,0,.01c.01.02.02.03.03.03,0-.01,0-.03-.02-.04ZM54.25,28.44c-.07-.09-.09-.1-.11.02-.02.13-.02.26-.02.4,0,1.17.58,1.94,1.45,1.93.37,0,.68-.13.94-.42.07-.08.12-.1.12-.04v.12c0,.11.1.2.2.2h1.1c.11,0,.2-.09.2-.2v-.25c0-.11-.07-.2-.14-.19h-.14c-.19,0-.25-.09-.25-.36v-4.13c-.01-.11-.1-.2-.21-.2h-1.21c-.11,0-.2.09-.2.21v.25c0,.11.07.2.15.2h.14c.2,0,.26.09.26.36v.6c0,.11.04.22.06.27,0,.02.01.05,0,.08-.03.13-.29.06-.4-.08-.07-.09,0-.2.04-.2.04,0,.02-.04-.07-.11-.17-.12-.36-.17-.58-.16-.66,0-1.16.5-1.37,1.29-.02.11-.03.18-.03.18,0,0,0-.01,0-.02.09-.17.39-.12.5-.07.07.04.12.08.15.14.05.1-.06.23-.14.28-.07.05-.14.09-.15.09-.11,0-.23-.08-.3-.18ZM55.48,27.36c.05,0,.08.05.1.11.02.08.08.1.17.07.09-.03.16-.04.15-.05,0,0,0-.01,0-.02-.02-.11.14-.09.2-.05.04.02.04.04.03.07-.02.04.03.06.11.13.24.18.38.59.38,1.18,0,.82-.28,1.34-.73,1.34-.42,0-.66-.45-.66-1.28,0-.35.04-.63.12-.85.04-.1.02-.22-.04-.29-.04-.06-.08-.11-.08-.13,0-.05.17-.23.24-.22ZM54.71,28.75c-.02-.14.09-.09.15-.09.27.03-.12.32-.15.09ZM26.72,61.23c.1-.05.24-.04.25.07,0,.11,0,.23.07.25.07.03.42-.08.32-.34,0-.01-.01-.02-.02-.03-.02-.02-.11-.07-.21-.12-.18-.09-.36-.18-.54-.29-.05-.03-.1-.07-.15-.1-.08-.05-.13,0-.18.09-.08.14-.2.27.09.45.14.08.22.1.38.03ZM28.08,61.49s-.06.03-.02.04c.05.02.06-.02.02-.04ZM25.94,60.43c.1.02.12-.02.03-.08-.05-.04-.09-.07-.14-.1-.08-.07-.18-.08-.18-.04,0,.03,0,.06.01.08.04.08.16.12.28.14ZM33.34,44.43c.06-.08.19-.13.34-.13,0,0,.08,0,.18,0,.1,0,.18-.09.18-.2v-.25c0-.11-.09-.2-.2-.2h-2.16c-.11,0-.2.09-.2.21v.26c0,.11.06.2.15.19h.16c.14,0,.26.04.32.11.05.06.06.1.05.27v.97c0,.11-.09.2-.19.2h-1.45c-.11,0-.2-.09-.2-.2v-.97c0-.15,0-.2.04-.25.06-.08.19-.13.33-.13,0,0,.07,0,.15,0,.08,0,.15-.09.14-.2v-.26c0-.11-.09-.2-.2-.2h-2.17c-.11.01-.2.09-.19.21v.26c0,.11.08.2.18.2h.18c.14,0,.27.04.32.11.05.06.06.1.06.27v3.27c0,.15,0,.2-.04.25-.06.08-.18.12-.33.12,0,0-.08,0-.18,0-.1,0-.18.09-.18.2v.25c0,.12.09.21.2.2h2.16c.11,0,.2-.1.2-.21v-.26c0-.11-.06-.2-.15-.2h-.15c-.14,0-.26-.04-.32-.11-.05-.06-.06-.11-.06-.26v-1.18c0-.11.08-.2.2-.2h1.45c.11,0,.2.08.2.19v1.18c0,.16,0,.2-.03.25-.07.09-.19.13-.33.13,0,0-.07,0-.15,0-.09,0-.15.09-.15.2v.26c0,.11.09.19.2.2h2.16c.11,0,.2-.09.2-.21v-.26c0-.11-.08-.2-.18-.2h-.18c-.14,0-.27-.04-.32-.12-.05-.05-.06-.1-.06-.26v-3.27c0-.15,0-.19.04-.25ZM34.67,48.36c0,.38.27.68.59.68.33,0,.59-.31.59-.69,0-.37-.26-.68-.59-.68-.33,0-.59.3-.59.68ZM62.5,64.92c.02-.1,0-.22-.07-.21-.03,0-.04.06-.04.12,0,.08.08.2.11.09ZM62.53,58.84c.08.04.35-.21.23-.33-.15-.16-.48.19-.23.33ZM62.04,58.27c-.1-.06-.07.18,0,.18,0,0,.08-.14,0-.18ZM61.83,59.19c.03.07.29.11.34.05.21-.25-.5-.33-.34-.05ZM62.03,59.91c.09.09.18.11.23.08.24-.14-.16-.29-.18-.33-.01-.02.08-.11.08-.11,0-.09-.22-.16-.26-.1-.02.03.08.2.09.21.02.09-.06.16.04.26ZM41.67,60.89c.04.06.06.18.16.13.21-.1-.39-.52-.16-.13ZM42.23,60.76c.04.05.12.15.19.06.14-.16-.38-.37-.19-.06ZM62.74,59.54s.04.01.1-.02c.06-.03.06-.11-.02-.11-.05,0-.11,0-.15.02-.16.09-.06.45-.05.46.02,0,.2-.02.23-.13,0-.03-.04-.06-.08-.09-.04-.05-.04-.12-.03-.13t0,0ZM75.8,40.47c.08.02.15-.04.15-.09,0-.03,0-.07,0-.1,0-.22-.07-.43-.18-.59-.06-.09-.15-.14-.18-.13-.02,0-.04,0-.06,0-.1,0-.21-.12-.38-.18-.09-.03-.19.02-.25,0-.01,0-.02-.02-.03-.03-.02-.01-.12,0-.21.06-.27.17-.44.49-.44.86,0,.56.39,1,.87,1,.25,0,.47-.12.62-.31.07-.09.02-.16-.09-.19-.14-.04-.27-.12-.32-.28-.11-.29.13-.33.37-.11.04.04.08.06.12.07ZM64.88,59.76s-.22.09-.11.15c.04.01.17-.14.11-.15ZM64.01,59.32c.03-.13-.06-.21-.16-.25-.1-.04-.17,0-.14.03.02.01.05.07.04.14,0,.04-.01.09,0,.1.07.07.25.03.26-.02ZM62.77,59.18c.05.04.15-.01.07-.1-.02-.03-.06-.05-.09-.07-.1-.03-.04.12.02.16ZM42.45,59.74c-.06,0-.09.07-.03.1.06.03.07-.09.03-.1ZM52.25,25.39s-.08,0-.08.02c-.01.01.01.06.07.07.06.01.06-.07.02-.09ZM63.17,59.53c-.11-.03-.12.09-.11.09,0,0,.03.06.1.09.05.03.11.03.13.02.12-.05,0-.17-.11-.2ZM42.98,59.83s-.02.14.04.14c.04,0,.03-.22-.04-.14ZM55.88,59.02c-.05.04-.04.19.04.26.18.14.12-.38-.04-.26ZM57.38,58.95c.06-.09-.27-.17-.16-.04.03.03.12.11.16.04ZM57.88,59.59c-.08-.04-.06.07,0,.11.04.04.09.05.11.01.02-.04-.04-.09-.1-.12ZM54.83,60.39c-.02.09-.01.22.04.26.05.05.05.12.04.14-.02.02,0,.11.07.13.03,0,.07,0,.13-.03.11-.1-.09-.01-.12-.09-.02-.06.2-.43.23-.45.04-.02.08-.01.11,0,.07.02.07-.03.06-.12,0-.1.03-.19-.03-.26-.02-.04-.07-.06-.14-.05-.05,0-.3.16-.31.18-.02.06.04.09.09.12.08.05.05.08,0,.05-.03-.02-.07-.03-.11,0,0,0-.03.07-.05.15ZM59.21,62.9c.13.07.2-.36.04-.37-.11,0-.18.29-.04.37ZM44.42,58.83c-.08.04-.1.2-.01.27.23.19.26-.39.01-.27ZM42.49,59.82s.05.07.05.08c.19.1.02-.21-.05-.08ZM54.88,60.84s-.01,0-.02.02c0,.02.02,0,.02-.02ZM44.67,59.21c.14-.04.34.14.25-.08-.13-.32-.39.04-.33.09,0,0,.07-.02.08-.02ZM54.47,60.16c-.05.07,0,.08.03.11.18.16.12-.28-.03-.11ZM59.5,60.26c-.06-.08-.24.18-.09.2.07.01.13-.15.09-.2ZM49.73,47.32c0-.67-.25-1.11-.75-1.36-.3-.15-.5-.2-1.4-.41-.71-.17-.95-.34-.96-.67,0-.43.37-.74.89-.74.48,0,.92.24,1.16.64.09.16.15.32.19.55.02.11.12.19.23.19h.25c.11,0,.2-.09.2-.2v-1.53c0-.1-.1-.2-.2-.2h-.15c-.11,0-.22.08-.24.18-.03.1-.11.12-.2.05-.34-.27-.73-.39-1.24-.39-1.13,0-1.85.7-1.84,1.81,0,.4.1.74.3.99.2.24.48.39,1.06.54q1.1.29,1.33.38c.23.09.33.24.34.48,0,.43-.35.71-.88.71-.51,0-1.01-.24-1.24-.59-.09-.15-.16-.31-.23-.6-.02-.11-.13-.19-.24-.19h-.26c-.1,0-.19.08-.19.2v1.58c0,.11.09.2.21.19h.15c.11,0,.22-.08.26-.19l.02-.05c.04-.1.13-.13.21-.05.4.32.84.47,1.42.46,1.13,0,1.83-.68,1.82-1.8ZM57.88,56.49c-.1-.06-.12.11-.11.15.08.21.14-.13.11-.15ZM57.6,57.28s.13.07.18-.02c.05-.08-.04-.13-.09-.09-.04.03-.09.05-.09.05-.02.02-.02.04-.01.06ZM57.88,57.35c-.01.07.06.25.09.17.02-.05.02-.15,0-.16-.06-.05-.09-.04-.1,0ZM56.23,44.37c.05-.08.18-.13.33-.13,0,0,.09,0,.18,0,.1,0,.18-.09.18-.2v-.26c0-.11-.09-.2-.2-.19h-1.78c-.11,0-.24.08-.27.19l-1.03,2.91c-.04.1-.1.1-.14,0l-1.03-2.9c-.03-.11-.15-.19-.26-.19h-1.88c-.12,0-.2.1-.2.21v.25c0,.11.08.2.18.2h.18c.14,0,.26.05.31.11.05.06.06.1.06.26v3.28c.01.15,0,.19-.03.25-.06.08-.18.13-.34.13,0,0-.08,0-.18,0-.1,0-.18.09-.18.2v.25c0,.11.09.2.2.2h1.77c.11,0,.2-.09.2-.2v-.26c0-.11-.07-.2-.16-.2h-.16c-.15,0-.27-.04-.32-.11-.05-.05-.06-.1-.06-.26v-2.88c0-.11.02-.12.06-.01l1.32,3.73c.04.1.16.19.27.19h.13c.11,0,.23-.09.26-.2l1.33-3.69c.04-.1.07-.1.07,0v2.84c0,.15,0,.19-.04.25-.05.08-.18.12-.33.12,0,0-.08,0-.18,0-.1,0-.18.09-.18.2v.26c0,.11.09.2.2.2h2.22c.11,0,.2-.1.2-.21v-.26c0-.11-.09-.2-.18-.2h-.18c-.14,0-.27-.05-.32-.11-.04-.06-.06-.1-.06-.26v-3.27c-.01-.15,0-.2.03-.25ZM57.77,57.09s-.01,0,0,0c0,0,0,0,0,0ZM58.09,57.06c.02.05.11.1.19.09.08-.01.07-.07-.02-.12-.06-.05-.12-.09-.16-.06-.03.03-.03.06-.01.09ZM54.37,56.09s-.05.03-.08.11c-.04.07.09-.09.08-.11ZM54.23,56.33c-.07.07,0,.19.05.22.15.09.07-.35-.05-.22ZM54.9,56.58c.07-.06-.11-.08-.16-.1-.04,0-.07-.02-.09,0-.04.04-.04.11-.04.18.02.11.09.19.12.14.02-.05.03-.1.04-.11.05-.05.1-.09.13-.11ZM53.72,57.45s.09.02.11,0c.13-.12-.14-.6-.29-.28-.04.1.13.1.12.18,0,.01-.01.02-.01.03,0,.02.03.04.08.06ZM58.68,55.33c0-.37-.27-.68-.59-.68-.33,0-.6.29-.6.67,0,.39.27.69.59.7.33,0,.6-.31.59-.69ZM55.93,56.98c.07-.04.21.07.35-.01.02,0,.1-.13.07-.17,0,0-.07,0-.14.02-.08.01-.17-.02-.23-.11-.02-.04-.05-.07-.07-.1-.07-.09-.13.03-.11.13.02.1-.02.18-.09.23-.04.02-.05.06,0,.12.16.19.17-.1.21-.12ZM56.52,51.28s.09,0,.18,0c.1,0,.18-.09.18-.2v-.26c0-.11-.09-.2-.2-.2h-1.79c-.11,0-.23.09-.26.2l-1.03,2.9c-.04.11-.1.1-.14,0l-1.03-2.9c-.04-.1-.16-.19-.27-.19h-1.88c-.11,0-.2.1-.2.21v.25c0,.11.09.2.19.2h.18c.14,0,.27.05.32.11.05.06.05.11.05.27v3.27c0,.15,0,.19-.03.25-.06.08-.18.12-.33.12,0,0-.08,0-.18,0-.1,0-.18.1-.18.2v.26c0,.11.09.2.2.2h1.78c.11,0,.19-.1.2-.21v-.25c0-.11-.07-.2-.17-.2h-.16c-.14,0-.26-.04-.32-.11-.05-.05-.06-.1-.06-.27v-2.88c0-.1.02-.11.06,0l1.32,3.73c.04.1.16.19.27.19h.13c.11,0,.22-.08.26-.19l1.33-3.7c.04-.1.07-.1.07.01v2.84c0,.15,0,.19-.03.25-.02.04-.07.07-.12.09-.08.03-.16-.06-.24-.13-.08-.06-.15.05-.13.09.01.04.01.07,0,.07h-.02c-.1,0-.18.09-.18.2,0,0,0,0,0,.02,0,.01-.01.02-.03.01,0,0-.01.01-.03.01-.03.03-.03.05,0,.07.03.04.06.08.06.1v.05s0,.05.01.07c.01.04.04.07.04.08,0,0,0,.01,0,.02,0,.01,0,.04.02.06,0,.04.03.04.05,0,.02-.02.03-.05.04-.05,0,0,0,.01.02.03,0,.01.02.01.04,0,0,0,.11-.02.22-.02h.33c.11,0,.19.04.2.08.01.03.04.07.05.06.04,0,.04-.03.04-.06,0-.05.06-.09.17-.08h1.19c.11,0,.19-.09.19-.21v-.25c0-.11-.08-.2-.18-.2h-.18c-.14,0-.26-.04-.32-.11-.05-.06-.06-.11-.06-.27v-3.28c-.01-.15,0-.19.03-.24.06-.08.18-.13.33-.13ZM70.03,21.55c-.04-.14-.12-.24-.22-.31-.09-.07-.27-.1-.37-.1-.24,0-.48,0-.72.03-2.14.16-4.4.86-5.79,2.6-.5.64-.86,1.32-1.06,2.02-.03.1-.05.23-.04.28,0,.03.02.05.04.08.08.11.18.09.21.16.02.06,0,.13-.03.2-.04.1.07.17.16.1.09-.05.17-.1.23-.02.09.14-.17.27-.19.35-.05.24.25.37.13.59-.06.09-.21.02-.31.13-.13.16.05.56-.1.6-.1.04-.16.04-.14.15.03.08.06.17.09.25.12.32.27.6.46.86.07.09.17.11.25.09.08-.02.12.1.06.13-.05.03-.04.1.03.18.02.02.03.03.05.05.08.08.16.14.17.14.01.01.08.08.17.15.4.29.88.5,1.4.59,1.29.23,2.49-.09,3.28-.86.13-.13.24-.28.34-.42.06-.09.05-.2,0-.23-.06-.03-.09-.05-.09-.08-.01-.02.12-.33.16-.37.05-.03.1-.04.15-.03.09,0,.19-.03.22-.13.39-1.04.29-2.44-.87-3.16-1.26-.77-2.71-.25-3.04.9-.33,1.15.08,1.85.71,2.26.11.08.21.15.29.23.08.08.19.08.29.04.02,0,.03-.02.04-.02.11-.03.09.14.01.18-.09.04-.11.15-.17.25-.04.08-.17.15-.39.19-.27.04-.72-.03-1.17-.23-.1-.04-.16-.04-.19,0-.01.02-.04.03-.08.04-.03,0-.06-.04-.07-.09-.02-.06-.05-.15-.14-.21-.54-.37-1-.96-1.09-1.81-.02-.94.34-1.96,1.03-2.84.98-1.24,2.76-1.99,4.79-2.18.11,0,.29,0,.39.02.08.02.15.05.23.09.1.04.19,0,.25-.1.05-.07.09-.13.16-.17.14-.09.41.12.6.13.13,0,.29-.06.44-.12.1-.04.14-.14.08-.23-.12-.15-.29-.29-.48-.23-.11.03-.17,0-.2-.1ZM67.85,26.18c.06.14.16.25.29.36.09.07.08.12-.03.14-.13.03-.27.07-.3.05-.1-.09.09-.23.02-.4-.03-.08-.13-.15-.15-.21-.03-.1.13-.04.17.06ZM67.85,28.72c.05.02.11.04.09.11-.12.35-.51-.29-.09-.11ZM65.21,26.76c-.1-.05-.14-.2-.03-.23.16-.03.4.08.36.22-.03.09-.19.07-.33,0ZM63.79,29.48s.09-.04.11-.04c.25.02-.16.21-.11.04ZM62.17,25.79c-.05-.05.01-.12.01-.24,0-.18-.14-.25-.07-.34.07-.08.26-.03.39.04.15.1.18.2.17.25-.07.31-.45.32-.5.28ZM65.62,40.46s-.01-.08-.03-.11c-.04-.06-.09-.08-.1-.07t-.02,0s-.02-.01-.03-.02c0,0-.01,0-.02,0h-.45c-.2,0-.39-.06-.46-.16-.08-.08-.09-.15-.09-.38v-2.19c0-.12-.09-.24-.18-.3-.2-.11-.44-.25-.54-.15-.07.08-.53.71-.73.63-.1-.03-.07-.36-.13-.42-.01-.01-.03-.02-.06-.03-.03-.01-.06.07-.06.18v.03c0,.11,0,.2.02.2,0,0,0,0,0,0,0,0-.01.1-.01.21v1.82c0,.22,0,.29-.06.36-.09.12-.27.19-.49.19h-.47c-.11,0-.2.09-.2.2v.57c0,.11.1.2.21.2h3.71c.11,0,.19-.1.2-.21v-.57ZM63.54,39.71c-.12.05-.12.18-.2.17-.14-.02-.19-.11-.17-.23.01-.11-.01-.22-.12-.24,0,0-.01,0-.03,0-.11-.02-.08-.21.02-.24.11-.02.17-.08.14-.13-.04-.05.03-.17.13-.15.1.01.15.11.12.14-.03.05.02.13.12.17.22.06.51.08.46.31-.04.2-.29.1-.47.18ZM64.1,37.94c-.06-.08.04-.19.11-.11.01.02.02.03.03.04.05.09-.08.15-.14.07ZM62.72,35.87c0,.08.11.11.1,0,0-.1-.11-.08-.1,0ZM61.47,34.66s.05,0,.08-.02c.1-.04.1-.2,0-.2-.03,0-.07,0-.1.02-.1.04-.08.2.03.2ZM62.56,34.43h.03s.04.01.05.02c.03.02.11-.06.02-.09-.08-.02-.12.06-.1.06ZM63.09,36.03c.06.02.06-.09,0-.09-.06,0-.07.07,0,.09ZM52.16,29.06v.61c0,.27-.06.36-.25.36,0,0-.07,0-.15,0-.08,0-.15.09-.15.2v.25c0,.11.09.2.2.2h1.72c.11,0,.2-.09.2-.2v-.25c0-.11-.07-.21-.15-.2h-.15c-.18,0-.24-.09-.25-.36v-2.14c0-.11-.01-.22-.02-.25,0-.02,0-.05,0-.05,0,0,.02-.04.02-.08v-.09c0-.11-.09-.2-.2-.2h-.23c-.11,0-.26.07-.34.15-.12.1-.24.19-.31.16-.04-.02-.06-.07-.07-.14-.01-.09-.07-.17-.12-.16h-.1s-.08.01-.11.04c-.05.04-.01.13.06.16.08.04.07.11,0,.2-.06.09-.11.19-.08.22.03.02.06.03.08.03h.15c.19,0,.25.09.25.36v.57c0,.11.05.19.1.19.06,0,.09-.08.05-.13-.03-.05.03-.17.14-.15.1.02.15.11.11.15-.03.05.01.13.12.16.22.07.51.08.46.32-.04.2-.29.1-.47.18-.12.06-.12.18-.21.17-.13-.02-.19-.11-.18-.22.02-.11.04-.22-.02-.23-.05,0-.1.08-.1.19ZM70.39,19.58s0,.02-.02.04c0,.03.08.06.19.08.04,0,.08.01.12.02.11.02.22,0,.22-.03,0-.03,0-.05,0-.08-.03-.12-.4-.1-.51-.02ZM59.37,44.36c.05-.08.19-.13.33-.13,0,0,.07,0,.15,0,.08,0,.15-.09.15-.2v-.26c0-.11-.09-.2-.2-.19h-2.16c-.11,0-.19.1-.19.21v.25c0,.11.08.21.18.2h.18c.14,0,.26.05.32.11.05.06.05.11.05.26v3.28c.01.15,0,.19-.03.25-.06.08-.18.13-.33.13,0,0-.08,0-.18,0-.1,0-.18.09-.18.2v.26c0,.11.09.19.2.19h2.16c.11,0,.2-.09.2-.21v-.26c0-.11-.07-.2-.15-.2h-.15c-.14,0-.26-.05-.32-.11-.05-.06-.05-.1-.05-.26v-3.28c0-.15,0-.19.03-.25ZM59.63,58.04s.09,0,.07-.05c-.02-.04-.05-.07-.07-.02-.02.04-.02.06,0,.08ZM53.61,56.77c-.02-.2-.17-.04-.1.09.09.15.11,0,.1-.09ZM70.39,23.03s-.08.04-.06.08c.09.11.23-.1.06-.08ZM70.11,22.67c.13.06.24.2.35.16.28-.12-.14-.31-.38-.27-.11.02-.07.06.03.11ZM62.8,36.73s.05-.03.06-.05c.02-.03,0-.13-.03-.23-.04-.1-.1-.08-.1.03v.06c0,.11.04.2.07.19ZM42.05,33.41c-.12,0-.23.09-.27.19l-.1.27c-.03.1-.13.12-.21.05-.62-.5-1.14-.69-1.9-.68-2.1,0-3.57,1.74-3.56,4.24,0,1.48.54,2.65,1.53,3.39.6.45,1.32.68,2.08.68,1.28,0,2.33-.71,2.87-1.95.16-.36.25-.7.31-1.2.01-.11-.07-.2-.17-.2h-.64c-.11,0-.22.09-.23.2-.25,1.29-.91,1.97-1.93,1.98-1.23,0-1.97-1.1-1.97-2.98,0-1.1.25-1.92.75-2.45.32-.35.76-.54,1.24-.54,1.03,0,1.7.74,1.83,2,.01.1.11.2.22.2h.6c.11,0,.19-.1.19-.2v-2.8c0-.11-.1-.2-.21-.19h-.41ZM43.25,30.55c-.05.07-.2.14-.33.14,0,0-.08,0-.18,0-.1,0-.18.09-.18.2v.26c0,.11.09.2.2.2h2.3c.11,0,.2-.09.2-.2v-.27c0-.11-.09-.2-.2-.2h-.24c-.14,0-.27-.04-.32-.11-.05-.05-.06-.1-.06-.26v-1.1c0-.11.09-.2.19-.2h.84c1.18,0,1.75-.5,1.75-1.5,0-.98-.56-1.5-1.62-1.5h-2.87c-.11,0-.2.1-.2.21v.25c0,.11.08.2.18.2h.18c.13,0,.27.04.32.12.05.05.05.1.05.26v3.27c0,.14,0,.19-.03.24ZM44.64,26.69h.31s.05,0,.08,0c.04,0,.08-.02.08-.06,0-.03.05-.03.09,0,.03.04.15.07.26.09.1.03.17.05.24.09.19.12.31.37.32.68,0,.57-.31.82-1,.82h-.38c-.11,0-.19-.09-.2-.2v-1.23c0-.11.09-.2.2-.2ZM43.21,57.17c.38.17-.28-.64-.15-.22.04.12.09.19.15.22ZM36.25,44.33h.06c.2,0,.33.16.47.6l1.19,3.85c.03.11.15.19.26.19h.51c.11,0,.23-.09.26-.19l.81-2.63c.03-.11.08-.1.12,0l.78,2.63c.04.1.15.19.26.19h.5c.11,0,.22-.08.25-.19l1.19-3.85c.15-.5.24-.61.46-.61,0,0,.02,0,.04,0,.03,0,.05-.09.05-.2v-.29c0-.11-.09-.2-.2-.2h-1.41c-.11,0-.2.1-.2.21v.29c0,.11.05.19.1.2h.1c.3,0,.36.04.36.2,0,.06-.01.14-.05.26l-.67,2.31c-.03.1-.08.1-.11,0l-.68-2.3c-.03-.11-.05-.2-.05-.26,0-.16.08-.21.36-.21,0,0,.06,0,.12,0,.07,0,.13-.09.13-.2v-.29c0-.11-.09-.2-.2-.2h-2.03c-.11,0-.19.1-.2.21v.29c0,.11.04.2.1.2h.09c.25,0,.31.04.39.31,0,0,.01.04.03.08.01.05,0,.16-.03.27l-.66,2.1c-.03.11-.08.1-.11,0l-.67-2.3c-.04-.15-.05-.22-.05-.28,0-.14.05-.18.27-.18,0,0,.06,0,.13,0,.07,0,.13-.09.13-.2v-.29c0-.11-.09-.2-.2-.2h-1.86c-.11,0-.2.1-.2.21v.29c0,.11.03.2.07.2ZM43.53,57.14s.09.08.11.06c.05-.08-.2-.18-.11-.06ZM44.82,57.28s.1-.04.1-.05c0-.01-.02-.06-.06-.11-.04-.05-.19-.21-.21-.1,0,.03,0,.07,0,.11,0,.11.1.17.16.15ZM58.65,41.25c.11,0,.19-.09.2-.2l-.02-6.09c0-.23,0-.29.06-.37.08-.11.27-.19.48-.19,0,0,.1,0,.21,0,.11,0,.19-.09.19-.2v-.57c0-.11-.09-.2-.2-.2h-.4c-.11,0-.17.05-.13.1.03.05.06.08.08.1.04.04.09.04.14.06.08.02.05.11-.03.18-.07.06-.14.11-.2.11-.23-.03-.24-.35-.4-.51,0,0-.01,0-.01-.01-.01,0-.11-.01-.22-.02h-.26c-.11,0-.17.02-.14.04.03.02.07.12,0,.18-.06.06.06.19.15.12.1-.08.16-.24.29-.08.08.11-.17.29-.15.46,0,.06.18.12.21.16.07.13-.07.41-.13.44-.01,0-.44-.09-.46-.11-.09-.08-.03-.48-.23-.67-.07-.07-.2-.08-.23-.13-.04-.07,0-.19-.01-.3,0-.03-.01-.04-.02-.06-.01-.03-.11-.06-.22-.06h-.29c-.11,0-.2.09-.2.2v.57c0,.11.09.2.2.2,0,0,.03,0,.05,0,.03,0,.02-.09.04-.19.02-.16.14-.3.33-.2,0,0,.08,0,.1.03.01.03-.01.11-.05.19-.04.1,0,.19.1.23.08.03.14.07.18.12.07.08.08.14.09.38v3.65c0,.11-.04.12-.1.03l-3.14-5.03c-.06-.09-.19-.17-.31-.17h-2.4c-.11,0-.2.1-.2.21v.56c0,.11.1.2.2.2h.33c.17,0,.4.08.47.17.07.08.08.15.08.39l.02,4.79c0,.22,0,.29-.06.36-.08.11-.27.18-.49.19h-.33c-.12,0-.2.09-.2.2v.56c0,.11.09.2.2.2h2.83c.11,0,.2-.09.19-.21v-.56c0-.11-.09-.19-.19-.2h-.33c-.21,0-.39-.05-.47-.16-.07-.09-.08-.15-.08-.39v-3.77c-.01-.11.03-.12.1-.03l3.21,5.13c.06.1.2.17.31.17h1.24ZM56.54,37.86c-.03-.07.02-.1.08-.1.2-.03.01.3-.08.1ZM45.01,48.34c0-.37-.27-.68-.59-.68-.33,0-.6.3-.6.67,0,.38.26.69.59.69.33,0,.59-.3.59-.68ZM47.91,52.15c0-.98-.56-1.5-1.61-1.5h-2.86c-.11,0-.2.1-.2.21v.26c0,.11.08.2.18.2h.18c.13,0,.27.04.32.12.04.06.05.11.05.26v3.28c0,.14,0,.19-.03.24-.05.07-.2.13-.33.14,0,0-.08,0-.18,0-.09,0-.18.09-.18.2v.26c0,.11.09.19.2.2h2.3c.11,0,.2-.1.2-.21v-.26c0-.11-.09-.21-.2-.2h-.24c-.14,0-.27-.04-.32-.11-.05-.05-.06-.11-.06-.27v-1.09c0-.11.09-.2.2-.2h.84c1.18,0,1.75-.5,1.74-1.5ZM45.12,51.54c0-.11.09-.2.2-.2h.32c.38,0,.59.04.75.12.18.12.31.38.31.68,0,.57-.3.82-1,.82h-.38c-.11,0-.2-.09-.2-.2v-1.23ZM48.05,28.78c-.36.15-.56.5-.56.98,0,.65.39,1.06.99,1.06.39,0,.71-.15.98-.43.07-.08.15-.07.21.02.16.27.41.4.77.4.63,0,.91-.34.91-1.09v-.26c0-.11-.09-.2-.2-.2h-.07c-.11,0-.19.09-.2.2v.26c0,.26-.04.36-.16.36-.1,0-.14-.07-.14-.27v-1.78c0-.54-.16-.89-.51-1.09-.09-.05-.27-.08-.37-.08-.12,0-.22.03-.27.05-.16.05-.27.27-.46.05-.03-.03-.04-.07-.04-.11,0-.06-.05-.12-.17-.11-.41.03-.66.13-.89.37-.15.15-.24.4-.24.65,0,.39.24.68.56.68.29,0,.51-.24.51-.55,0-.16-.05-.28-.15-.37-.08-.07-.09-.15.01-.18.06-.01.13-.02.22-.02.17,0,.31.02.42.07.1.04.19.07.23.07.02,0,.04,0,.07,0,.09.03.13.07.13.12,0,.11-.08.19-.07.25,0,.03,0,.06,0,.1,0,.33-.14.47-.64.6-.67.17-.67.18-.86.25ZM50.2,28.27c.08.08.04.21-.07.2-.21-.02-.48-.2-.41-.34.07-.13.32,0,.48.14ZM49.54,29.09v.39c0,.31-.3.59-.62.59-.23,0-.39-.17-.39-.44,0-.28.08-.38.44-.51.1-.03.14-.04.39-.14.1-.04.18,0,.19.12ZM53.08,56.18c-.08-.1-.16-.28-.2-.39-.03-.08-.1-.37-.19-.16-.02.06-.01.12,0,.16.04.09.11.11.12.08.01-.02.03-.03.05-.02.08.05.1.17.11.28,0,.1-.05.21-.1.19-.03-.01-.07-.02-.09,0-.02.04.13.06.08.15,0,0-.02,0-.04.01-.02,0,0,.08.06.14.04.04.07.08.04.15,0,.03-.08,0,0,.09.08.1.26.17.33,0,.03-.07-.27-.13-.09-.21.09-.04.11.12.13.05.03-.11-.2-.2-.05-.29.18-.1-.11-.18-.16-.25ZM50.64,41.07l.04-2.96c0-.11-.08-.2-.19-.2h-.55c-.11,0-.2.09-.2.2-.03,1.51-.44,2.15-1.37,2.15h-1.72c-.11,0-.2-.08-.21-.2v-2.11c0-.11.08-.2.19-.2h.5c.63,0,.79.17.79.89v.28c0,.11.09.2.2.2h.51c.11,0,.2-.1.2-.2v-3.33c-.01-.11-.1-.19-.21-.2h-.51c-.11,0-.2.09-.2.2v.22c0,.7-.18.92-.78.92h-.5c-.11,0-.2-.09-.2-.2v-1.87c0-.11.09-.2.2-.2h1.6c1.13,0,1.38.27,1.5,1.85.01.11.1.19.21.2h.5c.11,0,.2-.09.2-.2v-2.66c0-.1-.1-.2-.21-.2l-6.56.02c-.11,0-.2.09-.2.2v.57c0,.11.1.2.2.2h.33c.42,0,.55.13.55.55v4.78c.02.08.02.14.01.19,0,.1-.12.25-.21.29-.09.05-.21.07-.33.08h-.33c-.11,0-.2.09-.2.2v.56c0,.11.09.2.2.2l6.56-.02c.11,0,.2-.09.2-.2ZM51.77,57.33c.08-.02.11-.24.1-.27,0-.04-.05-.1-.11-.15-.07-.07-.17-.07-.21-.06-.04.01-.09-.08-.13-.16-.04-.09-.06-.21-.02-.31.03-.07.04-.14-.03-.16-.04,0-.19.13-.2.14-.01.03,0,.1.01.18.01.1.06.27.15.31.06.03.13.02.17.08.12.15-.1.04-.03.21.03.09.27.2.29.19ZM51.08,58.79c.01.09.11.16.19.13.26-.11-.21-.35-.19-.13ZM51.58,56.79s.02,0,0,0t0,0ZM52.27,56.35c-.09-.02-.08.08-.08.15,0,.01.02.02.04.03.03.02.03.1.02.17,0,.06,0,.12.03.12.03.01.04-.01.04-.04,0-.04,0-.05-.02-.05,0,0,0,0,0-.03,0-.01,0-.02,0-.01,0,0,.03-.01.04-.07.02-.05,0-.09-.03-.1-.02,0-.04-.02-.05-.03-.05-.09.12-.11,0-.14ZM52.4,55.6s.07.12.06.06c0-.04-.01-.09-.03-.11-.04-.03-.04,0-.03.05ZM50.58,57.12s.08.05.15.08c.08.04.14.08.14.08,0,0,0,0,.02,0,0,0,0,0,0,.02.01,0,.01.02.01.02.07.08.06.04.04,0-.03-.06-.11-.15-.14-.23-.01-.05-.02-.09-.06-.14-.1-.13-.26-.2-.29-.27-.02-.05.11-.2-.03-.23-.14-.03-.16.05-.16.14,0,.11.06.18.09.18.02,0,.01.07.03.18,0,.07.02.13.06.19.02.01.12-.02.15-.02ZM48.46,58.08c.11.05.25-.11.16-.19-.08-.08-.31.12-.16.19ZM48.19,55.29c.07.04.1-.06.07-.08-.04-.02-.15.03-.07.08ZM50.9,57.42c-.17-.02-.11.42-.04.49.34.32.11-.48.04-.49ZM60.29,36.04v.26c0,.11.09.2.2.2,0,0,.04,0,.1,0,.06,0,.06-.09.12-.16.03-.04.08-.05.16-.06.05,0,.11.03.15.07.06.06.14.11.18.06.02-.03.03-.07.03-.1.01-.25.02-.45.04-.61.01-.11.02-.22,0-.25,0-.02-.01-.04-.02-.06-.03-.12-.06-.3-.05-.46.01-.11.03-.24-.04-.25-.07-.01.04-.06.08-.17.09-.2-.19-.67-.1-.8.09-.12.23.01.47.03.23.02.73-.17.68.19-.01.09-.11.13-.2.22-.08.08,0,.17.09.13.23-.12.39-.41.65-.31.06.03.26.25.3.31.04.05.14.23.13.39,0,.11-.06.24,0,.24.06,0,0,.13,0,.24,0,.23.32.41.51.61.08.08.14.08.18-.02.05-.13.14-.25.28-.17.07.04.04.17.06.28.01.11.02.22-.05.31-.1.15-.08.28-.02.35.03.03.06.04.09.04.06,0,.11-.1.11-.21v-1.69c0-.11.06-.2.14-.2h.13c.79,0,1.22.62,1.22,1.77,0,.03,0,.08,0,.15,0,.08.08.15.19.15h.54c.11,0,.2-.09.2-.2v-2.67c0-.11-.09-.2-.21-.2l-6.13.02c-.11,0-.2.09-.2.2v.33c0,.11.01.21.02.24,0,.02-.01.13-.01.23v.97c0,.11.02.2.03.2h.04c.12.04.13.09.1.15-.06.09-.17.18-.17.3ZM63.67,34.48s.09,0,.08.06c-.05.23-.37-.17-.08-.06ZM60.8,34.91c.16-.03.21.19.1.24-.09.04-.28-.21-.1-.24ZM60.56,33.66c.06,0,.12.28,0,.32-.16.06-.24-.36,0-.32ZM49.1,56.95c.07-.03.22-.34.09-.5-.06-.09-.26,0-.31-.04-.03-.02-.08-.12-.13-.24-.04-.1-.02-.15.05-.14.04,0,.09.01.13.01.32,0,.59-.31.59-.68,0-.37-.26-.68-.59-.68-.33,0-.59.3-.59.68,0,.11.03.22.07.32.04.1.09.2.05.22-.03.01-.06.03-.06.05-.01.1.15.3.11.48-.05.22-.17-.09-.09.21.03.09.13.24.23.26.07.02.16-.09.27-.08.12,0,.1.15.19.13ZM49.48,57.44c-.11-.03.05-.07-.08-.16,0,0-.07.03-.08.03-.04,0-.05-.05-.06-.09,0-.07-.08-.02-.11.06-.03.08-.06.15-.06.15,0,0,.17.17.29.3.08.07.19.13.26.12.07-.01.13-.02.13-.02,0,0,.05.08.03.02-.02-.09.06-.12.06-.13,0-.09-.09-.33-.17-.37-.09-.05-.12.11-.21.09Z"/>
  </g>
</svg>