<svg xmlns="http://www.w3.org/2000/svg" xmlns:xlink="http://www.w3.org/1999/xlink" width="175" zoomAndPan="magnify" viewBox="0 0 131.25 131.249998" height="175" preserveAspectRatio="xMidYMid meet" version="1.0"><defs><clipPath id="fd532911f2"><path d="M 2.285156 0 L 130.503906 0 L 130.503906 130.503906 L 2.285156 130.503906 Z M 2.285156 0 " clip-rule="nonzero"/></clipPath></defs><g clip-path="url(#fd532911f2)"><path fill="#2f5982" d="M 13.71875 129.472656 C 14.121094 128.914062 14.199219 127.949219 13.960938 127.308594 C 12.679688 126.347656 14.519531 125.949219 14.757812 125.066406 C 16.042969 122.667969 17.082031 119.863281 19.5625 118.34375 C 20.042969 118.1875 20.765625 118.503906 21.167969 118.101562 C 20.925781 117.222656 19.804688 117.386719 19.242188 116.984375 C 18.285156 116.585938 17.164062 116.824219 16.121094 116.664062 L 15.964844 116.105469 C 16.121094 110.417969 15.722656 104.578125 16.203125 98.734375 L 16.28125 98.652344 C 17.164062 99.855469 18.605469 100.894531 20.207031 100.578125 C 23.570312 99.933594 25.09375 96.335938 25.730469 93.453125 C 26.289062 87.207031 24.851562 81.042969 23.410156 75.285156 C 24.929688 76.078125 27.09375 76.800781 28.855469 75.921875 C 29.976562 75.285156 30.773438 74.003906 30.617188 72.636719 C 30.535156 71.597656 29.976562 70.640625 28.933594 70.238281 C 28.054688 70.160156 27.332031 70.398438 26.773438 71.039062 C 26.53125 71.359375 26.53125 71.839844 26.289062 72.242188 C 24.210938 70.398438 24.289062 67.035156 25.007812 64.636719 C 26.289062 61.832031 29.335938 60.550781 31.738281 58.871094 C 35.578125 57.109375 40.625 54.632812 41.582031 49.910156 C 42.867188 51.585938 44.949219 51.429688 46.46875 52.472656 C 46.390625 51.429688 46.871094 50.628906 46.953125 49.589844 C 47.832031 49.589844 49.191406 49.511719 50.230469 49.746094 C 51.03125 49.828125 51.515625 50.546875 52.316406 50.628906 C 52.554688 50.070312 51.914062 49.589844 51.996094 48.945312 C 51.914062 47.507812 51.753906 45.90625 51.195312 44.625 L 51.433594 44.386719 C 52.398438 44.308594 53.277344 44.066406 54.15625 43.824219 C 54 43.183594 53.4375 42.542969 53.199219 41.824219 C 52.957031 41.101562 52.316406 40.382812 51.753906 39.902344 C 59.363281 37.582031 59.203125 28.859375 64.328125 23.972656 C 65.847656 22.691406 67.769531 21.734375 69.773438 22.214844 C 70.894531 22.535156 72.09375 23.171875 72.734375 24.296875 C 72.492188 24.773438 71.855469 24.375 71.453125 24.695312 C 70.574219 25.332031 70.332031 26.214844 70.410156 27.335938 C 70.574219 28.136719 71.375 28.859375 72.09375 29.339844 C 72.972656 29.578125 74.175781 29.578125 74.976562 29.097656 C 76.5 28.136719 77.140625 26.375 76.898438 24.53125 C 76.742188 23.492188 76.257812 22.457031 75.699219 21.574219 C 77.777344 21.734375 79.703125 22.773438 81.785156 23.257812 C 86.828125 24.136719 92.113281 25.332031 97.398438 24.054688 C 99.640625 23.335938 102.363281 21.976562 103.003906 19.492188 C 103.644531 17.734375 102.679688 15.890625 101.402344 14.609375 C 101.078125 14.292969 100.519531 14.050781 100.28125 13.648438 C 103.402344 13.40625 106.363281 13.328125 109.488281 13.488281 L 109.726562 13.40625 L 117.335938 13.488281 C 117.417969 14.609375 117.574219 15.808594 118.296875 16.609375 C 119.257812 16.609375 118.777344 15.328125 119.417969 14.769531 C 121.421875 12.609375 124.222656 12.53125 126.464844 10.847656 C 127.1875 11.167969 128.066406 11.488281 128.949219 11.167969 C 129.585938 10.929688 130.230469 10.285156 130.308594 9.648438 C 130.386719 9.003906 130.472656 8.289062 130.070312 7.722656 C 129.667969 6.921875 128.707031 6.765625 127.824219 6.765625 L 126.386719 7.085938 C 124.140625 4.847656 120.140625 5.324219 119.019531 1.882812 C 119.019531 1.5625 118.941406 1.324219 118.777344 1.164062 C 117.976562 1.242188 117.894531 2.121094 117.660156 2.601562 C 117.335938 3.324219 117.574219 4.28125 117.496094 5.082031 L 108.128906 5.324219 L 77.300781 5.082031 L 46.308594 5.324219 C 39.742188 5.882812 33.175781 8.765625 30.054688 15.085938 L 28.933594 17.734375 C 28.375 16.851562 27.8125 15.890625 27.011719 15.085938 C 29.414062 13.726562 30.617188 11.007812 32.296875 9.085938 C 33.820312 7.644531 35.578125 6.6875 37.742188 6.6875 C 37.984375 6.445312 37.660156 6.046875 37.417969 5.964844 C 35.902344 4.683594 33.820312 4.683594 31.976562 5.003906 C 31.652344 3.484375 31.738281 1.964844 31.175781 0.523438 L 30.535156 0.601562 C 29.335938 1.324219 28.132812 2.523438 27.09375 3.324219 C 25.410156 1.722656 23.410156 0.125 20.925781 0.921875 C 20.207031 1.804688 21.808594 1.722656 22.125 2.441406 C 24.769531 5.644531 22.125 10.128906 23.648438 13.648438 C 23.011719 13.488281 21.808594 13.726562 21.726562 12.6875 C 21.488281 11.566406 20.925781 10.527344 21.007812 9.246094 C 21.726562 8.925781 22.046875 8.207031 22.289062 7.488281 C 22.367188 6.765625 22.046875 6.125 21.644531 5.484375 C 21.007812 4.847656 20.042969 4.445312 19.085938 4.761719 C 18.203125 4.925781 17.882812 5.726562 17.480469 6.445312 C 17.246094 7.246094 17.480469 7.964844 17.804688 8.605469 C 18.363281 9.648438 19.804688 9.085938 19.886719 10.371094 C 19.964844 11.488281 20.527344 12.847656 20.128906 13.96875 C 19.804688 14.371094 19.40625 14.371094 19.003906 14.527344 C 18.683594 13.890625 18.605469 13.089844 18.285156 12.445312 C 17.480469 10.285156 15.878906 8.367188 15.964844 6.046875 C 15.964844 4.367188 15.964844 1.964844 17.882812 1.164062 C 18.125 0.921875 17.960938 0.523438 17.644531 0.523438 C 15.242188 0.601562 13.082031 2.84375 12.28125 4.925781 C 12.28125 5.082031 12.28125 5.324219 12.039062 5.324219 L 4.75 1.640625 C 4.433594 1.640625 4.03125 1.640625 3.871094 1.964844 L 4.109375 3.402344 C 4.992188 5.804688 6.035156 8.125 6.992188 10.449219 C 6.753906 10.847656 6.113281 11.085938 5.714844 11.410156 C 4.191406 12.367188 3.230469 13.96875 3.390625 15.652344 C 4.191406 16.367188 4.433594 15.007812 5.148438 14.691406 C 9.15625 12.609375 12.28125 16.691406 16.042969 17.089844 C 16.203125 17.25 16.121094 17.652344 16.042969 17.890625 L 15.402344 18.210938 L 10.996094 18.210938 C 10.515625 17.410156 10.117188 16.128906 8.917969 16.128906 C 8.03125 16.050781 7.394531 16.367188 6.753906 16.933594 C 6.113281 17.570312 6.113281 18.613281 6.351562 19.414062 C 6.59375 19.972656 7.074219 20.453125 7.632812 20.695312 C 9.15625 21.414062 10.035156 19.894531 10.914062 19.171875 C 12.597656 19.414062 14.121094 19.414062 15.480469 20.050781 L 15.640625 21.574219 C 12.28125 20.695312 8.832031 22.773438 5.550781 21.65625 C 4.671875 21.332031 3.710938 20.609375 3.46875 19.652344 C 3.230469 19.332031 3.632812 18.691406 3.152344 18.691406 C 2.265625 19.808594 2.667969 21.734375 3.308594 22.933594 C 3.710938 23.65625 4.109375 24.375 4.914062 24.933594 C 4.03125 26.136719 2.75 27.335938 2.507812 28.859375 L 2.667969 29.253906 C 4.03125 30.054688 5.550781 30.378906 7.230469 30.296875 C 7.074219 31.980469 7.316406 33.898438 7.796875 35.578125 C 7.953125 35.742188 8.195312 35.980469 8.511719 35.902344 C 8.996094 35.34375 8.511719 34.460938 8.917969 33.898438 C 10.4375 29.976562 15.164062 28.539062 17.082031 24.933594 C 17.882812 25.574219 18.605469 26.457031 19.484375 26.855469 C 14.757812 28.457031 10.4375 32.859375 8.917969 37.503906 C 7.875 40.703125 7.714844 44.386719 7.714844 48.066406 L 7.796875 74.480469 L 7.796875 116.019531 C 7.230469 116.503906 6.671875 115.785156 6.035156 115.941406 C 5.148438 116.183594 4.03125 116.019531 3.46875 116.742188 C 3.710938 117.703125 4.832031 117.464844 5.390625 118.265625 C 8.117188 120.425781 7.316406 124.027344 9.875 126.265625 C 9.15625 127.070312 9.15625 128.191406 9.476562 129.148438 C 9.796875 129.792969 10.355469 130.273438 11.078125 130.429688 C 12.117188 130.429688 13.082031 130.351562 13.71875 129.472656 " fill-opacity="1" fill-rule="nonzero"/></g><path fill="#fcedd4" d="M 12.757812 128.914062 C 13.082031 128.589844 13.082031 127.949219 12.839844 127.546875 C 12.597656 127.070312 12.117188 126.910156 11.636719 126.910156 C 11.15625 126.988281 10.597656 127.230469 10.355469 127.710938 C 10.277344 128.429688 10.515625 129.230469 11.316406 129.390625 C 11.878906 129.550781 12.28125 129.070312 12.757812 128.914062 " fill-opacity="1" fill-rule="nonzero"/><path fill="#fcedd4" d="M 14.039062 124.1875 C 15.320312 122.109375 15.878906 119.625 17.882812 117.945312 C 16.445312 117.300781 15 118.101562 13.882812 119.0625 C 12.679688 120.347656 12.519531 122.023438 11.796875 123.46875 C 11.636719 123.707031 11.316406 123.707031 11.15625 123.46875 C 11.078125 121.386719 10.597656 119.0625 8.597656 117.703125 C 7.875 117.300781 6.914062 117.0625 6.113281 117.144531 C 6.59375 117.785156 7.230469 118.582031 7.714844 119.304688 C 9.074219 121.464844 8.753906 124.988281 11.636719 125.867188 C 12.757812 125.867188 13.5625 125.066406 14.039062 124.1875 " fill-opacity="1" fill-rule="nonzero"/><path fill="#fcedd4" d="M 14.039062 116.742188 C 13.476562 115.863281 13.160156 114.660156 12.117188 114.101562 C 10.914062 114.582031 10.035156 115.863281 9.398438 116.90625 C 9.714844 117.144531 10.035156 117.464844 10.4375 117.464844 C 11.238281 117.0625 11.238281 115.863281 12.28125 115.625 C 13.160156 115.941406 12.679688 117.144531 13.238281 117.785156 C 13.476562 117.464844 14.199219 117.300781 14.039062 116.742188 " fill-opacity="1" fill-rule="nonzero"/><path fill="#fcedd4" d="M 15 93.210938 C 15.480469 91.046875 16.445312 88.328125 18.84375 87.691406 C 20.042969 87.527344 20.925781 88.648438 21.488281 89.449219 C 22.769531 91.289062 22.367188 94.089844 21.246094 95.855469 C 20.765625 96.335938 20.128906 97.050781 19.40625 96.894531 C 18.683594 96.8125 18.285156 96.171875 17.960938 95.613281 C 17.480469 94.574219 17.324219 93.050781 17.882812 92.011719 C 18.125 91.851562 18.363281 91.691406 18.683594 91.769531 C 19.085938 92.492188 18.445312 93.128906 18.523438 93.851562 C 18.761719 94.492188 18.605469 95.371094 19.40625 95.613281 C 19.964844 95.535156 20.445312 95.132812 20.6875 94.652344 C 20.925781 92.894531 21.246094 90.648438 20.042969 89.207031 C 19.5625 88.886719 18.761719 88.648438 18.203125 89.050781 C 15.800781 90.570312 16.203125 93.851562 16.523438 96.253906 C 17.003906 97.53125 17.804688 99.054688 19.164062 99.296875 C 20.128906 99.535156 21.007812 99.296875 21.808594 98.8125 C 25.007812 96.253906 25.007812 91.929688 24.929688 88.085938 C 24.371094 80.800781 21.886719 74.480469 19.804688 67.757812 C 17.402344 59.515625 15.480469 50.46875 17.164062 41.34375 C 18.203125 37.984375 19.644531 33.582031 23.8125 33.097656 C 25.972656 32.617188 27.8125 34.140625 28.933594 35.902344 C 30.292969 37.742188 30.695312 40.78125 29.492188 42.785156 C 28.769531 44.066406 27.410156 45.425781 25.808594 45.347656 C 24.527344 45.105469 23.246094 44.144531 22.6875 42.941406 C 22.289062 41.664062 22.210938 40.222656 22.6875 39.101562 C 23.089844 38.382812 23.8125 37.261719 24.851562 37.339844 C 25.652344 37.503906 26.609375 38.0625 26.773438 38.941406 C 26.933594 39.5 27.171875 40.222656 26.773438 40.78125 C 26.695312 40.867188 26.453125 40.945312 26.289062 40.867188 C 25.972656 40.222656 26.609375 39.023438 25.570312 38.699219 C 24.769531 38.621094 24.210938 39.34375 24.128906 40.066406 C 23.96875 40.78125 24.289062 41.582031 24.527344 42.226562 C 25.09375 42.707031 25.808594 43.105469 26.53125 42.785156 C 28.132812 42.226562 28.375 40.464844 28.375 38.941406 C 28.292969 37.183594 27.492188 35.34375 25.730469 34.542969 C 24.289062 33.820312 22.6875 34.621094 21.566406 35.660156 C 19.003906 38.460938 18.683594 42.707031 19.804688 46.304688 C 20.042969 46.785156 20.6875 47.347656 20.207031 47.988281 C 18.761719 49.425781 17.804688 51.027344 17.5625 52.867188 C 18.046875 54.871094 19.804688 56.152344 21.40625 57.195312 L 21.488281 57.511719 C 19.164062 62.3125 20.285156 68.316406 22.6875 72.800781 C 23.648438 74.242188 25.25 75.519531 27.011719 75.441406 C 28.132812 75.363281 29.335938 74.960938 29.65625 73.761719 C 29.816406 73.121094 29.65625 72.558594 29.414062 71.921875 C 29.171875 71.277344 28.375 71.441406 27.890625 71.597656 C 27.492188 71.921875 27.332031 72.558594 27.652344 73.039062 C 27.574219 73.839844 29.171875 73.203125 28.375 74.082031 C 27.171875 74.480469 25.972656 73.917969 25.171875 73.039062 C 22.046875 68.878906 24.289062 62.875 26.453125 58.710938 C 29.414062 52.953125 32.9375 47.429688 33.417969 40.625 C 33.65625 36.78125 31.175781 33.582031 27.976562 31.738281 C 25.25 30.21875 21.488281 30.777344 19.003906 32.300781 C 15.480469 34.460938 13.796875 38.140625 13.238281 41.90625 L 13.082031 51.988281 L 13.238281 73.359375 L 13.320312 73.4375 L 13.160156 75.921875 L 13.320312 113.621094 L 14.597656 115.542969 L 14.757812 113.144531 L 15 93.210938 " fill-opacity="1" fill-rule="nonzero"/><path fill="#fcedd4" d="M 11.078125 107.539062 L 11.078125 87.289062 L 10.996094 65.273438 C 11.078125 57.832031 10.757812 50.070312 11.078125 42.941406 C 11.480469 39.5 12.195312 36.300781 14.757812 33.660156 C 17.722656 30.535156 21.808594 28.777344 26.210938 29.976562 C 31.09375 31.019531 33.976562 36.144531 36.539062 40.066406 C 37.902344 42.0625 38.460938 44.308594 39.507812 46.386719 C 39.742188 47.90625 39.742188 49.425781 38.542969 50.546875 C 38.140625 51.109375 37.417969 51.269531 36.78125 51.191406 C 35.902344 51.269531 35.339844 50.546875 34.9375 49.910156 C 34.859375 49.425781 35.019531 48.867188 35.5 48.546875 C 35.902344 48.308594 36.460938 48.144531 36.859375 48.464844 C 37.339844 48.789062 37.582031 49.347656 37.582031 49.828125 C 38.222656 49.746094 38.460938 49.109375 38.703125 48.628906 C 38.863281 47.507812 38.621094 46.386719 37.742188 45.667969 C 37.023438 45.105469 36.058594 44.789062 35.101562 45.105469 C 33.417969 45.582031 32.777344 47.347656 32.457031 48.945312 C 32.457031 50.304688 32.699219 51.585938 33.5 52.628906 C 33.578125 52.867188 33.417969 53.351562 33.019531 53.109375 C 32.457031 52.472656 31.496094 52.230469 30.617188 52.550781 C 30.375 53.589844 31.175781 54.3125 31.738281 55.027344 C 31.335938 55.671875 30.535156 55.511719 29.976562 55.914062 C 28.132812 57.273438 27.171875 59.191406 26.453125 61.195312 C 30.292969 57.675781 35.257812 56.550781 38.785156 52.628906 C 40.867188 50.390625 41.023438 46.785156 40.144531 43.984375 C 38.542969 40.382812 36.140625 36.941406 33.257812 33.898438 C 33.257812 33.738281 33.417969 33.582031 33.65625 33.582031 C 36.140625 35.34375 37.660156 37.984375 39.34375 40.382812 C 40.464844 42.382812 41.265625 44.464844 41.582031 46.785156 C 41.746094 48.308594 42.785156 49.910156 44.308594 50.46875 C 44.789062 50.546875 45.507812 51.269531 45.75 50.628906 C 45.75 49.425781 45.507812 48.386719 44.789062 47.507812 C 44.867188 47.265625 44.550781 47.027344 44.867188 46.863281 C 46.46875 48.628906 48.632812 48.707031 50.953125 48.867188 C 50.953125 46.546875 50.074219 44.308594 48.070312 42.941406 C 48.3125 42.542969 49.035156 42.941406 49.515625 43.027344 C 50.394531 43.421875 51.597656 43.746094 52.476562 43.105469 C 52.234375 41.425781 50.714844 40.222656 49.113281 39.824219 C 44.226562 39.421875 40.222656 36.539062 36.300781 33.660156 L 34.9375 32.136719 C 35.257812 31.5 35.738281 32.136719 36.140625 32.300781 C 40.542969 35.742188 44.949219 39.265625 50.875 38.699219 C 57.039062 37.101562 58.402344 30.21875 61.605469 25.734375 C 62.328125 24.695312 63.042969 23.734375 64.007812 22.933594 C 60.804688 23.574219 57.519531 26.535156 56.5625 29.738281 C 55.757812 29.976562 55.039062 29.019531 54.15625 28.9375 C 53.515625 28.9375 53.597656 29.738281 53.4375 30.21875 C 53.355469 30.855469 53.757812 31.5 53.277344 31.980469 C 52.714844 31.980469 52.398438 31.179688 51.914062 31.019531 C 50.953125 30.777344 49.59375 30.535156 48.714844 31.019531 C 47.589844 31.660156 46.632812 32.695312 46.632812 34.0625 C 46.710938 34.941406 47.191406 35.578125 47.753906 36.222656 C 48.3125 36.539062 49.191406 36.703125 49.835938 36.460938 C 50.152344 36.144531 50.554688 36.058594 50.714844 35.660156 C 50.316406 35.34375 49.515625 35.179688 49.515625 34.542969 C 49.433594 34.0625 49.515625 33.660156 49.914062 33.339844 C 50.316406 32.78125 51.03125 32.9375 51.597656 33.097656 C 52.15625 33.660156 52.316406 34.378906 52.316406 35.101562 C 52.15625 36.144531 51.355469 37.023438 50.472656 37.417969 C 47.992188 38.140625 46.066406 36.382812 43.828125 35.980469 C 39.421875 33.417969 33.257812 30.457031 32.054688 24.855469 C 31.175781 19.730469 33.097656 14.691406 37.261719 11.730469 C 40.222656 9.40625 43.75 8.605469 47.511719 8.367188 L 69.773438 8.207031 L 102.363281 8.289062 L 114.296875 8.125 L 116.375 6.527344 L 116.136719 6.445312 L 102.445312 6.527344 L 78.339844 6.363281 L 58.402344 6.445312 C 49.433594 6.605469 38.382812 4.925781 32.617188 13.167969 C 29.65625 16.53125 28.933594 21.332031 29.578125 25.65625 C 29.65625 26.855469 30.535156 27.894531 31.09375 28.9375 C 31.175781 29.175781 30.9375 29.253906 30.773438 29.339844 C 29.65625 29.019531 28.769531 28.214844 27.652344 27.816406 C 21.488281 26.457031 15.242188 28.859375 11.636719 34.300781 C 9.554688 37.261719 9.074219 41.101562 8.832031 44.707031 L 8.917969 74.804688 L 8.996094 92.011719 L 9.074219 115.0625 L 9.15625 115.226562 L 11.078125 113.144531 L 11.078125 107.539062 " fill-opacity="1" fill-rule="nonzero"/><path fill="#2f5982" d="M 23.328125 94.890625 C 25.328125 85.925781 21.886719 77.28125 19.484375 69.117188 C 16.601562 61.03125 14.921875 51.507812 16.28125 42.542969 C 16.363281 42.0625 16.84375 41.582031 16.445312 41.101562 C 16.203125 41.023438 15.878906 41.101562 15.878906 41.34375 C 12.996094 52.472656 16.445312 63.996094 20.042969 73.917969 C 21.566406 78.324219 22.445312 82.882812 22.925781 87.605469 C 21.808594 86.566406 20.527344 85.207031 18.761719 85.523438 C 16.203125 86.167969 14.757812 88.648438 14.199219 90.96875 C 14.121094 91.929688 13.71875 92.972656 14.199219 93.851562 C 15 93.292969 14.519531 91.929688 14.921875 91.210938 C 15.320312 89.367188 16.363281 87.128906 18.523438 86.726562 C 19.644531 86.488281 20.605469 87.046875 21.40625 87.769531 C 23.488281 89.851562 23.246094 93.292969 22.210938 95.855469 C 22.769531 96.894531 23.167969 95.371094 23.328125 94.890625 " fill-opacity="1" fill-rule="nonzero"/><path fill="#2f5982" d="M 19.644531 84.007812 C 20.042969 83.527344 20.285156 82.804688 20.042969 82.082031 C 20.042969 81.523438 19.484375 80.964844 19.003906 80.644531 C 18.285156 80.40625 17.5625 80.722656 16.921875 81.042969 C 16.203125 81.523438 16.042969 82.324219 15.964844 83.125 C 16.121094 83.765625 16.601562 84.40625 17.164062 84.726562 C 18.046875 85.046875 19.003906 84.726562 19.644531 84.007812 " fill-opacity="1" fill-rule="nonzero"/><path fill="#fcedd4" d="M 19.328125 83.046875 C 19.484375 82.40625 19.242188 81.84375 18.683594 81.605469 C 18.285156 81.285156 17.882812 81.6875 17.480469 81.84375 C 17.082031 82.246094 16.761719 82.726562 17.082031 83.285156 C 17.5625 84.328125 19.164062 84.085938 19.328125 83.046875 " fill-opacity="1" fill-rule="nonzero"/><path fill="#2f5982" d="M 23.328125 71.277344 C 21.644531 67.117188 21.40625 61.832031 23.328125 57.832031 L 23.890625 56.070312 C 22.289062 55.191406 20.445312 54.46875 19.164062 52.789062 C 19.804688 51.109375 21.808594 49.828125 23.246094 48.707031 C 21.328125 45.503906 19.804688 41.023438 21.886719 37.339844 C 22.445312 36.621094 23.089844 35.742188 24.050781 35.578125 C 24.289062 35.578125 24.449219 35.179688 24.210938 35.019531 C 23.410156 34.777344 22.769531 35.421875 22.210938 35.820312 C 19.726562 38.382812 19.5625 42.226562 20.527344 45.503906 L 21.566406 48.230469 C 20.042969 49.589844 18.523438 51.109375 18.046875 53.109375 C 19.242188 54.550781 21.085938 55.671875 22.527344 56.875 C 21.007812 61.675781 20.285156 66.878906 22.769531 71.519531 C 23.011719 71.757812 23.246094 71.519531 23.328125 71.277344 " fill-opacity="1" fill-rule="nonzero"/><path fill="#2f5982" d="M 44.226562 48.945312 C 44.070312 45.984375 42.867188 43.34375 41.824219 40.78125 C 44.226562 42.785156 46.789062 45.425781 49.273438 47.585938 L 49.59375 47.585938 L 49.515625 47.265625 C 47.511719 44.386719 44.628906 42.625 42.46875 39.824219 C 45.109375 40.464844 47.671875 41.984375 50.554688 41.824219 C 50.714844 41.746094 50.632812 41.582031 50.554688 41.503906 C 47.753906 40.703125 44.949219 40.066406 42.390625 38.699219 C 40.386719 37.660156 38.621094 36.144531 36.539062 35.257812 L 36.859375 35.980469 C 40.542969 39.742188 42.785156 44.066406 43.828125 48.867188 C 43.90625 48.945312 44.070312 49.109375 44.226562 48.945312 " fill-opacity="1" fill-rule="nonzero"/><path fill="#fcedd4" d="M 36.941406 43.984375 C 36.941406 42.863281 36.222656 41.824219 35.738281 40.703125 L 34.378906 38.699219 C 34.535156 40.542969 34.300781 42.625 33.976562 44.464844 C 34.859375 44.066406 35.902344 43.824219 36.941406 43.984375 " fill-opacity="1" fill-rule="nonzero"/><path fill="#fcedd4" d="M 46.152344 32.058594 C 44.070312 32.617188 41.582031 32.378906 39.421875 32.058594 C 41.265625 33.5 43.425781 34.621094 45.667969 35.421875 C 45.75 34.300781 45.589844 33.097656 46.152344 32.058594 " fill-opacity="1" fill-rule="nonzero"/><path fill="#fcedd4" d="M 16.203125 24.214844 C 16.203125 23.335938 15.480469 22.613281 14.683594 22.371094 C 11.238281 21.976562 7.316406 23.972656 3.949219 22.132812 C 4.511719 23.734375 6.351562 25.015625 8.03125 25.175781 C 10.355469 25.574219 12.359375 24.695312 14.199219 23.734375 C 14.441406 23.734375 14.519531 24.054688 14.441406 24.214844 C 12.679688 25.65625 10.117188 26.136719 8.996094 28.457031 C 8.355469 29.898438 7.632812 31.335938 8.03125 33.097656 C 9.714844 29.253906 14.597656 28.136719 16.203125 24.214844 " fill-opacity="1" fill-rule="nonzero"/><path fill="#fcedd4" d="M 54.636719 27.179688 C 59.523438 23.816406 64.886719 19.894531 71.210938 21.734375 C 72.816406 22.457031 74.574219 24.054688 74.738281 25.898438 C 74.660156 26.535156 74.738281 27.414062 73.9375 27.65625 C 73.695312 27.738281 73.292969 27.816406 73.136719 27.578125 C 73.214844 27.09375 74.015625 26.9375 73.773438 26.214844 C 73.695312 25.8125 73.292969 25.496094 72.894531 25.417969 C 72.335938 25.332031 71.777344 25.734375 71.613281 26.296875 C 71.535156 27.179688 71.691406 28.214844 72.574219 28.617188 C 73.292969 28.859375 74.09375 28.695312 74.738281 28.375 C 75.699219 27.414062 76.097656 26.136719 75.9375 24.773438 C 75.699219 22.214844 73.214844 20.609375 71.054688 19.730469 C 71.054688 19.972656 71.453125 20.050781 71.292969 20.375 C 70.171875 20.453125 69.210938 19.730469 68.09375 19.652344 C 64.007812 19.414062 60.082031 20.210938 56.71875 22.132812 C 55.839844 20.851562 55.039062 19.414062 53.914062 18.292969 C 52.554688 18.851562 51.273438 19.808594 49.992188 20.851562 C 46.632812 19.492188 41.34375 17.890625 38.222656 20.695312 C 37.820312 21.011719 37.820312 21.8125 37.261719 21.65625 C 36.78125 21.253906 37.339844 20.851562 37.339844 20.453125 C 40.066406 17.25 45.351562 18.210938 48.871094 19.25 C 49.273438 19.414062 49.835938 19.808594 50.230469 19.25 C 51.433594 18.535156 52.554688 17.410156 53.914062 17.089844 C 55.359375 17.734375 56.160156 19.414062 57.039062 20.609375 C 60.882812 19.25 65.289062 18.210938 69.53125 19.25 C 67.929688 18.210938 65.6875 18.371094 63.765625 18.210938 C 61.523438 18.210938 59.601562 19.171875 57.519531 19.730469 C 56.480469 19.332031 56.398438 18.050781 55.597656 17.332031 C 55.039062 16.691406 54.238281 16.050781 53.597656 15.890625 C 52.074219 16.453125 50.714844 17.570312 49.433594 18.535156 C 46.152344 17.492188 41.746094 16.769531 38.621094 18.535156 C 37.582031 19.171875 36.625 20.292969 36.382812 21.414062 C 36.222656 22.535156 36.539062 23.734375 37.183594 24.617188 C 38.542969 25.976562 40.464844 26.457031 42.390625 26.136719 C 43.183594 26.054688 44.070312 25.65625 44.308594 24.773438 C 44.628906 24.296875 44.386719 23.574219 43.988281 23.257812 C 43.183594 22.691406 42.226562 22.292969 41.1875 22.691406 C 40.867188 22.855469 40.625 23.335938 40.867188 23.65625 C 41.1875 24.136719 41.90625 23.894531 42.148438 24.453125 C 41.824219 25.097656 40.945312 24.855469 40.386719 24.695312 C 39.664062 24.296875 38.785156 23.65625 39.023438 22.613281 C 39.101562 21.8125 39.984375 21.089844 40.703125 20.773438 C 42.46875 20.292969 44.628906 20.53125 45.832031 21.890625 C 46.550781 22.691406 46.789062 23.65625 46.871094 24.695312 C 46.632812 25.976562 45.75 27.09375 44.550781 27.65625 C 42.148438 28.617188 39.265625 28.296875 37.261719 26.699219 C 36.140625 25.574219 35.101562 24.375 34.9375 22.855469 C 34.9375 20.453125 36.300781 18.371094 38.222656 17.011719 C 42.226562 13.890625 47.914062 14.929688 52.875 15.085938 C 58.722656 15.730469 64.488281 16.851562 70.011719 18.371094 C 74.015625 20.050781 78.179688 21.414062 82.421875 22.535156 C 86.90625 23.171875 91.632812 24.617188 96.355469 23.492188 C 98.359375 22.933594 100.519531 22.132812 101.5625 19.972656 C 101.882812 18.933594 102.363281 17.734375 101.722656 16.609375 C 100.121094 14.128906 97.15625 13.40625 94.117188 13.648438 C 92.515625 13.890625 90.753906 14.449219 89.871094 15.972656 C 89.632812 16.53125 89.632812 17.332031 89.953125 17.890625 C 91.234375 19.652344 93.472656 19.808594 95.398438 19.492188 C 96.199219 19.25 97.15625 19.09375 97.558594 18.292969 C 97.714844 17.734375 97.238281 17.25 96.835938 17.011719 C 95.714844 16.53125 94.195312 16.210938 93.234375 17.089844 C 92.996094 17.089844 92.832031 16.851562 92.832031 16.691406 C 93.074219 16.128906 93.714844 15.890625 94.273438 15.652344 C 95.957031 15.566406 97.800781 15.890625 98.597656 17.492188 C 98.761719 17.96875 98.839844 18.691406 98.519531 19.171875 C 97.558594 20.609375 95.878906 21.011719 94.195312 20.933594 C 92.191406 20.933594 90.433594 19.894531 89.230469 18.292969 C 88.75 17.652344 88.589844 16.609375 88.988281 15.808594 C 89.871094 13.648438 92.273438 13.011719 94.273438 12.445312 C 101.964844 12.289062 109.089844 12.210938 116.773438 12.210938 C 116.375 11.488281 115.492188 11.085938 114.855469 10.605469 L 81.222656 10.527344 L 75.457031 10.527344 L 56.238281 10.605469 C 48.871094 10.765625 40.542969 9.96875 35.578125 16.128906 C 33.339844 18.449219 32.539062 21.890625 33.175781 25.175781 C 34.21875 28.296875 37.417969 30.855469 40.703125 31.257812 C 46.066406 32.058594 50.394531 29.496094 54.636719 27.179688 " fill-opacity="1" fill-rule="nonzero"/><path fill="#fcedd4" d="M 8.03125 28.375 L 8.117188 28.296875 C 6.992188 27.894531 5.632812 28.296875 4.589844 28.136719 L 4.589844 28.058594 C 5.390625 27.496094 6.351562 27.015625 7.074219 26.136719 C 6.914062 25.8125 6.429688 25.65625 6.035156 25.65625 C 4.832031 26.214844 3.949219 27.414062 3.550781 28.539062 C 4.433594 29.253906 5.632812 29.253906 6.671875 29.417969 C 7.316406 29.578125 7.953125 29.019531 8.03125 28.375 " fill-opacity="1" fill-rule="nonzero"/><path fill="#fcedd4" d="M 26.453125 24.855469 C 27.976562 23.257812 28.691406 21.011719 28.132812 18.773438 C 27.734375 16.933594 26.210938 15.25 24.371094 14.691406 C 21.96875 14.128906 19.644531 15.171875 17.960938 16.851562 C 16.761719 18.371094 16.121094 20.453125 16.84375 22.292969 C 17.402344 24.375 19.328125 26.054688 21.328125 26.457031 C 23.246094 26.535156 25.007812 26.054688 26.453125 24.855469 " fill-opacity="1" fill-rule="nonzero"/><path fill="#2f5982" d="M 26.371094 22.292969 C 27.09375 20.773438 26.851562 18.613281 25.652344 17.410156 C 24.609375 16.53125 23.328125 15.972656 21.886719 16.128906 C 20.363281 16.609375 18.84375 17.652344 18.285156 19.171875 C 18.046875 20.292969 17.882812 21.65625 18.523438 22.691406 C 19.328125 23.972656 20.605469 24.53125 21.886719 24.855469 C 23.726562 24.855469 25.570312 24.054688 26.371094 22.292969 " fill-opacity="1" fill-rule="nonzero"/><path fill="#fcedd4" d="M 24.609375 23.015625 C 25.328125 22.292969 25.972656 21.492188 25.808594 20.453125 C 26.050781 19.09375 25.09375 18.132812 24.128906 17.492188 C 22.925781 16.691406 21.488281 17.332031 20.445312 17.96875 C 19.484375 18.613281 19.242188 19.652344 19.003906 20.609375 C 19.003906 21.8125 19.804688 22.855469 20.84375 23.574219 C 22.046875 24.375 23.648438 23.972656 24.609375 23.015625 " fill-opacity="1" fill-rule="nonzero"/><path fill="#2f5982" d="M 24.449219 22.132812 C 24.929688 21.414062 25.09375 20.375 24.769531 19.574219 C 24.449219 18.613281 23.570312 17.96875 22.609375 17.96875 C 21.726562 17.890625 21.007812 18.210938 20.445312 18.933594 C 19.964844 19.492188 19.726562 20.453125 19.964844 21.175781 C 20.363281 22.054688 20.925781 23.171875 22.046875 23.09375 C 23.011719 23.257812 23.726562 22.691406 24.449219 22.132812 " fill-opacity="1" fill-rule="nonzero"/><path fill="#2f5982" d="M 97.800781 21.734375 L 97.800781 21.492188 C 94.996094 21.976562 91.070312 22.773438 88.910156 20.050781 C 87.871094 19.011719 87.386719 17.570312 87.871094 16.128906 C 88.429688 13.40625 91.472656 12.367188 93.796875 11.886719 C 93.953125 11.808594 94.03125 11.566406 93.875 11.488281 C 91.148438 11.566406 88.1875 12.925781 86.988281 15.652344 C 86.191406 17.96875 87.46875 20.132812 88.988281 21.65625 C 87.230469 21.890625 85.625 21.011719 83.867188 20.933594 C 72.972656 19.09375 63.6875 13.167969 52.15625 12.925781 C 48.714844 12.609375 45.351562 13.089844 42.304688 13.96875 C 42.148438 14.128906 42.148438 14.371094 42.304688 14.449219 C 43.425781 14.527344 44.550781 14.050781 45.75 13.96875 C 50.632812 13.488281 55.679688 14.292969 60.480469 15.085938 C 66.570312 16.609375 72.253906 18.851562 78.339844 20.375 C 84.425781 21.65625 91.3125 23.972656 97.636719 21.890625 L 97.800781 21.734375 " fill-opacity="1" fill-rule="nonzero"/><path fill="#fcedd4" d="M 22.925781 20.375 C 23.167969 19.808594 22.847656 19.09375 22.210938 19.011719 C 21.644531 18.851562 21.085938 19.171875 20.925781 19.730469 C 20.6875 20.375 21.167969 20.851562 21.644531 21.089844 C 22.210938 21.253906 22.847656 20.933594 22.925781 20.375 " fill-opacity="1" fill-rule="nonzero"/><path fill="#fcedd4" d="M 9.714844 19.171875 C 9.957031 18.773438 9.957031 18.132812 9.714844 17.734375 C 9.476562 17.332031 9.234375 16.851562 8.753906 16.933594 C 8.117188 17.011719 7.472656 17.25 7.152344 17.734375 C 6.914062 18.292969 6.914062 18.933594 7.230469 19.492188 C 7.554688 19.894531 8.117188 19.894531 8.511719 19.972656 C 8.996094 19.972656 9.476562 19.574219 9.714844 19.171875 " fill-opacity="1" fill-rule="nonzero"/><path fill="#2f5982" d="M 84.585938 17.011719 C 84.988281 16.453125 84.824219 15.730469 84.503906 15.171875 C 84.1875 14.609375 83.542969 14.371094 82.902344 14.207031 C 82.183594 14.371094 81.304688 14.691406 80.984375 15.488281 C 80.660156 16.050781 80.582031 16.691406 80.902344 17.25 C 81.304688 17.734375 81.785156 18.210938 82.421875 18.210938 C 83.386719 18.371094 84.1875 17.8125 84.585938 17.011719 " fill-opacity="1" fill-rule="nonzero"/><path fill="#fcedd4" d="M 83.785156 16.769531 C 84.023438 16.367188 83.785156 15.890625 83.707031 15.566406 C 83.308594 15.085938 82.585938 15.085938 82.105469 15.410156 C 81.703125 15.808594 81.464844 16.289062 81.785156 16.851562 C 81.863281 17.25 82.34375 17.332031 82.664062 17.410156 C 83.066406 17.332031 83.542969 17.175781 83.785156 16.769531 " fill-opacity="1" fill-rule="nonzero"/><path fill="#fcedd4" d="M 17.804688 14.851562 C 17.722656 11.648438 15 9.40625 14.921875 6.207031 C 14.757812 4.925781 15.078125 3.804688 15.242188 2.683594 C 13.398438 4.046875 12.519531 6.445312 13.082031 8.605469 C 13.398438 10.765625 14.921875 12.367188 16.445312 13.890625 C 16.601562 14.128906 16.363281 14.371094 16.121094 14.449219 C 15.402344 14.207031 14.839844 13.246094 14.277344 12.769531 C 12.359375 10.847656 9.234375 11.167969 6.835938 11.808594 C 5.871094 12.128906 4.914062 12.769531 4.671875 13.890625 C 9.234375 11.328125 12.519531 16.128906 16.84375 16.050781 L 17.804688 14.851562 " fill-opacity="1" fill-rule="nonzero"/><path fill="#fcedd4" d="M 125.664062 9.886719 C 126.066406 9.246094 125.742188 8.367188 125.585938 7.644531 C 123.425781 5.964844 120.542969 5.964844 118.699219 3.644531 C 118.296875 4.203125 118.617188 4.683594 118.699219 5.324219 C 119.417969 7.40625 121.824219 8.527344 123.820312 9.003906 C 123.984375 9.085938 124.0625 9.328125 123.902344 9.488281 C 121.902344 10.128906 119.417969 10.6875 118.539062 12.925781 C 118.457031 13.40625 118.375 13.8125 118.539062 14.371094 C 120.300781 11.566406 123.742188 12.289062 125.664062 9.886719 " fill-opacity="1" fill-rule="nonzero"/><path fill="#fcedd4" d="M 28.691406 12.445312 C 30.535156 9.886719 32.375 7.085938 35.339844 5.964844 C 32.617188 5.003906 30.054688 6.921875 28.210938 8.847656 C 27.09375 9.886719 27.253906 11.566406 26.210938 12.53125 C 25.972656 12.53125 25.808594 12.367188 25.808594 12.210938 C 27.09375 9.488281 27.492188 5.40625 25.328125 3 C 24.609375 2.363281 23.8125 1.964844 22.925781 1.640625 L 22.847656 1.722656 C 24.769531 4.683594 24.050781 8.367188 24.128906 11.808594 C 24.371094 12.769531 24.691406 13.96875 25.808594 14.207031 C 27.011719 14.292969 27.890625 13.246094 28.691406 12.445312 " fill-opacity="1" fill-rule="nonzero"/><path fill="#fcedd4" d="M 118.941406 10.527344 C 118.21875 9.886719 117.257812 9.648438 116.375 9.40625 C 116.136719 9.328125 116.136719 8.925781 116.214844 8.6875 C 117.015625 8.207031 117.976562 7.964844 118.699219 7.488281 C 118.375 7.164062 118.21875 6.125 117.660156 6.6875 C 116.773438 7.566406 115.335938 8.046875 114.855469 9.167969 C 115.65625 10.285156 116.9375 11.007812 118.136719 11.566406 L 118.941406 10.527344 " fill-opacity="1" fill-rule="nonzero"/><path fill="#fcedd4" d="M 129.425781 9.40625 C 129.425781 8.847656 129.1875 8.445312 128.867188 8.125 C 128.390625 7.808594 127.824219 7.644531 127.347656 7.964844 C 126.785156 8.367188 126.867188 9.167969 127.105469 9.648438 C 127.347656 10.046875 127.824219 10.285156 128.304688 10.371094 C 128.867188 10.285156 129.1875 9.886719 129.425781 9.40625 " fill-opacity="1" fill-rule="nonzero"/><path fill="#fcedd4" d="M 8.675781 10.046875 C 8.195312 8.125 7.152344 6.363281 6.191406 4.605469 C 6.515625 4.203125 6.914062 4.605469 7.230469 4.761719 C 8.597656 5.726562 10.035156 6.445312 11.480469 7.085938 C 11.957031 6.765625 11.238281 6.445312 11.078125 6.207031 C 9.234375 4.761719 7.316406 3.324219 5.070312 2.84375 C 5.632812 5.484375 6.59375 7.964844 8.355469 10.046875 L 8.675781 10.046875 " fill-opacity="1" fill-rule="nonzero"/><path fill="#fcedd4" d="M 21.246094 7.488281 C 21.40625 6.84375 21.085938 6.125 20.445312 5.882812 C 20.042969 5.804688 19.40625 5.5625 19.003906 5.964844 C 18.363281 6.363281 18.363281 7.164062 18.523438 7.886719 C 18.84375 8.289062 19.242188 8.605469 19.804688 8.6875 C 20.363281 8.527344 21.085938 8.125 21.246094 7.488281 " fill-opacity="1" fill-rule="nonzero"/><path fill="#fcedd4" d="M 30.773438 5.242188 C 30.9375 4.046875 30.617188 3.082031 30.535156 2.042969 C 30.375 1.804688 30.054688 1.882812 29.894531 1.964844 L 27.574219 4.28125 C 27.574219 4.523438 27.410156 5.003906 27.734375 5.242188 C 28.691406 5.242188 29.09375 4.125 29.492188 3.402344 C 29.734375 3.164062 29.578125 2.683594 30.054688 2.601562 C 30.214844 2.523438 30.375 2.601562 30.375 2.84375 C 30.457031 4.046875 29.734375 5.003906 29.894531 6.125 C 30.214844 5.964844 30.9375 5.804688 30.773438 5.242188 " fill-opacity="1" fill-rule="nonzero"/></svg>