<svg xmlns="http://www.w3.org/2000/svg" xmlns:xlink="http://www.w3.org/1999/xlink" width="175" zoomAndPan="magnify" viewBox="0 0 131.25 131.249998" height="175" preserveAspectRatio="xMidYMid meet" version="1.0"><defs><clipPath id="7f5a5f1edc"><path d="M 0 0 L 128 0 L 128 130.503906 L 0 130.503906 Z M 0 0 " clip-rule="nonzero"/></clipPath></defs><g clip-path="url(#7f5a5f1edc)"><path fill="#2f5982" d="M 116.785156 129.472656 C 116.382812 128.914062 116.304688 127.949219 116.542969 127.308594 C 117.824219 126.347656 115.984375 125.949219 115.746094 125.066406 C 114.460938 122.667969 113.421875 119.863281 110.941406 118.34375 C 110.460938 118.1875 109.738281 118.503906 109.339844 118.101562 C 109.582031 117.222656 110.699219 117.386719 111.261719 116.984375 C 112.222656 116.585938 113.339844 116.824219 114.382812 116.664062 L 114.539062 116.105469 C 114.382812 110.417969 114.78125 104.578125 114.304688 98.734375 L 114.222656 98.652344 C 113.339844 99.855469 111.898438 100.894531 110.296875 100.578125 C 106.933594 99.933594 105.414062 96.335938 104.773438 93.453125 C 104.214844 87.207031 105.65625 81.042969 107.09375 75.285156 C 105.574219 76.078125 103.410156 76.800781 101.648438 75.921875 C 100.527344 75.285156 99.730469 74.003906 99.890625 72.636719 C 99.96875 71.597656 100.527344 70.640625 101.570312 70.238281 C 102.449219 70.160156 103.171875 70.398438 103.730469 71.039062 C 103.972656 71.359375 103.972656 71.839844 104.214844 72.242188 C 106.292969 70.398438 106.214844 67.035156 105.496094 64.636719 C 104.214844 61.832031 101.167969 60.550781 98.765625 58.871094 C 94.925781 57.109375 89.878906 54.632812 88.921875 49.910156 C 87.636719 51.585938 85.554688 51.429688 84.035156 52.472656 C 84.113281 51.429688 83.636719 50.628906 83.550781 49.589844 C 82.671875 49.589844 81.3125 49.511719 80.273438 49.746094 C 79.472656 49.828125 78.988281 50.546875 78.1875 50.628906 C 77.949219 50.070312 78.589844 49.589844 78.507812 48.945312 C 78.589844 47.507812 78.75 45.90625 79.308594 44.625 L 79.070312 44.386719 C 78.105469 44.308594 77.226562 44.066406 76.347656 43.824219 C 76.503906 43.183594 77.066406 42.542969 77.304688 41.824219 C 77.546875 41.101562 78.1875 40.382812 78.75 39.902344 C 71.140625 37.582031 71.300781 28.859375 66.175781 23.972656 C 64.65625 22.691406 62.734375 21.734375 60.730469 22.214844 C 59.609375 22.535156 58.410156 23.171875 57.769531 24.296875 C 58.011719 24.773438 58.648438 24.375 59.050781 24.695312 C 59.929688 25.332031 60.171875 26.214844 60.09375 27.335938 C 59.929688 28.136719 59.128906 28.859375 58.410156 29.339844 C 57.53125 29.578125 56.328125 29.578125 55.527344 29.097656 C 54.003906 28.136719 53.363281 26.375 53.605469 24.53125 C 53.765625 23.492188 54.246094 22.457031 54.808594 21.574219 C 52.726562 21.734375 50.800781 22.773438 48.71875 23.257812 C 43.675781 24.136719 38.390625 25.332031 33.105469 24.054688 C 30.863281 23.335938 28.140625 21.976562 27.5 19.492188 C 26.859375 17.734375 27.824219 15.890625 29.105469 14.609375 C 29.425781 14.292969 29.984375 14.050781 30.222656 13.648438 C 27.101562 13.40625 24.140625 13.328125 21.015625 13.488281 L 20.777344 13.40625 L 13.167969 13.488281 C 13.085938 14.609375 12.929688 15.808594 12.207031 16.609375 C 11.246094 16.609375 11.726562 15.328125 11.085938 14.769531 C 9.082031 12.609375 6.285156 12.53125 4.039062 10.847656 C 3.316406 11.167969 2.4375 11.488281 1.554688 11.167969 C 0.917969 10.929688 0.277344 10.285156 0.195312 9.648438 C 0.117188 9.003906 0.0351562 8.289062 0.433594 7.722656 C 0.835938 6.921875 1.796875 6.765625 2.679688 6.765625 L 4.117188 7.085938 C 6.363281 4.847656 10.363281 5.324219 11.484375 1.882812 C 11.484375 1.5625 11.566406 1.324219 11.726562 1.164062 C 12.527344 1.242188 12.609375 2.121094 12.84375 2.601562 C 13.167969 3.324219 12.929688 4.28125 13.007812 5.082031 L 22.375 5.324219 L 53.203125 5.082031 L 84.195312 5.324219 C 90.761719 5.882812 97.328125 8.765625 100.449219 15.085938 L 101.570312 17.734375 C 102.128906 16.851562 102.691406 15.890625 103.492188 15.085938 C 101.089844 13.726562 99.890625 11.007812 98.207031 9.085938 C 96.683594 7.644531 94.925781 6.6875 92.761719 6.6875 C 92.519531 6.445312 92.84375 6.046875 93.085938 5.964844 C 94.601562 4.683594 96.683594 4.683594 98.527344 5.003906 C 98.851562 3.484375 98.765625 1.964844 99.328125 0.523438 L 99.96875 0.601562 C 101.167969 1.324219 102.371094 2.523438 103.410156 3.324219 C 105.09375 1.722656 107.09375 0.125 109.582031 0.921875 C 110.296875 1.804688 108.695312 1.722656 108.378906 2.441406 C 105.734375 5.644531 108.378906 10.128906 106.855469 13.648438 C 107.492188 13.488281 108.695312 13.726562 108.777344 12.6875 C 109.015625 11.566406 109.582031 10.527344 109.496094 9.246094 C 108.777344 8.925781 108.457031 8.207031 108.214844 7.488281 C 108.136719 6.765625 108.457031 6.125 108.859375 5.484375 C 109.496094 4.847656 110.460938 4.445312 111.421875 4.761719 C 112.300781 4.925781 112.621094 5.726562 113.023438 6.445312 C 113.257812 7.246094 113.023438 7.964844 112.699219 8.605469 C 112.140625 9.648438 110.699219 9.085938 110.617188 10.371094 C 110.539062 11.488281 109.976562 12.847656 110.375 13.96875 C 110.699219 14.371094 111.097656 14.371094 111.5 14.527344 C 111.820312 13.890625 111.898438 13.089844 112.222656 12.445312 C 113.023438 10.285156 114.625 8.367188 114.539062 6.046875 C 114.539062 4.367188 114.539062 1.964844 112.621094 1.164062 C 112.378906 0.921875 112.542969 0.523438 112.859375 0.523438 C 115.261719 0.601562 117.421875 2.84375 118.222656 4.925781 C 118.222656 5.082031 118.222656 5.324219 118.464844 5.324219 L 125.753906 1.640625 C 126.070312 1.640625 126.472656 1.640625 126.636719 1.964844 L 126.394531 3.402344 C 125.511719 5.804688 124.46875 8.125 123.511719 10.449219 C 123.753906 10.847656 124.390625 11.085938 124.789062 11.410156 C 126.3125 12.367188 127.273438 13.96875 127.113281 15.652344 C 126.3125 16.367188 126.070312 15.007812 125.355469 14.691406 C 121.347656 12.609375 118.222656 16.691406 114.460938 17.089844 C 114.304688 17.25 114.382812 17.652344 114.460938 17.890625 L 115.105469 18.210938 L 119.507812 18.210938 C 119.988281 17.410156 120.386719 16.128906 121.585938 16.128906 C 122.472656 16.050781 123.109375 16.367188 123.753906 16.933594 C 124.390625 17.570312 124.390625 18.613281 124.152344 19.414062 C 123.910156 19.972656 123.429688 20.453125 122.871094 20.695312 C 121.347656 21.414062 120.46875 19.894531 119.589844 19.171875 C 117.90625 19.414062 116.382812 19.414062 115.023438 20.050781 L 114.863281 21.574219 C 118.222656 20.695312 121.671875 22.773438 124.953125 21.65625 C 125.835938 21.332031 126.792969 20.609375 127.035156 19.652344 C 127.273438 19.332031 126.871094 18.691406 127.351562 18.691406 C 128.238281 19.808594 127.835938 21.734375 127.195312 22.933594 C 126.792969 23.65625 126.394531 24.375 125.59375 24.933594 C 126.472656 26.136719 127.753906 27.335938 127.996094 28.859375 L 127.835938 29.253906 C 126.472656 30.054688 124.953125 30.378906 123.273438 30.296875 C 123.429688 31.980469 123.1875 33.898438 122.710938 35.578125 C 122.550781 35.742188 122.308594 35.980469 121.992188 35.902344 C 121.507812 35.34375 121.992188 34.460938 121.585938 33.898438 C 120.070312 29.976562 115.339844 28.539062 113.421875 24.933594 C 112.621094 25.574219 111.898438 26.457031 111.019531 26.855469 C 115.746094 28.457031 120.070312 32.859375 121.585938 37.503906 C 122.628906 40.703125 122.789062 44.386719 122.789062 48.066406 L 122.710938 74.480469 L 122.710938 116.019531 C 123.273438 116.503906 123.832031 115.785156 124.46875 115.941406 C 125.355469 116.183594 126.472656 116.019531 127.035156 116.742188 C 126.792969 117.703125 125.671875 117.464844 125.113281 118.265625 C 122.386719 120.425781 123.1875 124.027344 120.628906 126.265625 C 121.347656 127.070312 121.347656 128.191406 121.027344 129.148438 C 120.707031 129.792969 120.148438 130.273438 119.425781 130.429688 C 118.386719 130.429688 117.421875 130.351562 116.785156 129.472656 " fill-opacity="1" fill-rule="nonzero"/></g><path fill="#fcedd4" d="M 117.746094 128.914062 C 117.421875 128.589844 117.421875 127.949219 117.664062 127.546875 C 117.90625 127.070312 118.386719 126.910156 118.867188 126.910156 C 119.347656 126.988281 119.90625 127.230469 120.148438 127.710938 C 120.226562 128.429688 119.988281 129.230469 119.1875 129.390625 C 118.625 129.550781 118.222656 129.070312 117.746094 128.914062 " fill-opacity="1" fill-rule="nonzero"/><path fill="#fcedd4" d="M 116.464844 124.1875 C 115.183594 122.109375 114.625 119.625 112.621094 117.945312 C 114.0625 117.300781 115.503906 118.101562 116.621094 119.0625 C 117.824219 120.347656 117.988281 122.023438 118.707031 123.46875 C 118.867188 123.707031 119.1875 123.707031 119.347656 123.46875 C 119.425781 121.386719 119.90625 119.0625 121.90625 117.703125 C 122.628906 117.300781 123.589844 117.0625 124.390625 117.144531 C 123.910156 117.785156 123.273438 118.582031 122.789062 119.304688 C 121.429688 121.464844 121.75 124.988281 118.867188 125.867188 C 117.746094 125.867188 116.945312 125.066406 116.464844 124.1875 " fill-opacity="1" fill-rule="nonzero"/><path fill="#fcedd4" d="M 116.464844 116.742188 C 117.027344 115.863281 117.34375 114.660156 118.386719 114.101562 C 119.589844 114.582031 120.46875 115.863281 121.105469 116.90625 C 120.789062 117.144531 120.46875 117.464844 120.070312 117.464844 C 119.265625 117.0625 119.265625 115.863281 118.222656 115.625 C 117.34375 115.941406 117.824219 117.144531 117.265625 117.785156 C 117.027344 117.464844 116.304688 117.300781 116.464844 116.742188 " fill-opacity="1" fill-rule="nonzero"/><path fill="#fcedd4" d="M 115.503906 93.210938 C 115.023438 91.046875 114.0625 88.328125 111.660156 87.691406 C 110.460938 87.527344 109.582031 88.648438 109.015625 89.449219 C 107.734375 91.289062 108.136719 94.089844 109.257812 95.855469 C 109.738281 96.335938 110.375 97.050781 111.097656 96.894531 C 111.820312 96.8125 112.222656 96.171875 112.542969 95.613281 C 113.023438 94.574219 113.179688 93.050781 112.621094 92.011719 C 112.378906 91.851562 112.140625 91.691406 111.820312 91.769531 C 111.421875 92.492188 112.058594 93.128906 111.980469 93.851562 C 111.742188 94.492188 111.898438 95.371094 111.097656 95.613281 C 110.539062 95.535156 110.058594 95.132812 109.816406 94.652344 C 109.582031 92.894531 109.257812 90.648438 110.460938 89.207031 C 110.941406 88.886719 111.742188 88.648438 112.300781 89.050781 C 114.703125 90.570312 114.304688 93.851562 113.980469 96.253906 C 113.5 97.53125 112.699219 99.054688 111.339844 99.296875 C 110.375 99.535156 109.496094 99.296875 108.695312 98.8125 C 105.496094 96.253906 105.496094 91.929688 105.574219 88.085938 C 106.132812 80.800781 108.617188 74.480469 110.699219 67.757812 C 113.101562 59.515625 115.023438 50.46875 113.339844 41.34375 C 112.300781 37.984375 110.859375 33.582031 106.691406 33.097656 C 104.53125 32.617188 102.691406 34.140625 101.570312 35.902344 C 100.210938 37.742188 99.808594 40.78125 101.011719 42.785156 C 101.734375 44.066406 103.09375 45.425781 104.695312 45.347656 C 105.976562 45.105469 107.257812 44.144531 107.816406 42.941406 C 108.214844 41.664062 108.296875 40.222656 107.816406 39.101562 C 107.414062 38.382812 106.691406 37.261719 105.65625 37.339844 C 104.851562 37.503906 103.894531 38.0625 103.730469 38.941406 C 103.574219 39.5 103.332031 40.222656 103.730469 40.78125 C 103.808594 40.867188 104.050781 40.945312 104.214844 40.867188 C 104.53125 40.222656 103.894531 39.023438 104.933594 38.699219 C 105.734375 38.621094 106.292969 39.34375 106.375 40.066406 C 106.535156 40.78125 106.214844 41.582031 105.976562 42.226562 C 105.414062 42.707031 104.695312 43.105469 103.972656 42.785156 C 102.371094 42.226562 102.128906 40.464844 102.128906 38.941406 C 102.210938 37.183594 103.011719 35.34375 104.773438 34.542969 C 106.214844 33.820312 107.816406 34.621094 108.9375 35.660156 C 111.5 38.460938 111.820312 42.707031 110.699219 46.304688 C 110.460938 46.785156 109.816406 47.347656 110.296875 47.988281 C 111.742188 49.425781 112.699219 51.027344 112.941406 52.867188 C 112.457031 54.871094 110.699219 56.152344 109.097656 57.195312 L 109.015625 57.511719 C 111.339844 62.3125 110.21875 68.316406 107.816406 72.800781 C 106.855469 74.242188 105.253906 75.519531 103.492188 75.441406 C 102.371094 75.363281 101.167969 74.960938 100.847656 73.761719 C 100.691406 73.121094 100.847656 72.558594 101.089844 71.921875 C 101.332031 71.277344 102.128906 71.441406 102.613281 71.597656 C 103.011719 71.921875 103.171875 72.558594 102.851562 73.039062 C 102.929688 73.839844 101.332031 73.203125 102.128906 74.082031 C 103.332031 74.480469 104.53125 73.917969 105.332031 73.039062 C 108.457031 68.878906 106.214844 62.875 104.050781 58.710938 C 101.089844 52.953125 97.566406 47.429688 97.085938 40.625 C 96.847656 36.78125 99.328125 33.582031 102.53125 31.738281 C 105.253906 30.21875 109.015625 30.777344 111.5 32.300781 C 115.023438 34.460938 116.707031 38.140625 117.265625 41.90625 L 117.421875 51.988281 L 117.265625 73.359375 L 117.1875 73.4375 L 117.34375 75.921875 L 117.1875 113.621094 L 115.90625 115.542969 L 115.746094 113.144531 L 115.503906 93.210938 " fill-opacity="1" fill-rule="nonzero"/><path fill="#fcedd4" d="M 119.425781 107.539062 L 119.425781 87.289062 L 119.507812 65.273438 C 119.425781 57.832031 119.746094 50.070312 119.425781 42.941406 C 119.023438 39.5 118.308594 36.300781 115.746094 33.660156 C 112.78125 30.535156 108.695312 28.777344 104.292969 29.976562 C 99.410156 31.019531 96.527344 36.144531 93.964844 40.066406 C 92.601562 42.0625 92.042969 44.308594 91 46.386719 C 90.761719 47.90625 90.761719 49.425781 91.960938 50.546875 C 92.363281 51.109375 93.085938 51.269531 93.722656 51.191406 C 94.601562 51.269531 95.167969 50.546875 95.566406 49.910156 C 95.644531 49.425781 95.484375 48.867188 95.003906 48.546875 C 94.601562 48.308594 94.042969 48.144531 93.644531 48.464844 C 93.164062 48.789062 92.921875 49.347656 92.921875 49.828125 C 92.285156 49.746094 92.042969 49.109375 91.800781 48.628906 C 91.640625 47.507812 91.882812 46.386719 92.761719 45.667969 C 93.480469 45.105469 94.445312 44.789062 95.402344 45.105469 C 97.085938 45.582031 97.726562 47.347656 98.050781 48.945312 C 98.050781 50.304688 97.808594 51.585938 97.007812 52.628906 C 96.925781 52.867188 97.085938 53.351562 97.484375 53.109375 C 98.050781 52.472656 99.007812 52.230469 99.890625 52.550781 C 100.128906 53.589844 99.328125 54.3125 98.765625 55.027344 C 99.167969 55.671875 99.96875 55.511719 100.527344 55.914062 C 102.371094 57.273438 103.332031 59.191406 104.050781 61.195312 C 100.210938 57.675781 95.246094 56.550781 91.71875 52.628906 C 89.636719 50.390625 89.480469 46.785156 90.359375 43.984375 C 91.960938 40.382812 94.363281 36.941406 97.246094 33.898438 C 97.246094 33.738281 97.085938 33.582031 96.847656 33.582031 C 94.363281 35.34375 92.84375 37.984375 91.160156 40.382812 C 90.039062 42.382812 89.238281 44.464844 88.921875 46.785156 C 88.757812 48.308594 87.71875 49.910156 86.195312 50.46875 C 85.714844 50.546875 84.996094 51.269531 84.753906 50.628906 C 84.753906 49.425781 84.996094 48.386719 85.714844 47.507812 C 85.636719 47.265625 85.953125 47.027344 85.636719 46.863281 C 84.035156 48.628906 81.871094 48.707031 79.550781 48.867188 C 79.550781 46.546875 80.429688 44.308594 82.433594 42.941406 C 82.191406 42.542969 81.46875 42.941406 80.988281 43.027344 C 80.109375 43.421875 78.90625 43.746094 78.027344 43.105469 C 78.269531 41.425781 79.789062 40.222656 81.390625 39.824219 C 86.277344 39.421875 90.28125 36.539062 94.203125 33.660156 L 95.566406 32.136719 C 95.246094 31.5 94.765625 32.136719 94.363281 32.300781 C 89.960938 35.742188 85.554688 39.265625 79.628906 38.699219 C 73.464844 37.101562 72.105469 30.21875 68.898438 25.734375 C 68.179688 24.695312 67.460938 23.734375 66.496094 22.933594 C 69.699219 23.574219 72.984375 26.535156 73.945312 29.738281 C 74.746094 29.976562 75.464844 29.019531 76.347656 28.9375 C 76.988281 28.9375 76.90625 29.738281 77.066406 30.21875 C 77.148438 30.855469 76.746094 31.5 77.226562 31.980469 C 77.789062 31.980469 78.105469 31.179688 78.589844 31.019531 C 79.550781 30.777344 80.910156 30.535156 81.789062 31.019531 C 82.914062 31.660156 83.871094 32.695312 83.871094 34.0625 C 83.792969 34.941406 83.3125 35.578125 82.75 36.222656 C 82.191406 36.539062 81.3125 36.703125 80.667969 36.460938 C 80.351562 36.144531 79.949219 36.058594 79.789062 35.660156 C 80.1875 35.34375 80.988281 35.179688 80.988281 34.542969 C 81.070312 34.0625 80.988281 33.660156 80.589844 33.339844 C 80.1875 32.78125 79.472656 32.9375 78.90625 33.097656 C 78.347656 33.660156 78.1875 34.378906 78.1875 35.101562 C 78.347656 36.144531 79.148438 37.023438 80.03125 37.417969 C 82.511719 38.140625 84.4375 36.382812 86.675781 35.980469 C 91.082031 33.417969 97.246094 30.457031 98.449219 24.855469 C 99.328125 19.730469 97.40625 14.691406 93.242188 11.730469 C 90.28125 9.40625 86.753906 8.605469 82.992188 8.367188 L 60.730469 8.207031 L 28.140625 8.289062 L 16.207031 8.125 L 14.128906 6.527344 L 14.367188 6.445312 L 28.058594 6.527344 L 52.167969 6.363281 L 72.105469 6.445312 C 81.070312 6.605469 92.121094 4.925781 97.886719 13.167969 C 100.847656 16.53125 101.570312 21.332031 100.925781 25.65625 C 100.847656 26.855469 99.96875 27.894531 99.410156 28.9375 C 99.328125 29.175781 99.566406 29.253906 99.730469 29.339844 C 100.847656 29.019531 101.734375 28.214844 102.851562 27.816406 C 109.015625 26.457031 115.261719 28.859375 118.867188 34.300781 C 120.949219 37.261719 121.429688 41.101562 121.671875 44.707031 L 121.585938 74.804688 L 121.507812 92.011719 L 121.429688 115.0625 L 121.347656 115.226562 L 119.425781 113.144531 L 119.425781 107.539062 " fill-opacity="1" fill-rule="nonzero"/><path fill="#2f5982" d="M 107.175781 94.890625 C 105.175781 85.925781 108.617188 77.28125 111.019531 69.117188 C 113.902344 61.03125 115.582031 51.507812 114.222656 42.542969 C 114.140625 42.0625 113.660156 41.582031 114.0625 41.101562 C 114.304688 41.023438 114.625 41.101562 114.625 41.34375 C 117.507812 52.472656 114.0625 63.996094 110.460938 73.917969 C 108.9375 78.324219 108.058594 82.882812 107.578125 87.605469 C 108.695312 86.566406 109.976562 85.207031 111.742188 85.523438 C 114.304688 86.167969 115.746094 88.648438 116.304688 90.96875 C 116.382812 91.929688 116.785156 92.972656 116.304688 93.851562 C 115.503906 93.292969 115.984375 91.929688 115.582031 91.210938 C 115.183594 89.367188 114.140625 87.128906 111.980469 86.726562 C 110.859375 86.488281 109.898438 87.046875 109.097656 87.769531 C 107.015625 89.851562 107.257812 93.292969 108.296875 95.855469 C 107.734375 96.894531 107.335938 95.371094 107.175781 94.890625 " fill-opacity="1" fill-rule="nonzero"/><path fill="#2f5982" d="M 110.859375 84.007812 C 110.460938 83.527344 110.21875 82.804688 110.460938 82.082031 C 110.460938 81.523438 111.019531 80.964844 111.5 80.644531 C 112.222656 80.40625 112.941406 80.722656 113.582031 81.042969 C 114.304688 81.523438 114.460938 82.324219 114.539062 83.125 C 114.382812 83.765625 113.902344 84.40625 113.339844 84.726562 C 112.457031 85.046875 111.5 84.726562 110.859375 84.007812 " fill-opacity="1" fill-rule="nonzero"/><path fill="#fcedd4" d="M 111.179688 83.046875 C 111.019531 82.40625 111.261719 81.84375 111.820312 81.605469 C 112.222656 81.285156 112.621094 81.6875 113.023438 81.84375 C 113.421875 82.246094 113.742188 82.726562 113.421875 83.285156 C 112.941406 84.328125 111.339844 84.085938 111.179688 83.046875 " fill-opacity="1" fill-rule="nonzero"/><path fill="#2f5982" d="M 107.175781 71.277344 C 108.859375 67.117188 109.097656 61.832031 107.175781 57.832031 L 106.613281 56.070312 C 108.214844 55.191406 110.058594 54.46875 111.339844 52.789062 C 110.699219 51.109375 108.695312 49.828125 107.257812 48.707031 C 109.175781 45.503906 110.699219 41.023438 108.617188 37.339844 C 108.058594 36.621094 107.414062 35.742188 106.457031 35.578125 C 106.214844 35.578125 106.054688 35.179688 106.292969 35.019531 C 107.09375 34.777344 107.734375 35.421875 108.296875 35.820312 C 110.777344 38.382812 110.941406 42.226562 109.976562 45.503906 L 108.9375 48.230469 C 110.460938 49.589844 111.980469 51.109375 112.457031 53.109375 C 111.261719 54.550781 109.417969 55.671875 107.976562 56.875 C 109.496094 61.675781 110.21875 66.878906 107.734375 71.519531 C 107.492188 71.757812 107.257812 71.519531 107.175781 71.277344 " fill-opacity="1" fill-rule="nonzero"/><path fill="#2f5982" d="M 86.277344 48.945312 C 86.433594 45.984375 87.636719 43.34375 88.679688 40.78125 C 86.277344 42.785156 83.714844 45.425781 81.230469 47.585938 L 80.910156 47.585938 L 80.988281 47.265625 C 82.992188 44.386719 85.875 42.625 88.035156 39.824219 C 85.394531 40.464844 82.832031 41.984375 79.949219 41.824219 C 79.789062 41.746094 79.871094 41.582031 79.949219 41.503906 C 82.75 40.703125 85.554688 40.066406 88.117188 38.699219 C 90.117188 37.660156 91.882812 36.144531 93.964844 35.257812 L 93.644531 35.980469 C 89.960938 39.742188 87.71875 44.066406 86.675781 48.867188 C 86.597656 48.945312 86.433594 49.109375 86.277344 48.945312 " fill-opacity="1" fill-rule="nonzero"/><path fill="#fcedd4" d="M 93.5625 43.984375 C 93.5625 42.863281 94.28125 41.824219 94.765625 40.703125 L 96.125 38.699219 C 95.96875 40.542969 96.203125 42.625 96.527344 44.464844 C 95.644531 44.066406 94.601562 43.824219 93.5625 43.984375 " fill-opacity="1" fill-rule="nonzero"/><path fill="#fcedd4" d="M 84.351562 32.058594 C 86.433594 32.617188 88.921875 32.378906 91.082031 32.058594 C 89.238281 33.5 87.078125 34.621094 84.835938 35.421875 C 84.753906 34.300781 84.914062 33.097656 84.351562 32.058594 " fill-opacity="1" fill-rule="nonzero"/><path fill="#fcedd4" d="M 114.304688 24.214844 C 114.304688 23.335938 115.023438 22.613281 115.820312 22.371094 C 119.265625 21.976562 123.1875 23.972656 126.554688 22.132812 C 125.992188 23.734375 124.152344 25.015625 122.472656 25.175781 C 120.148438 25.574219 118.144531 24.695312 116.304688 23.734375 C 116.0625 23.734375 115.984375 24.054688 116.0625 24.214844 C 117.824219 25.65625 120.386719 26.136719 121.507812 28.457031 C 122.148438 29.898438 122.871094 31.335938 122.472656 33.097656 C 120.789062 29.253906 115.90625 28.136719 114.304688 24.214844 " fill-opacity="1" fill-rule="nonzero"/><path fill="#fcedd4" d="M 75.867188 27.179688 C 70.980469 23.816406 65.617188 19.894531 59.292969 21.734375 C 57.691406 22.457031 55.929688 24.054688 55.765625 25.898438 C 55.84375 26.535156 55.765625 27.414062 56.566406 27.65625 C 56.808594 27.738281 57.210938 27.816406 57.367188 27.578125 C 57.289062 27.09375 56.488281 26.9375 56.730469 26.214844 C 56.808594 25.8125 57.210938 25.496094 57.609375 25.417969 C 58.167969 25.332031 58.726562 25.734375 58.890625 26.296875 C 58.96875 27.179688 58.8125 28.214844 57.933594 28.617188 C 57.210938 28.859375 56.410156 28.695312 55.765625 28.375 C 54.808594 27.414062 54.40625 26.136719 54.566406 24.773438 C 54.808594 22.214844 57.289062 20.609375 59.449219 19.730469 C 59.449219 19.972656 59.050781 20.050781 59.210938 20.375 C 60.332031 20.453125 61.292969 19.730469 62.414062 19.652344 C 66.496094 19.414062 70.421875 20.210938 73.785156 22.132812 C 74.664062 20.851562 75.464844 19.414062 76.589844 18.292969 C 77.949219 18.851562 79.230469 19.808594 80.511719 20.851562 C 83.871094 19.492188 89.160156 17.890625 92.285156 20.695312 C 92.683594 21.011719 92.683594 21.8125 93.242188 21.65625 C 93.722656 21.253906 93.164062 20.851562 93.164062 20.453125 C 90.4375 17.25 85.152344 18.210938 81.632812 19.25 C 81.230469 19.414062 80.667969 19.808594 80.273438 19.25 C 79.070312 18.535156 77.949219 17.410156 76.589844 17.089844 C 75.144531 17.734375 74.34375 19.414062 73.464844 20.609375 C 69.621094 19.25 65.214844 18.210938 60.972656 19.25 C 62.574219 18.210938 64.816406 18.371094 66.738281 18.210938 C 68.980469 18.210938 70.902344 19.171875 72.984375 19.730469 C 74.023438 19.332031 74.105469 18.050781 74.90625 17.332031 C 75.464844 16.691406 76.265625 16.050781 76.90625 15.890625 C 78.429688 16.453125 79.789062 17.570312 81.070312 18.535156 C 84.351562 17.492188 88.757812 16.769531 91.882812 18.535156 C 92.921875 19.171875 93.882812 20.292969 94.125 21.414062 C 94.28125 22.535156 93.964844 23.734375 93.320312 24.617188 C 91.960938 25.976562 90.039062 26.457031 88.117188 26.136719 C 87.320312 26.054688 86.433594 25.65625 86.195312 24.773438 C 85.875 24.296875 86.117188 23.574219 86.519531 23.257812 C 87.320312 22.691406 88.277344 22.292969 89.316406 22.691406 C 89.636719 22.855469 89.878906 23.335938 89.636719 23.65625 C 89.316406 24.136719 88.597656 23.894531 88.359375 24.453125 C 88.679688 25.097656 89.558594 24.855469 90.117188 24.695312 C 90.839844 24.296875 91.71875 23.65625 91.480469 22.613281 C 91.402344 21.8125 90.519531 21.089844 89.800781 20.773438 C 88.035156 20.292969 85.875 20.53125 84.671875 21.890625 C 83.953125 22.691406 83.714844 23.65625 83.636719 24.695312 C 83.871094 25.976562 84.753906 27.09375 85.953125 27.65625 C 88.359375 28.617188 91.242188 28.296875 93.242188 26.699219 C 94.363281 25.574219 95.402344 24.375 95.566406 22.855469 C 95.566406 20.453125 94.203125 18.371094 92.285156 17.011719 C 88.277344 13.890625 82.59375 14.929688 77.628906 15.085938 C 71.78125 15.730469 66.015625 16.851562 60.492188 18.371094 C 56.488281 20.050781 52.324219 21.414062 48.082031 22.535156 C 43.597656 23.171875 38.871094 24.617188 34.148438 23.492188 C 32.144531 22.933594 29.984375 22.132812 28.941406 19.972656 C 28.621094 18.933594 28.140625 17.734375 28.78125 16.609375 C 30.382812 14.128906 33.347656 13.40625 36.386719 13.648438 C 37.988281 13.890625 39.75 14.449219 40.636719 15.972656 C 40.871094 16.53125 40.871094 17.332031 40.550781 17.890625 C 39.269531 19.652344 37.03125 19.808594 35.105469 19.492188 C 34.304688 19.25 33.347656 19.09375 32.945312 18.292969 C 32.789062 17.734375 33.265625 17.25 33.667969 17.011719 C 34.789062 16.53125 36.308594 16.210938 37.269531 17.089844 C 37.511719 17.089844 37.671875 16.851562 37.671875 16.691406 C 37.429688 16.128906 36.789062 15.890625 36.230469 15.652344 C 34.546875 15.566406 32.703125 15.890625 31.90625 17.492188 C 31.746094 17.96875 31.664062 18.691406 31.988281 19.171875 C 32.945312 20.609375 34.628906 21.011719 36.308594 20.933594 C 38.3125 20.933594 40.070312 19.894531 41.273438 18.292969 C 41.753906 17.652344 41.914062 16.609375 41.515625 15.808594 C 40.636719 13.648438 38.230469 13.011719 36.230469 12.445312 C 28.539062 12.289062 21.414062 12.210938 13.730469 12.210938 C 14.128906 11.488281 15.011719 11.085938 15.648438 10.605469 L 49.285156 10.527344 L 55.050781 10.527344 L 74.265625 10.605469 C 81.632812 10.765625 89.960938 9.96875 94.925781 16.128906 C 97.164062 18.449219 97.964844 21.890625 97.328125 25.175781 C 96.285156 28.296875 93.085938 30.855469 89.800781 31.257812 C 84.4375 32.058594 80.109375 29.496094 75.867188 27.179688 " fill-opacity="1" fill-rule="nonzero"/><path fill="#fcedd4" d="M 122.472656 28.375 L 122.386719 28.296875 C 123.511719 27.894531 124.871094 28.296875 125.914062 28.136719 L 125.914062 28.058594 C 125.113281 27.496094 124.152344 27.015625 123.429688 26.136719 C 123.589844 25.8125 124.074219 25.65625 124.46875 25.65625 C 125.671875 26.214844 126.554688 27.414062 126.953125 28.539062 C 126.070312 29.253906 124.871094 29.253906 123.832031 29.417969 C 123.1875 29.578125 122.550781 29.019531 122.472656 28.375 " fill-opacity="1" fill-rule="nonzero"/><path fill="#fcedd4" d="M 104.050781 24.855469 C 102.53125 23.257812 101.8125 21.011719 102.371094 18.773438 C 102.773438 16.933594 104.292969 15.25 106.132812 14.691406 C 108.539062 14.128906 110.859375 15.171875 112.542969 16.851562 C 113.742188 18.371094 114.382812 20.453125 113.660156 22.292969 C 113.101562 24.375 111.179688 26.054688 109.175781 26.457031 C 107.257812 26.535156 105.496094 26.054688 104.050781 24.855469 " fill-opacity="1" fill-rule="nonzero"/><path fill="#2f5982" d="M 104.132812 22.292969 C 103.410156 20.773438 103.652344 18.613281 104.851562 17.410156 C 105.894531 16.53125 107.175781 15.972656 108.617188 16.128906 C 110.140625 16.609375 111.660156 17.652344 112.222656 19.171875 C 112.457031 20.292969 112.621094 21.65625 111.980469 22.691406 C 111.179688 23.972656 109.898438 24.53125 108.617188 24.855469 C 106.777344 24.855469 104.933594 24.054688 104.132812 22.292969 " fill-opacity="1" fill-rule="nonzero"/><path fill="#fcedd4" d="M 105.894531 23.015625 C 105.175781 22.292969 104.53125 21.492188 104.695312 20.453125 C 104.453125 19.09375 105.414062 18.132812 106.375 17.492188 C 107.578125 16.691406 109.015625 17.332031 110.058594 17.96875 C 111.019531 18.613281 111.261719 19.652344 111.5 20.609375 C 111.5 21.8125 110.699219 22.855469 109.660156 23.574219 C 108.457031 24.375 106.855469 23.972656 105.894531 23.015625 " fill-opacity="1" fill-rule="nonzero"/><path fill="#2f5982" d="M 106.054688 22.132812 C 105.574219 21.414062 105.414062 20.375 105.734375 19.574219 C 106.054688 18.613281 106.933594 17.96875 107.894531 17.96875 C 108.777344 17.890625 109.496094 18.210938 110.058594 18.933594 C 110.539062 19.492188 110.777344 20.453125 110.539062 21.175781 C 110.140625 22.054688 109.582031 23.171875 108.457031 23.09375 C 107.492188 23.257812 106.777344 22.691406 106.054688 22.132812 " fill-opacity="1" fill-rule="nonzero"/><path fill="#2f5982" d="M 32.703125 21.734375 L 32.703125 21.492188 C 35.507812 21.976562 39.433594 22.773438 41.59375 20.050781 C 42.632812 19.011719 43.117188 17.570312 42.632812 16.128906 C 42.074219 13.40625 39.03125 12.367188 36.707031 11.886719 C 36.550781 11.808594 36.472656 11.566406 36.628906 11.488281 C 39.355469 11.566406 42.316406 12.925781 43.519531 15.652344 C 44.3125 17.96875 43.035156 20.132812 41.515625 21.65625 C 43.277344 21.890625 44.878906 21.011719 46.636719 20.933594 C 57.53125 19.09375 66.816406 13.167969 78.347656 12.925781 C 81.789062 12.609375 85.152344 13.089844 88.199219 13.96875 C 88.359375 14.128906 88.359375 14.371094 88.199219 14.449219 C 87.078125 14.527344 85.953125 14.050781 84.753906 13.96875 C 79.871094 13.488281 74.824219 14.292969 70.023438 15.085938 C 63.933594 16.609375 58.25 18.851562 52.167969 20.375 C 46.078125 21.65625 39.191406 23.972656 32.867188 21.890625 L 32.703125 21.734375 " fill-opacity="1" fill-rule="nonzero"/><path fill="#fcedd4" d="M 107.578125 20.375 C 107.335938 19.808594 107.65625 19.09375 108.296875 19.011719 C 108.859375 18.851562 109.417969 19.171875 109.582031 19.730469 C 109.816406 20.375 109.339844 20.851562 108.859375 21.089844 C 108.296875 21.253906 107.65625 20.933594 107.578125 20.375 " fill-opacity="1" fill-rule="nonzero"/><path fill="#fcedd4" d="M 120.789062 19.171875 C 120.546875 18.773438 120.546875 18.132812 120.789062 17.734375 C 121.027344 17.332031 121.269531 16.851562 121.75 16.933594 C 122.386719 17.011719 123.03125 17.25 123.351562 17.734375 C 123.589844 18.292969 123.589844 18.933594 123.273438 19.492188 C 122.953125 19.894531 122.386719 19.894531 121.992188 19.972656 C 121.507812 19.972656 121.027344 19.574219 120.789062 19.171875 " fill-opacity="1" fill-rule="nonzero"/><path fill="#2f5982" d="M 45.917969 17.011719 C 45.515625 16.453125 45.679688 15.730469 46 15.171875 C 46.316406 14.609375 46.960938 14.371094 47.601562 14.207031 C 48.320312 14.371094 49.199219 14.691406 49.519531 15.488281 C 49.84375 16.050781 49.921875 16.691406 49.601562 17.25 C 49.199219 17.734375 48.71875 18.210938 48.082031 18.210938 C 47.117188 18.371094 46.316406 17.8125 45.917969 17.011719 " fill-opacity="1" fill-rule="nonzero"/><path fill="#fcedd4" d="M 46.71875 16.769531 C 46.480469 16.367188 46.71875 15.890625 46.796875 15.566406 C 47.195312 15.085938 47.917969 15.085938 48.398438 15.410156 C 48.800781 15.808594 49.042969 16.289062 48.71875 16.851562 C 48.640625 17.25 48.160156 17.332031 47.839844 17.410156 C 47.4375 17.332031 46.960938 17.175781 46.71875 16.769531 " fill-opacity="1" fill-rule="nonzero"/><path fill="#fcedd4" d="M 112.699219 14.851562 C 112.78125 11.648438 115.503906 9.40625 115.582031 6.207031 C 115.746094 4.925781 115.425781 3.804688 115.261719 2.683594 C 117.105469 4.046875 117.988281 6.445312 117.421875 8.605469 C 117.105469 10.765625 115.582031 12.367188 114.0625 13.890625 C 113.902344 14.128906 114.140625 14.371094 114.382812 14.449219 C 115.105469 14.207031 115.664062 13.246094 116.226562 12.769531 C 118.144531 10.847656 121.269531 11.167969 123.667969 11.808594 C 124.632812 12.128906 125.59375 12.769531 125.835938 13.890625 C 121.269531 11.328125 117.988281 16.128906 113.660156 16.050781 L 112.699219 14.851562 " fill-opacity="1" fill-rule="nonzero"/><path fill="#fcedd4" d="M 4.839844 9.886719 C 4.4375 9.246094 4.761719 8.367188 4.917969 7.644531 C 7.078125 5.964844 9.960938 5.964844 11.808594 3.644531 C 12.207031 4.203125 11.886719 4.683594 11.808594 5.324219 C 11.085938 7.40625 8.683594 8.527344 6.683594 9.003906 C 6.519531 9.085938 6.441406 9.328125 6.601562 9.488281 C 8.601562 10.128906 11.085938 10.6875 11.964844 12.925781 C 12.050781 13.40625 12.128906 13.8125 11.964844 14.371094 C 10.203125 11.566406 6.761719 12.289062 4.839844 9.886719 " fill-opacity="1" fill-rule="nonzero"/><path fill="#fcedd4" d="M 101.8125 12.445312 C 99.96875 9.886719 98.128906 7.085938 95.167969 5.964844 C 97.886719 5.003906 100.449219 6.921875 102.292969 8.847656 C 103.410156 9.886719 103.25 11.566406 104.292969 12.53125 C 104.53125 12.53125 104.695312 12.367188 104.695312 12.210938 C 103.410156 9.488281 103.011719 5.40625 105.175781 3 C 105.894531 2.363281 106.691406 1.964844 107.578125 1.640625 L 107.65625 1.722656 C 105.734375 4.683594 106.457031 8.367188 106.375 11.808594 C 106.132812 12.769531 105.8125 13.96875 104.695312 14.207031 C 103.492188 14.292969 102.613281 13.246094 101.8125 12.445312 " fill-opacity="1" fill-rule="nonzero"/><path fill="#fcedd4" d="M 11.566406 10.527344 C 12.285156 9.886719 13.246094 9.648438 14.128906 9.40625 C 14.367188 9.328125 14.367188 8.925781 14.289062 8.6875 C 13.488281 8.207031 12.527344 7.964844 11.808594 7.488281 C 12.128906 7.164062 12.285156 6.125 12.84375 6.6875 C 13.730469 7.566406 15.167969 8.046875 15.648438 9.167969 C 14.847656 10.285156 13.566406 11.007812 12.367188 11.566406 L 11.566406 10.527344 " fill-opacity="1" fill-rule="nonzero"/><path fill="#fcedd4" d="M 1.078125 9.40625 C 1.078125 8.847656 1.320312 8.445312 1.636719 8.125 C 2.117188 7.808594 2.679688 7.644531 3.160156 7.964844 C 3.71875 8.367188 3.636719 9.167969 3.402344 9.648438 C 3.160156 10.046875 2.679688 10.285156 2.199219 10.371094 C 1.636719 10.285156 1.320312 9.886719 1.078125 9.40625 " fill-opacity="1" fill-rule="nonzero"/><path fill="#fcedd4" d="M 121.828125 10.046875 C 122.308594 8.125 123.351562 6.363281 124.3125 4.605469 C 123.988281 4.203125 123.589844 4.605469 123.273438 4.761719 C 121.90625 5.726562 120.46875 6.445312 119.023438 7.085938 C 118.546875 6.765625 119.265625 6.445312 119.425781 6.207031 C 121.269531 4.761719 123.1875 3.324219 125.433594 2.84375 C 124.871094 5.484375 123.910156 7.964844 122.148438 10.046875 L 121.828125 10.046875 " fill-opacity="1" fill-rule="nonzero"/><path fill="#fcedd4" d="M 109.257812 7.488281 C 109.097656 6.84375 109.417969 6.125 110.058594 5.882812 C 110.460938 5.804688 111.097656 5.5625 111.5 5.964844 C 112.140625 6.363281 112.140625 7.164062 111.980469 7.886719 C 111.660156 8.289062 111.261719 8.605469 110.699219 8.6875 C 110.140625 8.527344 109.417969 8.125 109.257812 7.488281 " fill-opacity="1" fill-rule="nonzero"/><path fill="#fcedd4" d="M 99.730469 5.242188 C 99.566406 4.046875 99.890625 3.082031 99.96875 2.042969 C 100.128906 1.804688 100.449219 1.882812 100.609375 1.964844 L 102.929688 4.28125 C 102.929688 4.523438 103.09375 5.003906 102.773438 5.242188 C 101.8125 5.242188 101.410156 4.125 101.011719 3.402344 C 100.769531 3.164062 100.925781 2.683594 100.449219 2.601562 C 100.289062 2.523438 100.128906 2.601562 100.128906 2.84375 C 100.046875 4.046875 100.769531 5.003906 100.609375 6.125 C 100.289062 5.964844 99.566406 5.804688 99.730469 5.242188 " fill-opacity="1" fill-rule="nonzero"/></svg>