<svg xmlns="http://www.w3.org/2000/svg" xmlns:xlink="http://www.w3.org/1999/xlink" width="175" zoomAndPan="magnify" viewBox="0 0 131.25 131.249998" height="175" preserveAspectRatio="xMidYMid meet" version="1.0"><defs><clipPath id="4ec3ef2441"><path d="M 2.285156 0 L 130.503906 0 L 130.503906 130 L 2.285156 130 Z M 2.285156 0 " clip-rule="nonzero"/></clipPath></defs><g clip-path="url(#4ec3ef2441)"><path fill="#2f5982" d="M 13.71875 1.03125 C 14.121094 1.589844 14.199219 2.554688 13.960938 3.195312 C 12.679688 4.15625 14.519531 4.554688 14.757812 5.4375 C 16.042969 7.835938 17.082031 10.640625 19.5625 12.160156 C 20.042969 12.316406 20.765625 12 21.167969 12.402344 C 20.925781 13.28125 19.804688 13.117188 19.242188 13.519531 C 18.285156 13.917969 17.164062 13.683594 16.121094 13.839844 L 15.964844 14.398438 C 16.121094 20.085938 15.722656 25.925781 16.203125 31.769531 L 16.28125 31.851562 C 17.164062 30.648438 18.605469 29.609375 20.207031 29.925781 C 23.570312 30.570312 25.09375 34.167969 25.730469 37.050781 C 26.289062 43.296875 24.851562 49.460938 23.410156 55.222656 C 24.929688 54.425781 27.09375 53.703125 28.855469 54.582031 C 29.976562 55.222656 30.773438 56.5 30.617188 57.867188 C 30.535156 58.90625 29.976562 59.863281 28.933594 60.265625 C 28.054688 60.34375 27.332031 60.105469 26.773438 59.464844 C 26.53125 59.148438 26.53125 58.664062 26.289062 58.261719 C 24.210938 60.105469 24.289062 63.46875 25.007812 65.867188 C 26.289062 68.671875 29.335938 69.953125 31.738281 71.632812 C 35.578125 73.394531 40.625 75.871094 41.582031 80.59375 C 42.867188 78.917969 44.949219 79.074219 46.46875 78.03125 C 46.390625 79.074219 46.871094 79.875 46.953125 80.914062 C 47.832031 80.914062 49.191406 80.996094 50.230469 80.757812 C 51.03125 80.675781 51.515625 79.957031 52.316406 79.875 C 52.554688 80.433594 51.914062 80.914062 51.996094 81.558594 C 51.914062 82.996094 51.753906 84.597656 51.195312 85.878906 L 51.433594 86.117188 C 52.398438 86.195312 53.277344 86.4375 54.15625 86.679688 C 54 87.320312 53.4375 87.960938 53.199219 88.679688 C 52.957031 89.402344 52.316406 90.121094 51.753906 90.601562 C 59.363281 92.921875 59.203125 101.644531 64.328125 106.53125 C 65.847656 107.8125 67.769531 108.769531 69.773438 108.289062 C 70.894531 107.96875 72.09375 107.332031 72.734375 106.210938 C 72.492188 105.730469 71.855469 106.128906 71.453125 105.808594 C 70.574219 105.171875 70.332031 104.289062 70.410156 103.167969 C 70.574219 102.367188 71.375 101.644531 72.09375 101.164062 C 72.972656 100.925781 74.175781 100.925781 74.976562 101.40625 C 76.5 102.367188 77.140625 104.128906 76.898438 105.972656 C 76.742188 107.011719 76.257812 108.050781 75.699219 108.929688 C 77.777344 108.769531 79.703125 107.730469 81.785156 107.246094 C 86.828125 106.367188 92.113281 105.171875 97.398438 106.453125 C 99.640625 107.167969 102.363281 108.527344 103.003906 111.011719 C 103.644531 112.769531 102.679688 114.617188 101.402344 115.894531 C 101.078125 116.214844 100.519531 116.457031 100.28125 116.855469 C 103.402344 117.097656 106.363281 117.175781 109.488281 117.015625 L 109.726562 117.097656 L 117.335938 117.015625 C 117.417969 115.894531 117.574219 114.695312 118.296875 113.894531 C 119.257812 113.894531 118.777344 115.175781 119.417969 115.734375 C 121.421875 117.894531 124.222656 117.972656 126.464844 119.65625 C 127.1875 119.339844 128.066406 119.015625 128.949219 119.339844 C 129.585938 119.574219 130.230469 120.21875 130.308594 120.855469 C 130.386719 121.5 130.472656 122.214844 130.070312 122.78125 C 129.667969 123.582031 128.707031 123.738281 127.824219 123.738281 L 126.386719 123.417969 C 124.140625 125.660156 120.140625 125.179688 119.019531 128.621094 C 119.019531 128.941406 118.941406 129.179688 118.777344 129.34375 C 117.976562 129.261719 117.894531 128.382812 117.660156 127.902344 C 117.335938 127.179688 117.574219 126.222656 117.496094 125.421875 L 108.128906 125.179688 L 77.300781 125.421875 L 46.308594 125.179688 C 39.742188 124.621094 33.175781 121.738281 30.054688 115.417969 L 28.933594 112.769531 C 28.375 113.652344 27.8125 114.617188 27.011719 115.417969 C 29.414062 116.777344 30.617188 119.496094 32.296875 121.417969 C 33.820312 122.859375 35.578125 123.820312 37.742188 123.820312 C 37.984375 124.0625 37.660156 124.457031 37.417969 124.539062 C 35.902344 125.820312 33.820312 125.820312 31.976562 125.5 C 31.652344 127.019531 31.738281 128.542969 31.175781 129.980469 L 30.535156 129.902344 C 29.335938 129.179688 28.132812 127.980469 27.09375 127.179688 C 25.410156 128.78125 23.410156 130.378906 20.925781 129.585938 C 20.207031 128.699219 21.808594 128.78125 22.125 128.0625 C 24.769531 124.863281 22.125 120.375 23.648438 116.855469 C 23.011719 117.015625 21.808594 116.777344 21.726562 117.816406 C 21.488281 118.9375 20.925781 119.976562 21.007812 121.257812 C 21.726562 121.578125 22.046875 122.296875 22.289062 123.015625 C 22.367188 123.738281 22.046875 124.378906 21.644531 125.019531 C 21.007812 125.660156 20.042969 126.058594 19.085938 125.742188 C 18.203125 125.578125 17.882812 124.777344 17.480469 124.0625 C 17.246094 123.257812 17.480469 122.539062 17.804688 121.898438 C 18.363281 120.855469 19.804688 121.417969 19.886719 120.132812 C 19.964844 119.015625 20.527344 117.65625 20.128906 116.535156 C 19.804688 116.132812 19.40625 116.132812 19.003906 115.976562 C 18.683594 116.613281 18.605469 117.414062 18.285156 118.058594 C 17.480469 120.21875 15.878906 122.136719 15.964844 124.457031 C 15.964844 126.136719 15.964844 128.542969 17.882812 129.34375 C 18.125 129.585938 17.960938 129.980469 17.644531 129.980469 C 15.242188 129.902344 13.082031 127.660156 12.28125 125.578125 C 12.28125 125.421875 12.28125 125.179688 12.039062 125.179688 L 4.75 128.863281 C 4.433594 128.863281 4.03125 128.863281 3.871094 128.542969 L 4.109375 127.101562 C 4.992188 124.699219 6.035156 122.378906 6.992188 120.054688 C 6.753906 119.65625 6.113281 119.417969 5.714844 119.097656 C 4.191406 118.136719 3.230469 116.535156 3.390625 114.851562 C 4.191406 114.136719 4.433594 115.496094 5.148438 115.8125 C 9.15625 117.894531 12.28125 113.816406 16.042969 113.414062 C 16.203125 113.253906 16.121094 112.851562 16.042969 112.613281 L 15.402344 112.292969 L 10.996094 112.292969 C 10.515625 113.09375 10.117188 114.375 8.917969 114.375 C 8.03125 114.453125 7.394531 114.136719 6.753906 113.574219 C 6.113281 112.933594 6.113281 111.890625 6.351562 111.089844 C 6.59375 110.53125 7.074219 110.050781 7.632812 109.808594 C 9.15625 109.09375 10.035156 110.609375 10.914062 111.332031 C 12.597656 111.089844 14.121094 111.089844 15.480469 110.453125 L 15.640625 108.929688 C 12.28125 109.808594 8.832031 107.730469 5.550781 108.851562 C 4.671875 109.171875 3.710938 109.894531 3.46875 110.851562 C 3.230469 111.171875 3.632812 111.8125 3.152344 111.8125 C 2.265625 110.695312 2.667969 108.769531 3.308594 107.570312 C 3.710938 106.847656 4.109375 106.128906 4.914062 105.570312 C 4.03125 104.371094 2.75 103.167969 2.507812 101.644531 L 2.667969 101.25 C 4.03125 100.449219 5.550781 100.125 7.230469 100.207031 C 7.074219 98.523438 7.316406 96.605469 7.796875 94.925781 C 7.953125 94.761719 8.195312 94.523438 8.511719 94.601562 C 8.996094 95.160156 8.511719 96.042969 8.917969 96.605469 C 10.4375 100.527344 15.164062 101.964844 17.082031 105.570312 C 17.882812 104.929688 18.605469 104.046875 19.484375 103.648438 C 14.757812 102.046875 10.4375 97.644531 8.917969 93 C 7.875 89.800781 7.714844 86.117188 7.714844 82.4375 L 7.796875 56.023438 L 7.796875 14.484375 C 7.230469 14 6.671875 14.71875 6.035156 14.5625 C 5.148438 14.320312 4.03125 14.484375 3.46875 13.761719 C 3.710938 12.800781 4.832031 13.039062 5.390625 12.238281 C 8.117188 10.078125 7.316406 6.476562 9.875 4.238281 C 9.15625 3.4375 9.15625 2.3125 9.476562 1.355469 C 9.796875 0.710938 10.355469 0.230469 11.078125 0.0742188 C 12.117188 0.0742188 13.082031 0.152344 13.71875 1.03125 " fill-opacity="1" fill-rule="nonzero"/></g><path fill="#fcedd4" d="M 12.757812 1.589844 C 13.082031 1.914062 13.082031 2.554688 12.839844 2.957031 C 12.597656 3.4375 12.117188 3.59375 11.636719 3.59375 C 11.15625 3.515625 10.597656 3.273438 10.355469 2.792969 C 10.277344 2.074219 10.515625 1.273438 11.316406 1.113281 C 11.878906 0.953125 12.28125 1.433594 12.757812 1.589844 " fill-opacity="1" fill-rule="nonzero"/><path fill="#fcedd4" d="M 14.039062 6.320312 C 15.320312 8.394531 15.878906 10.878906 17.882812 12.558594 C 16.445312 13.203125 15 12.402344 13.882812 11.441406 C 12.679688 10.15625 12.519531 8.480469 11.796875 7.035156 C 11.636719 6.796875 11.316406 6.796875 11.15625 7.035156 C 11.078125 9.117188 10.597656 11.441406 8.597656 12.800781 C 7.875 13.203125 6.914062 13.441406 6.113281 13.359375 C 6.59375 12.71875 7.230469 11.921875 7.714844 11.199219 C 9.074219 9.039062 8.753906 5.519531 11.636719 4.636719 C 12.757812 4.636719 13.5625 5.4375 14.039062 6.320312 " fill-opacity="1" fill-rule="nonzero"/><path fill="#fcedd4" d="M 14.039062 13.761719 C 13.476562 14.640625 13.160156 15.84375 12.117188 16.402344 C 10.914062 15.921875 10.035156 14.640625 9.398438 13.597656 C 9.714844 13.359375 10.035156 13.039062 10.4375 13.039062 C 11.238281 13.441406 11.238281 14.640625 12.28125 14.878906 C 13.160156 14.5625 12.679688 13.359375 13.238281 12.71875 C 13.476562 13.039062 14.199219 13.203125 14.039062 13.761719 " fill-opacity="1" fill-rule="nonzero"/><path fill="#fcedd4" d="M 15 37.292969 C 15.480469 39.457031 16.445312 42.175781 18.84375 42.8125 C 20.042969 42.976562 20.925781 41.855469 21.488281 41.054688 C 22.769531 39.214844 22.367188 36.414062 21.246094 34.648438 C 20.765625 34.167969 20.128906 33.453125 19.40625 33.609375 C 18.683594 33.691406 18.285156 34.332031 17.960938 34.890625 C 17.480469 35.929688 17.324219 37.453125 17.882812 38.492188 C 18.125 38.65625 18.363281 38.8125 18.683594 38.734375 C 19.085938 38.011719 18.445312 37.375 18.523438 36.652344 C 18.761719 36.015625 18.605469 35.132812 19.40625 34.890625 C 19.964844 34.972656 20.445312 35.371094 20.6875 35.851562 C 20.925781 37.613281 21.246094 39.855469 20.042969 41.296875 C 19.5625 41.617188 18.761719 41.855469 18.203125 41.453125 C 15.800781 39.933594 16.203125 36.652344 16.523438 34.25 C 17.003906 32.972656 17.804688 31.449219 19.164062 31.207031 C 20.128906 30.96875 21.007812 31.207031 21.808594 31.691406 C 25.007812 34.25 25.007812 38.574219 24.929688 42.417969 C 24.371094 49.703125 21.886719 56.023438 19.804688 62.746094 C 17.402344 70.992188 15.480469 80.035156 17.164062 89.160156 C 18.203125 92.519531 19.644531 96.921875 23.8125 97.40625 C 25.972656 97.886719 27.8125 96.363281 28.933594 94.601562 C 30.292969 92.761719 30.695312 89.722656 29.492188 87.71875 C 28.769531 86.4375 27.410156 85.078125 25.808594 85.15625 C 24.527344 85.398438 23.246094 86.359375 22.6875 87.5625 C 22.289062 88.84375 22.210938 90.28125 22.6875 91.402344 C 23.089844 92.121094 23.8125 93.242188 24.851562 93.164062 C 25.652344 93 26.609375 92.441406 26.773438 91.5625 C 26.933594 91.003906 27.171875 90.28125 26.773438 89.722656 C 26.695312 89.636719 26.453125 89.558594 26.289062 89.636719 C 25.972656 90.28125 26.609375 91.484375 25.570312 91.804688 C 24.769531 91.882812 24.210938 91.160156 24.128906 90.441406 C 23.96875 89.722656 24.289062 88.921875 24.527344 88.277344 C 25.09375 87.796875 25.808594 87.398438 26.53125 87.71875 C 28.132812 88.277344 28.375 90.039062 28.375 91.5625 C 28.292969 93.324219 27.492188 95.160156 25.730469 95.964844 C 24.289062 96.683594 22.6875 95.882812 21.566406 94.84375 C 19.003906 92.042969 18.683594 87.796875 19.804688 84.199219 C 20.042969 83.71875 20.6875 83.15625 20.207031 82.515625 C 18.761719 81.078125 17.804688 79.476562 17.5625 77.636719 C 18.046875 75.632812 19.804688 74.351562 21.40625 73.308594 L 21.488281 72.992188 C 19.164062 68.191406 20.285156 62.1875 22.6875 57.703125 C 23.648438 56.265625 25.25 54.984375 27.011719 55.0625 C 28.132812 55.140625 29.335938 55.542969 29.65625 56.742188 C 29.816406 57.382812 29.65625 57.945312 29.414062 58.582031 C 29.171875 59.226562 28.375 59.0625 27.890625 58.90625 C 27.492188 58.582031 27.332031 57.945312 27.652344 57.464844 C 27.574219 56.664062 29.171875 57.300781 28.375 56.421875 C 27.171875 56.023438 25.972656 56.585938 25.171875 57.464844 C 22.046875 61.625 24.289062 67.628906 26.453125 71.792969 C 29.414062 77.550781 32.9375 83.078125 33.417969 89.878906 C 33.65625 93.722656 31.175781 96.921875 27.976562 98.765625 C 25.25 100.285156 21.488281 99.726562 19.003906 98.203125 C 15.480469 96.042969 13.796875 92.363281 13.238281 88.601562 L 13.082031 78.515625 L 13.238281 57.144531 L 13.320312 57.066406 L 13.160156 54.582031 L 13.320312 16.882812 L 14.597656 14.960938 L 14.757812 17.363281 L 15 37.292969 " fill-opacity="1" fill-rule="nonzero"/><path fill="#fcedd4" d="M 11.078125 22.964844 L 11.078125 43.214844 L 10.996094 65.230469 C 11.078125 72.671875 10.757812 80.433594 11.078125 87.5625 C 11.480469 91.003906 12.195312 94.203125 14.757812 96.84375 C 17.722656 99.96875 21.808594 101.730469 26.210938 100.527344 C 31.09375 99.484375 33.976562 94.359375 36.539062 90.441406 C 37.902344 88.441406 38.460938 86.195312 39.507812 84.121094 C 39.742188 82.597656 39.742188 81.078125 38.542969 79.957031 C 38.140625 79.398438 37.417969 79.234375 36.78125 79.3125 C 35.902344 79.234375 35.339844 79.957031 34.9375 80.59375 C 34.859375 81.078125 35.019531 81.636719 35.5 81.957031 C 35.902344 82.195312 36.460938 82.359375 36.859375 82.039062 C 37.339844 81.714844 37.582031 81.15625 37.582031 80.675781 C 38.222656 80.757812 38.460938 81.394531 38.703125 81.875 C 38.863281 82.996094 38.621094 84.121094 37.742188 84.835938 C 37.023438 85.398438 36.058594 85.71875 35.101562 85.398438 C 33.417969 84.921875 32.777344 83.15625 32.457031 81.558594 C 32.457031 80.199219 32.699219 78.917969 33.5 77.875 C 33.578125 77.636719 33.417969 77.152344 33.019531 77.394531 C 32.457031 78.03125 31.496094 78.273438 30.617188 77.953125 C 30.375 76.914062 31.175781 76.191406 31.738281 75.476562 C 31.335938 74.832031 30.535156 74.992188 29.976562 74.589844 C 28.132812 73.230469 27.171875 71.3125 26.453125 69.308594 C 30.292969 72.832031 35.257812 73.953125 38.785156 77.875 C 40.867188 80.113281 41.023438 83.71875 40.144531 86.519531 C 38.542969 90.121094 36.140625 93.5625 33.257812 96.605469 C 33.257812 96.765625 33.417969 96.921875 33.65625 96.921875 C 36.140625 95.160156 37.660156 92.519531 39.34375 90.121094 C 40.464844 88.121094 41.265625 86.039062 41.582031 83.71875 C 41.746094 82.195312 42.785156 80.59375 44.308594 80.035156 C 44.789062 79.957031 45.507812 79.234375 45.75 79.875 C 45.75 81.078125 45.507812 82.117188 44.789062 82.996094 C 44.867188 83.238281 44.550781 83.476562 44.867188 83.640625 C 46.46875 81.875 48.632812 81.796875 50.953125 81.636719 C 50.953125 83.957031 50.074219 86.195312 48.070312 87.5625 C 48.3125 87.960938 49.035156 87.5625 49.515625 87.476562 C 50.394531 87.082031 51.597656 86.761719 52.476562 87.398438 C 52.234375 89.078125 50.714844 90.28125 49.113281 90.679688 C 44.226562 91.082031 40.222656 93.964844 36.300781 96.84375 L 34.9375 98.367188 C 35.257812 99.003906 35.738281 98.367188 36.140625 98.203125 C 40.542969 94.761719 44.949219 91.242188 50.875 91.804688 C 57.039062 93.402344 58.402344 100.285156 61.605469 104.769531 C 62.328125 105.808594 63.042969 106.769531 64.007812 107.570312 C 60.804688 106.929688 57.519531 103.96875 56.5625 100.765625 C 55.757812 100.527344 55.039062 101.488281 54.15625 101.566406 C 53.515625 101.566406 53.597656 100.765625 53.4375 100.285156 C 53.355469 99.648438 53.757812 99.003906 53.277344 98.523438 C 52.714844 98.523438 52.398438 99.324219 51.914062 99.484375 C 50.953125 99.726562 49.59375 99.96875 48.714844 99.484375 C 47.589844 98.847656 46.632812 97.808594 46.632812 96.441406 C 46.710938 95.5625 47.191406 94.925781 47.753906 94.28125 C 48.3125 93.964844 49.191406 93.800781 49.835938 94.042969 C 50.152344 94.359375 50.554688 94.445312 50.714844 94.84375 C 50.316406 95.160156 49.515625 95.324219 49.515625 95.964844 C 49.433594 96.441406 49.515625 96.84375 49.914062 97.164062 C 50.316406 97.722656 51.03125 97.566406 51.597656 97.40625 C 52.15625 96.84375 52.316406 96.125 52.316406 95.402344 C 52.15625 94.359375 51.355469 93.480469 50.472656 93.085938 C 47.992188 92.363281 46.066406 94.125 43.828125 94.523438 C 39.421875 97.085938 33.257812 100.046875 32.054688 105.648438 C 31.175781 110.773438 33.097656 115.8125 37.261719 118.773438 C 40.222656 121.097656 43.75 121.898438 47.511719 122.136719 L 69.773438 122.296875 L 102.363281 122.214844 L 114.296875 122.378906 L 116.375 123.976562 L 116.136719 124.0625 L 102.445312 123.976562 L 78.339844 124.140625 L 58.402344 124.0625 C 49.433594 123.898438 38.382812 125.578125 32.617188 117.335938 C 29.65625 113.972656 28.933594 109.171875 29.578125 104.847656 C 29.65625 103.648438 30.535156 102.609375 31.09375 101.566406 C 31.175781 101.328125 30.9375 101.25 30.773438 101.164062 C 29.65625 101.488281 28.769531 102.289062 27.652344 102.6875 C 21.488281 104.046875 15.242188 101.644531 11.636719 96.207031 C 9.554688 93.242188 9.074219 89.402344 8.832031 85.796875 L 8.917969 55.699219 L 8.996094 38.492188 L 9.074219 15.441406 L 9.15625 15.28125 L 11.078125 17.363281 L 11.078125 22.964844 " fill-opacity="1" fill-rule="nonzero"/><path fill="#2f5982" d="M 23.328125 35.613281 C 25.328125 44.578125 21.886719 53.222656 19.484375 61.386719 C 16.601562 69.472656 14.921875 78.996094 16.28125 87.960938 C 16.363281 88.441406 16.84375 88.921875 16.445312 89.402344 C 16.203125 89.480469 15.878906 89.402344 15.878906 89.160156 C 12.996094 78.03125 16.445312 66.511719 20.042969 56.585938 C 21.566406 52.179688 22.445312 47.621094 22.925781 42.898438 C 21.808594 43.9375 20.527344 45.296875 18.761719 44.980469 C 16.203125 44.335938 14.757812 41.855469 14.199219 39.535156 C 14.121094 38.574219 13.71875 37.53125 14.199219 36.652344 C 15 37.210938 14.519531 38.574219 14.921875 39.292969 C 15.320312 41.136719 16.363281 43.378906 18.523438 43.777344 C 19.644531 44.015625 20.605469 43.457031 21.40625 42.734375 C 23.488281 40.652344 23.246094 37.210938 22.210938 34.648438 C 22.769531 33.609375 23.167969 35.132812 23.328125 35.613281 " fill-opacity="1" fill-rule="nonzero"/><path fill="#2f5982" d="M 19.644531 46.496094 C 20.042969 46.976562 20.285156 47.699219 20.042969 48.421875 C 20.042969 48.980469 19.484375 49.539062 19.003906 49.859375 C 18.285156 50.097656 17.5625 49.78125 16.921875 49.460938 C 16.203125 48.980469 16.042969 48.179688 15.964844 47.378906 C 16.121094 46.738281 16.601562 46.097656 17.164062 45.777344 C 18.046875 45.457031 19.003906 45.777344 19.644531 46.496094 " fill-opacity="1" fill-rule="nonzero"/><path fill="#fcedd4" d="M 19.328125 47.457031 C 19.484375 48.101562 19.242188 48.660156 18.683594 48.902344 C 18.285156 49.21875 17.882812 48.816406 17.480469 48.660156 C 17.082031 48.257812 16.761719 47.777344 17.082031 47.21875 C 17.5625 46.175781 19.164062 46.417969 19.328125 47.457031 " fill-opacity="1" fill-rule="nonzero"/><path fill="#2f5982" d="M 23.328125 59.226562 C 21.644531 63.386719 21.40625 68.671875 23.328125 72.671875 L 23.890625 74.433594 C 22.289062 75.3125 20.445312 76.035156 19.164062 77.714844 C 19.804688 79.398438 21.808594 80.675781 23.246094 81.796875 C 21.328125 85 19.804688 89.480469 21.886719 93.164062 C 22.445312 93.882812 23.089844 94.761719 24.050781 94.925781 C 24.289062 94.925781 24.449219 95.324219 24.210938 95.484375 C 23.410156 95.726562 22.769531 95.082031 22.210938 94.683594 C 19.726562 92.121094 19.5625 88.277344 20.527344 85 L 21.566406 82.273438 C 20.042969 80.914062 18.523438 79.398438 18.046875 77.394531 C 19.242188 75.953125 21.085938 74.832031 22.527344 73.632812 C 21.007812 68.828125 20.285156 63.628906 22.769531 58.984375 C 23.011719 58.746094 23.246094 58.984375 23.328125 59.226562 " fill-opacity="1" fill-rule="nonzero"/><path fill="#2f5982" d="M 44.226562 81.558594 C 44.070312 84.519531 42.867188 87.160156 41.824219 89.722656 C 44.226562 87.71875 46.789062 85.078125 49.273438 82.917969 L 49.59375 82.917969 L 49.515625 83.238281 C 47.511719 86.117188 44.628906 87.878906 42.46875 90.679688 C 45.109375 90.039062 47.671875 88.519531 50.554688 88.679688 C 50.714844 88.757812 50.632812 88.921875 50.554688 89 C 47.753906 89.800781 44.949219 90.441406 42.390625 91.804688 C 40.386719 92.84375 38.621094 94.359375 36.539062 95.246094 L 36.859375 94.523438 C 40.542969 90.761719 42.785156 86.4375 43.828125 81.636719 C 43.90625 81.558594 44.070312 81.394531 44.226562 81.558594 " fill-opacity="1" fill-rule="nonzero"/><path fill="#fcedd4" d="M 36.941406 86.519531 C 36.941406 87.640625 36.222656 88.679688 35.738281 89.800781 L 34.378906 91.804688 C 34.535156 89.960938 34.300781 87.878906 33.976562 86.039062 C 34.859375 86.4375 35.902344 86.679688 36.941406 86.519531 " fill-opacity="1" fill-rule="nonzero"/><path fill="#fcedd4" d="M 46.152344 98.445312 C 44.070312 97.886719 41.582031 98.125 39.421875 98.445312 C 41.265625 97.007812 43.425781 95.882812 45.667969 95.082031 C 45.75 96.207031 45.589844 97.40625 46.152344 98.445312 " fill-opacity="1" fill-rule="nonzero"/><path fill="#fcedd4" d="M 16.203125 106.289062 C 16.203125 107.167969 15.480469 107.890625 14.683594 108.132812 C 11.238281 108.527344 7.316406 106.53125 3.949219 108.371094 C 4.511719 106.769531 6.351562 105.488281 8.03125 105.328125 C 10.355469 104.929688 12.359375 105.808594 14.199219 106.769531 C 14.441406 106.769531 14.519531 106.453125 14.441406 106.289062 C 12.679688 104.847656 10.117188 104.371094 8.996094 102.046875 C 8.355469 100.605469 7.632812 99.167969 8.03125 97.40625 C 9.714844 101.25 14.597656 102.367188 16.203125 106.289062 " fill-opacity="1" fill-rule="nonzero"/><path fill="#fcedd4" d="M 54.636719 103.328125 C 59.523438 106.6875 64.886719 110.609375 71.210938 108.769531 C 72.816406 108.050781 74.574219 106.453125 74.738281 104.605469 C 74.660156 103.96875 74.738281 103.089844 73.9375 102.847656 C 73.695312 102.765625 73.292969 102.6875 73.136719 102.925781 C 73.214844 103.410156 74.015625 103.570312 73.773438 104.289062 C 73.695312 104.691406 73.292969 105.007812 72.894531 105.085938 C 72.335938 105.171875 71.777344 104.769531 71.613281 104.207031 C 71.535156 103.328125 71.691406 102.289062 72.574219 101.886719 C 73.292969 101.644531 74.09375 101.808594 74.738281 102.128906 C 75.699219 103.089844 76.097656 104.371094 75.9375 105.730469 C 75.699219 108.289062 73.214844 109.894531 71.054688 110.773438 C 71.054688 110.53125 71.453125 110.453125 71.292969 110.128906 C 70.171875 110.050781 69.210938 110.773438 68.09375 110.851562 C 64.007812 111.089844 60.082031 110.292969 56.71875 108.371094 C 55.839844 109.652344 55.039062 111.089844 53.914062 112.210938 C 52.554688 111.652344 51.273438 110.695312 49.992188 109.652344 C 46.632812 111.011719 41.34375 112.613281 38.222656 109.808594 C 37.820312 109.492188 37.820312 108.691406 37.261719 108.851562 C 36.78125 109.25 37.339844 109.652344 37.339844 110.050781 C 40.066406 113.253906 45.351562 112.292969 48.871094 111.253906 C 49.273438 111.089844 49.835938 110.695312 50.230469 111.253906 C 51.433594 111.96875 52.554688 113.09375 53.914062 113.414062 C 55.359375 112.769531 56.160156 111.089844 57.039062 109.894531 C 60.882812 111.253906 65.289062 112.292969 69.53125 111.253906 C 67.929688 112.292969 65.6875 112.132812 63.765625 112.292969 C 61.523438 112.292969 59.601562 111.332031 57.519531 110.773438 C 56.480469 111.171875 56.398438 112.453125 55.597656 113.171875 C 55.039062 113.816406 54.238281 114.453125 53.597656 114.617188 C 52.074219 114.050781 50.714844 112.933594 49.433594 111.96875 C 46.152344 113.011719 41.746094 113.734375 38.621094 111.96875 C 37.582031 111.332031 36.625 110.210938 36.382812 109.09375 C 36.222656 107.96875 36.539062 106.769531 37.183594 105.886719 C 38.542969 104.527344 40.464844 104.046875 42.390625 104.371094 C 43.183594 104.449219 44.070312 104.847656 44.308594 105.730469 C 44.628906 106.210938 44.386719 106.929688 43.988281 107.246094 C 43.183594 107.8125 42.226562 108.210938 41.1875 107.8125 C 40.867188 107.648438 40.625 107.167969 40.867188 106.847656 C 41.1875 106.367188 41.90625 106.609375 42.148438 106.050781 C 41.824219 105.40625 40.945312 105.648438 40.386719 105.808594 C 39.664062 106.210938 38.785156 106.847656 39.023438 107.890625 C 39.101562 108.691406 39.984375 109.414062 40.703125 109.730469 C 42.46875 110.210938 44.628906 109.972656 45.832031 108.613281 C 46.550781 107.8125 46.789062 106.847656 46.871094 105.808594 C 46.632812 104.527344 45.75 103.410156 44.550781 102.847656 C 42.148438 101.886719 39.265625 102.207031 37.261719 103.804688 C 36.140625 104.929688 35.101562 106.128906 34.9375 107.648438 C 34.9375 110.050781 36.300781 112.132812 38.222656 113.492188 C 42.226562 116.613281 47.914062 115.574219 52.875 115.417969 C 58.722656 114.773438 64.488281 113.652344 70.011719 112.132812 C 74.015625 110.453125 78.179688 109.09375 82.421875 107.96875 C 86.90625 107.332031 91.632812 105.886719 96.355469 107.011719 C 98.359375 107.570312 100.519531 108.371094 101.5625 110.53125 C 101.882812 111.570312 102.363281 112.769531 101.722656 113.894531 C 100.121094 116.375 97.15625 117.097656 94.117188 116.855469 C 92.515625 116.613281 90.753906 116.054688 89.871094 114.53125 C 89.632812 113.972656 89.632812 113.171875 89.953125 112.613281 C 91.234375 110.851562 93.472656 110.695312 95.398438 111.011719 C 96.199219 111.253906 97.15625 111.410156 97.558594 112.210938 C 97.714844 112.769531 97.238281 113.253906 96.835938 113.492188 C 95.714844 113.972656 94.195312 114.292969 93.234375 113.414062 C 92.996094 113.414062 92.832031 113.652344 92.832031 113.816406 C 93.074219 114.375 93.714844 114.617188 94.273438 114.851562 C 95.957031 114.9375 97.800781 114.617188 98.597656 113.011719 C 98.761719 112.535156 98.839844 111.8125 98.519531 111.332031 C 97.558594 109.894531 95.878906 109.492188 94.195312 109.570312 C 92.191406 109.570312 90.433594 110.609375 89.230469 112.210938 C 88.75 112.851562 88.589844 113.894531 88.988281 114.695312 C 89.871094 116.855469 92.273438 117.492188 94.273438 118.058594 C 101.964844 118.214844 109.089844 118.296875 116.773438 118.296875 C 116.375 119.015625 115.492188 119.417969 114.855469 119.898438 L 81.222656 119.976562 L 75.457031 119.976562 L 56.238281 119.898438 C 48.871094 119.738281 40.542969 120.535156 35.578125 114.375 C 33.339844 112.054688 32.539062 108.613281 33.175781 105.328125 C 34.21875 102.207031 37.417969 99.648438 40.703125 99.246094 C 46.066406 98.445312 50.394531 101.007812 54.636719 103.328125 " fill-opacity="1" fill-rule="nonzero"/><path fill="#fcedd4" d="M 8.03125 102.128906 L 8.117188 102.207031 C 6.992188 102.609375 5.632812 102.207031 4.589844 102.367188 L 4.589844 102.445312 C 5.390625 103.007812 6.351562 103.488281 7.074219 104.371094 C 6.914062 104.691406 6.429688 104.847656 6.035156 104.847656 C 4.832031 104.289062 3.949219 103.089844 3.550781 101.964844 C 4.433594 101.25 5.632812 101.25 6.671875 101.085938 C 7.316406 100.925781 7.953125 101.488281 8.03125 102.128906 " fill-opacity="1" fill-rule="nonzero"/><path fill="#fcedd4" d="M 26.453125 105.648438 C 27.976562 107.246094 28.691406 109.492188 28.132812 111.734375 C 27.734375 113.574219 26.210938 115.253906 24.371094 115.8125 C 21.96875 116.375 19.644531 115.332031 17.960938 113.652344 C 16.761719 112.132812 16.121094 110.050781 16.84375 108.210938 C 17.402344 106.128906 19.328125 104.449219 21.328125 104.046875 C 23.246094 103.96875 25.007812 104.449219 26.453125 105.648438 " fill-opacity="1" fill-rule="nonzero"/><path fill="#2f5982" d="M 26.371094 108.210938 C 27.09375 109.730469 26.851562 111.890625 25.652344 113.09375 C 24.609375 113.972656 23.328125 114.53125 21.886719 114.375 C 20.363281 113.894531 18.84375 112.851562 18.285156 111.332031 C 18.046875 110.210938 17.882812 108.851562 18.523438 107.8125 C 19.328125 106.53125 20.605469 105.972656 21.886719 105.648438 C 23.726562 105.648438 25.570312 106.453125 26.371094 108.210938 " fill-opacity="1" fill-rule="nonzero"/><path fill="#fcedd4" d="M 24.609375 107.488281 C 25.328125 108.210938 25.972656 109.011719 25.808594 110.050781 C 26.050781 111.410156 25.09375 112.371094 24.128906 113.011719 C 22.925781 113.816406 21.488281 113.171875 20.445312 112.535156 C 19.484375 111.890625 19.242188 110.851562 19.003906 109.894531 C 19.003906 108.691406 19.804688 107.648438 20.84375 106.929688 C 22.046875 106.128906 23.648438 106.53125 24.609375 107.488281 " fill-opacity="1" fill-rule="nonzero"/><path fill="#2f5982" d="M 24.449219 108.371094 C 24.929688 109.09375 25.09375 110.128906 24.769531 110.933594 C 24.449219 111.890625 23.570312 112.535156 22.609375 112.535156 C 21.726562 112.613281 21.007812 112.292969 20.445312 111.570312 C 19.964844 111.011719 19.726562 110.050781 19.964844 109.328125 C 20.363281 108.449219 20.925781 107.332031 22.046875 107.410156 C 23.011719 107.246094 23.726562 107.8125 24.449219 108.371094 " fill-opacity="1" fill-rule="nonzero"/><path fill="#2f5982" d="M 97.800781 108.769531 L 97.800781 109.011719 C 94.996094 108.527344 91.070312 107.730469 88.910156 110.453125 C 87.871094 111.492188 87.386719 112.933594 87.871094 114.375 C 88.429688 117.097656 91.472656 118.136719 93.796875 118.617188 C 93.953125 118.695312 94.03125 118.9375 93.875 119.015625 C 91.148438 118.9375 88.1875 117.578125 86.988281 114.851562 C 86.191406 112.535156 87.46875 110.371094 88.988281 108.851562 C 87.230469 108.613281 85.625 109.492188 83.867188 109.570312 C 72.972656 111.410156 63.6875 117.335938 52.15625 117.578125 C 48.714844 117.894531 45.351562 117.414062 42.304688 116.535156 C 42.148438 116.375 42.148438 116.132812 42.304688 116.054688 C 43.425781 115.976562 44.550781 116.457031 45.75 116.535156 C 50.632812 117.015625 55.679688 116.214844 60.480469 115.417969 C 66.570312 113.894531 72.253906 111.652344 78.339844 110.128906 C 84.425781 108.851562 91.3125 106.53125 97.636719 108.613281 L 97.800781 108.769531 " fill-opacity="1" fill-rule="nonzero"/><path fill="#fcedd4" d="M 22.925781 110.128906 C 23.167969 110.695312 22.847656 111.410156 22.210938 111.492188 C 21.644531 111.652344 21.085938 111.332031 20.925781 110.773438 C 20.6875 110.128906 21.167969 109.652344 21.644531 109.414062 C 22.210938 109.25 22.847656 109.570312 22.925781 110.128906 " fill-opacity="1" fill-rule="nonzero"/><path fill="#fcedd4" d="M 9.714844 111.332031 C 9.957031 111.734375 9.957031 112.371094 9.714844 112.769531 C 9.476562 113.171875 9.234375 113.652344 8.753906 113.574219 C 8.117188 113.492188 7.472656 113.253906 7.152344 112.769531 C 6.914062 112.210938 6.914062 111.570312 7.230469 111.011719 C 7.554688 110.609375 8.117188 110.609375 8.511719 110.53125 C 8.996094 110.53125 9.476562 110.933594 9.714844 111.332031 " fill-opacity="1" fill-rule="nonzero"/><path fill="#2f5982" d="M 84.585938 113.492188 C 84.988281 114.050781 84.824219 114.773438 84.503906 115.332031 C 84.1875 115.894531 83.542969 116.132812 82.902344 116.296875 C 82.183594 116.132812 81.304688 115.8125 80.984375 115.015625 C 80.660156 114.453125 80.582031 113.816406 80.902344 113.253906 C 81.304688 112.769531 81.785156 112.292969 82.421875 112.292969 C 83.386719 112.132812 84.1875 112.691406 84.585938 113.492188 " fill-opacity="1" fill-rule="nonzero"/><path fill="#fcedd4" d="M 83.785156 113.734375 C 84.023438 114.136719 83.785156 114.617188 83.707031 114.9375 C 83.308594 115.417969 82.585938 115.417969 82.105469 115.09375 C 81.703125 114.695312 81.464844 114.214844 81.785156 113.652344 C 81.863281 113.253906 82.34375 113.171875 82.664062 113.09375 C 83.066406 113.171875 83.542969 113.332031 83.785156 113.734375 " fill-opacity="1" fill-rule="nonzero"/><path fill="#fcedd4" d="M 17.804688 115.652344 C 17.722656 118.855469 15 121.097656 14.921875 124.296875 C 14.757812 125.578125 15.078125 126.703125 15.242188 127.820312 C 13.398438 126.460938 12.519531 124.0625 13.082031 121.898438 C 13.398438 119.738281 14.921875 118.136719 16.445312 116.613281 C 16.601562 116.375 16.363281 116.132812 16.121094 116.054688 C 15.402344 116.296875 14.839844 117.257812 14.277344 117.734375 C 12.359375 119.65625 9.234375 119.339844 6.835938 118.695312 C 5.871094 118.375 4.914062 117.734375 4.671875 116.613281 C 9.234375 119.175781 12.519531 114.375 16.84375 114.453125 L 17.804688 115.652344 " fill-opacity="1" fill-rule="nonzero"/><path fill="#fcedd4" d="M 125.664062 120.617188 C 126.066406 121.257812 125.742188 122.136719 125.585938 122.859375 C 123.425781 124.539062 120.542969 124.539062 118.699219 126.859375 C 118.296875 126.300781 118.617188 125.820312 118.699219 125.179688 C 119.417969 123.097656 121.824219 121.980469 123.820312 121.5 C 123.984375 121.417969 124.0625 121.179688 123.902344 121.015625 C 121.902344 120.375 119.417969 119.816406 118.539062 117.578125 C 118.457031 117.097656 118.375 116.691406 118.539062 116.132812 C 120.300781 118.9375 123.742188 118.214844 125.664062 120.617188 " fill-opacity="1" fill-rule="nonzero"/><path fill="#fcedd4" d="M 28.691406 118.058594 C 30.535156 120.617188 32.375 123.417969 35.339844 124.539062 C 32.617188 125.5 30.054688 123.582031 28.210938 121.65625 C 27.09375 120.617188 27.253906 118.9375 26.210938 117.972656 C 25.972656 117.972656 25.808594 118.136719 25.808594 118.296875 C 27.09375 121.015625 27.492188 125.097656 25.328125 127.503906 C 24.609375 128.140625 23.8125 128.542969 22.925781 128.863281 L 22.847656 128.78125 C 24.769531 125.820312 24.050781 122.136719 24.128906 118.695312 C 24.371094 117.734375 24.691406 116.535156 25.808594 116.296875 C 27.011719 116.214844 27.890625 117.257812 28.691406 118.058594 " fill-opacity="1" fill-rule="nonzero"/><path fill="#fcedd4" d="M 118.941406 119.976562 C 118.21875 120.617188 117.257812 120.855469 116.375 121.097656 C 116.136719 121.179688 116.136719 121.578125 116.214844 121.816406 C 117.015625 122.296875 117.976562 122.539062 118.699219 123.015625 C 118.375 123.339844 118.21875 124.378906 117.660156 123.820312 C 116.773438 122.9375 115.335938 122.457031 114.855469 121.335938 C 115.65625 120.21875 116.9375 119.496094 118.136719 118.9375 L 118.941406 119.976562 " fill-opacity="1" fill-rule="nonzero"/><path fill="#fcedd4" d="M 129.425781 121.097656 C 129.425781 121.65625 129.1875 122.058594 128.867188 122.378906 C 128.390625 122.695312 127.824219 122.859375 127.347656 122.539062 C 126.785156 122.136719 126.867188 121.335938 127.105469 120.855469 C 127.347656 120.457031 127.824219 120.21875 128.304688 120.132812 C 128.867188 120.21875 129.1875 120.617188 129.425781 121.097656 " fill-opacity="1" fill-rule="nonzero"/><path fill="#fcedd4" d="M 8.675781 120.457031 C 8.195312 122.378906 7.152344 124.140625 6.191406 125.898438 C 6.515625 126.300781 6.914062 125.898438 7.230469 125.742188 C 8.597656 124.777344 10.035156 124.0625 11.480469 123.417969 C 11.957031 123.738281 11.238281 124.0625 11.078125 124.296875 C 9.234375 125.742188 7.316406 127.179688 5.070312 127.660156 C 5.632812 125.019531 6.59375 122.539062 8.355469 120.457031 L 8.675781 120.457031 " fill-opacity="1" fill-rule="nonzero"/><path fill="#fcedd4" d="M 21.246094 123.015625 C 21.40625 123.660156 21.085938 124.378906 20.445312 124.621094 C 20.042969 124.699219 19.40625 124.941406 19.003906 124.539062 C 18.363281 124.140625 18.363281 123.339844 18.523438 122.617188 C 18.84375 122.214844 19.242188 121.898438 19.804688 121.816406 C 20.363281 121.980469 21.085938 122.378906 21.246094 123.015625 " fill-opacity="1" fill-rule="nonzero"/><path fill="#fcedd4" d="M 30.773438 125.261719 C 30.9375 126.460938 30.617188 127.421875 30.535156 128.460938 C 30.375 128.699219 30.054688 128.621094 29.894531 128.542969 L 27.574219 126.222656 C 27.574219 125.980469 27.410156 125.5 27.734375 125.261719 C 28.691406 125.261719 29.09375 126.378906 29.492188 127.101562 C 29.734375 127.339844 29.578125 127.820312 30.054688 127.902344 C 30.214844 127.980469 30.375 127.902344 30.375 127.660156 C 30.457031 126.460938 29.734375 125.5 29.894531 124.378906 C 30.214844 124.539062 30.9375 124.699219 30.773438 125.261719 " fill-opacity="1" fill-rule="nonzero"/></svg>