<svg xmlns="http://www.w3.org/2000/svg" xmlns:xlink="http://www.w3.org/1999/xlink" width="175" zoomAndPan="magnify" viewBox="0 0 131.25 131.249998" height="175" preserveAspectRatio="xMidYMid meet" version="1.0"><path fill="#2f5982" d="M 116.785156 1.03125 C 116.382812 1.589844 116.304688 2.554688 116.542969 3.195312 C 117.824219 4.15625 115.984375 4.554688 115.746094 5.4375 C 114.460938 7.835938 113.421875 10.640625 110.941406 12.160156 C 110.460938 12.316406 109.738281 12 109.339844 12.402344 C 109.582031 13.28125 110.699219 13.117188 111.261719 13.519531 C 112.222656 13.917969 113.339844 13.683594 114.382812 13.839844 L 114.539062 14.398438 C 114.382812 20.085938 114.78125 25.925781 114.304688 31.769531 L 114.222656 31.851562 C 113.339844 30.648438 111.898438 29.609375 110.296875 29.925781 C 106.933594 30.570312 105.414062 34.167969 104.773438 37.050781 C 104.214844 43.296875 105.65625 49.460938 107.09375 55.222656 C 105.574219 54.425781 103.410156 53.703125 101.648438 54.582031 C 100.527344 55.222656 99.730469 56.5 99.890625 57.867188 C 99.96875 58.90625 100.527344 59.863281 101.570312 60.265625 C 102.449219 60.34375 103.171875 60.105469 103.730469 59.464844 C 103.972656 59.148438 103.972656 58.664062 104.214844 58.261719 C 106.292969 60.105469 106.214844 63.46875 105.496094 65.867188 C 104.214844 68.671875 101.167969 69.953125 98.765625 71.632812 C 94.925781 73.394531 89.878906 75.871094 88.921875 80.59375 C 87.636719 78.917969 85.554688 79.074219 84.035156 78.03125 C 84.113281 79.074219 83.636719 79.875 83.550781 80.914062 C 82.671875 80.914062 81.3125 80.996094 80.273438 80.757812 C 79.472656 80.675781 78.988281 79.957031 78.1875 79.875 C 77.949219 80.433594 78.589844 80.914062 78.507812 81.558594 C 78.589844 82.996094 78.75 84.597656 79.308594 85.878906 L 79.070312 86.117188 C 78.105469 86.195312 77.226562 86.4375 76.347656 86.679688 C 76.503906 87.320312 77.066406 87.960938 77.304688 88.679688 C 77.546875 89.402344 78.1875 90.121094 78.75 90.601562 C 71.140625 92.921875 71.300781 101.644531 66.175781 106.53125 C 64.65625 107.8125 62.734375 108.769531 60.730469 108.289062 C 59.609375 107.96875 58.410156 107.332031 57.769531 106.210938 C 58.011719 105.730469 58.648438 106.128906 59.050781 105.808594 C 59.929688 105.171875 60.171875 104.289062 60.09375 103.167969 C 59.929688 102.367188 59.128906 101.644531 58.410156 101.164062 C 57.53125 100.925781 56.328125 100.925781 55.527344 101.40625 C 54.003906 102.367188 53.363281 104.128906 53.605469 105.972656 C 53.765625 107.011719 54.246094 108.050781 54.808594 108.929688 C 52.726562 108.769531 50.800781 107.730469 48.71875 107.246094 C 43.675781 106.367188 38.390625 105.171875 33.105469 106.453125 C 30.863281 107.167969 28.140625 108.527344 27.5 111.011719 C 26.859375 112.769531 27.824219 114.617188 29.105469 115.894531 C 29.425781 116.214844 29.984375 116.457031 30.222656 116.855469 C 27.101562 117.097656 24.140625 117.175781 21.015625 117.015625 L 20.777344 117.097656 L 13.167969 117.015625 C 13.085938 115.894531 12.929688 114.695312 12.207031 113.894531 C 11.246094 113.894531 11.726562 115.175781 11.085938 115.734375 C 9.082031 117.894531 6.285156 117.972656 4.039062 119.65625 C 3.316406 119.339844 2.4375 119.015625 1.554688 119.339844 C 0.917969 119.574219 0.277344 120.21875 0.195312 120.855469 C 0.117188 121.5 0.0351562 122.214844 0.433594 122.78125 C 0.835938 123.582031 1.796875 123.738281 2.679688 123.738281 L 4.117188 123.417969 C 6.363281 125.660156 10.363281 125.179688 11.484375 128.621094 C 11.484375 128.941406 11.566406 129.179688 11.726562 129.34375 C 12.527344 129.261719 12.609375 128.382812 12.84375 127.902344 C 13.167969 127.179688 12.929688 126.222656 13.007812 125.421875 L 22.375 125.179688 L 53.203125 125.421875 L 84.195312 125.179688 C 90.761719 124.621094 97.328125 121.738281 100.449219 115.417969 L 101.570312 112.769531 C 102.128906 113.652344 102.691406 114.617188 103.492188 115.417969 C 101.089844 116.777344 99.890625 119.496094 98.207031 121.417969 C 96.683594 122.859375 94.925781 123.820312 92.761719 123.820312 C 92.519531 124.0625 92.84375 124.457031 93.085938 124.539062 C 94.601562 125.820312 96.683594 125.820312 98.527344 125.5 C 98.851562 127.019531 98.765625 128.542969 99.328125 129.980469 L 99.96875 129.902344 C 101.167969 129.179688 102.371094 127.980469 103.410156 127.179688 C 105.09375 128.78125 107.09375 130.378906 109.582031 129.585938 C 110.296875 128.699219 108.695312 128.78125 108.378906 128.0625 C 105.734375 124.863281 108.378906 120.375 106.855469 116.855469 C 107.492188 117.015625 108.695312 116.777344 108.777344 117.816406 C 109.015625 118.9375 109.582031 119.976562 109.496094 121.257812 C 108.777344 121.578125 108.457031 122.296875 108.214844 123.015625 C 108.136719 123.738281 108.457031 124.378906 108.859375 125.019531 C 109.496094 125.660156 110.460938 126.058594 111.421875 125.742188 C 112.300781 125.578125 112.621094 124.777344 113.023438 124.0625 C 113.257812 123.257812 113.023438 122.539062 112.699219 121.898438 C 112.140625 120.855469 110.699219 121.417969 110.617188 120.132812 C 110.539062 119.015625 109.976562 117.65625 110.375 116.535156 C 110.699219 116.132812 111.097656 116.132812 111.5 115.976562 C 111.820312 116.613281 111.898438 117.414062 112.222656 118.058594 C 113.023438 120.21875 114.625 122.136719 114.539062 124.457031 C 114.539062 126.136719 114.539062 128.542969 112.621094 129.34375 C 112.378906 129.585938 112.542969 129.980469 112.859375 129.980469 C 115.261719 129.902344 117.421875 127.660156 118.222656 125.578125 C 118.222656 125.421875 118.222656 125.179688 118.464844 125.179688 L 125.753906 128.863281 C 126.070312 128.863281 126.472656 128.863281 126.636719 128.542969 L 126.394531 127.101562 C 125.511719 124.699219 124.46875 122.378906 123.511719 120.054688 C 123.753906 119.65625 124.390625 119.417969 124.789062 119.097656 C 126.3125 118.136719 127.273438 116.535156 127.113281 114.851562 C 126.3125 114.136719 126.070312 115.496094 125.355469 115.8125 C 121.347656 117.894531 118.222656 113.816406 114.460938 113.414062 C 114.304688 113.253906 114.382812 112.851562 114.460938 112.613281 L 115.105469 112.292969 L 119.507812 112.292969 C 119.988281 113.09375 120.386719 114.375 121.585938 114.375 C 122.472656 114.453125 123.109375 114.136719 123.753906 113.574219 C 124.390625 112.933594 124.390625 111.890625 124.152344 111.089844 C 123.910156 110.53125 123.429688 110.050781 122.871094 109.808594 C 121.347656 109.09375 120.46875 110.609375 119.589844 111.332031 C 117.90625 111.089844 116.382812 111.089844 115.023438 110.453125 L 114.863281 108.929688 C 118.222656 109.808594 121.671875 107.730469 124.953125 108.851562 C 125.835938 109.171875 126.792969 109.894531 127.035156 110.851562 C 127.273438 111.171875 126.871094 111.8125 127.351562 111.8125 C 128.238281 110.695312 127.835938 108.769531 127.195312 107.570312 C 126.792969 106.847656 126.394531 106.128906 125.59375 105.570312 C 126.472656 104.371094 127.753906 103.167969 127.996094 101.644531 L 127.835938 101.25 C 126.472656 100.449219 124.953125 100.125 123.273438 100.207031 C 123.429688 98.523438 123.1875 96.605469 122.710938 94.925781 C 122.550781 94.761719 122.308594 94.523438 121.992188 94.601562 C 121.507812 95.160156 121.992188 96.042969 121.585938 96.605469 C 120.070312 100.527344 115.339844 101.964844 113.421875 105.570312 C 112.621094 104.929688 111.898438 104.046875 111.019531 103.648438 C 115.746094 102.046875 120.070312 97.644531 121.585938 93 C 122.628906 89.800781 122.789062 86.117188 122.789062 82.4375 L 122.710938 56.023438 L 122.710938 14.484375 C 123.273438 14 123.832031 14.71875 124.46875 14.5625 C 125.355469 14.320312 126.472656 14.484375 127.035156 13.761719 C 126.792969 12.800781 125.671875 13.039062 125.113281 12.238281 C 122.386719 10.078125 123.1875 6.476562 120.628906 4.238281 C 121.347656 3.4375 121.347656 2.3125 121.027344 1.355469 C 120.707031 0.710938 120.148438 0.230469 119.425781 0.0742188 C 118.386719 0.0742188 117.421875 0.152344 116.785156 1.03125 " fill-opacity="1" fill-rule="nonzero"/><path fill="#fcedd4" d="M 117.746094 1.589844 C 117.421875 1.914062 117.421875 2.554688 117.664062 2.957031 C 117.90625 3.4375 118.386719 3.59375 118.867188 3.59375 C 119.347656 3.515625 119.90625 3.273438 120.148438 2.792969 C 120.226562 2.074219 119.988281 1.273438 119.1875 1.113281 C 118.625 0.953125 118.222656 1.433594 117.746094 1.589844 " fill-opacity="1" fill-rule="nonzero"/><path fill="#fcedd4" d="M 116.464844 6.320312 C 115.183594 8.394531 114.625 10.878906 112.621094 12.558594 C 114.0625 13.203125 115.503906 12.402344 116.621094 11.441406 C 117.824219 10.15625 117.988281 8.480469 118.707031 7.035156 C 118.867188 6.796875 119.1875 6.796875 119.347656 7.035156 C 119.425781 9.117188 119.90625 11.441406 121.90625 12.800781 C 122.628906 13.203125 123.589844 13.441406 124.390625 13.359375 C 123.910156 12.71875 123.273438 11.921875 122.789062 11.199219 C 121.429688 9.039062 121.75 5.519531 118.867188 4.636719 C 117.746094 4.636719 116.945312 5.4375 116.464844 6.320312 " fill-opacity="1" fill-rule="nonzero"/><path fill="#fcedd4" d="M 116.464844 13.761719 C 117.027344 14.640625 117.34375 15.84375 118.386719 16.402344 C 119.589844 15.921875 120.46875 14.640625 121.105469 13.597656 C 120.789062 13.359375 120.46875 13.039062 120.070312 13.039062 C 119.265625 13.441406 119.265625 14.640625 118.222656 14.878906 C 117.34375 14.5625 117.824219 13.359375 117.265625 12.71875 C 117.027344 13.039062 116.304688 13.203125 116.464844 13.761719 " fill-opacity="1" fill-rule="nonzero"/><path fill="#fcedd4" d="M 115.503906 37.292969 C 115.023438 39.457031 114.0625 42.175781 111.660156 42.8125 C 110.460938 42.976562 109.582031 41.855469 109.015625 41.054688 C 107.734375 39.214844 108.136719 36.414062 109.257812 34.648438 C 109.738281 34.167969 110.375 33.453125 111.097656 33.609375 C 111.820312 33.691406 112.222656 34.332031 112.542969 34.890625 C 113.023438 35.929688 113.179688 37.453125 112.621094 38.492188 C 112.378906 38.65625 112.140625 38.8125 111.820312 38.734375 C 111.421875 38.011719 112.058594 37.375 111.980469 36.652344 C 111.742188 36.015625 111.898438 35.132812 111.097656 34.890625 C 110.539062 34.972656 110.058594 35.371094 109.816406 35.851562 C 109.582031 37.613281 109.257812 39.855469 110.460938 41.296875 C 110.941406 41.617188 111.742188 41.855469 112.300781 41.453125 C 114.703125 39.933594 114.304688 36.652344 113.980469 34.25 C 113.5 32.972656 112.699219 31.449219 111.339844 31.207031 C 110.375 30.96875 109.496094 31.207031 108.695312 31.691406 C 105.496094 34.25 105.496094 38.574219 105.574219 42.417969 C 106.132812 49.703125 108.617188 56.023438 110.699219 62.746094 C 113.101562 70.992188 115.023438 80.035156 113.339844 89.160156 C 112.300781 92.519531 110.859375 96.921875 106.691406 97.40625 C 104.53125 97.886719 102.691406 96.363281 101.570312 94.601562 C 100.210938 92.761719 99.808594 89.722656 101.011719 87.71875 C 101.734375 86.4375 103.09375 85.078125 104.695312 85.15625 C 105.976562 85.398438 107.257812 86.359375 107.816406 87.5625 C 108.214844 88.84375 108.296875 90.28125 107.816406 91.402344 C 107.414062 92.121094 106.691406 93.242188 105.65625 93.164062 C 104.851562 93 103.894531 92.441406 103.730469 91.5625 C 103.574219 91.003906 103.332031 90.28125 103.730469 89.722656 C 103.808594 89.636719 104.050781 89.558594 104.214844 89.636719 C 104.53125 90.28125 103.894531 91.484375 104.933594 91.804688 C 105.734375 91.882812 106.292969 91.160156 106.375 90.441406 C 106.535156 89.722656 106.214844 88.921875 105.976562 88.277344 C 105.414062 87.796875 104.695312 87.398438 103.972656 87.71875 C 102.371094 88.277344 102.128906 90.039062 102.128906 91.5625 C 102.210938 93.324219 103.011719 95.160156 104.773438 95.964844 C 106.214844 96.683594 107.816406 95.882812 108.9375 94.84375 C 111.5 92.042969 111.820312 87.796875 110.699219 84.199219 C 110.460938 83.71875 109.816406 83.15625 110.296875 82.515625 C 111.742188 81.078125 112.699219 79.476562 112.941406 77.636719 C 112.457031 75.632812 110.699219 74.351562 109.097656 73.308594 L 109.015625 72.992188 C 111.339844 68.191406 110.21875 62.1875 107.816406 57.703125 C 106.855469 56.265625 105.253906 54.984375 103.492188 55.0625 C 102.371094 55.140625 101.167969 55.542969 100.847656 56.742188 C 100.691406 57.382812 100.847656 57.945312 101.089844 58.582031 C 101.332031 59.226562 102.128906 59.0625 102.613281 58.90625 C 103.011719 58.582031 103.171875 57.945312 102.851562 57.464844 C 102.929688 56.664062 101.332031 57.300781 102.128906 56.421875 C 103.332031 56.023438 104.53125 56.585938 105.332031 57.464844 C 108.457031 61.625 106.214844 67.628906 104.050781 71.792969 C 101.089844 77.550781 97.566406 83.078125 97.085938 89.878906 C 96.847656 93.722656 99.328125 96.921875 102.53125 98.765625 C 105.253906 100.285156 109.015625 99.726562 111.5 98.203125 C 115.023438 96.042969 116.707031 92.363281 117.265625 88.601562 L 117.421875 78.515625 L 117.265625 57.144531 L 117.1875 57.066406 L 117.34375 54.582031 L 117.1875 16.882812 L 115.90625 14.960938 L 115.746094 17.363281 L 115.503906 37.292969 " fill-opacity="1" fill-rule="nonzero"/><path fill="#fcedd4" d="M 119.425781 22.964844 L 119.425781 43.214844 L 119.507812 65.230469 C 119.425781 72.671875 119.746094 80.433594 119.425781 87.5625 C 119.023438 91.003906 118.308594 94.203125 115.746094 96.84375 C 112.78125 99.96875 108.695312 101.730469 104.292969 100.527344 C 99.410156 99.484375 96.527344 94.359375 93.964844 90.441406 C 92.601562 88.441406 92.042969 86.195312 91 84.121094 C 90.761719 82.597656 90.761719 81.078125 91.960938 79.957031 C 92.363281 79.398438 93.085938 79.234375 93.722656 79.3125 C 94.601562 79.234375 95.167969 79.957031 95.566406 80.59375 C 95.644531 81.078125 95.484375 81.636719 95.003906 81.957031 C 94.601562 82.195312 94.042969 82.359375 93.644531 82.039062 C 93.164062 81.714844 92.921875 81.15625 92.921875 80.675781 C 92.285156 80.757812 92.042969 81.394531 91.800781 81.875 C 91.640625 82.996094 91.882812 84.121094 92.761719 84.835938 C 93.480469 85.398438 94.445312 85.71875 95.402344 85.398438 C 97.085938 84.921875 97.726562 83.15625 98.050781 81.558594 C 98.050781 80.199219 97.808594 78.917969 97.007812 77.875 C 96.925781 77.636719 97.085938 77.152344 97.484375 77.394531 C 98.050781 78.03125 99.007812 78.273438 99.890625 77.953125 C 100.128906 76.914062 99.328125 76.191406 98.765625 75.476562 C 99.167969 74.832031 99.96875 74.992188 100.527344 74.589844 C 102.371094 73.230469 103.332031 71.3125 104.050781 69.308594 C 100.210938 72.832031 95.246094 73.953125 91.71875 77.875 C 89.636719 80.113281 89.480469 83.71875 90.359375 86.519531 C 91.960938 90.121094 94.363281 93.5625 97.246094 96.605469 C 97.246094 96.765625 97.085938 96.921875 96.847656 96.921875 C 94.363281 95.160156 92.84375 92.519531 91.160156 90.121094 C 90.039062 88.121094 89.238281 86.039062 88.921875 83.71875 C 88.757812 82.195312 87.71875 80.59375 86.195312 80.035156 C 85.714844 79.957031 84.996094 79.234375 84.753906 79.875 C 84.753906 81.078125 84.996094 82.117188 85.714844 82.996094 C 85.636719 83.238281 85.953125 83.476562 85.636719 83.640625 C 84.035156 81.875 81.871094 81.796875 79.550781 81.636719 C 79.550781 83.957031 80.429688 86.195312 82.433594 87.5625 C 82.191406 87.960938 81.46875 87.5625 80.988281 87.476562 C 80.109375 87.082031 78.90625 86.761719 78.027344 87.398438 C 78.269531 89.078125 79.789062 90.28125 81.390625 90.679688 C 86.277344 91.082031 90.28125 93.964844 94.203125 96.84375 L 95.566406 98.367188 C 95.246094 99.003906 94.765625 98.367188 94.363281 98.203125 C 89.960938 94.761719 85.554688 91.242188 79.628906 91.804688 C 73.464844 93.402344 72.105469 100.285156 68.898438 104.769531 C 68.179688 105.808594 67.460938 106.769531 66.496094 107.570312 C 69.699219 106.929688 72.984375 103.96875 73.945312 100.765625 C 74.746094 100.527344 75.464844 101.488281 76.347656 101.566406 C 76.988281 101.566406 76.90625 100.765625 77.066406 100.285156 C 77.148438 99.648438 76.746094 99.003906 77.226562 98.523438 C 77.789062 98.523438 78.105469 99.324219 78.589844 99.484375 C 79.550781 99.726562 80.910156 99.96875 81.789062 99.484375 C 82.914062 98.847656 83.871094 97.808594 83.871094 96.441406 C 83.792969 95.5625 83.3125 94.925781 82.75 94.28125 C 82.191406 93.964844 81.3125 93.800781 80.667969 94.042969 C 80.351562 94.359375 79.949219 94.445312 79.789062 94.84375 C 80.1875 95.160156 80.988281 95.324219 80.988281 95.964844 C 81.070312 96.441406 80.988281 96.84375 80.589844 97.164062 C 80.1875 97.722656 79.472656 97.566406 78.90625 97.40625 C 78.347656 96.84375 78.1875 96.125 78.1875 95.402344 C 78.347656 94.359375 79.148438 93.480469 80.03125 93.085938 C 82.511719 92.363281 84.4375 94.125 86.675781 94.523438 C 91.082031 97.085938 97.246094 100.046875 98.449219 105.648438 C 99.328125 110.773438 97.40625 115.8125 93.242188 118.773438 C 90.28125 121.097656 86.753906 121.898438 82.992188 122.136719 L 60.730469 122.296875 L 28.140625 122.214844 L 16.207031 122.378906 L 14.128906 123.976562 L 14.367188 124.0625 L 28.058594 123.976562 L 52.167969 124.140625 L 72.105469 124.0625 C 81.070312 123.898438 92.121094 125.578125 97.886719 117.335938 C 100.847656 113.972656 101.570312 109.171875 100.925781 104.847656 C 100.847656 103.648438 99.96875 102.609375 99.410156 101.566406 C 99.328125 101.328125 99.566406 101.25 99.730469 101.164062 C 100.847656 101.488281 101.734375 102.289062 102.851562 102.6875 C 109.015625 104.046875 115.261719 101.644531 118.867188 96.207031 C 120.949219 93.242188 121.429688 89.402344 121.671875 85.796875 L 121.585938 55.699219 L 121.507812 38.492188 L 121.429688 15.441406 L 121.347656 15.28125 L 119.425781 17.363281 L 119.425781 22.964844 " fill-opacity="1" fill-rule="nonzero"/><path fill="#2f5982" d="M 107.175781 35.613281 C 105.175781 44.578125 108.617188 53.222656 111.019531 61.386719 C 113.902344 69.472656 115.582031 78.996094 114.222656 87.960938 C 114.140625 88.441406 113.660156 88.921875 114.0625 89.402344 C 114.304688 89.480469 114.625 89.402344 114.625 89.160156 C 117.507812 78.03125 114.0625 66.511719 110.460938 56.585938 C 108.9375 52.179688 108.058594 47.621094 107.578125 42.898438 C 108.695312 43.9375 109.976562 45.296875 111.742188 44.980469 C 114.304688 44.335938 115.746094 41.855469 116.304688 39.535156 C 116.382812 38.574219 116.785156 37.53125 116.304688 36.652344 C 115.503906 37.210938 115.984375 38.574219 115.582031 39.292969 C 115.183594 41.136719 114.140625 43.378906 111.980469 43.777344 C 110.859375 44.015625 109.898438 43.457031 109.097656 42.734375 C 107.015625 40.652344 107.257812 37.210938 108.296875 34.648438 C 107.734375 33.609375 107.335938 35.132812 107.175781 35.613281 " fill-opacity="1" fill-rule="nonzero"/><path fill="#2f5982" d="M 110.859375 46.496094 C 110.460938 46.976562 110.21875 47.699219 110.460938 48.421875 C 110.460938 48.980469 111.019531 49.539062 111.5 49.859375 C 112.222656 50.097656 112.941406 49.78125 113.582031 49.460938 C 114.304688 48.980469 114.460938 48.179688 114.539062 47.378906 C 114.382812 46.738281 113.902344 46.097656 113.339844 45.777344 C 112.457031 45.457031 111.5 45.777344 110.859375 46.496094 " fill-opacity="1" fill-rule="nonzero"/><path fill="#fcedd4" d="M 111.179688 47.457031 C 111.019531 48.101562 111.261719 48.660156 111.820312 48.902344 C 112.222656 49.21875 112.621094 48.816406 113.023438 48.660156 C 113.421875 48.257812 113.742188 47.777344 113.421875 47.21875 C 112.941406 46.175781 111.339844 46.417969 111.179688 47.457031 " fill-opacity="1" fill-rule="nonzero"/><path fill="#2f5982" d="M 107.175781 59.226562 C 108.859375 63.386719 109.097656 68.671875 107.175781 72.671875 L 106.613281 74.433594 C 108.214844 75.3125 110.058594 76.035156 111.339844 77.714844 C 110.699219 79.398438 108.695312 80.675781 107.257812 81.796875 C 109.175781 85 110.699219 89.480469 108.617188 93.164062 C 108.058594 93.882812 107.414062 94.761719 106.457031 94.925781 C 106.214844 94.925781 106.054688 95.324219 106.292969 95.484375 C 107.09375 95.726562 107.734375 95.082031 108.296875 94.683594 C 110.777344 92.121094 110.941406 88.277344 109.976562 85 L 108.9375 82.273438 C 110.460938 80.914062 111.980469 79.398438 112.457031 77.394531 C 111.261719 75.953125 109.417969 74.832031 107.976562 73.632812 C 109.496094 68.828125 110.21875 63.628906 107.734375 58.984375 C 107.492188 58.746094 107.257812 58.984375 107.175781 59.226562 " fill-opacity="1" fill-rule="nonzero"/><path fill="#2f5982" d="M 86.277344 81.558594 C 86.433594 84.519531 87.636719 87.160156 88.679688 89.722656 C 86.277344 87.71875 83.714844 85.078125 81.230469 82.917969 L 80.910156 82.917969 L 80.988281 83.238281 C 82.992188 86.117188 85.875 87.878906 88.035156 90.679688 C 85.394531 90.039062 82.832031 88.519531 79.949219 88.679688 C 79.789062 88.757812 79.871094 88.921875 79.949219 89 C 82.75 89.800781 85.554688 90.441406 88.117188 91.804688 C 90.117188 92.84375 91.882812 94.359375 93.964844 95.246094 L 93.644531 94.523438 C 89.960938 90.761719 87.71875 86.4375 86.675781 81.636719 C 86.597656 81.558594 86.433594 81.394531 86.277344 81.558594 " fill-opacity="1" fill-rule="nonzero"/><path fill="#fcedd4" d="M 93.5625 86.519531 C 93.5625 87.640625 94.28125 88.679688 94.765625 89.800781 L 96.125 91.804688 C 95.96875 89.960938 96.203125 87.878906 96.527344 86.039062 C 95.644531 86.4375 94.601562 86.679688 93.5625 86.519531 " fill-opacity="1" fill-rule="nonzero"/><path fill="#fcedd4" d="M 84.351562 98.445312 C 86.433594 97.886719 88.921875 98.125 91.082031 98.445312 C 89.238281 97.007812 87.078125 95.882812 84.835938 95.082031 C 84.753906 96.207031 84.914062 97.40625 84.351562 98.445312 " fill-opacity="1" fill-rule="nonzero"/><path fill="#fcedd4" d="M 114.304688 106.289062 C 114.304688 107.167969 115.023438 107.890625 115.820312 108.132812 C 119.265625 108.527344 123.1875 106.53125 126.554688 108.371094 C 125.992188 106.769531 124.152344 105.488281 122.472656 105.328125 C 120.148438 104.929688 118.144531 105.808594 116.304688 106.769531 C 116.0625 106.769531 115.984375 106.453125 116.0625 106.289062 C 117.824219 104.847656 120.386719 104.371094 121.507812 102.046875 C 122.148438 100.605469 122.871094 99.167969 122.472656 97.40625 C 120.789062 101.25 115.90625 102.367188 114.304688 106.289062 " fill-opacity="1" fill-rule="nonzero"/><path fill="#fcedd4" d="M 75.867188 103.328125 C 70.980469 106.6875 65.617188 110.609375 59.292969 108.769531 C 57.691406 108.050781 55.929688 106.453125 55.765625 104.605469 C 55.84375 103.96875 55.765625 103.089844 56.566406 102.847656 C 56.808594 102.765625 57.210938 102.6875 57.367188 102.925781 C 57.289062 103.410156 56.488281 103.570312 56.730469 104.289062 C 56.808594 104.691406 57.210938 105.007812 57.609375 105.085938 C 58.167969 105.171875 58.726562 104.769531 58.890625 104.207031 C 58.96875 103.328125 58.8125 102.289062 57.933594 101.886719 C 57.210938 101.644531 56.410156 101.808594 55.765625 102.128906 C 54.808594 103.089844 54.40625 104.371094 54.566406 105.730469 C 54.808594 108.289062 57.289062 109.894531 59.449219 110.773438 C 59.449219 110.53125 59.050781 110.453125 59.210938 110.128906 C 60.332031 110.050781 61.292969 110.773438 62.414062 110.851562 C 66.496094 111.089844 70.421875 110.292969 73.785156 108.371094 C 74.664062 109.652344 75.464844 111.089844 76.589844 112.210938 C 77.949219 111.652344 79.230469 110.695312 80.511719 109.652344 C 83.871094 111.011719 89.160156 112.613281 92.285156 109.808594 C 92.683594 109.492188 92.683594 108.691406 93.242188 108.851562 C 93.722656 109.25 93.164062 109.652344 93.164062 110.050781 C 90.4375 113.253906 85.152344 112.292969 81.632812 111.253906 C 81.230469 111.089844 80.667969 110.695312 80.273438 111.253906 C 79.070312 111.96875 77.949219 113.09375 76.589844 113.414062 C 75.144531 112.769531 74.34375 111.089844 73.464844 109.894531 C 69.621094 111.253906 65.214844 112.292969 60.972656 111.253906 C 62.574219 112.292969 64.816406 112.132812 66.738281 112.292969 C 68.980469 112.292969 70.902344 111.332031 72.984375 110.773438 C 74.023438 111.171875 74.105469 112.453125 74.90625 113.171875 C 75.464844 113.816406 76.265625 114.453125 76.90625 114.617188 C 78.429688 114.050781 79.789062 112.933594 81.070312 111.96875 C 84.351562 113.011719 88.757812 113.734375 91.882812 111.96875 C 92.921875 111.332031 93.882812 110.210938 94.125 109.09375 C 94.28125 107.96875 93.964844 106.769531 93.320312 105.886719 C 91.960938 104.527344 90.039062 104.046875 88.117188 104.371094 C 87.320312 104.449219 86.433594 104.847656 86.195312 105.730469 C 85.875 106.210938 86.117188 106.929688 86.519531 107.246094 C 87.320312 107.8125 88.277344 108.210938 89.316406 107.8125 C 89.636719 107.648438 89.878906 107.167969 89.636719 106.847656 C 89.316406 106.367188 88.597656 106.609375 88.359375 106.050781 C 88.679688 105.40625 89.558594 105.648438 90.117188 105.808594 C 90.839844 106.210938 91.71875 106.847656 91.480469 107.890625 C 91.402344 108.691406 90.519531 109.414062 89.800781 109.730469 C 88.035156 110.210938 85.875 109.972656 84.671875 108.613281 C 83.953125 107.8125 83.714844 106.847656 83.636719 105.808594 C 83.871094 104.527344 84.753906 103.410156 85.953125 102.847656 C 88.359375 101.886719 91.242188 102.207031 93.242188 103.804688 C 94.363281 104.929688 95.402344 106.128906 95.566406 107.648438 C 95.566406 110.050781 94.203125 112.132812 92.285156 113.492188 C 88.277344 116.613281 82.59375 115.574219 77.628906 115.417969 C 71.78125 114.773438 66.015625 113.652344 60.492188 112.132812 C 56.488281 110.453125 52.324219 109.09375 48.082031 107.96875 C 43.597656 107.332031 38.871094 105.886719 34.148438 107.011719 C 32.144531 107.570312 29.984375 108.371094 28.941406 110.53125 C 28.621094 111.570312 28.140625 112.769531 28.78125 113.894531 C 30.382812 116.375 33.347656 117.097656 36.386719 116.855469 C 37.988281 116.613281 39.75 116.054688 40.636719 114.53125 C 40.871094 113.972656 40.871094 113.171875 40.550781 112.613281 C 39.269531 110.851562 37.03125 110.695312 35.105469 111.011719 C 34.304688 111.253906 33.347656 111.410156 32.945312 112.210938 C 32.789062 112.769531 33.265625 113.253906 33.667969 113.492188 C 34.789062 113.972656 36.308594 114.292969 37.269531 113.414062 C 37.511719 113.414062 37.671875 113.652344 37.671875 113.816406 C 37.429688 114.375 36.789062 114.617188 36.230469 114.851562 C 34.546875 114.9375 32.703125 114.617188 31.90625 113.011719 C 31.746094 112.535156 31.664062 111.8125 31.988281 111.332031 C 32.945312 109.894531 34.628906 109.492188 36.308594 109.570312 C 38.3125 109.570312 40.070312 110.609375 41.273438 112.210938 C 41.753906 112.851562 41.914062 113.894531 41.515625 114.695312 C 40.636719 116.855469 38.230469 117.492188 36.230469 118.058594 C 28.539062 118.214844 21.414062 118.296875 13.730469 118.296875 C 14.128906 119.015625 15.011719 119.417969 15.648438 119.898438 L 49.285156 119.976562 L 55.050781 119.976562 L 74.265625 119.898438 C 81.632812 119.738281 89.960938 120.535156 94.925781 114.375 C 97.164062 112.054688 97.964844 108.613281 97.328125 105.328125 C 96.285156 102.207031 93.085938 99.648438 89.800781 99.246094 C 84.4375 98.445312 80.109375 101.007812 75.867188 103.328125 " fill-opacity="1" fill-rule="nonzero"/><path fill="#fcedd4" d="M 122.472656 102.128906 L 122.386719 102.207031 C 123.511719 102.609375 124.871094 102.207031 125.914062 102.367188 L 125.914062 102.445312 C 125.113281 103.007812 124.152344 103.488281 123.429688 104.371094 C 123.589844 104.691406 124.074219 104.847656 124.46875 104.847656 C 125.671875 104.289062 126.554688 103.089844 126.953125 101.964844 C 126.070312 101.25 124.871094 101.25 123.832031 101.085938 C 123.1875 100.925781 122.550781 101.488281 122.472656 102.128906 " fill-opacity="1" fill-rule="nonzero"/><path fill="#fcedd4" d="M 104.050781 105.648438 C 102.53125 107.246094 101.8125 109.492188 102.371094 111.734375 C 102.773438 113.574219 104.292969 115.253906 106.132812 115.8125 C 108.539062 116.375 110.859375 115.332031 112.542969 113.652344 C 113.742188 112.132812 114.382812 110.050781 113.660156 108.210938 C 113.101562 106.128906 111.179688 104.449219 109.175781 104.046875 C 107.257812 103.96875 105.496094 104.449219 104.050781 105.648438 " fill-opacity="1" fill-rule="nonzero"/><path fill="#2f5982" d="M 104.132812 108.210938 C 103.410156 109.730469 103.652344 111.890625 104.851562 113.09375 C 105.894531 113.972656 107.175781 114.53125 108.617188 114.375 C 110.140625 113.894531 111.660156 112.851562 112.222656 111.332031 C 112.457031 110.210938 112.621094 108.851562 111.980469 107.8125 C 111.179688 106.53125 109.898438 105.972656 108.617188 105.648438 C 106.777344 105.648438 104.933594 106.453125 104.132812 108.210938 " fill-opacity="1" fill-rule="nonzero"/><path fill="#fcedd4" d="M 105.894531 107.488281 C 105.175781 108.210938 104.53125 109.011719 104.695312 110.050781 C 104.453125 111.410156 105.414062 112.371094 106.375 113.011719 C 107.578125 113.816406 109.015625 113.171875 110.058594 112.535156 C 111.019531 111.890625 111.261719 110.851562 111.5 109.894531 C 111.5 108.691406 110.699219 107.648438 109.660156 106.929688 C 108.457031 106.128906 106.855469 106.53125 105.894531 107.488281 " fill-opacity="1" fill-rule="nonzero"/><path fill="#2f5982" d="M 106.054688 108.371094 C 105.574219 109.09375 105.414062 110.128906 105.734375 110.933594 C 106.054688 111.890625 106.933594 112.535156 107.894531 112.535156 C 108.777344 112.613281 109.496094 112.292969 110.058594 111.570312 C 110.539062 111.011719 110.777344 110.050781 110.539062 109.328125 C 110.140625 108.449219 109.582031 107.332031 108.457031 107.410156 C 107.492188 107.246094 106.777344 107.8125 106.054688 108.371094 " fill-opacity="1" fill-rule="nonzero"/><path fill="#2f5982" d="M 32.703125 108.769531 L 32.703125 109.011719 C 35.507812 108.527344 39.433594 107.730469 41.59375 110.453125 C 42.632812 111.492188 43.117188 112.933594 42.632812 114.375 C 42.074219 117.097656 39.03125 118.136719 36.707031 118.617188 C 36.550781 118.695312 36.472656 118.9375 36.628906 119.015625 C 39.355469 118.9375 42.316406 117.578125 43.519531 114.851562 C 44.3125 112.535156 43.035156 110.371094 41.515625 108.851562 C 43.277344 108.613281 44.878906 109.492188 46.636719 109.570312 C 57.53125 111.410156 66.816406 117.335938 78.347656 117.578125 C 81.789062 117.894531 85.152344 117.414062 88.199219 116.535156 C 88.359375 116.375 88.359375 116.132812 88.199219 116.054688 C 87.078125 115.976562 85.953125 116.457031 84.753906 116.535156 C 79.871094 117.015625 74.824219 116.214844 70.023438 115.417969 C 63.933594 113.894531 58.25 111.652344 52.167969 110.128906 C 46.078125 108.851562 39.191406 106.53125 32.867188 108.613281 L 32.703125 108.769531 " fill-opacity="1" fill-rule="nonzero"/><path fill="#fcedd4" d="M 107.578125 110.128906 C 107.335938 110.695312 107.65625 111.410156 108.296875 111.492188 C 108.859375 111.652344 109.417969 111.332031 109.582031 110.773438 C 109.816406 110.128906 109.339844 109.652344 108.859375 109.414062 C 108.296875 109.25 107.65625 109.570312 107.578125 110.128906 " fill-opacity="1" fill-rule="nonzero"/><path fill="#fcedd4" d="M 120.789062 111.332031 C 120.546875 111.734375 120.546875 112.371094 120.789062 112.769531 C 121.027344 113.171875 121.269531 113.652344 121.75 113.574219 C 122.386719 113.492188 123.03125 113.253906 123.351562 112.769531 C 123.589844 112.210938 123.589844 111.570312 123.273438 111.011719 C 122.953125 110.609375 122.386719 110.609375 121.992188 110.53125 C 121.507812 110.53125 121.027344 110.933594 120.789062 111.332031 " fill-opacity="1" fill-rule="nonzero"/><path fill="#2f5982" d="M 45.917969 113.492188 C 45.515625 114.050781 45.679688 114.773438 46 115.332031 C 46.316406 115.894531 46.960938 116.132812 47.601562 116.296875 C 48.320312 116.132812 49.199219 115.8125 49.519531 115.015625 C 49.84375 114.453125 49.921875 113.816406 49.601562 113.253906 C 49.199219 112.769531 48.71875 112.292969 48.082031 112.292969 C 47.117188 112.132812 46.316406 112.691406 45.917969 113.492188 " fill-opacity="1" fill-rule="nonzero"/><path fill="#fcedd4" d="M 46.71875 113.734375 C 46.480469 114.136719 46.71875 114.617188 46.796875 114.9375 C 47.195312 115.417969 47.917969 115.417969 48.398438 115.09375 C 48.800781 114.695312 49.042969 114.214844 48.71875 113.652344 C 48.640625 113.253906 48.160156 113.171875 47.839844 113.09375 C 47.4375 113.171875 46.960938 113.332031 46.71875 113.734375 " fill-opacity="1" fill-rule="nonzero"/><path fill="#fcedd4" d="M 112.699219 115.652344 C 112.78125 118.855469 115.503906 121.097656 115.582031 124.296875 C 115.746094 125.578125 115.425781 126.703125 115.261719 127.820312 C 117.105469 126.460938 117.988281 124.0625 117.421875 121.898438 C 117.105469 119.738281 115.582031 118.136719 114.0625 116.613281 C 113.902344 116.375 114.140625 116.132812 114.382812 116.054688 C 115.105469 116.296875 115.664062 117.257812 116.226562 117.734375 C 118.144531 119.65625 121.269531 119.339844 123.667969 118.695312 C 124.632812 118.375 125.59375 117.734375 125.835938 116.613281 C 121.269531 119.175781 117.988281 114.375 113.660156 114.453125 L 112.699219 115.652344 " fill-opacity="1" fill-rule="nonzero"/><path fill="#fcedd4" d="M 4.839844 120.617188 C 4.4375 121.257812 4.761719 122.136719 4.917969 122.859375 C 7.078125 124.539062 9.960938 124.539062 11.808594 126.859375 C 12.207031 126.300781 11.886719 125.820312 11.808594 125.179688 C 11.085938 123.097656 8.683594 121.980469 6.683594 121.5 C 6.519531 121.417969 6.441406 121.179688 6.601562 121.015625 C 8.601562 120.375 11.085938 119.816406 11.964844 117.578125 C 12.050781 117.097656 12.128906 116.691406 11.964844 116.132812 C 10.203125 118.9375 6.761719 118.214844 4.839844 120.617188 " fill-opacity="1" fill-rule="nonzero"/><path fill="#fcedd4" d="M 101.8125 118.058594 C 99.96875 120.617188 98.128906 123.417969 95.167969 124.539062 C 97.886719 125.5 100.449219 123.582031 102.292969 121.65625 C 103.410156 120.617188 103.25 118.9375 104.292969 117.972656 C 104.53125 117.972656 104.695312 118.136719 104.695312 118.296875 C 103.410156 121.015625 103.011719 125.097656 105.175781 127.503906 C 105.894531 128.140625 106.691406 128.542969 107.578125 128.863281 L 107.65625 128.78125 C 105.734375 125.820312 106.457031 122.136719 106.375 118.695312 C 106.132812 117.734375 105.8125 116.535156 104.695312 116.296875 C 103.492188 116.214844 102.613281 117.257812 101.8125 118.058594 " fill-opacity="1" fill-rule="nonzero"/><path fill="#fcedd4" d="M 11.566406 119.976562 C 12.285156 120.617188 13.246094 120.855469 14.128906 121.097656 C 14.367188 121.179688 14.367188 121.578125 14.289062 121.816406 C 13.488281 122.296875 12.527344 122.539062 11.808594 123.015625 C 12.128906 123.339844 12.285156 124.378906 12.84375 123.820312 C 13.730469 122.9375 15.167969 122.457031 15.648438 121.335938 C 14.847656 120.21875 13.566406 119.496094 12.367188 118.9375 L 11.566406 119.976562 " fill-opacity="1" fill-rule="nonzero"/><path fill="#fcedd4" d="M 1.078125 121.097656 C 1.078125 121.65625 1.320312 122.058594 1.636719 122.378906 C 2.117188 122.695312 2.679688 122.859375 3.160156 122.539062 C 3.71875 122.136719 3.636719 121.335938 3.402344 120.855469 C 3.160156 120.457031 2.679688 120.21875 2.199219 120.132812 C 1.636719 120.21875 1.320312 120.617188 1.078125 121.097656 " fill-opacity="1" fill-rule="nonzero"/><path fill="#fcedd4" d="M 121.828125 120.457031 C 122.308594 122.378906 123.351562 124.140625 124.3125 125.898438 C 123.988281 126.300781 123.589844 125.898438 123.273438 125.742188 C 121.90625 124.777344 120.46875 124.0625 119.023438 123.417969 C 118.546875 123.738281 119.265625 124.0625 119.425781 124.296875 C 121.269531 125.742188 123.1875 127.179688 125.433594 127.660156 C 124.871094 125.019531 123.910156 122.539062 122.148438 120.457031 L 121.828125 120.457031 " fill-opacity="1" fill-rule="nonzero"/><path fill="#fcedd4" d="M 109.257812 123.015625 C 109.097656 123.660156 109.417969 124.378906 110.058594 124.621094 C 110.460938 124.699219 111.097656 124.941406 111.5 124.539062 C 112.140625 124.140625 112.140625 123.339844 111.980469 122.617188 C 111.660156 122.214844 111.261719 121.898438 110.699219 121.816406 C 110.140625 121.980469 109.417969 122.378906 109.257812 123.015625 " fill-opacity="1" fill-rule="nonzero"/><path fill="#fcedd4" d="M 99.730469 125.261719 C 99.566406 126.460938 99.890625 127.421875 99.96875 128.460938 C 100.128906 128.699219 100.449219 128.621094 100.609375 128.542969 L 102.929688 126.222656 C 102.929688 125.980469 103.09375 125.5 102.773438 125.261719 C 101.8125 125.261719 101.410156 126.378906 101.011719 127.101562 C 100.769531 127.339844 100.925781 127.820312 100.449219 127.902344 C 100.289062 127.980469 100.128906 127.902344 100.128906 127.660156 C 100.046875 126.460938 100.769531 125.5 100.609375 124.378906 C 100.289062 124.539062 99.566406 124.699219 99.730469 125.261719 " fill-opacity="1" fill-rule="nonzero"/></svg>