<svg xmlns="http://www.w3.org/2000/svg" xmlns:xlink="http://www.w3.org/1999/xlink" width="175" zoomAndPan="magnify" viewBox="0 0 131.25 131.249998" height="175" preserveAspectRatio="xMidYMid meet" version="1.0"><defs><clipPath id="ba862ba7bc"><path d="M 0.652344 1 L 129.664062 1 L 129.664062 130.503906 L 0.652344 130.503906 Z M 0.652344 1 " clip-rule="nonzero"/></clipPath></defs><g clip-path="url(#ba862ba7bc)"><path fill="#2f5982" d="M 21.179688 3.96875 L 101.550781 3.96875 C 102.382812 3.804688 103.542969 4.550781 104.125 3.722656 C 104.625 3.054688 105.453125 2.390625 106.371094 2.722656 C 106.953125 2.140625 107.453125 1.226562 108.363281 1.394531 C 108.613281 2.390625 109.195312 3.386719 110.195312 3.886719 C 113.355469 5.632812 116.347656 2.804688 119.585938 3.722656 C 120.667969 4.136719 121.746094 4.632812 122.496094 5.714844 C 122.660156 5.214844 122.992188 4.714844 123.578125 4.714844 C 124.738281 5.050781 125.238281 3.054688 126.570312 3.722656 C 127.230469 3.804688 127.730469 4.382812 128.0625 4.964844 C 128.5625 5.214844 129.3125 4.800781 129.640625 5.296875 C 129.640625 7.542969 129.808594 10.121094 129.722656 12.453125 C 129.144531 12.535156 127.980469 12.367188 127.980469 13.363281 C 127.5625 13.945312 126.902344 13.945312 126.320312 13.945312 C 124.90625 14.195312 124.90625 12.453125 123.828125 12.285156 C 123.410156 12.285156 123.160156 11.953125 122.828125 11.703125 C 122.410156 12.78125 121.417969 13.945312 120.167969 14.363281 C 116.507812 15.027344 112.273438 12.535156 109.113281 15.027344 C 108.613281 15.363281 108.78125 15.941406 108.363281 16.273438 C 107.617188 16.191406 107.453125 15.445312 106.953125 14.945312 C 106.285156 14.945312 105.542969 15.027344 104.960938 14.695312 L 104.460938 13.945312 L 84.425781 13.863281 C 84.34375 13.945312 84.175781 13.945312 84.175781 14.03125 C 85.007812 14.695312 86.257812 14.945312 87.253906 15.691406 C 88.085938 16.855469 89.085938 14.863281 89.996094 15.941406 C 90.578125 16.355469 90.660156 17.023438 90.496094 17.605469 C 90.328125 18.105469 89.828125 18.273438 89.417969 18.351562 C 88.835938 18.433594 88.253906 18.273438 87.835938 17.9375 C 86.175781 18.683594 84.675781 19.851562 82.933594 20.351562 C 82.433594 20.683594 82.765625 21.34375 82.183594 21.511719 C 81.515625 21.261719 81.105469 20.433594 80.441406 20.101562 C 79.523438 19.683594 78.445312 19.265625 77.945312 18.273438 C 77.113281 18.523438 75.953125 18.765625 75.285156 18.023438 C 74.871094 18.765625 75.121094 19.601562 74.953125 20.515625 C 66.726562 20.515625 57.003906 19.601562 51.433594 26.753906 C 49.105469 29.246094 47.859375 32.234375 47.441406 35.480469 C 47.941406 35.480469 48.605469 35.230469 49.105469 35.144531 L 49.933594 35.144531 C 50.351562 33.734375 50.101562 32.234375 49.933594 30.90625 C 50.019531 30.660156 50.351562 30.742188 50.515625 30.742188 C 51.265625 31.824219 52.015625 33.152344 53.34375 33.652344 C 54.175781 33.070312 55.335938 32.902344 56.417969 33.152344 C 57.335938 33.320312 57.496094 34.316406 57.746094 35.0625 C 57.746094 35.730469 57.417969 36.480469 56.753906 36.8125 C 56.167969 36.894531 55.585938 37.0625 55.085938 36.730469 C 54.675781 37.722656 55.085938 38.972656 54.84375 39.972656 C 54.675781 41.882812 53.59375 43.382812 52.265625 44.710938 C 53.34375 45.292969 54.257812 46.371094 55.671875 46.371094 C 55.921875 46.621094 55.585938 46.789062 55.421875 46.953125 C 54.425781 47.621094 53.34375 48.285156 52.34375 48.953125 C 53.425781 50.53125 53.34375 52.691406 54.34375 54.355469 L 54.257812 54.523438 C 52.265625 54.105469 50.183594 53.941406 48.523438 52.691406 C 47.941406 54.023438 46.941406 55.269531 46.195312 56.515625 C 45.113281 55.769531 44.867188 54.523438 44.203125 53.441406 C 42.207031 54.933594 39.710938 55.351562 37.21875 55.269531 C 37.050781 55.683594 37.300781 56.265625 37.21875 56.765625 C 37.136719 57.34375 36.71875 58.011719 36.21875 58.179688 C 35.308594 58.425781 34.144531 58.59375 33.480469 57.761719 C 32.816406 57.183594 32.484375 56.433594 32.648438 55.515625 C 32.730469 54.601562 34.058594 54.1875 33.726562 53.191406 C 32.980469 52.191406 31.898438 51.277344 31.066406 50.53125 C 31.484375 49.699219 32.316406 50.695312 33.066406 50.445312 L 34.890625 50.28125 L 35.640625 48.203125 C 29.738281 48.703125 24.585938 53.105469 22.59375 58.679688 C 21.011719 64 21.511719 69.984375 21.511719 75.722656 C 20.929688 76.222656 19.933594 75.722656 19.183594 76.140625 C 19.683594 76.800781 19.683594 78.050781 19.351562 78.714844 C 20.59375 79.878906 20.761719 81.960938 22.507812 82.453125 C 22.425781 83.121094 21.511719 83.203125 21.011719 83.535156 C 20.511719 85.035156 19.851562 86.449219 19.019531 87.863281 C 19.351562 88.359375 19.601562 88.941406 19.351562 89.605469 C 19.101562 90.105469 18.601562 90.191406 18.101562 90.355469 C 17.523438 90.441406 16.855469 90.105469 16.773438 89.441406 L 17.023438 87.941406 C 15.691406 86.695312 15.109375 85.121094 14.445312 83.535156 L 14.199219 83.703125 C 14.113281 90.191406 14.03125 96.511719 14.199219 102.824219 C 15.03125 103.574219 15.691406 104.324219 15.359375 105.488281 C 15.609375 106.070312 16.523438 106.152344 16.605469 106.902344 C 15.441406 106.902344 14.53125 107.652344 14.03125 108.5625 C 12.121094 112.804688 16.773438 118.125 12.617188 121.53125 L 11.453125 122.363281 C 11.621094 122.699219 12.121094 122.363281 12.371094 122.613281 L 12.449219 123.863281 C 13.117188 124.28125 13.863281 124.941406 14.03125 125.691406 C 14.199219 126.523438 13.863281 127.269531 13.28125 127.769531 C 12.449219 128.101562 12.867188 129.183594 12.699219 129.929688 L 12.449219 130.097656 L 5.304688 130.097656 L 5.136719 128.183594 C 4.386719 127.769531 3.640625 126.941406 3.640625 126.023438 C 3.558594 125.109375 4.308594 124.527344 4.96875 124.113281 C 5.136719 123.53125 4.71875 122.449219 5.554688 122.363281 C 3.890625 121.371094 2.726562 119.539062 2.894531 117.460938 C 3.390625 114.050781 5.304688 109.394531 1.398438 107.234375 C 0.984375 107.066406 1.316406 106.652344 1.398438 106.402344 C 1.648438 105.984375 2.058594 105.734375 2.558594 105.652344 L 2.644531 104.242188 L 3.476562 102.660156 L 3.476562 56.851562 L 3.390625 22.675781 C 1.476562 20.351562 0.648438 17.355469 0.984375 14.195312 C 1.398438 13.28125 1.316406 12.203125 1.976562 11.453125 C 1.066406 8.875 1.066406 5.546875 1.398438 2.722656 C 3.476562 1.722656 6.050781 2.390625 8.296875 2.390625 L 10.539062 2.886719 C 13.699219 0.394531 18.351562 1.476562 21.179688 3.96875 " fill-opacity="1" fill-rule="nonzero"/></g><path fill="#fcedd4" d="M 20.015625 4.214844 C 19.765625 5.050781 19.265625 4.054688 18.765625 4.136719 C 16.855469 3.304688 14.363281 3.054688 12.371094 3.722656 C 12.203125 3.636719 11.953125 3.636719 11.953125 3.472656 C 13.199219 2.472656 14.941406 2.140625 16.605469 2.554688 C 17.851562 2.804688 19.019531 3.304688 20.015625 4.214844 " fill-opacity="1" fill-rule="nonzero"/><path fill="#fcedd4" d="M 14.363281 7.542969 C 15.441406 8.957031 15.359375 10.535156 15.609375 12.203125 L 15.441406 12.613281 L 15.109375 12.367188 C 14.613281 9.707031 13.863281 6.714844 11.121094 5.382812 C 9.210938 4.054688 6.800781 4.214844 4.636719 3.886719 C 3.890625 4.054688 2.726562 3.636719 2.558594 4.714844 C 2.226562 8.625 3.890625 12.78125 7.628906 14.863281 C 8.710938 15.773438 10.371094 15.363281 11.539062 16.023438 L 11.207031 16.273438 C 8.796875 16.441406 6.46875 15.691406 4.886719 13.945312 C 2.144531 11.203125 1.726562 7.042969 2.394531 3.472656 C 6.800781 2.472656 11.871094 3.304688 14.363281 7.542969 " fill-opacity="1" fill-rule="nonzero"/><path fill="#fcedd4" d="M 117.507812 4.632812 C 118.917969 4.714844 120.75 5.050781 121.167969 6.628906 C 120.335938 7.125 119.007812 7.625 118.757812 8.792969 C 119.007812 10.035156 120.417969 10.871094 121.25 11.453125 C 118.589844 15.613281 113.515625 11.617188 109.863281 13.53125 L 108.035156 14.28125 C 107.867188 13.945312 107.953125 13.695312 108.117188 13.445312 C 108.53125 13.199219 109.28125 13.53125 109.445312 12.945312 C 109.445312 12.535156 108.863281 12.203125 109.195312 11.785156 C 110.113281 11.867188 110.945312 13.363281 111.855469 12.535156 C 111.441406 11.703125 109.945312 11.535156 110.027344 10.453125 C 111.773438 9.875 112.523438 12.863281 114.433594 12.117188 C 114.265625 11.285156 113.105469 11.121094 112.6875 10.453125 C 112.605469 10.289062 112.355469 10.121094 112.4375 9.875 C 114.265625 11.203125 116.175781 12.367188 118.421875 12.613281 C 118.675781 12.535156 118.917969 12.535156 119.085938 12.203125 C 118.839844 11.535156 117.757812 11.953125 117.175781 11.453125 C 116.015625 11.121094 114.765625 10.453125 114.097656 9.375 C 115.429688 8.457031 115.515625 10.453125 116.675781 10.371094 C 117.425781 10.371094 118.089844 10.035156 118.339844 9.292969 C 118.339844 8.625 118.257812 8.125 117.839844 7.625 C 117.425781 7.292969 116.84375 7.042969 116.347656 7.292969 C 115.429688 7.625 115.265625 8.792969 114.015625 8.375 C 114.765625 6.628906 116.84375 6.382812 118.589844 5.964844 C 118.675781 5.796875 119.007812 5.632812 118.757812 5.382812 C 116.175781 4.882812 113.933594 6.382812 112.1875 8.457031 C 111.941406 8.375 111.773438 8.210938 111.605469 8.042969 C 111.855469 6.714844 113.4375 6.964844 113.933594 5.964844 C 114.015625 5.546875 113.515625 5.546875 113.1875 5.546875 C 112.105469 6.046875 111.105469 6.796875 110.363281 7.792969 C 110.113281 7.960938 109.695312 7.960938 109.613281 7.542969 C 109.53125 6.628906 110.613281 6.382812 111.191406 5.964844 C 111.191406 5.714844 111.023438 5.546875 110.863281 5.382812 C 110.113281 5.546875 109.445312 5.796875 108.863281 6.296875 C 108.695312 6.214844 108.453125 6.132812 108.453125 5.964844 L 109.28125 4.800781 C 108.78125 4.214844 107.785156 4.714844 107.453125 3.804688 C 107.367188 3.554688 107.367188 3.222656 107.535156 3.054688 C 110.027344 6.046875 114.347656 5.382812 117.507812 4.632812 " fill-opacity="1" fill-rule="nonzero"/><path fill="#fcedd4" d="M 106.703125 4.464844 C 106.785156 4.964844 106.285156 5.050781 105.953125 5.214844 C 105.542969 5.214844 105.207031 4.964844 105.125 4.550781 C 105.125 4.214844 105.375 3.96875 105.792969 3.804688 C 106.203125 3.722656 106.535156 4.136719 106.703125 4.464844 " fill-opacity="1" fill-rule="nonzero"/><path fill="#fcedd4" d="M 103.628906 4.964844 L 104.792969 5.964844 L 104.210938 5.964844 C 104.210938 5.964844 20.511719 5.964844 20.511719 6.046875 C 20.34375 5.546875 20.761719 5.214844 21.09375 4.964844 L 103.628906 4.964844 " fill-opacity="1" fill-rule="nonzero"/><path fill="#fcedd4" d="M 5.96875 6.464844 C 6.46875 6.132812 5.800781 5.796875 5.96875 5.382812 C 6.21875 6.046875 6.46875 6.882812 7.128906 7.292969 C 7.464844 7.375 7.710938 7.042969 7.710938 6.796875 C 7.960938 7.214844 8.046875 8.042969 8.710938 8.125 L 9.128906 7.875 C 9.378906 8.125 9.292969 8.625 9.710938 8.710938 C 9.957031 8.792969 10.125 8.542969 10.207031 8.375 L 10.207031 8.210938 C 10.957031 8.625 10.371094 10.535156 11.703125 9.953125 C 11.871094 10.289062 12.039062 10.703125 12.449219 10.703125 C 12.699219 10.785156 12.867188 10.453125 12.949219 10.203125 C 12.78125 9.625 12.203125 8.792969 12.617188 8.375 C 13.53125 9.207031 13.699219 10.703125 13.863281 11.953125 L 13.699219 12.117188 C 12.699219 11.867188 11.621094 11.371094 10.621094 11.535156 C 10.539062 12.453125 10.871094 13.53125 10.871094 14.445312 C 9.628906 14.445312 8.296875 14.03125 7.378906 13.28125 C 7.796875 12.367188 9.710938 13.695312 9.460938 12.367188 L 9.042969 12.035156 C 8.128906 12.117188 7.046875 11.867188 6.21875 12.117188 C 5.96875 11.953125 6.300781 11.703125 6.386719 11.617188 C 7.046875 11.285156 7.878906 12.035156 8.378906 11.371094 C 8.460938 10.953125 7.546875 10.953125 7.960938 10.453125 C 7.378906 9.625 6.21875 9.542969 5.136719 9.457031 C 4.96875 9.457031 4.636719 9.625 4.46875 9.457031 L 4.386719 9.292969 C 5.304688 8.875 6.632812 10.121094 7.378906 9.125 C 6.550781 8.375 5.304688 8.457031 4.226562 8.210938 C 4.636719 7.792969 5.386719 8.292969 5.886719 8.375 C 6.21875 8.292969 6.46875 8.210938 6.632812 7.875 C 6.300781 6.796875 2.894531 7.792969 4.71875 6.214844 C 4.636719 5.796875 3.890625 5.714844 4.058594 5.214844 C 4.308594 5.132812 4.554688 4.964844 4.71875 5.296875 C 4.886719 5.796875 5.304688 6.796875 5.96875 6.464844 " fill-opacity="1" fill-rule="nonzero"/><path fill="#fcedd4" d="M 15.359375 7.214844 C 14.941406 6.464844 13.949219 5.882812 13.699219 5.132812 C 14.53125 5.632812 14.941406 6.464844 15.359375 7.214844 " fill-opacity="1" fill-rule="nonzero"/><path fill="#fcedd4" d="M 15.941406 6.046875 C 15.773438 5.964844 15.441406 5.546875 15.359375 5.214844 L 15.941406 6.046875 " fill-opacity="1" fill-rule="nonzero"/><path fill="#fcedd4" d="M 126.902344 5.546875 L 127.316406 12.117188 C 127.148438 12.453125 126.980469 12.78125 126.652344 12.863281 C 126.238281 12.535156 125.570312 12.863281 125.402344 12.117188 C 125.320312 9.707031 125.070312 7.460938 125.402344 5.132812 C 125.820312 4.464844 126.820312 4.882812 126.902344 5.546875 " fill-opacity="1" fill-rule="nonzero"/><path fill="#fcedd4" d="M 19.101562 5.632812 C 17.683594 8.210938 20.183594 11.285156 17.933594 13.363281 C 15.773438 13.695312 17.105469 11.121094 16.441406 10.121094 L 16.109375 8.875 C 16.359375 8.957031 16.605469 9.792969 17.191406 9.457031 C 17.601562 8.292969 16.523438 7.625 16.191406 6.628906 C 16.855469 7.214844 16.855469 8.457031 17.769531 8.710938 C 18.351562 8.292969 17.683594 7.710938 17.769531 7.042969 C 17.933594 7.214844 18.183594 7.375 18.433594 7.125 C 18.519531 6.464844 17.933594 5.882812 18.351562 5.296875 C 18.683594 5.214844 18.933594 5.464844 19.101562 5.632812 " fill-opacity="1" fill-rule="nonzero"/><path fill="#fcedd4" d="M 17.355469 6.132812 L 16.941406 5.382812 L 17.355469 6.046875 Z M 17.355469 6.132812 " fill-opacity="1" fill-rule="nonzero"/><path fill="#fcedd4" d="M 7.710938 6.714844 C 7.464844 6.382812 7.128906 6.132812 7.214844 5.632812 C 7.378906 5.964844 7.628906 6.296875 7.710938 6.714844 " fill-opacity="1" fill-rule="nonzero"/><path fill="#fcedd4" d="M 8.628906 6.628906 C 8.628906 6.382812 8.210938 6.132812 8.460938 5.882812 L 8.628906 6.628906 " fill-opacity="1" fill-rule="nonzero"/><path fill="#fcedd4" d="M 15.941406 6.214844 L 16.023438 6.132812 L 16.109375 6.296875 L 15.941406 6.214844 " fill-opacity="1" fill-rule="nonzero"/><path fill="#fcedd4" d="M 124.160156 6.132812 C 124.320312 7.875 124.238281 9.542969 124.238281 11.285156 L 124.160156 11.371094 C 123.328125 9.875 123.742188 7.792969 123.578125 6.046875 L 123.828125 5.714844 L 124.160156 6.132812 " fill-opacity="1" fill-rule="nonzero"/><path fill="#fcedd4" d="M 128.644531 11.035156 L 128.480469 11.285156 L 128.148438 10.953125 L 128.0625 6.464844 L 128.3125 6.132812 L 128.5625 6.464844 L 128.644531 11.035156 " fill-opacity="1" fill-rule="nonzero"/><path fill="#fcedd4" d="M 107.617188 6.546875 C 106.371094 7.542969 104.542969 7.875 103.378906 9.042969 C 104.125 10.289062 105.703125 10.453125 106.953125 11.121094 C 107.203125 11.035156 107.285156 11.285156 107.535156 11.371094 C 105.871094 11.035156 103.960938 10.289062 102.550781 9.042969 C 103.878906 7.710938 105.625 7.042969 107.285156 6.296875 C 107.453125 6.214844 107.535156 6.464844 107.617188 6.546875 " fill-opacity="1" fill-rule="nonzero"/><path fill="#fcedd4" d="M 11.371094 8.125 C 11.121094 7.875 10.957031 7.375 11.121094 7.042969 C 11.289062 7.292969 11.453125 7.710938 11.371094 8.125 " fill-opacity="1" fill-rule="nonzero"/><path fill="#fcedd4" d="M 101.132812 6.964844 L 102.464844 7.375 L 101.964844 7.792969 C 83.765625 7.875 20.183594 7.792969 20.183594 7.792969 C 19.851562 7.792969 19.933594 7.125 20.101562 7.042969 C 19.933594 6.964844 101.132812 6.964844 101.132812 6.964844 " fill-opacity="1" fill-rule="nonzero"/><path fill="#fcedd4" d="M 15.941406 8.375 L 15.609375 7.710938 L 15.941406 8.210938 Z M 15.941406 8.375 " fill-opacity="1" fill-rule="nonzero"/><path fill="#fcedd4" d="M 122.660156 10.289062 C 122.078125 10.453125 121.332031 10.289062 120.835938 9.953125 C 120.5 9.542969 119.835938 9.375 119.917969 8.710938 C 120.667969 7.875 121.578125 7.542969 122.578125 7.460938 L 122.660156 10.289062 " fill-opacity="1" fill-rule="nonzero"/><path fill="#fcedd4" d="M 109.195312 8.457031 C 109.695312 9.042969 110.527344 8.625 111.105469 9.207031 C 110.863281 9.542969 110.363281 9.042969 110.113281 9.375 C 109.53125 9.542969 109.113281 10.035156 108.695312 10.535156 C 107.367188 10.289062 106.121094 9.875 105.042969 9.125 C 105.953125 8.210938 107.367188 8.042969 108.613281 7.710938 L 109.195312 8.457031 " fill-opacity="1" fill-rule="nonzero"/><path fill="#fcedd4" d="M 58.996094 9.875 C 60.078125 11.203125 59.328125 12.863281 58.828125 14.195312 C 58.914062 14.53125 59.246094 14.53125 59.496094 14.363281 C 60.488281 12.863281 60.738281 10.871094 62.652344 10.121094 C 64.398438 9.125 66.726562 9.375 68.300781 10.371094 C 69.300781 11.035156 69.300781 12.285156 69.050781 13.28125 C 68.636719 14.113281 67.722656 14.363281 66.890625 14.363281 C 66.476562 14.195312 65.808594 14.113281 65.558594 13.613281 C 65.558594 13.199219 65.3125 12.703125 65.726562 12.367188 C 66.226562 12.203125 66.808594 11.703125 67.308594 12.203125 C 68.058594 12.453125 67.226562 13.695312 68.21875 13.53125 C 68.636719 13.113281 68.800781 12.367188 68.46875 11.867188 C 68.390625 11.285156 67.722656 11.121094 67.308594 10.871094 C 62.988281 10.871094 60.738281 15.773438 56.585938 16.105469 C 51.183594 16.691406 47.273438 12.945312 43.039062 10.289062 C 42.371094 10.121094 41.621094 9.625 40.878906 9.953125 C 40.628906 10.289062 41.042969 10.621094 41.292969 10.703125 C 42.871094 10.871094 43.953125 12.285156 45.113281 13.28125 C 47.113281 15.113281 47.523438 17.9375 47.273438 20.433594 C 46.613281 23.261719 44.371094 25.421875 42.871094 27.832031 C 41.460938 30.074219 38.96875 32.234375 39.710938 35.230469 C 40.128906 35.980469 40.878906 36.5625 41.789062 36.480469 C 42.207031 36.480469 42.621094 36.144531 42.789062 35.730469 C 42.703125 34.566406 41.210938 35.894531 41.042969 34.652344 C 40.960938 34.152344 41.210938 33.734375 41.621094 33.484375 C 42.457031 33.320312 43.039062 33.820312 43.371094 34.402344 C 43.453125 35.230469 43.371094 36.0625 42.703125 36.644531 C 41.957031 37.0625 41.125 37.476562 40.210938 37.144531 C 39.128906 36.644531 38.300781 35.8125 37.71875 34.734375 C 37.550781 33.734375 37.46875 32.402344 38.382812 31.65625 C 38.632812 31.574219 38.878906 31.40625 38.96875 31.15625 C 39.050781 30.742188 38.550781 30.492188 38.300781 30.492188 C 38.050781 30.492188 37.71875 30.492188 37.636719 30.160156 C 38.132812 28.582031 39.960938 28.582031 41.210938 27.75 C 41.460938 27.082031 42.457031 26.664062 42.289062 25.835938 C 43.289062 25.503906 44.371094 25.003906 44.617188 23.921875 L 44.78125 22.675781 C 45.613281 22.34375 46.195312 21.679688 46.363281 20.765625 C 46.445312 20.015625 46.28125 19.351562 45.78125 18.851562 C 45.53125 18.683594 45.113281 18.683594 44.867188 18.851562 C 44.53125 19.601562 45.863281 20.101562 45.28125 21.015625 C 44.867188 22.09375 43.203125 20.765625 43.453125 22.34375 C 43.371094 22.34375 43.121094 21.84375 42.789062 22.09375 C 42.289062 22.34375 42.621094 23.011719 42.121094 23.261719 C 41.710938 23.261719 41.710938 22.761719 41.710938 22.511719 C 41.710938 21.925781 42.703125 21.34375 41.871094 20.933594 C 41.292969 20.933594 40.960938 21.511719 40.710938 22.011719 C 40.542969 22.675781 40.792969 23.425781 41.042969 24.003906 C 41.460938 24.421875 42.039062 24.503906 42.539062 24.339844 C 43.203125 24.003906 43.453125 23.261719 43.539062 22.511719 C 43.953125 23.011719 43.703125 23.753906 43.453125 24.171875 C 42.789062 25.003906 41.378906 24.421875 41.125 25.671875 C 41.042969 26.421875 40.210938 26.832031 39.628906 27.082031 C 39.210938 27.25 38.632812 27.082031 38.132812 27 C 37.71875 26.753906 37.46875 25.835938 36.886719 26.335938 C 36.636719 27.082031 35.972656 27.5 35.390625 27.75 C 34.558594 27.914062 33.808594 27.832031 33.148438 27.5 C 32.148438 26.832031 32.148438 25.753906 32.398438 24.835938 C 32.648438 24.589844 32.816406 24.253906 32.566406 24.003906 C 32.148438 23.425781 31.484375 23.921875 30.988281 23.59375 C 30.070312 22.925781 29.324219 21.925781 29.65625 20.765625 C 29.824219 20.183594 30.238281 19.601562 30.816406 19.351562 C 31.316406 19.351562 31.898438 19.351562 32.148438 18.851562 C 31.734375 18.105469 31.316406 17.191406 31.816406 16.355469 C 31.898438 15.363281 32.898438 14.863281 33.648438 14.53125 C 34.644531 14.363281 35.640625 14.695312 36.308594 15.363281 C 36.886719 14.777344 36.96875 13.695312 37.96875 13.53125 C 39.128906 13.445312 40.292969 13.78125 40.960938 14.863281 C 41.125 15.195312 40.960938 15.613281 40.878906 15.941406 C 39.796875 15.691406 38.71875 16.355469 38.382812 17.355469 C 38.132812 18.105469 38.300781 18.933594 38.800781 19.601562 C 39.128906 20.433594 40.210938 20.433594 40.878906 20.265625 C 42.207031 20.101562 43.039062 18.933594 43.371094 17.773438 C 43.539062 15.941406 43.039062 13.78125 41.125 12.78125 C 39.378906 11.203125 37.050781 11.453125 34.726562 11.703125 L 31.816406 13.03125 C 28.246094 15.691406 26.914062 19.851562 28.15625 24.089844 C 28.742188 26.167969 29.988281 28.082031 31.316406 29.824219 C 31.066406 30.824219 30.15625 31.742188 29.238281 32.234375 C 28.40625 31.742188 27.578125 30.824219 26.746094 30.242188 C 24.085938 27.832031 19.433594 27.664062 16.441406 29.332031 C 13.28125 31.074219 11.289062 34.484375 11.703125 38.054688 C 12.121094 39.972656 13.199219 41.800781 14.941406 42.882812 C 15.859375 43.382812 17.105469 43.382812 17.933594 42.964844 C 18.601562 42.632812 19.433594 41.964844 19.683594 41.214844 C 20.015625 40.554688 19.851562 39.640625 19.433594 39.054688 C 18.933594 38.472656 18.351562 38.222656 17.683594 38.390625 C 16.941406 38.554688 16.273438 38.972656 15.859375 39.640625 C 15.691406 39.972656 15.773438 40.386719 15.441406 40.554688 C 14.863281 40.304688 14.113281 40.222656 13.78125 39.554688 C 13.53125 39.054688 13.53125 38.304688 13.78125 37.8125 C 13.949219 37.144531 15.191406 36.8125 14.613281 36.0625 C 13.78125 35.730469 13.78125 34.816406 13.949219 34.066406 C 14.363281 32.984375 15.441406 32.324219 16.523438 32.324219 C 17.523438 32.152344 18.101562 33.820312 18.851562 32.984375 C 18.351562 31.90625 19.019531 31.074219 19.683594 30.324219 C 20.433594 29.574219 21.59375 29.492188 22.425781 30.074219 C 23.421875 30.660156 23.671875 31.824219 23.585938 32.820312 C 24.171875 33.484375 24.917969 32.734375 25.664062 32.902344 C 26.414062 33.152344 27.164062 33.570312 27.414062 34.402344 C 27.828125 35.144531 27.414062 35.980469 27.246094 36.730469 C 26.828125 37.3125 25.746094 37.394531 26.082031 38.222656 C 26.582031 38.640625 27.414062 39.054688 27.246094 39.972656 C 27.246094 40.632812 26.996094 41.300781 26.496094 41.800781 C 25.996094 42.550781 24.753906 41.800781 24.503906 42.796875 C 24.585938 43.632812 24.171875 44.375 23.585938 44.875 C 23.003906 45.207031 22.09375 45.207031 21.425781 45.042969 C 21.011719 45.542969 20.59375 46.042969 19.851562 46.042969 C 19.101562 46.203125 18.519531 43.960938 18.183594 45.625 C 18.269531 46.125 18.765625 46.621094 19.183594 46.789062 C 20.34375 47.371094 21.34375 46.621094 22.261719 46.042969 C 23.339844 46.203125 24.171875 45.457031 24.835938 44.710938 L 25.585938 43.460938 C 26.496094 43.046875 27.664062 42.382812 28.078125 41.300781 C 28.742188 40.136719 28.15625 37.890625 29.988281 37.722656 C 30.488281 38.140625 29.824219 39.140625 30.738281 39.222656 C 31.816406 38.722656 33.148438 38.390625 34.394531 38.722656 C 35.308594 39.472656 36.558594 40.222656 36.636719 41.550781 C 36.558594 42.464844 36.386719 43.542969 35.390625 43.960938 C 34.808594 44.125 34.144531 44.125 33.808594 43.542969 C 33.566406 43.214844 33.398438 42.714844 33.648438 42.296875 C 34.226562 40.964844 36.140625 43.460938 35.476562 41.300781 C 35.058594 40.554688 34.308594 40.222656 33.480469 40.222656 C 28.15625 40.964844 25.585938 47.535156 20.101562 47.953125 C 17.105469 48.035156 13.949219 47.121094 12.371094 44.292969 C 11.871094 43.132812 11.371094 42.050781 11.289062 40.882812 C 11.121094 40.632812 10.789062 40.554688 10.539062 40.722656 C 10.039062 41.882812 10.789062 42.964844 11.121094 44.042969 C 12.371094 46.953125 14.363281 49.699219 15.859375 52.609375 C 16.691406 54.683594 16.773438 58.011719 15.523438 60.011719 L 15.277344 60.753906 C 13.53125 62.832031 10.371094 65.082031 11.621094 68.242188 C 11.871094 68.734375 12.449219 68.902344 12.867188 69.070312 C 13.53125 68.988281 14.53125 68.820312 14.53125 67.992188 C 14.199219 66.992188 13.367188 68.242188 12.867188 67.574219 C 12.617188 67.160156 12.449219 66.660156 12.699219 66.160156 C 12.949219 65.582031 13.699219 65.742188 14.113281 65.832031 C 14.695312 66.242188 15.109375 66.742188 15.109375 67.40625 C 15.277344 68.492188 14.53125 69.402344 13.53125 69.734375 C 12.289062 70.070312 11.121094 69.484375 10.207031 68.734375 C 9.628906 67.90625 9.378906 66.910156 9.460938 65.992188 C 9.871094 63.914062 11.703125 62.253906 13.449219 61.171875 C 13.53125 61.003906 13.613281 60.671875 13.367188 60.589844 C 12.53125 60.839844 11.371094 61.089844 10.539062 60.589844 C 9.292969 59.84375 8.878906 58.425781 8.960938 57.015625 C 9.128906 54.273438 11.621094 52.523438 11.371094 49.699219 C 12.949219 51.523438 13.613281 53.773438 13.949219 56.101562 C 13.199219 55.769531 12.121094 55.515625 11.371094 56.101562 C 10.621094 56.683594 10.457031 57.761719 10.871094 58.59375 C 11.207031 59.261719 11.871094 59.761719 12.53125 60.011719 C 13.53125 60.171875 14.28125 59.59375 14.863281 58.84375 C 16.605469 55.933594 14.695312 52.609375 13.367188 49.863281 C 10.707031 46.292969 8.960938 41.882812 9.042969 37.226562 C 9.539062 34.566406 10.125 31.984375 12.449219 30.160156 L 14.78125 28.746094 C 14.695312 27.5 13.28125 28.582031 12.53125 28.246094 C 10.871094 28.164062 9.628906 26.585938 9.210938 25.171875 C 8.878906 24.089844 8.878906 22.925781 9.539062 22.09375 C 10.207031 20.84375 11.453125 20.433594 12.699219 20.183594 C 13.699219 20.183594 14.613281 20.601562 15.359375 21.34375 C 15.773438 22.09375 15.859375 23.09375 15.691406 23.921875 C 15.441406 24.171875 15.359375 24.589844 14.941406 24.753906 C 14.941406 24.089844 15.03125 23.011719 14.199219 22.511719 C 13.699219 22.09375 12.949219 22.261719 12.371094 22.511719 C 11.703125 22.84375 11.371094 23.59375 11.453125 24.339844 C 11.453125 25.085938 12.039062 25.671875 12.53125 26.167969 C 15.941406 27.832031 20.101562 25.921875 23.503906 27.25 C 25.503906 28.164062 27.328125 29.414062 29.074219 30.742188 C 29.488281 30.742188 29.824219 30.410156 29.988281 30.074219 C 27.746094 27.082031 26.664062 23.59375 26.332031 19.851562 C 25.914062 17.273438 27.246094 13.199219 23.835938 12.117188 C 23.09375 12.035156 22.425781 12.285156 21.925781 12.78125 C 21.425781 13.28125 21.179688 14.113281 21.511719 14.777344 C 21.675781 15.445312 22.34375 15.773438 23.003906 15.773438 C 23.585938 15.855469 24.003906 15.277344 24.421875 15.277344 C 24.503906 15.855469 24.085938 16.441406 23.503906 16.691406 C 22.675781 17.105469 21.84375 16.773438 21.09375 16.523438 C 20.261719 16.023438 19.765625 15.195312 19.601562 14.363281 C 19.351562 12.613281 20.261719 10.871094 21.84375 10.035156 C 23.253906 9.457031 25.003906 9.457031 26.332031 10.203125 C 27.078125 10.785156 27.664062 11.535156 27.910156 12.367188 C 28.15625 13.445312 27.578125 14.445312 27.328125 15.523438 C 27.414062 15.691406 27.578125 16.023438 27.828125 15.941406 C 28.90625 15.363281 28.574219 13.863281 29.40625 13.03125 C 32.148438 9.792969 36.386719 8.542969 40.542969 9.207031 C 43.453125 10.035156 46.113281 11.203125 48.691406 12.703125 C 51.265625 14.113281 53.925781 16.023438 57.167969 15.027344 C 57.835938 14.363281 58.746094 13.613281 58.578125 12.535156 C 58.578125 11.785156 58.328125 11.121094 57.585938 10.871094 C 56.835938 10.535156 55.835938 10.785156 55.253906 11.371094 C 54.675781 11.785156 54.675781 12.613281 54.84375 13.28125 C 54.925781 13.445312 55.085938 13.613281 55.003906 13.863281 C 52.59375 13.945312 50.683594 12.367188 48.773438 11.285156 C 51.597656 11.535156 53.507812 9.125 56.253906 8.792969 C 57.417969 8.625 58.246094 9.292969 58.996094 9.875 " fill-opacity="1" fill-rule="nonzero"/><path fill="#fcedd4" d="M 101.550781 9.707031 C 101.882812 9.792969 102.132812 10.035156 102.300781 10.289062 L 95.816406 10.453125 L 74.785156 10.371094 L 71.710938 10.453125 L 71.460938 10.871094 L 71.378906 16.355469 L 71.210938 16.605469 C 62.820312 16.523438 54.59375 17.273438 48.855469 23.425781 C 46.195312 26.167969 44.867188 29.492188 43.621094 32.902344 C 42.953125 32.234375 43.539062 31.074219 43.703125 30.324219 C 45.449219 24.589844 50.683594 19.015625 56.585938 17.441406 C 59.160156 16.855469 61.65625 16.023438 64.480469 15.941406 L 70.050781 15.613281 L 70.382812 15.113281 L 70.464844 9.625 L 101.550781 9.707031 " fill-opacity="1" fill-rule="nonzero"/><path fill="#fcedd4" d="M 6.46875 10.453125 C 6.300781 10.785156 5.554688 10.703125 5.21875 10.621094 C 5.46875 10.203125 6.050781 10.453125 6.46875 10.453125 " fill-opacity="1" fill-rule="nonzero"/><path fill="#fcedd4" d="M 105.125 11.867188 L 104.375 12.863281 L 101.550781 12.945312 L 74.453125 12.945312 L 74.203125 13.28125 L 73.960938 19.433594 C 65.398438 19.683594 56.003906 19.101562 50.433594 26.421875 C 46.941406 30.410156 46.113281 35.644531 45.699219 40.632812 C 45.199219 40.722656 44.53125 40.722656 44.28125 40.304688 C 43.621094 35.144531 45.363281 29.992188 48.191406 25.753906 C 52.679688 19.933594 59.160156 17.523438 66.308594 17.605469 C 68.21875 17.605469 70.132812 17.441406 71.960938 17.773438 L 72.210938 17.605469 L 72.460938 11.371094 L 72.710938 11.285156 L 104.292969 11.453125 L 105.125 11.867188 " fill-opacity="1" fill-rule="nonzero"/><path fill="#fcedd4" d="M 2.394531 14.613281 C 2.144531 16.691406 2.558594 18.933594 3.726562 20.683594 C 3.640625 20.765625 3.640625 20.933594 3.476562 20.933594 C 1.726562 18.933594 1.476562 15.941406 2.226562 13.363281 L 2.558594 12.613281 C 2.976562 13.199219 2.394531 13.945312 2.394531 14.613281 " fill-opacity="1" fill-rule="nonzero"/><path fill="#fcedd4" d="M 16.773438 14.613281 C 16.441406 14.445312 15.941406 14.195312 15.691406 14.613281 C 15.523438 14.695312 15.359375 15.027344 15.609375 15.195312 C 16.523438 15.691406 17.601562 16.441406 18.101562 17.355469 C 18.269531 17.9375 17.683594 18.523438 17.273438 18.683594 C 15.859375 18.765625 15.191406 17.273438 14.363281 16.441406 C 14.113281 16.355469 13.699219 16.605469 13.699219 16.941406 C 14.28125 18.273438 15.191406 19.933594 16.773438 20.351562 C 17.523438 20.601562 18.269531 20.265625 18.933594 20.101562 C 19.765625 19.515625 19.515625 18.523438 19.601562 17.6875 C 19.019531 16.523438 18.019531 15.523438 16.941406 14.695312 C 18.269531 15.195312 19.851562 16.605469 20.101562 18.183594 C 20.433594 18.765625 19.683594 19.851562 20.511719 20.351562 C 21.34375 20.183594 22.011719 19.351562 23.003906 19.601562 C 25.664062 20.601562 25.003906 23.675781 26.164062 25.753906 L 27.328125 27.996094 C 25.167969 26.664062 22.84375 25.753906 20.433594 25.003906 C 19.765625 24.671875 19.019531 24.089844 18.933594 23.261719 C 18.601562 22.425781 20.183594 21.511719 18.933594 21.015625 C 17.105469 21.925781 15.691406 19.765625 14.445312 18.765625 C 13.03125 17.023438 12.289062 15.027344 11.789062 12.945312 L 11.871094 12.78125 C 13.613281 13.113281 15.441406 13.53125 16.773438 14.613281 " fill-opacity="1" fill-rule="nonzero"/><path fill="#fcedd4" d="M 106.871094 13.199219 C 106.871094 13.53125 106.535156 13.945312 106.121094 14.03125 C 105.871094 13.945312 105.375 13.863281 105.375 13.445312 C 105.292969 13.03125 105.703125 12.78125 105.953125 12.703125 C 106.371094 12.535156 106.621094 12.945312 106.871094 13.199219 " fill-opacity="1" fill-rule="nonzero"/><path fill="#fcedd4" d="M 80.273438 13.945312 C 79.691406 14.695312 78.695312 14.945312 78.03125 15.613281 C 77.445312 15.195312 76.613281 15.027344 75.953125 15.363281 C 75.785156 15.523438 75.621094 15.773438 75.285156 15.773438 C 75.285156 15.113281 75.121094 14.195312 75.703125 13.863281 L 80.273438 13.945312 " fill-opacity="1" fill-rule="nonzero"/><path fill="#fcedd4" d="M 82.015625 15.195312 C 81.4375 16.105469 80.523438 16.691406 79.523438 16.773438 C 79.359375 16.941406 79.441406 17.191406 79.691406 17.273438 C 80.605469 17.855469 82.015625 18.351562 82.015625 19.683594 C 82.015625 19.765625 82.015625 19.851562 82.015625 19.933594 C 81.105469 19.265625 79.855469 19.101562 78.945312 18.351562 C 78.363281 17.9375 78.363281 17.273438 78.613281 16.605469 C 79.523438 15.445312 80.855469 15.277344 81.851562 14.113281 C 82.183594 14.363281 82.183594 14.863281 82.015625 15.195312 " fill-opacity="1" fill-rule="nonzero"/><path fill="#fcedd4" d="M 5.554688 15.855469 C 5.136719 15.941406 4.554688 15.277344 4.058594 15.027344 L 3.976562 14.53125 C 4.554688 14.777344 5.054688 15.445312 5.554688 15.855469 " fill-opacity="1" fill-rule="nonzero"/><path fill="#fcedd4" d="M 50.851562 18.183594 C 50.019531 18.351562 49.023438 18.023438 48.441406 17.441406 C 47.941406 16.441406 47.609375 15.445312 47.359375 14.445312 C 48.523438 15.691406 51.765625 15.613281 50.851562 18.183594 " fill-opacity="1" fill-rule="nonzero"/><path fill="#2f5982" d="M 39.210938 15.277344 C 39.296875 16.273438 38.132812 16.023438 37.882812 16.855469 C 37.46875 17.605469 37.050781 18.601562 37.636719 19.351562 C 37.882812 19.515625 38.132812 19.851562 38.050781 20.101562 C 37.636719 20.265625 37.136719 20.265625 36.800781 19.933594 C 36.308594 18.523438 35.726562 16.441406 37.136719 15.113281 C 37.636719 14.363281 38.878906 14.53125 39.210938 15.277344 " fill-opacity="1" fill-rule="nonzero"/><path fill="#2f5982" d="M 35.640625 16.605469 L 35.640625 17.273438 C 34.644531 17.6875 34.394531 15.445312 33.648438 16.855469 C 33.648438 18.351562 35.726562 18.523438 35.640625 19.851562 C 34.558594 20.351562 33.726562 18.765625 33.148438 18.105469 C 32.816406 17.441406 32.484375 16.441406 33.066406 15.773438 C 33.894531 14.695312 35.390625 15.445312 35.640625 16.605469 " fill-opacity="1" fill-rule="nonzero"/><path fill="#fcedd4" d="M 85.09375 15.773438 C 85.175781 16.105469 84.84375 16.191406 84.675781 16.355469 C 84.097656 16.273438 83.683594 15.855469 83.183594 15.523438 C 83.015625 15.363281 83.183594 15.195312 83.265625 15.027344 C 83.929688 15.195312 84.59375 15.277344 85.09375 15.773438 " fill-opacity="1" fill-rule="nonzero"/><path fill="#fcedd4" d="M 6.136719 16.191406 L 5.71875 15.941406 L 5.96875 16.105469 Z M 6.136719 16.191406 " fill-opacity="1" fill-rule="nonzero"/><path fill="#fcedd4" d="M 6.71875 16.941406 L 6.632812 16.441406 C 8.378906 17.023438 10.039062 17.855469 12.121094 17.523438 C 12.449219 17.773438 12.371094 18.183594 12.203125 18.523438 C 10.539062 20.265625 7.796875 19.265625 5.636719 19.851562 C 5.304688 19.851562 4.96875 20.015625 4.71875 19.683594 C 4.71875 19.515625 4.636719 19.433594 4.636719 19.265625 C 5.636719 19.015625 6.878906 19.433594 7.710938 18.851562 C 7.710938 18.433594 8.128906 17.605469 7.378906 17.441406 C 6.050781 17.441406 4.71875 17.105469 3.726562 16.355469 L 3.890625 16.105469 C 4.886719 16.273438 5.71875 17.605469 6.71875 16.941406 " fill-opacity="1" fill-rule="nonzero"/><path fill="#fcedd4" d="M 77.53125 16.941406 C 77.445312 17.355469 77.199219 17.773438 76.699219 17.605469 C 76.363281 17.6875 76.203125 17.355469 76.035156 17.191406 C 76.035156 16.773438 76.203125 16.355469 76.53125 16.105469 C 77.03125 16.105469 77.53125 16.355469 77.53125 16.941406 " fill-opacity="1" fill-rule="nonzero"/><path fill="#fcedd4" d="M 87.253906 17.023438 C 87.085938 17.441406 86.589844 17.6875 86.175781 17.773438 C 85.757812 17.855469 85.59375 17.441406 85.425781 17.273438 L 86.175781 16.273438 C 86.589844 16.441406 87.007812 16.605469 87.253906 17.023438 " fill-opacity="1" fill-rule="nonzero"/><path fill="#fcedd4" d="M 83.683594 17.191406 C 83.183594 17.523438 82.847656 18.105469 82.183594 17.9375 C 81.933594 17.605469 81.4375 17.355469 81.515625 16.855469 C 82.015625 16.691406 82.433594 16.023438 83.015625 16.523438 C 83.265625 16.773438 83.597656 16.941406 83.683594 17.191406 " fill-opacity="1" fill-rule="nonzero"/><path fill="#fcedd4" d="M 89.585938 16.855469 C 89.585938 17.105469 89.5 17.355469 89.25 17.355469 C 88.917969 17.441406 88.585938 17.191406 88.585938 16.855469 C 88.585938 16.691406 88.835938 16.523438 89 16.523438 C 89.25 16.523438 89.5 16.605469 89.585938 16.855469 " fill-opacity="1" fill-rule="nonzero"/><path fill="#fcedd4" d="M 5.386719 18.105469 C 5.21875 18.433594 4.636719 18.183594 4.226562 18.183594 L 3.976562 17.773438 C 4.386719 17.605469 4.96875 17.9375 5.386719 18.105469 " fill-opacity="1" fill-rule="nonzero"/><path fill="#fcedd4" d="M 84.925781 18.351562 C 84.425781 18.683594 83.765625 19.183594 83.183594 18.933594 C 83.515625 18.523438 84.515625 17.273438 84.925781 18.351562 " fill-opacity="1" fill-rule="nonzero"/><path fill="#2f5982" d="M 36.386719 21.261719 C 36.558594 21.429688 36.558594 21.761719 36.386719 21.84375 C 35.476562 22.09375 34.808594 21.09375 33.894531 21.015625 C 33.230469 21.015625 32.316406 20.601562 31.816406 21.34375 C 31.816406 21.761719 32.234375 21.84375 32.566406 22.011719 C 32.898438 22.011719 33.398438 21.84375 33.566406 22.34375 C 33.566406 22.84375 33.148438 22.925781 32.730469 23.011719 C 31.984375 23.09375 31.402344 22.675781 30.90625 22.09375 C 30.488281 21.679688 30.488281 21.015625 30.816406 20.515625 C 31.734375 19.601562 33.316406 20.015625 34.476562 20.183594 L 36.386719 21.261719 " fill-opacity="1" fill-rule="nonzero"/><path fill="#2f5982" d="M 24.003906 21.59375 C 24.335938 22.175781 24.421875 23.09375 24.085938 23.675781 C 23.671875 24.421875 23.003906 24.835938 22.175781 25.003906 C 21.425781 25.085938 20.84375 24.671875 20.261719 24.171875 C 19.933594 23.675781 19.851562 22.84375 20.101562 22.34375 C 20.261719 22.09375 20.679688 22.09375 20.929688 22.261719 C 21.261719 22.761719 20.679688 23.511719 21.425781 23.84375 C 22.175781 24.003906 22.675781 23.34375 22.925781 22.84375 C 23.003906 22.425781 23.171875 21.761719 22.59375 21.59375 C 22.261719 21.59375 21.84375 21.925781 21.59375 21.59375 C 21.34375 21.34375 21.425781 20.933594 21.761719 20.765625 C 22.59375 20.351562 23.671875 20.683594 24.003906 21.59375 " fill-opacity="1" fill-rule="nonzero"/><path fill="#fcedd4" d="M 7.710938 21.261719 L 7.796875 96.753906 C 7.464844 98.171875 8.296875 100.082031 7.128906 101.164062 L 6.96875 96.671875 L 6.96875 20.933594 C 7.214844 20.84375 7.796875 20.765625 7.710938 21.261719 " fill-opacity="1" fill-rule="nonzero"/><path fill="#fcedd4" d="M 5.800781 103.492188 L 4.636719 102.910156 C 4.71875 102.910156 4.636719 21.925781 4.636719 21.925781 L 5.71875 21.183594 C 5.71875 21.183594 5.96875 103.492188 5.800781 103.492188 " fill-opacity="1" fill-rule="nonzero"/><path fill="#2f5982" d="M 39.628906 22.425781 C 39.460938 23.34375 38.46875 24.003906 39.128906 25.085938 C 39.796875 26.167969 40.046875 23.753906 40.792969 25.171875 C 40.878906 25.835938 40.460938 26.253906 39.960938 26.503906 C 39.296875 26.753906 38.96875 26.253906 38.550781 26.003906 C 37.800781 25.253906 38.21875 24.253906 38.132812 23.425781 C 37.050781 23.511719 35.972656 23.511719 34.976562 24.003906 C 34.644531 24.421875 34.058594 24.835938 34.394531 25.503906 C 34.558594 25.835938 35.058594 25.753906 35.226562 25.585938 C 35.640625 25.421875 35.972656 24.589844 36.558594 25.003906 C 36.800781 25.335938 36.636719 25.753906 36.386719 26.003906 C 35.890625 26.421875 35.308594 27 34.558594 26.914062 C 33.894531 26.832031 33.398438 26.335938 33.230469 25.753906 C 33.066406 25.003906 33.230469 24.253906 33.726562 23.753906 C 34.808594 22.511719 36.636719 22.34375 38.050781 22.675781 L 38.21875 23.175781 C 38.382812 22.675781 39.210938 21.511719 39.628906 22.425781 " fill-opacity="1" fill-rule="nonzero"/><path fill="#2f5982" d="M 25.085938 24.003906 C 25.335938 24.753906 25.914062 25.253906 25.996094 26.003906 C 26.164062 26.335938 26.664062 26.832031 26.164062 27.082031 C 25.253906 26.421875 24.253906 26.085938 23.253906 25.671875 C 23.253906 25.171875 24.003906 25.003906 24.253906 24.503906 C 24.335938 24.171875 24.753906 23.261719 25.085938 24.003906 " fill-opacity="1" fill-rule="nonzero"/><path fill="#fcedd4" d="M 35.890625 30.160156 C 35.890625 31.074219 34.976562 31.824219 34.394531 32.324219 C 32.898438 33.652344 31.734375 35.3125 30.15625 36.3125 C 29.738281 36.3125 29.238281 36.144531 29.15625 35.644531 C 30.238281 33.484375 32.816406 31.90625 34.476562 29.824219 C 34.976562 29.332031 35.640625 29.574219 35.890625 30.160156 " fill-opacity="1" fill-rule="nonzero"/><path fill="#2f5982" d="M 22.34375 32.234375 C 22.59375 32.820312 22.675781 33.320312 22.59375 34.066406 C 22.507812 34.234375 22.34375 34.234375 22.175781 34.234375 C 21.675781 33.570312 21.925781 32.484375 21.011719 32.324219 C 20.679688 32.324219 20.511719 32.652344 20.433594 32.902344 C 20.34375 34.316406 21.425781 35.3125 22.011719 36.5625 C 22.09375 36.730469 21.84375 36.976562 21.675781 36.976562 C 20.679688 36.3125 20.101562 35.0625 19.683594 33.984375 C 19.433594 33.234375 19.351562 32.402344 19.765625 31.742188 C 20.433594 30.660156 22.011719 31.15625 22.34375 32.234375 " fill-opacity="1" fill-rule="nonzero"/><path fill="#fcedd4" d="M 35.226562 33.484375 L 32.648438 36.0625 L 32.484375 35.980469 C 33.066406 34.894531 34.308594 33.652344 35.226562 33.070312 L 35.226562 33.484375 " fill-opacity="1" fill-rule="nonzero"/><path fill="#2f5982" d="M 19.433594 35.980469 C 19.515625 36.3125 19.433594 36.5625 19.019531 36.480469 C 18.101562 35.8125 17.355469 33.984375 15.859375 34.566406 C 15.523438 34.816406 15.609375 35.144531 15.859375 35.394531 C 16.109375 35.5625 16.441406 35.8125 16.441406 36.144531 C 16.441406 36.644531 15.859375 36.644531 15.523438 36.480469 C 14.941406 35.8125 14.113281 35.144531 14.53125 34.152344 C 14.695312 33.652344 15.109375 33.402344 15.523438 33.320312 C 17.441406 33.152344 18.601562 34.652344 19.433594 35.980469 " fill-opacity="1" fill-rule="nonzero"/><path fill="#fcedd4" d="M 52.34375 35.730469 C 51.847656 35.730469 51.265625 35.480469 51.101562 34.984375 L 51.265625 33.402344 C 51.933594 33.902344 53.261719 34.734375 52.34375 35.730469 " fill-opacity="1" fill-rule="nonzero"/><path fill="#2f5982" d="M 26.164062 34.316406 C 26.582031 34.816406 26.332031 35.730469 26.164062 36.230469 C 25.996094 36.480469 25.832031 36.8125 25.585938 36.8125 C 24.835938 36.480469 26.082031 34.152344 24.421875 34.816406 C 23.339844 35.8125 23.753906 37.394531 23.671875 38.640625 C 23.585938 38.804688 23.253906 38.804688 23.09375 38.722656 C 22.675781 37.394531 22.425781 35.394531 23.503906 34.316406 C 23.835938 33.902344 24.253906 33.734375 24.667969 33.570312 C 25.253906 33.570312 25.746094 33.820312 26.164062 34.316406 " fill-opacity="1" fill-rule="nonzero"/><path fill="#fcedd4" d="M 56.585938 34.652344 C 56.835938 35.230469 56.503906 35.730469 56.003906 35.894531 C 55.671875 36.144531 55.335938 35.8125 55.335938 35.480469 C 55.421875 35.230469 55.171875 35.144531 55.085938 34.984375 C 54.007812 35.5625 53.84375 36.976562 53.925781 38.140625 C 54.257812 40.304688 53.34375 42.796875 51.347656 43.960938 C 49.683594 45.042969 47.191406 44.875 45.363281 44.210938 C 43.453125 43.292969 42.039062 41.882812 40.460938 40.386719 C 40.292969 40.304688 39.960938 40.304688 39.878906 40.632812 C 41.542969 43.542969 45.03125 45.707031 44.867188 49.363281 C 44.867188 51.113281 43.953125 52.773438 42.289062 53.441406 C 40.210938 55.101562 36.46875 53.273438 34.808594 55.601562 C 34.726562 55.851562 34.808594 56.183594 35.140625 56.101562 C 35.558594 56.183594 35.808594 55.515625 36.140625 55.851562 C 36.21875 56.351562 35.890625 57.015625 35.308594 57.183594 C 34.808594 57.261719 34.144531 57.511719 33.976562 56.765625 C 33.648438 55.769531 34.058594 54.933594 34.726562 54.1875 C 35.808594 53.355469 37.21875 53.691406 38.300781 53.191406 C 38.050781 52.441406 37.136719 52.773438 36.71875 52.191406 C 36.058594 51.277344 35.726562 49.949219 36.21875 48.953125 C 36.636719 48.203125 37.386719 47.703125 38.132812 47.453125 C 38.878906 47.453125 39.796875 47.535156 40.378906 47.953125 C 40.628906 48.367188 41.125 48.617188 40.960938 49.113281 C 40.628906 48.785156 39.710938 48.535156 39.210938 48.953125 C 38.632812 49.28125 38.382812 50.03125 38.632812 50.695312 C 39.210938 51.523438 40.210938 52.109375 41.210938 51.695312 C 42.457031 51.523438 43.121094 50.195312 43.539062 49.199219 C 43.785156 46.953125 42.789062 45.042969 41.542969 43.292969 C 41.378906 43.132812 41.042969 43.132812 41.042969 43.292969 C 41.210938 44.960938 42.703125 46.203125 42.457031 48.117188 C 42.457031 48.453125 42.371094 48.703125 42.289062 48.953125 C 41.871094 47.203125 41.542969 45.207031 40.460938 43.632812 C 38.71875 40.882812 36.386719 38.804688 34.058594 36.5625 L 35.726562 34.816406 C 38.71875 37.5625 41.789062 40.800781 45.613281 41.964844 C 46.445312 42.132812 47.359375 42.296875 48.105469 42.296875 C 46.53125 42.964844 44.699219 42.132812 43.289062 41.382812 C 43.039062 41.300781 42.953125 41.550781 42.789062 41.632812 C 42.953125 42.382812 43.703125 42.550781 44.28125 42.882812 C 45.945312 43.710938 48.273438 44.042969 49.851562 42.964844 C 50.601562 42.214844 51.347656 41.382812 51.183594 40.222656 C 50.933594 39.640625 50.601562 38.972656 50.019531 38.804688 C 49.273438 38.722656 48.441406 38.890625 48.105469 39.640625 L 48.023438 40.882812 C 47.359375 40.882812 47.191406 40.136719 46.941406 39.722656 C 46.78125 38.972656 46.863281 38.054688 47.191406 37.3125 C 47.859375 36.230469 49.105469 36.0625 50.265625 35.980469 C 51.101562 36.144531 51.847656 36.5625 52.34375 37.226562 C 52.925781 37.722656 52.511719 38.804688 53.34375 38.890625 C 53.925781 37.890625 52.925781 37.0625 53.175781 36.0625 C 53.507812 35.230469 53.761719 33.984375 54.925781 33.984375 C 55.671875 33.902344 56.253906 34.066406 56.585938 34.652344 " fill-opacity="1" fill-rule="nonzero"/><path fill="#2f5982" d="M 24.421875 35.980469 C 24.421875 36.0625 24.503906 36.230469 24.253906 36.230469 L 24.171875 36.230469 C 24.085938 36.0625 24.253906 35.894531 24.421875 35.980469 " fill-opacity="1" fill-rule="nonzero"/><path fill="#2f5982" d="M 18.683594 37.394531 C 18.269531 37.722656 17.683594 37.644531 17.191406 37.8125 C 16.273438 38.304688 15.941406 39.304688 15.191406 39.804688 C 14.78125 39.804688 14.445312 39.304688 14.363281 38.972656 C 14.363281 38.140625 14.613281 37.394531 15.359375 36.976562 C 16.273438 36.394531 17.355469 36.894531 18.433594 36.8125 C 18.519531 36.976562 18.683594 37.144531 18.683594 37.394531 " fill-opacity="1" fill-rule="nonzero"/><path fill="#fcedd4" d="M 43.203125 39.554688 C 42.953125 39.804688 42.703125 39.472656 42.457031 39.386719 C 42.207031 38.972656 42.539062 38.472656 42.621094 37.972656 C 42.789062 37.8125 42.871094 37.644531 43.121094 37.644531 L 43.203125 39.554688 " fill-opacity="1" fill-rule="nonzero"/><path fill="#2f5982" d="M 26.496094 39.472656 C 26.746094 39.886719 26.582031 40.386719 26.414062 40.722656 C 25.996094 41.214844 25.503906 41.714844 24.753906 41.550781 C 24.585938 41.550781 24.421875 41.464844 24.421875 41.300781 C 24.585938 40.722656 25.996094 40.554688 25.417969 39.804688 C 24.171875 39.554688 23.253906 40.386719 22.425781 41.382812 C 22.261719 41.550781 21.761719 41.382812 21.925781 41.050781 C 22.261719 39.886719 23.421875 38.890625 24.667969 38.722656 C 25.417969 38.722656 26.164062 38.804688 26.496094 39.472656 " fill-opacity="1" fill-rule="nonzero"/><path fill="#2f5982" d="M 11.621094 40.304688 C 11.621094 40.386719 11.539062 40.386719 11.539062 40.472656 L 11.539062 40.304688 L 11.621094 40.304688 " fill-opacity="1" fill-rule="nonzero"/><path fill="#2f5982" d="M 23.921875 43.132812 C 24.003906 43.632812 23.835938 44.292969 23.253906 44.542969 C 23.003906 44.625 22.675781 44.542969 22.757812 44.210938 C 22.84375 43.878906 23.171875 43.632812 23.003906 43.214844 C 22.675781 42.796875 22.261719 43.214844 22.09375 43.292969 C 21.84375 43.632812 21.511719 44.042969 21.09375 43.878906 C 20.761719 43.632812 21.011719 43.214844 21.09375 42.964844 C 21.59375 42.550781 22.011719 41.964844 22.757812 41.964844 C 23.503906 41.800781 23.835938 42.550781 23.921875 43.132812 " fill-opacity="1" fill-rule="nonzero"/><path fill="#fcedd4" d="M 38.71875 42.964844 C 38.96875 43.292969 38.632812 43.382812 38.46875 43.460938 C 38.132812 43.542969 37.800781 43.460938 37.46875 43.382812 C 37.300781 43.046875 37.46875 42.632812 37.800781 42.382812 C 38.21875 42.296875 38.550781 42.632812 38.71875 42.964844 " fill-opacity="1" fill-rule="nonzero"/><path fill="#fcedd4" d="M 32.980469 44.125 C 32.398438 44.625 31.484375 44.542969 30.816406 44.960938 C 25.335938 46.789062 20.34375 52.023438 18.601562 57.511719 C 17.023438 62.171875 17.191406 67.492188 17.191406 72.230469 C 15.109375 72.5625 12.78125 72.144531 10.539062 72.480469 L 10.289062 72.894531 L 10.371094 97.839844 C 10.289062 98.753906 10.539062 99.664062 10.289062 100.414062 L 9.789062 100.082031 L 9.710938 95.261719 L 9.789062 71.730469 C 11.871094 71.3125 14.03125 71.5625 16.191406 71.402344 L 16.359375 70.984375 C 16.023438 64.332031 16.605469 57.929688 20.101562 52.523438 C 23.09375 48.117188 27.664062 44.625 32.566406 43.460938 L 32.980469 44.125 " fill-opacity="1" fill-rule="nonzero"/><path fill="#fcedd4" d="M 40.292969 45.875 L 40.292969 46.125 C 33.148438 46.871094 25.417969 49.363281 22.34375 56.683594 C 19.765625 62.003906 20.84375 68.652344 20.433594 74.890625 L 13.367188 75.140625 L 13.117188 75.472656 C 13.199219 84.703125 13.117188 94.09375 13.03125 102.992188 C 12.78125 103.074219 12.617188 103.742188 12.289062 103.410156 C 11.289062 102.492188 11.453125 101.082031 11.371094 99.914062 L 11.371094 73.476562 L 11.621094 73.3125 L 18.101562 73.144531 L 18.351562 72.730469 C 17.683594 63.5 18.765625 53.273438 27.328125 47.871094 C 29.324219 46.539062 31.566406 45.792969 33.808594 45.125 C 35.808594 44.960938 37.636719 44.375 39.546875 44.292969 L 40.292969 45.875 " fill-opacity="1" fill-rule="nonzero"/><path fill="#fcedd4" d="M 46.195312 45.625 C 46.28125 46.125 46.113281 46.703125 45.53125 46.621094 L 45.363281 46.621094 L 44.28125 44.710938 C 44.949219 45.042969 45.699219 45.042969 46.195312 45.625 " fill-opacity="1" fill-rule="nonzero"/><path fill="#fcedd4" d="M 53.761719 46.871094 C 53.011719 47.621094 51.847656 48.203125 50.765625 47.703125 C 50.183594 47.535156 49.523438 47.035156 48.941406 47.535156 C 48.773438 47.621094 48.773438 47.871094 48.855469 48.035156 C 50.019531 48.535156 51.347656 49.03125 51.765625 50.363281 C 52.097656 51.195312 52.34375 52.023438 52.511719 52.941406 C 51.101562 52.941406 49.683594 52.441406 48.691406 51.445312 C 47.859375 50.78125 48.191406 49.449219 47.191406 49.113281 L 47.023438 49.28125 C 47.609375 51.03125 47.691406 53.523438 46.195312 54.851562 C 44.617188 53.273438 45.53125 51.03125 45.78125 49.113281 C 45.78125 48.617188 45.53125 47.371094 46.53125 47.535156 C 46.863281 47.703125 47.191406 47.535156 47.441406 47.285156 C 47.359375 46.871094 47.191406 46.292969 47.523438 45.953125 C 49.023438 45.875 50.515625 45.207031 51.933594 45.707031 C 52.59375 46.042969 53.175781 46.539062 53.761719 46.871094 " fill-opacity="1" fill-rule="nonzero"/><path fill="#fcedd4" d="M 17.355469 49.113281 C 17.851562 49.78125 18.269531 50.445312 18.183594 51.277344 C 16.023438 51.863281 15.191406 49.28125 14.28125 47.871094 L 14.28125 47.703125 C 15.359375 48.117188 16.191406 48.953125 17.355469 49.113281 " fill-opacity="1" fill-rule="nonzero"/><path fill="#fcedd4" d="M 35.640625 52.523438 C 35.558594 52.941406 34.890625 52.773438 34.558594 52.691406 L 33.480469 51.445312 C 33.726562 51.113281 34.476562 51.113281 34.976562 51.195312 L 35.640625 52.523438 " fill-opacity="1" fill-rule="nonzero"/><path fill="#fcedd4" d="M 16.523438 76.222656 C 16.359375 76.882812 15.941406 77.964844 16.441406 78.714844 C 15.441406 79.382812 15.277344 80.625 14.28125 81.292969 C 13.949219 79.878906 14.28125 78.050781 14.199219 76.304688 C 14.941406 75.972656 15.691406 76.304688 16.523438 76.222656 " fill-opacity="1" fill-rule="nonzero"/><path fill="#fcedd4" d="M 18.601562 77.21875 C 18.765625 77.714844 18.519531 78.300781 17.933594 78.300781 C 17.523438 78.300781 17.191406 77.964844 17.191406 77.550781 C 17.273438 77.21875 17.523438 76.800781 17.933594 76.800781 C 18.269531 76.722656 18.433594 77.050781 18.601562 77.21875 " fill-opacity="1" fill-rule="nonzero"/><path fill="#fcedd4" d="M 20.433594 82.371094 C 19.265625 82.371094 18.601562 81.375 17.601562 80.792969 C 16.855469 81.292969 16.691406 82.453125 15.691406 82.621094 L 14.941406 82.542969 C 16.273438 81.710938 16.191406 78.714844 18.351562 79.632812 C 19.351562 80.378906 19.933594 81.375 20.433594 82.371094 " fill-opacity="1" fill-rule="nonzero"/><path fill="#fcedd4" d="M 18.601562 83.121094 C 18.433594 83.535156 18.269531 84.035156 17.769531 84.285156 C 17.441406 84.203125 17.105469 83.703125 16.941406 83.371094 C 16.855469 82.871094 17.523438 82.542969 17.769531 82.292969 C 18.019531 82.542969 18.765625 82.542969 18.601562 83.121094 " fill-opacity="1" fill-rule="nonzero"/><path fill="#fcedd4" d="M 19.933594 83.703125 C 19.683594 84.285156 19.765625 85.699219 18.765625 85.363281 C 18.351562 84.703125 19.265625 84.203125 19.433594 83.535156 C 19.601562 83.535156 19.851562 83.535156 19.933594 83.703125 " fill-opacity="1" fill-rule="nonzero"/><path fill="#fcedd4" d="M 16.941406 85.53125 C 16.191406 85.53125 16.023438 84.535156 15.859375 83.953125 L 16.023438 83.785156 C 16.359375 84.285156 17.355469 84.953125 16.941406 85.53125 " fill-opacity="1" fill-rule="nonzero"/><path fill="#fcedd4" d="M 18.519531 86.53125 C 18.519531 86.863281 18.269531 87.03125 17.933594 87.195312 C 17.683594 87.113281 17.523438 86.945312 17.441406 86.78125 C 17.355469 86.449219 17.601562 86.199219 17.851562 86.03125 C 18.183594 85.949219 18.351562 86.28125 18.519531 86.53125 " fill-opacity="1" fill-rule="nonzero"/><path fill="#fcedd4" d="M 18.601562 88.941406 C 18.519531 89.191406 18.351562 89.441406 18.019531 89.523438 C 17.851562 89.523438 17.769531 89.273438 17.683594 89.191406 L 17.933594 88.523438 C 18.183594 88.441406 18.519531 88.609375 18.601562 88.941406 " fill-opacity="1" fill-rule="nonzero"/><path fill="#fcedd4" d="M 11.871094 104.988281 L 12.289062 106.402344 C 11.789062 106.816406 11.621094 106.234375 11.371094 105.902344 C 10.957031 104.742188 10.539062 103.492188 9.460938 102.578125 C 9.210938 102.492188 8.628906 102.328125 8.378906 102.660156 C 7.546875 103.824219 7.128906 105.152344 6.386719 106.320312 C 5.96875 105.984375 6.46875 105.402344 6.46875 104.902344 C 7.296875 103.574219 7.710938 101.992188 8.796875 100.832031 C 10.457031 101.582031 10.871094 103.574219 11.871094 104.988281 " fill-opacity="1" fill-rule="nonzero"/><path fill="#fcedd4" d="M 10.207031 105.488281 C 10.371094 106.152344 10.871094 106.902344 10.789062 107.5625 C 10.289062 107.8125 9.378906 107.8125 9.292969 108.648438 C 9.460938 109.0625 9.128906 109.394531 8.878906 109.730469 L 8.628906 109.730469 C 8.796875 108.730469 8.210938 107.8125 7.378906 107.402344 C 7.628906 106.070312 8.296875 104.902344 8.878906 103.660156 C 9.710938 103.90625 9.871094 104.820312 10.207031 105.488281 " fill-opacity="1" fill-rule="nonzero"/><path fill="#fcedd4" d="M 5.21875 104.652344 C 5.304688 105.152344 5.136719 105.734375 4.636719 105.902344 C 4.058594 105.984375 3.808594 105.652344 3.558594 105.238281 C 3.308594 104.742188 3.808594 104.324219 4.140625 103.992188 C 4.636719 104.074219 5.054688 104.242188 5.21875 104.652344 " fill-opacity="1" fill-rule="nonzero"/><path fill="#fcedd4" d="M 14.445312 104.652344 C 14.445312 105.070312 14.113281 105.402344 13.78125 105.652344 C 13.367188 105.652344 13.199219 105.238281 13.117188 104.902344 C 13.199219 104.652344 13.199219 104.242188 13.53125 104.15625 C 13.949219 103.992188 14.363281 104.242188 14.445312 104.652344 " fill-opacity="1" fill-rule="nonzero"/><path fill="#fcedd4" d="M 4.140625 107.652344 L 4.386719 108.8125 C 5.636719 109.0625 4.46875 106.734375 5.96875 107.234375 C 6.21875 108.730469 4.386719 109.972656 5.636719 111.390625 C 6.386719 111.308594 5.800781 110.3125 6.136719 109.894531 C 6.386719 109.394531 6.550781 108.648438 7.128906 108.480469 C 7.546875 108.480469 7.710938 108.980469 7.628906 109.3125 C 6.550781 110.890625 5.054688 112.472656 5.304688 114.46875 C 5.386719 114.632812 5.636719 114.714844 5.800781 114.632812 C 6.050781 114.050781 6.050781 113.46875 6.300781 112.882812 C 6.800781 112.140625 7.214844 110.972656 8.046875 110.808594 L 8.128906 111.140625 C 6.632812 113.21875 5.386719 115.464844 5.054688 117.960938 C 5.21875 118.125 5.46875 118.292969 5.636719 118.125 C 6.300781 116.292969 6.878906 114.46875 8.210938 113.132812 C 8.378906 113.550781 8.296875 114.132812 8.296875 114.632812 C 7.710938 114.632812 7.128906 115.214844 7.046875 115.714844 C 6.800781 116.542969 7.128906 117.210938 7.464844 117.792969 C 8.796875 118.542969 6.878906 119.121094 6.878906 119.953125 C 6.800781 120.285156 6.46875 120.535156 6.050781 120.453125 C 5.304688 120.203125 4.386719 119.539062 4.226562 118.789062 C 3.390625 115.464844 5.96875 112.054688 4.140625 108.730469 C 3.726562 108.0625 3.476562 107.3125 2.726562 106.816406 C 3.140625 106.320312 4.226562 106.816406 4.140625 107.652344 " fill-opacity="1" fill-rule="nonzero"/><path fill="#fcedd4" d="M 14.28125 106.902344 C 11.207031 109.394531 13.117188 113.550781 13.367188 116.878906 C 13.367188 118.125 12.949219 119.371094 11.953125 120.121094 C 11.621094 120.285156 11.289062 120.621094 10.789062 120.621094 L 8.878906 118.460938 C 8.796875 118.042969 9.460938 118.125 9.789062 117.875 C 10.371094 117.378906 10.789062 116.628906 10.457031 115.882812 C 10.207031 115.300781 9.871094 114.964844 9.292969 114.714844 C 9.210938 114.050781 9.539062 113.46875 9.378906 112.882812 C 10.207031 113.300781 10.457031 114.46875 10.957031 115.214844 L 11.621094 118.210938 C 11.703125 118.292969 11.953125 118.375 12.121094 118.292969 C 12.53125 117.625 12.371094 116.628906 12.203125 115.882812 C 11.539062 114.214844 10.871094 112.472656 9.378906 111.140625 C 9.378906 110.808594 9.378906 110.472656 9.710938 110.390625 C 10.871094 110.722656 10.957031 112.222656 11.621094 112.972656 C 11.871094 113.050781 11.953125 112.882812 12.039062 112.804688 C 12.121094 111.308594 11.207031 110.222656 10.371094 109.0625 C 10.289062 108.730469 10.539062 108.648438 10.789062 108.5625 C 11.539062 108.730469 11.289062 110.0625 12.203125 109.894531 C 12.617188 109.0625 11.121094 108.0625 12.203125 107.402344 C 12.53125 107.480469 12.867188 107.8125 13.199219 107.730469 C 13.367188 107.234375 13.613281 106.652344 14.28125 106.902344 " fill-opacity="1" fill-rule="nonzero"/><path fill="#fcedd4" d="M 9.957031 122.28125 L 7.214844 122.363281 C 7.128906 121.453125 7.796875 120.535156 8.210938 119.703125 C 8.460938 119.371094 8.878906 119.789062 8.960938 120.039062 C 9.460938 120.703125 10.207031 121.371094 9.957031 122.28125 " fill-opacity="1" fill-rule="nonzero"/><path fill="#fcedd4" d="M 11.121094 123.613281 L 11.121094 123.695312 C 9.460938 123.78125 7.796875 124.28125 6.21875 123.78125 L 6.300781 123.445312 C 7.796875 123.53125 9.628906 123.199219 11.121094 123.613281 " fill-opacity="1" fill-rule="nonzero"/><path fill="#fcedd4" d="M 12.867188 125.691406 C 13.03125 126.273438 12.699219 126.773438 12.203125 126.941406 L 5.46875 126.941406 C 5.21875 126.773438 4.886719 126.523438 4.804688 126.191406 C 4.804688 125.773438 5.054688 125.191406 5.554688 125.109375 C 7.710938 124.773438 9.789062 125.191406 11.871094 124.941406 C 12.289062 124.859375 12.699219 125.359375 12.867188 125.691406 " fill-opacity="1" fill-rule="nonzero"/><path fill="#fcedd4" d="M 11.371094 128.601562 C 9.789062 128.851562 8.296875 128.683594 6.632812 128.683594 L 6.46875 128.433594 C 7.960938 128.183594 9.789062 128.101562 11.371094 128.351562 L 11.371094 128.601562 " fill-opacity="1" fill-rule="nonzero"/></svg>