<svg xmlns="http://www.w3.org/2000/svg" xmlns:xlink="http://www.w3.org/1999/xlink" width="175" zoomAndPan="magnify" viewBox="0 0 131.25 131.249998" height="175" preserveAspectRatio="xMidYMid meet" version="1.0"><defs><clipPath id="9e1062e69f"><path d="M 0.839844 1 L 129.664062 1 L 129.664062 130.503906 L 0.839844 130.503906 Z M 0.839844 1 " clip-rule="nonzero"/></clipPath></defs><g clip-path="url(#9e1062e69f)"><path fill="#2f5982" d="M 109.324219 3.96875 L 28.953125 3.96875 C 28.121094 3.804688 26.960938 4.550781 26.378906 3.722656 C 25.878906 3.054688 25.050781 2.390625 24.132812 2.722656 C 23.550781 2.140625 23.050781 1.226562 22.140625 1.394531 C 21.890625 2.390625 21.308594 3.386719 20.308594 3.886719 C 17.148438 5.632812 14.160156 2.804688 10.917969 3.722656 C 9.835938 4.136719 8.757812 4.632812 8.007812 5.714844 C 7.84375 5.214844 7.511719 4.714844 6.925781 4.714844 C 5.765625 5.050781 5.265625 3.054688 3.933594 3.722656 C 3.273438 3.804688 2.773438 4.382812 2.441406 4.964844 C 1.941406 5.214844 1.191406 4.800781 0.863281 5.296875 C 0.863281 7.542969 0.695312 10.121094 0.78125 12.453125 C 1.359375 12.535156 2.523438 12.367188 2.523438 13.363281 C 2.941406 13.945312 3.605469 13.945312 4.183594 13.945312 C 5.597656 14.195312 5.597656 12.453125 6.675781 12.285156 C 7.09375 12.285156 7.34375 11.953125 7.675781 11.703125 C 8.09375 12.78125 9.085938 13.945312 10.335938 14.363281 C 13.996094 15.027344 18.230469 12.535156 21.390625 15.027344 C 21.890625 15.363281 21.722656 15.941406 22.140625 16.273438 C 22.886719 16.191406 23.050781 15.445312 23.550781 14.945312 C 24.21875 14.945312 24.960938 15.027344 25.542969 14.695312 L 26.042969 13.945312 L 46.078125 13.863281 C 46.160156 13.945312 46.328125 13.945312 46.328125 14.03125 C 45.496094 14.695312 44.246094 14.945312 43.25 15.691406 C 42.417969 16.855469 41.417969 14.863281 40.507812 15.941406 C 39.925781 16.355469 39.84375 17.023438 40.007812 17.605469 C 40.175781 18.105469 40.675781 18.273438 41.085938 18.351562 C 41.667969 18.433594 42.25 18.273438 42.667969 17.9375 C 44.328125 18.683594 45.828125 19.851562 47.570312 20.351562 C 48.070312 20.683594 47.738281 21.34375 48.320312 21.511719 C 48.988281 21.261719 49.398438 20.433594 50.0625 20.101562 C 50.980469 19.683594 52.058594 19.265625 52.558594 18.273438 C 53.390625 18.523438 54.550781 18.765625 55.21875 18.023438 C 55.632812 18.765625 55.382812 19.601562 55.550781 20.515625 C 63.777344 20.515625 73.5 19.601562 79.070312 26.753906 C 81.398438 29.246094 82.644531 32.234375 83.0625 35.480469 C 82.5625 35.480469 81.898438 35.230469 81.398438 35.144531 L 80.570312 35.144531 C 80.152344 33.734375 80.402344 32.234375 80.570312 30.90625 C 80.484375 30.660156 80.152344 30.742188 79.988281 30.742188 C 79.238281 31.824219 78.488281 33.152344 77.160156 33.652344 C 76.328125 33.070312 75.167969 32.902344 74.085938 33.152344 C 73.167969 33.320312 73.007812 34.316406 72.757812 35.0625 C 72.757812 35.730469 73.089844 36.480469 73.75 36.8125 C 74.335938 36.894531 74.917969 37.0625 75.417969 36.730469 C 75.828125 37.722656 75.417969 38.972656 75.660156 39.972656 C 75.828125 41.882812 76.910156 43.382812 78.242188 44.710938 C 77.160156 45.292969 76.246094 46.371094 74.832031 46.371094 C 74.582031 46.621094 74.917969 46.789062 75.082031 46.953125 C 76.078125 47.621094 77.160156 48.285156 78.160156 48.953125 C 77.078125 50.53125 77.160156 52.691406 76.160156 54.355469 L 76.246094 54.523438 C 78.242188 54.105469 80.320312 53.941406 81.980469 52.691406 C 82.5625 54.023438 83.5625 55.269531 84.308594 56.515625 C 85.390625 55.769531 85.636719 54.523438 86.304688 53.441406 C 88.296875 54.933594 90.792969 55.351562 93.285156 55.269531 C 93.453125 55.683594 93.203125 56.265625 93.285156 56.765625 C 93.367188 57.34375 93.785156 58.011719 94.285156 58.179688 C 95.195312 58.425781 96.359375 58.59375 97.027344 57.761719 C 97.6875 57.183594 98.019531 56.433594 97.855469 55.515625 C 97.773438 54.601562 96.445312 54.1875 96.777344 53.191406 C 97.523438 52.191406 98.605469 51.277344 99.4375 50.53125 C 99.019531 49.699219 98.1875 50.695312 97.4375 50.445312 L 95.613281 50.28125 L 94.863281 48.203125 C 100.765625 48.703125 105.917969 53.105469 107.910156 58.679688 C 109.492188 64 108.992188 69.984375 108.992188 75.722656 C 109.574219 76.222656 110.570312 75.722656 111.320312 76.140625 C 110.820312 76.800781 110.820312 78.050781 111.152344 78.714844 C 109.910156 79.878906 109.742188 81.960938 108 82.453125 C 108.078125 83.121094 108.992188 83.203125 109.492188 83.535156 C 109.992188 85.035156 110.652344 86.449219 111.484375 87.863281 C 111.152344 88.359375 110.902344 88.941406 111.152344 89.605469 C 111.402344 90.105469 111.902344 90.191406 112.402344 90.355469 C 112.984375 90.441406 113.648438 90.105469 113.730469 89.441406 L 113.480469 87.941406 C 114.8125 86.695312 115.394531 85.121094 116.058594 83.535156 L 116.304688 83.703125 C 116.390625 90.191406 116.472656 96.511719 116.304688 102.824219 C 115.476562 103.574219 114.8125 104.324219 115.144531 105.488281 C 114.894531 106.070312 113.980469 106.152344 113.898438 106.902344 C 115.0625 106.902344 115.972656 107.652344 116.472656 108.5625 C 118.382812 112.804688 113.730469 118.125 117.886719 121.53125 L 119.050781 122.363281 C 118.882812 122.699219 118.382812 122.363281 118.136719 122.613281 L 118.054688 123.863281 C 117.386719 124.28125 116.640625 124.941406 116.472656 125.691406 C 116.304688 126.523438 116.640625 127.269531 117.222656 127.769531 C 118.054688 128.101562 117.636719 129.183594 117.804688 129.929688 L 118.054688 130.097656 L 125.199219 130.097656 L 125.367188 128.183594 C 126.117188 127.769531 126.863281 126.941406 126.863281 126.023438 C 126.945312 125.109375 126.199219 124.527344 125.535156 124.113281 C 125.367188 123.53125 125.785156 122.449219 124.949219 122.363281 C 126.613281 121.371094 127.777344 119.539062 127.609375 117.460938 C 127.113281 114.050781 125.199219 109.394531 129.109375 107.234375 C 129.519531 107.066406 129.1875 106.652344 129.109375 106.402344 C 128.859375 105.984375 128.445312 105.734375 127.945312 105.652344 L 127.859375 104.242188 L 127.027344 102.660156 L 127.027344 56.851562 L 127.113281 22.675781 C 129.027344 20.351562 129.855469 17.355469 129.519531 14.195312 C 129.109375 13.28125 129.1875 12.203125 128.527344 11.453125 C 129.4375 8.875 129.4375 5.546875 129.109375 2.722656 C 127.027344 1.722656 124.453125 2.390625 122.207031 2.390625 L 119.964844 2.886719 C 116.804688 0.394531 112.152344 1.476562 109.324219 3.96875 " fill-opacity="1" fill-rule="nonzero"/></g><path fill="#fcedd4" d="M 110.492188 4.214844 C 110.738281 5.050781 111.238281 4.054688 111.738281 4.136719 C 113.648438 3.304688 116.140625 3.054688 118.136719 3.722656 C 118.304688 3.636719 118.554688 3.636719 118.554688 3.472656 C 117.304688 2.472656 115.5625 2.140625 113.898438 2.554688 C 112.652344 2.804688 111.484375 3.304688 110.492188 4.214844 " fill-opacity="1" fill-rule="nonzero"/><path fill="#fcedd4" d="M 116.140625 7.542969 C 115.0625 8.957031 115.144531 10.535156 114.894531 12.203125 L 115.0625 12.613281 L 115.394531 12.367188 C 115.890625 9.707031 116.640625 6.714844 119.382812 5.382812 C 121.292969 4.054688 123.707031 4.214844 125.867188 3.886719 C 126.613281 4.054688 127.777344 3.636719 127.945312 4.714844 C 128.277344 8.625 126.613281 12.78125 122.875 14.863281 C 121.792969 15.773438 120.132812 15.363281 118.964844 16.023438 L 119.296875 16.273438 C 121.707031 16.441406 124.035156 15.691406 125.617188 13.945312 C 128.359375 11.203125 128.777344 7.042969 128.109375 3.472656 C 123.707031 2.472656 118.632812 3.304688 116.140625 7.542969 " fill-opacity="1" fill-rule="nonzero"/><path fill="#fcedd4" d="M 12.996094 4.632812 C 11.585938 4.714844 9.753906 5.050781 9.335938 6.628906 C 10.167969 7.125 11.5 7.625 11.746094 8.792969 C 11.5 10.035156 10.085938 10.871094 9.253906 11.453125 C 11.914062 15.613281 16.988281 11.617188 20.640625 13.53125 L 22.46875 14.28125 C 22.640625 13.945312 22.550781 13.695312 22.390625 13.445312 C 21.972656 13.199219 21.222656 13.53125 21.058594 12.945312 C 21.058594 12.535156 21.640625 12.203125 21.308594 11.785156 C 20.390625 11.867188 19.5625 13.363281 18.648438 12.535156 C 19.0625 11.703125 20.558594 11.535156 20.476562 10.453125 C 18.730469 9.875 17.980469 12.863281 16.070312 12.117188 C 16.238281 11.285156 17.398438 11.121094 17.816406 10.453125 C 17.898438 10.289062 18.148438 10.121094 18.066406 9.875 C 16.238281 11.203125 14.328125 12.367188 12.085938 12.613281 C 11.828125 12.535156 11.585938 12.535156 11.417969 12.203125 C 11.667969 11.535156 12.746094 11.953125 13.328125 11.453125 C 14.488281 11.121094 15.738281 10.453125 16.40625 9.375 C 15.074219 8.457031 14.988281 10.453125 13.828125 10.371094 C 13.078125 10.371094 12.414062 10.035156 12.164062 9.292969 C 12.164062 8.625 12.246094 8.125 12.664062 7.625 C 13.078125 7.292969 13.660156 7.042969 14.160156 7.292969 C 15.074219 7.625 15.238281 8.792969 16.488281 8.375 C 15.738281 6.628906 13.660156 6.382812 11.914062 5.964844 C 11.828125 5.796875 11.5 5.632812 11.746094 5.382812 C 14.328125 4.882812 16.570312 6.382812 18.316406 8.457031 C 18.5625 8.375 18.730469 8.210938 18.898438 8.042969 C 18.648438 6.714844 17.070312 6.964844 16.570312 5.964844 C 16.488281 5.546875 16.988281 5.546875 17.316406 5.546875 C 18.398438 6.046875 19.398438 6.796875 20.140625 7.792969 C 20.390625 7.960938 20.808594 7.960938 20.890625 7.542969 C 20.972656 6.628906 19.890625 6.382812 19.3125 5.964844 C 19.3125 5.714844 19.480469 5.546875 19.640625 5.382812 C 20.390625 5.546875 21.058594 5.796875 21.640625 6.296875 C 21.808594 6.214844 22.054688 6.132812 22.054688 5.964844 L 21.222656 4.800781 C 21.722656 4.214844 22.71875 4.714844 23.050781 3.804688 C 23.136719 3.554688 23.136719 3.222656 22.96875 3.054688 C 20.476562 6.046875 16.15625 5.382812 12.996094 4.632812 " fill-opacity="1" fill-rule="nonzero"/><path fill="#fcedd4" d="M 23.800781 4.464844 C 23.71875 4.964844 24.21875 5.050781 24.550781 5.214844 C 24.960938 5.214844 25.300781 4.964844 25.378906 4.550781 C 25.378906 4.214844 25.132812 3.96875 24.714844 3.804688 C 24.300781 3.722656 23.96875 4.136719 23.800781 4.464844 " fill-opacity="1" fill-rule="nonzero"/><path fill="#fcedd4" d="M 26.875 4.964844 L 25.710938 5.964844 L 26.292969 5.964844 C 26.292969 5.964844 109.992188 5.964844 109.992188 6.046875 C 110.160156 5.546875 109.742188 5.214844 109.410156 4.964844 L 26.875 4.964844 " fill-opacity="1" fill-rule="nonzero"/><path fill="#fcedd4" d="M 124.535156 6.464844 C 124.035156 6.132812 124.703125 5.796875 124.535156 5.382812 C 124.285156 6.046875 124.035156 6.882812 123.375 7.292969 C 123.039062 7.375 122.792969 7.042969 122.792969 6.796875 C 122.542969 7.214844 122.457031 8.042969 121.792969 8.125 L 121.375 7.875 C 121.125 8.125 121.214844 8.625 120.796875 8.710938 C 120.546875 8.792969 120.378906 8.542969 120.296875 8.375 L 120.296875 8.210938 C 119.546875 8.625 120.132812 10.535156 118.800781 9.953125 C 118.632812 10.289062 118.464844 10.703125 118.054688 10.703125 C 117.804688 10.785156 117.636719 10.453125 117.554688 10.203125 C 117.722656 9.625 118.304688 8.792969 117.886719 8.375 C 116.972656 9.207031 116.804688 10.703125 116.640625 11.953125 L 116.804688 12.117188 C 117.804688 11.867188 118.882812 11.371094 119.882812 11.535156 C 119.964844 12.453125 119.632812 13.53125 119.632812 14.445312 C 120.875 14.445312 122.207031 14.03125 123.125 13.28125 C 122.707031 12.367188 120.796875 13.695312 121.046875 12.367188 L 121.460938 12.035156 C 122.375 12.117188 123.457031 11.867188 124.285156 12.117188 C 124.535156 11.953125 124.203125 11.703125 124.117188 11.617188 C 123.457031 11.285156 122.625 12.035156 122.125 11.371094 C 122.042969 10.953125 122.957031 10.953125 122.542969 10.453125 C 123.125 9.625 124.285156 9.542969 125.367188 9.457031 C 125.535156 9.457031 125.867188 9.625 126.035156 9.457031 L 126.117188 9.292969 C 125.199219 8.875 123.875 10.121094 123.125 9.125 C 123.953125 8.375 125.199219 8.457031 126.277344 8.210938 C 125.867188 7.792969 125.117188 8.292969 124.617188 8.375 C 124.285156 8.292969 124.035156 8.210938 123.875 7.875 C 124.203125 6.796875 127.609375 7.792969 125.785156 6.214844 C 125.867188 5.796875 126.613281 5.714844 126.445312 5.214844 C 126.199219 5.132812 125.949219 4.964844 125.785156 5.296875 C 125.617188 5.796875 125.199219 6.796875 124.535156 6.464844 " fill-opacity="1" fill-rule="nonzero"/><path fill="#fcedd4" d="M 115.144531 7.214844 C 115.5625 6.464844 116.554688 5.882812 116.804688 5.132812 C 115.972656 5.632812 115.5625 6.464844 115.144531 7.214844 " fill-opacity="1" fill-rule="nonzero"/><path fill="#fcedd4" d="M 114.5625 6.046875 C 114.730469 5.964844 115.0625 5.546875 115.144531 5.214844 L 114.5625 6.046875 " fill-opacity="1" fill-rule="nonzero"/><path fill="#fcedd4" d="M 3.605469 5.546875 L 3.1875 12.117188 C 3.355469 12.453125 3.523438 12.78125 3.851562 12.863281 C 4.265625 12.535156 4.933594 12.863281 5.101562 12.117188 C 5.183594 9.707031 5.433594 7.460938 5.101562 5.132812 C 4.683594 4.464844 3.683594 4.882812 3.605469 5.546875 " fill-opacity="1" fill-rule="nonzero"/><path fill="#fcedd4" d="M 111.402344 5.632812 C 112.820312 8.210938 110.320312 11.285156 112.570312 13.363281 C 114.730469 13.695312 113.398438 11.121094 114.0625 10.121094 L 114.394531 8.875 C 114.144531 8.957031 113.898438 9.792969 113.3125 9.457031 C 112.902344 8.292969 113.980469 7.625 114.3125 6.628906 C 113.648438 7.214844 113.648438 8.457031 112.734375 8.710938 C 112.152344 8.292969 112.820312 7.710938 112.734375 7.042969 C 112.570312 7.214844 112.320312 7.375 112.070312 7.125 C 111.984375 6.464844 112.570312 5.882812 112.152344 5.296875 C 111.820312 5.214844 111.570312 5.464844 111.402344 5.632812 " fill-opacity="1" fill-rule="nonzero"/><path fill="#fcedd4" d="M 113.152344 6.132812 L 113.5625 5.382812 L 113.152344 6.046875 Z M 113.152344 6.132812 " fill-opacity="1" fill-rule="nonzero"/><path fill="#fcedd4" d="M 122.792969 6.714844 C 123.039062 6.382812 123.375 6.132812 123.289062 5.632812 C 123.125 5.964844 122.875 6.296875 122.792969 6.714844 " fill-opacity="1" fill-rule="nonzero"/><path fill="#fcedd4" d="M 121.875 6.628906 C 121.875 6.382812 122.292969 6.132812 122.042969 5.882812 L 121.875 6.628906 " fill-opacity="1" fill-rule="nonzero"/><path fill="#fcedd4" d="M 114.5625 6.214844 L 114.480469 6.132812 L 114.394531 6.296875 L 114.5625 6.214844 " fill-opacity="1" fill-rule="nonzero"/><path fill="#fcedd4" d="M 6.34375 6.132812 C 6.183594 7.875 6.265625 9.542969 6.265625 11.285156 L 6.34375 11.371094 C 7.175781 9.875 6.761719 7.792969 6.925781 6.046875 L 6.675781 5.714844 L 6.34375 6.132812 " fill-opacity="1" fill-rule="nonzero"/><path fill="#fcedd4" d="M 1.859375 11.035156 L 2.023438 11.285156 L 2.355469 10.953125 L 2.441406 6.464844 L 2.191406 6.132812 L 1.941406 6.464844 L 1.859375 11.035156 " fill-opacity="1" fill-rule="nonzero"/><path fill="#fcedd4" d="M 22.886719 6.546875 C 24.132812 7.542969 25.960938 7.875 27.125 9.042969 C 26.378906 10.289062 24.800781 10.453125 23.550781 11.121094 C 23.300781 11.035156 23.21875 11.285156 22.96875 11.371094 C 24.632812 11.035156 26.542969 10.289062 27.953125 9.042969 C 26.625 7.710938 24.882812 7.042969 23.21875 6.296875 C 23.050781 6.214844 22.96875 6.464844 22.886719 6.546875 " fill-opacity="1" fill-rule="nonzero"/><path fill="#fcedd4" d="M 119.132812 8.125 C 119.382812 7.875 119.546875 7.375 119.382812 7.042969 C 119.214844 7.292969 119.050781 7.710938 119.132812 8.125 " fill-opacity="1" fill-rule="nonzero"/><path fill="#fcedd4" d="M 29.371094 6.964844 L 28.039062 7.375 L 28.539062 7.792969 C 46.738281 7.875 110.320312 7.792969 110.320312 7.792969 C 110.652344 7.792969 110.570312 7.125 110.402344 7.042969 C 110.570312 6.964844 29.371094 6.964844 29.371094 6.964844 " fill-opacity="1" fill-rule="nonzero"/><path fill="#fcedd4" d="M 114.5625 8.375 L 114.894531 7.710938 L 114.5625 8.210938 Z M 114.5625 8.375 " fill-opacity="1" fill-rule="nonzero"/><path fill="#fcedd4" d="M 7.84375 10.289062 C 8.425781 10.453125 9.175781 10.289062 9.667969 9.953125 C 10.003906 9.542969 10.667969 9.375 10.585938 8.710938 C 9.835938 7.875 8.925781 7.542969 7.925781 7.460938 L 7.84375 10.289062 " fill-opacity="1" fill-rule="nonzero"/><path fill="#fcedd4" d="M 21.308594 8.457031 C 20.808594 9.042969 19.976562 8.625 19.398438 9.207031 C 19.640625 9.542969 20.140625 9.042969 20.390625 9.375 C 20.972656 9.542969 21.390625 10.035156 21.808594 10.535156 C 23.136719 10.289062 24.382812 9.875 25.460938 9.125 C 24.550781 8.210938 23.136719 8.042969 21.890625 7.710938 L 21.308594 8.457031 " fill-opacity="1" fill-rule="nonzero"/><path fill="#fcedd4" d="M 71.507812 9.875 C 70.425781 11.203125 71.175781 12.863281 71.675781 14.195312 C 71.589844 14.53125 71.257812 14.53125 71.007812 14.363281 C 70.015625 12.863281 69.765625 10.871094 67.855469 10.121094 C 66.105469 9.125 63.777344 9.375 62.203125 10.371094 C 61.203125 11.035156 61.203125 12.285156 61.453125 13.28125 C 61.867188 14.113281 62.78125 14.363281 63.613281 14.363281 C 64.027344 14.195312 64.695312 14.113281 64.945312 13.613281 C 64.945312 13.199219 65.195312 12.703125 64.777344 12.367188 C 64.277344 12.203125 63.695312 11.703125 63.195312 12.203125 C 62.445312 12.453125 63.277344 13.695312 62.285156 13.53125 C 61.867188 13.113281 61.703125 12.367188 62.035156 11.867188 C 62.117188 11.285156 62.78125 11.121094 63.195312 10.871094 C 67.519531 10.871094 69.765625 15.773438 73.917969 16.105469 C 79.320312 16.691406 83.230469 12.945312 87.464844 10.289062 C 88.132812 10.121094 88.882812 9.625 89.625 9.953125 C 89.875 10.289062 89.460938 10.621094 89.210938 10.703125 C 87.632812 10.871094 86.550781 12.285156 85.390625 13.28125 C 83.394531 15.113281 82.980469 17.9375 83.230469 20.433594 C 83.890625 23.261719 86.136719 25.421875 87.632812 27.832031 C 89.042969 30.074219 91.535156 32.234375 90.792969 35.230469 C 90.375 35.980469 89.625 36.5625 88.714844 36.480469 C 88.296875 36.480469 87.882812 36.144531 87.714844 35.730469 C 87.800781 34.566406 89.292969 35.894531 89.460938 34.652344 C 89.542969 34.152344 89.292969 33.734375 88.882812 33.484375 C 88.046875 33.320312 87.464844 33.820312 87.132812 34.402344 C 87.050781 35.230469 87.132812 36.0625 87.800781 36.644531 C 88.546875 37.0625 89.382812 37.476562 90.292969 37.144531 C 91.375 36.644531 92.203125 35.8125 92.785156 34.734375 C 92.953125 33.734375 93.035156 32.402344 92.121094 31.65625 C 91.875 31.574219 91.625 31.40625 91.535156 31.15625 C 91.457031 30.742188 91.953125 30.492188 92.203125 30.492188 C 92.453125 30.492188 92.785156 30.492188 92.867188 30.160156 C 92.371094 28.582031 90.542969 28.582031 89.292969 27.75 C 89.042969 27.082031 88.046875 26.664062 88.214844 25.835938 C 87.214844 25.503906 86.136719 25.003906 85.886719 23.921875 L 85.722656 22.675781 C 84.890625 22.34375 84.308594 21.679688 84.140625 20.765625 C 84.058594 20.015625 84.222656 19.351562 84.722656 18.851562 C 84.972656 18.683594 85.390625 18.683594 85.636719 18.851562 C 85.972656 19.601562 84.640625 20.101562 85.222656 21.015625 C 85.636719 22.09375 87.300781 20.765625 87.050781 22.34375 C 87.132812 22.34375 87.382812 21.84375 87.714844 22.09375 C 88.214844 22.34375 87.882812 23.011719 88.382812 23.261719 C 88.796875 23.261719 88.796875 22.761719 88.796875 22.511719 C 88.796875 21.925781 87.800781 21.34375 88.632812 20.933594 C 89.210938 20.933594 89.542969 21.511719 89.792969 22.011719 C 89.960938 22.675781 89.710938 23.425781 89.460938 24.003906 C 89.042969 24.421875 88.464844 24.503906 87.964844 24.339844 C 87.300781 24.003906 87.050781 23.261719 86.964844 22.511719 C 86.550781 23.011719 86.800781 23.753906 87.050781 24.171875 C 87.714844 25.003906 89.125 24.421875 89.382812 25.671875 C 89.460938 26.421875 90.292969 26.832031 90.875 27.082031 C 91.292969 27.25 91.875 27.082031 92.371094 27 C 92.785156 26.753906 93.035156 25.835938 93.617188 26.335938 C 93.867188 27.082031 94.535156 27.5 95.113281 27.75 C 95.945312 27.914062 96.695312 27.832031 97.355469 27.5 C 98.355469 26.832031 98.355469 25.753906 98.105469 24.835938 C 97.855469 24.589844 97.6875 24.253906 97.9375 24.003906 C 98.355469 23.425781 99.019531 23.921875 99.519531 23.59375 C 100.433594 22.925781 101.179688 21.925781 100.847656 20.765625 C 100.679688 20.183594 100.265625 19.601562 99.6875 19.351562 C 99.1875 19.351562 98.605469 19.351562 98.355469 18.851562 C 98.769531 18.105469 99.1875 17.191406 98.6875 16.355469 C 98.605469 15.363281 97.605469 14.863281 96.859375 14.53125 C 95.859375 14.363281 94.863281 14.695312 94.199219 15.363281 C 93.617188 14.777344 93.535156 13.695312 92.535156 13.53125 C 91.375 13.445312 90.210938 13.78125 89.542969 14.863281 C 89.382812 15.195312 89.542969 15.613281 89.625 15.941406 C 90.707031 15.691406 91.785156 16.355469 92.121094 17.355469 C 92.371094 18.105469 92.203125 18.933594 91.703125 19.601562 C 91.375 20.433594 90.292969 20.433594 89.625 20.265625 C 88.296875 20.101562 87.464844 18.933594 87.132812 17.773438 C 86.964844 15.941406 87.464844 13.78125 89.382812 12.78125 C 91.125 11.203125 93.453125 11.453125 95.777344 11.703125 L 98.6875 13.03125 C 102.257812 15.691406 103.589844 19.851562 102.347656 24.089844 C 101.761719 26.167969 100.515625 28.082031 99.1875 29.824219 C 99.4375 30.824219 100.347656 31.742188 101.265625 32.234375 C 102.097656 31.742188 102.925781 30.824219 103.757812 30.242188 C 106.417969 27.832031 111.070312 27.664062 114.0625 29.332031 C 117.222656 31.074219 119.214844 34.484375 118.800781 38.054688 C 118.382812 39.972656 117.304688 41.800781 115.5625 42.882812 C 114.644531 43.382812 113.398438 43.382812 112.570312 42.964844 C 111.902344 42.632812 111.070312 41.964844 110.820312 41.214844 C 110.492188 40.554688 110.652344 39.640625 111.070312 39.054688 C 111.570312 38.472656 112.152344 38.222656 112.820312 38.390625 C 113.5625 38.554688 114.230469 38.972656 114.644531 39.640625 C 114.8125 39.972656 114.730469 40.386719 115.0625 40.554688 C 115.644531 40.304688 116.390625 40.222656 116.722656 39.554688 C 116.972656 39.054688 116.972656 38.304688 116.722656 37.8125 C 116.554688 37.144531 115.3125 36.8125 115.890625 36.0625 C 116.722656 35.730469 116.722656 34.816406 116.554688 34.066406 C 116.140625 32.984375 115.0625 32.324219 113.980469 32.324219 C 112.984375 32.152344 112.402344 33.820312 111.652344 32.984375 C 112.152344 31.90625 111.484375 31.074219 110.820312 30.324219 C 110.074219 29.574219 108.910156 29.492188 108.078125 30.074219 C 107.082031 30.660156 106.832031 31.824219 106.917969 32.820312 C 106.332031 33.484375 105.585938 32.734375 104.839844 32.902344 C 104.089844 33.152344 103.339844 33.570312 103.089844 34.402344 C 102.675781 35.144531 103.089844 35.980469 103.257812 36.730469 C 103.675781 37.3125 104.757812 37.394531 104.421875 38.222656 C 103.921875 38.640625 103.089844 39.054688 103.257812 39.972656 C 103.257812 40.632812 103.507812 41.300781 104.007812 41.800781 C 104.507812 42.550781 105.75 41.800781 106 42.796875 C 105.917969 43.632812 106.332031 44.375 106.917969 44.875 C 107.5 45.207031 108.410156 45.207031 109.078125 45.042969 C 109.492188 45.542969 109.910156 46.042969 110.652344 46.042969 C 111.402344 46.203125 111.984375 43.960938 112.320312 45.625 C 112.234375 46.125 111.738281 46.621094 111.320312 46.789062 C 110.160156 47.371094 109.160156 46.621094 108.242188 46.042969 C 107.164062 46.203125 106.332031 45.457031 105.667969 44.710938 L 104.921875 43.460938 C 104.007812 43.046875 102.839844 42.382812 102.429688 41.300781 C 101.761719 40.136719 102.347656 37.890625 100.515625 37.722656 C 100.015625 38.140625 100.679688 39.140625 99.765625 39.222656 C 98.6875 38.722656 97.355469 38.390625 96.109375 38.722656 C 95.195312 39.472656 93.949219 40.222656 93.867188 41.550781 C 93.949219 42.464844 94.117188 43.542969 95.113281 43.960938 C 95.695312 44.125 96.359375 44.125 96.695312 43.542969 C 96.9375 43.214844 97.105469 42.714844 96.859375 42.296875 C 96.277344 40.964844 94.367188 43.460938 95.027344 41.300781 C 95.445312 40.554688 96.195312 40.222656 97.027344 40.222656 C 102.347656 40.964844 104.921875 47.535156 110.402344 47.953125 C 113.398438 48.035156 116.554688 47.121094 118.136719 44.292969 C 118.632812 43.132812 119.132812 42.050781 119.214844 40.882812 C 119.382812 40.632812 119.714844 40.554688 119.964844 40.722656 C 120.464844 41.882812 119.714844 42.964844 119.382812 44.042969 C 118.136719 46.953125 116.140625 49.699219 114.644531 52.609375 C 113.8125 54.683594 113.730469 58.011719 114.980469 60.011719 L 115.226562 60.753906 C 116.972656 62.832031 120.132812 65.082031 118.882812 68.242188 C 118.632812 68.734375 118.054688 68.902344 117.636719 69.070312 C 116.972656 68.988281 115.972656 68.820312 115.972656 67.992188 C 116.304688 66.992188 117.136719 68.242188 117.636719 67.574219 C 117.886719 67.160156 118.054688 66.660156 117.804688 66.160156 C 117.554688 65.582031 116.804688 65.742188 116.390625 65.832031 C 115.8125 66.242188 115.394531 66.742188 115.394531 67.40625 C 115.226562 68.492188 115.972656 69.402344 116.972656 69.734375 C 118.214844 70.070312 119.382812 69.484375 120.296875 68.734375 C 120.875 67.90625 121.125 66.910156 121.046875 65.992188 C 120.632812 63.914062 118.800781 62.253906 117.054688 61.171875 C 116.972656 61.003906 116.890625 60.671875 117.136719 60.589844 C 117.972656 60.839844 119.132812 61.089844 119.964844 60.589844 C 121.214844 59.84375 121.625 58.425781 121.542969 57.015625 C 121.375 54.273438 118.882812 52.523438 119.132812 49.699219 C 117.554688 51.523438 116.890625 53.773438 116.554688 56.101562 C 117.304688 55.769531 118.382812 55.515625 119.132812 56.101562 C 119.882812 56.683594 120.046875 57.761719 119.632812 58.59375 C 119.296875 59.261719 118.632812 59.761719 117.972656 60.011719 C 116.972656 60.171875 116.222656 59.59375 115.644531 58.84375 C 113.898438 55.933594 115.8125 52.609375 117.136719 49.863281 C 119.796875 46.292969 121.542969 41.882812 121.460938 37.226562 C 120.964844 34.566406 120.378906 31.984375 118.054688 30.160156 L 115.722656 28.746094 C 115.8125 27.5 117.222656 28.582031 117.972656 28.246094 C 119.632812 28.164062 120.875 26.585938 121.292969 25.171875 C 121.625 24.089844 121.625 22.925781 120.964844 22.09375 C 120.296875 20.84375 119.050781 20.433594 117.804688 20.183594 C 116.804688 20.183594 115.890625 20.601562 115.144531 21.34375 C 114.730469 22.09375 114.644531 23.09375 114.8125 23.921875 C 115.0625 24.171875 115.144531 24.589844 115.5625 24.753906 C 115.5625 24.089844 115.476562 23.011719 116.304688 22.511719 C 116.804688 22.09375 117.554688 22.261719 118.136719 22.511719 C 118.800781 22.84375 119.132812 23.59375 119.050781 24.339844 C 119.050781 25.085938 118.464844 25.671875 117.972656 26.167969 C 114.5625 27.832031 110.402344 25.921875 107 27.25 C 105 28.164062 103.175781 29.414062 101.429688 30.742188 C 101.015625 30.742188 100.679688 30.410156 100.515625 30.074219 C 102.757812 27.082031 103.839844 23.59375 104.171875 19.851562 C 104.589844 17.273438 103.257812 13.199219 106.667969 12.117188 C 107.414062 12.035156 108.078125 12.285156 108.578125 12.78125 C 109.078125 13.28125 109.324219 14.113281 108.992188 14.777344 C 108.828125 15.445312 108.160156 15.773438 107.5 15.773438 C 106.917969 15.855469 106.5 15.277344 106.082031 15.277344 C 106 15.855469 106.417969 16.441406 107 16.691406 C 107.828125 17.105469 108.660156 16.773438 109.410156 16.523438 C 110.242188 16.023438 110.738281 15.195312 110.902344 14.363281 C 111.152344 12.613281 110.242188 10.871094 108.660156 10.035156 C 107.25 9.457031 105.5 9.457031 104.171875 10.203125 C 103.425781 10.785156 102.839844 11.535156 102.597656 12.367188 C 102.347656 13.445312 102.925781 14.445312 103.175781 15.523438 C 103.089844 15.691406 102.925781 16.023438 102.675781 15.941406 C 101.597656 15.363281 101.929688 13.863281 101.097656 13.03125 C 98.355469 9.792969 94.117188 8.542969 89.960938 9.207031 C 87.050781 10.035156 84.390625 11.203125 81.8125 12.703125 C 79.238281 14.113281 76.578125 16.023438 73.335938 15.027344 C 72.671875 14.363281 71.757812 13.613281 71.925781 12.535156 C 71.925781 11.785156 72.175781 11.121094 72.917969 10.871094 C 73.667969 10.535156 74.667969 10.785156 75.25 11.371094 C 75.828125 11.785156 75.828125 12.613281 75.660156 13.28125 C 75.582031 13.445312 75.417969 13.613281 75.5 13.863281 C 77.910156 13.945312 79.820312 12.367188 81.730469 11.285156 C 78.90625 11.535156 76.996094 9.125 74.25 8.792969 C 73.089844 8.625 72.257812 9.292969 71.507812 9.875 " fill-opacity="1" fill-rule="nonzero"/><path fill="#fcedd4" d="M 28.953125 9.707031 C 28.621094 9.792969 28.371094 10.035156 28.203125 10.289062 L 34.6875 10.453125 L 55.71875 10.371094 L 58.792969 10.453125 L 59.042969 10.871094 L 59.125 16.355469 L 59.292969 16.605469 C 67.6875 16.523438 75.910156 17.273438 81.648438 23.425781 C 84.308594 26.167969 85.636719 29.492188 86.882812 32.902344 C 87.550781 32.234375 86.964844 31.074219 86.800781 30.324219 C 85.054688 24.589844 79.820312 19.015625 73.917969 17.441406 C 71.34375 16.855469 68.847656 16.023438 66.023438 15.941406 L 60.453125 15.613281 L 60.121094 15.113281 L 60.042969 9.625 L 28.953125 9.707031 " fill-opacity="1" fill-rule="nonzero"/><path fill="#fcedd4" d="M 124.035156 10.453125 C 124.203125 10.785156 124.949219 10.703125 125.285156 10.621094 C 125.035156 10.203125 124.453125 10.453125 124.035156 10.453125 " fill-opacity="1" fill-rule="nonzero"/><path fill="#fcedd4" d="M 25.378906 11.867188 L 26.128906 12.863281 L 28.953125 12.945312 L 56.050781 12.945312 L 56.300781 13.28125 L 56.546875 19.433594 C 65.105469 19.683594 74.5 19.101562 80.070312 26.421875 C 83.5625 30.410156 84.390625 35.644531 84.804688 40.632812 C 85.304688 40.722656 85.972656 40.722656 86.222656 40.304688 C 86.882812 35.144531 85.140625 29.992188 82.3125 25.753906 C 77.824219 19.933594 71.34375 17.523438 64.195312 17.605469 C 62.285156 17.605469 60.371094 17.441406 58.542969 17.773438 L 58.292969 17.605469 L 58.042969 11.371094 L 57.792969 11.285156 L 26.210938 11.453125 L 25.378906 11.867188 " fill-opacity="1" fill-rule="nonzero"/><path fill="#fcedd4" d="M 128.109375 14.613281 C 128.359375 16.691406 127.945312 18.933594 126.777344 20.683594 C 126.863281 20.765625 126.863281 20.933594 127.027344 20.933594 C 128.777344 18.933594 129.027344 15.941406 128.277344 13.363281 L 127.945312 12.613281 C 127.527344 13.199219 128.109375 13.945312 128.109375 14.613281 " fill-opacity="1" fill-rule="nonzero"/><path fill="#fcedd4" d="M 113.730469 14.613281 C 114.0625 14.445312 114.5625 14.195312 114.8125 14.613281 C 114.980469 14.695312 115.144531 15.027344 114.894531 15.195312 C 113.980469 15.691406 112.902344 16.441406 112.402344 17.355469 C 112.234375 17.9375 112.820312 18.523438 113.230469 18.683594 C 114.644531 18.765625 115.3125 17.273438 116.140625 16.441406 C 116.390625 16.355469 116.804688 16.605469 116.804688 16.941406 C 116.222656 18.273438 115.3125 19.933594 113.730469 20.351562 C 112.984375 20.601562 112.234375 20.265625 111.570312 20.101562 C 110.738281 19.515625 110.988281 18.523438 110.902344 17.6875 C 111.484375 16.523438 112.484375 15.523438 113.5625 14.695312 C 112.234375 15.195312 110.652344 16.605469 110.402344 18.183594 C 110.074219 18.765625 110.820312 19.851562 109.992188 20.351562 C 109.160156 20.183594 108.492188 19.351562 107.5 19.601562 C 104.839844 20.601562 105.5 23.675781 104.339844 25.753906 L 103.175781 27.996094 C 105.335938 26.664062 107.660156 25.753906 110.074219 25.003906 C 110.738281 24.671875 111.484375 24.089844 111.570312 23.261719 C 111.902344 22.425781 110.320312 21.511719 111.570312 21.015625 C 113.398438 21.925781 114.8125 19.765625 116.058594 18.765625 C 117.472656 17.023438 118.214844 15.027344 118.714844 12.945312 L 118.632812 12.78125 C 116.890625 13.113281 115.0625 13.53125 113.730469 14.613281 " fill-opacity="1" fill-rule="nonzero"/><path fill="#fcedd4" d="M 23.632812 13.199219 C 23.632812 13.53125 23.96875 13.945312 24.382812 14.03125 C 24.632812 13.945312 25.132812 13.863281 25.132812 13.445312 C 25.210938 13.03125 24.800781 12.78125 24.550781 12.703125 C 24.132812 12.535156 23.882812 12.945312 23.632812 13.199219 " fill-opacity="1" fill-rule="nonzero"/><path fill="#fcedd4" d="M 50.230469 13.945312 C 50.8125 14.695312 51.808594 14.945312 52.472656 15.613281 C 53.058594 15.195312 53.890625 15.027344 54.550781 15.363281 C 54.71875 15.523438 54.882812 15.773438 55.21875 15.773438 C 55.21875 15.113281 55.382812 14.195312 54.800781 13.863281 L 50.230469 13.945312 " fill-opacity="1" fill-rule="nonzero"/><path fill="#fcedd4" d="M 48.488281 15.195312 C 49.070312 16.105469 49.980469 16.691406 50.980469 16.773438 C 51.144531 16.941406 51.0625 17.191406 50.8125 17.273438 C 49.898438 17.855469 48.488281 18.351562 48.488281 19.683594 C 48.488281 19.765625 48.488281 19.851562 48.488281 19.933594 C 49.398438 19.265625 50.648438 19.101562 51.5625 18.351562 C 52.140625 17.9375 52.140625 17.273438 51.890625 16.605469 C 50.980469 15.445312 49.648438 15.277344 48.652344 14.113281 C 48.320312 14.363281 48.320312 14.863281 48.488281 15.195312 " fill-opacity="1" fill-rule="nonzero"/><path fill="#fcedd4" d="M 124.949219 15.855469 C 125.367188 15.941406 125.949219 15.277344 126.445312 15.027344 L 126.527344 14.53125 C 125.949219 14.777344 125.449219 15.445312 124.949219 15.855469 " fill-opacity="1" fill-rule="nonzero"/><path fill="#fcedd4" d="M 79.652344 18.183594 C 80.484375 18.351562 81.480469 18.023438 82.0625 17.441406 C 82.5625 16.441406 82.894531 15.445312 83.144531 14.445312 C 81.980469 15.691406 78.738281 15.613281 79.652344 18.183594 " fill-opacity="1" fill-rule="nonzero"/><path fill="#2f5982" d="M 91.292969 15.277344 C 91.207031 16.273438 92.371094 16.023438 92.621094 16.855469 C 93.035156 17.605469 93.453125 18.601562 92.867188 19.351562 C 92.621094 19.515625 92.371094 19.851562 92.453125 20.101562 C 92.867188 20.265625 93.367188 20.265625 93.703125 19.933594 C 94.199219 18.523438 94.777344 16.441406 93.367188 15.113281 C 92.867188 14.363281 91.625 14.53125 91.292969 15.277344 " fill-opacity="1" fill-rule="nonzero"/><path fill="#2f5982" d="M 94.863281 16.605469 L 94.863281 17.273438 C 95.859375 17.6875 96.109375 15.445312 96.859375 16.855469 C 96.859375 18.351562 94.777344 18.523438 94.863281 19.851562 C 95.945312 20.351562 96.777344 18.765625 97.355469 18.105469 C 97.6875 17.441406 98.019531 16.441406 97.4375 15.773438 C 96.609375 14.695312 95.113281 15.445312 94.863281 16.605469 " fill-opacity="1" fill-rule="nonzero"/><path fill="#fcedd4" d="M 45.410156 15.773438 C 45.328125 16.105469 45.660156 16.191406 45.828125 16.355469 C 46.410156 16.273438 46.820312 15.855469 47.320312 15.523438 C 47.488281 15.363281 47.320312 15.195312 47.238281 15.027344 C 46.578125 15.195312 45.910156 15.277344 45.410156 15.773438 " fill-opacity="1" fill-rule="nonzero"/><path fill="#fcedd4" d="M 124.367188 16.191406 L 124.785156 15.941406 L 124.535156 16.105469 Z M 124.367188 16.191406 " fill-opacity="1" fill-rule="nonzero"/><path fill="#fcedd4" d="M 123.785156 16.941406 L 123.875 16.441406 C 122.125 17.023438 120.464844 17.855469 118.382812 17.523438 C 118.054688 17.773438 118.136719 18.183594 118.304688 18.523438 C 119.964844 20.265625 122.707031 19.265625 124.867188 19.851562 C 125.199219 19.851562 125.535156 20.015625 125.785156 19.683594 C 125.785156 19.515625 125.867188 19.433594 125.867188 19.265625 C 124.867188 19.015625 123.625 19.433594 122.792969 18.851562 C 122.792969 18.433594 122.375 17.605469 123.125 17.441406 C 124.453125 17.441406 125.785156 17.105469 126.777344 16.355469 L 126.613281 16.105469 C 125.617188 16.273438 124.785156 17.605469 123.785156 16.941406 " fill-opacity="1" fill-rule="nonzero"/><path fill="#fcedd4" d="M 52.972656 16.941406 C 53.058594 17.355469 53.304688 17.773438 53.804688 17.605469 C 54.140625 17.6875 54.300781 17.355469 54.472656 17.191406 C 54.472656 16.773438 54.300781 16.355469 53.972656 16.105469 C 53.472656 16.105469 52.972656 16.355469 52.972656 16.941406 " fill-opacity="1" fill-rule="nonzero"/><path fill="#fcedd4" d="M 43.25 17.023438 C 43.417969 17.441406 43.917969 17.6875 44.328125 17.773438 C 44.746094 17.855469 44.910156 17.441406 45.078125 17.273438 L 44.328125 16.273438 C 43.917969 16.441406 43.5 16.605469 43.25 17.023438 " fill-opacity="1" fill-rule="nonzero"/><path fill="#fcedd4" d="M 46.820312 17.191406 C 47.320312 17.523438 47.65625 18.105469 48.320312 17.9375 C 48.570312 17.605469 49.070312 17.355469 48.988281 16.855469 C 48.488281 16.691406 48.070312 16.023438 47.488281 16.523438 C 47.238281 16.773438 46.90625 16.941406 46.820312 17.191406 " fill-opacity="1" fill-rule="nonzero"/><path fill="#fcedd4" d="M 40.917969 16.855469 C 40.917969 17.105469 41.007812 17.355469 41.253906 17.355469 C 41.585938 17.441406 41.917969 17.191406 41.917969 16.855469 C 41.917969 16.691406 41.667969 16.523438 41.503906 16.523438 C 41.253906 16.523438 41.007812 16.605469 40.917969 16.855469 " fill-opacity="1" fill-rule="nonzero"/><path fill="#fcedd4" d="M 125.117188 18.105469 C 125.285156 18.433594 125.867188 18.183594 126.277344 18.183594 L 126.527344 17.773438 C 126.117188 17.605469 125.535156 17.9375 125.117188 18.105469 " fill-opacity="1" fill-rule="nonzero"/><path fill="#fcedd4" d="M 45.578125 18.351562 C 46.078125 18.683594 46.738281 19.183594 47.320312 18.933594 C 46.988281 18.523438 45.992188 17.273438 45.578125 18.351562 " fill-opacity="1" fill-rule="nonzero"/><path fill="#2f5982" d="M 94.117188 21.261719 C 93.949219 21.429688 93.949219 21.761719 94.117188 21.84375 C 95.027344 22.09375 95.695312 21.09375 96.609375 21.015625 C 97.273438 21.015625 98.1875 20.601562 98.6875 21.34375 C 98.6875 21.761719 98.269531 21.84375 97.9375 22.011719 C 97.605469 22.011719 97.105469 21.84375 96.9375 22.34375 C 96.9375 22.84375 97.355469 22.925781 97.773438 23.011719 C 98.519531 23.09375 99.101562 22.675781 99.597656 22.09375 C 100.015625 21.679688 100.015625 21.015625 99.6875 20.515625 C 98.769531 19.601562 97.1875 20.015625 96.027344 20.183594 L 94.117188 21.261719 " fill-opacity="1" fill-rule="nonzero"/><path fill="#2f5982" d="M 106.5 21.59375 C 106.167969 22.175781 106.082031 23.09375 106.417969 23.675781 C 106.832031 24.421875 107.5 24.835938 108.328125 25.003906 C 109.078125 25.085938 109.660156 24.671875 110.242188 24.171875 C 110.570312 23.675781 110.652344 22.84375 110.402344 22.34375 C 110.242188 22.09375 109.824219 22.09375 109.574219 22.261719 C 109.242188 22.761719 109.824219 23.511719 109.078125 23.84375 C 108.328125 24.003906 107.828125 23.34375 107.582031 22.84375 C 107.5 22.425781 107.332031 21.761719 107.910156 21.59375 C 108.242188 21.59375 108.660156 21.925781 108.910156 21.59375 C 109.160156 21.34375 109.078125 20.933594 108.742188 20.765625 C 107.910156 20.351562 106.832031 20.683594 106.5 21.59375 " fill-opacity="1" fill-rule="nonzero"/><path fill="#fcedd4" d="M 122.792969 21.261719 L 122.707031 96.753906 C 123.039062 98.171875 122.207031 100.082031 123.375 101.164062 L 123.539062 96.671875 L 123.539062 20.933594 C 123.289062 20.84375 122.707031 20.765625 122.792969 21.261719 " fill-opacity="1" fill-rule="nonzero"/><path fill="#fcedd4" d="M 124.703125 103.492188 L 125.867188 102.910156 C 125.785156 102.910156 125.867188 21.925781 125.867188 21.925781 L 124.785156 21.183594 C 124.785156 21.183594 124.535156 103.492188 124.703125 103.492188 " fill-opacity="1" fill-rule="nonzero"/><path fill="#2f5982" d="M 90.875 22.425781 C 91.042969 23.34375 92.035156 24.003906 91.375 25.085938 C 90.707031 26.167969 90.457031 23.753906 89.710938 25.171875 C 89.625 25.835938 90.042969 26.253906 90.542969 26.503906 C 91.207031 26.753906 91.535156 26.253906 91.953125 26.003906 C 92.703125 25.253906 92.285156 24.253906 92.371094 23.425781 C 93.453125 23.511719 94.535156 23.511719 95.527344 24.003906 C 95.859375 24.421875 96.445312 24.835938 96.109375 25.503906 C 95.945312 25.835938 95.445312 25.753906 95.277344 25.585938 C 94.863281 25.421875 94.535156 24.589844 93.949219 25.003906 C 93.703125 25.335938 93.867188 25.753906 94.117188 26.003906 C 94.613281 26.421875 95.195312 27 95.945312 26.914062 C 96.609375 26.832031 97.105469 26.335938 97.273438 25.753906 C 97.4375 25.003906 97.273438 24.253906 96.777344 23.753906 C 95.695312 22.511719 93.867188 22.34375 92.453125 22.675781 L 92.285156 23.175781 C 92.121094 22.675781 91.292969 21.511719 90.875 22.425781 " fill-opacity="1" fill-rule="nonzero"/><path fill="#2f5982" d="M 105.417969 24.003906 C 105.167969 24.753906 104.589844 25.253906 104.507812 26.003906 C 104.339844 26.335938 103.839844 26.832031 104.339844 27.082031 C 105.25 26.421875 106.25 26.085938 107.25 25.671875 C 107.25 25.171875 106.5 25.003906 106.25 24.503906 C 106.167969 24.171875 105.75 23.261719 105.417969 24.003906 " fill-opacity="1" fill-rule="nonzero"/><path fill="#fcedd4" d="M 94.613281 30.160156 C 94.613281 31.074219 95.527344 31.824219 96.109375 32.324219 C 97.605469 33.652344 98.769531 35.3125 100.347656 36.3125 C 100.765625 36.3125 101.265625 36.144531 101.347656 35.644531 C 100.265625 33.484375 97.6875 31.90625 96.027344 29.824219 C 95.527344 29.332031 94.863281 29.574219 94.613281 30.160156 " fill-opacity="1" fill-rule="nonzero"/><path fill="#2f5982" d="M 108.160156 32.234375 C 107.910156 32.820312 107.828125 33.320312 107.910156 34.066406 C 108 34.234375 108.160156 34.234375 108.328125 34.234375 C 108.828125 33.570312 108.578125 32.484375 109.492188 32.324219 C 109.824219 32.324219 109.992188 32.652344 110.074219 32.902344 C 110.160156 34.316406 109.078125 35.3125 108.492188 36.5625 C 108.410156 36.730469 108.660156 36.976562 108.828125 36.976562 C 109.824219 36.3125 110.402344 35.0625 110.820312 33.984375 C 111.070312 33.234375 111.152344 32.402344 110.738281 31.742188 C 110.074219 30.660156 108.492188 31.15625 108.160156 32.234375 " fill-opacity="1" fill-rule="nonzero"/><path fill="#fcedd4" d="M 95.277344 33.484375 L 97.855469 36.0625 L 98.019531 35.980469 C 97.4375 34.894531 96.195312 33.652344 95.277344 33.070312 L 95.277344 33.484375 " fill-opacity="1" fill-rule="nonzero"/><path fill="#2f5982" d="M 111.070312 35.980469 C 110.988281 36.3125 111.070312 36.5625 111.484375 36.480469 C 112.402344 35.8125 113.152344 33.984375 114.644531 34.566406 C 114.980469 34.816406 114.894531 35.144531 114.644531 35.394531 C 114.394531 35.5625 114.0625 35.8125 114.0625 36.144531 C 114.0625 36.644531 114.644531 36.644531 114.980469 36.480469 C 115.5625 35.8125 116.390625 35.144531 115.972656 34.152344 C 115.8125 33.652344 115.394531 33.402344 114.980469 33.320312 C 113.0625 33.152344 111.902344 34.652344 111.070312 35.980469 " fill-opacity="1" fill-rule="nonzero"/><path fill="#fcedd4" d="M 78.160156 35.730469 C 78.65625 35.730469 79.238281 35.480469 79.402344 34.984375 L 79.238281 33.402344 C 78.570312 33.902344 77.242188 34.734375 78.160156 35.730469 " fill-opacity="1" fill-rule="nonzero"/><path fill="#2f5982" d="M 104.339844 34.316406 C 103.921875 34.816406 104.171875 35.730469 104.339844 36.230469 C 104.507812 36.480469 104.671875 36.8125 104.921875 36.8125 C 105.667969 36.480469 104.421875 34.152344 106.082031 34.816406 C 107.164062 35.8125 106.75 37.394531 106.832031 38.640625 C 106.917969 38.804688 107.25 38.804688 107.414062 38.722656 C 107.828125 37.394531 108.078125 35.394531 107 34.316406 C 106.667969 33.902344 106.25 33.734375 105.835938 33.570312 C 105.25 33.570312 104.757812 33.820312 104.339844 34.316406 " fill-opacity="1" fill-rule="nonzero"/><path fill="#fcedd4" d="M 73.917969 34.652344 C 73.667969 35.230469 74 35.730469 74.5 35.894531 C 74.832031 36.144531 75.167969 35.8125 75.167969 35.480469 C 75.082031 35.230469 75.332031 35.144531 75.417969 34.984375 C 76.496094 35.5625 76.660156 36.976562 76.578125 38.140625 C 76.246094 40.304688 77.160156 42.796875 79.15625 43.960938 C 80.820312 45.042969 83.3125 44.875 85.140625 44.210938 C 87.050781 43.292969 88.464844 41.882812 90.042969 40.386719 C 90.210938 40.304688 90.542969 40.304688 90.625 40.632812 C 88.964844 43.542969 85.472656 45.707031 85.636719 49.363281 C 85.636719 51.113281 86.550781 52.773438 88.214844 53.441406 C 90.292969 55.101562 94.035156 53.273438 95.695312 55.601562 C 95.777344 55.851562 95.695312 56.183594 95.363281 56.101562 C 94.945312 56.183594 94.695312 55.515625 94.367188 55.851562 C 94.285156 56.351562 94.613281 57.015625 95.195312 57.183594 C 95.695312 57.261719 96.359375 57.511719 96.527344 56.765625 C 96.859375 55.769531 96.445312 54.933594 95.777344 54.1875 C 94.695312 53.355469 93.285156 53.691406 92.203125 53.191406 C 92.453125 52.441406 93.367188 52.773438 93.785156 52.191406 C 94.445312 51.277344 94.777344 49.949219 94.285156 48.953125 C 93.867188 48.203125 93.117188 47.703125 92.371094 47.453125 C 91.625 47.453125 90.707031 47.535156 90.125 47.953125 C 89.875 48.367188 89.382812 48.617188 89.542969 49.113281 C 89.875 48.785156 90.792969 48.535156 91.292969 48.953125 C 91.875 49.28125 92.121094 50.03125 91.875 50.695312 C 91.292969 51.523438 90.292969 52.109375 89.292969 51.695312 C 88.046875 51.523438 87.382812 50.195312 86.964844 49.199219 C 86.71875 46.953125 87.714844 45.042969 88.964844 43.292969 C 89.125 43.132812 89.460938 43.132812 89.460938 43.292969 C 89.292969 44.960938 87.800781 46.203125 88.046875 48.117188 C 88.046875 48.453125 88.132812 48.703125 88.214844 48.953125 C 88.632812 47.203125 88.964844 45.207031 90.042969 43.632812 C 91.785156 40.882812 94.117188 38.804688 96.445312 36.5625 L 94.777344 34.816406 C 91.785156 37.5625 88.714844 40.800781 84.890625 41.964844 C 84.058594 42.132812 83.144531 42.296875 82.398438 42.296875 C 83.972656 42.964844 85.804688 42.132812 87.214844 41.382812 C 87.464844 41.300781 87.550781 41.550781 87.714844 41.632812 C 87.550781 42.382812 86.800781 42.550781 86.222656 42.882812 C 84.558594 43.710938 82.230469 44.042969 80.652344 42.964844 C 79.902344 42.214844 79.15625 41.382812 79.320312 40.222656 C 79.570312 39.640625 79.902344 38.972656 80.484375 38.804688 C 81.230469 38.722656 82.0625 38.890625 82.398438 39.640625 L 82.480469 40.882812 C 83.144531 40.882812 83.3125 40.136719 83.5625 39.722656 C 83.722656 38.972656 83.644531 38.054688 83.3125 37.3125 C 82.644531 36.230469 81.398438 36.0625 80.238281 35.980469 C 79.402344 36.144531 78.65625 36.5625 78.160156 37.226562 C 77.578125 37.722656 77.992188 38.804688 77.160156 38.890625 C 76.578125 37.890625 77.578125 37.0625 77.328125 36.0625 C 76.996094 35.230469 76.742188 33.984375 75.582031 33.984375 C 74.832031 33.902344 74.25 34.066406 73.917969 34.652344 " fill-opacity="1" fill-rule="nonzero"/><path fill="#2f5982" d="M 106.082031 35.980469 C 106.082031 36.0625 106 36.230469 106.25 36.230469 L 106.332031 36.230469 C 106.417969 36.0625 106.25 35.894531 106.082031 35.980469 " fill-opacity="1" fill-rule="nonzero"/><path fill="#2f5982" d="M 111.820312 37.394531 C 112.234375 37.722656 112.820312 37.644531 113.3125 37.8125 C 114.230469 38.304688 114.5625 39.304688 115.3125 39.804688 C 115.722656 39.804688 116.058594 39.304688 116.140625 38.972656 C 116.140625 38.140625 115.890625 37.394531 115.144531 36.976562 C 114.230469 36.394531 113.152344 36.894531 112.070312 36.8125 C 111.984375 36.976562 111.820312 37.144531 111.820312 37.394531 " fill-opacity="1" fill-rule="nonzero"/><path fill="#fcedd4" d="M 87.300781 39.554688 C 87.550781 39.804688 87.800781 39.472656 88.046875 39.386719 C 88.296875 38.972656 87.964844 38.472656 87.882812 37.972656 C 87.714844 37.8125 87.632812 37.644531 87.382812 37.644531 L 87.300781 39.554688 " fill-opacity="1" fill-rule="nonzero"/><path fill="#2f5982" d="M 104.007812 39.472656 C 103.757812 39.886719 103.921875 40.386719 104.089844 40.722656 C 104.507812 41.214844 105 41.714844 105.75 41.550781 C 105.917969 41.550781 106.082031 41.464844 106.082031 41.300781 C 105.917969 40.722656 104.507812 40.554688 105.089844 39.804688 C 106.332031 39.554688 107.25 40.386719 108.078125 41.382812 C 108.242188 41.550781 108.742188 41.382812 108.578125 41.050781 C 108.242188 39.886719 107.082031 38.890625 105.835938 38.722656 C 105.089844 38.722656 104.339844 38.804688 104.007812 39.472656 " fill-opacity="1" fill-rule="nonzero"/><path fill="#2f5982" d="M 118.882812 40.304688 C 118.882812 40.386719 118.964844 40.386719 118.964844 40.472656 L 118.964844 40.304688 L 118.882812 40.304688 " fill-opacity="1" fill-rule="nonzero"/><path fill="#2f5982" d="M 106.582031 43.132812 C 106.5 43.632812 106.667969 44.292969 107.25 44.542969 C 107.5 44.625 107.828125 44.542969 107.75 44.210938 C 107.660156 43.878906 107.332031 43.632812 107.5 43.214844 C 107.828125 42.796875 108.242188 43.214844 108.410156 43.292969 C 108.660156 43.632812 108.992188 44.042969 109.410156 43.878906 C 109.742188 43.632812 109.492188 43.214844 109.410156 42.964844 C 108.910156 42.550781 108.492188 41.964844 107.75 41.964844 C 107 41.800781 106.667969 42.550781 106.582031 43.132812 " fill-opacity="1" fill-rule="nonzero"/><path fill="#fcedd4" d="M 91.785156 42.964844 C 91.535156 43.292969 91.875 43.382812 92.035156 43.460938 C 92.371094 43.542969 92.703125 43.460938 93.035156 43.382812 C 93.203125 43.046875 93.035156 42.632812 92.703125 42.382812 C 92.285156 42.296875 91.953125 42.632812 91.785156 42.964844 " fill-opacity="1" fill-rule="nonzero"/><path fill="#fcedd4" d="M 97.523438 44.125 C 98.105469 44.625 99.019531 44.542969 99.6875 44.960938 C 105.167969 46.789062 110.160156 52.023438 111.902344 57.511719 C 113.480469 62.171875 113.3125 67.492188 113.3125 72.230469 C 115.394531 72.5625 117.722656 72.144531 119.964844 72.480469 L 120.214844 72.894531 L 120.132812 97.839844 C 120.214844 98.753906 119.964844 99.664062 120.214844 100.414062 L 120.714844 100.082031 L 120.796875 95.261719 L 120.714844 71.730469 C 118.632812 71.3125 116.472656 71.5625 114.3125 71.402344 L 114.144531 70.984375 C 114.480469 64.332031 113.898438 57.929688 110.402344 52.523438 C 107.414062 48.117188 102.839844 44.625 97.9375 43.460938 L 97.523438 44.125 " fill-opacity="1" fill-rule="nonzero"/><path fill="#fcedd4" d="M 90.210938 45.875 L 90.210938 46.125 C 97.355469 46.871094 105.089844 49.363281 108.160156 56.683594 C 110.738281 62.003906 109.660156 68.652344 110.074219 74.890625 L 117.136719 75.140625 L 117.386719 75.472656 C 117.304688 84.703125 117.386719 94.09375 117.472656 102.992188 C 117.722656 103.074219 117.886719 103.742188 118.214844 103.410156 C 119.214844 102.492188 119.050781 101.082031 119.132812 99.914062 L 119.132812 73.476562 L 118.882812 73.3125 L 112.402344 73.144531 L 112.152344 72.730469 C 112.820312 63.5 111.738281 53.273438 103.175781 47.871094 C 101.179688 46.539062 98.9375 45.792969 96.695312 45.125 C 94.695312 44.960938 92.867188 44.375 90.957031 44.292969 L 90.210938 45.875 " fill-opacity="1" fill-rule="nonzero"/><path fill="#fcedd4" d="M 84.308594 45.625 C 84.222656 46.125 84.390625 46.703125 84.972656 46.621094 L 85.140625 46.621094 L 86.222656 44.710938 C 85.554688 45.042969 84.804688 45.042969 84.308594 45.625 " fill-opacity="1" fill-rule="nonzero"/><path fill="#fcedd4" d="M 76.742188 46.871094 C 77.492188 47.621094 78.65625 48.203125 79.738281 47.703125 C 80.320312 47.535156 80.980469 47.035156 81.5625 47.535156 C 81.730469 47.621094 81.730469 47.871094 81.648438 48.035156 C 80.484375 48.535156 79.15625 49.03125 78.738281 50.363281 C 78.410156 51.195312 78.160156 52.023438 77.992188 52.941406 C 79.402344 52.941406 80.820312 52.441406 81.8125 51.445312 C 82.644531 50.78125 82.3125 49.449219 83.3125 49.113281 L 83.480469 49.28125 C 82.894531 51.03125 82.8125 53.523438 84.308594 54.851562 C 85.886719 53.273438 84.972656 51.03125 84.722656 49.113281 C 84.722656 48.617188 84.972656 47.371094 83.972656 47.535156 C 83.644531 47.703125 83.3125 47.535156 83.0625 47.285156 C 83.144531 46.871094 83.3125 46.292969 82.980469 45.953125 C 81.480469 45.875 79.988281 45.207031 78.570312 45.707031 C 77.910156 46.042969 77.328125 46.539062 76.742188 46.871094 " fill-opacity="1" fill-rule="nonzero"/><path fill="#fcedd4" d="M 113.152344 49.113281 C 112.652344 49.78125 112.234375 50.445312 112.320312 51.277344 C 114.480469 51.863281 115.3125 49.28125 116.222656 47.871094 L 116.222656 47.703125 C 115.144531 48.117188 114.3125 48.953125 113.152344 49.113281 " fill-opacity="1" fill-rule="nonzero"/><path fill="#fcedd4" d="M 94.863281 52.523438 C 94.945312 52.941406 95.613281 52.773438 95.945312 52.691406 L 97.027344 51.445312 C 96.777344 51.113281 96.027344 51.113281 95.527344 51.195312 L 94.863281 52.523438 " fill-opacity="1" fill-rule="nonzero"/><path fill="#fcedd4" d="M 113.980469 76.222656 C 114.144531 76.882812 114.5625 77.964844 114.0625 78.714844 C 115.0625 79.382812 115.226562 80.625 116.222656 81.292969 C 116.554688 79.878906 116.222656 78.050781 116.304688 76.304688 C 115.5625 75.972656 114.8125 76.304688 113.980469 76.222656 " fill-opacity="1" fill-rule="nonzero"/><path fill="#fcedd4" d="M 111.902344 77.21875 C 111.738281 77.714844 111.984375 78.300781 112.570312 78.300781 C 112.984375 78.300781 113.3125 77.964844 113.3125 77.550781 C 113.230469 77.21875 112.984375 76.800781 112.570312 76.800781 C 112.234375 76.722656 112.070312 77.050781 111.902344 77.21875 " fill-opacity="1" fill-rule="nonzero"/><path fill="#fcedd4" d="M 110.074219 82.371094 C 111.238281 82.371094 111.902344 81.375 112.902344 80.792969 C 113.648438 81.292969 113.8125 82.453125 114.8125 82.621094 L 115.5625 82.542969 C 114.230469 81.710938 114.3125 78.714844 112.152344 79.632812 C 111.152344 80.378906 110.570312 81.375 110.074219 82.371094 " fill-opacity="1" fill-rule="nonzero"/><path fill="#fcedd4" d="M 111.902344 83.121094 C 112.070312 83.535156 112.234375 84.035156 112.734375 84.285156 C 113.0625 84.203125 113.398438 83.703125 113.5625 83.371094 C 113.648438 82.871094 112.984375 82.542969 112.734375 82.292969 C 112.484375 82.542969 111.738281 82.542969 111.902344 83.121094 " fill-opacity="1" fill-rule="nonzero"/><path fill="#fcedd4" d="M 110.570312 83.703125 C 110.820312 84.285156 110.738281 85.699219 111.738281 85.363281 C 112.152344 84.703125 111.238281 84.203125 111.070312 83.535156 C 110.902344 83.535156 110.652344 83.535156 110.570312 83.703125 " fill-opacity="1" fill-rule="nonzero"/><path fill="#fcedd4" d="M 113.5625 85.53125 C 114.3125 85.53125 114.480469 84.535156 114.644531 83.953125 L 114.480469 83.785156 C 114.144531 84.285156 113.152344 84.953125 113.5625 85.53125 " fill-opacity="1" fill-rule="nonzero"/><path fill="#fcedd4" d="M 111.984375 86.53125 C 111.984375 86.863281 112.234375 87.03125 112.570312 87.195312 C 112.820312 87.113281 112.984375 86.945312 113.0625 86.78125 C 113.152344 86.449219 112.902344 86.199219 112.652344 86.03125 C 112.320312 85.949219 112.152344 86.28125 111.984375 86.53125 " fill-opacity="1" fill-rule="nonzero"/><path fill="#fcedd4" d="M 111.902344 88.941406 C 111.984375 89.191406 112.152344 89.441406 112.484375 89.523438 C 112.652344 89.523438 112.734375 89.273438 112.820312 89.191406 L 112.570312 88.523438 C 112.320312 88.441406 111.984375 88.609375 111.902344 88.941406 " fill-opacity="1" fill-rule="nonzero"/><path fill="#fcedd4" d="M 118.632812 104.988281 L 118.214844 106.402344 C 118.714844 106.816406 118.882812 106.234375 119.132812 105.902344 C 119.546875 104.742188 119.964844 103.492188 121.046875 102.578125 C 121.292969 102.492188 121.875 102.328125 122.125 102.660156 C 122.957031 103.824219 123.375 105.152344 124.117188 106.320312 C 124.535156 105.984375 124.035156 105.402344 124.035156 104.902344 C 123.207031 103.574219 122.792969 101.992188 121.707031 100.832031 C 120.046875 101.582031 119.632812 103.574219 118.632812 104.988281 " fill-opacity="1" fill-rule="nonzero"/><path fill="#fcedd4" d="M 120.296875 105.488281 C 120.132812 106.152344 119.632812 106.902344 119.714844 107.5625 C 120.214844 107.8125 121.125 107.8125 121.214844 108.648438 C 121.046875 109.0625 121.375 109.394531 121.625 109.730469 L 121.875 109.730469 C 121.707031 108.730469 122.292969 107.8125 123.125 107.402344 C 122.875 106.070312 122.207031 104.902344 121.625 103.660156 C 120.796875 103.90625 120.632812 104.820312 120.296875 105.488281 " fill-opacity="1" fill-rule="nonzero"/><path fill="#fcedd4" d="M 125.285156 104.652344 C 125.199219 105.152344 125.367188 105.734375 125.867188 105.902344 C 126.445312 105.984375 126.695312 105.652344 126.945312 105.238281 C 127.195312 104.742188 126.695312 104.324219 126.367188 103.992188 C 125.867188 104.074219 125.449219 104.242188 125.285156 104.652344 " fill-opacity="1" fill-rule="nonzero"/><path fill="#fcedd4" d="M 116.058594 104.652344 C 116.058594 105.070312 116.390625 105.402344 116.722656 105.652344 C 117.136719 105.652344 117.304688 105.238281 117.386719 104.902344 C 117.304688 104.652344 117.304688 104.242188 116.972656 104.15625 C 116.554688 103.992188 116.140625 104.242188 116.058594 104.652344 " fill-opacity="1" fill-rule="nonzero"/><path fill="#fcedd4" d="M 126.367188 107.652344 L 126.117188 108.8125 C 124.867188 109.0625 126.035156 106.734375 124.535156 107.234375 C 124.285156 108.730469 126.117188 109.972656 124.867188 111.390625 C 124.117188 111.308594 124.703125 110.3125 124.367188 109.894531 C 124.117188 109.394531 123.953125 108.648438 123.375 108.480469 C 122.957031 108.480469 122.792969 108.980469 122.875 109.3125 C 123.953125 110.890625 125.449219 112.472656 125.199219 114.46875 C 125.117188 114.632812 124.867188 114.714844 124.703125 114.632812 C 124.453125 114.050781 124.453125 113.46875 124.203125 112.882812 C 123.707031 112.140625 123.289062 110.972656 122.457031 110.808594 L 122.375 111.140625 C 123.875 113.21875 125.117188 115.464844 125.449219 117.960938 C 125.285156 118.125 125.035156 118.292969 124.867188 118.125 C 124.203125 116.292969 123.625 114.46875 122.292969 113.132812 C 122.125 113.550781 122.207031 114.132812 122.207031 114.632812 C 122.792969 114.632812 123.375 115.214844 123.457031 115.714844 C 123.707031 116.542969 123.375 117.210938 123.039062 117.792969 C 121.707031 118.542969 123.625 119.121094 123.625 119.953125 C 123.707031 120.285156 124.035156 120.535156 124.453125 120.453125 C 125.199219 120.203125 126.117188 119.539062 126.277344 118.789062 C 127.113281 115.464844 124.535156 112.054688 126.367188 108.730469 C 126.777344 108.0625 127.027344 107.3125 127.777344 106.816406 C 127.363281 106.320312 126.277344 106.816406 126.367188 107.652344 " fill-opacity="1" fill-rule="nonzero"/><path fill="#fcedd4" d="M 116.222656 106.902344 C 119.296875 109.394531 117.386719 113.550781 117.136719 116.878906 C 117.136719 118.125 117.554688 119.371094 118.554688 120.121094 C 118.882812 120.285156 119.214844 120.621094 119.714844 120.621094 L 121.625 118.460938 C 121.707031 118.042969 121.046875 118.125 120.714844 117.875 C 120.132812 117.378906 119.714844 116.628906 120.046875 115.882812 C 120.296875 115.300781 120.632812 114.964844 121.214844 114.714844 C 121.292969 114.050781 120.964844 113.46875 121.125 112.882812 C 120.296875 113.300781 120.046875 114.46875 119.546875 115.214844 L 118.882812 118.210938 C 118.800781 118.292969 118.554688 118.375 118.382812 118.292969 C 117.972656 117.625 118.136719 116.628906 118.304688 115.882812 C 118.964844 114.214844 119.632812 112.472656 121.125 111.140625 C 121.125 110.808594 121.125 110.472656 120.796875 110.390625 C 119.632812 110.722656 119.546875 112.222656 118.882812 112.972656 C 118.632812 113.050781 118.554688 112.882812 118.464844 112.804688 C 118.382812 111.308594 119.296875 110.222656 120.132812 109.0625 C 120.214844 108.730469 119.964844 108.648438 119.714844 108.5625 C 118.964844 108.730469 119.214844 110.0625 118.304688 109.894531 C 117.886719 109.0625 119.382812 108.0625 118.304688 107.402344 C 117.972656 107.480469 117.636719 107.8125 117.304688 107.730469 C 117.136719 107.234375 116.890625 106.652344 116.222656 106.902344 " fill-opacity="1" fill-rule="nonzero"/><path fill="#fcedd4" d="M 120.546875 122.28125 L 123.289062 122.363281 C 123.375 121.453125 122.707031 120.535156 122.292969 119.703125 C 122.042969 119.371094 121.625 119.789062 121.542969 120.039062 C 121.046875 120.703125 120.296875 121.371094 120.546875 122.28125 " fill-opacity="1" fill-rule="nonzero"/><path fill="#fcedd4" d="M 119.382812 123.613281 L 119.382812 123.695312 C 121.046875 123.78125 122.707031 124.28125 124.285156 123.78125 L 124.203125 123.445312 C 122.707031 123.53125 120.875 123.199219 119.382812 123.613281 " fill-opacity="1" fill-rule="nonzero"/><path fill="#fcedd4" d="M 117.636719 125.691406 C 117.472656 126.273438 117.804688 126.773438 118.304688 126.941406 L 125.035156 126.941406 C 125.285156 126.773438 125.617188 126.523438 125.699219 126.191406 C 125.699219 125.773438 125.449219 125.191406 124.949219 125.109375 C 122.792969 124.773438 120.714844 125.191406 118.632812 124.941406 C 118.214844 124.859375 117.804688 125.359375 117.636719 125.691406 " fill-opacity="1" fill-rule="nonzero"/><path fill="#fcedd4" d="M 119.132812 128.601562 C 120.714844 128.851562 122.207031 128.683594 123.875 128.683594 L 124.035156 128.433594 C 122.542969 128.183594 120.714844 128.101562 119.132812 128.351562 L 119.132812 128.601562 " fill-opacity="1" fill-rule="nonzero"/></svg>