<svg xmlns="http://www.w3.org/2000/svg" xmlns:xlink="http://www.w3.org/1999/xlink" width="175" zoomAndPan="magnify" viewBox="0 0 131.25 131.249998" height="175" preserveAspectRatio="xMidYMid meet" version="1.0"><defs><clipPath id="ed0c6c1bf0"><path d="M 0.652344 0 L 129.664062 0 L 129.664062 130 L 0.652344 130 Z M 0.652344 0 " clip-rule="nonzero"/></clipPath></defs><g clip-path="url(#ed0c6c1bf0)"><path fill="#2f5982" d="M 21.179688 126.539062 L 101.550781 126.539062 C 102.382812 126.699219 103.542969 125.953125 104.125 126.78125 C 104.625 127.449219 105.453125 128.113281 106.371094 127.78125 C 106.953125 128.363281 107.453125 129.28125 108.363281 129.109375 C 108.613281 128.113281 109.195312 127.117188 110.195312 126.617188 C 113.355469 124.871094 116.347656 127.699219 119.585938 126.78125 C 120.667969 126.371094 121.746094 125.871094 122.496094 124.789062 C 122.660156 125.289062 122.992188 125.789062 123.578125 125.789062 C 124.738281 125.453125 125.238281 127.449219 126.570312 126.78125 C 127.230469 126.699219 127.730469 126.121094 128.0625 125.539062 C 128.5625 125.289062 129.3125 125.703125 129.640625 125.207031 C 129.640625 122.960938 129.808594 120.382812 129.722656 118.050781 C 129.144531 117.972656 127.980469 118.140625 127.980469 117.140625 C 127.5625 116.558594 126.902344 116.558594 126.320312 116.558594 C 124.90625 116.308594 124.90625 118.050781 123.828125 118.21875 C 123.410156 118.21875 123.160156 118.550781 122.828125 118.800781 C 122.410156 117.722656 121.417969 116.558594 120.167969 116.140625 C 116.507812 115.480469 112.273438 117.972656 109.113281 115.480469 C 108.613281 115.140625 108.78125 114.5625 108.363281 114.230469 C 107.617188 114.3125 107.453125 115.0625 106.953125 115.558594 C 106.285156 115.558594 105.542969 115.480469 104.960938 115.808594 L 104.460938 116.558594 L 84.425781 116.640625 C 84.34375 116.558594 84.175781 116.558594 84.175781 116.472656 C 85.007812 115.808594 86.257812 115.558594 87.253906 114.8125 C 88.085938 113.648438 89.085938 115.640625 89.996094 114.5625 C 90.578125 114.148438 90.660156 113.480469 90.496094 112.898438 C 90.328125 112.402344 89.828125 112.234375 89.417969 112.152344 C 88.835938 112.070312 88.253906 112.234375 87.835938 112.570312 C 86.175781 111.820312 84.675781 110.652344 82.933594 110.152344 C 82.433594 109.820312 82.765625 109.160156 82.183594 108.992188 C 81.515625 109.242188 81.105469 110.070312 80.441406 110.402344 C 79.523438 110.820312 78.445312 111.238281 77.945312 112.234375 C 77.113281 111.984375 75.953125 111.738281 75.285156 112.480469 C 74.871094 111.738281 75.121094 110.902344 74.953125 109.988281 C 66.726562 109.988281 57.003906 110.902344 51.433594 103.753906 C 49.105469 101.261719 47.859375 98.269531 47.441406 95.023438 C 47.941406 95.023438 48.605469 95.273438 49.105469 95.359375 L 49.933594 95.359375 C 50.351562 96.769531 50.101562 98.269531 49.933594 99.597656 C 50.019531 99.84375 50.351562 99.761719 50.515625 99.761719 C 51.265625 98.679688 52.015625 97.351562 53.34375 96.851562 C 54.175781 97.433594 55.335938 97.601562 56.417969 97.351562 C 57.335938 97.183594 57.496094 96.1875 57.746094 95.441406 C 57.746094 94.773438 57.417969 94.023438 56.753906 93.691406 C 56.167969 93.609375 55.585938 93.441406 55.085938 93.773438 C 54.675781 92.78125 55.085938 91.53125 54.84375 90.53125 C 54.675781 88.621094 53.59375 87.125 52.265625 85.792969 C 53.34375 85.210938 54.257812 84.132812 55.671875 84.132812 C 55.921875 83.882812 55.585938 83.714844 55.421875 83.550781 C 54.425781 82.882812 53.34375 82.21875 52.34375 81.554688 C 53.425781 79.972656 53.34375 77.8125 54.34375 76.152344 L 54.257812 75.984375 C 52.265625 76.398438 50.183594 76.5625 48.523438 77.8125 C 47.941406 76.480469 46.941406 75.234375 46.195312 73.988281 C 45.113281 74.734375 44.867188 75.984375 44.203125 77.0625 C 42.207031 75.570312 39.710938 75.152344 37.21875 75.234375 C 37.050781 74.820312 37.300781 74.238281 37.21875 73.738281 C 37.136719 73.160156 36.71875 72.492188 36.21875 72.324219 C 35.308594 72.078125 34.144531 71.910156 33.480469 72.742188 C 32.816406 73.324219 32.484375 74.070312 32.648438 74.988281 C 32.730469 75.902344 34.058594 76.320312 33.726562 77.3125 C 32.980469 78.3125 31.898438 79.230469 31.066406 79.972656 C 31.484375 80.804688 32.316406 79.808594 33.066406 80.058594 L 34.890625 80.222656 L 35.640625 82.300781 C 29.738281 81.800781 24.585938 77.398438 22.59375 71.824219 C 21.011719 66.503906 21.511719 60.519531 21.511719 54.78125 C 20.929688 54.28125 19.933594 54.78125 19.183594 54.363281 C 19.683594 53.703125 19.683594 52.453125 19.351562 51.789062 C 20.59375 50.625 20.761719 48.542969 22.507812 48.050781 C 22.425781 47.382812 21.511719 47.300781 21.011719 46.96875 C 20.511719 45.472656 19.851562 44.054688 19.019531 42.644531 C 19.351562 42.144531 19.601562 41.5625 19.351562 40.898438 C 19.101562 40.398438 18.601562 40.3125 18.101562 40.152344 C 17.523438 40.0625 16.855469 40.398438 16.773438 41.0625 L 17.023438 42.5625 C 15.691406 43.808594 15.109375 45.382812 14.445312 46.96875 L 14.199219 46.800781 C 14.113281 40.3125 14.03125 33.996094 14.199219 27.679688 C 15.03125 26.929688 15.691406 26.179688 15.359375 25.015625 C 15.609375 24.433594 16.523438 24.351562 16.605469 23.601562 C 15.441406 23.601562 14.53125 22.855469 14.03125 21.941406 C 12.121094 17.703125 16.773438 12.378906 12.617188 8.972656 L 11.453125 8.140625 C 11.621094 7.804688 12.121094 8.140625 12.371094 7.890625 L 12.449219 6.640625 C 13.117188 6.226562 13.863281 5.5625 14.03125 4.8125 C 14.199219 3.980469 13.863281 3.234375 13.28125 2.734375 C 12.449219 2.402344 12.867188 1.320312 12.699219 0.574219 L 12.449219 0.40625 L 5.304688 0.40625 L 5.136719 2.320312 C 4.386719 2.734375 3.640625 3.5625 3.640625 4.480469 C 3.558594 5.394531 4.308594 5.976562 4.96875 6.394531 C 5.136719 6.972656 4.71875 8.054688 5.554688 8.140625 C 3.890625 9.132812 2.726562 10.964844 2.894531 13.042969 C 3.390625 16.453125 5.304688 21.109375 1.398438 23.273438 C 0.984375 23.441406 1.316406 23.851562 1.398438 24.101562 C 1.648438 24.519531 2.058594 24.769531 2.558594 24.851562 L 2.644531 26.261719 L 3.476562 27.84375 L 3.476562 73.652344 L 3.390625 107.828125 C 1.476562 110.152344 0.648438 113.148438 0.984375 116.308594 C 1.398438 117.222656 1.316406 118.300781 1.976562 119.050781 C 1.066406 121.628906 1.066406 124.957031 1.398438 127.78125 C 3.476562 128.78125 6.050781 128.113281 8.296875 128.113281 L 10.539062 127.617188 C 13.699219 130.109375 18.351562 129.03125 21.179688 126.539062 " fill-opacity="1" fill-rule="nonzero"/></g><path fill="#fcedd4" d="M 20.015625 126.289062 C 19.765625 125.453125 19.265625 126.449219 18.765625 126.371094 C 16.855469 127.199219 14.363281 127.449219 12.371094 126.78125 C 12.203125 126.867188 11.953125 126.867188 11.953125 127.03125 C 13.199219 128.03125 14.941406 128.363281 16.605469 127.949219 C 17.851562 127.699219 19.019531 127.199219 20.015625 126.289062 " fill-opacity="1" fill-rule="nonzero"/><path fill="#fcedd4" d="M 14.363281 122.960938 C 15.441406 121.546875 15.359375 119.96875 15.609375 118.300781 L 15.441406 117.890625 L 15.109375 118.140625 C 14.613281 120.800781 13.863281 123.789062 11.121094 125.121094 C 9.210938 126.449219 6.800781 126.289062 4.636719 126.617188 C 3.890625 126.449219 2.726562 126.867188 2.558594 125.789062 C 2.226562 121.878906 3.890625 117.722656 7.628906 115.640625 C 8.710938 114.730469 10.371094 115.140625 11.539062 114.480469 L 11.207031 114.230469 C 8.796875 114.0625 6.46875 114.8125 4.886719 116.558594 C 2.144531 119.300781 1.726562 123.460938 2.394531 127.03125 C 6.800781 128.03125 11.871094 127.199219 14.363281 122.960938 " fill-opacity="1" fill-rule="nonzero"/><path fill="#fcedd4" d="M 117.507812 125.871094 C 118.917969 125.789062 120.75 125.453125 121.167969 123.878906 C 120.335938 123.378906 119.007812 122.878906 118.757812 121.710938 C 119.007812 120.46875 120.417969 119.632812 121.25 119.050781 C 118.589844 114.894531 113.515625 118.886719 109.863281 116.972656 L 108.035156 116.222656 C 107.867188 116.558594 107.953125 116.808594 108.117188 117.058594 C 108.53125 117.304688 109.28125 116.972656 109.445312 117.558594 C 109.445312 117.972656 108.863281 118.300781 109.195312 118.71875 C 110.113281 118.636719 110.945312 117.140625 111.855469 117.972656 C 111.441406 118.800781 109.945312 118.96875 110.027344 120.050781 C 111.773438 120.632812 112.523438 117.640625 114.433594 118.386719 C 114.265625 119.21875 113.105469 119.382812 112.6875 120.050781 C 112.605469 120.214844 112.355469 120.382812 112.4375 120.632812 C 114.265625 119.300781 116.175781 118.140625 118.421875 117.890625 C 118.675781 117.972656 118.917969 117.972656 119.085938 118.300781 C 118.839844 118.96875 117.757812 118.550781 117.175781 119.050781 C 116.015625 119.382812 114.765625 120.050781 114.097656 121.128906 C 115.429688 122.046875 115.515625 120.050781 116.675781 120.132812 C 117.425781 120.132812 118.089844 120.46875 118.339844 121.210938 C 118.339844 121.878906 118.257812 122.378906 117.839844 122.878906 C 117.425781 123.210938 116.84375 123.460938 116.347656 123.210938 C 115.429688 122.878906 115.265625 121.710938 114.015625 122.128906 C 114.765625 123.878906 116.84375 124.121094 118.589844 124.539062 C 118.675781 124.707031 119.007812 124.871094 118.757812 125.121094 C 116.175781 125.621094 113.933594 124.121094 112.1875 122.046875 C 111.941406 122.128906 111.773438 122.292969 111.605469 122.460938 C 111.855469 123.789062 113.4375 123.542969 113.933594 124.539062 C 114.015625 124.957031 113.515625 124.957031 113.1875 124.957031 C 112.105469 124.457031 111.105469 123.710938 110.363281 122.710938 C 110.113281 122.542969 109.695312 122.542969 109.613281 122.960938 C 109.53125 123.878906 110.613281 124.121094 111.191406 124.539062 C 111.191406 124.789062 111.023438 124.957031 110.863281 125.121094 C 110.113281 124.957031 109.445312 124.707031 108.863281 124.207031 C 108.695312 124.289062 108.453125 124.371094 108.453125 124.539062 L 109.28125 125.703125 C 108.78125 126.289062 107.785156 125.789062 107.453125 126.699219 C 107.367188 126.949219 107.367188 127.28125 107.535156 127.449219 C 110.027344 124.457031 114.347656 125.121094 117.507812 125.871094 " fill-opacity="1" fill-rule="nonzero"/><path fill="#fcedd4" d="M 106.703125 126.039062 C 106.785156 125.539062 106.285156 125.453125 105.953125 125.289062 C 105.542969 125.289062 105.207031 125.539062 105.125 125.953125 C 105.125 126.289062 105.375 126.539062 105.792969 126.699219 C 106.203125 126.78125 106.535156 126.371094 106.703125 126.039062 " fill-opacity="1" fill-rule="nonzero"/><path fill="#fcedd4" d="M 103.628906 125.539062 L 104.792969 124.539062 L 104.210938 124.539062 C 104.210938 124.539062 20.511719 124.539062 20.511719 124.457031 C 20.34375 124.957031 20.761719 125.289062 21.09375 125.539062 L 103.628906 125.539062 " fill-opacity="1" fill-rule="nonzero"/><path fill="#fcedd4" d="M 5.96875 124.039062 C 6.46875 124.371094 5.800781 124.707031 5.96875 125.121094 C 6.21875 124.457031 6.46875 123.621094 7.128906 123.210938 C 7.464844 123.128906 7.710938 123.460938 7.710938 123.710938 C 7.960938 123.292969 8.046875 122.460938 8.710938 122.378906 L 9.128906 122.628906 C 9.378906 122.378906 9.292969 121.878906 9.710938 121.792969 C 9.957031 121.710938 10.125 121.960938 10.207031 122.128906 L 10.207031 122.292969 C 10.957031 121.878906 10.371094 119.96875 11.703125 120.550781 C 11.871094 120.214844 12.039062 119.800781 12.449219 119.800781 C 12.699219 119.71875 12.867188 120.050781 12.949219 120.300781 C 12.78125 120.878906 12.203125 121.710938 12.617188 122.128906 C 13.53125 121.296875 13.699219 119.800781 13.863281 118.550781 L 13.699219 118.386719 C 12.699219 118.636719 11.621094 119.132812 10.621094 118.96875 C 10.539062 118.050781 10.871094 116.972656 10.871094 116.058594 C 9.628906 116.058594 8.296875 116.472656 7.378906 117.222656 C 7.796875 118.140625 9.710938 116.808594 9.460938 118.140625 L 9.042969 118.46875 C 8.128906 118.386719 7.046875 118.636719 6.21875 118.386719 C 5.96875 118.550781 6.300781 118.800781 6.386719 118.886719 C 7.046875 119.21875 7.878906 118.46875 8.378906 119.132812 C 8.460938 119.550781 7.546875 119.550781 7.960938 120.050781 C 7.378906 120.878906 6.21875 120.960938 5.136719 121.046875 C 4.96875 121.046875 4.636719 120.878906 4.46875 121.046875 L 4.386719 121.210938 C 5.304688 121.628906 6.632812 120.382812 7.378906 121.378906 C 6.550781 122.128906 5.304688 122.046875 4.226562 122.292969 C 4.636719 122.710938 5.386719 122.210938 5.886719 122.128906 C 6.21875 122.210938 6.46875 122.292969 6.632812 122.628906 C 6.300781 123.710938 2.894531 122.710938 4.71875 124.289062 C 4.636719 124.707031 3.890625 124.789062 4.058594 125.289062 C 4.308594 125.371094 4.554688 125.539062 4.71875 125.207031 C 4.886719 124.707031 5.304688 123.710938 5.96875 124.039062 " fill-opacity="1" fill-rule="nonzero"/><path fill="#fcedd4" d="M 15.359375 123.292969 C 14.941406 124.039062 13.949219 124.621094 13.699219 125.371094 C 14.53125 124.871094 14.941406 124.039062 15.359375 123.292969 " fill-opacity="1" fill-rule="nonzero"/><path fill="#fcedd4" d="M 15.941406 124.457031 C 15.773438 124.539062 15.441406 124.957031 15.359375 125.289062 L 15.941406 124.457031 " fill-opacity="1" fill-rule="nonzero"/><path fill="#fcedd4" d="M 126.902344 124.957031 L 127.316406 118.386719 C 127.148438 118.050781 126.980469 117.722656 126.652344 117.640625 C 126.238281 117.972656 125.570312 117.640625 125.402344 118.386719 C 125.320312 120.800781 125.070312 123.042969 125.402344 125.371094 C 125.820312 126.039062 126.820312 125.621094 126.902344 124.957031 " fill-opacity="1" fill-rule="nonzero"/><path fill="#fcedd4" d="M 19.101562 124.871094 C 17.683594 122.292969 20.183594 119.21875 17.933594 117.140625 C 15.773438 116.808594 17.105469 119.382812 16.441406 120.382812 L 16.109375 121.628906 C 16.359375 121.546875 16.605469 120.710938 17.191406 121.046875 C 17.601562 122.210938 16.523438 122.878906 16.191406 123.878906 C 16.855469 123.292969 16.855469 122.046875 17.769531 121.792969 C 18.351562 122.210938 17.683594 122.792969 17.769531 123.460938 C 17.933594 123.292969 18.183594 123.128906 18.433594 123.378906 C 18.519531 124.039062 17.933594 124.621094 18.351562 125.207031 C 18.683594 125.289062 18.933594 125.039062 19.101562 124.871094 " fill-opacity="1" fill-rule="nonzero"/><path fill="#fcedd4" d="M 17.355469 124.371094 L 16.941406 125.121094 L 17.355469 124.457031 Z M 17.355469 124.371094 " fill-opacity="1" fill-rule="nonzero"/><path fill="#fcedd4" d="M 7.710938 123.789062 C 7.464844 124.121094 7.128906 124.371094 7.214844 124.871094 C 7.378906 124.539062 7.628906 124.207031 7.710938 123.789062 " fill-opacity="1" fill-rule="nonzero"/><path fill="#fcedd4" d="M 8.628906 123.878906 C 8.628906 124.121094 8.210938 124.371094 8.460938 124.621094 L 8.628906 123.878906 " fill-opacity="1" fill-rule="nonzero"/><path fill="#fcedd4" d="M 15.941406 124.289062 L 16.023438 124.371094 L 16.109375 124.207031 L 15.941406 124.289062 " fill-opacity="1" fill-rule="nonzero"/><path fill="#fcedd4" d="M 124.160156 124.371094 C 124.320312 122.628906 124.238281 120.960938 124.238281 119.21875 L 124.160156 119.132812 C 123.328125 120.632812 123.742188 122.710938 123.578125 124.457031 L 123.828125 124.789062 L 124.160156 124.371094 " fill-opacity="1" fill-rule="nonzero"/><path fill="#fcedd4" d="M 128.644531 119.46875 L 128.480469 119.21875 L 128.148438 119.550781 L 128.0625 124.039062 L 128.3125 124.371094 L 128.5625 124.039062 L 128.644531 119.46875 " fill-opacity="1" fill-rule="nonzero"/><path fill="#fcedd4" d="M 107.617188 123.957031 C 106.371094 122.960938 104.542969 122.628906 103.378906 121.460938 C 104.125 120.214844 105.703125 120.050781 106.953125 119.382812 C 107.203125 119.46875 107.285156 119.21875 107.535156 119.132812 C 105.871094 119.46875 103.960938 120.214844 102.550781 121.460938 C 103.878906 122.792969 105.625 123.460938 107.285156 124.207031 C 107.453125 124.289062 107.535156 124.039062 107.617188 123.957031 " fill-opacity="1" fill-rule="nonzero"/><path fill="#fcedd4" d="M 11.371094 122.378906 C 11.121094 122.628906 10.957031 123.128906 11.121094 123.460938 C 11.289062 123.210938 11.453125 122.792969 11.371094 122.378906 " fill-opacity="1" fill-rule="nonzero"/><path fill="#fcedd4" d="M 101.132812 123.542969 L 102.464844 123.128906 L 101.964844 122.710938 C 83.765625 122.628906 20.183594 122.710938 20.183594 122.710938 C 19.851562 122.710938 19.933594 123.378906 20.101562 123.460938 C 19.933594 123.542969 101.132812 123.542969 101.132812 123.542969 " fill-opacity="1" fill-rule="nonzero"/><path fill="#fcedd4" d="M 15.941406 122.128906 L 15.609375 122.792969 L 15.941406 122.292969 Z M 15.941406 122.128906 " fill-opacity="1" fill-rule="nonzero"/><path fill="#fcedd4" d="M 122.660156 120.214844 C 122.078125 120.050781 121.332031 120.214844 120.835938 120.550781 C 120.5 120.960938 119.835938 121.128906 119.917969 121.792969 C 120.667969 122.628906 121.578125 122.960938 122.578125 123.042969 L 122.660156 120.214844 " fill-opacity="1" fill-rule="nonzero"/><path fill="#fcedd4" d="M 109.195312 122.046875 C 109.695312 121.460938 110.527344 121.878906 111.105469 121.296875 C 110.863281 120.960938 110.363281 121.460938 110.113281 121.128906 C 109.53125 120.960938 109.113281 120.46875 108.695312 119.96875 C 107.367188 120.214844 106.121094 120.632812 105.042969 121.378906 C 105.953125 122.292969 107.367188 122.460938 108.613281 122.792969 L 109.195312 122.046875 " fill-opacity="1" fill-rule="nonzero"/><path fill="#fcedd4" d="M 58.996094 120.632812 C 60.078125 119.300781 59.328125 117.640625 58.828125 116.308594 C 58.914062 115.972656 59.246094 115.972656 59.496094 116.140625 C 60.488281 117.640625 60.738281 119.632812 62.652344 120.382812 C 64.398438 121.378906 66.726562 121.128906 68.300781 120.132812 C 69.300781 119.46875 69.300781 118.21875 69.050781 117.222656 C 68.636719 116.390625 67.722656 116.140625 66.890625 116.140625 C 66.476562 116.308594 65.808594 116.390625 65.558594 116.890625 C 65.558594 117.304688 65.3125 117.800781 65.726562 118.140625 C 66.226562 118.300781 66.808594 118.800781 67.308594 118.300781 C 68.058594 118.050781 67.226562 116.808594 68.21875 116.972656 C 68.636719 117.390625 68.800781 118.140625 68.46875 118.636719 C 68.390625 119.21875 67.722656 119.382812 67.308594 119.632812 C 62.988281 119.632812 60.738281 114.730469 56.585938 114.398438 C 51.183594 113.8125 47.273438 117.558594 43.039062 120.214844 C 42.371094 120.382812 41.621094 120.878906 40.878906 120.550781 C 40.628906 120.214844 41.042969 119.882812 41.292969 119.800781 C 42.871094 119.632812 43.953125 118.21875 45.113281 117.222656 C 47.113281 115.390625 47.523438 112.570312 47.273438 110.070312 C 46.613281 107.242188 44.371094 105.082031 42.871094 102.671875 C 41.460938 100.429688 38.96875 98.269531 39.710938 95.273438 C 40.128906 94.523438 40.878906 93.941406 41.789062 94.023438 C 42.207031 94.023438 42.621094 94.359375 42.789062 94.773438 C 42.703125 95.9375 41.210938 94.609375 41.042969 95.851562 C 40.960938 96.351562 41.210938 96.769531 41.621094 97.019531 C 42.457031 97.183594 43.039062 96.683594 43.371094 96.101562 C 43.453125 95.273438 43.371094 94.441406 42.703125 93.859375 C 41.957031 93.441406 41.125 93.03125 40.210938 93.359375 C 39.128906 93.859375 38.300781 94.691406 37.71875 95.769531 C 37.550781 96.769531 37.46875 98.101562 38.382812 98.847656 C 38.632812 98.929688 38.878906 99.097656 38.96875 99.347656 C 39.050781 99.761719 38.550781 100.011719 38.300781 100.011719 C 38.050781 100.011719 37.71875 100.011719 37.636719 100.34375 C 38.132812 101.921875 39.960938 101.921875 41.210938 102.753906 C 41.460938 103.421875 42.457031 103.839844 42.289062 104.667969 C 43.289062 105 44.371094 105.5 44.617188 106.582031 L 44.78125 107.828125 C 45.613281 108.160156 46.195312 108.824219 46.363281 109.738281 C 46.445312 110.488281 46.28125 111.152344 45.78125 111.652344 C 45.53125 111.820312 45.113281 111.820312 44.867188 111.652344 C 44.53125 110.902344 45.863281 110.402344 45.28125 109.492188 C 44.867188 108.410156 43.203125 109.738281 43.453125 108.160156 C 43.371094 108.160156 43.121094 108.660156 42.789062 108.410156 C 42.289062 108.160156 42.621094 107.492188 42.121094 107.242188 C 41.710938 107.242188 41.710938 107.742188 41.710938 107.992188 C 41.710938 108.578125 42.703125 109.160156 41.871094 109.570312 C 41.292969 109.570312 40.960938 108.992188 40.710938 108.492188 C 40.542969 107.828125 40.792969 107.078125 41.042969 106.5 C 41.460938 106.082031 42.039062 106 42.539062 106.164062 C 43.203125 106.5 43.453125 107.242188 43.539062 107.992188 C 43.953125 107.492188 43.703125 106.75 43.453125 106.332031 C 42.789062 105.5 41.378906 106.082031 41.125 104.832031 C 41.042969 104.082031 40.210938 103.671875 39.628906 103.421875 C 39.210938 103.253906 38.632812 103.421875 38.132812 103.503906 C 37.71875 103.753906 37.46875 104.667969 36.886719 104.171875 C 36.636719 103.421875 35.972656 103.003906 35.390625 102.753906 C 34.558594 102.589844 33.808594 102.671875 33.148438 103.003906 C 32.148438 103.671875 32.148438 104.75 32.398438 105.667969 C 32.648438 105.914062 32.816406 106.25 32.566406 106.5 C 32.148438 107.078125 31.484375 106.582031 30.988281 106.910156 C 30.070312 107.578125 29.324219 108.578125 29.65625 109.738281 C 29.824219 110.320312 30.238281 110.902344 30.816406 111.152344 C 31.316406 111.152344 31.898438 111.152344 32.148438 111.652344 C 31.734375 112.402344 31.316406 113.3125 31.816406 114.148438 C 31.898438 115.140625 32.898438 115.640625 33.648438 115.972656 C 34.644531 116.140625 35.640625 115.808594 36.308594 115.140625 C 36.886719 115.726562 36.96875 116.808594 37.96875 116.972656 C 39.128906 117.058594 40.292969 116.722656 40.960938 115.640625 C 41.125 115.308594 40.960938 114.894531 40.878906 114.5625 C 39.796875 114.8125 38.71875 114.148438 38.382812 113.148438 C 38.132812 112.402344 38.300781 111.570312 38.800781 110.902344 C 39.128906 110.070312 40.210938 110.070312 40.878906 110.238281 C 42.207031 110.402344 43.039062 111.570312 43.371094 112.730469 C 43.539062 114.5625 43.039062 116.722656 41.125 117.722656 C 39.378906 119.300781 37.050781 119.050781 34.726562 118.800781 L 31.816406 117.472656 C 28.246094 114.8125 26.914062 110.652344 28.15625 106.414062 C 28.742188 104.339844 29.988281 102.421875 31.316406 100.679688 C 31.066406 99.679688 30.15625 98.761719 29.238281 98.269531 C 28.40625 98.761719 27.578125 99.679688 26.746094 100.261719 C 24.085938 102.671875 19.433594 102.839844 16.441406 101.171875 C 13.28125 99.429688 11.289062 96.019531 11.703125 92.449219 C 12.121094 90.53125 13.199219 88.703125 14.941406 87.621094 C 15.859375 87.125 17.105469 87.125 17.933594 87.539062 C 18.601562 87.871094 19.433594 88.539062 19.683594 89.289062 C 20.015625 89.953125 19.851562 90.863281 19.433594 91.449219 C 18.933594 92.03125 18.351562 92.28125 17.683594 92.113281 C 16.941406 91.949219 16.273438 91.53125 15.859375 90.863281 C 15.691406 90.53125 15.773438 90.121094 15.441406 89.953125 C 14.863281 90.199219 14.113281 90.28125 13.78125 90.949219 C 13.53125 91.449219 13.53125 92.199219 13.78125 92.691406 C 13.949219 93.359375 15.191406 93.691406 14.613281 94.441406 C 13.78125 94.773438 13.78125 95.691406 13.949219 96.4375 C 14.363281 97.519531 15.441406 98.183594 16.523438 98.183594 C 17.523438 98.351562 18.101562 96.683594 18.851562 97.519531 C 18.351562 98.601562 19.019531 99.429688 19.683594 100.179688 C 20.433594 100.929688 21.59375 101.011719 22.425781 100.429688 C 23.421875 99.84375 23.671875 98.679688 23.585938 97.683594 C 24.171875 97.019531 24.917969 97.769531 25.664062 97.601562 C 26.414062 97.351562 27.164062 96.933594 27.414062 96.101562 C 27.828125 95.359375 27.414062 94.523438 27.246094 93.773438 C 26.828125 93.191406 25.746094 93.109375 26.082031 92.28125 C 26.582031 91.863281 27.414062 91.449219 27.246094 90.53125 C 27.246094 89.871094 26.996094 89.203125 26.496094 88.703125 C 25.996094 87.953125 24.753906 88.703125 24.503906 87.707031 C 24.585938 86.875 24.171875 86.128906 23.585938 85.628906 C 23.003906 85.296875 22.09375 85.296875 21.425781 85.460938 C 21.011719 84.960938 20.59375 84.460938 19.851562 84.460938 C 19.101562 84.300781 18.519531 86.542969 18.183594 84.878906 C 18.269531 84.382812 18.765625 83.882812 19.183594 83.714844 C 20.34375 83.132812 21.34375 83.882812 22.261719 84.460938 C 23.339844 84.300781 24.171875 85.046875 24.835938 85.792969 L 25.585938 87.042969 C 26.496094 87.460938 27.664062 88.121094 28.078125 89.203125 C 28.742188 90.371094 28.15625 92.613281 29.988281 92.78125 C 30.488281 92.363281 29.824219 91.363281 30.738281 91.28125 C 31.816406 91.78125 33.148438 92.113281 34.394531 91.78125 C 35.308594 91.03125 36.558594 90.28125 36.636719 88.953125 C 36.558594 88.039062 36.386719 86.960938 35.390625 86.542969 C 34.808594 86.378906 34.144531 86.378906 33.808594 86.960938 C 33.566406 87.292969 33.398438 87.789062 33.648438 88.207031 C 34.226562 89.539062 36.140625 87.042969 35.476562 89.203125 C 35.058594 89.953125 34.308594 90.28125 33.480469 90.28125 C 28.15625 89.539062 25.585938 82.96875 20.101562 82.550781 C 17.105469 82.46875 13.949219 83.382812 12.371094 86.210938 C 11.871094 87.371094 11.371094 88.453125 11.289062 89.621094 C 11.121094 89.871094 10.789062 89.953125 10.539062 89.785156 C 10.039062 88.621094 10.789062 87.539062 11.121094 86.460938 C 12.371094 83.550781 14.363281 80.804688 15.859375 77.894531 C 16.691406 75.820312 16.773438 72.492188 15.523438 70.492188 L 15.277344 69.75 C 13.53125 67.671875 10.371094 65.421875 11.621094 62.261719 C 11.871094 61.769531 12.449219 61.601562 12.867188 61.433594 C 13.53125 61.515625 14.53125 61.683594 14.53125 62.511719 C 14.199219 63.511719 13.367188 62.261719 12.867188 62.929688 C 12.617188 63.34375 12.449219 63.84375 12.699219 64.34375 C 12.949219 64.921875 13.699219 64.761719 14.113281 64.675781 C 14.695312 64.261719 15.109375 63.761719 15.109375 63.097656 C 15.277344 62.015625 14.53125 61.101562 13.53125 60.769531 C 12.289062 60.433594 11.121094 61.019531 10.207031 61.769531 C 9.628906 62.597656 9.378906 63.59375 9.460938 64.511719 C 9.871094 66.589844 11.703125 68.25 13.449219 69.332031 C 13.53125 69.5 13.613281 69.832031 13.367188 69.914062 C 12.53125 69.664062 11.371094 69.414062 10.539062 69.914062 C 9.292969 70.660156 8.878906 72.078125 8.960938 73.492188 C 9.128906 76.230469 11.621094 77.980469 11.371094 80.804688 C 12.949219 78.980469 13.613281 76.730469 13.949219 74.402344 C 13.199219 74.734375 12.121094 74.988281 11.371094 74.402344 C 10.621094 73.820312 10.457031 72.742188 10.871094 71.910156 C 11.207031 71.242188 11.871094 70.742188 12.53125 70.492188 C 13.53125 70.332031 14.28125 70.910156 14.863281 71.660156 C 16.605469 74.570312 14.695312 77.894531 13.367188 80.640625 C 10.707031 84.214844 8.960938 88.621094 9.042969 93.277344 C 9.539062 95.9375 10.125 98.519531 12.449219 100.34375 L 14.78125 101.757812 C 14.695312 103.003906 13.28125 101.921875 12.53125 102.257812 C 10.871094 102.339844 9.628906 103.921875 9.210938 105.332031 C 8.878906 106.414062 8.878906 107.578125 9.539062 108.410156 C 10.207031 109.660156 11.453125 110.070312 12.699219 110.320312 C 13.699219 110.320312 14.613281 109.902344 15.359375 109.160156 C 15.773438 108.410156 15.859375 107.410156 15.691406 106.582031 C 15.441406 106.332031 15.359375 105.914062 14.941406 105.75 C 14.941406 106.414062 15.03125 107.492188 14.199219 107.992188 C 13.699219 108.410156 12.949219 108.242188 12.371094 107.992188 C 11.703125 107.660156 11.371094 106.910156 11.453125 106.164062 C 11.453125 105.417969 12.039062 104.832031 12.53125 104.339844 C 15.941406 102.671875 20.101562 104.582031 23.503906 103.253906 C 25.503906 102.339844 27.328125 101.09375 29.074219 99.761719 C 29.488281 99.761719 29.824219 100.09375 29.988281 100.429688 C 27.746094 103.421875 26.664062 106.910156 26.332031 110.652344 C 25.914062 113.230469 27.246094 117.304688 23.835938 118.386719 C 23.09375 118.46875 22.425781 118.21875 21.925781 117.722656 C 21.425781 117.222656 21.179688 116.390625 21.511719 115.726562 C 21.675781 115.0625 22.34375 114.730469 23.003906 114.730469 C 23.585938 114.648438 24.003906 115.230469 24.421875 115.230469 C 24.503906 114.648438 24.085938 114.0625 23.503906 113.8125 C 22.675781 113.398438 21.84375 113.730469 21.09375 113.980469 C 20.261719 114.480469 19.765625 115.308594 19.601562 116.140625 C 19.351562 117.890625 20.261719 119.632812 21.84375 120.46875 C 23.253906 121.046875 25.003906 121.046875 26.332031 120.300781 C 27.078125 119.71875 27.664062 118.96875 27.910156 118.140625 C 28.15625 117.058594 27.578125 116.058594 27.328125 114.980469 C 27.414062 114.8125 27.578125 114.480469 27.828125 114.5625 C 28.90625 115.140625 28.574219 116.640625 29.40625 117.472656 C 32.148438 120.710938 36.386719 121.960938 40.542969 121.296875 C 43.453125 120.46875 46.113281 119.300781 48.691406 117.800781 C 51.265625 116.390625 53.925781 114.480469 57.167969 115.480469 C 57.835938 116.140625 58.746094 116.890625 58.578125 117.972656 C 58.578125 118.71875 58.328125 119.382812 57.585938 119.632812 C 56.835938 119.96875 55.835938 119.71875 55.253906 119.132812 C 54.675781 118.71875 54.675781 117.890625 54.84375 117.222656 C 54.925781 117.058594 55.085938 116.890625 55.003906 116.640625 C 52.59375 116.558594 50.683594 118.140625 48.773438 119.21875 C 51.597656 118.96875 53.507812 121.378906 56.253906 121.710938 C 57.417969 121.878906 58.246094 121.210938 58.996094 120.632812 " fill-opacity="1" fill-rule="nonzero"/><path fill="#fcedd4" d="M 101.550781 120.800781 C 101.882812 120.710938 102.132812 120.46875 102.300781 120.214844 L 95.816406 120.050781 L 74.785156 120.132812 L 71.710938 120.050781 L 71.460938 119.632812 L 71.378906 114.148438 L 71.210938 113.898438 C 62.820312 113.980469 54.59375 113.230469 48.855469 107.078125 C 46.195312 104.339844 44.867188 101.011719 43.621094 97.601562 C 42.953125 98.269531 43.539062 99.429688 43.703125 100.179688 C 45.449219 105.914062 50.683594 111.488281 56.585938 113.0625 C 59.160156 113.648438 61.65625 114.480469 64.480469 114.5625 L 70.050781 114.894531 L 70.382812 115.390625 L 70.464844 120.878906 L 101.550781 120.800781 " fill-opacity="1" fill-rule="nonzero"/><path fill="#fcedd4" d="M 6.46875 120.050781 C 6.300781 119.71875 5.554688 119.800781 5.21875 119.882812 C 5.46875 120.300781 6.050781 120.050781 6.46875 120.050781 " fill-opacity="1" fill-rule="nonzero"/><path fill="#fcedd4" d="M 105.125 118.636719 L 104.375 117.640625 L 101.550781 117.558594 L 74.453125 117.558594 L 74.203125 117.222656 L 73.960938 111.070312 C 65.398438 110.820312 56.003906 111.402344 50.433594 104.082031 C 46.941406 100.09375 46.113281 94.859375 45.699219 89.871094 C 45.199219 89.785156 44.53125 89.785156 44.28125 90.199219 C 43.621094 95.359375 45.363281 100.511719 48.191406 104.75 C 52.679688 110.570312 59.160156 112.980469 66.308594 112.898438 C 68.21875 112.898438 70.132812 113.0625 71.960938 112.730469 L 72.210938 112.898438 L 72.460938 119.132812 L 72.710938 119.21875 L 104.292969 119.050781 L 105.125 118.636719 " fill-opacity="1" fill-rule="nonzero"/><path fill="#fcedd4" d="M 2.394531 115.890625 C 2.144531 113.8125 2.558594 111.570312 3.726562 109.820312 C 3.640625 109.738281 3.640625 109.570312 3.476562 109.570312 C 1.726562 111.570312 1.476562 114.5625 2.226562 117.140625 L 2.558594 117.890625 C 2.976562 117.304688 2.394531 116.558594 2.394531 115.890625 " fill-opacity="1" fill-rule="nonzero"/><path fill="#fcedd4" d="M 16.773438 115.890625 C 16.441406 116.058594 15.941406 116.308594 15.691406 115.890625 C 15.523438 115.808594 15.359375 115.480469 15.609375 115.308594 C 16.523438 114.8125 17.601562 114.0625 18.101562 113.148438 C 18.269531 112.570312 17.683594 111.984375 17.273438 111.820312 C 15.859375 111.738281 15.191406 113.230469 14.363281 114.0625 C 14.113281 114.148438 13.699219 113.898438 13.699219 113.5625 C 14.28125 112.234375 15.191406 110.570312 16.773438 110.152344 C 17.523438 109.902344 18.269531 110.238281 18.933594 110.402344 C 19.765625 110.988281 19.515625 111.984375 19.601562 112.816406 C 19.019531 113.980469 18.019531 114.980469 16.941406 115.808594 C 18.269531 115.308594 19.851562 113.898438 20.101562 112.320312 C 20.433594 111.738281 19.683594 110.652344 20.511719 110.152344 C 21.34375 110.320312 22.011719 111.152344 23.003906 110.902344 C 25.664062 109.902344 25.003906 106.832031 26.164062 104.75 L 27.328125 102.507812 C 25.167969 103.839844 22.84375 104.75 20.433594 105.5 C 19.765625 105.832031 19.019531 106.414062 18.933594 107.242188 C 18.601562 108.078125 20.183594 108.992188 18.933594 109.492188 C 17.105469 108.578125 15.691406 110.738281 14.445312 111.738281 C 13.03125 113.480469 12.289062 115.480469 11.789062 117.558594 L 11.871094 117.722656 C 13.613281 117.390625 15.441406 116.972656 16.773438 115.890625 " fill-opacity="1" fill-rule="nonzero"/><path fill="#fcedd4" d="M 106.871094 117.304688 C 106.871094 116.972656 106.535156 116.558594 106.121094 116.472656 C 105.871094 116.558594 105.375 116.640625 105.375 117.058594 C 105.292969 117.472656 105.703125 117.722656 105.953125 117.800781 C 106.371094 117.972656 106.621094 117.558594 106.871094 117.304688 " fill-opacity="1" fill-rule="nonzero"/><path fill="#fcedd4" d="M 80.273438 116.558594 C 79.691406 115.808594 78.695312 115.558594 78.03125 114.894531 C 77.445312 115.308594 76.613281 115.480469 75.953125 115.140625 C 75.785156 114.980469 75.621094 114.730469 75.285156 114.730469 C 75.285156 115.390625 75.121094 116.308594 75.703125 116.640625 L 80.273438 116.558594 " fill-opacity="1" fill-rule="nonzero"/><path fill="#fcedd4" d="M 82.015625 115.308594 C 81.4375 114.398438 80.523438 113.8125 79.523438 113.730469 C 79.359375 113.5625 79.441406 113.3125 79.691406 113.230469 C 80.605469 112.648438 82.015625 112.152344 82.015625 110.820312 C 82.015625 110.738281 82.015625 110.652344 82.015625 110.570312 C 81.105469 111.238281 79.855469 111.402344 78.945312 112.152344 C 78.363281 112.570312 78.363281 113.230469 78.613281 113.898438 C 79.523438 115.0625 80.855469 115.230469 81.851562 116.390625 C 82.183594 116.140625 82.183594 115.640625 82.015625 115.308594 " fill-opacity="1" fill-rule="nonzero"/><path fill="#fcedd4" d="M 5.554688 114.648438 C 5.136719 114.5625 4.554688 115.230469 4.058594 115.480469 L 3.976562 115.972656 C 4.554688 115.726562 5.054688 115.0625 5.554688 114.648438 " fill-opacity="1" fill-rule="nonzero"/><path fill="#fcedd4" d="M 50.851562 112.320312 C 50.019531 112.152344 49.023438 112.480469 48.441406 113.0625 C 47.941406 114.0625 47.609375 115.0625 47.359375 116.058594 C 48.523438 114.8125 51.765625 114.894531 50.851562 112.320312 " fill-opacity="1" fill-rule="nonzero"/><path fill="#2f5982" d="M 39.210938 115.230469 C 39.296875 114.230469 38.132812 114.480469 37.882812 113.648438 C 37.46875 112.898438 37.050781 111.902344 37.636719 111.152344 C 37.882812 110.988281 38.132812 110.652344 38.050781 110.402344 C 37.636719 110.238281 37.136719 110.238281 36.800781 110.570312 C 36.308594 111.984375 35.726562 114.0625 37.136719 115.390625 C 37.636719 116.140625 38.878906 115.972656 39.210938 115.230469 " fill-opacity="1" fill-rule="nonzero"/><path fill="#2f5982" d="M 35.640625 113.898438 L 35.640625 113.230469 C 34.644531 112.816406 34.394531 115.0625 33.648438 113.648438 C 33.648438 112.152344 35.726562 111.984375 35.640625 110.652344 C 34.558594 110.152344 33.726562 111.738281 33.148438 112.402344 C 32.816406 113.0625 32.484375 114.0625 33.066406 114.730469 C 33.894531 115.808594 35.390625 115.0625 35.640625 113.898438 " fill-opacity="1" fill-rule="nonzero"/><path fill="#fcedd4" d="M 85.09375 114.730469 C 85.175781 114.398438 84.84375 114.3125 84.675781 114.148438 C 84.097656 114.230469 83.683594 114.648438 83.183594 114.980469 C 83.015625 115.140625 83.183594 115.308594 83.265625 115.480469 C 83.929688 115.308594 84.59375 115.230469 85.09375 114.730469 " fill-opacity="1" fill-rule="nonzero"/><path fill="#fcedd4" d="M 6.136719 114.3125 L 5.71875 114.5625 L 5.96875 114.398438 Z M 6.136719 114.3125 " fill-opacity="1" fill-rule="nonzero"/><path fill="#fcedd4" d="M 6.71875 113.5625 L 6.632812 114.0625 C 8.378906 113.480469 10.039062 112.648438 12.121094 112.980469 C 12.449219 112.730469 12.371094 112.320312 12.203125 111.984375 C 10.539062 110.238281 7.796875 111.238281 5.636719 110.652344 C 5.304688 110.652344 4.96875 110.488281 4.71875 110.820312 C 4.71875 110.988281 4.636719 111.070312 4.636719 111.238281 C 5.636719 111.488281 6.878906 111.070312 7.710938 111.652344 C 7.710938 112.070312 8.128906 112.898438 7.378906 113.0625 C 6.050781 113.0625 4.71875 113.398438 3.726562 114.148438 L 3.890625 114.398438 C 4.886719 114.230469 5.71875 112.898438 6.71875 113.5625 " fill-opacity="1" fill-rule="nonzero"/><path fill="#fcedd4" d="M 77.53125 113.5625 C 77.445312 113.148438 77.199219 112.730469 76.699219 112.898438 C 76.363281 112.816406 76.203125 113.148438 76.035156 113.3125 C 76.035156 113.730469 76.203125 114.148438 76.53125 114.398438 C 77.03125 114.398438 77.53125 114.148438 77.53125 113.5625 " fill-opacity="1" fill-rule="nonzero"/><path fill="#fcedd4" d="M 87.253906 113.480469 C 87.085938 113.0625 86.589844 112.816406 86.175781 112.730469 C 85.757812 112.648438 85.59375 113.0625 85.425781 113.230469 L 86.175781 114.230469 C 86.589844 114.0625 87.007812 113.898438 87.253906 113.480469 " fill-opacity="1" fill-rule="nonzero"/><path fill="#fcedd4" d="M 83.683594 113.3125 C 83.183594 112.980469 82.847656 112.402344 82.183594 112.570312 C 81.933594 112.898438 81.4375 113.148438 81.515625 113.648438 C 82.015625 113.8125 82.433594 114.480469 83.015625 113.980469 C 83.265625 113.730469 83.597656 113.5625 83.683594 113.3125 " fill-opacity="1" fill-rule="nonzero"/><path fill="#fcedd4" d="M 89.585938 113.648438 C 89.585938 113.398438 89.5 113.148438 89.25 113.148438 C 88.917969 113.0625 88.585938 113.3125 88.585938 113.648438 C 88.585938 113.8125 88.835938 113.980469 89 113.980469 C 89.25 113.980469 89.5 113.898438 89.585938 113.648438 " fill-opacity="1" fill-rule="nonzero"/><path fill="#fcedd4" d="M 5.386719 112.402344 C 5.21875 112.070312 4.636719 112.320312 4.226562 112.320312 L 3.976562 112.730469 C 4.386719 112.898438 4.96875 112.570312 5.386719 112.402344 " fill-opacity="1" fill-rule="nonzero"/><path fill="#fcedd4" d="M 84.925781 112.152344 C 84.425781 111.820312 83.765625 111.320312 83.183594 111.570312 C 83.515625 111.984375 84.515625 113.230469 84.925781 112.152344 " fill-opacity="1" fill-rule="nonzero"/><path fill="#2f5982" d="M 36.386719 109.242188 C 36.558594 109.074219 36.558594 108.742188 36.386719 108.660156 C 35.476562 108.410156 34.808594 109.410156 33.894531 109.492188 C 33.230469 109.492188 32.316406 109.902344 31.816406 109.160156 C 31.816406 108.742188 32.234375 108.660156 32.566406 108.492188 C 32.898438 108.492188 33.398438 108.660156 33.566406 108.160156 C 33.566406 107.660156 33.148438 107.578125 32.730469 107.492188 C 31.984375 107.410156 31.402344 107.828125 30.90625 108.410156 C 30.488281 108.824219 30.488281 109.492188 30.816406 109.988281 C 31.734375 110.902344 33.316406 110.488281 34.476562 110.320312 L 36.386719 109.242188 " fill-opacity="1" fill-rule="nonzero"/><path fill="#2f5982" d="M 24.003906 108.910156 C 24.335938 108.328125 24.421875 107.410156 24.085938 106.832031 C 23.671875 106.082031 23.003906 105.667969 22.175781 105.5 C 21.425781 105.417969 20.84375 105.832031 20.261719 106.332031 C 19.933594 106.832031 19.851562 107.660156 20.101562 108.160156 C 20.261719 108.410156 20.679688 108.410156 20.929688 108.242188 C 21.261719 107.742188 20.679688 106.992188 21.425781 106.664062 C 22.175781 106.5 22.675781 107.160156 22.925781 107.660156 C 23.003906 108.078125 23.171875 108.742188 22.59375 108.910156 C 22.261719 108.910156 21.84375 108.578125 21.59375 108.910156 C 21.34375 109.160156 21.425781 109.570312 21.761719 109.738281 C 22.59375 110.152344 23.671875 109.820312 24.003906 108.910156 " fill-opacity="1" fill-rule="nonzero"/><path fill="#fcedd4" d="M 7.710938 109.242188 L 7.796875 33.75 C 7.464844 32.332031 8.296875 30.421875 7.128906 29.339844 L 6.96875 33.832031 L 6.96875 109.570312 C 7.214844 109.660156 7.796875 109.738281 7.710938 109.242188 " fill-opacity="1" fill-rule="nonzero"/><path fill="#fcedd4" d="M 5.800781 27.011719 L 4.636719 27.59375 C 4.71875 27.59375 4.636719 108.578125 4.636719 108.578125 L 5.71875 109.324219 C 5.71875 109.324219 5.96875 27.011719 5.800781 27.011719 " fill-opacity="1" fill-rule="nonzero"/><path fill="#2f5982" d="M 39.628906 108.078125 C 39.460938 107.160156 38.46875 106.5 39.128906 105.417969 C 39.796875 104.339844 40.046875 106.75 40.792969 105.332031 C 40.878906 104.667969 40.460938 104.25 39.960938 104 C 39.296875 103.753906 38.96875 104.25 38.550781 104.5 C 37.800781 105.25 38.21875 106.25 38.132812 107.078125 C 37.050781 106.992188 35.972656 106.992188 34.976562 106.5 C 34.644531 106.082031 34.058594 105.667969 34.394531 105 C 34.558594 104.667969 35.058594 104.75 35.226562 104.917969 C 35.640625 105.082031 35.972656 105.914062 36.558594 105.5 C 36.800781 105.167969 36.636719 104.75 36.386719 104.5 C 35.890625 104.082031 35.308594 103.503906 34.558594 103.589844 C 33.894531 103.671875 33.398438 104.171875 33.230469 104.75 C 33.066406 105.5 33.230469 106.25 33.726562 106.75 C 34.808594 107.992188 36.636719 108.160156 38.050781 107.828125 L 38.21875 107.328125 C 38.382812 107.828125 39.210938 108.992188 39.628906 108.078125 " fill-opacity="1" fill-rule="nonzero"/><path fill="#2f5982" d="M 25.085938 106.5 C 25.335938 105.75 25.914062 105.25 25.996094 104.5 C 26.164062 104.171875 26.664062 103.671875 26.164062 103.421875 C 25.253906 104.082031 24.253906 104.417969 23.253906 104.832031 C 23.253906 105.332031 24.003906 105.5 24.253906 106 C 24.335938 106.332031 24.753906 107.242188 25.085938 106.5 " fill-opacity="1" fill-rule="nonzero"/><path fill="#fcedd4" d="M 35.890625 100.34375 C 35.890625 99.429688 34.976562 98.679688 34.394531 98.183594 C 32.898438 96.851562 31.734375 95.191406 30.15625 94.191406 C 29.738281 94.191406 29.238281 94.359375 29.15625 94.859375 C 30.238281 97.019531 32.816406 98.601562 34.476562 100.679688 C 34.976562 101.171875 35.640625 100.929688 35.890625 100.34375 " fill-opacity="1" fill-rule="nonzero"/><path fill="#2f5982" d="M 22.34375 98.269531 C 22.59375 97.683594 22.675781 97.183594 22.59375 96.4375 C 22.507812 96.269531 22.34375 96.269531 22.175781 96.269531 C 21.675781 96.933594 21.925781 98.019531 21.011719 98.183594 C 20.679688 98.183594 20.511719 97.851562 20.433594 97.601562 C 20.34375 96.1875 21.425781 95.191406 22.011719 93.941406 C 22.09375 93.773438 21.84375 93.527344 21.675781 93.527344 C 20.679688 94.191406 20.101562 95.441406 19.683594 96.519531 C 19.433594 97.269531 19.351562 98.101562 19.765625 98.761719 C 20.433594 99.84375 22.011719 99.347656 22.34375 98.269531 " fill-opacity="1" fill-rule="nonzero"/><path fill="#fcedd4" d="M 35.226562 97.019531 L 32.648438 94.441406 L 32.484375 94.523438 C 33.066406 95.609375 34.308594 96.851562 35.226562 97.433594 L 35.226562 97.019531 " fill-opacity="1" fill-rule="nonzero"/><path fill="#2f5982" d="M 19.433594 94.523438 C 19.515625 94.191406 19.433594 93.941406 19.019531 94.023438 C 18.101562 94.691406 17.355469 96.519531 15.859375 95.9375 C 15.523438 95.691406 15.609375 95.359375 15.859375 95.109375 C 16.109375 94.941406 16.441406 94.691406 16.441406 94.359375 C 16.441406 93.859375 15.859375 93.859375 15.523438 94.023438 C 14.941406 94.691406 14.113281 95.359375 14.53125 96.351562 C 14.695312 96.851562 15.109375 97.101562 15.523438 97.183594 C 17.441406 97.351562 18.601562 95.851562 19.433594 94.523438 " fill-opacity="1" fill-rule="nonzero"/><path fill="#fcedd4" d="M 52.34375 94.773438 C 51.847656 94.773438 51.265625 95.023438 51.101562 95.523438 L 51.265625 97.101562 C 51.933594 96.601562 53.261719 95.769531 52.34375 94.773438 " fill-opacity="1" fill-rule="nonzero"/><path fill="#2f5982" d="M 26.164062 96.1875 C 26.582031 95.691406 26.332031 94.773438 26.164062 94.273438 C 25.996094 94.023438 25.832031 93.691406 25.585938 93.691406 C 24.835938 94.023438 26.082031 96.351562 24.421875 95.691406 C 23.339844 94.691406 23.753906 93.109375 23.671875 91.863281 C 23.585938 91.699219 23.253906 91.699219 23.09375 91.78125 C 22.675781 93.109375 22.425781 95.109375 23.503906 96.1875 C 23.835938 96.601562 24.253906 96.769531 24.667969 96.933594 C 25.253906 96.933594 25.746094 96.683594 26.164062 96.1875 " fill-opacity="1" fill-rule="nonzero"/><path fill="#fcedd4" d="M 56.585938 95.851562 C 56.835938 95.273438 56.503906 94.773438 56.003906 94.609375 C 55.671875 94.359375 55.335938 94.691406 55.335938 95.023438 C 55.421875 95.273438 55.171875 95.359375 55.085938 95.523438 C 54.007812 94.941406 53.84375 93.527344 53.925781 92.363281 C 54.257812 90.199219 53.34375 87.707031 51.347656 86.542969 C 49.683594 85.460938 47.191406 85.628906 45.363281 86.292969 C 43.453125 87.210938 42.039062 88.621094 40.460938 90.121094 C 40.292969 90.199219 39.960938 90.199219 39.878906 89.871094 C 41.542969 86.960938 45.03125 84.800781 44.867188 81.140625 C 44.867188 79.390625 43.953125 77.730469 42.289062 77.0625 C 40.210938 75.402344 36.46875 77.230469 34.808594 74.902344 C 34.726562 74.652344 34.808594 74.320312 35.140625 74.402344 C 35.558594 74.320312 35.808594 74.988281 36.140625 74.652344 C 36.21875 74.152344 35.890625 73.492188 35.308594 73.324219 C 34.808594 73.242188 34.144531 72.992188 33.976562 73.738281 C 33.648438 74.734375 34.058594 75.570312 34.726562 76.320312 C 35.808594 77.148438 37.21875 76.8125 38.300781 77.3125 C 38.050781 78.0625 37.136719 77.730469 36.71875 78.3125 C 36.058594 79.230469 35.726562 80.554688 36.21875 81.554688 C 36.636719 82.300781 37.386719 82.800781 38.132812 83.050781 C 38.878906 83.050781 39.796875 82.96875 40.378906 82.550781 C 40.628906 82.136719 41.125 81.890625 40.960938 81.390625 C 40.628906 81.722656 39.710938 81.96875 39.210938 81.554688 C 38.632812 81.222656 38.382812 80.472656 38.632812 79.808594 C 39.210938 78.980469 40.210938 78.394531 41.210938 78.8125 C 42.457031 78.980469 43.121094 80.308594 43.539062 81.304688 C 43.785156 83.550781 42.789062 85.460938 41.542969 87.210938 C 41.378906 87.371094 41.042969 87.371094 41.042969 87.210938 C 41.210938 85.542969 42.703125 84.300781 42.457031 82.386719 C 42.457031 82.050781 42.371094 81.800781 42.289062 81.554688 C 41.871094 83.300781 41.542969 85.296875 40.460938 86.875 C 38.71875 89.621094 36.386719 91.699219 34.058594 93.941406 L 35.726562 95.691406 C 38.71875 92.941406 41.789062 89.703125 45.613281 88.539062 C 46.445312 88.371094 47.359375 88.207031 48.105469 88.207031 C 46.53125 87.539062 44.699219 88.371094 43.289062 89.121094 C 43.039062 89.203125 42.953125 88.953125 42.789062 88.871094 C 42.953125 88.121094 43.703125 87.953125 44.28125 87.621094 C 45.945312 86.792969 48.273438 86.460938 49.851562 87.539062 C 50.601562 88.289062 51.347656 89.121094 51.183594 90.28125 C 50.933594 90.863281 50.601562 91.53125 50.019531 91.699219 C 49.273438 91.78125 48.441406 91.613281 48.105469 90.863281 L 48.023438 89.621094 C 47.359375 89.621094 47.191406 90.371094 46.941406 90.78125 C 46.78125 91.53125 46.863281 92.449219 47.191406 93.191406 C 47.859375 94.273438 49.105469 94.441406 50.265625 94.523438 C 51.101562 94.359375 51.847656 93.941406 52.34375 93.277344 C 52.925781 92.78125 52.511719 91.699219 53.34375 91.613281 C 53.925781 92.613281 52.925781 93.441406 53.175781 94.441406 C 53.507812 95.273438 53.761719 96.519531 54.925781 96.519531 C 55.671875 96.601562 56.253906 96.4375 56.585938 95.851562 " fill-opacity="1" fill-rule="nonzero"/><path fill="#2f5982" d="M 24.421875 94.523438 C 24.421875 94.441406 24.503906 94.273438 24.253906 94.273438 L 24.171875 94.273438 C 24.085938 94.441406 24.253906 94.609375 24.421875 94.523438 " fill-opacity="1" fill-rule="nonzero"/><path fill="#2f5982" d="M 18.683594 93.109375 C 18.269531 92.78125 17.683594 92.863281 17.191406 92.691406 C 16.273438 92.199219 15.941406 91.199219 15.191406 90.699219 C 14.78125 90.699219 14.445312 91.199219 14.363281 91.53125 C 14.363281 92.363281 14.613281 93.109375 15.359375 93.527344 C 16.273438 94.109375 17.355469 93.609375 18.433594 93.691406 C 18.519531 93.527344 18.683594 93.359375 18.683594 93.109375 " fill-opacity="1" fill-rule="nonzero"/><path fill="#fcedd4" d="M 43.203125 90.949219 C 42.953125 90.699219 42.703125 91.03125 42.457031 91.117188 C 42.207031 91.53125 42.539062 92.03125 42.621094 92.53125 C 42.789062 92.691406 42.871094 92.863281 43.121094 92.863281 L 43.203125 90.949219 " fill-opacity="1" fill-rule="nonzero"/><path fill="#2f5982" d="M 26.496094 91.03125 C 26.746094 90.617188 26.582031 90.121094 26.414062 89.785156 C 25.996094 89.289062 25.503906 88.789062 24.753906 88.953125 C 24.585938 88.953125 24.421875 89.039062 24.421875 89.203125 C 24.585938 89.785156 25.996094 89.953125 25.417969 90.699219 C 24.171875 90.949219 23.253906 90.121094 22.425781 89.121094 C 22.261719 88.953125 21.761719 89.121094 21.925781 89.453125 C 22.261719 90.617188 23.421875 91.613281 24.667969 91.78125 C 25.417969 91.78125 26.164062 91.699219 26.496094 91.03125 " fill-opacity="1" fill-rule="nonzero"/><path fill="#2f5982" d="M 11.621094 90.199219 C 11.621094 90.121094 11.539062 90.121094 11.539062 90.03125 L 11.539062 90.199219 L 11.621094 90.199219 " fill-opacity="1" fill-rule="nonzero"/><path fill="#2f5982" d="M 23.921875 87.371094 C 24.003906 86.875 23.835938 86.210938 23.253906 85.960938 C 23.003906 85.878906 22.675781 85.960938 22.757812 86.292969 C 22.84375 86.625 23.171875 86.875 23.003906 87.292969 C 22.675781 87.707031 22.261719 87.292969 22.09375 87.210938 C 21.84375 86.875 21.511719 86.460938 21.09375 86.625 C 20.761719 86.875 21.011719 87.292969 21.09375 87.539062 C 21.59375 87.953125 22.011719 88.539062 22.757812 88.539062 C 23.503906 88.703125 23.835938 87.953125 23.921875 87.371094 " fill-opacity="1" fill-rule="nonzero"/><path fill="#fcedd4" d="M 38.71875 87.539062 C 38.96875 87.210938 38.632812 87.125 38.46875 87.042969 C 38.132812 86.960938 37.800781 87.042969 37.46875 87.125 C 37.300781 87.460938 37.46875 87.871094 37.800781 88.121094 C 38.21875 88.207031 38.550781 87.871094 38.71875 87.539062 " fill-opacity="1" fill-rule="nonzero"/><path fill="#fcedd4" d="M 32.980469 86.378906 C 32.398438 85.878906 31.484375 85.960938 30.816406 85.542969 C 25.335938 83.714844 20.34375 78.480469 18.601562 72.992188 C 17.023438 68.332031 17.191406 63.011719 17.191406 58.273438 C 15.109375 57.941406 12.78125 58.359375 10.539062 58.023438 L 10.289062 57.609375 L 10.371094 32.664062 C 10.289062 31.75 10.539062 30.839844 10.289062 30.089844 L 9.789062 30.421875 L 9.710938 35.242188 L 9.789062 58.773438 C 11.871094 59.191406 14.03125 58.941406 16.191406 59.105469 L 16.359375 59.523438 C 16.023438 66.171875 16.605469 72.574219 20.101562 77.980469 C 23.09375 82.386719 27.664062 85.878906 32.566406 87.042969 L 32.980469 86.378906 " fill-opacity="1" fill-rule="nonzero"/><path fill="#fcedd4" d="M 40.292969 84.632812 L 40.292969 84.382812 C 33.148438 83.632812 25.417969 81.140625 22.34375 73.820312 C 19.765625 68.5 20.84375 61.851562 20.433594 55.613281 L 13.367188 55.363281 L 13.117188 55.03125 C 13.199219 45.800781 13.117188 36.410156 13.03125 27.511719 C 12.78125 27.429688 12.617188 26.761719 12.289062 27.09375 C 11.289062 28.011719 11.453125 29.421875 11.371094 30.589844 L 11.371094 57.027344 L 11.621094 57.191406 L 18.101562 57.359375 L 18.351562 57.773438 C 17.683594 67.003906 18.765625 77.230469 27.328125 82.632812 C 29.324219 83.964844 31.566406 84.710938 33.808594 85.378906 C 35.808594 85.542969 37.636719 86.128906 39.546875 86.210938 L 40.292969 84.632812 " fill-opacity="1" fill-rule="nonzero"/><path fill="#fcedd4" d="M 46.195312 84.878906 C 46.28125 84.382812 46.113281 83.800781 45.53125 83.882812 L 45.363281 83.882812 L 44.28125 85.792969 C 44.949219 85.460938 45.699219 85.460938 46.195312 84.878906 " fill-opacity="1" fill-rule="nonzero"/><path fill="#fcedd4" d="M 53.761719 83.632812 C 53.011719 82.882812 51.847656 82.300781 50.765625 82.800781 C 50.183594 82.96875 49.523438 83.46875 48.941406 82.96875 C 48.773438 82.882812 48.773438 82.632812 48.855469 82.46875 C 50.019531 81.96875 51.347656 81.472656 51.765625 80.140625 C 52.097656 79.308594 52.34375 78.480469 52.511719 77.5625 C 51.101562 77.5625 49.683594 78.0625 48.691406 79.0625 C 47.859375 79.722656 48.191406 81.054688 47.191406 81.390625 L 47.023438 81.222656 C 47.609375 79.472656 47.691406 76.980469 46.195312 75.652344 C 44.617188 77.230469 45.53125 79.472656 45.78125 81.390625 C 45.78125 81.890625 45.53125 83.132812 46.53125 82.96875 C 46.863281 82.800781 47.191406 82.96875 47.441406 83.21875 C 47.359375 83.632812 47.191406 84.214844 47.523438 84.550781 C 49.023438 84.632812 50.515625 85.296875 51.933594 84.800781 C 52.59375 84.460938 53.175781 83.964844 53.761719 83.632812 " fill-opacity="1" fill-rule="nonzero"/><path fill="#fcedd4" d="M 17.355469 81.390625 C 17.851562 80.722656 18.269531 80.058594 18.183594 79.230469 C 16.023438 78.644531 15.191406 81.222656 14.28125 82.632812 L 14.28125 82.800781 C 15.359375 82.386719 16.191406 81.554688 17.355469 81.390625 " fill-opacity="1" fill-rule="nonzero"/><path fill="#fcedd4" d="M 35.640625 77.980469 C 35.558594 77.5625 34.890625 77.730469 34.558594 77.8125 L 33.480469 79.0625 C 33.726562 79.390625 34.476562 79.390625 34.976562 79.308594 L 35.640625 77.980469 " fill-opacity="1" fill-rule="nonzero"/><path fill="#fcedd4" d="M 16.523438 54.28125 C 16.359375 53.621094 15.941406 52.539062 16.441406 51.789062 C 15.441406 51.121094 15.277344 49.878906 14.28125 49.210938 C 13.949219 50.625 14.28125 52.453125 14.199219 54.199219 C 14.941406 54.53125 15.691406 54.199219 16.523438 54.28125 " fill-opacity="1" fill-rule="nonzero"/><path fill="#fcedd4" d="M 18.601562 53.285156 C 18.765625 52.789062 18.519531 52.203125 17.933594 52.203125 C 17.523438 52.203125 17.191406 52.539062 17.191406 52.953125 C 17.273438 53.285156 17.523438 53.703125 17.933594 53.703125 C 18.269531 53.78125 18.433594 53.453125 18.601562 53.285156 " fill-opacity="1" fill-rule="nonzero"/><path fill="#fcedd4" d="M 20.433594 48.132812 C 19.265625 48.132812 18.601562 49.128906 17.601562 49.710938 C 16.855469 49.210938 16.691406 48.050781 15.691406 47.882812 L 14.941406 47.964844 C 16.273438 48.792969 16.191406 51.789062 18.351562 50.875 C 19.351562 50.125 19.933594 49.128906 20.433594 48.132812 " fill-opacity="1" fill-rule="nonzero"/><path fill="#fcedd4" d="M 18.601562 47.382812 C 18.433594 46.96875 18.269531 46.46875 17.769531 46.21875 C 17.441406 46.300781 17.105469 46.800781 16.941406 47.132812 C 16.855469 47.632812 17.523438 47.964844 17.769531 48.214844 C 18.019531 47.964844 18.765625 47.964844 18.601562 47.382812 " fill-opacity="1" fill-rule="nonzero"/><path fill="#fcedd4" d="M 19.933594 46.800781 C 19.683594 46.21875 19.765625 44.804688 18.765625 45.140625 C 18.351562 45.800781 19.265625 46.300781 19.433594 46.96875 C 19.601562 46.96875 19.851562 46.96875 19.933594 46.800781 " fill-opacity="1" fill-rule="nonzero"/><path fill="#fcedd4" d="M 16.941406 44.972656 C 16.191406 44.972656 16.023438 45.96875 15.859375 46.550781 L 16.023438 46.71875 C 16.359375 46.21875 17.355469 45.550781 16.941406 44.972656 " fill-opacity="1" fill-rule="nonzero"/><path fill="#fcedd4" d="M 18.519531 43.972656 C 18.519531 43.640625 18.269531 43.472656 17.933594 43.308594 C 17.683594 43.390625 17.523438 43.558594 17.441406 43.722656 C 17.355469 44.054688 17.601562 44.304688 17.851562 44.472656 C 18.183594 44.554688 18.351562 44.222656 18.519531 43.972656 " fill-opacity="1" fill-rule="nonzero"/><path fill="#fcedd4" d="M 18.601562 41.5625 C 18.519531 41.3125 18.351562 41.0625 18.019531 40.980469 C 17.851562 40.980469 17.769531 41.230469 17.683594 41.3125 L 17.933594 41.980469 C 18.183594 42.0625 18.519531 41.894531 18.601562 41.5625 " fill-opacity="1" fill-rule="nonzero"/><path fill="#fcedd4" d="M 11.871094 25.515625 L 12.289062 24.101562 C 11.789062 23.6875 11.621094 24.269531 11.371094 24.601562 C 10.957031 25.765625 10.539062 27.011719 9.460938 27.925781 C 9.210938 28.011719 8.628906 28.175781 8.378906 27.84375 C 7.546875 26.679688 7.128906 25.351562 6.386719 24.183594 C 5.96875 24.519531 6.46875 25.101562 6.46875 25.601562 C 7.296875 26.929688 7.710938 28.511719 8.796875 29.671875 C 10.457031 28.921875 10.871094 26.929688 11.871094 25.515625 " fill-opacity="1" fill-rule="nonzero"/><path fill="#fcedd4" d="M 10.207031 25.015625 C 10.371094 24.351562 10.871094 23.601562 10.789062 22.941406 C 10.289062 22.691406 9.378906 22.691406 9.292969 21.855469 C 9.460938 21.441406 9.128906 21.109375 8.878906 20.773438 L 8.628906 20.773438 C 8.796875 21.773438 8.210938 22.691406 7.378906 23.105469 C 7.628906 24.433594 8.296875 25.601562 8.878906 26.84375 C 9.710938 26.597656 9.871094 25.683594 10.207031 25.015625 " fill-opacity="1" fill-rule="nonzero"/><path fill="#fcedd4" d="M 5.21875 25.851562 C 5.304688 25.351562 5.136719 24.769531 4.636719 24.601562 C 4.058594 24.519531 3.808594 24.851562 3.558594 25.265625 C 3.308594 25.765625 3.808594 26.179688 4.140625 26.511719 C 4.636719 26.429688 5.054688 26.261719 5.21875 25.851562 " fill-opacity="1" fill-rule="nonzero"/><path fill="#fcedd4" d="M 14.445312 25.851562 C 14.445312 25.433594 14.113281 25.101562 13.78125 24.851562 C 13.367188 24.851562 13.199219 25.265625 13.117188 25.601562 C 13.199219 25.851562 13.199219 26.261719 13.53125 26.351562 C 13.949219 26.511719 14.363281 26.261719 14.445312 25.851562 " fill-opacity="1" fill-rule="nonzero"/><path fill="#fcedd4" d="M 4.140625 22.855469 L 4.386719 21.691406 C 5.636719 21.441406 4.46875 23.769531 5.96875 23.273438 C 6.21875 21.773438 4.386719 20.53125 5.636719 19.113281 C 6.386719 19.195312 5.800781 20.195312 6.136719 20.609375 C 6.386719 21.109375 6.550781 21.855469 7.128906 22.023438 C 7.546875 22.023438 7.710938 21.523438 7.628906 21.191406 C 6.550781 19.613281 5.054688 18.03125 5.304688 16.035156 C 5.386719 15.871094 5.636719 15.789062 5.800781 15.871094 C 6.050781 16.453125 6.050781 17.035156 6.300781 17.621094 C 6.800781 18.363281 7.214844 19.53125 8.046875 19.695312 L 8.128906 19.363281 C 6.632812 17.285156 5.386719 15.042969 5.054688 12.542969 C 5.21875 12.378906 5.46875 12.210938 5.636719 12.378906 C 6.300781 14.210938 6.878906 16.035156 8.210938 17.371094 C 8.378906 16.953125 8.296875 16.371094 8.296875 15.871094 C 7.710938 15.871094 7.128906 15.289062 7.046875 14.792969 C 6.800781 13.960938 7.128906 13.292969 7.464844 12.710938 C 8.796875 11.964844 6.878906 11.382812 6.878906 10.550781 C 6.800781 10.21875 6.46875 9.96875 6.050781 10.050781 C 5.304688 10.300781 4.386719 10.964844 4.226562 11.714844 C 3.390625 15.042969 5.96875 18.449219 4.140625 21.773438 C 3.726562 22.441406 3.476562 23.191406 2.726562 23.6875 C 3.140625 24.183594 4.226562 23.6875 4.140625 22.855469 " fill-opacity="1" fill-rule="nonzero"/><path fill="#fcedd4" d="M 14.28125 23.601562 C 11.207031 21.109375 13.117188 16.953125 13.367188 13.625 C 13.367188 12.378906 12.949219 11.132812 11.953125 10.382812 C 11.621094 10.21875 11.289062 9.882812 10.789062 9.882812 L 8.878906 12.042969 C 8.796875 12.460938 9.460938 12.378906 9.789062 12.628906 C 10.371094 13.125 10.789062 13.875 10.457031 14.625 C 10.207031 15.203125 9.871094 15.539062 9.292969 15.789062 C 9.210938 16.453125 9.539062 17.035156 9.378906 17.621094 C 10.207031 17.203125 10.457031 16.035156 10.957031 15.289062 L 11.621094 12.292969 C 11.703125 12.210938 11.953125 12.132812 12.121094 12.210938 C 12.53125 12.878906 12.371094 13.875 12.203125 14.625 C 11.539062 16.289062 10.871094 18.03125 9.378906 19.363281 C 9.378906 19.695312 9.378906 20.03125 9.710938 20.113281 C 10.871094 19.78125 10.957031 18.28125 11.621094 17.535156 C 11.871094 17.453125 11.953125 17.621094 12.039062 17.703125 C 12.121094 19.195312 11.207031 20.28125 10.371094 21.441406 C 10.289062 21.773438 10.539062 21.855469 10.789062 21.941406 C 11.539062 21.773438 11.289062 20.441406 12.203125 20.609375 C 12.617188 21.441406 11.121094 22.441406 12.203125 23.105469 C 12.53125 23.023438 12.867188 22.691406 13.199219 22.773438 C 13.367188 23.273438 13.613281 23.851562 14.28125 23.601562 " fill-opacity="1" fill-rule="nonzero"/><path fill="#fcedd4" d="M 9.957031 8.222656 L 7.214844 8.140625 C 7.128906 9.054688 7.796875 9.96875 8.210938 10.800781 C 8.460938 11.132812 8.878906 10.714844 8.960938 10.464844 C 9.460938 9.800781 10.207031 9.132812 9.957031 8.222656 " fill-opacity="1" fill-rule="nonzero"/><path fill="#fcedd4" d="M 11.121094 6.890625 L 11.121094 6.808594 C 9.460938 6.722656 7.796875 6.226562 6.21875 6.722656 L 6.300781 7.058594 C 7.796875 6.972656 9.628906 7.304688 11.121094 6.890625 " fill-opacity="1" fill-rule="nonzero"/><path fill="#fcedd4" d="M 12.867188 4.8125 C 13.03125 4.230469 12.699219 3.734375 12.203125 3.5625 L 5.46875 3.5625 C 5.21875 3.734375 4.886719 3.980469 4.804688 4.3125 C 4.804688 4.730469 5.054688 5.3125 5.554688 5.394531 C 7.710938 5.730469 9.789062 5.3125 11.871094 5.5625 C 12.289062 5.644531 12.699219 5.144531 12.867188 4.8125 " fill-opacity="1" fill-rule="nonzero"/><path fill="#fcedd4" d="M 11.371094 1.902344 C 9.789062 1.652344 8.296875 1.820312 6.632812 1.820312 L 6.46875 2.070312 C 7.960938 2.320312 9.789062 2.402344 11.371094 2.152344 L 11.371094 1.902344 " fill-opacity="1" fill-rule="nonzero"/></svg>