<svg xmlns="http://www.w3.org/2000/svg" xmlns:xlink="http://www.w3.org/1999/xlink" width="175" zoomAndPan="magnify" viewBox="0 0 131.25 131.249998" height="175" preserveAspectRatio="xMidYMid meet" version="1.0"><defs><clipPath id="a7f3e68803"><path d="M 0.839844 0 L 129.664062 0 L 129.664062 130 L 0.839844 130 Z M 0.839844 0 " clip-rule="nonzero"/></clipPath></defs><g clip-path="url(#a7f3e68803)"><path fill="#2f5982" d="M 109.324219 126.539062 L 28.953125 126.539062 C 28.121094 126.699219 26.960938 125.953125 26.378906 126.78125 C 25.878906 127.449219 25.050781 128.113281 24.132812 127.78125 C 23.550781 128.363281 23.050781 129.28125 22.140625 129.109375 C 21.890625 128.113281 21.308594 127.117188 20.308594 126.617188 C 17.148438 124.871094 14.160156 127.699219 10.917969 126.78125 C 9.835938 126.371094 8.757812 125.871094 8.007812 124.789062 C 7.84375 125.289062 7.511719 125.789062 6.925781 125.789062 C 5.765625 125.453125 5.265625 127.449219 3.933594 126.78125 C 3.273438 126.699219 2.773438 126.121094 2.441406 125.539062 C 1.941406 125.289062 1.191406 125.703125 0.863281 125.207031 C 0.863281 122.960938 0.695312 120.382812 0.78125 118.050781 C 1.359375 117.972656 2.523438 118.140625 2.523438 117.140625 C 2.941406 116.558594 3.605469 116.558594 4.183594 116.558594 C 5.597656 116.308594 5.597656 118.050781 6.675781 118.21875 C 7.09375 118.21875 7.34375 118.550781 7.675781 118.800781 C 8.09375 117.722656 9.085938 116.558594 10.335938 116.140625 C 13.996094 115.480469 18.230469 117.972656 21.390625 115.480469 C 21.890625 115.140625 21.722656 114.5625 22.140625 114.230469 C 22.886719 114.3125 23.050781 115.0625 23.550781 115.558594 C 24.21875 115.558594 24.960938 115.480469 25.542969 115.808594 L 26.042969 116.558594 L 46.078125 116.640625 C 46.160156 116.558594 46.328125 116.558594 46.328125 116.472656 C 45.496094 115.808594 44.246094 115.558594 43.25 114.8125 C 42.417969 113.648438 41.417969 115.640625 40.507812 114.5625 C 39.925781 114.148438 39.84375 113.480469 40.007812 112.898438 C 40.175781 112.402344 40.675781 112.234375 41.085938 112.152344 C 41.667969 112.070312 42.25 112.234375 42.667969 112.570312 C 44.328125 111.820312 45.828125 110.652344 47.570312 110.152344 C 48.070312 109.820312 47.738281 109.160156 48.320312 108.992188 C 48.988281 109.242188 49.398438 110.070312 50.0625 110.402344 C 50.980469 110.820312 52.058594 111.238281 52.558594 112.234375 C 53.390625 111.984375 54.550781 111.738281 55.21875 112.480469 C 55.632812 111.738281 55.382812 110.902344 55.550781 109.988281 C 63.777344 109.988281 73.5 110.902344 79.070312 103.753906 C 81.398438 101.261719 82.644531 98.269531 83.0625 95.023438 C 82.5625 95.023438 81.898438 95.273438 81.398438 95.359375 L 80.570312 95.359375 C 80.152344 96.769531 80.402344 98.269531 80.570312 99.597656 C 80.484375 99.84375 80.152344 99.761719 79.988281 99.761719 C 79.238281 98.679688 78.488281 97.351562 77.160156 96.851562 C 76.328125 97.433594 75.167969 97.601562 74.085938 97.351562 C 73.167969 97.183594 73.007812 96.1875 72.757812 95.441406 C 72.757812 94.773438 73.089844 94.023438 73.75 93.691406 C 74.335938 93.609375 74.917969 93.441406 75.417969 93.773438 C 75.828125 92.78125 75.417969 91.53125 75.660156 90.53125 C 75.828125 88.621094 76.910156 87.125 78.242188 85.792969 C 77.160156 85.210938 76.246094 84.132812 74.832031 84.132812 C 74.582031 83.882812 74.917969 83.714844 75.082031 83.550781 C 76.078125 82.882812 77.160156 82.21875 78.160156 81.554688 C 77.078125 79.972656 77.160156 77.8125 76.160156 76.152344 L 76.246094 75.984375 C 78.242188 76.398438 80.320312 76.5625 81.980469 77.8125 C 82.5625 76.480469 83.5625 75.234375 84.308594 73.988281 C 85.390625 74.734375 85.636719 75.984375 86.304688 77.0625 C 88.296875 75.570312 90.792969 75.152344 93.285156 75.234375 C 93.453125 74.820312 93.203125 74.238281 93.285156 73.738281 C 93.367188 73.160156 93.785156 72.492188 94.285156 72.324219 C 95.195312 72.078125 96.359375 71.910156 97.027344 72.742188 C 97.6875 73.324219 98.019531 74.070312 97.855469 74.988281 C 97.773438 75.902344 96.445312 76.320312 96.777344 77.3125 C 97.523438 78.3125 98.605469 79.230469 99.4375 79.972656 C 99.019531 80.804688 98.1875 79.808594 97.4375 80.058594 L 95.613281 80.222656 L 94.863281 82.300781 C 100.765625 81.800781 105.917969 77.398438 107.910156 71.824219 C 109.492188 66.503906 108.992188 60.519531 108.992188 54.78125 C 109.574219 54.28125 110.570312 54.78125 111.320312 54.363281 C 110.820312 53.703125 110.820312 52.453125 111.152344 51.789062 C 109.910156 50.625 109.742188 48.542969 108 48.050781 C 108.078125 47.382812 108.992188 47.300781 109.492188 46.96875 C 109.992188 45.472656 110.652344 44.054688 111.484375 42.644531 C 111.152344 42.144531 110.902344 41.5625 111.152344 40.898438 C 111.402344 40.398438 111.902344 40.3125 112.402344 40.152344 C 112.984375 40.0625 113.648438 40.398438 113.730469 41.0625 L 113.480469 42.5625 C 114.8125 43.808594 115.394531 45.382812 116.058594 46.96875 L 116.304688 46.800781 C 116.390625 40.3125 116.472656 33.996094 116.304688 27.679688 C 115.476562 26.929688 114.8125 26.179688 115.144531 25.015625 C 114.894531 24.433594 113.980469 24.351562 113.898438 23.601562 C 115.0625 23.601562 115.972656 22.855469 116.472656 21.941406 C 118.382812 17.703125 113.730469 12.378906 117.886719 8.972656 L 119.050781 8.140625 C 118.882812 7.804688 118.382812 8.140625 118.136719 7.890625 L 118.054688 6.640625 C 117.386719 6.226562 116.640625 5.5625 116.472656 4.8125 C 116.304688 3.980469 116.640625 3.234375 117.222656 2.734375 C 118.054688 2.402344 117.636719 1.320312 117.804688 0.574219 L 118.054688 0.40625 L 125.199219 0.40625 L 125.367188 2.320312 C 126.117188 2.734375 126.863281 3.5625 126.863281 4.480469 C 126.945312 5.394531 126.199219 5.976562 125.535156 6.394531 C 125.367188 6.972656 125.785156 8.054688 124.949219 8.140625 C 126.613281 9.132812 127.777344 10.964844 127.609375 13.042969 C 127.113281 16.453125 125.199219 21.109375 129.109375 23.273438 C 129.519531 23.441406 129.1875 23.851562 129.109375 24.101562 C 128.859375 24.519531 128.445312 24.769531 127.945312 24.851562 L 127.859375 26.261719 L 127.027344 27.84375 L 127.027344 73.652344 L 127.113281 107.828125 C 129.027344 110.152344 129.855469 113.148438 129.519531 116.308594 C 129.109375 117.222656 129.1875 118.300781 128.527344 119.050781 C 129.4375 121.628906 129.4375 124.957031 129.109375 127.78125 C 127.027344 128.78125 124.453125 128.113281 122.207031 128.113281 L 119.964844 127.617188 C 116.804688 130.109375 112.152344 129.03125 109.324219 126.539062 " fill-opacity="1" fill-rule="nonzero"/></g><path fill="#fcedd4" d="M 110.492188 126.289062 C 110.738281 125.453125 111.238281 126.449219 111.738281 126.371094 C 113.648438 127.199219 116.140625 127.449219 118.136719 126.78125 C 118.304688 126.867188 118.554688 126.867188 118.554688 127.03125 C 117.304688 128.03125 115.5625 128.363281 113.898438 127.949219 C 112.652344 127.699219 111.484375 127.199219 110.492188 126.289062 " fill-opacity="1" fill-rule="nonzero"/><path fill="#fcedd4" d="M 116.140625 122.960938 C 115.0625 121.546875 115.144531 119.96875 114.894531 118.300781 L 115.0625 117.890625 L 115.394531 118.140625 C 115.890625 120.800781 116.640625 123.789062 119.382812 125.121094 C 121.292969 126.449219 123.707031 126.289062 125.867188 126.617188 C 126.613281 126.449219 127.777344 126.867188 127.945312 125.789062 C 128.277344 121.878906 126.613281 117.722656 122.875 115.640625 C 121.792969 114.730469 120.132812 115.140625 118.964844 114.480469 L 119.296875 114.230469 C 121.707031 114.0625 124.035156 114.8125 125.617188 116.558594 C 128.359375 119.300781 128.777344 123.460938 128.109375 127.03125 C 123.707031 128.03125 118.632812 127.199219 116.140625 122.960938 " fill-opacity="1" fill-rule="nonzero"/><path fill="#fcedd4" d="M 12.996094 125.871094 C 11.585938 125.789062 9.753906 125.453125 9.335938 123.878906 C 10.167969 123.378906 11.5 122.878906 11.746094 121.710938 C 11.5 120.46875 10.085938 119.632812 9.253906 119.050781 C 11.914062 114.894531 16.988281 118.886719 20.640625 116.972656 L 22.46875 116.222656 C 22.640625 116.558594 22.550781 116.808594 22.390625 117.058594 C 21.972656 117.304688 21.222656 116.972656 21.058594 117.558594 C 21.058594 117.972656 21.640625 118.300781 21.308594 118.71875 C 20.390625 118.636719 19.5625 117.140625 18.648438 117.972656 C 19.0625 118.800781 20.558594 118.96875 20.476562 120.050781 C 18.730469 120.632812 17.980469 117.640625 16.070312 118.386719 C 16.238281 119.21875 17.398438 119.382812 17.816406 120.050781 C 17.898438 120.214844 18.148438 120.382812 18.066406 120.632812 C 16.238281 119.300781 14.328125 118.140625 12.085938 117.890625 C 11.828125 117.972656 11.585938 117.972656 11.417969 118.300781 C 11.667969 118.96875 12.746094 118.550781 13.328125 119.050781 C 14.488281 119.382812 15.738281 120.050781 16.40625 121.128906 C 15.074219 122.046875 14.988281 120.050781 13.828125 120.132812 C 13.078125 120.132812 12.414062 120.46875 12.164062 121.210938 C 12.164062 121.878906 12.246094 122.378906 12.664062 122.878906 C 13.078125 123.210938 13.660156 123.460938 14.160156 123.210938 C 15.074219 122.878906 15.238281 121.710938 16.488281 122.128906 C 15.738281 123.878906 13.660156 124.121094 11.914062 124.539062 C 11.828125 124.707031 11.5 124.871094 11.746094 125.121094 C 14.328125 125.621094 16.570312 124.121094 18.316406 122.046875 C 18.5625 122.128906 18.730469 122.292969 18.898438 122.460938 C 18.648438 123.789062 17.070312 123.542969 16.570312 124.539062 C 16.488281 124.957031 16.988281 124.957031 17.316406 124.957031 C 18.398438 124.457031 19.398438 123.710938 20.140625 122.710938 C 20.390625 122.542969 20.808594 122.542969 20.890625 122.960938 C 20.972656 123.878906 19.890625 124.121094 19.3125 124.539062 C 19.3125 124.789062 19.480469 124.957031 19.640625 125.121094 C 20.390625 124.957031 21.058594 124.707031 21.640625 124.207031 C 21.808594 124.289062 22.054688 124.371094 22.054688 124.539062 L 21.222656 125.703125 C 21.722656 126.289062 22.71875 125.789062 23.050781 126.699219 C 23.136719 126.949219 23.136719 127.28125 22.96875 127.449219 C 20.476562 124.457031 16.15625 125.121094 12.996094 125.871094 " fill-opacity="1" fill-rule="nonzero"/><path fill="#fcedd4" d="M 23.800781 126.039062 C 23.71875 125.539062 24.21875 125.453125 24.550781 125.289062 C 24.960938 125.289062 25.300781 125.539062 25.378906 125.953125 C 25.378906 126.289062 25.132812 126.539062 24.714844 126.699219 C 24.300781 126.78125 23.96875 126.371094 23.800781 126.039062 " fill-opacity="1" fill-rule="nonzero"/><path fill="#fcedd4" d="M 26.875 125.539062 L 25.710938 124.539062 L 26.292969 124.539062 C 26.292969 124.539062 109.992188 124.539062 109.992188 124.457031 C 110.160156 124.957031 109.742188 125.289062 109.410156 125.539062 L 26.875 125.539062 " fill-opacity="1" fill-rule="nonzero"/><path fill="#fcedd4" d="M 124.535156 124.039062 C 124.035156 124.371094 124.703125 124.707031 124.535156 125.121094 C 124.285156 124.457031 124.035156 123.621094 123.375 123.210938 C 123.039062 123.128906 122.792969 123.460938 122.792969 123.710938 C 122.542969 123.292969 122.457031 122.460938 121.792969 122.378906 L 121.375 122.628906 C 121.125 122.378906 121.214844 121.878906 120.796875 121.792969 C 120.546875 121.710938 120.378906 121.960938 120.296875 122.128906 L 120.296875 122.292969 C 119.546875 121.878906 120.132812 119.96875 118.800781 120.550781 C 118.632812 120.214844 118.464844 119.800781 118.054688 119.800781 C 117.804688 119.71875 117.636719 120.050781 117.554688 120.300781 C 117.722656 120.878906 118.304688 121.710938 117.886719 122.128906 C 116.972656 121.296875 116.804688 119.800781 116.640625 118.550781 L 116.804688 118.386719 C 117.804688 118.636719 118.882812 119.132812 119.882812 118.96875 C 119.964844 118.050781 119.632812 116.972656 119.632812 116.058594 C 120.875 116.058594 122.207031 116.472656 123.125 117.222656 C 122.707031 118.140625 120.796875 116.808594 121.046875 118.140625 L 121.460938 118.46875 C 122.375 118.386719 123.457031 118.636719 124.285156 118.386719 C 124.535156 118.550781 124.203125 118.800781 124.117188 118.886719 C 123.457031 119.21875 122.625 118.46875 122.125 119.132812 C 122.042969 119.550781 122.957031 119.550781 122.542969 120.050781 C 123.125 120.878906 124.285156 120.960938 125.367188 121.046875 C 125.535156 121.046875 125.867188 120.878906 126.035156 121.046875 L 126.117188 121.210938 C 125.199219 121.628906 123.875 120.382812 123.125 121.378906 C 123.953125 122.128906 125.199219 122.046875 126.277344 122.292969 C 125.867188 122.710938 125.117188 122.210938 124.617188 122.128906 C 124.285156 122.210938 124.035156 122.292969 123.875 122.628906 C 124.203125 123.710938 127.609375 122.710938 125.785156 124.289062 C 125.867188 124.707031 126.613281 124.789062 126.445312 125.289062 C 126.199219 125.371094 125.949219 125.539062 125.785156 125.207031 C 125.617188 124.707031 125.199219 123.710938 124.535156 124.039062 " fill-opacity="1" fill-rule="nonzero"/><path fill="#fcedd4" d="M 115.144531 123.292969 C 115.5625 124.039062 116.554688 124.621094 116.804688 125.371094 C 115.972656 124.871094 115.5625 124.039062 115.144531 123.292969 " fill-opacity="1" fill-rule="nonzero"/><path fill="#fcedd4" d="M 114.5625 124.457031 C 114.730469 124.539062 115.0625 124.957031 115.144531 125.289062 L 114.5625 124.457031 " fill-opacity="1" fill-rule="nonzero"/><path fill="#fcedd4" d="M 3.605469 124.957031 L 3.1875 118.386719 C 3.355469 118.050781 3.523438 117.722656 3.851562 117.640625 C 4.265625 117.972656 4.933594 117.640625 5.101562 118.386719 C 5.183594 120.800781 5.433594 123.042969 5.101562 125.371094 C 4.683594 126.039062 3.683594 125.621094 3.605469 124.957031 " fill-opacity="1" fill-rule="nonzero"/><path fill="#fcedd4" d="M 111.402344 124.871094 C 112.820312 122.292969 110.320312 119.21875 112.570312 117.140625 C 114.730469 116.808594 113.398438 119.382812 114.0625 120.382812 L 114.394531 121.628906 C 114.144531 121.546875 113.898438 120.710938 113.3125 121.046875 C 112.902344 122.210938 113.980469 122.878906 114.3125 123.878906 C 113.648438 123.292969 113.648438 122.046875 112.734375 121.792969 C 112.152344 122.210938 112.820312 122.792969 112.734375 123.460938 C 112.570312 123.292969 112.320312 123.128906 112.070312 123.378906 C 111.984375 124.039062 112.570312 124.621094 112.152344 125.207031 C 111.820312 125.289062 111.570312 125.039062 111.402344 124.871094 " fill-opacity="1" fill-rule="nonzero"/><path fill="#fcedd4" d="M 113.152344 124.371094 L 113.5625 125.121094 L 113.152344 124.457031 Z M 113.152344 124.371094 " fill-opacity="1" fill-rule="nonzero"/><path fill="#fcedd4" d="M 122.792969 123.789062 C 123.039062 124.121094 123.375 124.371094 123.289062 124.871094 C 123.125 124.539062 122.875 124.207031 122.792969 123.789062 " fill-opacity="1" fill-rule="nonzero"/><path fill="#fcedd4" d="M 121.875 123.878906 C 121.875 124.121094 122.292969 124.371094 122.042969 124.621094 L 121.875 123.878906 " fill-opacity="1" fill-rule="nonzero"/><path fill="#fcedd4" d="M 114.5625 124.289062 L 114.480469 124.371094 L 114.394531 124.207031 L 114.5625 124.289062 " fill-opacity="1" fill-rule="nonzero"/><path fill="#fcedd4" d="M 6.34375 124.371094 C 6.183594 122.628906 6.265625 120.960938 6.265625 119.21875 L 6.34375 119.132812 C 7.175781 120.632812 6.761719 122.710938 6.925781 124.457031 L 6.675781 124.789062 L 6.34375 124.371094 " fill-opacity="1" fill-rule="nonzero"/><path fill="#fcedd4" d="M 1.859375 119.46875 L 2.023438 119.21875 L 2.355469 119.550781 L 2.441406 124.039062 L 2.191406 124.371094 L 1.941406 124.039062 L 1.859375 119.46875 " fill-opacity="1" fill-rule="nonzero"/><path fill="#fcedd4" d="M 22.886719 123.957031 C 24.132812 122.960938 25.960938 122.628906 27.125 121.460938 C 26.378906 120.214844 24.800781 120.050781 23.550781 119.382812 C 23.300781 119.46875 23.21875 119.21875 22.96875 119.132812 C 24.632812 119.46875 26.542969 120.214844 27.953125 121.460938 C 26.625 122.792969 24.882812 123.460938 23.21875 124.207031 C 23.050781 124.289062 22.96875 124.039062 22.886719 123.957031 " fill-opacity="1" fill-rule="nonzero"/><path fill="#fcedd4" d="M 119.132812 122.378906 C 119.382812 122.628906 119.546875 123.128906 119.382812 123.460938 C 119.214844 123.210938 119.050781 122.792969 119.132812 122.378906 " fill-opacity="1" fill-rule="nonzero"/><path fill="#fcedd4" d="M 29.371094 123.542969 L 28.039062 123.128906 L 28.539062 122.710938 C 46.738281 122.628906 110.320312 122.710938 110.320312 122.710938 C 110.652344 122.710938 110.570312 123.378906 110.402344 123.460938 C 110.570312 123.542969 29.371094 123.542969 29.371094 123.542969 " fill-opacity="1" fill-rule="nonzero"/><path fill="#fcedd4" d="M 114.5625 122.128906 L 114.894531 122.792969 L 114.5625 122.292969 Z M 114.5625 122.128906 " fill-opacity="1" fill-rule="nonzero"/><path fill="#fcedd4" d="M 7.84375 120.214844 C 8.425781 120.050781 9.175781 120.214844 9.667969 120.550781 C 10.003906 120.960938 10.667969 121.128906 10.585938 121.792969 C 9.835938 122.628906 8.925781 122.960938 7.925781 123.042969 L 7.84375 120.214844 " fill-opacity="1" fill-rule="nonzero"/><path fill="#fcedd4" d="M 21.308594 122.046875 C 20.808594 121.460938 19.976562 121.878906 19.398438 121.296875 C 19.640625 120.960938 20.140625 121.460938 20.390625 121.128906 C 20.972656 120.960938 21.390625 120.46875 21.808594 119.96875 C 23.136719 120.214844 24.382812 120.632812 25.460938 121.378906 C 24.550781 122.292969 23.136719 122.460938 21.890625 122.792969 L 21.308594 122.046875 " fill-opacity="1" fill-rule="nonzero"/><path fill="#fcedd4" d="M 71.507812 120.632812 C 70.425781 119.300781 71.175781 117.640625 71.675781 116.308594 C 71.589844 115.972656 71.257812 115.972656 71.007812 116.140625 C 70.015625 117.640625 69.765625 119.632812 67.855469 120.382812 C 66.105469 121.378906 63.777344 121.128906 62.203125 120.132812 C 61.203125 119.46875 61.203125 118.21875 61.453125 117.222656 C 61.867188 116.390625 62.78125 116.140625 63.613281 116.140625 C 64.027344 116.308594 64.695312 116.390625 64.945312 116.890625 C 64.945312 117.304688 65.195312 117.800781 64.777344 118.140625 C 64.277344 118.300781 63.695312 118.800781 63.195312 118.300781 C 62.445312 118.050781 63.277344 116.808594 62.285156 116.972656 C 61.867188 117.390625 61.703125 118.140625 62.035156 118.636719 C 62.117188 119.21875 62.78125 119.382812 63.195312 119.632812 C 67.519531 119.632812 69.765625 114.730469 73.917969 114.398438 C 79.320312 113.8125 83.230469 117.558594 87.464844 120.214844 C 88.132812 120.382812 88.882812 120.878906 89.625 120.550781 C 89.875 120.214844 89.460938 119.882812 89.210938 119.800781 C 87.632812 119.632812 86.550781 118.21875 85.390625 117.222656 C 83.394531 115.390625 82.980469 112.570312 83.230469 110.070312 C 83.890625 107.242188 86.136719 105.082031 87.632812 102.671875 C 89.042969 100.429688 91.535156 98.269531 90.792969 95.273438 C 90.375 94.523438 89.625 93.941406 88.714844 94.023438 C 88.296875 94.023438 87.882812 94.359375 87.714844 94.773438 C 87.800781 95.9375 89.292969 94.609375 89.460938 95.851562 C 89.542969 96.351562 89.292969 96.769531 88.882812 97.019531 C 88.046875 97.183594 87.464844 96.683594 87.132812 96.101562 C 87.050781 95.273438 87.132812 94.441406 87.800781 93.859375 C 88.546875 93.441406 89.382812 93.03125 90.292969 93.359375 C 91.375 93.859375 92.203125 94.691406 92.785156 95.769531 C 92.953125 96.769531 93.035156 98.101562 92.121094 98.847656 C 91.875 98.929688 91.625 99.097656 91.535156 99.347656 C 91.457031 99.761719 91.953125 100.011719 92.203125 100.011719 C 92.453125 100.011719 92.785156 100.011719 92.867188 100.34375 C 92.371094 101.921875 90.542969 101.921875 89.292969 102.753906 C 89.042969 103.421875 88.046875 103.839844 88.214844 104.667969 C 87.214844 105 86.136719 105.5 85.886719 106.582031 L 85.722656 107.828125 C 84.890625 108.160156 84.308594 108.824219 84.140625 109.738281 C 84.058594 110.488281 84.222656 111.152344 84.722656 111.652344 C 84.972656 111.820312 85.390625 111.820312 85.636719 111.652344 C 85.972656 110.902344 84.640625 110.402344 85.222656 109.492188 C 85.636719 108.410156 87.300781 109.738281 87.050781 108.160156 C 87.132812 108.160156 87.382812 108.660156 87.714844 108.410156 C 88.214844 108.160156 87.882812 107.492188 88.382812 107.242188 C 88.796875 107.242188 88.796875 107.742188 88.796875 107.992188 C 88.796875 108.578125 87.800781 109.160156 88.632812 109.570312 C 89.210938 109.570312 89.542969 108.992188 89.792969 108.492188 C 89.960938 107.828125 89.710938 107.078125 89.460938 106.5 C 89.042969 106.082031 88.464844 106 87.964844 106.164062 C 87.300781 106.5 87.050781 107.242188 86.964844 107.992188 C 86.550781 107.492188 86.800781 106.75 87.050781 106.332031 C 87.714844 105.5 89.125 106.082031 89.382812 104.832031 C 89.460938 104.082031 90.292969 103.671875 90.875 103.421875 C 91.292969 103.253906 91.875 103.421875 92.371094 103.503906 C 92.785156 103.753906 93.035156 104.667969 93.617188 104.171875 C 93.867188 103.421875 94.535156 103.003906 95.113281 102.753906 C 95.945312 102.589844 96.695312 102.671875 97.355469 103.003906 C 98.355469 103.671875 98.355469 104.75 98.105469 105.667969 C 97.855469 105.914062 97.6875 106.25 97.9375 106.5 C 98.355469 107.078125 99.019531 106.582031 99.519531 106.910156 C 100.433594 107.578125 101.179688 108.578125 100.847656 109.738281 C 100.679688 110.320312 100.265625 110.902344 99.6875 111.152344 C 99.1875 111.152344 98.605469 111.152344 98.355469 111.652344 C 98.769531 112.402344 99.1875 113.3125 98.6875 114.148438 C 98.605469 115.140625 97.605469 115.640625 96.859375 115.972656 C 95.859375 116.140625 94.863281 115.808594 94.199219 115.140625 C 93.617188 115.726562 93.535156 116.808594 92.535156 116.972656 C 91.375 117.058594 90.210938 116.722656 89.542969 115.640625 C 89.382812 115.308594 89.542969 114.894531 89.625 114.5625 C 90.707031 114.8125 91.785156 114.148438 92.121094 113.148438 C 92.371094 112.402344 92.203125 111.570312 91.703125 110.902344 C 91.375 110.070312 90.292969 110.070312 89.625 110.238281 C 88.296875 110.402344 87.464844 111.570312 87.132812 112.730469 C 86.964844 114.5625 87.464844 116.722656 89.382812 117.722656 C 91.125 119.300781 93.453125 119.050781 95.777344 118.800781 L 98.6875 117.472656 C 102.257812 114.8125 103.589844 110.652344 102.347656 106.414062 C 101.761719 104.339844 100.515625 102.421875 99.1875 100.679688 C 99.4375 99.679688 100.347656 98.761719 101.265625 98.269531 C 102.097656 98.761719 102.925781 99.679688 103.757812 100.261719 C 106.417969 102.671875 111.070312 102.839844 114.0625 101.171875 C 117.222656 99.429688 119.214844 96.019531 118.800781 92.449219 C 118.382812 90.53125 117.304688 88.703125 115.5625 87.621094 C 114.644531 87.125 113.398438 87.125 112.570312 87.539062 C 111.902344 87.871094 111.070312 88.539062 110.820312 89.289062 C 110.492188 89.953125 110.652344 90.863281 111.070312 91.449219 C 111.570312 92.03125 112.152344 92.28125 112.820312 92.113281 C 113.5625 91.949219 114.230469 91.53125 114.644531 90.863281 C 114.8125 90.53125 114.730469 90.121094 115.0625 89.953125 C 115.644531 90.199219 116.390625 90.28125 116.722656 90.949219 C 116.972656 91.449219 116.972656 92.199219 116.722656 92.691406 C 116.554688 93.359375 115.3125 93.691406 115.890625 94.441406 C 116.722656 94.773438 116.722656 95.691406 116.554688 96.4375 C 116.140625 97.519531 115.0625 98.183594 113.980469 98.183594 C 112.984375 98.351562 112.402344 96.683594 111.652344 97.519531 C 112.152344 98.601562 111.484375 99.429688 110.820312 100.179688 C 110.074219 100.929688 108.910156 101.011719 108.078125 100.429688 C 107.082031 99.84375 106.832031 98.679688 106.917969 97.683594 C 106.332031 97.019531 105.585938 97.769531 104.839844 97.601562 C 104.089844 97.351562 103.339844 96.933594 103.089844 96.101562 C 102.675781 95.359375 103.089844 94.523438 103.257812 93.773438 C 103.675781 93.191406 104.757812 93.109375 104.421875 92.28125 C 103.921875 91.863281 103.089844 91.449219 103.257812 90.53125 C 103.257812 89.871094 103.507812 89.203125 104.007812 88.703125 C 104.507812 87.953125 105.75 88.703125 106 87.707031 C 105.917969 86.875 106.332031 86.128906 106.917969 85.628906 C 107.5 85.296875 108.410156 85.296875 109.078125 85.460938 C 109.492188 84.960938 109.910156 84.460938 110.652344 84.460938 C 111.402344 84.300781 111.984375 86.542969 112.320312 84.878906 C 112.234375 84.382812 111.738281 83.882812 111.320312 83.714844 C 110.160156 83.132812 109.160156 83.882812 108.242188 84.460938 C 107.164062 84.300781 106.332031 85.046875 105.667969 85.792969 L 104.921875 87.042969 C 104.007812 87.460938 102.839844 88.121094 102.429688 89.203125 C 101.761719 90.371094 102.347656 92.613281 100.515625 92.78125 C 100.015625 92.363281 100.679688 91.363281 99.765625 91.28125 C 98.6875 91.78125 97.355469 92.113281 96.109375 91.78125 C 95.195312 91.03125 93.949219 90.28125 93.867188 88.953125 C 93.949219 88.039062 94.117188 86.960938 95.113281 86.542969 C 95.695312 86.378906 96.359375 86.378906 96.695312 86.960938 C 96.9375 87.292969 97.105469 87.789062 96.859375 88.207031 C 96.277344 89.539062 94.367188 87.042969 95.027344 89.203125 C 95.445312 89.953125 96.195312 90.28125 97.027344 90.28125 C 102.347656 89.539062 104.921875 82.96875 110.402344 82.550781 C 113.398438 82.46875 116.554688 83.382812 118.136719 86.210938 C 118.632812 87.371094 119.132812 88.453125 119.214844 89.621094 C 119.382812 89.871094 119.714844 89.953125 119.964844 89.785156 C 120.464844 88.621094 119.714844 87.539062 119.382812 86.460938 C 118.136719 83.550781 116.140625 80.804688 114.644531 77.894531 C 113.8125 75.820312 113.730469 72.492188 114.980469 70.492188 L 115.226562 69.75 C 116.972656 67.671875 120.132812 65.421875 118.882812 62.261719 C 118.632812 61.769531 118.054688 61.601562 117.636719 61.433594 C 116.972656 61.515625 115.972656 61.683594 115.972656 62.511719 C 116.304688 63.511719 117.136719 62.261719 117.636719 62.929688 C 117.886719 63.34375 118.054688 63.84375 117.804688 64.34375 C 117.554688 64.921875 116.804688 64.761719 116.390625 64.675781 C 115.8125 64.261719 115.394531 63.761719 115.394531 63.097656 C 115.226562 62.015625 115.972656 61.101562 116.972656 60.769531 C 118.214844 60.433594 119.382812 61.019531 120.296875 61.769531 C 120.875 62.597656 121.125 63.59375 121.046875 64.511719 C 120.632812 66.589844 118.800781 68.25 117.054688 69.332031 C 116.972656 69.5 116.890625 69.832031 117.136719 69.914062 C 117.972656 69.664062 119.132812 69.414062 119.964844 69.914062 C 121.214844 70.660156 121.625 72.078125 121.542969 73.492188 C 121.375 76.230469 118.882812 77.980469 119.132812 80.804688 C 117.554688 78.980469 116.890625 76.730469 116.554688 74.402344 C 117.304688 74.734375 118.382812 74.988281 119.132812 74.402344 C 119.882812 73.820312 120.046875 72.742188 119.632812 71.910156 C 119.296875 71.242188 118.632812 70.742188 117.972656 70.492188 C 116.972656 70.332031 116.222656 70.910156 115.644531 71.660156 C 113.898438 74.570312 115.8125 77.894531 117.136719 80.640625 C 119.796875 84.214844 121.542969 88.621094 121.460938 93.277344 C 120.964844 95.9375 120.378906 98.519531 118.054688 100.34375 L 115.722656 101.757812 C 115.8125 103.003906 117.222656 101.921875 117.972656 102.257812 C 119.632812 102.339844 120.875 103.921875 121.292969 105.332031 C 121.625 106.414062 121.625 107.578125 120.964844 108.410156 C 120.296875 109.660156 119.050781 110.070312 117.804688 110.320312 C 116.804688 110.320312 115.890625 109.902344 115.144531 109.160156 C 114.730469 108.410156 114.644531 107.410156 114.8125 106.582031 C 115.0625 106.332031 115.144531 105.914062 115.5625 105.75 C 115.5625 106.414062 115.476562 107.492188 116.304688 107.992188 C 116.804688 108.410156 117.554688 108.242188 118.136719 107.992188 C 118.800781 107.660156 119.132812 106.910156 119.050781 106.164062 C 119.050781 105.417969 118.464844 104.832031 117.972656 104.339844 C 114.5625 102.671875 110.402344 104.582031 107 103.253906 C 105 102.339844 103.175781 101.09375 101.429688 99.761719 C 101.015625 99.761719 100.679688 100.09375 100.515625 100.429688 C 102.757812 103.421875 103.839844 106.910156 104.171875 110.652344 C 104.589844 113.230469 103.257812 117.304688 106.667969 118.386719 C 107.414062 118.46875 108.078125 118.21875 108.578125 117.722656 C 109.078125 117.222656 109.324219 116.390625 108.992188 115.726562 C 108.828125 115.0625 108.160156 114.730469 107.5 114.730469 C 106.917969 114.648438 106.5 115.230469 106.082031 115.230469 C 106 114.648438 106.417969 114.0625 107 113.8125 C 107.828125 113.398438 108.660156 113.730469 109.410156 113.980469 C 110.242188 114.480469 110.738281 115.308594 110.902344 116.140625 C 111.152344 117.890625 110.242188 119.632812 108.660156 120.46875 C 107.25 121.046875 105.5 121.046875 104.171875 120.300781 C 103.425781 119.71875 102.839844 118.96875 102.597656 118.140625 C 102.347656 117.058594 102.925781 116.058594 103.175781 114.980469 C 103.089844 114.8125 102.925781 114.480469 102.675781 114.5625 C 101.597656 115.140625 101.929688 116.640625 101.097656 117.472656 C 98.355469 120.710938 94.117188 121.960938 89.960938 121.296875 C 87.050781 120.46875 84.390625 119.300781 81.8125 117.800781 C 79.238281 116.390625 76.578125 114.480469 73.335938 115.480469 C 72.671875 116.140625 71.757812 116.890625 71.925781 117.972656 C 71.925781 118.71875 72.175781 119.382812 72.917969 119.632812 C 73.667969 119.96875 74.667969 119.71875 75.25 119.132812 C 75.828125 118.71875 75.828125 117.890625 75.660156 117.222656 C 75.582031 117.058594 75.417969 116.890625 75.5 116.640625 C 77.910156 116.558594 79.820312 118.140625 81.730469 119.21875 C 78.90625 118.96875 76.996094 121.378906 74.25 121.710938 C 73.089844 121.878906 72.257812 121.210938 71.507812 120.632812 " fill-opacity="1" fill-rule="nonzero"/><path fill="#fcedd4" d="M 28.953125 120.800781 C 28.621094 120.710938 28.371094 120.46875 28.203125 120.214844 L 34.6875 120.050781 L 55.71875 120.132812 L 58.792969 120.050781 L 59.042969 119.632812 L 59.125 114.148438 L 59.292969 113.898438 C 67.6875 113.980469 75.910156 113.230469 81.648438 107.078125 C 84.308594 104.339844 85.636719 101.011719 86.882812 97.601562 C 87.550781 98.269531 86.964844 99.429688 86.800781 100.179688 C 85.054688 105.914062 79.820312 111.488281 73.917969 113.0625 C 71.34375 113.648438 68.847656 114.480469 66.023438 114.5625 L 60.453125 114.894531 L 60.121094 115.390625 L 60.042969 120.878906 L 28.953125 120.800781 " fill-opacity="1" fill-rule="nonzero"/><path fill="#fcedd4" d="M 124.035156 120.050781 C 124.203125 119.71875 124.949219 119.800781 125.285156 119.882812 C 125.035156 120.300781 124.453125 120.050781 124.035156 120.050781 " fill-opacity="1" fill-rule="nonzero"/><path fill="#fcedd4" d="M 25.378906 118.636719 L 26.128906 117.640625 L 28.953125 117.558594 L 56.050781 117.558594 L 56.300781 117.222656 L 56.546875 111.070312 C 65.105469 110.820312 74.5 111.402344 80.070312 104.082031 C 83.5625 100.09375 84.390625 94.859375 84.804688 89.871094 C 85.304688 89.785156 85.972656 89.785156 86.222656 90.199219 C 86.882812 95.359375 85.140625 100.511719 82.3125 104.75 C 77.824219 110.570312 71.34375 112.980469 64.195312 112.898438 C 62.285156 112.898438 60.371094 113.0625 58.542969 112.730469 L 58.292969 112.898438 L 58.042969 119.132812 L 57.792969 119.21875 L 26.210938 119.050781 L 25.378906 118.636719 " fill-opacity="1" fill-rule="nonzero"/><path fill="#fcedd4" d="M 128.109375 115.890625 C 128.359375 113.8125 127.945312 111.570312 126.777344 109.820312 C 126.863281 109.738281 126.863281 109.570312 127.027344 109.570312 C 128.777344 111.570312 129.027344 114.5625 128.277344 117.140625 L 127.945312 117.890625 C 127.527344 117.304688 128.109375 116.558594 128.109375 115.890625 " fill-opacity="1" fill-rule="nonzero"/><path fill="#fcedd4" d="M 113.730469 115.890625 C 114.0625 116.058594 114.5625 116.308594 114.8125 115.890625 C 114.980469 115.808594 115.144531 115.480469 114.894531 115.308594 C 113.980469 114.8125 112.902344 114.0625 112.402344 113.148438 C 112.234375 112.570312 112.820312 111.984375 113.230469 111.820312 C 114.644531 111.738281 115.3125 113.230469 116.140625 114.0625 C 116.390625 114.148438 116.804688 113.898438 116.804688 113.5625 C 116.222656 112.234375 115.3125 110.570312 113.730469 110.152344 C 112.984375 109.902344 112.234375 110.238281 111.570312 110.402344 C 110.738281 110.988281 110.988281 111.984375 110.902344 112.816406 C 111.484375 113.980469 112.484375 114.980469 113.5625 115.808594 C 112.234375 115.308594 110.652344 113.898438 110.402344 112.320312 C 110.074219 111.738281 110.820312 110.652344 109.992188 110.152344 C 109.160156 110.320312 108.492188 111.152344 107.5 110.902344 C 104.839844 109.902344 105.5 106.832031 104.339844 104.75 L 103.175781 102.507812 C 105.335938 103.839844 107.660156 104.75 110.074219 105.5 C 110.738281 105.832031 111.484375 106.414062 111.570312 107.242188 C 111.902344 108.078125 110.320312 108.992188 111.570312 109.492188 C 113.398438 108.578125 114.8125 110.738281 116.058594 111.738281 C 117.472656 113.480469 118.214844 115.480469 118.714844 117.558594 L 118.632812 117.722656 C 116.890625 117.390625 115.0625 116.972656 113.730469 115.890625 " fill-opacity="1" fill-rule="nonzero"/><path fill="#fcedd4" d="M 23.632812 117.304688 C 23.632812 116.972656 23.96875 116.558594 24.382812 116.472656 C 24.632812 116.558594 25.132812 116.640625 25.132812 117.058594 C 25.210938 117.472656 24.800781 117.722656 24.550781 117.800781 C 24.132812 117.972656 23.882812 117.558594 23.632812 117.304688 " fill-opacity="1" fill-rule="nonzero"/><path fill="#fcedd4" d="M 50.230469 116.558594 C 50.8125 115.808594 51.808594 115.558594 52.472656 114.894531 C 53.058594 115.308594 53.890625 115.480469 54.550781 115.140625 C 54.71875 114.980469 54.882812 114.730469 55.21875 114.730469 C 55.21875 115.390625 55.382812 116.308594 54.800781 116.640625 L 50.230469 116.558594 " fill-opacity="1" fill-rule="nonzero"/><path fill="#fcedd4" d="M 48.488281 115.308594 C 49.070312 114.398438 49.980469 113.8125 50.980469 113.730469 C 51.144531 113.5625 51.0625 113.3125 50.8125 113.230469 C 49.898438 112.648438 48.488281 112.152344 48.488281 110.820312 C 48.488281 110.738281 48.488281 110.652344 48.488281 110.570312 C 49.398438 111.238281 50.648438 111.402344 51.5625 112.152344 C 52.140625 112.570312 52.140625 113.230469 51.890625 113.898438 C 50.980469 115.0625 49.648438 115.230469 48.652344 116.390625 C 48.320312 116.140625 48.320312 115.640625 48.488281 115.308594 " fill-opacity="1" fill-rule="nonzero"/><path fill="#fcedd4" d="M 124.949219 114.648438 C 125.367188 114.5625 125.949219 115.230469 126.445312 115.480469 L 126.527344 115.972656 C 125.949219 115.726562 125.449219 115.0625 124.949219 114.648438 " fill-opacity="1" fill-rule="nonzero"/><path fill="#fcedd4" d="M 79.652344 112.320312 C 80.484375 112.152344 81.480469 112.480469 82.0625 113.0625 C 82.5625 114.0625 82.894531 115.0625 83.144531 116.058594 C 81.980469 114.8125 78.738281 114.894531 79.652344 112.320312 " fill-opacity="1" fill-rule="nonzero"/><path fill="#2f5982" d="M 91.292969 115.230469 C 91.207031 114.230469 92.371094 114.480469 92.621094 113.648438 C 93.035156 112.898438 93.453125 111.902344 92.867188 111.152344 C 92.621094 110.988281 92.371094 110.652344 92.453125 110.402344 C 92.867188 110.238281 93.367188 110.238281 93.703125 110.570312 C 94.199219 111.984375 94.777344 114.0625 93.367188 115.390625 C 92.867188 116.140625 91.625 115.972656 91.292969 115.230469 " fill-opacity="1" fill-rule="nonzero"/><path fill="#2f5982" d="M 94.863281 113.898438 L 94.863281 113.230469 C 95.859375 112.816406 96.109375 115.0625 96.859375 113.648438 C 96.859375 112.152344 94.777344 111.984375 94.863281 110.652344 C 95.945312 110.152344 96.777344 111.738281 97.355469 112.402344 C 97.6875 113.0625 98.019531 114.0625 97.4375 114.730469 C 96.609375 115.808594 95.113281 115.0625 94.863281 113.898438 " fill-opacity="1" fill-rule="nonzero"/><path fill="#fcedd4" d="M 45.410156 114.730469 C 45.328125 114.398438 45.660156 114.3125 45.828125 114.148438 C 46.410156 114.230469 46.820312 114.648438 47.320312 114.980469 C 47.488281 115.140625 47.320312 115.308594 47.238281 115.480469 C 46.578125 115.308594 45.910156 115.230469 45.410156 114.730469 " fill-opacity="1" fill-rule="nonzero"/><path fill="#fcedd4" d="M 124.367188 114.3125 L 124.785156 114.5625 L 124.535156 114.398438 Z M 124.367188 114.3125 " fill-opacity="1" fill-rule="nonzero"/><path fill="#fcedd4" d="M 123.785156 113.5625 L 123.875 114.0625 C 122.125 113.480469 120.464844 112.648438 118.382812 112.980469 C 118.054688 112.730469 118.136719 112.320312 118.304688 111.984375 C 119.964844 110.238281 122.707031 111.238281 124.867188 110.652344 C 125.199219 110.652344 125.535156 110.488281 125.785156 110.820312 C 125.785156 110.988281 125.867188 111.070312 125.867188 111.238281 C 124.867188 111.488281 123.625 111.070312 122.792969 111.652344 C 122.792969 112.070312 122.375 112.898438 123.125 113.0625 C 124.453125 113.0625 125.785156 113.398438 126.777344 114.148438 L 126.613281 114.398438 C 125.617188 114.230469 124.785156 112.898438 123.785156 113.5625 " fill-opacity="1" fill-rule="nonzero"/><path fill="#fcedd4" d="M 52.972656 113.5625 C 53.058594 113.148438 53.304688 112.730469 53.804688 112.898438 C 54.140625 112.816406 54.300781 113.148438 54.472656 113.3125 C 54.472656 113.730469 54.300781 114.148438 53.972656 114.398438 C 53.472656 114.398438 52.972656 114.148438 52.972656 113.5625 " fill-opacity="1" fill-rule="nonzero"/><path fill="#fcedd4" d="M 43.25 113.480469 C 43.417969 113.0625 43.917969 112.816406 44.328125 112.730469 C 44.746094 112.648438 44.910156 113.0625 45.078125 113.230469 L 44.328125 114.230469 C 43.917969 114.0625 43.5 113.898438 43.25 113.480469 " fill-opacity="1" fill-rule="nonzero"/><path fill="#fcedd4" d="M 46.820312 113.3125 C 47.320312 112.980469 47.65625 112.402344 48.320312 112.570312 C 48.570312 112.898438 49.070312 113.148438 48.988281 113.648438 C 48.488281 113.8125 48.070312 114.480469 47.488281 113.980469 C 47.238281 113.730469 46.90625 113.5625 46.820312 113.3125 " fill-opacity="1" fill-rule="nonzero"/><path fill="#fcedd4" d="M 40.917969 113.648438 C 40.917969 113.398438 41.007812 113.148438 41.253906 113.148438 C 41.585938 113.0625 41.917969 113.3125 41.917969 113.648438 C 41.917969 113.8125 41.667969 113.980469 41.503906 113.980469 C 41.253906 113.980469 41.007812 113.898438 40.917969 113.648438 " fill-opacity="1" fill-rule="nonzero"/><path fill="#fcedd4" d="M 125.117188 112.402344 C 125.285156 112.070312 125.867188 112.320312 126.277344 112.320312 L 126.527344 112.730469 C 126.117188 112.898438 125.535156 112.570312 125.117188 112.402344 " fill-opacity="1" fill-rule="nonzero"/><path fill="#fcedd4" d="M 45.578125 112.152344 C 46.078125 111.820312 46.738281 111.320312 47.320312 111.570312 C 46.988281 111.984375 45.992188 113.230469 45.578125 112.152344 " fill-opacity="1" fill-rule="nonzero"/><path fill="#2f5982" d="M 94.117188 109.242188 C 93.949219 109.074219 93.949219 108.742188 94.117188 108.660156 C 95.027344 108.410156 95.695312 109.410156 96.609375 109.492188 C 97.273438 109.492188 98.1875 109.902344 98.6875 109.160156 C 98.6875 108.742188 98.269531 108.660156 97.9375 108.492188 C 97.605469 108.492188 97.105469 108.660156 96.9375 108.160156 C 96.9375 107.660156 97.355469 107.578125 97.773438 107.492188 C 98.519531 107.410156 99.101562 107.828125 99.597656 108.410156 C 100.015625 108.824219 100.015625 109.492188 99.6875 109.988281 C 98.769531 110.902344 97.1875 110.488281 96.027344 110.320312 L 94.117188 109.242188 " fill-opacity="1" fill-rule="nonzero"/><path fill="#2f5982" d="M 106.5 108.910156 C 106.167969 108.328125 106.082031 107.410156 106.417969 106.832031 C 106.832031 106.082031 107.5 105.667969 108.328125 105.5 C 109.078125 105.417969 109.660156 105.832031 110.242188 106.332031 C 110.570312 106.832031 110.652344 107.660156 110.402344 108.160156 C 110.242188 108.410156 109.824219 108.410156 109.574219 108.242188 C 109.242188 107.742188 109.824219 106.992188 109.078125 106.664062 C 108.328125 106.5 107.828125 107.160156 107.582031 107.660156 C 107.5 108.078125 107.332031 108.742188 107.910156 108.910156 C 108.242188 108.910156 108.660156 108.578125 108.910156 108.910156 C 109.160156 109.160156 109.078125 109.570312 108.742188 109.738281 C 107.910156 110.152344 106.832031 109.820312 106.5 108.910156 " fill-opacity="1" fill-rule="nonzero"/><path fill="#fcedd4" d="M 122.792969 109.242188 L 122.707031 33.75 C 123.039062 32.332031 122.207031 30.421875 123.375 29.339844 L 123.539062 33.832031 L 123.539062 109.570312 C 123.289062 109.660156 122.707031 109.738281 122.792969 109.242188 " fill-opacity="1" fill-rule="nonzero"/><path fill="#fcedd4" d="M 124.703125 27.011719 L 125.867188 27.59375 C 125.785156 27.59375 125.867188 108.578125 125.867188 108.578125 L 124.785156 109.324219 C 124.785156 109.324219 124.535156 27.011719 124.703125 27.011719 " fill-opacity="1" fill-rule="nonzero"/><path fill="#2f5982" d="M 90.875 108.078125 C 91.042969 107.160156 92.035156 106.5 91.375 105.417969 C 90.707031 104.339844 90.457031 106.75 89.710938 105.332031 C 89.625 104.667969 90.042969 104.25 90.542969 104 C 91.207031 103.753906 91.535156 104.25 91.953125 104.5 C 92.703125 105.25 92.285156 106.25 92.371094 107.078125 C 93.453125 106.992188 94.535156 106.992188 95.527344 106.5 C 95.859375 106.082031 96.445312 105.667969 96.109375 105 C 95.945312 104.667969 95.445312 104.75 95.277344 104.917969 C 94.863281 105.082031 94.535156 105.914062 93.949219 105.5 C 93.703125 105.167969 93.867188 104.75 94.117188 104.5 C 94.613281 104.082031 95.195312 103.503906 95.945312 103.589844 C 96.609375 103.671875 97.105469 104.171875 97.273438 104.75 C 97.4375 105.5 97.273438 106.25 96.777344 106.75 C 95.695312 107.992188 93.867188 108.160156 92.453125 107.828125 L 92.285156 107.328125 C 92.121094 107.828125 91.292969 108.992188 90.875 108.078125 " fill-opacity="1" fill-rule="nonzero"/><path fill="#2f5982" d="M 105.417969 106.5 C 105.167969 105.75 104.589844 105.25 104.507812 104.5 C 104.339844 104.171875 103.839844 103.671875 104.339844 103.421875 C 105.25 104.082031 106.25 104.417969 107.25 104.832031 C 107.25 105.332031 106.5 105.5 106.25 106 C 106.167969 106.332031 105.75 107.242188 105.417969 106.5 " fill-opacity="1" fill-rule="nonzero"/><path fill="#fcedd4" d="M 94.613281 100.34375 C 94.613281 99.429688 95.527344 98.679688 96.109375 98.183594 C 97.605469 96.851562 98.769531 95.191406 100.347656 94.191406 C 100.765625 94.191406 101.265625 94.359375 101.347656 94.859375 C 100.265625 97.019531 97.6875 98.601562 96.027344 100.679688 C 95.527344 101.171875 94.863281 100.929688 94.613281 100.34375 " fill-opacity="1" fill-rule="nonzero"/><path fill="#2f5982" d="M 108.160156 98.269531 C 107.910156 97.683594 107.828125 97.183594 107.910156 96.4375 C 108 96.269531 108.160156 96.269531 108.328125 96.269531 C 108.828125 96.933594 108.578125 98.019531 109.492188 98.183594 C 109.824219 98.183594 109.992188 97.851562 110.074219 97.601562 C 110.160156 96.1875 109.078125 95.191406 108.492188 93.941406 C 108.410156 93.773438 108.660156 93.527344 108.828125 93.527344 C 109.824219 94.191406 110.402344 95.441406 110.820312 96.519531 C 111.070312 97.269531 111.152344 98.101562 110.738281 98.761719 C 110.074219 99.84375 108.492188 99.347656 108.160156 98.269531 " fill-opacity="1" fill-rule="nonzero"/><path fill="#fcedd4" d="M 95.277344 97.019531 L 97.855469 94.441406 L 98.019531 94.523438 C 97.4375 95.609375 96.195312 96.851562 95.277344 97.433594 L 95.277344 97.019531 " fill-opacity="1" fill-rule="nonzero"/><path fill="#2f5982" d="M 111.070312 94.523438 C 110.988281 94.191406 111.070312 93.941406 111.484375 94.023438 C 112.402344 94.691406 113.152344 96.519531 114.644531 95.9375 C 114.980469 95.691406 114.894531 95.359375 114.644531 95.109375 C 114.394531 94.941406 114.0625 94.691406 114.0625 94.359375 C 114.0625 93.859375 114.644531 93.859375 114.980469 94.023438 C 115.5625 94.691406 116.390625 95.359375 115.972656 96.351562 C 115.8125 96.851562 115.394531 97.101562 114.980469 97.183594 C 113.0625 97.351562 111.902344 95.851562 111.070312 94.523438 " fill-opacity="1" fill-rule="nonzero"/><path fill="#fcedd4" d="M 78.160156 94.773438 C 78.65625 94.773438 79.238281 95.023438 79.402344 95.523438 L 79.238281 97.101562 C 78.570312 96.601562 77.242188 95.769531 78.160156 94.773438 " fill-opacity="1" fill-rule="nonzero"/><path fill="#2f5982" d="M 104.339844 96.1875 C 103.921875 95.691406 104.171875 94.773438 104.339844 94.273438 C 104.507812 94.023438 104.671875 93.691406 104.921875 93.691406 C 105.667969 94.023438 104.421875 96.351562 106.082031 95.691406 C 107.164062 94.691406 106.75 93.109375 106.832031 91.863281 C 106.917969 91.699219 107.25 91.699219 107.414062 91.78125 C 107.828125 93.109375 108.078125 95.109375 107 96.1875 C 106.667969 96.601562 106.25 96.769531 105.835938 96.933594 C 105.25 96.933594 104.757812 96.683594 104.339844 96.1875 " fill-opacity="1" fill-rule="nonzero"/><path fill="#fcedd4" d="M 73.917969 95.851562 C 73.667969 95.273438 74 94.773438 74.5 94.609375 C 74.832031 94.359375 75.167969 94.691406 75.167969 95.023438 C 75.082031 95.273438 75.332031 95.359375 75.417969 95.523438 C 76.496094 94.941406 76.660156 93.527344 76.578125 92.363281 C 76.246094 90.199219 77.160156 87.707031 79.15625 86.542969 C 80.820312 85.460938 83.3125 85.628906 85.140625 86.292969 C 87.050781 87.210938 88.464844 88.621094 90.042969 90.121094 C 90.210938 90.199219 90.542969 90.199219 90.625 89.871094 C 88.964844 86.960938 85.472656 84.800781 85.636719 81.140625 C 85.636719 79.390625 86.550781 77.730469 88.214844 77.0625 C 90.292969 75.402344 94.035156 77.230469 95.695312 74.902344 C 95.777344 74.652344 95.695312 74.320312 95.363281 74.402344 C 94.945312 74.320312 94.695312 74.988281 94.367188 74.652344 C 94.285156 74.152344 94.613281 73.492188 95.195312 73.324219 C 95.695312 73.242188 96.359375 72.992188 96.527344 73.738281 C 96.859375 74.734375 96.445312 75.570312 95.777344 76.320312 C 94.695312 77.148438 93.285156 76.8125 92.203125 77.3125 C 92.453125 78.0625 93.367188 77.730469 93.785156 78.3125 C 94.445312 79.230469 94.777344 80.554688 94.285156 81.554688 C 93.867188 82.300781 93.117188 82.800781 92.371094 83.050781 C 91.625 83.050781 90.707031 82.96875 90.125 82.550781 C 89.875 82.136719 89.382812 81.890625 89.542969 81.390625 C 89.875 81.722656 90.792969 81.96875 91.292969 81.554688 C 91.875 81.222656 92.121094 80.472656 91.875 79.808594 C 91.292969 78.980469 90.292969 78.394531 89.292969 78.8125 C 88.046875 78.980469 87.382812 80.308594 86.964844 81.304688 C 86.71875 83.550781 87.714844 85.460938 88.964844 87.210938 C 89.125 87.371094 89.460938 87.371094 89.460938 87.210938 C 89.292969 85.542969 87.800781 84.300781 88.046875 82.386719 C 88.046875 82.050781 88.132812 81.800781 88.214844 81.554688 C 88.632812 83.300781 88.964844 85.296875 90.042969 86.875 C 91.785156 89.621094 94.117188 91.699219 96.445312 93.941406 L 94.777344 95.691406 C 91.785156 92.941406 88.714844 89.703125 84.890625 88.539062 C 84.058594 88.371094 83.144531 88.207031 82.398438 88.207031 C 83.972656 87.539062 85.804688 88.371094 87.214844 89.121094 C 87.464844 89.203125 87.550781 88.953125 87.714844 88.871094 C 87.550781 88.121094 86.800781 87.953125 86.222656 87.621094 C 84.558594 86.792969 82.230469 86.460938 80.652344 87.539062 C 79.902344 88.289062 79.15625 89.121094 79.320312 90.28125 C 79.570312 90.863281 79.902344 91.53125 80.484375 91.699219 C 81.230469 91.78125 82.0625 91.613281 82.398438 90.863281 L 82.480469 89.621094 C 83.144531 89.621094 83.3125 90.371094 83.5625 90.78125 C 83.722656 91.53125 83.644531 92.449219 83.3125 93.191406 C 82.644531 94.273438 81.398438 94.441406 80.238281 94.523438 C 79.402344 94.359375 78.65625 93.941406 78.160156 93.277344 C 77.578125 92.78125 77.992188 91.699219 77.160156 91.613281 C 76.578125 92.613281 77.578125 93.441406 77.328125 94.441406 C 76.996094 95.273438 76.742188 96.519531 75.582031 96.519531 C 74.832031 96.601562 74.25 96.4375 73.917969 95.851562 " fill-opacity="1" fill-rule="nonzero"/><path fill="#2f5982" d="M 106.082031 94.523438 C 106.082031 94.441406 106 94.273438 106.25 94.273438 L 106.332031 94.273438 C 106.417969 94.441406 106.25 94.609375 106.082031 94.523438 " fill-opacity="1" fill-rule="nonzero"/><path fill="#2f5982" d="M 111.820312 93.109375 C 112.234375 92.78125 112.820312 92.863281 113.3125 92.691406 C 114.230469 92.199219 114.5625 91.199219 115.3125 90.699219 C 115.722656 90.699219 116.058594 91.199219 116.140625 91.53125 C 116.140625 92.363281 115.890625 93.109375 115.144531 93.527344 C 114.230469 94.109375 113.152344 93.609375 112.070312 93.691406 C 111.984375 93.527344 111.820312 93.359375 111.820312 93.109375 " fill-opacity="1" fill-rule="nonzero"/><path fill="#fcedd4" d="M 87.300781 90.949219 C 87.550781 90.699219 87.800781 91.03125 88.046875 91.117188 C 88.296875 91.53125 87.964844 92.03125 87.882812 92.53125 C 87.714844 92.691406 87.632812 92.863281 87.382812 92.863281 L 87.300781 90.949219 " fill-opacity="1" fill-rule="nonzero"/><path fill="#2f5982" d="M 104.007812 91.03125 C 103.757812 90.617188 103.921875 90.121094 104.089844 89.785156 C 104.507812 89.289062 105 88.789062 105.75 88.953125 C 105.917969 88.953125 106.082031 89.039062 106.082031 89.203125 C 105.917969 89.785156 104.507812 89.953125 105.089844 90.699219 C 106.332031 90.949219 107.25 90.121094 108.078125 89.121094 C 108.242188 88.953125 108.742188 89.121094 108.578125 89.453125 C 108.242188 90.617188 107.082031 91.613281 105.835938 91.78125 C 105.089844 91.78125 104.339844 91.699219 104.007812 91.03125 " fill-opacity="1" fill-rule="nonzero"/><path fill="#2f5982" d="M 118.882812 90.199219 C 118.882812 90.121094 118.964844 90.121094 118.964844 90.03125 L 118.964844 90.199219 L 118.882812 90.199219 " fill-opacity="1" fill-rule="nonzero"/><path fill="#2f5982" d="M 106.582031 87.371094 C 106.5 86.875 106.667969 86.210938 107.25 85.960938 C 107.5 85.878906 107.828125 85.960938 107.75 86.292969 C 107.660156 86.625 107.332031 86.875 107.5 87.292969 C 107.828125 87.707031 108.242188 87.292969 108.410156 87.210938 C 108.660156 86.875 108.992188 86.460938 109.410156 86.625 C 109.742188 86.875 109.492188 87.292969 109.410156 87.539062 C 108.910156 87.953125 108.492188 88.539062 107.75 88.539062 C 107 88.703125 106.667969 87.953125 106.582031 87.371094 " fill-opacity="1" fill-rule="nonzero"/><path fill="#fcedd4" d="M 91.785156 87.539062 C 91.535156 87.210938 91.875 87.125 92.035156 87.042969 C 92.371094 86.960938 92.703125 87.042969 93.035156 87.125 C 93.203125 87.460938 93.035156 87.871094 92.703125 88.121094 C 92.285156 88.207031 91.953125 87.871094 91.785156 87.539062 " fill-opacity="1" fill-rule="nonzero"/><path fill="#fcedd4" d="M 97.523438 86.378906 C 98.105469 85.878906 99.019531 85.960938 99.6875 85.542969 C 105.167969 83.714844 110.160156 78.480469 111.902344 72.992188 C 113.480469 68.332031 113.3125 63.011719 113.3125 58.273438 C 115.394531 57.941406 117.722656 58.359375 119.964844 58.023438 L 120.214844 57.609375 L 120.132812 32.664062 C 120.214844 31.75 119.964844 30.839844 120.214844 30.089844 L 120.714844 30.421875 L 120.796875 35.242188 L 120.714844 58.773438 C 118.632812 59.191406 116.472656 58.941406 114.3125 59.105469 L 114.144531 59.523438 C 114.480469 66.171875 113.898438 72.574219 110.402344 77.980469 C 107.414062 82.386719 102.839844 85.878906 97.9375 87.042969 L 97.523438 86.378906 " fill-opacity="1" fill-rule="nonzero"/><path fill="#fcedd4" d="M 90.210938 84.632812 L 90.210938 84.382812 C 97.355469 83.632812 105.089844 81.140625 108.160156 73.820312 C 110.738281 68.5 109.660156 61.851562 110.074219 55.613281 L 117.136719 55.363281 L 117.386719 55.03125 C 117.304688 45.800781 117.386719 36.410156 117.472656 27.511719 C 117.722656 27.429688 117.886719 26.761719 118.214844 27.09375 C 119.214844 28.011719 119.050781 29.421875 119.132812 30.589844 L 119.132812 57.027344 L 118.882812 57.191406 L 112.402344 57.359375 L 112.152344 57.773438 C 112.820312 67.003906 111.738281 77.230469 103.175781 82.632812 C 101.179688 83.964844 98.9375 84.710938 96.695312 85.378906 C 94.695312 85.542969 92.867188 86.128906 90.957031 86.210938 L 90.210938 84.632812 " fill-opacity="1" fill-rule="nonzero"/><path fill="#fcedd4" d="M 84.308594 84.878906 C 84.222656 84.382812 84.390625 83.800781 84.972656 83.882812 L 85.140625 83.882812 L 86.222656 85.792969 C 85.554688 85.460938 84.804688 85.460938 84.308594 84.878906 " fill-opacity="1" fill-rule="nonzero"/><path fill="#fcedd4" d="M 76.742188 83.632812 C 77.492188 82.882812 78.65625 82.300781 79.738281 82.800781 C 80.320312 82.96875 80.980469 83.46875 81.5625 82.96875 C 81.730469 82.882812 81.730469 82.632812 81.648438 82.46875 C 80.484375 81.96875 79.15625 81.472656 78.738281 80.140625 C 78.410156 79.308594 78.160156 78.480469 77.992188 77.5625 C 79.402344 77.5625 80.820312 78.0625 81.8125 79.0625 C 82.644531 79.722656 82.3125 81.054688 83.3125 81.390625 L 83.480469 81.222656 C 82.894531 79.472656 82.8125 76.980469 84.308594 75.652344 C 85.886719 77.230469 84.972656 79.472656 84.722656 81.390625 C 84.722656 81.890625 84.972656 83.132812 83.972656 82.96875 C 83.644531 82.800781 83.3125 82.96875 83.0625 83.21875 C 83.144531 83.632812 83.3125 84.214844 82.980469 84.550781 C 81.480469 84.632812 79.988281 85.296875 78.570312 84.800781 C 77.910156 84.460938 77.328125 83.964844 76.742188 83.632812 " fill-opacity="1" fill-rule="nonzero"/><path fill="#fcedd4" d="M 113.152344 81.390625 C 112.652344 80.722656 112.234375 80.058594 112.320312 79.230469 C 114.480469 78.644531 115.3125 81.222656 116.222656 82.632812 L 116.222656 82.800781 C 115.144531 82.386719 114.3125 81.554688 113.152344 81.390625 " fill-opacity="1" fill-rule="nonzero"/><path fill="#fcedd4" d="M 94.863281 77.980469 C 94.945312 77.5625 95.613281 77.730469 95.945312 77.8125 L 97.027344 79.0625 C 96.777344 79.390625 96.027344 79.390625 95.527344 79.308594 L 94.863281 77.980469 " fill-opacity="1" fill-rule="nonzero"/><path fill="#fcedd4" d="M 113.980469 54.28125 C 114.144531 53.621094 114.5625 52.539062 114.0625 51.789062 C 115.0625 51.121094 115.226562 49.878906 116.222656 49.210938 C 116.554688 50.625 116.222656 52.453125 116.304688 54.199219 C 115.5625 54.53125 114.8125 54.199219 113.980469 54.28125 " fill-opacity="1" fill-rule="nonzero"/><path fill="#fcedd4" d="M 111.902344 53.285156 C 111.738281 52.789062 111.984375 52.203125 112.570312 52.203125 C 112.984375 52.203125 113.3125 52.539062 113.3125 52.953125 C 113.230469 53.285156 112.984375 53.703125 112.570312 53.703125 C 112.234375 53.78125 112.070312 53.453125 111.902344 53.285156 " fill-opacity="1" fill-rule="nonzero"/><path fill="#fcedd4" d="M 110.074219 48.132812 C 111.238281 48.132812 111.902344 49.128906 112.902344 49.710938 C 113.648438 49.210938 113.8125 48.050781 114.8125 47.882812 L 115.5625 47.964844 C 114.230469 48.792969 114.3125 51.789062 112.152344 50.875 C 111.152344 50.125 110.570312 49.128906 110.074219 48.132812 " fill-opacity="1" fill-rule="nonzero"/><path fill="#fcedd4" d="M 111.902344 47.382812 C 112.070312 46.96875 112.234375 46.46875 112.734375 46.21875 C 113.0625 46.300781 113.398438 46.800781 113.5625 47.132812 C 113.648438 47.632812 112.984375 47.964844 112.734375 48.214844 C 112.484375 47.964844 111.738281 47.964844 111.902344 47.382812 " fill-opacity="1" fill-rule="nonzero"/><path fill="#fcedd4" d="M 110.570312 46.800781 C 110.820312 46.21875 110.738281 44.804688 111.738281 45.140625 C 112.152344 45.800781 111.238281 46.300781 111.070312 46.96875 C 110.902344 46.96875 110.652344 46.96875 110.570312 46.800781 " fill-opacity="1" fill-rule="nonzero"/><path fill="#fcedd4" d="M 113.5625 44.972656 C 114.3125 44.972656 114.480469 45.96875 114.644531 46.550781 L 114.480469 46.71875 C 114.144531 46.21875 113.152344 45.550781 113.5625 44.972656 " fill-opacity="1" fill-rule="nonzero"/><path fill="#fcedd4" d="M 111.984375 43.972656 C 111.984375 43.640625 112.234375 43.472656 112.570312 43.308594 C 112.820312 43.390625 112.984375 43.558594 113.0625 43.722656 C 113.152344 44.054688 112.902344 44.304688 112.652344 44.472656 C 112.320312 44.554688 112.152344 44.222656 111.984375 43.972656 " fill-opacity="1" fill-rule="nonzero"/><path fill="#fcedd4" d="M 111.902344 41.5625 C 111.984375 41.3125 112.152344 41.0625 112.484375 40.980469 C 112.652344 40.980469 112.734375 41.230469 112.820312 41.3125 L 112.570312 41.980469 C 112.320312 42.0625 111.984375 41.894531 111.902344 41.5625 " fill-opacity="1" fill-rule="nonzero"/><path fill="#fcedd4" d="M 118.632812 25.515625 L 118.214844 24.101562 C 118.714844 23.6875 118.882812 24.269531 119.132812 24.601562 C 119.546875 25.765625 119.964844 27.011719 121.046875 27.925781 C 121.292969 28.011719 121.875 28.175781 122.125 27.84375 C 122.957031 26.679688 123.375 25.351562 124.117188 24.183594 C 124.535156 24.519531 124.035156 25.101562 124.035156 25.601562 C 123.207031 26.929688 122.792969 28.511719 121.707031 29.671875 C 120.046875 28.921875 119.632812 26.929688 118.632812 25.515625 " fill-opacity="1" fill-rule="nonzero"/><path fill="#fcedd4" d="M 120.296875 25.015625 C 120.132812 24.351562 119.632812 23.601562 119.714844 22.941406 C 120.214844 22.691406 121.125 22.691406 121.214844 21.855469 C 121.046875 21.441406 121.375 21.109375 121.625 20.773438 L 121.875 20.773438 C 121.707031 21.773438 122.292969 22.691406 123.125 23.105469 C 122.875 24.433594 122.207031 25.601562 121.625 26.84375 C 120.796875 26.597656 120.632812 25.683594 120.296875 25.015625 " fill-opacity="1" fill-rule="nonzero"/><path fill="#fcedd4" d="M 125.285156 25.851562 C 125.199219 25.351562 125.367188 24.769531 125.867188 24.601562 C 126.445312 24.519531 126.695312 24.851562 126.945312 25.265625 C 127.195312 25.765625 126.695312 26.179688 126.367188 26.511719 C 125.867188 26.429688 125.449219 26.261719 125.285156 25.851562 " fill-opacity="1" fill-rule="nonzero"/><path fill="#fcedd4" d="M 116.058594 25.851562 C 116.058594 25.433594 116.390625 25.101562 116.722656 24.851562 C 117.136719 24.851562 117.304688 25.265625 117.386719 25.601562 C 117.304688 25.851562 117.304688 26.261719 116.972656 26.351562 C 116.554688 26.511719 116.140625 26.261719 116.058594 25.851562 " fill-opacity="1" fill-rule="nonzero"/><path fill="#fcedd4" d="M 126.367188 22.855469 L 126.117188 21.691406 C 124.867188 21.441406 126.035156 23.769531 124.535156 23.273438 C 124.285156 21.773438 126.117188 20.53125 124.867188 19.113281 C 124.117188 19.195312 124.703125 20.195312 124.367188 20.609375 C 124.117188 21.109375 123.953125 21.855469 123.375 22.023438 C 122.957031 22.023438 122.792969 21.523438 122.875 21.191406 C 123.953125 19.613281 125.449219 18.03125 125.199219 16.035156 C 125.117188 15.871094 124.867188 15.789062 124.703125 15.871094 C 124.453125 16.453125 124.453125 17.035156 124.203125 17.621094 C 123.707031 18.363281 123.289062 19.53125 122.457031 19.695312 L 122.375 19.363281 C 123.875 17.285156 125.117188 15.042969 125.449219 12.542969 C 125.285156 12.378906 125.035156 12.210938 124.867188 12.378906 C 124.203125 14.210938 123.625 16.035156 122.292969 17.371094 C 122.125 16.953125 122.207031 16.371094 122.207031 15.871094 C 122.792969 15.871094 123.375 15.289062 123.457031 14.792969 C 123.707031 13.960938 123.375 13.292969 123.039062 12.710938 C 121.707031 11.964844 123.625 11.382812 123.625 10.550781 C 123.707031 10.21875 124.035156 9.96875 124.453125 10.050781 C 125.199219 10.300781 126.117188 10.964844 126.277344 11.714844 C 127.113281 15.042969 124.535156 18.449219 126.367188 21.773438 C 126.777344 22.441406 127.027344 23.191406 127.777344 23.6875 C 127.363281 24.183594 126.277344 23.6875 126.367188 22.855469 " fill-opacity="1" fill-rule="nonzero"/><path fill="#fcedd4" d="M 116.222656 23.601562 C 119.296875 21.109375 117.386719 16.953125 117.136719 13.625 C 117.136719 12.378906 117.554688 11.132812 118.554688 10.382812 C 118.882812 10.21875 119.214844 9.882812 119.714844 9.882812 L 121.625 12.042969 C 121.707031 12.460938 121.046875 12.378906 120.714844 12.628906 C 120.132812 13.125 119.714844 13.875 120.046875 14.625 C 120.296875 15.203125 120.632812 15.539062 121.214844 15.789062 C 121.292969 16.453125 120.964844 17.035156 121.125 17.621094 C 120.296875 17.203125 120.046875 16.035156 119.546875 15.289062 L 118.882812 12.292969 C 118.800781 12.210938 118.554688 12.132812 118.382812 12.210938 C 117.972656 12.878906 118.136719 13.875 118.304688 14.625 C 118.964844 16.289062 119.632812 18.03125 121.125 19.363281 C 121.125 19.695312 121.125 20.03125 120.796875 20.113281 C 119.632812 19.78125 119.546875 18.28125 118.882812 17.535156 C 118.632812 17.453125 118.554688 17.621094 118.464844 17.703125 C 118.382812 19.195312 119.296875 20.28125 120.132812 21.441406 C 120.214844 21.773438 119.964844 21.855469 119.714844 21.941406 C 118.964844 21.773438 119.214844 20.441406 118.304688 20.609375 C 117.886719 21.441406 119.382812 22.441406 118.304688 23.105469 C 117.972656 23.023438 117.636719 22.691406 117.304688 22.773438 C 117.136719 23.273438 116.890625 23.851562 116.222656 23.601562 " fill-opacity="1" fill-rule="nonzero"/><path fill="#fcedd4" d="M 120.546875 8.222656 L 123.289062 8.140625 C 123.375 9.054688 122.707031 9.96875 122.292969 10.800781 C 122.042969 11.132812 121.625 10.714844 121.542969 10.464844 C 121.046875 9.800781 120.296875 9.132812 120.546875 8.222656 " fill-opacity="1" fill-rule="nonzero"/><path fill="#fcedd4" d="M 119.382812 6.890625 L 119.382812 6.808594 C 121.046875 6.722656 122.707031 6.226562 124.285156 6.722656 L 124.203125 7.058594 C 122.707031 6.972656 120.875 7.304688 119.382812 6.890625 " fill-opacity="1" fill-rule="nonzero"/><path fill="#fcedd4" d="M 117.636719 4.8125 C 117.472656 4.230469 117.804688 3.734375 118.304688 3.5625 L 125.035156 3.5625 C 125.285156 3.734375 125.617188 3.980469 125.699219 4.3125 C 125.699219 4.730469 125.449219 5.3125 124.949219 5.394531 C 122.792969 5.730469 120.714844 5.3125 118.632812 5.5625 C 118.214844 5.644531 117.804688 5.144531 117.636719 4.8125 " fill-opacity="1" fill-rule="nonzero"/><path fill="#fcedd4" d="M 119.132812 1.902344 C 120.714844 1.652344 122.207031 1.820312 123.875 1.820312 L 124.035156 2.070312 C 122.542969 2.320312 120.714844 2.402344 119.132812 2.152344 L 119.132812 1.902344 " fill-opacity="1" fill-rule="nonzero"/></svg>