<svg xmlns="http://www.w3.org/2000/svg" xmlns:xlink="http://www.w3.org/1999/xlink" width="175" zoomAndPan="magnify" viewBox="0 0 131.25 131.249998" height="175" preserveAspectRatio="xMidYMid meet" version="1.0"><defs><clipPath id="b36b12d166"><path d="M 0 0 L 130.503906 0 L 130.503906 130 L 0 130 Z M 0 0 " clip-rule="nonzero"/></clipPath></defs><g clip-path="url(#b36b12d166)"><path fill="#2f5982" d="M 126.582031 15.351562 C 125.347656 14.78125 123.726562 15.066406 122.585938 15.445312 C 121.4375 16.207031 120.773438 17.449219 120.582031 18.6875 C 120.105469 19.070312 119.34375 18.878906 118.675781 18.878906 L 118.390625 18.6875 L 118.390625 10.015625 C 118.390625 10.015625 72.164062 10.015625 72.257812 10.015625 C 73.5 8.683594 74.355469 6.773438 73.5 5.058594 C 73.214844 4.296875 72.449219 3.632812 71.6875 3.339844 C 70.640625 2.863281 69.6875 3.441406 68.925781 4.011719 C 68.070312 4.679688 68.070312 5.820312 68.445312 6.773438 L 69.496094 7.730469 C 66.539062 9.539062 63.011719 7.628906 60.441406 6.011719 C 57.582031 4.203125 55.386719 0.675781 51.960938 0.105469 C 50.914062 0.0078125 50.242188 0.960938 50.050781 1.816406 C 43.382812 0.292969 36.992188 2.769531 32.132812 7.152344 C 31.277344 5.441406 29.5625 4.394531 27.652344 4.488281 C 26.703125 4.582031 25.941406 5.15625 25.082031 5.726562 C 24.417969 5.15625 24.125 4.011719 23.460938 3.25 C 21.460938 0.582031 17.933594 0.105469 14.976562 1.054688 C 12.882812 1.816406 11.167969 3.917969 10.6875 6.105469 C 10.496094 7.445312 10.496094 8.777344 10.496094 10.015625 C 9.449219 10.394531 8.402344 10.015625 7.355469 10.394531 C 5.066406 11.0625 2.394531 12.972656 1.734375 15.445312 C 0.871094 18.023438 1.253906 21.167969 3.449219 22.976562 C 3.828125 23.261719 4.304688 23.546875 4.78125 23.929688 C 3.636719 25.078125 3.066406 26.503906 3.351562 28.125 C 3.449219 29.835938 5.160156 30.699219 6.398438 31.460938 C 1.15625 35.941406 0.015625 43.464844 2.109375 49.757812 C 1.253906 50.140625 0.679688 50.902344 0.492188 51.757812 C 0.300781 52.714844 0.777344 53.476562 1.253906 54.238281 C 4.683594 57.671875 11.074219 60.621094 9.164062 66.441406 C 9.164062 66.628906 8.878906 66.820312 8.785156 67.011719 C 8.402344 66.25 7.546875 65.488281 6.59375 65.488281 C 5.542969 65.488281 4.78125 66.535156 4.398438 67.390625 C 4.210938 68.535156 4.398438 69.585938 4.96875 70.539062 C 5.636719 71.394531 6.785156 71.679688 7.925781 71.488281 C 9.070312 71.488281 9.925781 70.539062 10.6875 69.777344 L 10.882812 69.871094 L 11.167969 73.78125 L 11.167969 118.957031 L 20.222656 118.957031 C 20.414062 119.433594 20.414062 120.003906 20.222656 120.574219 C 19.652344 120.957031 18.789062 120.667969 18.21875 121.050781 C 17.171875 121.433594 16.21875 122.484375 15.839844 123.53125 C 15.261719 125.433594 15.839844 127.34375 17.363281 128.484375 C 19.9375 130.390625 23.65625 129.820312 26.226562 128.484375 C 31.5625 125.53125 32.519531 119.335938 31.753906 113.90625 C 31.46875 111.902344 30.417969 110.1875 29.941406 108.277344 C 30.894531 107.613281 31.46875 106.46875 31.5625 105.328125 C 32.132812 102.277344 28.414062 103.894531 27.082031 102.941406 C 25.941406 102.75 24.988281 101.988281 24.03125 101.222656 C 23.078125 98.75 24.125 95.988281 25.082031 93.792969 C 26.703125 90.457031 28.890625 87.410156 30.894531 84.261719 C 31.941406 85.308594 33.28125 86.546875 34.707031 86.933594 C 36.898438 87.503906 38.902344 86.355469 40.332031 84.832031 L 41.566406 82.929688 C 45.476562 84.738281 50.242188 83.976562 53.484375 81.117188 C 56.058594 78.445312 57.105469 74.15625 55.679688 70.632812 C 54.816406 68.730469 53.386719 66.628906 51.199219 66.058594 C 49.289062 65.773438 47.195312 66.152344 45.667969 67.199219 C 45.570312 65.964844 46.238281 64.726562 46.523438 63.578125 C 47.289062 60.335938 47.765625 57.195312 47.671875 53.761719 L 50.8125 52.144531 C 51.390625 52.523438 51.199219 53.476562 51.769531 54.046875 C 52.53125 54.714844 51.199219 55.382812 51.199219 56.238281 C 51.097656 56.808594 50.722656 57.386719 50.242188 57.765625 C 49.765625 57.765625 49.480469 56.910156 48.910156 57.386719 C 48.433594 58.242188 48.050781 59.289062 48.527344 60.242188 C 49.003906 61.675781 50.527344 62.53125 52.054688 62.53125 C 53.769531 62.53125 55.011719 61.292969 55.964844 59.957031 L 62.726562 61.097656 C 63.011719 58.910156 62.726562 56.523438 62.539062 54.335938 C 63.488281 53.667969 64.542969 52.621094 64.726562 51.472656 C 64.921875 49.949219 64.636719 48.425781 63.394531 47.46875 C 62.539062 46.992188 61.203125 46.523438 60.347656 47.183594 C 60.539062 47.664062 61.203125 48.425781 60.253906 48.617188 C 58.914062 49.1875 57.296875 49.1875 56.25 50.519531 C 55.679688 49.855469 54.816406 49.472656 54.054688 49.09375 C 54.625 48.234375 54.816406 46.328125 56.535156 46.898438 C 60.0625 46.421875 63.585938 45.851562 66.921875 44.898438 C 66.636719 46.992188 67.015625 49.1875 68.253906 50.8125 C 70.355469 53.285156 73.785156 53.953125 76.933594 53.097656 C 80.550781 52.429688 84.269531 49.1875 84.933594 45.566406 C 85.601562 43.566406 85.410156 41.277344 84.933594 39.371094 C 86.75 38.230469 88.558594 36.605469 88.367188 34.316406 C 88.652344 31.9375 87.035156 30.222656 85.410156 28.695312 C 86.558594 26.886719 88.652344 25.648438 90.367188 24.5 C 93.796875 22.597656 97.707031 21.074219 101.710938 20.972656 C 102.851562 21.550781 103.90625 22.785156 104.667969 23.929688 C 105.714844 25.839844 105.046875 28.3125 105.238281 30.414062 C 106.476562 31.175781 108.285156 30.890625 109.527344 29.9375 L 110.480469 28.980469 C 115.910156 30.890625 123.054688 31.363281 127.539062 27.171875 C 129.824219 25.261719 130.492188 22.3125 130.015625 19.449219 C 129.445312 17.640625 128.300781 16.207031 126.582031 15.351562 " fill-opacity="1" fill-rule="nonzero"/></g><path fill="#fcedd4" d="M 128.683594 21.644531 C 128.300781 21.738281 127.921875 21.929688 127.921875 22.3125 C 127.921875 22.785156 128.492188 22.785156 128.777344 22.882812 C 129.160156 22.976562 129.160156 22.5 129.253906 22.3125 C 129.347656 21.929688 128.96875 21.738281 128.683594 21.644531 " fill-opacity="1" fill-rule="nonzero"/><path fill="#fcedd4" d="M 126.113281 16.308594 C 125.25 16.113281 124.296875 15.921875 123.535156 16.398438 C 123.25 16.59375 122.871094 16.878906 122.585938 17.164062 C 123.820312 16.683594 125.441406 16.5 126.683594 17.355469 C 127.730469 18.117188 127.824219 19.449219 128.398438 20.402344 L 129.160156 20.210938 C 128.777344 18.59375 127.824219 16.878906 126.113281 16.308594 " fill-opacity="1" fill-rule="nonzero"/><path fill="#fcedd4" d="M 127.539062 23.929688 C 127.34375 23.929688 127.160156 24.214844 126.96875 24.308594 C 127.253906 24.785156 127.921875 24.601562 128.398438 24.5 C 128.585938 23.835938 127.824219 24.023438 127.539062 23.929688 " fill-opacity="1" fill-rule="nonzero"/><path fill="#fcedd4" d="M 126.398438 25.363281 C 125.820312 25.457031 125.347656 26.027344 125.058594 26.503906 C 125.15625 26.886719 125.820312 26.980469 126.113281 26.980469 C 126.582031 26.601562 127.824219 25.546875 126.398438 25.363281 " fill-opacity="1" fill-rule="nonzero"/><path fill="#fcedd4" d="M 127.058594 21.359375 L 116.007812 21.453125 L 116.007812 12.398438 C 116.007812 12.398438 64.15625 12.398438 56.34375 12.496094 C 55.773438 16.207031 53.578125 19.832031 49.957031 21.359375 L 47.386719 21.929688 L 32.324219 22.121094 C 32.039062 22.785156 32.039062 23.546875 32.132812 24.214844 L 48.433594 24.023438 C 52.339844 23.929688 56.058594 21.265625 57.675781 17.738281 C 58.152344 16.785156 58.25 15.636719 58.914062 14.78125 C 58.914062 14.78125 113.816406 14.78125 113.910156 14.78125 L 113.910156 23.453125 C 113.910156 23.453125 126.296875 23.453125 126.203125 23.453125 C 126.96875 23.167969 127.058594 21.359375 127.058594 21.359375 " fill-opacity="1" fill-rule="nonzero"/><path fill="#fcedd4" d="M 125.15625 17.925781 C 124.109375 17.738281 123.15625 18.117188 122.585938 18.6875 C 123.535156 19.070312 124.871094 18.878906 126.296875 18.785156 C 126.113281 18.308594 125.632812 17.832031 125.15625 17.925781 " fill-opacity="1" fill-rule="nonzero"/><path fill="#fcedd4" d="M 124.296875 24.785156 C 121.824219 24.976562 118.675781 24.5 116.101562 25.078125 C 118.675781 26.789062 122.394531 26.695312 124.964844 24.976562 L 124.296875 24.785156 " fill-opacity="1" fill-rule="nonzero"/><path fill="#fcedd4" d="M 122.394531 27.265625 C 122.394531 27.835938 123.15625 28.21875 123.632812 28.410156 C 124.011719 28.3125 124.488281 28.3125 124.585938 27.933594 L 123.820312 26.980469 L 122.394531 27.265625 " fill-opacity="1" fill-rule="nonzero"/><path fill="#fcedd4" d="M 119.4375 27.457031 C 119.535156 28.027344 120.199219 28.695312 120.675781 29.074219 C 121.152344 29.265625 121.722656 29.074219 122.199219 28.890625 C 121.539062 28.027344 120.773438 26.886719 119.4375 27.457031 " fill-opacity="1" fill-rule="nonzero"/><path fill="#fcedd4" d="M 115.433594 26.316406 C 115.816406 27.550781 117.25 28.410156 118.105469 29.367188 L 119.4375 29.367188 C 118.390625 28.027344 117.34375 26.316406 115.433594 26.316406 " fill-opacity="1" fill-rule="nonzero"/><path fill="#fcedd4" d="M 113.246094 24.691406 L 110.289062 22.3125 L 110.289062 22.5 C 111.429688 24.691406 112.199219 27.074219 114.292969 28.890625 C 114.863281 28.980469 115.433594 29.175781 116.007812 29.074219 C 114.863281 27.835938 113.910156 26.21875 113.246094 24.691406 " fill-opacity="1" fill-rule="nonzero"/><path fill="#fcedd4" d="M 112.574219 16.207031 C 112.574219 16.207031 102.664062 16.207031 102.851562 16.207031 C 107.617188 18.308594 110.667969 20.6875 112.667969 22.597656 C 112.574219 22.691406 112.574219 16.207031 112.574219 16.207031 " fill-opacity="1" fill-rule="nonzero"/><path fill="#fcedd4" d="M 108.957031 22.121094 C 109.050781 21.929688 109.140625 21.835938 109.335938 21.738281 L 109.527344 21.738281 C 106.570312 19.640625 103.425781 17.546875 99.902344 16.5 C 93.609375 15.921875 86.933594 16.785156 81.40625 19.449219 C 80.835938 19.734375 80.550781 20.597656 79.789062 20.3125 C 79.3125 18.5 77.695312 16.785156 75.785156 16.5 C 73.40625 15.921875 71.59375 17.449219 70.257812 19.164062 C 70.164062 19.546875 69.972656 20.019531 69.496094 20.210938 C 65.777344 18.210938 61.585938 19.925781 58.628906 22.40625 C 55.386719 25.078125 51.199219 26.789062 46.71875 26.316406 C 46.808594 26.695312 46.910156 27.074219 47.101562 27.363281 C 47.289062 27.171875 47.480469 26.601562 47.957031 26.789062 C 48.335938 27.550781 48.335938 28.597656 49.097656 29.175781 C 49.097656 28.597656 48.8125 27.363281 49.480469 26.789062 L 49.859375 26.980469 C 50.050781 28.410156 50.050781 30.128906 51.484375 30.792969 C 51.097656 29.550781 50.722656 27.457031 51.578125 26.316406 C 51.960938 26.21875 52.054688 26.695312 51.960938 26.980469 C 51.675781 28.980469 52.722656 30.792969 54.148438 31.9375 C 53.484375 30.414062 52.625 28.410156 53.292969 26.789062 L 53.671875 26.886719 C 54.054688 28.890625 54.53125 31.269531 56.628906 32.316406 C 55.867188 30.316406 54.726562 28.21875 55.386719 25.933594 C 55.582031 25.648438 55.964844 25.546875 56.058594 25.933594 C 55.964844 28.503906 56.535156 30.699219 58.25 32.507812 L 59.300781 33.179688 C 57.867188 31.269531 56.726562 28.695312 57.390625 26.027344 C 57.675781 24.976562 57.773438 23.835938 58.914062 23.167969 C 59.390625 23.261719 59.199219 23.835938 59.105469 24.121094 C 58.25 25.546875 58.058594 27.363281 58.34375 29.074219 C 58.722656 30.984375 60.441406 32.792969 62.347656 33.179688 C 63.78125 33.554688 64.921875 33.078125 66.066406 32.507812 C 67.777344 31.363281 68.160156 29.265625 67.777344 27.457031 C 67.398438 26.21875 66.539062 24.976562 65.304688 24.40625 C 64.542969 23.929688 63.300781 23.929688 62.539062 24.40625 C 61.394531 25.171875 60.917969 26.316406 60.917969 27.648438 C 61.109375 28.597656 61.679688 29.367188 62.539062 29.746094 C 63.300781 29.835938 63.871094 29.367188 64.257812 28.695312 C 64.636719 27.648438 63.964844 26.695312 63.679688 25.742188 C 63.871094 25.457031 64.257812 25.742188 64.441406 25.839844 C 65.304688 26.695312 65.683594 27.742188 65.398438 28.980469 C 65.113281 29.835938 64.542969 30.890625 63.488281 31.078125 C 62.441406 31.078125 61.488281 30.890625 60.824219 30.03125 C 59.585938 28.503906 59.675781 26.027344 60.539062 24.40625 C 62.15625 22.3125 64.542969 20.789062 67.304688 21.074219 C 67.589844 21.265625 67.589844 21.550781 67.304688 21.644531 C 66.160156 21.835938 65.207031 22.214844 64.257812 22.882812 C 65.683594 23.167969 67.207031 23.929688 67.96875 25.261719 C 70.164062 27.550781 70.925781 30.507812 71.210938 33.65625 C 71.496094 33.65625 71.878906 33.941406 72.164062 33.65625 C 73.5 30.792969 73.976562 27.457031 74.261719 24.214844 C 73.5 23.738281 72.734375 23.261719 72.734375 22.3125 C 72.734375 21.550781 73.304688 20.6875 74.070312 20.402344 C 74.738281 20.3125 75.117188 20.402344 75.59375 20.789062 C 75.976562 21.265625 76.738281 21.738281 76.546875 22.5 C 76.453125 23.261719 75.691406 23.835938 75.308594 24.5 C 75.023438 27.742188 74.070312 30.792969 73.121094 33.75 L 73.214844 33.941406 C 76.261719 30.03125 79.882812 26.316406 83.984375 23.546875 C 84.363281 22.691406 84.171875 21.265625 85.507812 21.074219 C 86.273438 20.972656 87.414062 21.074219 87.605469 22.027344 C 87.699219 22.785156 87.605469 23.644531 86.933594 24.214844 C 86.171875 24.691406 85.410156 24.40625 84.554688 24.40625 C 80.742188 26.695312 77.21875 30.507812 74.355469 33.941406 C 74.453125 34.417969 74.644531 34.988281 74.929688 35.273438 C 76.933594 34.886719 78.742188 34.226562 80.835938 34.035156 C 81.027344 33.179688 81.789062 32.125 82.839844 32.316406 C 83.507812 32.222656 84.078125 32.792969 84.363281 33.363281 C 84.554688 33.941406 84.554688 34.886719 84.078125 35.367188 C 83.601562 35.75 83.125 36.035156 82.554688 35.941406 C 81.984375 35.941406 81.503906 35.558594 81.121094 35.082031 C 78.835938 35.179688 76.738281 35.84375 74.738281 36.511719 C 73.882812 36.890625 73.976562 37.84375 73.691406 38.605469 C 76.261719 39.5625 78.550781 40.800781 80.074219 43.179688 C 79.980469 44.519531 81.121094 45.375 80.933594 46.613281 C 81.789062 46.328125 81.984375 45.183594 82.644531 44.613281 C 83.125 45.28125 82.554688 46.042969 82.269531 46.707031 C 80.742188 49.285156 78.171875 50.519531 75.40625 50.617188 C 73.785156 50.425781 72.066406 49.949219 71.210938 48.425781 C 70.640625 47.855469 70.828125 46.707031 71.019531 45.945312 C 71.304688 44.996094 72.257812 44.328125 73.121094 44.042969 C 74.644531 43.945312 76.453125 44.230469 77.410156 45.566406 C 77.503906 45.757812 77.59375 46.230469 77.308594 46.328125 C 76.453125 46.613281 76.070312 45.46875 75.308594 45.375 C 74.355469 45.089844 73.304688 44.996094 72.542969 45.660156 C 71.972656 46.328125 71.972656 47.285156 72.359375 47.949219 C 73.121094 49.09375 74.355469 49.378906 75.691406 49.378906 C 77.117188 49.378906 78.265625 48.902344 79.21875 47.855469 C 79.789062 46.992188 79.980469 45.566406 79.410156 44.707031 C 77.789062 42.039062 74.832031 42.132812 71.972656 42.519531 C 70.542969 42.996094 69.117188 43.660156 68.355469 45.183594 C 67.589844 46.992188 68.253906 49.09375 69.496094 50.519531 C 71.6875 53.191406 75.117188 52.714844 77.980469 51.953125 C 81.40625 50.617188 84.363281 47.46875 84.363281 43.464844 C 84.460938 41.941406 84.171875 40.417969 83.699219 39.085938 C 84.648438 38.128906 86.273438 37.75 87.21875 36.605469 C 86.933594 35.941406 87.699219 35.558594 87.511719 34.886719 C 87.988281 32.699219 86.363281 30.792969 84.648438 29.652344 C 84.269531 29.367188 83.792969 29.367188 83.507812 28.980469 L 83.601562 28.597656 C 88.175781 23.929688 93.796875 21.359375 99.710938 19.832031 C 95.136719 17.640625 89.128906 17.925781 84.554688 19.832031 C 84.269531 19.832031 83.984375 19.925781 83.984375 19.640625 L 83.984375 19.355469 C 89.511719 16.59375 97.039062 16.878906 102.375 20.019531 C 104.476562 21.835938 106.476562 23.929688 106.570312 26.601562 L 106.285156 29.746094 C 107.140625 30.316406 107.910156 29.652344 108.671875 29.265625 C 109.527344 28.789062 109.527344 27.835938 110.289062 27.363281 L 111.90625 28.027344 C 111.050781 26.125 110.003906 24.121094 108.957031 22.121094 " fill-opacity="1" fill-rule="nonzero"/><path fill="#fcedd4" d="M 110.097656 22.214844 L 109.90625 21.929688 L 109.8125 22.027344 L 110.097656 22.214844 " fill-opacity="1" fill-rule="nonzero"/><path fill="#2f5982" d="M 101.234375 17.355469 C 101.042969 17.355469 100.757812 17.261719 100.855469 17.546875 C 101.328125 18.308594 102.472656 18.59375 103.140625 19.257812 C 106 21.835938 108.378906 25.363281 107.140625 29.074219 C 107.238281 29.367188 107.523438 29.265625 107.714844 29.175781 C 108.765625 26.789062 108.480469 23.835938 106.855469 21.738281 C 105.332031 19.925781 103.425781 18.210938 101.234375 17.355469 " fill-opacity="1" fill-rule="nonzero"/><path fill="#fcedd4" d="M 84.933594 16.207031 C 84.746094 16.308594 84.839844 16.5 84.839844 16.59375 C 85.03125 16.878906 85.316406 16.683594 85.410156 16.5 C 85.507812 16.113281 85.222656 16.398438 84.933594 16.207031 " fill-opacity="1" fill-rule="nonzero"/><path fill="#fcedd4" d="M 83.03125 16.308594 L 83.03125 17.355469 C 83.316406 17.449219 83.601562 17.355469 83.792969 17.164062 L 83.699219 16.308594 L 83.03125 16.308594 " fill-opacity="1" fill-rule="nonzero"/><path fill="#fcedd4" d="M 81.984375 16.207031 C 81.789062 16.113281 81.597656 16.207031 81.40625 16.207031 C 81.3125 16.785156 81.21875 17.546875 81.503906 18.117188 C 82.460938 18.023438 81.882812 16.785156 81.984375 16.207031 " fill-opacity="1" fill-rule="nonzero"/><path fill="#fcedd4" d="M 79.789062 16.207031 L 79.695312 16.207031 C 79.597656 16.785156 79.695312 17.449219 80.171875 17.925781 C 80.359375 17.449219 80.265625 16.785156 80.265625 16.207031 L 79.789062 16.207031 " fill-opacity="1" fill-rule="nonzero"/><path fill="#fcedd4" d="M 71.402344 39.65625 C 66.445312 39.371094 63.109375 43.851562 58.25 43.464844 C 58.058594 43.375 58.152344 42.996094 58.34375 42.996094 C 62.539062 41.847656 67.398438 40.132812 69.300781 35.652344 C 69.78125 34.035156 70.355469 32.03125 69.496094 30.507812 C 69.59375 30.128906 69.496094 29.835938 69.300781 29.550781 L 69.117188 29.550781 C 68.925781 33.65625 66.636719 37.367188 63.011719 39.46875 C 60.824219 40.609375 58.535156 41.65625 55.964844 41.847656 C 55.679688 42.996094 55.488281 44.421875 55.386719 45.660156 C 59.199219 46.042969 62.726562 44.519531 66.253906 43.660156 C 69.59375 42.234375 73.304688 40.417969 77.117188 41.46875 C 75.59375 40.039062 73.40625 39.941406 71.402344 39.65625 " fill-opacity="1" fill-rule="nonzero"/><path fill="#fcedd4" d="M 71.210938 35.082031 L 70.828125 35.082031 L 69.6875 38.320312 C 70.449219 38.128906 72.734375 39.277344 72.835938 37.464844 C 73.019531 36.796875 73.5 36.226562 73.40625 35.464844 L 71.210938 35.082031 " fill-opacity="1" fill-rule="nonzero"/><path fill="#fcedd4" d="M 71.972656 4.773438 C 71.496094 4.203125 70.640625 4.011719 69.972656 4.296875 C 69.496094 4.582031 68.832031 5.058594 69.117188 5.820312 C 69.117188 6.296875 69.496094 6.683594 69.972656 6.867188 C 70.449219 6.867188 70.925781 6.488281 71.117188 6.011719 C 71.019531 5.726562 71.019531 5.25 71.304688 5.058594 C 71.78125 5.058594 71.972656 5.726562 71.878906 6.105469 C 71.878906 7.058594 71.304688 7.824219 70.542969 8.492188 C 68.730469 10.015625 66.066406 9.632812 63.871094 8.96875 C 59.390625 7.445312 56.441406 2.679688 51.960938 1.054688 C 51.675781 1.054688 51.292969 1.34375 51.199219 1.628906 C 50.914062 2.863281 53.007812 3.054688 52.246094 4.203125 C 47.386719 1.4375 40.519531 2.292969 35.945312 5.15625 C 34.421875 6.296875 32.894531 7.34375 31.753906 8.871094 C 30.992188 8.492188 31.46875 7.253906 30.800781 6.582031 C 30.039062 5.632812 28.890625 5.34375 27.945312 5.632812 C 26.890625 5.917969 25.941406 6.96875 25.652344 8.015625 C 25.652344 9.160156 26.128906 10.207031 27.179688 10.777344 C 27.75 11.0625 28.320312 10.679688 28.800781 10.585938 C 29.46875 10.109375 29.753906 9.253906 29.65625 8.492188 C 29.5625 7.445312 28.320312 7.445312 27.652344 6.867188 C 27.652344 6.398438 28.230469 6.398438 28.515625 6.398438 C 29.371094 6.488281 30.132812 7.253906 30.324219 8.015625 C 30.609375 8.777344 30.609375 9.921875 30.132812 10.585938 C 29.371094 11.917969 27.945312 12.589844 26.320312 12.496094 C 25.652344 12.875 26.226562 13.921875 26.035156 14.683594 C 27.179688 14.96875 28.230469 14.113281 29.175781 13.636719 C 31.5625 11.347656 33.179688 8.300781 36.230469 6.773438 C 39.285156 4.296875 43.476562 2.769531 47.386719 3.726562 C 53.007812 5.058594 57.390625 9.539062 63.300781 10.300781 C 66.636719 10.109375 71.496094 11.441406 72.644531 7.445312 C 72.929688 6.398438 72.644531 5.535156 71.972656 4.773438 " fill-opacity="1" fill-rule="nonzero"/><path fill="#fcedd4" d="M 69.972656 16.113281 C 69.402344 16.113281 69.59375 16.878906 69.59375 17.164062 L 69.6875 17.449219 C 70.164062 17.261719 70.355469 16.5 69.972656 16.113281 " fill-opacity="1" fill-rule="nonzero"/><path fill="#fcedd4" d="M 68.070312 16.207031 C 67.398438 16.5 68.070312 17.355469 67.777344 17.925781 C 67.875 18.117188 68.070312 18.402344 68.355469 18.308594 C 68.730469 17.925781 68.445312 16.976562 68.546875 16.308594 L 68.070312 16.207031 " fill-opacity="1" fill-rule="nonzero"/><path fill="#fcedd4" d="M 66.921875 33.363281 C 66.636719 33.179688 66.351562 33.464844 66.253906 33.75 C 66.253906 34.035156 66.160156 34.511719 66.351562 34.796875 C 66.636719 34.417969 67.113281 33.941406 66.921875 33.363281 " fill-opacity="1" fill-rule="nonzero"/><path fill="#fcedd4" d="M 66.066406 16.207031 C 65.96875 16.785156 65.875 17.640625 66.160156 18.117188 C 66.445312 18.117188 66.730469 18.117188 66.828125 17.925781 L 66.636719 16.207031 L 66.066406 16.207031 " fill-opacity="1" fill-rule="nonzero"/><path fill="#fcedd4" d="M 65.207031 34.316406 C 64.351562 34.035156 64.542969 35.082031 64.542969 35.652344 L 64.636719 36.890625 C 65.589844 36.511719 65.207031 35.179688 65.207031 34.316406 " fill-opacity="1" fill-rule="nonzero"/><path fill="#fcedd4" d="M 64.257812 16.207031 C 64.636719 16.878906 63.679688 18.308594 64.828125 18.210938 C 65.019531 17.640625 64.921875 16.785156 64.921875 16.207031 L 64.257812 16.207031 " fill-opacity="1" fill-rule="nonzero"/><path fill="#fcedd4" d="M 63.203125 48.519531 C 62.917969 48.234375 62.632812 48.140625 62.25 48.140625 C 62.726562 49.09375 62.917969 50.425781 62.441406 51.472656 C 61.871094 52.621094 60.632812 53 59.492188 53.097656 C 58.722656 53.191406 57.960938 52.714844 57.296875 53.382812 C 57.105469 53.574219 57.011719 53.953125 57.199219 54.238281 C 58.058594 55.285156 59.390625 55.09375 60.347656 55.667969 C 60.539062 56.625 60.824219 57.957031 60.347656 58.8125 C 59.492188 58.625 58.152344 58.8125 57.773438 57.765625 C 57.675781 56.808594 57.390625 55.953125 56.820312 55.285156 C 56.34375 55 55.867188 55.191406 55.386719 55.382812 C 54.625 56.523438 55.488281 58.433594 54.246094 59.480469 C 53.386719 60.242188 52.152344 60.527344 51.097656 60.152344 C 50.4375 59.957031 49.957031 59.097656 49.382812 58.71875 C 49.003906 59.195312 49.382812 59.859375 49.480469 60.335938 C 50.144531 61.390625 51.292969 61.390625 52.339844 61.578125 C 53.863281 61.390625 55.011719 59.859375 55.679688 58.625 C 56.25 57.765625 55.582031 56.523438 56.25 55.667969 C 57.675781 56.332031 55.867188 58.625 57.582031 59.195312 C 59.105469 59.382812 60.253906 59.859375 61.777344 59.765625 C 61.964844 58.433594 61.871094 56.808594 61.679688 55.382812 C 61.109375 54.335938 59.585938 54.714844 58.628906 54.335938 C 58.34375 54.144531 58.25 53.859375 58.34375 53.667969 L 58.628906 53.382812 C 59.871094 53.285156 61.585938 53.953125 62.726562 52.808594 C 64.066406 51.757812 64.066406 49.757812 63.203125 48.519531 " fill-opacity="1" fill-rule="nonzero"/><path fill="#fcedd4" d="M 62.917969 34.601562 C 62.726562 35.75 62.824219 36.988281 62.824219 38.230469 C 63.109375 38.128906 63.394531 38.035156 63.488281 37.75 L 63.394531 34.601562 L 62.917969 34.601562 " fill-opacity="1" fill-rule="nonzero"/><path fill="#fcedd4" d="M 62.824219 16.207031 L 62.632812 16.207031 C 62.347656 17.070312 62.539062 17.832031 62.632812 18.6875 C 62.824219 18.6875 63.203125 18.6875 63.300781 18.5 C 63.109375 17.738281 63.488281 16.398438 62.824219 16.207031 " fill-opacity="1" fill-rule="nonzero"/><path fill="#fcedd4" d="M 61.679688 34.796875 C 61.488281 34.601562 61.394531 34.796875 61.203125 34.796875 C 60.917969 36.128906 61.015625 37.652344 61.109375 39.085938 C 61.777344 39.277344 61.777344 38.414062 61.777344 37.945312 L 61.679688 34.796875 " fill-opacity="1" fill-rule="nonzero"/><path fill="#fcedd4" d="M 61.394531 49.09375 C 59.96875 50.617188 56.820312 49.664062 56.628906 52.238281 C 58.34375 51.667969 61.015625 52.90625 61.679688 50.617188 C 61.679688 50.046875 61.777344 49.378906 61.394531 49.09375 " fill-opacity="1" fill-rule="nonzero"/><path fill="#fcedd4" d="M 61.394531 16.207031 C 61.015625 15.921875 60.824219 16.5 60.824219 16.878906 C 60.917969 17.738281 60.730469 18.785156 61.015625 19.449219 L 61.488281 19.164062 L 61.394531 16.207031 " fill-opacity="1" fill-rule="nonzero"/><path fill="#fcedd4" d="M 59.492188 34.601562 C 59.105469 36.226562 59.390625 38.128906 59.390625 39.753906 C 59.585938 39.847656 59.96875 39.847656 59.96875 39.65625 L 59.96875 34.796875 L 59.492188 34.601562 " fill-opacity="1" fill-rule="nonzero"/><path fill="#fcedd4" d="M 59.675781 16.5 C 58.914062 17.449219 59.015625 19.070312 59.199219 20.496094 C 59.492188 20.402344 59.96875 20.117188 59.871094 19.734375 L 59.675781 16.5 " fill-opacity="1" fill-rule="nonzero"/><path fill="#fcedd4" d="M 58.914062 56.433594 L 58.722656 56.433594 C 58.4375 56.71875 58.722656 57.003906 58.722656 57.289062 C 58.914062 57.574219 59.300781 57.574219 59.585938 57.480469 C 59.777344 57.003906 59.492188 56.433594 58.914062 56.433594 " fill-opacity="1" fill-rule="nonzero"/><path fill="#fcedd4" d="M 53.769531 7.730469 C 54.246094 8.492188 54.054688 10.207031 55.386719 10.015625 L 58.34375 10.015625 L 53.769531 7.730469 " fill-opacity="1" fill-rule="nonzero"/><path fill="#fcedd4" d="M 57.675781 34.316406 L 57.675781 40.230469 C 57.773438 40.324219 58.25 40.417969 58.34375 40.039062 L 58.25 34.316406 L 57.675781 34.316406 " fill-opacity="1" fill-rule="nonzero"/><path fill="#fcedd4" d="M 57.960938 19.734375 C 57.488281 20.117188 57.390625 20.882812 57.390625 21.550781 C 57.390625 21.929688 57.867188 21.644531 57.960938 21.550781 C 58.25 20.972656 57.960938 20.210938 57.960938 19.734375 " fill-opacity="1" fill-rule="nonzero"/><path fill="#fcedd4" d="M 56.535156 33.941406 C 56.34375 33.75 56.058594 33.554688 55.773438 33.554688 L 55.773438 40.515625 C 56.058594 40.703125 56.34375 40.515625 56.628906 40.515625 C 56.628906 38.414062 56.628906 36.128906 56.535156 33.941406 " fill-opacity="1" fill-rule="nonzero"/><path fill="#fcedd4" d="M 56.34375 21.929688 C 56.058594 21.835938 55.773438 22.3125 55.582031 22.5 C 55.582031 22.691406 55.488281 22.976562 55.679688 23.074219 C 55.964844 22.882812 56.628906 22.785156 56.441406 22.214844 C 56.34375 22.121094 56.34375 22.027344 56.34375 21.929688 " fill-opacity="1" fill-rule="nonzero"/><path fill="#fcedd4" d="M 56.058594 53.761719 C 55.867188 53.761719 55.867188 53.953125 55.679688 54.046875 C 55.867188 54.144531 56.152344 54.046875 56.058594 53.761719 " fill-opacity="1" fill-rule="nonzero"/><path fill="#fcedd4" d="M 54.53125 50.332031 C 53.578125 50.140625 52.722656 50.519531 52.054688 51.28125 C 51.863281 51.953125 51.863281 52.714844 52.339844 53.285156 C 53.101562 53.761719 54.054688 54.046875 54.816406 53.476562 C 56.058594 52.808594 55.773438 50.8125 54.53125 50.332031 " fill-opacity="1" fill-rule="nonzero"/><path fill="#fcedd4" d="M 52.816406 68.535156 C 51.292969 67.011719 48.71875 66.914062 46.808594 67.773438 C 44.808594 68.820312 44.046875 71.109375 43.953125 73.203125 C 43.953125 74.921875 44.335938 76.539062 45.863281 77.683594 C 47.195312 78.546875 49.097656 78.355469 50.4375 77.589844 C 51.390625 76.445312 52.054688 75.019531 51.863281 73.585938 C 51.769531 72.726562 51.199219 71.871094 50.335938 71.488281 C 49.765625 71.109375 48.71875 71.203125 48.242188 71.679688 C 47.195312 72.347656 47.101562 73.496094 47.101562 74.542969 C 47.289062 75.492188 48.148438 76.066406 48.242188 76.921875 C 47.863281 77.398438 47.386719 76.828125 47.003906 76.636719 C 45.863281 75.492188 45.476562 73.394531 46.238281 71.964844 C 46.910156 71.109375 47.863281 70.253906 48.910156 70.0625 C 50.914062 69.871094 52.4375 71.585938 53.199219 73.300781 C 53.960938 75.492188 53.578125 78.253906 51.960938 79.972656 C 51.578125 80.355469 51.007812 80.828125 50.4375 80.640625 C 50.4375 79.878906 51.484375 79.402344 51.769531 78.640625 C 51.769531 78.445312 51.960938 78.253906 51.960938 77.96875 C 50.335938 79.117188 47.957031 79.78125 45.953125 78.925781 C 45.191406 78.546875 44.523438 78.070312 43.953125 77.398438 C 43.761719 77.589844 43.476562 77.785156 43.191406 77.492188 C 41.757812 76.253906 40.617188 74.636719 40.140625 72.917969 C 39.664062 72.347656 38.902344 72.917969 38.332031 72.824219 C 37.378906 74.921875 37.183594 77.492188 37.09375 79.972656 C 37.753906 80.355469 37.855469 81.117188 37.855469 81.78125 C 37.664062 82.449219 37.285156 83.121094 36.523438 83.214844 C 35.757812 83.304688 34.804688 82.835938 34.613281 82.066406 C 34.328125 81.019531 34.996094 80.355469 35.757812 79.878906 L 37.09375 73.019531 C 34.804688 72.824219 33.464844 75.492188 31.753906 76.828125 L 26.035156 83.691406 C 26.605469 84.355469 26.605469 85.5 26.035156 86.167969 C 25.367188 86.738281 24.511719 86.933594 23.65625 86.648438 C 22.890625 86.355469 22.601562 85.59375 22.507812 84.832031 C 22.699219 84.070312 23.078125 83.019531 24.03125 83.019531 L 25.082031 83.019531 C 28.320312 79.210938 31.65625 75.304688 35.566406 71.964844 C 35.46875 71.585938 35.660156 71.203125 35.375 70.917969 C 32.039062 71.964844 28.320312 73.019531 24.601562 73.109375 C 24.125 73.78125 23.363281 74.921875 22.316406 74.542969 C 21.746094 74.351562 20.984375 73.871094 20.699219 73.109375 C 20.699219 72.347656 20.890625 71.679688 21.460938 71.203125 C 22.03125 70.730469 22.792969 70.632812 23.363281 70.824219 C 24.417969 72.632812 26.605469 71.777344 28.230469 71.777344 C 30.800781 71.585938 33.28125 70.824219 35.46875 69.675781 C 35.660156 69.492188 35.660156 69.207031 35.660156 68.914062 C 32.996094 68.535156 29.5625 69.390625 27.84375 66.914062 C 26.128906 66.34375 24.988281 64.625 24.796875 62.816406 C 24.886719 62.152344 24.886719 61.769531 24.988281 61.199219 C 23.363281 62.246094 22.699219 64.054688 22.601562 65.867188 C 22.507812 66.058594 22.316406 66.152344 22.222656 65.964844 C 21.652344 64.054688 22.601562 62.152344 23.746094 60.722656 C 25.367188 58.910156 27.558594 58.148438 29.941406 58.335938 C 31.46875 58.433594 32.804688 59.480469 33.375 60.914062 C 33.757812 61.863281 33.566406 63.007812 32.894531 63.769531 C 32.519531 64.53125 31.65625 64.726562 30.894531 64.816406 C 29.753906 64.816406 28.515625 64.339844 27.945312 63.199219 C 27.75 62.4375 27.082031 61.390625 27.945312 60.8125 C 28.890625 61.007812 28.515625 62.246094 29.085938 62.816406 C 29.847656 63.386719 30.894531 63.578125 31.753906 63.199219 C 32.324219 62.816406 32.324219 61.863281 32.039062 61.292969 C 31.179688 59.859375 29.65625 59.671875 28.230469 59.765625 C 27.273438 59.957031 26.414062 60.8125 26.128906 61.675781 C 25.75 62.722656 26.226562 63.769531 26.605469 64.625 C 28.035156 66.058594 30.230469 66.628906 32.039062 66.058594 C 33.28125 65.582031 34.421875 64.910156 35.089844 63.671875 C 35.757812 61.960938 35.28125 59.957031 34.136719 58.625 C 32.996094 57.101562 31.179688 56.71875 29.46875 56.523438 C 27.652344 56.625 26.035156 57.195312 24.417969 57.765625 C 24.125 57.863281 24.125 57.480469 24.226562 57.386719 C 26.988281 55.667969 30.894531 54.90625 33.851562 56.71875 L 34.996094 57.671875 C 34.898438 57.003906 34.613281 56.238281 34.042969 55.667969 C 32.132812 53.476562 28.800781 54.144531 26.414062 54.523438 C 26.128906 54.144531 26.605469 53.761719 26.890625 53.667969 C 28.992188 52.90625 31.941406 53 33.757812 53.761719 C 32.417969 51.757812 29.941406 51.574219 27.945312 51.28125 C 27.75 51.1875 27.558594 50.902344 27.75 50.710938 L 28.230469 50.519531 C 29.46875 50.425781 30.894531 50.8125 32.234375 51.097656 C 31.371094 49.378906 29.46875 49.664062 27.84375 49.1875 L 27.652344 48.902344 C 28.230469 48.140625 29.277344 48.617188 30.132812 48.519531 C 29.753906 47.46875 28.414062 48.140625 27.75 47.46875 C 27.652344 46.808594 28.515625 46.992188 28.890625 46.808594 C 28.515625 45.945312 27.273438 46.230469 26.605469 45.660156 C 27.652344 48.425781 26.988281 51.472656 25.652344 53.953125 C 23.554688 58.148438 19.265625 61.960938 21.078125 67.390625 C 20.601562 68.34375 19.265625 68.25 18.597656 69.105469 C 17.363281 69.96875 17.265625 71.488281 17.074219 72.824219 C 16.980469 75.492188 18.695312 77.96875 21.078125 79.117188 C 21.652344 79.972656 20.222656 80.640625 20.03125 81.496094 C 16.980469 85.882812 16.789062 92.269531 18.21875 97.511719 C 19.265625 100.277344 19.746094 103.324219 21.460938 105.804688 C 21.554688 105.511719 21.363281 105.226562 21.652344 105.136719 C 22.890625 105.613281 23.363281 106.851562 24.601562 107.421875 C 26.035156 108.375 27.75 108.945312 28.890625 110.378906 C 28.890625 110.566406 28.890625 111.042969 28.515625 110.949219 C 26.320312 109.710938 23.839844 108.660156 22.125 106.566406 C 22.601562 109.039062 24.703125 109.996094 26.414062 111.519531 C 27.945312 112.1875 29.277344 113.140625 30.609375 114.28125 C 30.515625 112.1875 28.992188 110.1875 28.320312 108.089844 C 28.414062 107.800781 28.890625 107.898438 29.175781 107.707031 C 29.941406 107.136719 30.609375 106.375 30.609375 105.421875 L 30.515625 104.65625 C 27.273438 104.273438 24.125 103.511719 22.03125 100.746094 C 18.027344 96.078125 17.457031 88.550781 20.03125 82.929688 C 20.699219 82.257812 20.792969 80.542969 21.9375 80.925781 L 22.03125 81.210938 C 18.503906 85.59375 18.695312 92.933594 21.175781 97.796875 C 21.746094 98.367188 21.9375 99.035156 22.601562 99.414062 C 22.507812 92.460938 28.515625 87.789062 31.085938 81.78125 C 31.847656 81.972656 31.371094 82.929688 31.65625 83.40625 C 32.519531 84.738281 34.042969 86.167969 35.851562 86.070312 C 37.183594 85.976562 38.425781 85.59375 39.472656 84.644531 C 40.332031 83.691406 40.519531 82.359375 40.808594 81.117188 C 41.664062 80.925781 42.144531 82.066406 42.90625 82.257812 C 45.863281 83.40625 50.144531 83.121094 52.625 80.640625 C 54.910156 78.640625 55.773438 75.492188 55.203125 72.539062 C 55.011719 70.917969 54.054688 69.585938 52.816406 68.535156 " fill-opacity="1" fill-rule="nonzero"/><path fill="#fcedd4" d="M 46.238281 29.460938 C 44.144531 28.597656 42.042969 28.027344 39.757812 27.933594 C 39.949219 29.175781 40.617188 30.316406 41.378906 31.269531 C 45.09375 32.507812 48.8125 35.082031 50.527344 38.800781 C 51.578125 41.085938 51.484375 44.230469 49.957031 46.328125 C 49.289062 47.570312 47.863281 47.855469 47.101562 48.808594 L 47.671875 52.523438 C 50.621094 51.859375 53.578125 48.996094 54.246094 46.042969 C 56.058594 39.371094 52.339844 32.507812 46.238281 29.460938 " fill-opacity="1" fill-rule="nonzero"/><path fill="#fcedd4" d="M 54.53125 33.363281 L 54.246094 33.464844 C 54.339844 34.703125 53.769531 36.414062 54.726562 37.367188 C 54.625 36.035156 54.910156 34.511719 54.53125 33.363281 " fill-opacity="1" fill-rule="nonzero"/><path fill="#fcedd4" d="M 54.441406 23.359375 C 54.246094 23.359375 54.148438 23.546875 53.960938 23.644531 C 53.960938 23.738281 53.960938 23.835938 54.054688 23.929688 C 54.339844 23.929688 54.625 23.546875 54.441406 23.359375 " fill-opacity="1" fill-rule="nonzero"/><path fill="#fcedd4" d="M 51.578125 57.863281 L 51.007812 58.527344 C 51.390625 59.195312 52.152344 59.289062 52.816406 59.097656 C 54.625 58.433594 53.960938 56.238281 54.53125 54.808594 C 52.625 54.808594 52.246094 56.523438 51.578125 57.863281 " fill-opacity="1" fill-rule="nonzero"/><path fill="#fcedd4" d="M 51.769531 6.867188 C 49.289062 5.15625 46.238281 3.917969 43.097656 4.582031 C 36.042969 6.105469 29.753906 12.589844 28.320312 19.640625 C 27.75 21.550781 27.558594 23.738281 27.367188 25.933594 C 28.320312 26.21875 29.65625 26.21875 30.609375 25.933594 C 31.179688 19.449219 33.566406 12.398438 40.046875 9.347656 C 42.234375 8.015625 45.476562 7.34375 47.957031 8.777344 C 49.097656 9.347656 49.765625 10.394531 50.050781 11.441406 C 50.144531 12.972656 49.382812 14.398438 48.050781 15.160156 C 47.195312 15.636719 46.148438 15.351562 45.382812 14.875 C 44.429688 14.210938 43.953125 13.160156 43.953125 12.019531 C 42.429688 12.019531 41.09375 12.875 39.949219 13.921875 C 38.332031 15.445312 36.707031 17.355469 36.042969 19.355469 C 37.183594 19.734375 38.808594 19.640625 40.234375 19.449219 L 41.664062 17.449219 C 42.519531 17.546875 42.429688 18.5 43.191406 18.6875 C 46.148438 20.210938 49.480469 19.449219 51.960938 17.449219 C 53.578125 15.828125 54.625 13.636719 54.054688 11.15625 C 53.671875 9.632812 53.101562 8.109375 51.769531 6.867188 " fill-opacity="1" fill-rule="nonzero"/><path fill="#fcedd4" d="M 52.4375 32.316406 L 51.769531 32.222656 L 53.101562 34.125 C 53.101562 33.65625 53.199219 33.078125 53.007812 32.699219 L 52.4375 32.316406 " fill-opacity="1" fill-rule="nonzero"/><path fill="#fcedd4" d="M 51.769531 24.691406 L 52.816406 24.5 L 52.816406 24.308594 Z M 51.769531 24.691406 " fill-opacity="1" fill-rule="nonzero"/><path fill="#fcedd4" d="M 49.765625 40.515625 C 44.429688 37.179688 38.902344 32.222656 38.140625 25.742188 L 35.089844 25.648438 C 35.183594 31.652344 38.710938 36.796875 43.382812 40.800781 C 45.285156 42.132812 47.386719 43.28125 49.574219 43.851562 C 50.144531 42.894531 50.050781 41.5625 49.765625 40.515625 " fill-opacity="1" fill-rule="nonzero"/><path fill="#fcedd4" d="M 44.046875 43.375 C 41.28125 39.277344 37.09375 36.226562 32.417969 35.464844 C 31.941406 36.414062 32.324219 37.84375 32.703125 38.890625 C 37.46875 40.894531 41.757812 45.660156 42.519531 50.8125 C 43 56.046875 41.757812 61.292969 37.753906 64.625 C 35.851562 66.152344 33.757812 67.199219 31.46875 67.582031 C 34.707031 67.960938 38.234375 67.105469 40.425781 64.53125 C 42.90625 61.863281 44.046875 58.625 44.238281 54.90625 C 44.238281 54.238281 44.046875 53.285156 44.621094 52.90625 C 45.382812 53.667969 44.90625 54.90625 45.09375 55.863281 C 44.808594 62.722656 37.183594 69.585938 43.285156 76.066406 C 41.664062 69.585938 46.433594 64.339844 46.523438 57.765625 C 46.910156 52.714844 46.523438 47.46875 44.046875 43.375 " fill-opacity="1" fill-rule="nonzero"/><path fill="#fcedd4" d="M 45.476562 26.503906 C 45.382812 26.789062 45.09375 27.933594 45.667969 28.21875 L 46.046875 28.125 C 46.046875 27.457031 45.863281 26.980469 45.476562 26.503906 " fill-opacity="1" fill-rule="nonzero"/><path fill="#fcedd4" d="M 44.238281 25.648438 C 44.144531 25.546875 43.859375 25.648438 43.667969 25.648438 C 43.761719 26.21875 43.285156 27.363281 44.046875 27.648438 C 44.523438 27.363281 44.238281 26.316406 44.238281 25.648438 " fill-opacity="1" fill-rule="nonzero"/><path fill="#fcedd4" d="M 42.042969 25.648438 L 41.949219 25.648438 C 41.757812 26.125 41.566406 26.980469 42.042969 27.171875 L 42.621094 27.074219 C 42.519531 26.601562 42.90625 25.546875 42.042969 25.648438 " fill-opacity="1" fill-rule="nonzero"/><path fill="#fcedd4" d="M 41.378906 49.664062 C 36.613281 47.570312 32.703125 43.089844 31.277344 38.230469 C 30.894531 36.226562 30.609375 34.035156 30.515625 31.9375 C 29.5625 31.746094 28.707031 32.03125 27.75 32.125 C 27.273438 33.078125 27.75 34.316406 27.84375 35.367188 C 28.515625 42.804688 33.464844 50.519531 40.808594 52.808594 C 41.09375 52.808594 41.472656 53.097656 41.664062 52.808594 L 41.378906 49.664062 " fill-opacity="1" fill-rule="nonzero"/><path fill="#fcedd4" d="M 41.378906 55.476562 C 39.664062 55.382812 37.570312 55.191406 35.757812 55.285156 C 35.660156 55.667969 36.042969 55.953125 36.328125 55.863281 L 41.09375 55.953125 C 41.378906 55.863281 41.28125 55.667969 41.378906 55.476562 " fill-opacity="1" fill-rule="nonzero"/><path fill="#fcedd4" d="M 40.902344 57.101562 C 39.570312 56.808594 37.855469 57.003906 36.523438 57.003906 C 36.421875 57.289062 36.707031 57.671875 37.09375 57.671875 L 40.808594 57.671875 C 40.808594 57.574219 41.09375 57.386719 40.902344 57.101562 " fill-opacity="1" fill-rule="nonzero"/><path fill="#fcedd4" d="M 35.28125 53.667969 L 35.46875 54.046875 C 37.183594 54.238281 39.09375 54.335938 40.996094 54.238281 C 39.378906 53.191406 37.183594 53.574219 35.28125 53.667969 " fill-opacity="1" fill-rule="nonzero"/><path fill="#fcedd4" d="M 40.808594 25.742188 C 40.519531 25.546875 40.140625 25.648438 39.855469 25.648438 C 39.570312 25.839844 39.664062 26.410156 39.757812 26.601562 C 40.519531 27.074219 40.996094 26.503906 40.808594 25.742188 " fill-opacity="1" fill-rule="nonzero"/><path fill="#fcedd4" d="M 36.613281 58.71875 C 36.613281 58.910156 36.328125 59.195312 36.613281 59.382812 L 40.140625 59.480469 L 40.519531 58.910156 C 39.1875 58.625 37.949219 58.625 36.613281 58.71875 " fill-opacity="1" fill-rule="nonzero"/><path fill="#fcedd4" d="M 39.855469 67.582031 C 38.808594 67.867188 37.664062 68.34375 36.613281 68.820312 C 36.523438 69.777344 36.523438 70.632812 36.613281 71.585938 C 37.570312 71.585938 39.09375 71.871094 39.757812 71.203125 C 39.664062 69.96875 39.664062 68.820312 39.855469 67.582031 " fill-opacity="1" fill-rule="nonzero"/><path fill="#fcedd4" d="M 36.707031 60.527344 C 36.523438 60.527344 36.613281 60.8125 36.613281 60.914062 C 37.570312 61.292969 38.332031 61.097656 39.378906 61.097656 C 39.472656 60.914062 39.664062 60.4375 39.1875 60.527344 L 36.707031 60.527344 " fill-opacity="1" fill-rule="nonzero"/><path fill="#fcedd4" d="M 36.808594 62.246094 C 36.613281 62.246094 36.613281 62.53125 36.613281 62.816406 C 37.09375 62.816406 37.664062 63.007812 38.046875 62.816406 L 38.519531 62.339844 C 37.949219 62.152344 37.46875 62.246094 36.808594 62.246094 " fill-opacity="1" fill-rule="nonzero"/><path fill="#fcedd4" d="M 33.945312 51.757812 C 34.042969 52.90625 35.566406 52.335938 36.230469 52.429688 L 36.898438 52.335938 C 36.230469 51.382812 34.898438 51.667969 33.945312 51.757812 " fill-opacity="1" fill-rule="nonzero"/><path fill="#fcedd4" d="M 36.230469 64.054688 L 36.042969 64.339844 L 36.613281 64.054688 C 36.613281 63.769531 36.328125 64.054688 36.230469 64.054688 " fill-opacity="1" fill-rule="nonzero"/><path fill="#fcedd4" d="M 34.328125 27.171875 C 31.46875 26.980469 28.800781 27.171875 26.128906 27.363281 C 25.941406 28.503906 26.035156 29.460938 26.035156 30.605469 C 28.992188 30.699219 32.039062 30.222656 35.089844 30.316406 L 34.328125 27.171875 " fill-opacity="1" fill-rule="nonzero"/><path fill="#fcedd4" d="M 33.179688 50.046875 C 32.996094 50.710938 33.851562 50.617188 34.230469 50.519531 C 34.042969 50.140625 33.566406 49.949219 33.179688 50.046875 " fill-opacity="1" fill-rule="nonzero"/><path fill="#fcedd4" d="M 31.941406 48.332031 L 31.753906 48.332031 C 31.65625 48.617188 31.65625 48.996094 32.039062 48.996094 L 32.417969 48.902344 C 32.234375 48.808594 32.324219 48.234375 31.941406 48.332031 " fill-opacity="1" fill-rule="nonzero"/><path fill="#fcedd4" d="M 26.890625 113.140625 L 25.273438 112.1875 C 25.464844 112.851562 25.941406 113.710938 26.414062 114.476562 C 28.128906 115.523438 29.5625 116.855469 30.894531 118.378906 C 31.179688 117.910156 31.179688 116.855469 30.992188 116.191406 C 30.039062 114.953125 28.414062 113.804688 26.890625 113.140625 " fill-opacity="1" fill-rule="nonzero"/><path fill="#fcedd4" d="M 30.609375 46.707031 L 30.324219 46.808594 C 30.417969 47.09375 30.703125 47.378906 30.894531 47.183594 C 30.800781 46.992188 30.800781 46.808594 30.609375 46.707031 " fill-opacity="1" fill-rule="nonzero"/><path fill="#fcedd4" d="M 27.464844 116.378906 C 26.988281 118.378906 29.085938 120.097656 30.515625 121.242188 C 30.992188 120.574219 30.515625 119.90625 30.230469 119.335938 C 29.371094 118.378906 28.515625 117.238281 27.464844 116.378906 " fill-opacity="1" fill-rule="nonzero"/><path fill="#fcedd4" d="M 28.128906 120.667969 C 27.082031 122.003906 28.605469 123.246094 28.992188 124.386719 C 29.46875 124.101562 29.753906 123.53125 30.039062 122.953125 C 29.941406 121.90625 28.707031 121.433594 28.128906 120.667969 " fill-opacity="1" fill-rule="nonzero"/><path fill="#fcedd4" d="M 28.515625 44.996094 L 28.230469 45.089844 C 28.707031 45.375 29.175781 45.851562 29.847656 45.566406 C 29.941406 44.613281 28.992188 45.183594 28.515625 44.996094 " fill-opacity="1" fill-rule="nonzero"/><path fill="#fcedd4" d="M 26.320312 43.375 C 26.128906 43.464844 26.128906 43.660156 26.320312 43.757812 C 27.082031 44.136719 28.128906 43.851562 28.890625 43.757812 L 28.800781 43.375 L 26.320312 43.375 " fill-opacity="1" fill-rule="nonzero"/><path fill="#fcedd4" d="M 28.605469 15.351562 C 27.84375 16.113281 25.75 15.351562 26.035156 17.164062 L 26.226562 19.640625 L 27.082031 19.640625 C 27.652344 18.210938 28.128906 16.785156 28.605469 15.351562 " fill-opacity="1" fill-rule="nonzero"/><path fill="#2f5982" d="M 25.652344 105.136719 C 22.890625 104.566406 20.792969 101.988281 19.367188 99.796875 C 19.550781 102.179688 21.746094 103.894531 23.460938 105.421875 C 24.796875 106.183594 26.796875 106.753906 28.320312 105.804688 C 28.414062 105.707031 28.605469 105.613281 28.515625 105.421875 L 25.652344 105.136719 " fill-opacity="1" fill-rule="nonzero"/><path fill="#fcedd4" d="M 27.464844 123.816406 C 26.796875 124.480469 27.558594 125.433594 27.652344 126.101562 C 28.515625 125.71875 28.320312 124.863281 27.945312 124.386719 C 27.84375 124.101562 27.558594 124.007812 27.464844 123.816406 " fill-opacity="1" fill-rule="nonzero"/><path fill="#fcedd4" d="M 26.703125 41.46875 C 26.320312 41.65625 26.128906 41.65625 26.128906 42.132812 C 26.703125 42.324219 27.652344 42.324219 28.230469 42.039062 C 28.230469 41.179688 27.179688 41.65625 26.703125 41.46875 " fill-opacity="1" fill-rule="nonzero"/><path fill="#fcedd4" d="M 26.605469 39.175781 C 26.414062 39.175781 26.128906 39.277344 26.128906 39.5625 L 26.226562 40.324219 C 26.703125 40.515625 27.082031 40.515625 27.558594 40.230469 C 27.464844 39.65625 27.367188 38.992188 26.605469 39.175781 " fill-opacity="1" fill-rule="nonzero"/><path fill="#fcedd4" d="M 26.511719 35.082031 C 25.179688 34.601562 23.65625 35.082031 22.316406 35.082031 C 18.027344 35.75 13.644531 38.230469 11.644531 42.324219 C 11.835938 42.519531 12.3125 42.132812 12.597656 42.324219 C 13.738281 42.324219 14.691406 42.996094 15.363281 44.042969 C 16.125 44.996094 15.546875 46.328125 15.261719 47.378906 C 14.5 48.996094 12.597656 48.902344 11.167969 48.902344 C 9.925781 48.332031 8.6875 47.285156 8.117188 45.945312 C 6.96875 41.847656 8.972656 38.035156 11.929688 35.367188 C 14.308594 33.65625 16.789062 32.03125 19.652344 31.554688 C 19.9375 30.699219 19.835938 29.460938 19.746094 28.503906 C 13.359375 28.027344 7.734375 33.078125 5.066406 38.515625 C 3.066406 42.996094 4.496094 48.425781 8.023438 51.667969 C 9.546875 53.097656 11.835938 53.476562 13.929688 53 C 16.027344 52.429688 18.503906 51.28125 19.460938 48.996094 C 20.414062 47.285156 20.316406 44.613281 19.074219 43.089844 C 18.695312 42.324219 17.074219 42.519531 17.648438 41.371094 C 20.222656 38.890625 23.554688 37.945312 26.988281 37.945312 L 26.511719 35.082031 " fill-opacity="1" fill-rule="nonzero"/><path fill="#fcedd4" d="M 26.035156 116.855469 C 25.75 118.855469 26.035156 121.050781 26.035156 123.246094 C 26.988281 121.335938 26.988281 118.671875 26.035156 116.855469 " fill-opacity="1" fill-rule="nonzero"/><path fill="#fcedd4" d="M 26.320312 125.625 C 26.035156 125.625 25.652344 126.101562 25.464844 126.386719 L 25.558594 127.628906 C 26.605469 127.628906 26.605469 126.386719 26.320312 125.625 " fill-opacity="1" fill-rule="nonzero"/><path fill="#fcedd4" d="M 26.511719 22.214844 C 23.175781 22.027344 19.835938 22.121094 16.410156 22.214844 C 16.410156 22.785156 15.648438 24.121094 16.789062 24.121094 L 26.035156 24.214844 C 26.320312 23.644531 26.320312 22.882812 26.511719 22.214844 " fill-opacity="1" fill-rule="nonzero"/><path fill="#fcedd4" d="M 25.082031 52.042969 C 24.796875 52.042969 24.703125 52.335938 24.703125 52.621094 C 24.886719 52.808594 25.179688 52.523438 25.179688 52.335938 C 25.179688 52.238281 25.273438 52.042969 25.082031 52.042969 " fill-opacity="1" fill-rule="nonzero"/><path fill="#fcedd4" d="M 24.703125 39.371094 C 23.839844 39.5625 22.601562 39.46875 22.125 40.324219 C 22.125 44.804688 23.078125 49.949219 19.074219 52.808594 C 17.457031 54.429688 15.457031 55.09375 13.261719 55.476562 L 13.261719 116.570312 L 22.414062 116.570312 L 22.699219 116.953125 L 22.792969 126.007812 C 23.460938 126.101562 24.125 125.816406 24.601562 125.433594 C 24.796875 121.90625 24.601562 113.90625 24.796875 114.089844 C 24.703125 113.996094 15.742188 113.996094 15.933594 113.996094 C 15.933594 113.996094 15.933594 62.339844 16.027344 57.289062 C 18.125 56.910156 20.03125 55.761719 21.652344 54.238281 C 23.554688 52.429688 24.601562 50.234375 24.886719 47.753906 C 24.988281 44.707031 24.988281 42.132812 24.703125 39.371094 " fill-opacity="1" fill-rule="nonzero"/><path fill="#fcedd4" d="M 24.703125 25.648438 C 23.746094 25.363281 23.078125 25.648438 22.03125 25.648438 C 21.839844 28.21875 22.03125 31.078125 22.125 33.65625 C 22.890625 33.941406 23.746094 33.65625 24.601562 33.65625 C 24.886719 31.078125 24.796875 28.3125 24.703125 25.648438 " fill-opacity="1" fill-rule="nonzero"/><path fill="#fcedd4" d="M 23.363281 4.773438 C 22.507812 2.578125 20.128906 1.816406 18.027344 1.722656 C 16.21875 1.914062 14.023438 2.769531 13.359375 4.773438 C 12.785156 6.296875 12.5 8.207031 12.785156 9.921875 C 13.546875 10.300781 14.601562 10.109375 15.457031 10.109375 C 15.546875 8.777344 15.546875 7.152344 16.410156 6.011719 C 17.074219 5.15625 18.3125 4.871094 19.265625 5.15625 C 20.316406 5.34375 21.363281 6.398438 21.554688 7.445312 C 21.839844 11.347656 21.9375 15.445312 21.9375 19.449219 C 22.890625 19.832031 23.554688 19.640625 24.601562 19.640625 L 24.796875 19.449219 C 24.417969 14.398438 25.464844 9.0625 23.363281 4.773438 " fill-opacity="1" fill-rule="nonzero"/><path fill="#fcedd4" d="M 24.316406 53.859375 C 23.839844 53.574219 23.554688 54.144531 23.363281 54.335938 C 23.363281 54.523438 23.65625 54.523438 23.941406 54.523438 C 24.125 54.335938 24.417969 54.238281 24.316406 53.859375 " fill-opacity="1" fill-rule="nonzero"/><path fill="#fcedd4" d="M 23.941406 127.148438 C 22.984375 126.957031 22.125 127.433594 22.507812 128.484375 C 22.890625 128.960938 23.460938 128.390625 23.941406 128.390625 C 24.226562 128.011719 23.941406 127.535156 23.941406 127.148438 " fill-opacity="1" fill-rule="nonzero"/><path fill="#fcedd4" d="M 17.363281 99.796875 C 17.363281 103.988281 17.363281 112.757812 17.457031 112.664062 C 17.363281 112.566406 21.652344 112.949219 23.65625 112.664062 C 22.03125 109.902344 18.21875 102.941406 17.363281 99.796875 " fill-opacity="1" fill-rule="nonzero"/><path fill="#fcedd4" d="M 21.652344 55.953125 L 21.460938 56.046875 C 22.03125 56.148438 22.984375 56.523438 23.175781 55.761719 C 22.890625 55.667969 21.9375 55.382812 21.652344 55.953125 " fill-opacity="1" fill-rule="nonzero"/><path fill="#fcedd4" d="M 18.21875 57.957031 L 21.839844 57.957031 L 22.222656 57.386719 C 20.984375 57.289062 19.367188 57.003906 18.21875 57.957031 " fill-opacity="1" fill-rule="nonzero"/><path fill="#fcedd4" d="M 18.980469 127.148438 C 18.21875 126.292969 17.171875 125.433594 17.265625 124.195312 L 17.457031 122.769531 C 16.886719 122.953125 16.695312 123.625 16.601562 124.101562 C 16.410156 125.339844 16.695312 126.578125 17.648438 127.433594 C 18.695312 128.390625 19.9375 128.773438 21.269531 128.484375 C 21.554688 126.957031 19.652344 127.71875 18.980469 127.148438 " fill-opacity="1" fill-rule="nonzero"/><path fill="#fcedd4" d="M 17.171875 59.097656 C 16.980469 59.195312 17.171875 59.480469 17.074219 59.671875 C 18.125 59.957031 19.550781 59.765625 20.792969 59.765625 L 21.175781 59.195312 L 20.890625 59.003906 L 17.171875 59.097656 " fill-opacity="1" fill-rule="nonzero"/><path fill="#fcedd4" d="M 20.222656 122.003906 C 19.367188 121.8125 18.789062 122.484375 18.503906 123.246094 C 18.21875 123.816406 18.503906 124.480469 18.597656 125.148438 C 19.074219 125.53125 19.550781 126.195312 20.222656 126.101562 C 20.507812 124.671875 20.222656 123.339844 20.222656 122.003906 " fill-opacity="1" fill-rule="nonzero"/><path fill="#fcedd4" d="M 20.316406 60.914062 C 19.367188 60.8125 17.933594 60.722656 17.074219 61.097656 L 17.171875 61.390625 C 18.125 61.390625 19.175781 61.578125 20.222656 61.390625 C 20.316406 61.292969 20.414062 61.097656 20.316406 60.914062 " fill-opacity="1" fill-rule="nonzero"/><path fill="#fcedd4" d="M 17.171875 62.625 L 17.171875 63.101562 L 19.652344 63.199219 C 19.9375 63.101562 19.9375 62.722656 19.835938 62.53125 L 17.171875 62.625 " fill-opacity="1" fill-rule="nonzero"/><path fill="#fcedd4" d="M 19.550781 25.546875 L 16.3125 25.457031 C 15.839844 26.125 15.457031 27.074219 15.078125 27.933594 L 19.746094 27.265625 C 19.835938 26.789062 20.03125 25.839844 19.550781 25.546875 " fill-opacity="1" fill-rule="nonzero"/><path fill="#fcedd4" d="M 19.367188 65.964844 L 17.363281 66.058594 C 17.171875 66.152344 17.171875 66.535156 17.265625 66.628906 C 18.027344 66.726562 19.074219 66.820312 19.746094 66.628906 C 19.835938 66.25 19.652344 66.058594 19.367188 65.964844 " fill-opacity="1" fill-rule="nonzero"/><path fill="#fcedd4" d="M 19.652344 64.339844 C 18.980469 64.246094 18.125 64.246094 17.363281 64.246094 C 17.074219 64.441406 17.265625 64.726562 17.171875 64.910156 C 18.125 65.011719 18.695312 65.011719 19.652344 64.816406 L 19.652344 64.339844 " fill-opacity="1" fill-rule="nonzero"/><path fill="#fcedd4" d="M 18.789062 12.589844 L 7.070312 12.6875 C 5.257812 12.972656 3.734375 14.683594 3.066406 16.308594 C 2.304688 18.210938 2.875 20.402344 4.019531 21.929688 C 5.730469 23.644531 8.402344 23.738281 10.597656 23.929688 L 10.6875 22.027344 C 9.257812 21.738281 7.355469 22.027344 6.308594 20.597656 C 5.351562 19.546875 5.351562 17.832031 5.921875 16.59375 C 6.683594 15.445312 7.925781 14.875 9.257812 14.875 L 19.460938 14.78125 C 19.550781 14.019531 20.128906 12.304688 18.789062 12.589844 " fill-opacity="1" fill-rule="nonzero"/><path fill="#fcedd4" d="M 17.457031 78.925781 C 17.363281 79.210938 17.265625 79.402344 17.457031 79.59375 L 19.367188 79.496094 C 18.890625 78.925781 18.125 78.832031 17.457031 78.925781 " fill-opacity="1" fill-rule="nonzero"/><path fill="#fcedd4" d="M 17.457031 80.734375 C 17.363281 80.925781 17.265625 81.402344 17.550781 81.402344 C 18.125 81.402344 18.980469 81.59375 19.175781 80.828125 C 18.503906 80.449219 18.125 80.734375 17.457031 80.734375 " fill-opacity="1" fill-rule="nonzero"/><path fill="#fcedd4" d="M 17.265625 67.867188 C 17.074219 68.152344 17.265625 68.34375 17.265625 68.628906 L 18.3125 67.867188 C 18.027344 67.675781 17.550781 67.675781 17.265625 67.867188 " fill-opacity="1" fill-rule="nonzero"/><path fill="#fcedd4" d="M 17.742188 82.449219 C 17.550781 82.542969 17.363281 82.542969 17.363281 82.734375 C 17.265625 83.019531 17.742188 83.019531 17.835938 83.019531 C 18.21875 82.929688 18.3125 82.257812 17.742188 82.449219 " fill-opacity="1" fill-rule="nonzero"/><path fill="#fcedd4" d="M 15.363281 16.785156 C 14.601562 16.5 13.644531 16.398438 12.785156 16.59375 C 12.5 21.167969 13.738281 26.886719 8.878906 29.074219 C 8.210938 29.265625 7.355469 29.074219 6.785156 28.789062 C 6.023438 28.125 5.636719 27.171875 5.921875 26.316406 C 6.207031 25.839844 6.308594 25.171875 6.878906 25.078125 C 7.164062 24.886719 7.355469 25.363281 7.355469 25.546875 C 7.070312 26.21875 6.59375 26.886719 7.070312 27.550781 C 7.449219 28.027344 8.117188 28.125 8.6875 27.933594 C 9.164062 27.648438 9.449219 27.265625 9.640625 26.789062 C 9.734375 26.027344 9.257812 25.363281 8.59375 25.078125 C 7.832031 24.601562 6.59375 24.40625 5.730469 24.886719 C 4.875 25.457031 3.921875 26.316406 4.113281 27.550781 C 4.210938 28.789062 5.066406 29.746094 6.207031 30.128906 C 7.164062 30.414062 8.023438 30.414062 8.972656 30.03125 C 9.257812 30.128906 9.257812 30.507812 9.164062 30.605469 C 4.683594 33.363281 1.632812 38.035156 2.019531 43.375 C 2.109375 46.328125 2.679688 49.09375 4.496094 51.28125 C 4.496094 51.472656 4.496094 51.757812 4.304688 51.757812 C 3.542969 51.574219 2.679688 50.519531 1.734375 51.1875 C 1.15625 51.574219 1.347656 52.335938 1.441406 52.90625 C 3.921875 55.863281 7.832031 57.574219 9.546875 61.097656 C 10.882812 63.101562 10.597656 66.25 9.355469 68.152344 C 8.6875 69.015625 7.640625 69.585938 6.59375 69.207031 C 6.207031 69.207031 5.921875 68.730469 5.921875 68.34375 C 5.921875 68.058594 5.828125 67.675781 6.113281 67.488281 C 6.59375 67.675781 6.878906 68.820312 7.546875 68.25 C 7.734375 67.867188 7.925781 67.390625 7.640625 67.105469 C 7.261719 66.441406 6.398438 66.535156 5.921875 66.820312 C 5.351562 67.105469 4.875 67.773438 5.066406 68.628906 C 5.257812 69.300781 5.828125 69.871094 6.5 70.253906 C 7.832031 70.632812 8.972656 69.96875 9.925781 69.207031 L 10.882812 67.675781 L 10.789062 60.914062 C 9.449219 54.523438 3.066406 50.332031 3.066406 43.375 C 2.496094 36.703125 8.117188 32.03125 12.976562 28.597656 C 15.171875 26.980469 15.363281 24.40625 15.457031 21.738281 L 15.363281 16.785156 " fill-opacity="1" fill-rule="nonzero"/><path fill="#fcedd4" d="M 8.6875 53.667969 C 9.164062 55 9.925781 56.433594 10.6875 57.671875 C 10.789062 56.910156 10.882812 55.570312 10.789062 54.523438 L 8.6875 53.667969 " fill-opacity="1" fill-rule="nonzero"/><path fill="#fcedd4" d="M 10.597656 25.457031 L 10.496094 25.457031 C 10.402344 25.648438 10.496094 25.839844 10.597656 25.933594 C 10.597656 25.742188 10.882812 25.546875 10.597656 25.457031 " fill-opacity="1" fill-rule="nonzero"/></svg>