<svg xmlns="http://www.w3.org/2000/svg" xmlns:xlink="http://www.w3.org/1999/xlink" width="175" zoomAndPan="magnify" viewBox="0 0 131.25 131.249998" height="175" preserveAspectRatio="xMidYMid meet" version="1.0"><defs><clipPath id="bf12ba355d"><path d="M 0 0 L 130.503906 0 L 130.503906 130 L 0 130 Z M 0 0 " clip-rule="nonzero"/></clipPath></defs><g clip-path="url(#bf12ba355d)"><path fill="#2f5982" d="M 3.921875 15.351562 C 5.15625 14.78125 6.777344 15.066406 7.917969 15.445312 C 9.066406 16.207031 9.730469 17.449219 9.921875 18.6875 C 10.398438 19.070312 11.160156 18.878906 11.828125 18.878906 L 12.113281 18.6875 L 12.113281 10.015625 C 12.113281 10.015625 58.339844 10.015625 58.246094 10.015625 C 57.007812 8.683594 56.152344 6.773438 57.007812 5.058594 C 57.292969 4.296875 58.054688 3.632812 58.816406 3.339844 C 59.863281 2.863281 60.816406 3.441406 61.578125 4.011719 C 62.433594 4.679688 62.433594 5.820312 62.058594 6.773438 L 61.007812 7.730469 C 63.964844 9.539062 67.492188 7.628906 70.066406 6.011719 C 72.921875 4.203125 75.117188 0.675781 78.542969 0.105469 C 79.589844 0.0078125 80.261719 0.960938 80.453125 1.816406 C 87.121094 0.292969 93.511719 2.769531 98.371094 7.152344 C 99.226562 5.441406 100.941406 4.394531 102.851562 4.488281 C 103.800781 4.582031 104.5625 5.15625 105.421875 5.726562 C 106.085938 5.15625 106.378906 4.011719 107.042969 3.25 C 109.042969 0.582031 112.570312 0.105469 115.527344 1.054688 C 117.621094 1.816406 119.339844 3.917969 119.816406 6.105469 C 120.007812 7.445312 120.007812 8.777344 120.007812 10.015625 C 121.054688 10.394531 122.101562 10.015625 123.148438 10.394531 C 125.4375 11.0625 128.109375 12.972656 128.769531 15.445312 C 129.632812 18.023438 129.25 21.167969 127.054688 22.976562 C 126.675781 23.261719 126.199219 23.546875 125.722656 23.929688 C 126.867188 25.078125 127.4375 26.503906 127.152344 28.125 C 127.054688 29.835938 125.34375 30.699219 124.105469 31.460938 C 129.347656 35.941406 130.488281 43.464844 128.394531 49.757812 C 129.25 50.140625 129.824219 50.902344 130.011719 51.757812 C 130.203125 52.714844 129.726562 53.476562 129.25 54.238281 C 125.820312 57.671875 119.429688 60.621094 121.339844 66.441406 C 121.339844 66.628906 121.625 66.820312 121.71875 67.011719 C 122.101562 66.25 122.957031 65.488281 123.910156 65.488281 C 124.960938 65.488281 125.722656 66.535156 126.105469 67.390625 C 126.292969 68.535156 126.105469 69.585938 125.535156 70.539062 C 124.867188 71.394531 123.71875 71.679688 122.578125 71.488281 C 121.433594 71.488281 120.578125 70.539062 119.816406 69.777344 L 119.625 69.871094 L 119.339844 73.78125 L 119.339844 118.957031 L 110.28125 118.957031 C 110.089844 119.433594 110.089844 120.003906 110.28125 120.574219 C 110.851562 120.957031 111.714844 120.667969 112.285156 121.050781 C 113.332031 121.433594 114.285156 122.484375 114.664062 123.53125 C 115.242188 125.433594 114.664062 127.34375 113.140625 128.484375 C 110.566406 130.390625 106.847656 129.820312 104.277344 128.484375 C 98.941406 125.53125 97.988281 119.335938 98.75 113.90625 C 99.035156 111.902344 100.085938 110.1875 100.5625 108.277344 C 99.609375 107.613281 99.035156 106.46875 98.941406 105.328125 C 98.371094 102.277344 102.089844 103.894531 103.421875 102.941406 C 104.5625 102.75 105.515625 101.988281 106.472656 101.222656 C 107.425781 98.75 106.378906 95.988281 105.421875 93.792969 C 103.800781 90.457031 101.613281 87.410156 99.609375 84.261719 C 98.5625 85.308594 97.222656 86.546875 95.796875 86.933594 C 93.605469 87.503906 91.601562 86.355469 90.171875 84.832031 L 88.9375 82.929688 C 85.027344 84.738281 80.261719 83.976562 77.019531 81.117188 C 74.445312 78.445312 73.398438 74.15625 74.824219 70.632812 C 75.6875 68.730469 77.117188 66.628906 79.304688 66.058594 C 81.214844 65.773438 83.308594 66.152344 84.835938 67.199219 C 84.933594 65.964844 84.265625 64.726562 83.980469 63.578125 C 83.214844 60.335938 82.738281 57.195312 82.832031 53.761719 L 79.691406 52.144531 C 79.113281 52.523438 79.304688 53.476562 78.734375 54.046875 C 77.972656 54.714844 79.304688 55.382812 79.304688 56.238281 C 79.40625 56.808594 79.785156 57.386719 80.261719 57.765625 C 80.738281 57.765625 81.023438 56.910156 81.59375 57.386719 C 82.070312 58.242188 82.453125 59.289062 81.976562 60.242188 C 81.5 61.675781 79.976562 62.53125 78.449219 62.53125 C 76.734375 62.53125 75.496094 61.292969 74.539062 59.957031 L 67.777344 61.097656 C 67.492188 58.910156 67.777344 56.523438 67.964844 54.335938 C 67.015625 53.667969 65.960938 52.621094 65.777344 51.472656 C 65.582031 49.949219 65.867188 48.425781 67.109375 47.46875 C 67.964844 46.992188 69.300781 46.523438 70.15625 47.183594 C 69.964844 47.664062 69.300781 48.425781 70.25 48.617188 C 71.589844 49.1875 73.207031 49.1875 74.253906 50.519531 C 74.824219 49.855469 75.6875 49.472656 76.449219 49.09375 C 75.878906 48.234375 75.6875 46.328125 73.96875 46.898438 C 70.441406 46.421875 66.917969 45.851562 63.582031 44.898438 C 63.867188 46.992188 63.488281 49.1875 62.25 50.8125 C 60.148438 53.285156 56.722656 53.953125 53.574219 53.097656 C 49.953125 52.429688 46.234375 49.1875 45.570312 45.566406 C 44.902344 43.566406 45.09375 41.277344 45.570312 39.371094 C 43.753906 38.230469 41.945312 36.605469 42.136719 34.316406 C 41.851562 31.9375 43.46875 30.222656 45.09375 28.695312 C 43.945312 26.886719 41.851562 25.648438 40.136719 24.5 C 36.707031 22.597656 32.796875 21.074219 28.792969 20.972656 C 27.652344 21.550781 26.597656 22.785156 25.835938 23.929688 C 24.789062 25.839844 25.457031 28.3125 25.265625 30.414062 C 24.027344 31.175781 22.21875 30.890625 20.976562 29.9375 L 20.023438 28.980469 C 14.59375 30.890625 7.449219 31.363281 2.964844 27.171875 C 0.679688 25.261719 0.0117188 22.3125 0.488281 19.449219 C 1.058594 17.640625 2.203125 16.207031 3.921875 15.351562 " fill-opacity="1" fill-rule="nonzero"/></g><path fill="#fcedd4" d="M 1.820312 21.644531 C 2.203125 21.738281 2.582031 21.929688 2.582031 22.3125 C 2.582031 22.785156 2.011719 22.785156 1.726562 22.882812 C 1.34375 22.976562 1.34375 22.5 1.25 22.3125 C 1.15625 21.929688 1.535156 21.738281 1.820312 21.644531 " fill-opacity="1" fill-rule="nonzero"/><path fill="#fcedd4" d="M 4.390625 16.308594 C 5.253906 16.113281 6.207031 15.921875 6.96875 16.398438 C 7.253906 16.59375 7.632812 16.878906 7.917969 17.164062 C 6.683594 16.683594 5.0625 16.5 3.820312 17.355469 C 2.773438 18.117188 2.679688 19.449219 2.105469 20.402344 L 1.34375 20.210938 C 1.726562 18.59375 2.679688 16.878906 4.390625 16.308594 " fill-opacity="1" fill-rule="nonzero"/><path fill="#fcedd4" d="M 2.964844 23.929688 C 3.160156 23.929688 3.34375 24.214844 3.535156 24.308594 C 3.25 24.785156 2.582031 24.601562 2.105469 24.5 C 1.917969 23.835938 2.679688 24.023438 2.964844 23.929688 " fill-opacity="1" fill-rule="nonzero"/><path fill="#fcedd4" d="M 4.105469 25.363281 C 4.683594 25.457031 5.15625 26.027344 5.445312 26.503906 C 5.347656 26.886719 4.683594 26.980469 4.390625 26.980469 C 3.921875 26.601562 2.679688 25.546875 4.105469 25.363281 " fill-opacity="1" fill-rule="nonzero"/><path fill="#fcedd4" d="M 3.445312 21.359375 L 14.496094 21.453125 L 14.496094 12.398438 C 14.496094 12.398438 66.347656 12.398438 74.160156 12.496094 C 74.730469 16.207031 76.925781 19.832031 80.546875 21.359375 L 83.117188 21.929688 L 98.179688 22.121094 C 98.464844 22.785156 98.464844 23.546875 98.371094 24.214844 L 82.070312 24.023438 C 78.164062 23.929688 74.445312 21.265625 72.828125 17.738281 C 72.351562 16.785156 72.253906 15.636719 71.589844 14.78125 C 71.589844 14.78125 16.6875 14.78125 16.597656 14.78125 L 16.597656 23.453125 C 16.597656 23.453125 4.207031 23.453125 4.300781 23.453125 C 3.535156 23.167969 3.445312 21.359375 3.445312 21.359375 " fill-opacity="1" fill-rule="nonzero"/><path fill="#fcedd4" d="M 5.347656 17.925781 C 6.394531 17.738281 7.347656 18.117188 7.917969 18.6875 C 6.96875 19.070312 5.632812 18.878906 4.207031 18.785156 C 4.390625 18.308594 4.871094 17.832031 5.347656 17.925781 " fill-opacity="1" fill-rule="nonzero"/><path fill="#fcedd4" d="M 6.207031 24.785156 C 8.679688 24.976562 11.828125 24.5 14.402344 25.078125 C 11.828125 26.789062 8.109375 26.695312 5.539062 24.976562 L 6.207031 24.785156 " fill-opacity="1" fill-rule="nonzero"/><path fill="#fcedd4" d="M 8.109375 27.265625 C 8.109375 27.835938 7.347656 28.21875 6.871094 28.410156 C 6.492188 28.3125 6.015625 28.3125 5.917969 27.933594 L 6.683594 26.980469 L 8.109375 27.265625 " fill-opacity="1" fill-rule="nonzero"/><path fill="#fcedd4" d="M 11.066406 27.457031 C 10.96875 28.027344 10.304688 28.695312 9.828125 29.074219 C 9.351562 29.265625 8.78125 29.074219 8.304688 28.890625 C 8.964844 28.027344 9.730469 26.886719 11.066406 27.457031 " fill-opacity="1" fill-rule="nonzero"/><path fill="#fcedd4" d="M 15.070312 26.316406 C 14.6875 27.550781 13.253906 28.410156 12.398438 29.367188 L 11.066406 29.367188 C 12.113281 28.027344 13.164062 26.316406 15.070312 26.316406 " fill-opacity="1" fill-rule="nonzero"/><path fill="#fcedd4" d="M 17.257812 24.691406 L 20.214844 22.3125 L 20.214844 22.5 C 19.074219 24.691406 18.308594 27.074219 16.210938 28.890625 C 15.640625 28.980469 15.070312 29.175781 14.496094 29.074219 C 15.640625 27.835938 16.597656 26.21875 17.257812 24.691406 " fill-opacity="1" fill-rule="nonzero"/><path fill="#fcedd4" d="M 17.929688 16.207031 C 17.929688 16.207031 27.839844 16.207031 27.652344 16.207031 C 22.886719 18.308594 19.835938 20.6875 17.835938 22.597656 C 17.929688 22.691406 17.929688 16.207031 17.929688 16.207031 " fill-opacity="1" fill-rule="nonzero"/><path fill="#fcedd4" d="M 21.546875 22.121094 C 21.457031 21.929688 21.363281 21.835938 21.171875 21.738281 L 20.976562 21.738281 C 23.933594 19.640625 27.078125 17.546875 30.601562 16.5 C 36.894531 15.921875 43.570312 16.785156 49.097656 19.449219 C 49.667969 19.734375 49.953125 20.597656 50.714844 20.3125 C 51.191406 18.5 52.808594 16.785156 54.71875 16.5 C 57.097656 15.921875 58.910156 17.449219 60.246094 19.164062 C 60.339844 19.546875 60.53125 20.019531 61.007812 20.210938 C 64.726562 18.210938 68.917969 19.925781 71.875 22.40625 C 75.117188 25.078125 79.304688 26.789062 83.785156 26.316406 C 83.695312 26.695312 83.59375 27.074219 83.402344 27.363281 C 83.214844 27.171875 83.023438 26.601562 82.546875 26.789062 C 82.167969 27.550781 82.167969 28.597656 81.40625 29.175781 C 81.40625 28.597656 81.691406 27.363281 81.023438 26.789062 L 80.644531 26.980469 C 80.453125 28.410156 80.453125 30.128906 79.019531 30.792969 C 79.40625 29.550781 79.785156 27.457031 78.929688 26.316406 C 78.542969 26.21875 78.449219 26.695312 78.542969 26.980469 C 78.828125 28.980469 77.78125 30.792969 76.355469 31.9375 C 77.019531 30.414062 77.878906 28.410156 77.210938 26.789062 L 76.832031 26.886719 C 76.449219 28.890625 75.972656 31.269531 73.875 32.316406 C 74.640625 30.316406 75.78125 28.21875 75.117188 25.933594 C 74.925781 25.648438 74.539062 25.546875 74.445312 25.933594 C 74.539062 28.503906 73.96875 30.699219 72.253906 32.507812 L 71.207031 33.179688 C 72.636719 31.269531 73.777344 28.695312 73.113281 26.027344 C 72.828125 24.976562 72.730469 23.835938 71.589844 23.167969 C 71.113281 23.261719 71.304688 23.835938 71.398438 24.121094 C 72.253906 25.546875 72.445312 27.363281 72.160156 29.074219 C 71.78125 30.984375 70.066406 32.792969 68.15625 33.179688 C 66.722656 33.554688 65.582031 33.078125 64.4375 32.507812 C 62.726562 31.363281 62.34375 29.265625 62.726562 27.457031 C 63.105469 26.21875 63.964844 24.976562 65.199219 24.40625 C 65.960938 23.929688 67.203125 23.929688 67.964844 24.40625 C 69.109375 25.171875 69.585938 26.316406 69.585938 27.648438 C 69.394531 28.597656 68.824219 29.367188 67.964844 29.746094 C 67.203125 29.835938 66.632812 29.367188 66.246094 28.695312 C 65.867188 27.648438 66.539062 26.695312 66.824219 25.742188 C 66.632812 25.457031 66.246094 25.742188 66.0625 25.839844 C 65.199219 26.695312 64.820312 27.742188 65.105469 28.980469 C 65.390625 29.835938 65.960938 30.890625 67.015625 31.078125 C 68.0625 31.078125 69.015625 30.890625 69.679688 30.03125 C 70.921875 28.503906 70.828125 26.027344 69.964844 24.40625 C 68.347656 22.3125 65.960938 20.789062 63.199219 21.074219 C 62.914062 21.265625 62.914062 21.550781 63.199219 21.644531 C 64.34375 21.835938 65.296875 22.214844 66.246094 22.882812 C 64.820312 23.167969 63.296875 23.929688 62.535156 25.261719 C 60.339844 27.550781 59.578125 30.507812 59.292969 33.65625 C 59.007812 33.65625 58.625 33.941406 58.339844 33.65625 C 57.007812 30.792969 56.527344 27.457031 56.242188 24.214844 C 57.007812 23.738281 57.769531 23.261719 57.769531 22.3125 C 57.769531 21.550781 57.199219 20.6875 56.4375 20.402344 C 55.765625 20.3125 55.386719 20.402344 54.910156 20.789062 C 54.527344 21.265625 53.765625 21.738281 53.957031 22.5 C 54.050781 23.261719 54.8125 23.835938 55.195312 24.5 C 55.480469 27.742188 56.4375 30.792969 57.382812 33.75 L 57.292969 33.941406 C 54.242188 30.03125 50.621094 26.316406 46.519531 23.546875 C 46.140625 22.691406 46.332031 21.265625 44.996094 21.074219 C 44.230469 20.972656 43.089844 21.074219 42.898438 22.027344 C 42.804688 22.785156 42.898438 23.644531 43.570312 24.214844 C 44.332031 24.691406 45.09375 24.40625 45.949219 24.40625 C 49.761719 26.695312 53.289062 30.507812 56.152344 33.941406 C 56.050781 34.417969 55.859375 34.988281 55.574219 35.273438 C 53.574219 34.886719 51.761719 34.226562 49.667969 34.035156 C 49.476562 33.179688 48.714844 32.125 47.664062 32.316406 C 46.996094 32.222656 46.425781 32.792969 46.140625 33.363281 C 45.949219 33.941406 45.949219 34.886719 46.425781 35.367188 C 46.902344 35.75 47.378906 36.035156 47.949219 35.941406 C 48.519531 35.941406 49 35.558594 49.382812 35.082031 C 51.667969 35.179688 53.765625 35.84375 55.765625 36.511719 C 56.621094 36.890625 56.527344 37.84375 56.8125 38.605469 C 54.242188 39.5625 51.953125 40.800781 50.429688 43.179688 C 50.523438 44.519531 49.382812 45.375 49.570312 46.613281 C 48.714844 46.328125 48.519531 45.183594 47.859375 44.613281 C 47.378906 45.28125 47.949219 46.042969 48.234375 46.707031 C 49.761719 49.285156 52.332031 50.519531 55.097656 50.617188 C 56.722656 50.425781 58.4375 49.949219 59.292969 48.425781 C 59.863281 47.855469 59.675781 46.707031 59.484375 45.945312 C 59.199219 44.996094 58.246094 44.328125 57.382812 44.042969 C 55.859375 43.945312 54.050781 44.230469 53.09375 45.566406 C 53.003906 45.757812 52.910156 46.230469 53.195312 46.328125 C 54.050781 46.613281 54.433594 45.46875 55.195312 45.375 C 56.152344 45.089844 57.199219 44.996094 57.960938 45.660156 C 58.53125 46.328125 58.53125 47.285156 58.148438 47.949219 C 57.382812 49.09375 56.152344 49.378906 54.8125 49.378906 C 53.386719 49.378906 52.238281 48.902344 51.285156 47.855469 C 50.714844 46.992188 50.523438 45.566406 51.09375 44.707031 C 52.71875 42.039062 55.671875 42.132812 58.53125 42.519531 C 59.960938 42.996094 61.386719 43.660156 62.148438 45.183594 C 62.914062 46.992188 62.25 49.09375 61.007812 50.519531 C 58.816406 53.191406 55.386719 52.714844 52.523438 51.953125 C 49.097656 50.617188 46.140625 47.46875 46.140625 43.464844 C 46.042969 41.941406 46.332031 40.417969 46.804688 39.085938 C 45.855469 38.128906 44.230469 37.75 43.285156 36.605469 C 43.570312 35.941406 42.804688 35.558594 42.992188 34.886719 C 42.515625 32.699219 44.140625 30.792969 45.855469 29.652344 C 46.234375 29.367188 46.710938 29.367188 46.996094 28.980469 L 46.902344 28.597656 C 42.328125 23.929688 36.707031 21.359375 30.796875 19.832031 C 35.371094 17.640625 41.375 17.925781 45.949219 19.832031 C 46.234375 19.832031 46.519531 19.925781 46.519531 19.640625 L 46.519531 19.355469 C 40.992188 16.59375 33.464844 16.878906 28.128906 20.019531 C 26.027344 21.835938 24.027344 23.929688 23.933594 26.601562 L 24.21875 29.746094 C 23.363281 30.316406 22.59375 29.652344 21.832031 29.265625 C 20.976562 28.789062 20.976562 27.835938 20.214844 27.363281 L 18.597656 28.027344 C 19.453125 26.125 20.5 24.121094 21.546875 22.121094 " fill-opacity="1" fill-rule="nonzero"/><path fill="#fcedd4" d="M 20.40625 22.214844 L 20.601562 21.929688 L 20.691406 22.027344 L 20.40625 22.214844 " fill-opacity="1" fill-rule="nonzero"/><path fill="#2f5982" d="M 29.269531 17.355469 C 29.460938 17.355469 29.746094 17.261719 29.648438 17.546875 C 29.175781 18.308594 28.03125 18.59375 27.363281 19.257812 C 24.503906 21.835938 22.125 25.363281 23.363281 29.074219 C 23.265625 29.367188 22.980469 29.265625 22.789062 29.175781 C 21.742188 26.789062 22.023438 23.835938 23.648438 21.738281 C 25.171875 19.925781 27.078125 18.210938 29.269531 17.355469 " fill-opacity="1" fill-rule="nonzero"/><path fill="#fcedd4" d="M 45.570312 16.207031 C 45.757812 16.308594 45.664062 16.5 45.664062 16.59375 C 45.472656 16.878906 45.1875 16.683594 45.09375 16.5 C 44.996094 16.113281 45.28125 16.398438 45.570312 16.207031 " fill-opacity="1" fill-rule="nonzero"/><path fill="#fcedd4" d="M 47.472656 16.308594 L 47.472656 17.355469 C 47.1875 17.449219 46.902344 17.355469 46.710938 17.164062 L 46.804688 16.308594 L 47.472656 16.308594 " fill-opacity="1" fill-rule="nonzero"/><path fill="#fcedd4" d="M 48.519531 16.207031 C 48.714844 16.113281 48.90625 16.207031 49.097656 16.207031 C 49.191406 16.785156 49.285156 17.546875 49 18.117188 C 48.042969 18.023438 48.621094 16.785156 48.519531 16.207031 " fill-opacity="1" fill-rule="nonzero"/><path fill="#fcedd4" d="M 50.714844 16.207031 L 50.808594 16.207031 C 50.90625 16.785156 50.808594 17.449219 50.332031 17.925781 C 50.144531 17.449219 50.238281 16.785156 50.238281 16.207031 L 50.714844 16.207031 " fill-opacity="1" fill-rule="nonzero"/><path fill="#fcedd4" d="M 59.101562 39.65625 C 64.058594 39.371094 67.394531 43.851562 72.253906 43.464844 C 72.445312 43.375 72.351562 42.996094 72.160156 42.996094 C 67.964844 41.847656 63.105469 40.132812 61.203125 35.652344 C 60.726562 34.035156 60.148438 32.03125 61.007812 30.507812 C 60.910156 30.128906 61.007812 29.835938 61.203125 29.550781 L 61.386719 29.550781 C 61.578125 33.65625 63.867188 37.367188 67.492188 39.46875 C 69.679688 40.609375 71.96875 41.65625 74.539062 41.847656 C 74.824219 42.996094 75.015625 44.421875 75.117188 45.660156 C 71.304688 46.042969 67.777344 44.519531 64.25 43.660156 C 60.910156 42.234375 57.199219 40.417969 53.386719 41.46875 C 54.910156 40.039062 57.097656 39.941406 59.101562 39.65625 " fill-opacity="1" fill-rule="nonzero"/><path fill="#fcedd4" d="M 59.292969 35.082031 L 59.675781 35.082031 L 60.816406 38.320312 C 60.054688 38.128906 57.769531 39.277344 57.667969 37.464844 C 57.484375 36.796875 57.007812 36.226562 57.097656 35.464844 L 59.292969 35.082031 " fill-opacity="1" fill-rule="nonzero"/><path fill="#fcedd4" d="M 58.53125 4.773438 C 59.007812 4.203125 59.863281 4.011719 60.53125 4.296875 C 61.007812 4.582031 61.671875 5.058594 61.386719 5.820312 C 61.386719 6.296875 61.007812 6.683594 60.53125 6.867188 C 60.054688 6.867188 59.578125 6.488281 59.386719 6.011719 C 59.484375 5.726562 59.484375 5.25 59.199219 5.058594 C 58.722656 5.058594 58.53125 5.726562 58.625 6.105469 C 58.625 7.058594 59.199219 7.824219 59.960938 8.492188 C 61.773438 10.015625 64.4375 9.632812 66.632812 8.96875 C 71.113281 7.445312 74.0625 2.679688 78.542969 1.054688 C 78.828125 1.054688 79.214844 1.34375 79.304688 1.628906 C 79.589844 2.863281 77.496094 3.054688 78.257812 4.203125 C 83.117188 1.4375 89.984375 2.292969 94.558594 5.15625 C 96.082031 6.296875 97.609375 7.34375 98.75 8.871094 C 99.511719 8.492188 99.035156 7.253906 99.703125 6.582031 C 100.464844 5.632812 101.613281 5.34375 102.558594 5.632812 C 103.613281 5.917969 104.5625 6.96875 104.851562 8.015625 C 104.851562 9.160156 104.375 10.207031 103.324219 10.777344 C 102.753906 11.0625 102.183594 10.679688 101.703125 10.585938 C 101.035156 10.109375 100.75 9.253906 100.847656 8.492188 C 100.941406 7.445312 102.183594 7.445312 102.851562 6.867188 C 102.851562 6.398438 102.273438 6.398438 101.988281 6.398438 C 101.132812 6.488281 100.371094 7.253906 100.179688 8.015625 C 99.894531 8.777344 99.894531 9.921875 100.371094 10.585938 C 101.132812 11.917969 102.558594 12.589844 104.183594 12.496094 C 104.851562 12.875 104.277344 13.921875 104.46875 14.683594 C 103.324219 14.96875 102.273438 14.113281 101.328125 13.636719 C 98.941406 11.347656 97.324219 8.300781 94.273438 6.773438 C 91.21875 4.296875 87.027344 2.769531 83.117188 3.726562 C 77.496094 5.058594 73.113281 9.539062 67.203125 10.300781 C 63.867188 10.109375 59.007812 11.441406 57.863281 7.445312 C 57.578125 6.398438 57.863281 5.535156 58.53125 4.773438 " fill-opacity="1" fill-rule="nonzero"/><path fill="#fcedd4" d="M 60.53125 16.113281 C 61.101562 16.113281 60.910156 16.878906 60.910156 17.164062 L 60.816406 17.449219 C 60.339844 17.261719 60.148438 16.5 60.53125 16.113281 " fill-opacity="1" fill-rule="nonzero"/><path fill="#fcedd4" d="M 62.433594 16.207031 C 63.105469 16.5 62.433594 17.355469 62.726562 17.925781 C 62.628906 18.117188 62.433594 18.402344 62.148438 18.308594 C 61.773438 17.925781 62.058594 16.976562 61.957031 16.308594 L 62.433594 16.207031 " fill-opacity="1" fill-rule="nonzero"/><path fill="#fcedd4" d="M 63.582031 33.363281 C 63.867188 33.179688 64.152344 33.464844 64.25 33.75 C 64.25 34.035156 64.34375 34.511719 64.152344 34.796875 C 63.867188 34.417969 63.390625 33.941406 63.582031 33.363281 " fill-opacity="1" fill-rule="nonzero"/><path fill="#fcedd4" d="M 64.4375 16.207031 C 64.535156 16.785156 64.628906 17.640625 64.34375 18.117188 C 64.058594 18.117188 63.773438 18.117188 63.675781 17.925781 L 63.867188 16.207031 L 64.4375 16.207031 " fill-opacity="1" fill-rule="nonzero"/><path fill="#fcedd4" d="M 65.296875 34.316406 C 66.152344 34.035156 65.960938 35.082031 65.960938 35.652344 L 65.867188 36.890625 C 64.914062 36.511719 65.296875 35.179688 65.296875 34.316406 " fill-opacity="1" fill-rule="nonzero"/><path fill="#fcedd4" d="M 66.246094 16.207031 C 65.867188 16.878906 66.824219 18.308594 65.675781 18.210938 C 65.484375 17.640625 65.582031 16.785156 65.582031 16.207031 L 66.246094 16.207031 " fill-opacity="1" fill-rule="nonzero"/><path fill="#fcedd4" d="M 67.300781 48.519531 C 67.585938 48.234375 67.871094 48.140625 68.253906 48.140625 C 67.777344 49.09375 67.585938 50.425781 68.0625 51.472656 C 68.632812 52.621094 69.871094 53 71.011719 53.097656 C 71.78125 53.191406 72.542969 52.714844 73.207031 53.382812 C 73.398438 53.574219 73.492188 53.953125 73.304688 54.238281 C 72.445312 55.285156 71.113281 55.09375 70.15625 55.667969 C 69.964844 56.625 69.679688 57.957031 70.15625 58.8125 C 71.011719 58.625 72.351562 58.8125 72.730469 57.765625 C 72.828125 56.808594 73.113281 55.953125 73.683594 55.285156 C 74.160156 55 74.640625 55.191406 75.117188 55.382812 C 75.878906 56.523438 75.015625 58.433594 76.257812 59.480469 C 77.117188 60.242188 78.351562 60.527344 79.40625 60.152344 C 80.070312 59.957031 80.546875 59.097656 81.121094 58.71875 C 81.5 59.195312 81.121094 59.859375 81.023438 60.335938 C 80.359375 61.390625 79.214844 61.390625 78.164062 61.578125 C 76.640625 61.390625 75.496094 59.859375 74.824219 58.625 C 74.253906 57.765625 74.925781 56.523438 74.253906 55.667969 C 72.828125 56.332031 74.640625 58.625 72.921875 59.195312 C 71.398438 59.382812 70.25 59.859375 68.726562 59.765625 C 68.539062 58.433594 68.632812 56.808594 68.824219 55.382812 C 69.394531 54.335938 70.921875 54.714844 71.875 54.335938 C 72.160156 54.144531 72.253906 53.859375 72.160156 53.667969 L 71.875 53.382812 C 70.636719 53.285156 68.917969 53.953125 67.777344 52.808594 C 66.4375 51.757812 66.4375 49.757812 67.300781 48.519531 " fill-opacity="1" fill-rule="nonzero"/><path fill="#fcedd4" d="M 67.585938 34.601562 C 67.777344 35.75 67.679688 36.988281 67.679688 38.230469 C 67.394531 38.128906 67.109375 38.035156 67.015625 37.75 L 67.109375 34.601562 L 67.585938 34.601562 " fill-opacity="1" fill-rule="nonzero"/><path fill="#fcedd4" d="M 67.679688 16.207031 L 67.871094 16.207031 C 68.15625 17.070312 67.964844 17.832031 67.871094 18.6875 C 67.679688 18.6875 67.300781 18.6875 67.203125 18.5 C 67.394531 17.738281 67.015625 16.398438 67.679688 16.207031 " fill-opacity="1" fill-rule="nonzero"/><path fill="#fcedd4" d="M 68.824219 34.796875 C 69.015625 34.601562 69.109375 34.796875 69.300781 34.796875 C 69.585938 36.128906 69.488281 37.652344 69.394531 39.085938 C 68.726562 39.277344 68.726562 38.414062 68.726562 37.945312 L 68.824219 34.796875 " fill-opacity="1" fill-rule="nonzero"/><path fill="#fcedd4" d="M 69.109375 49.09375 C 70.535156 50.617188 73.683594 49.664062 73.875 52.238281 C 72.160156 51.667969 69.488281 52.90625 68.824219 50.617188 C 68.824219 50.046875 68.726562 49.378906 69.109375 49.09375 " fill-opacity="1" fill-rule="nonzero"/><path fill="#fcedd4" d="M 69.109375 16.207031 C 69.488281 15.921875 69.679688 16.5 69.679688 16.878906 C 69.585938 17.738281 69.773438 18.785156 69.488281 19.449219 L 69.015625 19.164062 L 69.109375 16.207031 " fill-opacity="1" fill-rule="nonzero"/><path fill="#fcedd4" d="M 71.011719 34.601562 C 71.398438 36.226562 71.113281 38.128906 71.113281 39.753906 C 70.921875 39.847656 70.535156 39.847656 70.535156 39.65625 L 70.535156 34.796875 L 71.011719 34.601562 " fill-opacity="1" fill-rule="nonzero"/><path fill="#fcedd4" d="M 70.828125 16.5 C 71.589844 17.449219 71.492188 19.070312 71.304688 20.496094 C 71.011719 20.402344 70.535156 20.117188 70.636719 19.734375 L 70.828125 16.5 " fill-opacity="1" fill-rule="nonzero"/><path fill="#fcedd4" d="M 71.589844 56.433594 L 71.78125 56.433594 C 72.066406 56.71875 71.78125 57.003906 71.78125 57.289062 C 71.589844 57.574219 71.207031 57.574219 70.921875 57.480469 C 70.726562 57.003906 71.011719 56.433594 71.589844 56.433594 " fill-opacity="1" fill-rule="nonzero"/><path fill="#fcedd4" d="M 76.734375 7.730469 C 76.257812 8.492188 76.449219 10.207031 75.117188 10.015625 L 72.160156 10.015625 L 76.734375 7.730469 " fill-opacity="1" fill-rule="nonzero"/><path fill="#fcedd4" d="M 72.828125 34.316406 L 72.828125 40.230469 C 72.730469 40.324219 72.253906 40.417969 72.160156 40.039062 L 72.253906 34.316406 L 72.828125 34.316406 " fill-opacity="1" fill-rule="nonzero"/><path fill="#fcedd4" d="M 72.542969 19.734375 C 73.015625 20.117188 73.113281 20.882812 73.113281 21.550781 C 73.113281 21.929688 72.636719 21.644531 72.542969 21.550781 C 72.253906 20.972656 72.542969 20.210938 72.542969 19.734375 " fill-opacity="1" fill-rule="nonzero"/><path fill="#fcedd4" d="M 73.96875 33.941406 C 74.160156 33.75 74.445312 33.554688 74.730469 33.554688 L 74.730469 40.515625 C 74.445312 40.703125 74.160156 40.515625 73.875 40.515625 C 73.875 38.414062 73.875 36.128906 73.96875 33.941406 " fill-opacity="1" fill-rule="nonzero"/><path fill="#fcedd4" d="M 74.160156 21.929688 C 74.445312 21.835938 74.730469 22.3125 74.925781 22.5 C 74.925781 22.691406 75.015625 22.976562 74.824219 23.074219 C 74.539062 22.882812 73.875 22.785156 74.0625 22.214844 C 74.160156 22.121094 74.160156 22.027344 74.160156 21.929688 " fill-opacity="1" fill-rule="nonzero"/><path fill="#fcedd4" d="M 74.445312 53.761719 C 74.640625 53.761719 74.640625 53.953125 74.824219 54.046875 C 74.640625 54.144531 74.355469 54.046875 74.445312 53.761719 " fill-opacity="1" fill-rule="nonzero"/><path fill="#fcedd4" d="M 75.972656 50.332031 C 76.925781 50.140625 77.78125 50.519531 78.449219 51.28125 C 78.644531 51.953125 78.644531 52.714844 78.164062 53.285156 C 77.402344 53.761719 76.449219 54.046875 75.6875 53.476562 C 74.445312 52.808594 74.730469 50.8125 75.972656 50.332031 " fill-opacity="1" fill-rule="nonzero"/><path fill="#fcedd4" d="M 77.6875 68.535156 C 79.214844 67.011719 81.785156 66.914062 83.695312 67.773438 C 85.695312 68.820312 86.457031 71.109375 86.550781 73.203125 C 86.550781 74.921875 86.167969 76.539062 84.640625 77.683594 C 83.308594 78.546875 81.40625 78.355469 80.070312 77.589844 C 79.113281 76.445312 78.449219 75.019531 78.644531 73.585938 C 78.734375 72.726562 79.304688 71.871094 80.167969 71.488281 C 80.738281 71.109375 81.785156 71.203125 82.261719 71.679688 C 83.308594 72.347656 83.402344 73.496094 83.402344 74.542969 C 83.214844 75.492188 82.355469 76.066406 82.261719 76.921875 C 82.640625 77.398438 83.117188 76.828125 83.5 76.636719 C 84.640625 75.492188 85.027344 73.394531 84.265625 71.964844 C 83.59375 71.109375 82.640625 70.253906 81.59375 70.0625 C 79.589844 69.871094 78.066406 71.585938 77.304688 73.300781 C 76.542969 75.492188 76.925781 78.253906 78.542969 79.972656 C 78.929688 80.355469 79.5 80.828125 80.070312 80.640625 C 80.070312 79.878906 79.019531 79.402344 78.734375 78.640625 C 78.734375 78.445312 78.542969 78.253906 78.542969 77.96875 C 80.167969 79.117188 82.546875 79.78125 84.550781 78.925781 C 85.3125 78.546875 85.980469 78.070312 86.550781 77.398438 C 86.742188 77.589844 87.027344 77.785156 87.3125 77.492188 C 88.746094 76.253906 89.886719 74.636719 90.363281 72.917969 C 90.839844 72.347656 91.601562 72.917969 92.171875 72.824219 C 93.128906 74.921875 93.320312 77.492188 93.414062 79.972656 C 92.75 80.355469 92.648438 81.117188 92.648438 81.78125 C 92.84375 82.449219 93.21875 83.121094 93.984375 83.214844 C 94.746094 83.304688 95.699219 82.835938 95.890625 82.066406 C 96.175781 81.019531 95.507812 80.355469 94.746094 79.878906 L 93.414062 73.019531 C 95.699219 72.824219 97.039062 75.492188 98.75 76.828125 L 104.46875 83.691406 C 103.898438 84.355469 103.898438 85.5 104.46875 86.167969 C 105.136719 86.738281 105.992188 86.933594 106.847656 86.648438 C 107.613281 86.355469 107.902344 85.59375 107.996094 84.832031 C 107.804688 84.070312 107.425781 83.019531 106.472656 83.019531 L 105.421875 83.019531 C 102.183594 79.210938 98.847656 75.304688 94.9375 71.964844 C 95.035156 71.585938 94.84375 71.203125 95.128906 70.917969 C 98.464844 71.964844 102.183594 73.019531 105.902344 73.109375 C 106.378906 73.78125 107.140625 74.921875 108.1875 74.542969 C 108.757812 74.351562 109.519531 73.871094 109.804688 73.109375 C 109.804688 72.347656 109.613281 71.679688 109.042969 71.203125 C 108.472656 70.730469 107.710938 70.632812 107.140625 70.824219 C 106.085938 72.632812 103.898438 71.777344 102.273438 71.777344 C 99.703125 71.585938 97.222656 70.824219 95.035156 69.675781 C 94.84375 69.492188 94.84375 69.207031 94.84375 68.914062 C 97.507812 68.535156 100.941406 69.390625 102.660156 66.914062 C 104.375 66.34375 105.515625 64.625 105.707031 62.816406 C 105.617188 62.152344 105.617188 61.769531 105.515625 61.199219 C 107.140625 62.246094 107.804688 64.054688 107.902344 65.867188 C 107.996094 66.058594 108.1875 66.152344 108.28125 65.964844 C 108.851562 64.054688 107.902344 62.152344 106.757812 60.722656 C 105.136719 58.910156 102.945312 58.148438 100.5625 58.335938 C 99.035156 58.433594 97.703125 59.480469 97.132812 60.914062 C 96.746094 61.863281 96.9375 63.007812 97.609375 63.769531 C 97.988281 64.53125 98.847656 64.726562 99.609375 64.816406 C 100.75 64.816406 101.988281 64.339844 102.558594 63.199219 C 102.753906 62.4375 103.421875 61.390625 102.558594 60.8125 C 101.613281 61.007812 101.988281 62.246094 101.417969 62.816406 C 100.65625 63.386719 99.609375 63.578125 98.75 63.199219 C 98.179688 62.816406 98.179688 61.863281 98.464844 61.292969 C 99.324219 59.859375 100.847656 59.671875 102.273438 59.765625 C 103.230469 59.957031 104.089844 60.8125 104.375 61.675781 C 104.753906 62.722656 104.277344 63.769531 103.898438 64.625 C 102.46875 66.058594 100.273438 66.628906 98.464844 66.058594 C 97.222656 65.582031 96.082031 64.910156 95.414062 63.671875 C 94.746094 61.960938 95.222656 59.957031 96.367188 58.625 C 97.507812 57.101562 99.324219 56.71875 101.035156 56.523438 C 102.851562 56.625 104.46875 57.195312 106.085938 57.765625 C 106.378906 57.863281 106.378906 57.480469 106.277344 57.386719 C 103.515625 55.667969 99.609375 54.90625 96.652344 56.71875 L 95.507812 57.671875 C 95.605469 57.003906 95.890625 56.238281 96.460938 55.667969 C 98.371094 53.476562 101.703125 54.144531 104.089844 54.523438 C 104.375 54.144531 103.898438 53.761719 103.613281 53.667969 C 101.511719 52.90625 98.5625 53 96.746094 53.761719 C 98.085938 51.757812 100.5625 51.574219 102.558594 51.28125 C 102.753906 51.1875 102.945312 50.902344 102.753906 50.710938 L 102.273438 50.519531 C 101.035156 50.425781 99.609375 50.8125 98.273438 51.097656 C 99.132812 49.378906 101.035156 49.664062 102.660156 49.1875 L 102.851562 48.902344 C 102.273438 48.140625 101.226562 48.617188 100.371094 48.519531 C 100.75 47.46875 102.089844 48.140625 102.753906 47.46875 C 102.851562 46.808594 101.988281 46.992188 101.613281 46.808594 C 101.988281 45.945312 103.230469 46.230469 103.898438 45.660156 C 102.851562 48.425781 103.515625 51.472656 104.851562 53.953125 C 106.949219 58.148438 111.238281 61.960938 109.425781 67.390625 C 109.90625 68.34375 111.238281 68.25 111.90625 69.105469 C 113.140625 69.96875 113.238281 71.488281 113.429688 72.824219 C 113.523438 75.492188 111.808594 77.96875 109.425781 79.117188 C 108.851562 79.972656 110.28125 80.640625 110.476562 81.496094 C 113.523438 85.882812 113.714844 92.269531 112.285156 97.511719 C 111.238281 100.277344 110.761719 103.324219 109.042969 105.804688 C 108.949219 105.511719 109.140625 105.226562 108.851562 105.136719 C 107.613281 105.613281 107.140625 106.851562 105.902344 107.421875 C 104.46875 108.375 102.753906 108.945312 101.613281 110.378906 C 101.613281 110.566406 101.613281 111.042969 101.988281 110.949219 C 104.183594 109.710938 106.664062 108.660156 108.378906 106.566406 C 107.902344 109.039062 105.800781 109.996094 104.089844 111.519531 C 102.558594 112.1875 101.226562 113.140625 99.894531 114.28125 C 99.988281 112.1875 101.511719 110.1875 102.183594 108.089844 C 102.089844 107.800781 101.613281 107.898438 101.328125 107.707031 C 100.5625 107.136719 99.894531 106.375 99.894531 105.421875 L 99.988281 104.65625 C 103.230469 104.273438 106.378906 103.511719 108.472656 100.746094 C 112.476562 96.078125 113.046875 88.550781 110.476562 82.929688 C 109.804688 82.257812 109.710938 80.542969 108.566406 80.925781 L 108.472656 81.210938 C 112 85.59375 111.808594 92.933594 109.328125 97.796875 C 108.757812 98.367188 108.566406 99.035156 107.902344 99.414062 C 107.996094 92.460938 101.988281 87.789062 99.417969 81.78125 C 98.65625 81.972656 99.132812 82.929688 98.847656 83.40625 C 97.988281 84.738281 96.460938 86.167969 94.652344 86.070312 C 93.320312 85.976562 92.078125 85.59375 91.03125 84.644531 C 90.171875 83.691406 89.984375 82.359375 89.695312 81.117188 C 88.839844 80.925781 88.359375 82.066406 87.597656 82.257812 C 84.640625 83.40625 80.359375 83.121094 77.878906 80.640625 C 75.59375 78.640625 74.730469 75.492188 75.300781 72.539062 C 75.496094 70.917969 76.449219 69.585938 77.6875 68.535156 " fill-opacity="1" fill-rule="nonzero"/><path fill="#fcedd4" d="M 84.265625 29.460938 C 86.359375 28.597656 88.460938 28.027344 90.746094 27.933594 C 90.554688 29.175781 89.886719 30.316406 89.125 31.269531 C 85.410156 32.507812 81.691406 35.082031 79.976562 38.800781 C 78.929688 41.085938 79.019531 44.230469 80.546875 46.328125 C 81.214844 47.570312 82.640625 47.855469 83.402344 48.808594 L 82.832031 52.523438 C 79.882812 51.859375 76.925781 48.996094 76.257812 46.042969 C 74.445312 39.371094 78.164062 32.507812 84.265625 29.460938 " fill-opacity="1" fill-rule="nonzero"/><path fill="#fcedd4" d="M 75.972656 33.363281 L 76.257812 33.464844 C 76.164062 34.703125 76.734375 36.414062 75.78125 37.367188 C 75.878906 36.035156 75.59375 34.511719 75.972656 33.363281 " fill-opacity="1" fill-rule="nonzero"/><path fill="#fcedd4" d="M 76.066406 23.359375 C 76.257812 23.359375 76.355469 23.546875 76.542969 23.644531 C 76.542969 23.738281 76.542969 23.835938 76.449219 23.929688 C 76.164062 23.929688 75.878906 23.546875 76.066406 23.359375 " fill-opacity="1" fill-rule="nonzero"/><path fill="#fcedd4" d="M 78.929688 57.863281 L 79.5 58.527344 C 79.113281 59.195312 78.351562 59.289062 77.6875 59.097656 C 75.878906 58.433594 76.542969 56.238281 75.972656 54.808594 C 77.878906 54.808594 78.257812 56.523438 78.929688 57.863281 " fill-opacity="1" fill-rule="nonzero"/><path fill="#fcedd4" d="M 78.734375 6.867188 C 81.214844 5.15625 84.265625 3.917969 87.40625 4.582031 C 94.460938 6.105469 100.75 12.589844 102.183594 19.640625 C 102.753906 21.550781 102.945312 23.738281 103.136719 25.933594 C 102.183594 26.21875 100.847656 26.21875 99.894531 25.933594 C 99.324219 19.449219 96.9375 12.398438 90.457031 9.347656 C 88.269531 8.015625 85.027344 7.34375 82.546875 8.777344 C 81.40625 9.347656 80.738281 10.394531 80.453125 11.441406 C 80.359375 12.972656 81.121094 14.398438 82.453125 15.160156 C 83.308594 15.636719 84.355469 15.351562 85.121094 14.875 C 86.074219 14.210938 86.550781 13.160156 86.550781 12.019531 C 88.074219 12.019531 89.410156 12.875 90.554688 13.921875 C 92.171875 15.445312 93.796875 17.355469 94.460938 19.355469 C 93.320312 19.734375 91.695312 19.640625 90.269531 19.449219 L 88.839844 17.449219 C 87.984375 17.546875 88.074219 18.5 87.3125 18.6875 C 84.355469 20.210938 81.023438 19.449219 78.542969 17.449219 C 76.925781 15.828125 75.878906 13.636719 76.449219 11.15625 C 76.832031 9.632812 77.402344 8.109375 78.734375 6.867188 " fill-opacity="1" fill-rule="nonzero"/><path fill="#fcedd4" d="M 78.066406 32.316406 L 78.734375 32.222656 L 77.402344 34.125 C 77.402344 33.65625 77.304688 33.078125 77.496094 32.699219 L 78.066406 32.316406 " fill-opacity="1" fill-rule="nonzero"/><path fill="#fcedd4" d="M 78.734375 24.691406 L 77.6875 24.5 L 77.6875 24.308594 Z M 78.734375 24.691406 " fill-opacity="1" fill-rule="nonzero"/><path fill="#fcedd4" d="M 80.738281 40.515625 C 86.074219 37.179688 91.601562 32.222656 92.363281 25.742188 L 95.414062 25.648438 C 95.320312 31.652344 91.792969 36.796875 87.121094 40.800781 C 85.21875 42.132812 83.117188 43.28125 80.929688 43.851562 C 80.359375 42.894531 80.453125 41.5625 80.738281 40.515625 " fill-opacity="1" fill-rule="nonzero"/><path fill="#fcedd4" d="M 86.457031 43.375 C 89.222656 39.277344 93.414062 36.226562 98.085938 35.464844 C 98.5625 36.414062 98.179688 37.84375 97.800781 38.890625 C 93.035156 40.894531 88.746094 45.660156 87.984375 50.8125 C 87.503906 56.046875 88.746094 61.292969 92.75 64.625 C 94.652344 66.152344 96.746094 67.199219 99.035156 67.582031 C 95.796875 67.960938 92.273438 67.105469 90.078125 64.53125 C 87.597656 61.863281 86.457031 58.625 86.265625 54.90625 C 86.265625 54.238281 86.457031 53.285156 85.882812 52.90625 C 85.121094 53.667969 85.597656 54.90625 85.410156 55.863281 C 85.695312 62.722656 93.320312 69.585938 87.21875 76.066406 C 88.839844 69.585938 84.070312 64.339844 83.980469 57.765625 C 83.59375 52.714844 83.980469 47.46875 86.457031 43.375 " fill-opacity="1" fill-rule="nonzero"/><path fill="#fcedd4" d="M 85.027344 26.503906 C 85.121094 26.789062 85.410156 27.933594 84.835938 28.21875 L 84.457031 28.125 C 84.457031 27.457031 84.640625 26.980469 85.027344 26.503906 " fill-opacity="1" fill-rule="nonzero"/><path fill="#fcedd4" d="M 86.265625 25.648438 C 86.359375 25.546875 86.644531 25.648438 86.835938 25.648438 C 86.742188 26.21875 87.21875 27.363281 86.457031 27.648438 C 85.980469 27.363281 86.265625 26.316406 86.265625 25.648438 " fill-opacity="1" fill-rule="nonzero"/><path fill="#fcedd4" d="M 88.460938 25.648438 L 88.554688 25.648438 C 88.746094 26.125 88.9375 26.980469 88.460938 27.171875 L 87.882812 27.074219 C 87.984375 26.601562 87.597656 25.546875 88.460938 25.648438 " fill-opacity="1" fill-rule="nonzero"/><path fill="#fcedd4" d="M 89.125 49.664062 C 93.890625 47.570312 97.800781 43.089844 99.226562 38.230469 C 99.609375 36.226562 99.894531 34.035156 99.988281 31.9375 C 100.941406 31.746094 101.796875 32.03125 102.753906 32.125 C 103.230469 33.078125 102.753906 34.316406 102.660156 35.367188 C 101.988281 42.804688 97.039062 50.519531 89.695312 52.808594 C 89.410156 52.808594 89.03125 53.097656 88.839844 52.808594 L 89.125 49.664062 " fill-opacity="1" fill-rule="nonzero"/><path fill="#fcedd4" d="M 89.125 55.476562 C 90.839844 55.382812 92.933594 55.191406 94.746094 55.285156 C 94.84375 55.667969 94.460938 55.953125 94.175781 55.863281 L 89.410156 55.953125 C 89.125 55.863281 89.222656 55.667969 89.125 55.476562 " fill-opacity="1" fill-rule="nonzero"/><path fill="#fcedd4" d="M 89.601562 57.101562 C 90.933594 56.808594 92.648438 57.003906 93.984375 57.003906 C 94.082031 57.289062 93.796875 57.671875 93.414062 57.671875 L 89.695312 57.671875 C 89.695312 57.574219 89.410156 57.386719 89.601562 57.101562 " fill-opacity="1" fill-rule="nonzero"/><path fill="#fcedd4" d="M 95.222656 53.667969 L 95.035156 54.046875 C 93.320312 54.238281 91.410156 54.335938 89.507812 54.238281 C 91.125 53.191406 93.320312 53.574219 95.222656 53.667969 " fill-opacity="1" fill-rule="nonzero"/><path fill="#fcedd4" d="M 89.695312 25.742188 C 89.984375 25.546875 90.363281 25.648438 90.648438 25.648438 C 90.933594 25.839844 90.839844 26.410156 90.746094 26.601562 C 89.984375 27.074219 89.507812 26.503906 89.695312 25.742188 " fill-opacity="1" fill-rule="nonzero"/><path fill="#fcedd4" d="M 93.890625 58.71875 C 93.890625 58.910156 94.175781 59.195312 93.890625 59.382812 L 90.363281 59.480469 L 89.984375 58.910156 C 91.316406 58.625 92.558594 58.625 93.890625 58.71875 " fill-opacity="1" fill-rule="nonzero"/><path fill="#fcedd4" d="M 90.648438 67.582031 C 91.695312 67.867188 92.84375 68.34375 93.890625 68.820312 C 93.984375 69.777344 93.984375 70.632812 93.890625 71.585938 C 92.933594 71.585938 91.410156 71.871094 90.746094 71.203125 C 90.839844 69.96875 90.839844 68.820312 90.648438 67.582031 " fill-opacity="1" fill-rule="nonzero"/><path fill="#fcedd4" d="M 93.796875 60.527344 C 93.984375 60.527344 93.890625 60.8125 93.890625 60.914062 C 92.933594 61.292969 92.171875 61.097656 91.125 61.097656 C 91.03125 60.914062 90.839844 60.4375 91.316406 60.527344 L 93.796875 60.527344 " fill-opacity="1" fill-rule="nonzero"/><path fill="#fcedd4" d="M 93.699219 62.246094 C 93.890625 62.246094 93.890625 62.53125 93.890625 62.816406 C 93.414062 62.816406 92.84375 63.007812 92.457031 62.816406 L 91.988281 62.339844 C 92.558594 62.152344 93.035156 62.246094 93.699219 62.246094 " fill-opacity="1" fill-rule="nonzero"/><path fill="#fcedd4" d="M 96.5625 51.757812 C 96.460938 52.90625 94.9375 52.335938 94.273438 52.429688 L 93.605469 52.335938 C 94.273438 51.382812 95.605469 51.667969 96.5625 51.757812 " fill-opacity="1" fill-rule="nonzero"/><path fill="#fcedd4" d="M 94.273438 64.054688 L 94.460938 64.339844 L 93.890625 64.054688 C 93.890625 63.769531 94.175781 64.054688 94.273438 64.054688 " fill-opacity="1" fill-rule="nonzero"/><path fill="#fcedd4" d="M 96.175781 27.171875 C 99.035156 26.980469 101.703125 27.171875 104.375 27.363281 C 104.5625 28.503906 104.46875 29.460938 104.46875 30.605469 C 101.511719 30.699219 98.464844 30.222656 95.414062 30.316406 L 96.175781 27.171875 " fill-opacity="1" fill-rule="nonzero"/><path fill="#fcedd4" d="M 97.324219 50.046875 C 97.507812 50.710938 96.652344 50.617188 96.277344 50.519531 C 96.460938 50.140625 96.9375 49.949219 97.324219 50.046875 " fill-opacity="1" fill-rule="nonzero"/><path fill="#fcedd4" d="M 98.5625 48.332031 L 98.75 48.332031 C 98.847656 48.617188 98.847656 48.996094 98.464844 48.996094 L 98.085938 48.902344 C 98.273438 48.808594 98.179688 48.234375 98.5625 48.332031 " fill-opacity="1" fill-rule="nonzero"/><path fill="#fcedd4" d="M 103.613281 113.140625 L 105.230469 112.1875 C 105.039062 112.851562 104.5625 113.710938 104.089844 114.476562 C 102.375 115.523438 100.941406 116.855469 99.609375 118.378906 C 99.324219 117.910156 99.324219 116.855469 99.511719 116.191406 C 100.464844 114.953125 102.089844 113.804688 103.613281 113.140625 " fill-opacity="1" fill-rule="nonzero"/><path fill="#fcedd4" d="M 99.894531 46.707031 L 100.179688 46.808594 C 100.085938 47.09375 99.800781 47.378906 99.609375 47.183594 C 99.703125 46.992188 99.703125 46.808594 99.894531 46.707031 " fill-opacity="1" fill-rule="nonzero"/><path fill="#fcedd4" d="M 103.039062 116.378906 C 103.515625 118.378906 101.417969 120.097656 99.988281 121.242188 C 99.511719 120.574219 99.988281 119.90625 100.273438 119.335938 C 101.132812 118.378906 101.988281 117.238281 103.039062 116.378906 " fill-opacity="1" fill-rule="nonzero"/><path fill="#fcedd4" d="M 102.375 120.667969 C 103.421875 122.003906 101.898438 123.246094 101.511719 124.386719 C 101.035156 124.101562 100.75 123.53125 100.464844 122.953125 C 100.5625 121.90625 101.796875 121.433594 102.375 120.667969 " fill-opacity="1" fill-rule="nonzero"/><path fill="#fcedd4" d="M 101.988281 44.996094 L 102.273438 45.089844 C 101.796875 45.375 101.328125 45.851562 100.65625 45.566406 C 100.5625 44.613281 101.511719 45.183594 101.988281 44.996094 " fill-opacity="1" fill-rule="nonzero"/><path fill="#fcedd4" d="M 104.183594 43.375 C 104.375 43.464844 104.375 43.660156 104.183594 43.757812 C 103.421875 44.136719 102.375 43.851562 101.613281 43.757812 L 101.703125 43.375 L 104.183594 43.375 " fill-opacity="1" fill-rule="nonzero"/><path fill="#fcedd4" d="M 101.898438 15.351562 C 102.660156 16.113281 104.753906 15.351562 104.46875 17.164062 L 104.277344 19.640625 L 103.421875 19.640625 C 102.851562 18.210938 102.375 16.785156 101.898438 15.351562 " fill-opacity="1" fill-rule="nonzero"/><path fill="#2f5982" d="M 104.851562 105.136719 C 107.613281 104.566406 109.710938 101.988281 111.136719 99.796875 C 110.953125 102.179688 108.757812 103.894531 107.042969 105.421875 C 105.707031 106.183594 103.707031 106.753906 102.183594 105.804688 C 102.089844 105.707031 101.898438 105.613281 101.988281 105.421875 L 104.851562 105.136719 " fill-opacity="1" fill-rule="nonzero"/><path fill="#fcedd4" d="M 103.039062 123.816406 C 103.707031 124.480469 102.945312 125.433594 102.851562 126.101562 C 101.988281 125.71875 102.183594 124.863281 102.558594 124.386719 C 102.660156 124.101562 102.945312 124.007812 103.039062 123.816406 " fill-opacity="1" fill-rule="nonzero"/><path fill="#fcedd4" d="M 103.800781 41.46875 C 104.183594 41.65625 104.375 41.65625 104.375 42.132812 C 103.800781 42.324219 102.851562 42.324219 102.273438 42.039062 C 102.273438 41.179688 103.324219 41.65625 103.800781 41.46875 " fill-opacity="1" fill-rule="nonzero"/><path fill="#fcedd4" d="M 103.898438 39.175781 C 104.089844 39.175781 104.375 39.277344 104.375 39.5625 L 104.277344 40.324219 C 103.800781 40.515625 103.421875 40.515625 102.945312 40.230469 C 103.039062 39.65625 103.136719 38.992188 103.898438 39.175781 " fill-opacity="1" fill-rule="nonzero"/><path fill="#fcedd4" d="M 103.992188 35.082031 C 105.324219 34.601562 106.847656 35.082031 108.1875 35.082031 C 112.476562 35.75 116.859375 38.230469 118.859375 42.324219 C 118.667969 42.519531 118.191406 42.132812 117.90625 42.324219 C 116.765625 42.324219 115.8125 42.996094 115.140625 44.042969 C 114.378906 44.996094 114.957031 46.328125 115.242188 47.378906 C 116.003906 48.996094 117.90625 48.902344 119.339844 48.902344 C 120.578125 48.332031 121.816406 47.285156 122.386719 45.945312 C 123.535156 41.847656 121.53125 38.035156 118.574219 35.367188 C 116.195312 33.65625 113.714844 32.03125 110.851562 31.554688 C 110.566406 30.699219 110.667969 29.460938 110.761719 28.503906 C 117.144531 28.027344 122.769531 33.078125 125.4375 38.515625 C 127.4375 42.996094 126.007812 48.425781 122.480469 51.667969 C 120.957031 53.097656 118.667969 53.476562 116.574219 53 C 114.480469 52.429688 112 51.28125 111.046875 48.996094 C 110.089844 47.285156 110.191406 44.613281 111.429688 43.089844 C 111.808594 42.324219 113.429688 42.519531 112.855469 41.371094 C 110.28125 38.890625 106.949219 37.945312 103.515625 37.945312 L 103.992188 35.082031 " fill-opacity="1" fill-rule="nonzero"/><path fill="#fcedd4" d="M 104.46875 116.855469 C 104.753906 118.855469 104.46875 121.050781 104.46875 123.246094 C 103.515625 121.335938 103.515625 118.671875 104.46875 116.855469 " fill-opacity="1" fill-rule="nonzero"/><path fill="#fcedd4" d="M 104.183594 125.625 C 104.46875 125.625 104.851562 126.101562 105.039062 126.386719 L 104.945312 127.628906 C 103.898438 127.628906 103.898438 126.386719 104.183594 125.625 " fill-opacity="1" fill-rule="nonzero"/><path fill="#fcedd4" d="M 103.992188 22.214844 C 107.328125 22.027344 110.667969 22.121094 114.09375 22.214844 C 114.09375 22.785156 114.855469 24.121094 113.714844 24.121094 L 104.46875 24.214844 C 104.183594 23.644531 104.183594 22.882812 103.992188 22.214844 " fill-opacity="1" fill-rule="nonzero"/><path fill="#fcedd4" d="M 105.421875 52.042969 C 105.707031 52.042969 105.800781 52.335938 105.800781 52.621094 C 105.617188 52.808594 105.324219 52.523438 105.324219 52.335938 C 105.324219 52.238281 105.230469 52.042969 105.421875 52.042969 " fill-opacity="1" fill-rule="nonzero"/><path fill="#fcedd4" d="M 105.800781 39.371094 C 106.664062 39.5625 107.902344 39.46875 108.378906 40.324219 C 108.378906 44.804688 107.425781 49.949219 111.429688 52.808594 C 113.046875 54.429688 115.050781 55.09375 117.242188 55.476562 L 117.242188 116.570312 L 108.089844 116.570312 L 107.804688 116.953125 L 107.710938 126.007812 C 107.042969 126.101562 106.378906 125.816406 105.902344 125.433594 C 105.707031 121.90625 105.902344 113.90625 105.707031 114.089844 C 105.800781 113.996094 114.765625 113.996094 114.570312 113.996094 C 114.570312 113.996094 114.570312 62.339844 114.480469 57.289062 C 112.378906 56.910156 110.476562 55.761719 108.851562 54.238281 C 106.949219 52.429688 105.902344 50.234375 105.617188 47.753906 C 105.515625 44.707031 105.515625 42.132812 105.800781 39.371094 " fill-opacity="1" fill-rule="nonzero"/><path fill="#fcedd4" d="M 105.800781 25.648438 C 106.757812 25.363281 107.425781 25.648438 108.472656 25.648438 C 108.664062 28.21875 108.472656 31.078125 108.378906 33.65625 C 107.613281 33.941406 106.757812 33.65625 105.902344 33.65625 C 105.617188 31.078125 105.707031 28.3125 105.800781 25.648438 " fill-opacity="1" fill-rule="nonzero"/><path fill="#fcedd4" d="M 107.140625 4.773438 C 107.996094 2.578125 110.375 1.816406 112.476562 1.722656 C 114.285156 1.914062 116.480469 2.769531 117.144531 4.773438 C 117.71875 6.296875 118.003906 8.207031 117.71875 9.921875 C 116.957031 10.300781 115.90625 10.109375 115.050781 10.109375 C 114.957031 8.777344 114.957031 7.152344 114.09375 6.011719 C 113.429688 5.15625 112.191406 4.871094 111.238281 5.15625 C 110.191406 5.34375 109.140625 6.398438 108.949219 7.445312 C 108.664062 11.347656 108.566406 15.445312 108.566406 19.449219 C 107.613281 19.832031 106.949219 19.640625 105.902344 19.640625 L 105.707031 19.449219 C 106.085938 14.398438 105.039062 9.0625 107.140625 4.773438 " fill-opacity="1" fill-rule="nonzero"/><path fill="#fcedd4" d="M 106.1875 53.859375 C 106.664062 53.574219 106.949219 54.144531 107.140625 54.335938 C 107.140625 54.523438 106.847656 54.523438 106.5625 54.523438 C 106.378906 54.335938 106.085938 54.238281 106.1875 53.859375 " fill-opacity="1" fill-rule="nonzero"/><path fill="#fcedd4" d="M 106.5625 127.148438 C 107.519531 126.957031 108.378906 127.433594 107.996094 128.484375 C 107.613281 128.960938 107.042969 128.390625 106.5625 128.390625 C 106.277344 128.011719 106.5625 127.535156 106.5625 127.148438 " fill-opacity="1" fill-rule="nonzero"/><path fill="#fcedd4" d="M 113.140625 99.796875 C 113.140625 103.988281 113.140625 112.757812 113.046875 112.664062 C 113.140625 112.566406 108.851562 112.949219 106.847656 112.664062 C 108.472656 109.902344 112.285156 102.941406 113.140625 99.796875 " fill-opacity="1" fill-rule="nonzero"/><path fill="#fcedd4" d="M 108.851562 55.953125 L 109.042969 56.046875 C 108.472656 56.148438 107.519531 56.523438 107.328125 55.761719 C 107.613281 55.667969 108.566406 55.382812 108.851562 55.953125 " fill-opacity="1" fill-rule="nonzero"/><path fill="#fcedd4" d="M 112.285156 57.957031 L 108.664062 57.957031 L 108.28125 57.386719 C 109.519531 57.289062 111.136719 57.003906 112.285156 57.957031 " fill-opacity="1" fill-rule="nonzero"/><path fill="#fcedd4" d="M 111.523438 127.148438 C 112.285156 126.292969 113.332031 125.433594 113.238281 124.195312 L 113.046875 122.769531 C 113.617188 122.953125 113.808594 123.625 113.902344 124.101562 C 114.09375 125.339844 113.808594 126.578125 112.855469 127.433594 C 111.808594 128.390625 110.566406 128.773438 109.234375 128.484375 C 108.949219 126.957031 110.851562 127.71875 111.523438 127.148438 " fill-opacity="1" fill-rule="nonzero"/><path fill="#fcedd4" d="M 113.332031 59.097656 C 113.523438 59.195312 113.332031 59.480469 113.429688 59.671875 C 112.378906 59.957031 110.953125 59.765625 109.710938 59.765625 L 109.328125 59.195312 L 109.613281 59.003906 L 113.332031 59.097656 " fill-opacity="1" fill-rule="nonzero"/><path fill="#fcedd4" d="M 110.28125 122.003906 C 111.136719 121.8125 111.714844 122.484375 112 123.246094 C 112.285156 123.816406 112 124.480469 111.90625 125.148438 C 111.429688 125.53125 110.953125 126.195312 110.28125 126.101562 C 109.996094 124.671875 110.28125 123.339844 110.28125 122.003906 " fill-opacity="1" fill-rule="nonzero"/><path fill="#fcedd4" d="M 110.191406 60.914062 C 111.136719 60.8125 112.570312 60.722656 113.429688 61.097656 L 113.332031 61.390625 C 112.378906 61.390625 111.332031 61.578125 110.28125 61.390625 C 110.191406 61.292969 110.089844 61.097656 110.191406 60.914062 " fill-opacity="1" fill-rule="nonzero"/><path fill="#fcedd4" d="M 113.332031 62.625 L 113.332031 63.101562 L 110.851562 63.199219 C 110.566406 63.101562 110.566406 62.722656 110.667969 62.53125 L 113.332031 62.625 " fill-opacity="1" fill-rule="nonzero"/><path fill="#fcedd4" d="M 110.953125 25.546875 L 114.195312 25.457031 C 114.664062 26.125 115.050781 27.074219 115.425781 27.933594 L 110.761719 27.265625 C 110.667969 26.789062 110.476562 25.839844 110.953125 25.546875 " fill-opacity="1" fill-rule="nonzero"/><path fill="#fcedd4" d="M 111.136719 65.964844 L 113.140625 66.058594 C 113.332031 66.152344 113.332031 66.535156 113.238281 66.628906 C 112.476562 66.726562 111.429688 66.820312 110.761719 66.628906 C 110.667969 66.25 110.851562 66.058594 111.136719 65.964844 " fill-opacity="1" fill-rule="nonzero"/><path fill="#fcedd4" d="M 110.851562 64.339844 C 111.523438 64.246094 112.378906 64.246094 113.140625 64.246094 C 113.429688 64.441406 113.238281 64.726562 113.332031 64.910156 C 112.378906 65.011719 111.808594 65.011719 110.851562 64.816406 L 110.851562 64.339844 " fill-opacity="1" fill-rule="nonzero"/><path fill="#fcedd4" d="M 111.714844 12.589844 L 123.433594 12.6875 C 125.246094 12.972656 126.769531 14.683594 127.4375 16.308594 C 128.199219 18.210938 127.628906 20.402344 126.484375 21.929688 C 124.773438 23.644531 122.101562 23.738281 119.910156 23.929688 L 119.816406 22.027344 C 121.246094 21.738281 123.148438 22.027344 124.195312 20.597656 C 125.152344 19.546875 125.152344 17.832031 124.582031 16.59375 C 123.820312 15.445312 122.578125 14.875 121.246094 14.875 L 111.046875 14.78125 C 110.953125 14.019531 110.375 12.304688 111.714844 12.589844 " fill-opacity="1" fill-rule="nonzero"/><path fill="#fcedd4" d="M 113.046875 78.925781 C 113.140625 79.210938 113.238281 79.402344 113.046875 79.59375 L 111.136719 79.496094 C 111.617188 78.925781 112.378906 78.832031 113.046875 78.925781 " fill-opacity="1" fill-rule="nonzero"/><path fill="#fcedd4" d="M 113.046875 80.734375 C 113.140625 80.925781 113.238281 81.402344 112.953125 81.402344 C 112.378906 81.402344 111.523438 81.59375 111.332031 80.828125 C 112 80.449219 112.378906 80.734375 113.046875 80.734375 " fill-opacity="1" fill-rule="nonzero"/><path fill="#fcedd4" d="M 113.238281 67.867188 C 113.429688 68.152344 113.238281 68.34375 113.238281 68.628906 L 112.191406 67.867188 C 112.476562 67.675781 112.953125 67.675781 113.238281 67.867188 " fill-opacity="1" fill-rule="nonzero"/><path fill="#fcedd4" d="M 112.761719 82.449219 C 112.953125 82.542969 113.140625 82.542969 113.140625 82.734375 C 113.238281 83.019531 112.761719 83.019531 112.667969 83.019531 C 112.285156 82.929688 112.191406 82.257812 112.761719 82.449219 " fill-opacity="1" fill-rule="nonzero"/><path fill="#fcedd4" d="M 115.140625 16.785156 C 115.90625 16.5 116.859375 16.398438 117.71875 16.59375 C 118.003906 21.167969 116.765625 26.886719 121.625 29.074219 C 122.292969 29.265625 123.148438 29.074219 123.71875 28.789062 C 124.480469 28.125 124.867188 27.171875 124.582031 26.316406 C 124.296875 25.839844 124.195312 25.171875 123.625 25.078125 C 123.339844 24.886719 123.148438 25.363281 123.148438 25.546875 C 123.433594 26.21875 123.910156 26.886719 123.433594 27.550781 C 123.054688 28.027344 122.386719 28.125 121.816406 27.933594 C 121.339844 27.648438 121.054688 27.265625 120.863281 26.789062 C 120.769531 26.027344 121.246094 25.363281 121.910156 25.078125 C 122.671875 24.601562 123.910156 24.40625 124.773438 24.886719 C 125.628906 25.457031 126.582031 26.316406 126.390625 27.550781 C 126.292969 28.789062 125.4375 29.746094 124.296875 30.128906 C 123.339844 30.414062 122.480469 30.414062 121.53125 30.03125 C 121.246094 30.128906 121.246094 30.507812 121.339844 30.605469 C 125.820312 33.363281 128.871094 38.035156 128.484375 43.375 C 128.394531 46.328125 127.824219 49.09375 126.007812 51.28125 C 126.007812 51.472656 126.007812 51.757812 126.199219 51.757812 C 126.960938 51.574219 127.824219 50.519531 128.769531 51.1875 C 129.347656 51.574219 129.15625 52.335938 129.0625 52.90625 C 126.582031 55.863281 122.671875 57.574219 120.957031 61.097656 C 119.625 63.101562 119.910156 66.25 121.148438 68.152344 C 121.816406 69.015625 122.863281 69.585938 123.910156 69.207031 C 124.296875 69.207031 124.582031 68.730469 124.582031 68.34375 C 124.582031 68.058594 124.675781 67.675781 124.390625 67.488281 C 123.910156 67.675781 123.625 68.820312 122.957031 68.25 C 122.769531 67.867188 122.578125 67.390625 122.863281 67.105469 C 123.242188 66.441406 124.105469 66.535156 124.582031 66.820312 C 125.152344 67.105469 125.628906 67.773438 125.4375 68.628906 C 125.246094 69.300781 124.675781 69.871094 124.003906 70.253906 C 122.671875 70.632812 121.53125 69.96875 120.578125 69.207031 L 119.625 67.675781 L 119.714844 60.914062 C 121.054688 54.523438 127.4375 50.332031 127.4375 43.375 C 128.007812 36.703125 122.386719 32.03125 117.527344 28.597656 C 115.335938 26.980469 115.140625 24.40625 115.050781 21.738281 L 115.140625 16.785156 " fill-opacity="1" fill-rule="nonzero"/><path fill="#fcedd4" d="M 121.816406 53.667969 C 121.339844 55 120.578125 56.433594 119.816406 57.671875 C 119.714844 56.910156 119.625 55.570312 119.714844 54.523438 L 121.816406 53.667969 " fill-opacity="1" fill-rule="nonzero"/><path fill="#fcedd4" d="M 119.910156 25.457031 L 120.007812 25.457031 C 120.101562 25.648438 120.007812 25.839844 119.910156 25.933594 C 119.910156 25.742188 119.625 25.546875 119.910156 25.457031 " fill-opacity="1" fill-rule="nonzero"/></svg>