<svg xmlns="http://www.w3.org/2000/svg" xmlns:xlink="http://www.w3.org/1999/xlink" width="175" zoomAndPan="magnify" viewBox="0 0 131.25 131.249998" height="175" preserveAspectRatio="xMidYMid meet" version="1.0"><defs><clipPath id="44a9f596f4"><path d="M 0 0 L 130.503906 0 L 130.503906 130.503906 L 0 130.503906 Z M 0 0 " clip-rule="nonzero"/></clipPath></defs><g clip-path="url(#44a9f596f4)"><path fill="#2f5982" d="M 126.582031 115.152344 C 125.347656 115.722656 123.726562 115.4375 122.585938 115.058594 C 121.4375 114.296875 120.773438 113.054688 120.582031 111.816406 C 120.105469 111.433594 119.34375 111.625 118.675781 111.625 L 118.390625 111.816406 L 118.390625 120.488281 C 118.390625 120.488281 72.164062 120.488281 72.257812 120.488281 C 73.5 121.820312 74.355469 123.730469 73.5 125.445312 C 73.214844 126.207031 72.449219 126.871094 71.6875 127.164062 C 70.640625 127.640625 69.6875 127.0625 68.925781 126.492188 C 68.070312 125.824219 68.070312 124.683594 68.445312 123.730469 L 69.496094 122.773438 C 66.539062 120.964844 63.011719 122.875 60.441406 124.492188 C 57.582031 126.300781 55.386719 129.828125 51.960938 130.398438 C 50.914062 130.496094 50.242188 129.542969 50.050781 128.6875 C 43.382812 130.210938 36.992188 127.734375 32.132812 123.351562 C 31.277344 125.0625 29.5625 126.109375 27.652344 126.015625 C 26.703125 125.921875 25.941406 125.347656 25.082031 124.777344 C 24.417969 125.347656 24.125 126.492188 23.460938 127.253906 C 21.460938 129.921875 17.933594 130.398438 14.976562 129.449219 C 12.882812 128.6875 11.167969 126.585938 10.6875 124.398438 C 10.496094 123.058594 10.496094 121.726562 10.496094 120.488281 C 9.449219 120.109375 8.402344 120.488281 7.355469 120.109375 C 5.066406 119.441406 2.394531 117.53125 1.734375 115.058594 C 0.871094 112.480469 1.253906 109.335938 3.449219 107.527344 C 3.828125 107.242188 4.304688 106.957031 4.78125 106.574219 C 3.636719 105.425781 3.066406 104 3.351562 102.378906 C 3.449219 100.667969 5.160156 99.804688 6.398438 99.042969 C 1.15625 94.5625 0.015625 87.039062 2.109375 80.746094 C 1.253906 80.363281 0.679688 79.601562 0.492188 78.746094 C 0.300781 77.789062 0.777344 77.027344 1.253906 76.265625 C 4.683594 72.832031 11.074219 69.882812 9.164062 64.0625 C 9.164062 63.875 8.878906 63.683594 8.785156 63.492188 C 8.402344 64.253906 7.546875 65.015625 6.59375 65.015625 C 5.542969 65.015625 4.78125 63.96875 4.398438 63.113281 C 4.210938 61.96875 4.398438 60.921875 4.96875 59.964844 C 5.636719 59.109375 6.785156 58.824219 7.925781 59.015625 C 9.070312 59.015625 9.925781 59.964844 10.6875 60.726562 L 10.882812 60.636719 L 11.167969 56.722656 L 11.167969 11.546875 L 20.222656 11.546875 C 20.414062 11.070312 20.414062 10.5 20.222656 9.929688 C 19.652344 9.546875 18.789062 9.835938 18.21875 9.453125 C 17.171875 9.070312 16.21875 8.023438 15.839844 6.972656 C 15.261719 5.070312 15.839844 3.164062 17.363281 2.023438 C 19.9375 0.113281 23.65625 0.683594 26.226562 2.023438 C 31.5625 4.972656 32.519531 11.167969 31.753906 16.597656 C 31.46875 18.601562 30.417969 20.316406 29.941406 22.226562 C 30.894531 22.890625 31.46875 24.035156 31.5625 25.175781 C 32.132812 28.226562 28.414062 26.609375 27.082031 27.5625 C 25.941406 27.753906 24.988281 28.515625 24.03125 29.28125 C 23.078125 31.753906 24.125 34.515625 25.082031 36.710938 C 26.703125 40.046875 28.890625 43.09375 30.894531 46.242188 C 31.941406 45.195312 33.28125 43.957031 34.707031 43.574219 C 36.898438 43.003906 38.902344 44.148438 40.332031 45.671875 L 41.566406 47.578125 C 45.476562 45.765625 50.242188 46.527344 53.484375 49.386719 C 56.058594 52.058594 57.105469 56.347656 55.679688 59.871094 C 54.816406 61.777344 53.386719 63.875 51.199219 64.445312 C 49.289062 64.730469 47.195312 64.355469 45.667969 63.304688 C 45.570312 64.539062 46.238281 65.78125 46.523438 66.925781 C 47.289062 70.167969 47.765625 73.308594 47.671875 76.742188 L 50.8125 78.359375 C 51.390625 77.984375 51.199219 77.027344 51.769531 76.457031 C 52.53125 75.789062 51.199219 75.121094 51.199219 74.265625 C 51.097656 73.695312 50.722656 73.117188 50.242188 72.738281 C 49.765625 72.738281 49.480469 73.59375 48.910156 73.117188 C 48.433594 72.261719 48.050781 71.214844 48.527344 70.261719 C 49.003906 68.828125 50.527344 67.972656 52.054688 67.972656 C 53.769531 67.972656 55.011719 69.210938 55.964844 70.546875 L 62.726562 69.40625 C 63.011719 71.59375 62.726562 73.980469 62.539062 76.167969 C 63.488281 76.835938 64.542969 77.882812 64.726562 79.03125 C 64.921875 80.554688 64.636719 82.078125 63.394531 83.035156 C 62.539062 83.511719 61.203125 83.984375 60.347656 83.320312 C 60.539062 82.84375 61.203125 82.078125 60.253906 81.886719 C 58.914062 81.316406 57.296875 81.316406 56.25 79.984375 C 55.679688 80.648438 54.816406 81.03125 54.054688 81.410156 C 54.625 82.273438 54.816406 84.175781 56.535156 83.605469 C 60.0625 84.082031 63.585938 84.652344 66.921875 85.605469 C 66.636719 83.511719 67.015625 81.316406 68.253906 79.695312 C 70.355469 77.21875 73.785156 76.550781 76.933594 77.40625 C 80.550781 78.074219 84.269531 81.316406 84.933594 84.9375 C 85.601562 86.9375 85.410156 89.226562 84.933594 91.132812 C 86.75 92.273438 88.558594 93.898438 88.367188 96.1875 C 88.652344 98.566406 87.035156 100.28125 85.410156 101.808594 C 86.558594 103.617188 88.652344 104.855469 90.367188 106.003906 C 93.796875 107.90625 97.707031 109.429688 101.710938 109.53125 C 102.851562 108.953125 103.90625 107.71875 104.667969 106.574219 C 105.714844 104.664062 105.046875 102.191406 105.238281 100.089844 C 106.476562 99.328125 108.285156 99.613281 109.527344 100.566406 L 110.480469 101.523438 C 115.910156 99.613281 123.054688 99.140625 127.539062 103.332031 C 129.824219 105.242188 130.492188 108.191406 130.015625 111.054688 C 129.445312 112.863281 128.300781 114.296875 126.582031 115.152344 " fill-opacity="1" fill-rule="nonzero"/></g><path fill="#fcedd4" d="M 128.683594 108.859375 C 128.300781 108.765625 127.921875 108.574219 127.921875 108.191406 C 127.921875 107.71875 128.492188 107.71875 128.777344 107.621094 C 129.160156 107.527344 129.160156 108.003906 129.253906 108.191406 C 129.347656 108.574219 128.96875 108.765625 128.683594 108.859375 " fill-opacity="1" fill-rule="nonzero"/><path fill="#fcedd4" d="M 126.113281 114.195312 C 125.25 114.390625 124.296875 114.582031 123.535156 114.105469 C 123.25 113.910156 122.871094 113.625 122.585938 113.339844 C 123.820312 113.820312 125.441406 114.003906 126.683594 113.148438 C 127.730469 112.386719 127.824219 111.054688 128.398438 110.101562 L 129.160156 110.292969 C 128.777344 111.910156 127.824219 113.625 126.113281 114.195312 " fill-opacity="1" fill-rule="nonzero"/><path fill="#fcedd4" d="M 127.539062 106.574219 C 127.34375 106.574219 127.160156 106.289062 126.96875 106.195312 C 127.253906 105.71875 127.921875 105.90625 128.398438 106.003906 C 128.585938 106.667969 127.824219 106.480469 127.539062 106.574219 " fill-opacity="1" fill-rule="nonzero"/><path fill="#fcedd4" d="M 126.398438 105.140625 C 125.820312 105.050781 125.347656 104.480469 125.058594 104 C 125.15625 103.617188 125.820312 103.523438 126.113281 103.523438 C 126.582031 103.902344 127.824219 104.957031 126.398438 105.140625 " fill-opacity="1" fill-rule="nonzero"/><path fill="#fcedd4" d="M 127.058594 109.144531 L 116.007812 109.050781 L 116.007812 118.109375 C 116.007812 118.109375 64.15625 118.109375 56.34375 118.007812 C 55.773438 114.296875 53.578125 110.671875 49.957031 109.144531 L 47.386719 108.574219 L 32.324219 108.382812 C 32.039062 107.71875 32.039062 106.957031 32.132812 106.289062 L 48.433594 106.480469 C 52.339844 106.574219 56.058594 109.238281 57.675781 112.765625 C 58.152344 113.71875 58.25 114.867188 58.914062 115.722656 C 58.914062 115.722656 113.816406 115.722656 113.910156 115.722656 L 113.910156 107.050781 C 113.910156 107.050781 126.296875 107.050781 126.203125 107.050781 C 126.96875 107.335938 127.058594 109.144531 127.058594 109.144531 " fill-opacity="1" fill-rule="nonzero"/><path fill="#fcedd4" d="M 125.15625 112.578125 C 124.109375 112.765625 123.15625 112.386719 122.585938 111.816406 C 123.535156 111.433594 124.871094 111.625 126.296875 111.71875 C 126.113281 112.195312 125.632812 112.671875 125.15625 112.578125 " fill-opacity="1" fill-rule="nonzero"/><path fill="#fcedd4" d="M 124.296875 105.71875 C 121.824219 105.527344 118.675781 106.003906 116.101562 105.425781 C 118.675781 103.714844 122.394531 103.808594 124.964844 105.527344 L 124.296875 105.71875 " fill-opacity="1" fill-rule="nonzero"/><path fill="#fcedd4" d="M 122.394531 103.238281 C 122.394531 102.667969 123.15625 102.285156 123.632812 102.09375 C 124.011719 102.191406 124.488281 102.191406 124.585938 102.570312 L 123.820312 103.523438 L 122.394531 103.238281 " fill-opacity="1" fill-rule="nonzero"/><path fill="#fcedd4" d="M 119.4375 103.046875 C 119.535156 102.476562 120.199219 101.808594 120.675781 101.429688 C 121.152344 101.238281 121.722656 101.429688 122.199219 101.617188 C 121.539062 102.476562 120.773438 103.617188 119.4375 103.046875 " fill-opacity="1" fill-rule="nonzero"/><path fill="#fcedd4" d="M 115.433594 104.1875 C 115.816406 102.953125 117.25 102.09375 118.105469 101.136719 L 119.4375 101.136719 C 118.390625 102.476562 117.34375 104.1875 115.433594 104.1875 " fill-opacity="1" fill-rule="nonzero"/><path fill="#fcedd4" d="M 113.246094 105.8125 L 110.289062 108.191406 L 110.289062 108.003906 C 111.429688 105.8125 112.199219 103.429688 114.292969 101.617188 C 114.863281 101.523438 115.433594 101.332031 116.007812 101.429688 C 114.863281 102.667969 113.910156 104.285156 113.246094 105.8125 " fill-opacity="1" fill-rule="nonzero"/><path fill="#fcedd4" d="M 112.574219 114.296875 C 112.574219 114.296875 102.664062 114.296875 102.851562 114.296875 C 107.617188 112.195312 110.667969 109.816406 112.667969 107.90625 C 112.574219 107.8125 112.574219 114.296875 112.574219 114.296875 " fill-opacity="1" fill-rule="nonzero"/><path fill="#fcedd4" d="M 108.957031 108.382812 C 109.050781 108.574219 109.140625 108.667969 109.335938 108.765625 L 109.527344 108.765625 C 106.570312 110.863281 103.425781 112.957031 99.902344 114.003906 C 93.609375 114.582031 86.933594 113.71875 81.40625 111.054688 C 80.835938 110.769531 80.550781 109.90625 79.789062 110.191406 C 79.3125 112.003906 77.695312 113.71875 75.785156 114.003906 C 73.40625 114.582031 71.59375 113.054688 70.257812 111.339844 C 70.164062 110.957031 69.972656 110.484375 69.496094 110.292969 C 65.777344 112.292969 61.585938 110.578125 58.628906 108.097656 C 55.386719 105.425781 51.199219 103.714844 46.71875 104.1875 C 46.808594 103.808594 46.910156 103.429688 47.101562 103.140625 C 47.289062 103.332031 47.480469 103.902344 47.957031 103.714844 C 48.335938 102.953125 48.335938 101.90625 49.097656 101.332031 C 49.097656 101.90625 48.8125 103.140625 49.480469 103.714844 L 49.859375 103.523438 C 50.050781 102.09375 50.050781 100.375 51.484375 99.710938 C 51.097656 100.953125 50.722656 103.046875 51.578125 104.1875 C 51.960938 104.285156 52.054688 103.808594 51.960938 103.523438 C 51.675781 101.523438 52.722656 99.710938 54.148438 98.566406 C 53.484375 100.089844 52.625 102.09375 53.292969 103.714844 L 53.671875 103.617188 C 54.054688 101.617188 54.53125 99.234375 56.628906 98.1875 C 55.867188 100.191406 54.726562 102.285156 55.386719 104.570312 C 55.582031 104.855469 55.964844 104.957031 56.058594 104.570312 C 55.964844 102 56.535156 99.804688 58.25 97.996094 L 59.300781 97.328125 C 57.867188 99.234375 56.726562 101.808594 57.390625 104.480469 C 57.675781 105.527344 57.773438 106.667969 58.914062 107.335938 C 59.390625 107.242188 59.199219 106.667969 59.105469 106.382812 C 58.25 104.957031 58.058594 103.140625 58.34375 101.429688 C 58.722656 99.519531 60.441406 97.710938 62.347656 97.328125 C 63.78125 96.949219 64.921875 97.425781 66.066406 97.996094 C 67.777344 99.140625 68.160156 101.238281 67.777344 103.046875 C 67.398438 104.285156 66.539062 105.527344 65.304688 106.097656 C 64.542969 106.574219 63.300781 106.574219 62.539062 106.097656 C 61.394531 105.335938 60.917969 104.1875 60.917969 102.855469 C 61.109375 101.90625 61.679688 101.136719 62.539062 100.761719 C 63.300781 100.667969 63.871094 101.136719 64.257812 101.808594 C 64.636719 102.855469 63.964844 103.808594 63.679688 104.765625 C 63.871094 105.050781 64.257812 104.765625 64.441406 104.664062 C 65.304688 103.808594 65.683594 102.761719 65.398438 101.523438 C 65.113281 100.667969 64.542969 99.613281 63.488281 99.425781 C 62.441406 99.425781 61.488281 99.613281 60.824219 100.476562 C 59.585938 102 59.675781 104.480469 60.539062 106.097656 C 62.15625 108.191406 64.542969 109.714844 67.304688 109.429688 C 67.589844 109.238281 67.589844 108.953125 67.304688 108.859375 C 66.160156 108.667969 65.207031 108.289062 64.257812 107.621094 C 65.683594 107.335938 67.207031 106.574219 67.96875 105.242188 C 70.164062 102.953125 70.925781 99.996094 71.210938 96.847656 C 71.496094 96.847656 71.878906 96.5625 72.164062 96.847656 C 73.5 99.710938 73.976562 103.046875 74.261719 106.289062 C 73.5 106.765625 72.734375 107.242188 72.734375 108.191406 C 72.734375 108.953125 73.304688 109.816406 74.070312 110.101562 C 74.738281 110.191406 75.117188 110.101562 75.59375 109.714844 C 75.976562 109.238281 76.738281 108.765625 76.546875 108.003906 C 76.453125 107.242188 75.691406 106.667969 75.308594 106.003906 C 75.023438 102.761719 74.070312 99.710938 73.121094 96.757812 L 73.214844 96.5625 C 76.261719 100.476562 79.882812 104.1875 83.984375 106.957031 C 84.363281 107.8125 84.171875 109.238281 85.507812 109.429688 C 86.273438 109.53125 87.414062 109.429688 87.605469 108.476562 C 87.699219 107.71875 87.605469 106.859375 86.933594 106.289062 C 86.171875 105.8125 85.410156 106.097656 84.554688 106.097656 C 80.742188 103.808594 77.21875 99.996094 74.355469 96.5625 C 74.453125 96.085938 74.644531 95.515625 74.929688 95.230469 C 76.933594 95.617188 78.742188 96.277344 80.835938 96.472656 C 81.027344 97.328125 81.789062 98.378906 82.839844 98.1875 C 83.507812 98.28125 84.078125 97.710938 84.363281 97.140625 C 84.554688 96.5625 84.554688 95.617188 84.078125 95.136719 C 83.601562 94.753906 83.125 94.46875 82.554688 94.5625 C 81.984375 94.5625 81.503906 94.945312 81.121094 95.421875 C 78.835938 95.324219 76.738281 94.660156 74.738281 93.992188 C 73.882812 93.613281 73.976562 92.660156 73.691406 91.898438 C 76.261719 90.941406 78.550781 89.703125 80.074219 87.324219 C 79.980469 85.984375 81.121094 85.128906 80.933594 83.890625 C 81.789062 84.175781 81.984375 85.320312 82.644531 85.890625 C 83.125 85.222656 82.554688 84.460938 82.269531 83.796875 C 80.742188 81.21875 78.171875 79.984375 75.40625 79.886719 C 73.785156 80.078125 72.066406 80.554688 71.210938 82.078125 C 70.640625 82.648438 70.828125 83.796875 71.019531 84.558594 C 71.304688 85.507812 72.257812 86.175781 73.121094 86.460938 C 74.644531 86.5625 76.453125 86.277344 77.410156 84.9375 C 77.503906 84.746094 77.59375 84.273438 77.308594 84.175781 C 76.453125 83.890625 76.070312 85.035156 75.308594 85.128906 C 74.355469 85.414062 73.304688 85.507812 72.542969 84.84375 C 71.972656 84.175781 71.972656 83.21875 72.359375 82.558594 C 73.121094 81.410156 74.355469 81.125 75.691406 81.125 C 77.117188 81.125 78.265625 81.601562 79.21875 82.648438 C 79.789062 83.511719 79.980469 84.9375 79.410156 85.796875 C 77.789062 88.464844 74.832031 88.371094 71.972656 87.984375 C 70.542969 87.507812 69.117188 86.847656 68.355469 85.320312 C 67.589844 83.511719 68.253906 81.410156 69.496094 79.984375 C 71.6875 77.3125 75.117188 77.789062 77.980469 78.554688 C 81.40625 79.886719 84.363281 83.035156 84.363281 87.039062 C 84.460938 88.5625 84.171875 90.085938 83.699219 91.417969 C 84.648438 92.375 86.273438 92.753906 87.21875 93.898438 C 86.933594 94.5625 87.699219 94.945312 87.511719 95.617188 C 87.988281 97.804688 86.363281 99.710938 84.648438 100.851562 C 84.269531 101.136719 83.792969 101.136719 83.507812 101.523438 L 83.601562 101.90625 C 88.175781 106.574219 93.796875 109.144531 99.710938 110.671875 C 95.136719 112.863281 89.128906 112.578125 84.554688 110.671875 C 84.269531 110.671875 83.984375 110.578125 83.984375 110.863281 L 83.984375 111.148438 C 89.511719 113.910156 97.039062 113.625 102.375 110.484375 C 104.476562 108.667969 106.476562 106.574219 106.570312 103.902344 L 106.285156 100.761719 C 107.140625 100.191406 107.910156 100.851562 108.671875 101.238281 C 109.527344 101.714844 109.527344 102.667969 110.289062 103.140625 L 111.90625 102.476562 C 111.050781 104.378906 110.003906 106.382812 108.957031 108.382812 " fill-opacity="1" fill-rule="nonzero"/><path fill="#fcedd4" d="M 110.097656 108.289062 L 109.90625 108.574219 L 109.8125 108.476562 L 110.097656 108.289062 " fill-opacity="1" fill-rule="nonzero"/><path fill="#2f5982" d="M 101.234375 113.148438 C 101.042969 113.148438 100.757812 113.242188 100.855469 112.957031 C 101.328125 112.195312 102.472656 111.910156 103.140625 111.246094 C 106 108.667969 108.378906 105.140625 107.140625 101.429688 C 107.238281 101.136719 107.523438 101.238281 107.714844 101.332031 C 108.765625 103.714844 108.480469 106.667969 106.855469 108.765625 C 105.332031 110.578125 103.425781 112.292969 101.234375 113.148438 " fill-opacity="1" fill-rule="nonzero"/><path fill="#fcedd4" d="M 84.933594 114.296875 C 84.746094 114.195312 84.839844 114.003906 84.839844 113.910156 C 85.03125 113.625 85.316406 113.820312 85.410156 114.003906 C 85.507812 114.390625 85.222656 114.105469 84.933594 114.296875 " fill-opacity="1" fill-rule="nonzero"/><path fill="#fcedd4" d="M 83.03125 114.195312 L 83.03125 113.148438 C 83.316406 113.054688 83.601562 113.148438 83.792969 113.339844 L 83.699219 114.195312 L 83.03125 114.195312 " fill-opacity="1" fill-rule="nonzero"/><path fill="#fcedd4" d="M 81.984375 114.296875 C 81.789062 114.390625 81.597656 114.296875 81.40625 114.296875 C 81.3125 113.71875 81.21875 112.957031 81.503906 112.386719 C 82.460938 112.480469 81.882812 113.71875 81.984375 114.296875 " fill-opacity="1" fill-rule="nonzero"/><path fill="#fcedd4" d="M 79.789062 114.296875 L 79.695312 114.296875 C 79.597656 113.71875 79.695312 113.054688 80.171875 112.578125 C 80.359375 113.054688 80.265625 113.71875 80.265625 114.296875 L 79.789062 114.296875 " fill-opacity="1" fill-rule="nonzero"/><path fill="#fcedd4" d="M 71.402344 90.847656 C 66.445312 91.132812 63.109375 86.652344 58.25 87.039062 C 58.058594 87.128906 58.152344 87.507812 58.34375 87.507812 C 62.539062 88.65625 67.398438 90.371094 69.300781 94.851562 C 69.78125 96.472656 70.355469 98.472656 69.496094 99.996094 C 69.59375 100.375 69.496094 100.667969 69.300781 100.953125 L 69.117188 100.953125 C 68.925781 96.847656 66.636719 93.136719 63.011719 91.035156 C 60.824219 89.894531 58.535156 88.847656 55.964844 88.65625 C 55.679688 87.507812 55.488281 86.082031 55.386719 84.84375 C 59.199219 84.460938 62.726562 85.984375 66.253906 86.847656 C 69.59375 88.269531 73.304688 90.085938 77.117188 89.035156 C 75.59375 90.464844 73.40625 90.5625 71.402344 90.847656 " fill-opacity="1" fill-rule="nonzero"/><path fill="#fcedd4" d="M 71.210938 95.421875 L 70.828125 95.421875 L 69.6875 92.183594 C 70.449219 92.375 72.734375 91.226562 72.835938 93.039062 C 73.019531 93.707031 73.5 94.277344 73.40625 95.039062 L 71.210938 95.421875 " fill-opacity="1" fill-rule="nonzero"/><path fill="#fcedd4" d="M 71.972656 125.730469 C 71.496094 126.300781 70.640625 126.492188 69.972656 126.207031 C 69.496094 125.921875 68.832031 125.445312 69.117188 124.683594 C 69.117188 124.207031 69.496094 123.824219 69.972656 123.636719 C 70.449219 123.636719 70.925781 124.015625 71.117188 124.492188 C 71.019531 124.777344 71.019531 125.253906 71.304688 125.445312 C 71.78125 125.445312 71.972656 124.777344 71.878906 124.398438 C 71.878906 123.445312 71.304688 122.683594 70.542969 122.011719 C 68.730469 120.488281 66.066406 120.871094 63.871094 121.535156 C 59.390625 123.058594 56.441406 127.824219 51.960938 129.449219 C 51.675781 129.449219 51.292969 129.160156 51.199219 128.875 C 50.914062 127.640625 53.007812 127.449219 52.246094 126.300781 C 47.386719 129.066406 40.519531 128.210938 35.945312 125.347656 C 34.421875 124.207031 32.894531 123.160156 31.753906 121.632812 C 30.992188 122.011719 31.46875 123.253906 30.800781 123.921875 C 30.039062 124.871094 28.890625 125.160156 27.945312 124.871094 C 26.890625 124.585938 25.941406 123.539062 25.652344 122.488281 C 25.652344 121.34375 26.128906 120.296875 27.179688 119.726562 C 27.75 119.441406 28.320312 119.824219 28.800781 119.917969 C 29.46875 120.394531 29.753906 121.25 29.65625 122.011719 C 29.5625 123.058594 28.320312 123.058594 27.652344 123.636719 C 27.652344 124.109375 28.230469 124.109375 28.515625 124.109375 C 29.371094 124.015625 30.132812 123.253906 30.324219 122.488281 C 30.609375 121.726562 30.609375 120.582031 30.132812 119.917969 C 29.371094 118.585938 27.945312 117.914062 26.320312 118.007812 C 25.652344 117.628906 26.226562 116.582031 26.035156 115.820312 C 27.179688 115.535156 28.230469 116.390625 29.175781 116.867188 C 31.5625 119.15625 33.179688 122.203125 36.230469 123.730469 C 39.285156 126.207031 43.476562 127.734375 47.386719 126.777344 C 53.007812 125.445312 57.390625 120.964844 63.300781 120.203125 C 66.636719 120.394531 71.496094 119.0625 72.644531 123.058594 C 72.929688 124.109375 72.644531 124.96875 71.972656 125.730469 " fill-opacity="1" fill-rule="nonzero"/><path fill="#fcedd4" d="M 69.972656 114.390625 C 69.402344 114.390625 69.59375 113.625 69.59375 113.339844 L 69.6875 113.054688 C 70.164062 113.242188 70.355469 114.003906 69.972656 114.390625 " fill-opacity="1" fill-rule="nonzero"/><path fill="#fcedd4" d="M 68.070312 114.296875 C 67.398438 114.003906 68.070312 113.148438 67.777344 112.578125 C 67.875 112.386719 68.070312 112.101562 68.355469 112.195312 C 68.730469 112.578125 68.445312 113.527344 68.546875 114.195312 L 68.070312 114.296875 " fill-opacity="1" fill-rule="nonzero"/><path fill="#fcedd4" d="M 66.921875 97.140625 C 66.636719 97.328125 66.351562 97.042969 66.253906 96.757812 C 66.253906 96.472656 66.160156 95.992188 66.351562 95.707031 C 66.636719 96.085938 67.113281 96.5625 66.921875 97.140625 " fill-opacity="1" fill-rule="nonzero"/><path fill="#fcedd4" d="M 66.066406 114.296875 C 65.96875 113.71875 65.875 112.863281 66.160156 112.386719 C 66.445312 112.386719 66.730469 112.386719 66.828125 112.578125 L 66.636719 114.296875 L 66.066406 114.296875 " fill-opacity="1" fill-rule="nonzero"/><path fill="#fcedd4" d="M 65.207031 96.1875 C 64.351562 96.472656 64.542969 95.421875 64.542969 94.851562 L 64.636719 93.613281 C 65.589844 93.992188 65.207031 95.324219 65.207031 96.1875 " fill-opacity="1" fill-rule="nonzero"/><path fill="#fcedd4" d="M 64.257812 114.296875 C 64.636719 113.625 63.679688 112.195312 64.828125 112.292969 C 65.019531 112.863281 64.921875 113.71875 64.921875 114.296875 L 64.257812 114.296875 " fill-opacity="1" fill-rule="nonzero"/><path fill="#fcedd4" d="M 63.203125 81.988281 C 62.917969 82.273438 62.632812 82.363281 62.25 82.363281 C 62.726562 81.410156 62.917969 80.078125 62.441406 79.03125 C 61.871094 77.882812 60.632812 77.503906 59.492188 77.40625 C 58.722656 77.3125 57.960938 77.789062 57.296875 77.121094 C 57.105469 76.929688 57.011719 76.550781 57.199219 76.265625 C 58.058594 75.21875 59.390625 75.410156 60.347656 74.835938 C 60.539062 73.878906 60.824219 72.546875 60.347656 71.691406 C 59.492188 71.878906 58.152344 71.691406 57.773438 72.738281 C 57.675781 73.695312 57.390625 74.550781 56.820312 75.21875 C 56.34375 75.503906 55.867188 75.3125 55.386719 75.121094 C 54.625 73.980469 55.488281 72.070312 54.246094 71.023438 C 53.386719 70.261719 52.152344 69.976562 51.097656 70.351562 C 50.4375 70.546875 49.957031 71.40625 49.382812 71.785156 C 49.003906 71.308594 49.382812 70.644531 49.480469 70.167969 C 50.144531 69.113281 51.292969 69.113281 52.339844 68.925781 C 53.863281 69.113281 55.011719 70.644531 55.679688 71.878906 C 56.25 72.738281 55.582031 73.980469 56.25 74.835938 C 57.675781 74.171875 55.867188 71.878906 57.582031 71.308594 C 59.105469 71.121094 60.253906 70.644531 61.777344 70.738281 C 61.964844 72.070312 61.871094 73.695312 61.679688 75.121094 C 61.109375 76.167969 59.585938 75.789062 58.628906 76.167969 C 58.34375 76.359375 58.25 76.644531 58.34375 76.835938 L 58.628906 77.121094 C 59.871094 77.21875 61.585938 76.550781 62.726562 77.699219 C 64.066406 78.746094 64.066406 80.746094 63.203125 81.988281 " fill-opacity="1" fill-rule="nonzero"/><path fill="#fcedd4" d="M 62.917969 95.902344 C 62.726562 94.753906 62.824219 93.515625 62.824219 92.273438 C 63.109375 92.375 63.394531 92.46875 63.488281 92.753906 L 63.394531 95.902344 L 62.917969 95.902344 " fill-opacity="1" fill-rule="nonzero"/><path fill="#fcedd4" d="M 62.824219 114.296875 L 62.632812 114.296875 C 62.347656 113.433594 62.539062 112.671875 62.632812 111.816406 C 62.824219 111.816406 63.203125 111.816406 63.300781 112.003906 C 63.109375 112.765625 63.488281 114.105469 62.824219 114.296875 " fill-opacity="1" fill-rule="nonzero"/><path fill="#fcedd4" d="M 61.679688 95.707031 C 61.488281 95.902344 61.394531 95.707031 61.203125 95.707031 C 60.917969 94.375 61.015625 92.851562 61.109375 91.417969 C 61.777344 91.226562 61.777344 92.089844 61.777344 92.558594 L 61.679688 95.707031 " fill-opacity="1" fill-rule="nonzero"/><path fill="#fcedd4" d="M 61.394531 81.410156 C 59.96875 79.886719 56.820312 80.839844 56.628906 78.269531 C 58.34375 78.839844 61.015625 77.597656 61.679688 79.886719 C 61.679688 80.457031 61.777344 81.125 61.394531 81.410156 " fill-opacity="1" fill-rule="nonzero"/><path fill="#fcedd4" d="M 61.394531 114.296875 C 61.015625 114.582031 60.824219 114.003906 60.824219 113.625 C 60.917969 112.765625 60.730469 111.71875 61.015625 111.054688 L 61.488281 111.339844 L 61.394531 114.296875 " fill-opacity="1" fill-rule="nonzero"/><path fill="#fcedd4" d="M 59.492188 95.902344 C 59.105469 94.277344 59.390625 92.375 59.390625 90.75 C 59.585938 90.65625 59.96875 90.65625 59.96875 90.847656 L 59.96875 95.707031 L 59.492188 95.902344 " fill-opacity="1" fill-rule="nonzero"/><path fill="#fcedd4" d="M 59.675781 114.003906 C 58.914062 113.054688 59.015625 111.433594 59.199219 110.007812 C 59.492188 110.101562 59.96875 110.386719 59.871094 110.769531 L 59.675781 114.003906 " fill-opacity="1" fill-rule="nonzero"/><path fill="#fcedd4" d="M 58.914062 74.070312 L 58.722656 74.070312 C 58.4375 73.785156 58.722656 73.5 58.722656 73.214844 C 58.914062 72.929688 59.300781 72.929688 59.585938 73.023438 C 59.777344 73.5 59.492188 74.070312 58.914062 74.070312 " fill-opacity="1" fill-rule="nonzero"/><path fill="#fcedd4" d="M 53.769531 122.773438 C 54.246094 122.011719 54.054688 120.296875 55.386719 120.488281 L 58.34375 120.488281 L 53.769531 122.773438 " fill-opacity="1" fill-rule="nonzero"/><path fill="#fcedd4" d="M 57.675781 96.1875 L 57.675781 90.273438 C 57.773438 90.179688 58.25 90.085938 58.34375 90.464844 L 58.25 96.1875 L 57.675781 96.1875 " fill-opacity="1" fill-rule="nonzero"/><path fill="#fcedd4" d="M 57.960938 110.769531 C 57.488281 110.386719 57.390625 109.621094 57.390625 108.953125 C 57.390625 108.574219 57.867188 108.859375 57.960938 108.953125 C 58.25 109.53125 57.960938 110.292969 57.960938 110.769531 " fill-opacity="1" fill-rule="nonzero"/><path fill="#fcedd4" d="M 56.535156 96.5625 C 56.34375 96.757812 56.058594 96.949219 55.773438 96.949219 L 55.773438 89.988281 C 56.058594 89.800781 56.34375 89.988281 56.628906 89.988281 C 56.628906 92.089844 56.628906 94.375 56.535156 96.5625 " fill-opacity="1" fill-rule="nonzero"/><path fill="#fcedd4" d="M 56.34375 108.574219 C 56.058594 108.667969 55.773438 108.191406 55.582031 108.003906 C 55.582031 107.8125 55.488281 107.527344 55.679688 107.429688 C 55.964844 107.621094 56.628906 107.71875 56.441406 108.289062 C 56.34375 108.382812 56.34375 108.476562 56.34375 108.574219 " fill-opacity="1" fill-rule="nonzero"/><path fill="#fcedd4" d="M 56.058594 76.742188 C 55.867188 76.742188 55.867188 76.550781 55.679688 76.457031 C 55.867188 76.359375 56.152344 76.457031 56.058594 76.742188 " fill-opacity="1" fill-rule="nonzero"/><path fill="#fcedd4" d="M 54.53125 80.171875 C 53.578125 80.363281 52.722656 79.984375 52.054688 79.222656 C 51.863281 78.554688 51.863281 77.789062 52.339844 77.21875 C 53.101562 76.742188 54.054688 76.457031 54.816406 77.027344 C 56.058594 77.699219 55.773438 79.695312 54.53125 80.171875 " fill-opacity="1" fill-rule="nonzero"/><path fill="#fcedd4" d="M 52.816406 61.96875 C 51.292969 63.492188 48.71875 63.589844 46.808594 62.730469 C 44.808594 61.683594 44.046875 59.394531 43.953125 57.300781 C 43.953125 55.582031 44.335938 53.964844 45.863281 52.820312 C 47.195312 51.957031 49.097656 52.148438 50.4375 52.914062 C 51.390625 54.058594 52.054688 55.484375 51.863281 56.917969 C 51.769531 57.777344 51.199219 58.632812 50.335938 59.015625 C 49.765625 59.394531 48.71875 59.300781 48.242188 58.824219 C 47.195312 58.15625 47.101562 57.007812 47.101562 55.960938 C 47.289062 55.011719 48.148438 54.4375 48.242188 53.582031 C 47.863281 53.105469 47.386719 53.675781 47.003906 53.867188 C 45.863281 55.011719 45.476562 57.109375 46.238281 58.539062 C 46.910156 59.394531 47.863281 60.25 48.910156 60.441406 C 50.914062 60.636719 52.4375 58.917969 53.199219 57.203125 C 53.960938 55.011719 53.578125 52.25 51.960938 50.53125 C 51.578125 50.148438 51.007812 49.675781 50.4375 49.863281 C 50.4375 50.625 51.484375 51.101562 51.769531 51.863281 C 51.769531 52.058594 51.960938 52.25 51.960938 52.535156 C 50.335938 51.386719 47.957031 50.722656 45.953125 51.578125 C 45.191406 51.957031 44.523438 52.433594 43.953125 53.105469 C 43.761719 52.914062 43.476562 52.71875 43.191406 53.011719 C 41.757812 54.25 40.617188 55.867188 40.140625 57.585938 C 39.664062 58.15625 38.902344 57.585938 38.332031 57.679688 C 37.378906 55.582031 37.183594 53.011719 37.09375 50.53125 C 37.753906 50.148438 37.855469 49.386719 37.855469 48.722656 C 37.664062 48.054688 37.285156 47.382812 36.523438 47.292969 C 35.757812 47.199219 34.804688 47.667969 34.613281 48.4375 C 34.328125 49.484375 34.996094 50.148438 35.757812 50.625 L 37.09375 57.488281 C 34.804688 57.679688 33.464844 55.011719 31.753906 53.675781 L 26.035156 46.8125 C 26.605469 46.152344 26.605469 45.003906 26.035156 44.335938 C 25.367188 43.765625 24.511719 43.574219 23.65625 43.859375 C 22.890625 44.148438 22.601562 44.910156 22.507812 45.671875 C 22.699219 46.4375 23.078125 47.484375 24.03125 47.484375 L 25.082031 47.484375 C 28.320312 51.292969 31.65625 55.199219 35.566406 58.539062 C 35.46875 58.917969 35.660156 59.300781 35.375 59.585938 C 32.039062 58.539062 28.320312 57.488281 24.601562 57.394531 C 24.125 56.722656 23.363281 55.582031 22.316406 55.960938 C 21.746094 56.152344 20.984375 56.632812 20.699219 57.394531 C 20.699219 58.15625 20.890625 58.824219 21.460938 59.300781 C 22.03125 59.773438 22.792969 59.871094 23.363281 59.679688 C 24.417969 57.871094 26.605469 58.726562 28.230469 58.726562 C 30.800781 58.917969 33.28125 59.679688 35.46875 60.828125 C 35.660156 61.011719 35.660156 61.296875 35.660156 61.589844 C 32.996094 61.96875 29.5625 61.113281 27.84375 63.589844 C 26.128906 64.160156 24.988281 65.878906 24.796875 67.6875 C 24.886719 68.351562 24.886719 68.734375 24.988281 69.304688 C 23.363281 68.257812 22.699219 66.449219 22.601562 64.640625 C 22.507812 64.445312 22.316406 64.355469 22.222656 64.539062 C 21.652344 66.449219 22.601562 68.351562 23.746094 69.78125 C 25.367188 71.59375 27.558594 72.355469 29.941406 72.167969 C 31.46875 72.070312 32.804688 71.023438 33.375 69.589844 C 33.757812 68.640625 33.566406 67.496094 32.894531 66.734375 C 32.519531 65.972656 31.65625 65.78125 30.894531 65.6875 C 29.753906 65.6875 28.515625 66.164062 27.945312 67.304688 C 27.75 68.066406 27.082031 69.113281 27.945312 69.691406 C 28.890625 69.496094 28.515625 68.257812 29.085938 67.6875 C 29.847656 67.117188 30.894531 66.925781 31.753906 67.304688 C 32.324219 67.6875 32.324219 68.640625 32.039062 69.210938 C 31.179688 70.644531 29.65625 70.832031 28.230469 70.738281 C 27.273438 70.546875 26.414062 69.691406 26.128906 68.828125 C 25.75 67.78125 26.226562 66.734375 26.605469 65.878906 C 28.035156 64.445312 30.230469 63.875 32.039062 64.445312 C 33.28125 64.925781 34.421875 65.59375 35.089844 66.832031 C 35.757812 68.542969 35.28125 70.546875 34.136719 71.878906 C 32.996094 73.402344 31.179688 73.785156 29.46875 73.980469 C 27.652344 73.878906 26.035156 73.308594 24.417969 72.738281 C 24.125 72.640625 24.125 73.023438 24.226562 73.117188 C 26.988281 74.835938 30.894531 75.597656 33.851562 73.785156 L 34.996094 72.832031 C 34.898438 73.5 34.613281 74.265625 34.042969 74.835938 C 32.132812 77.027344 28.800781 76.359375 26.414062 75.980469 C 26.128906 76.359375 26.605469 76.742188 26.890625 76.835938 C 28.992188 77.597656 31.941406 77.503906 33.757812 76.742188 C 32.417969 78.746094 29.941406 78.929688 27.945312 79.222656 C 27.75 79.316406 27.558594 79.601562 27.75 79.792969 L 28.230469 79.984375 C 29.46875 80.078125 30.894531 79.695312 32.234375 79.410156 C 31.371094 81.125 29.46875 80.839844 27.84375 81.316406 L 27.652344 81.601562 C 28.230469 82.363281 29.277344 81.886719 30.132812 81.988281 C 29.753906 83.035156 28.414062 82.363281 27.75 83.035156 C 27.652344 83.699219 28.515625 83.511719 28.890625 83.699219 C 28.515625 84.558594 27.273438 84.273438 26.605469 84.84375 C 27.652344 82.078125 26.988281 79.03125 25.652344 76.550781 C 23.554688 72.355469 19.265625 68.542969 21.078125 63.113281 C 20.601562 62.160156 19.265625 62.253906 18.597656 61.398438 C 17.363281 60.535156 17.265625 59.015625 17.074219 57.679688 C 16.980469 55.011719 18.695312 52.535156 21.078125 51.386719 C 21.652344 50.53125 20.222656 49.863281 20.03125 49.007812 C 16.980469 44.621094 16.789062 38.234375 18.21875 32.992188 C 19.265625 30.226562 19.746094 27.179688 21.460938 24.699219 C 21.554688 24.992188 21.363281 25.277344 21.652344 25.371094 C 22.890625 24.890625 23.363281 23.652344 24.601562 23.082031 C 26.035156 22.128906 27.75 21.558594 28.890625 20.125 C 28.890625 19.941406 28.890625 19.460938 28.515625 19.554688 C 26.320312 20.796875 23.839844 21.84375 22.125 23.9375 C 22.601562 21.464844 24.703125 20.511719 26.414062 18.984375 C 27.945312 18.316406 29.277344 17.363281 30.609375 16.222656 C 30.515625 18.316406 28.992188 20.316406 28.320312 22.414062 C 28.414062 22.703125 28.890625 22.605469 29.175781 22.796875 C 29.941406 23.367188 30.609375 24.128906 30.609375 25.085938 L 30.515625 25.847656 C 27.273438 26.230469 24.125 26.992188 22.03125 29.757812 C 18.027344 34.425781 17.457031 41.953125 20.03125 47.578125 C 20.699219 48.246094 20.792969 49.960938 21.9375 49.578125 L 22.03125 49.292969 C 18.503906 44.910156 18.695312 37.574219 21.175781 32.707031 C 21.746094 32.136719 21.9375 31.46875 22.601562 31.089844 C 22.507812 38.042969 28.515625 42.71875 31.085938 48.722656 C 31.847656 48.53125 31.371094 47.578125 31.65625 47.097656 C 32.519531 45.765625 34.042969 44.335938 35.851562 44.433594 C 37.183594 44.527344 38.425781 44.910156 39.472656 45.859375 C 40.332031 46.8125 40.519531 48.144531 40.808594 49.386719 C 41.664062 49.578125 42.144531 48.4375 42.90625 48.246094 C 45.863281 47.097656 50.144531 47.382812 52.625 49.863281 C 54.910156 51.863281 55.773438 55.011719 55.203125 57.964844 C 55.011719 59.585938 54.054688 60.921875 52.816406 61.96875 " fill-opacity="1" fill-rule="nonzero"/><path fill="#fcedd4" d="M 46.238281 101.046875 C 44.144531 101.90625 42.042969 102.476562 39.757812 102.570312 C 39.949219 101.332031 40.617188 100.191406 41.378906 99.234375 C 45.09375 97.996094 48.8125 95.421875 50.527344 91.703125 C 51.578125 89.417969 51.484375 86.277344 49.957031 84.175781 C 49.289062 82.933594 47.863281 82.648438 47.101562 81.695312 L 47.671875 77.984375 C 50.621094 78.644531 53.578125 81.507812 54.246094 84.460938 C 56.058594 91.132812 52.339844 97.996094 46.238281 101.046875 " fill-opacity="1" fill-rule="nonzero"/><path fill="#fcedd4" d="M 54.53125 97.140625 L 54.246094 97.042969 C 54.339844 95.800781 53.769531 94.089844 54.726562 93.136719 C 54.625 94.46875 54.910156 95.992188 54.53125 97.140625 " fill-opacity="1" fill-rule="nonzero"/><path fill="#fcedd4" d="M 54.441406 107.144531 C 54.246094 107.144531 54.148438 106.957031 53.960938 106.859375 C 53.960938 106.765625 53.960938 106.667969 54.054688 106.574219 C 54.339844 106.574219 54.625 106.957031 54.441406 107.144531 " fill-opacity="1" fill-rule="nonzero"/><path fill="#fcedd4" d="M 51.578125 72.640625 L 51.007812 71.976562 C 51.390625 71.308594 52.152344 71.214844 52.816406 71.40625 C 54.625 72.070312 53.960938 74.265625 54.53125 75.695312 C 52.625 75.695312 52.246094 73.980469 51.578125 72.640625 " fill-opacity="1" fill-rule="nonzero"/><path fill="#fcedd4" d="M 51.769531 123.636719 C 49.289062 125.347656 46.238281 126.585938 43.097656 125.921875 C 36.042969 124.398438 29.753906 117.914062 28.320312 110.863281 C 27.75 108.953125 27.558594 106.765625 27.367188 104.570312 C 28.320312 104.285156 29.65625 104.285156 30.609375 104.570312 C 31.179688 111.054688 33.566406 118.109375 40.046875 121.15625 C 42.234375 122.488281 45.476562 123.160156 47.957031 121.726562 C 49.097656 121.15625 49.765625 120.109375 50.050781 119.0625 C 50.144531 117.53125 49.382812 116.105469 48.050781 115.34375 C 47.195312 114.867188 46.148438 115.152344 45.382812 115.628906 C 44.429688 116.292969 43.953125 117.34375 43.953125 118.484375 C 42.429688 118.484375 41.09375 117.628906 39.949219 116.582031 C 38.332031 115.058594 36.707031 113.148438 36.042969 111.148438 C 37.183594 110.769531 38.808594 110.863281 40.234375 111.054688 L 41.664062 113.054688 C 42.519531 112.957031 42.429688 112.003906 43.191406 111.816406 C 46.148438 110.292969 49.480469 111.054688 51.960938 113.054688 C 53.578125 114.675781 54.625 116.867188 54.054688 119.347656 C 53.671875 120.871094 53.101562 122.398438 51.769531 123.636719 " fill-opacity="1" fill-rule="nonzero"/><path fill="#fcedd4" d="M 52.4375 98.1875 L 51.769531 98.28125 L 53.101562 96.378906 C 53.101562 96.847656 53.199219 97.425781 53.007812 97.804688 L 52.4375 98.1875 " fill-opacity="1" fill-rule="nonzero"/><path fill="#fcedd4" d="M 51.769531 105.8125 L 52.816406 106.003906 L 52.816406 106.195312 Z M 51.769531 105.8125 " fill-opacity="1" fill-rule="nonzero"/><path fill="#fcedd4" d="M 49.765625 89.988281 C 44.429688 93.324219 38.902344 98.28125 38.140625 104.765625 L 35.089844 104.855469 C 35.183594 98.851562 38.710938 93.707031 43.382812 89.703125 C 45.285156 88.371094 47.386719 87.222656 49.574219 86.652344 C 50.144531 87.609375 50.050781 88.941406 49.765625 89.988281 " fill-opacity="1" fill-rule="nonzero"/><path fill="#fcedd4" d="M 44.046875 87.128906 C 41.28125 91.226562 37.09375 94.277344 32.417969 95.039062 C 31.941406 94.089844 32.324219 92.660156 32.703125 91.613281 C 37.46875 89.609375 41.757812 84.84375 42.519531 79.695312 C 43 74.457031 41.757812 69.210938 37.753906 65.878906 C 35.851562 64.355469 33.757812 63.304688 31.46875 62.921875 C 34.707031 62.542969 38.234375 63.398438 40.425781 65.972656 C 42.90625 68.640625 44.046875 71.878906 44.238281 75.597656 C 44.238281 76.265625 44.046875 77.21875 44.621094 77.597656 C 45.382812 76.835938 44.90625 75.597656 45.09375 74.640625 C 44.808594 67.78125 37.183594 60.921875 43.285156 54.4375 C 41.664062 60.921875 46.433594 66.164062 46.523438 72.738281 C 46.910156 77.789062 46.523438 83.035156 44.046875 87.128906 " fill-opacity="1" fill-rule="nonzero"/><path fill="#fcedd4" d="M 45.476562 104 C 45.382812 103.714844 45.09375 102.570312 45.667969 102.285156 L 46.046875 102.378906 C 46.046875 103.046875 45.863281 103.523438 45.476562 104 " fill-opacity="1" fill-rule="nonzero"/><path fill="#fcedd4" d="M 44.238281 104.855469 C 44.144531 104.957031 43.859375 104.855469 43.667969 104.855469 C 43.761719 104.285156 43.285156 103.140625 44.046875 102.855469 C 44.523438 103.140625 44.238281 104.1875 44.238281 104.855469 " fill-opacity="1" fill-rule="nonzero"/><path fill="#fcedd4" d="M 42.042969 104.855469 L 41.949219 104.855469 C 41.757812 104.378906 41.566406 103.523438 42.042969 103.332031 L 42.621094 103.429688 C 42.519531 103.902344 42.90625 104.957031 42.042969 104.855469 " fill-opacity="1" fill-rule="nonzero"/><path fill="#fcedd4" d="M 41.378906 80.839844 C 36.613281 82.933594 32.703125 87.414062 31.277344 92.273438 C 30.894531 94.277344 30.609375 96.472656 30.515625 98.566406 C 29.5625 98.757812 28.707031 98.472656 27.75 98.378906 C 27.273438 97.425781 27.75 96.1875 27.84375 95.136719 C 28.515625 87.699219 33.464844 79.984375 40.808594 77.699219 C 41.09375 77.699219 41.472656 77.40625 41.664062 77.699219 L 41.378906 80.839844 " fill-opacity="1" fill-rule="nonzero"/><path fill="#fcedd4" d="M 41.378906 75.027344 C 39.664062 75.121094 37.570312 75.3125 35.757812 75.21875 C 35.660156 74.835938 36.042969 74.550781 36.328125 74.640625 L 41.09375 74.550781 C 41.378906 74.640625 41.28125 74.835938 41.378906 75.027344 " fill-opacity="1" fill-rule="nonzero"/><path fill="#fcedd4" d="M 40.902344 73.402344 C 39.570312 73.695312 37.855469 73.5 36.523438 73.5 C 36.421875 73.214844 36.707031 72.832031 37.09375 72.832031 L 40.808594 72.832031 C 40.808594 72.929688 41.09375 73.117188 40.902344 73.402344 " fill-opacity="1" fill-rule="nonzero"/><path fill="#fcedd4" d="M 35.28125 76.835938 L 35.46875 76.457031 C 37.183594 76.265625 39.09375 76.167969 40.996094 76.265625 C 39.378906 77.3125 37.183594 76.929688 35.28125 76.835938 " fill-opacity="1" fill-rule="nonzero"/><path fill="#fcedd4" d="M 40.808594 104.765625 C 40.519531 104.957031 40.140625 104.855469 39.855469 104.855469 C 39.570312 104.664062 39.664062 104.09375 39.757812 103.902344 C 40.519531 103.429688 40.996094 104 40.808594 104.765625 " fill-opacity="1" fill-rule="nonzero"/><path fill="#fcedd4" d="M 36.613281 71.785156 C 36.613281 71.59375 36.328125 71.308594 36.613281 71.121094 L 40.140625 71.023438 L 40.519531 71.59375 C 39.1875 71.878906 37.949219 71.878906 36.613281 71.785156 " fill-opacity="1" fill-rule="nonzero"/><path fill="#fcedd4" d="M 39.855469 62.921875 C 38.808594 62.636719 37.664062 62.160156 36.613281 61.683594 C 36.523438 60.726562 36.523438 59.871094 36.613281 58.917969 C 37.570312 58.917969 39.09375 58.632812 39.757812 59.300781 C 39.664062 60.535156 39.664062 61.683594 39.855469 62.921875 " fill-opacity="1" fill-rule="nonzero"/><path fill="#fcedd4" d="M 36.707031 69.976562 C 36.523438 69.976562 36.613281 69.691406 36.613281 69.589844 C 37.570312 69.210938 38.332031 69.40625 39.378906 69.40625 C 39.472656 69.589844 39.664062 70.066406 39.1875 69.976562 L 36.707031 69.976562 " fill-opacity="1" fill-rule="nonzero"/><path fill="#fcedd4" d="M 36.808594 68.257812 C 36.613281 68.257812 36.613281 67.972656 36.613281 67.6875 C 37.09375 67.6875 37.664062 67.496094 38.046875 67.6875 L 38.519531 68.164062 C 37.949219 68.351562 37.46875 68.257812 36.808594 68.257812 " fill-opacity="1" fill-rule="nonzero"/><path fill="#fcedd4" d="M 33.945312 78.746094 C 34.042969 77.597656 35.566406 78.167969 36.230469 78.074219 L 36.898438 78.167969 C 36.230469 79.125 34.898438 78.839844 33.945312 78.746094 " fill-opacity="1" fill-rule="nonzero"/><path fill="#fcedd4" d="M 36.230469 66.449219 L 36.042969 66.164062 L 36.613281 66.449219 C 36.613281 66.734375 36.328125 66.449219 36.230469 66.449219 " fill-opacity="1" fill-rule="nonzero"/><path fill="#fcedd4" d="M 34.328125 103.332031 C 31.46875 103.523438 28.800781 103.332031 26.128906 103.140625 C 25.941406 102 26.035156 101.046875 26.035156 99.898438 C 28.992188 99.804688 32.039062 100.28125 35.089844 100.191406 L 34.328125 103.332031 " fill-opacity="1" fill-rule="nonzero"/><path fill="#fcedd4" d="M 33.179688 80.457031 C 32.996094 79.792969 33.851562 79.886719 34.230469 79.984375 C 34.042969 80.363281 33.566406 80.554688 33.179688 80.457031 " fill-opacity="1" fill-rule="nonzero"/><path fill="#fcedd4" d="M 31.941406 82.171875 L 31.753906 82.171875 C 31.65625 81.886719 31.65625 81.507812 32.039062 81.507812 L 32.417969 81.601562 C 32.234375 81.695312 32.324219 82.273438 31.941406 82.171875 " fill-opacity="1" fill-rule="nonzero"/><path fill="#fcedd4" d="M 26.890625 17.363281 L 25.273438 18.316406 C 25.464844 17.652344 25.941406 16.792969 26.414062 16.027344 C 28.128906 14.980469 29.5625 13.648438 30.894531 12.125 C 31.179688 12.59375 31.179688 13.648438 30.992188 14.3125 C 30.039062 15.550781 28.414062 16.699219 26.890625 17.363281 " fill-opacity="1" fill-rule="nonzero"/><path fill="#fcedd4" d="M 30.609375 83.796875 L 30.324219 83.699219 C 30.417969 83.414062 30.703125 83.128906 30.894531 83.320312 C 30.800781 83.511719 30.800781 83.699219 30.609375 83.796875 " fill-opacity="1" fill-rule="nonzero"/><path fill="#fcedd4" d="M 27.464844 14.125 C 26.988281 12.125 29.085938 10.40625 30.515625 9.261719 C 30.992188 9.929688 30.515625 10.597656 30.230469 11.167969 C 29.371094 12.125 28.515625 13.265625 27.464844 14.125 " fill-opacity="1" fill-rule="nonzero"/><path fill="#fcedd4" d="M 28.128906 9.835938 C 27.082031 8.5 28.605469 7.257812 28.992188 6.117188 C 29.46875 6.402344 29.753906 6.972656 30.039062 7.550781 C 29.941406 8.597656 28.707031 9.070312 28.128906 9.835938 " fill-opacity="1" fill-rule="nonzero"/><path fill="#fcedd4" d="M 28.515625 85.507812 L 28.230469 85.414062 C 28.707031 85.128906 29.175781 84.652344 29.847656 84.9375 C 29.941406 85.890625 28.992188 85.320312 28.515625 85.507812 " fill-opacity="1" fill-rule="nonzero"/><path fill="#fcedd4" d="M 26.320312 87.128906 C 26.128906 87.039062 26.128906 86.847656 26.320312 86.746094 C 27.082031 86.367188 28.128906 86.652344 28.890625 86.746094 L 28.800781 87.128906 L 26.320312 87.128906 " fill-opacity="1" fill-rule="nonzero"/><path fill="#fcedd4" d="M 28.605469 115.152344 C 27.84375 114.390625 25.75 115.152344 26.035156 113.339844 L 26.226562 110.863281 L 27.082031 110.863281 C 27.652344 112.292969 28.128906 113.71875 28.605469 115.152344 " fill-opacity="1" fill-rule="nonzero"/><path fill="#2f5982" d="M 25.652344 25.371094 C 22.890625 25.941406 20.792969 28.515625 19.367188 30.707031 C 19.550781 28.324219 21.746094 26.609375 23.460938 25.085938 C 24.796875 24.320312 26.796875 23.75 28.320312 24.699219 C 28.414062 24.800781 28.605469 24.890625 28.515625 25.085938 L 25.652344 25.371094 " fill-opacity="1" fill-rule="nonzero"/><path fill="#fcedd4" d="M 27.464844 6.6875 C 26.796875 6.027344 27.558594 5.070312 27.652344 4.402344 C 28.515625 4.785156 28.320312 5.640625 27.945312 6.117188 C 27.84375 6.402344 27.558594 6.496094 27.464844 6.6875 " fill-opacity="1" fill-rule="nonzero"/><path fill="#fcedd4" d="M 26.703125 89.035156 C 26.320312 88.847656 26.128906 88.847656 26.128906 88.371094 C 26.703125 88.179688 27.652344 88.179688 28.230469 88.464844 C 28.230469 89.324219 27.179688 88.847656 26.703125 89.035156 " fill-opacity="1" fill-rule="nonzero"/><path fill="#fcedd4" d="M 26.605469 91.328125 C 26.414062 91.328125 26.128906 91.226562 26.128906 90.941406 L 26.226562 90.179688 C 26.703125 89.988281 27.082031 89.988281 27.558594 90.273438 C 27.464844 90.847656 27.367188 91.511719 26.605469 91.328125 " fill-opacity="1" fill-rule="nonzero"/><path fill="#fcedd4" d="M 26.511719 95.421875 C 25.179688 95.902344 23.65625 95.421875 22.316406 95.421875 C 18.027344 94.753906 13.644531 92.273438 11.644531 88.179688 C 11.835938 87.984375 12.3125 88.371094 12.597656 88.179688 C 13.738281 88.179688 14.691406 87.507812 15.363281 86.460938 C 16.125 85.507812 15.546875 84.175781 15.261719 83.128906 C 14.5 81.507812 12.597656 81.601562 11.167969 81.601562 C 9.925781 82.171875 8.6875 83.21875 8.117188 84.558594 C 6.96875 88.65625 8.972656 92.46875 11.929688 95.136719 C 14.308594 96.847656 16.789062 98.472656 19.652344 98.949219 C 19.9375 99.804688 19.835938 101.046875 19.746094 102 C 13.359375 102.476562 7.734375 97.425781 5.066406 91.988281 C 3.066406 87.507812 4.496094 82.078125 8.023438 78.839844 C 9.546875 77.40625 11.835938 77.027344 13.929688 77.503906 C 16.027344 78.074219 18.503906 79.222656 19.460938 81.507812 C 20.414062 83.21875 20.316406 85.890625 19.074219 87.414062 C 18.695312 88.179688 17.074219 87.984375 17.648438 89.132812 C 20.222656 91.613281 23.554688 92.558594 26.988281 92.558594 L 26.511719 95.421875 " fill-opacity="1" fill-rule="nonzero"/><path fill="#fcedd4" d="M 26.035156 13.648438 C 25.75 11.648438 26.035156 9.453125 26.035156 7.257812 C 26.988281 9.167969 26.988281 11.832031 26.035156 13.648438 " fill-opacity="1" fill-rule="nonzero"/><path fill="#fcedd4" d="M 26.320312 4.878906 C 26.035156 4.878906 25.652344 4.402344 25.464844 4.117188 L 25.558594 2.878906 C 26.605469 2.878906 26.605469 4.117188 26.320312 4.878906 " fill-opacity="1" fill-rule="nonzero"/><path fill="#fcedd4" d="M 26.511719 108.289062 C 23.175781 108.476562 19.835938 108.382812 16.410156 108.289062 C 16.410156 107.71875 15.648438 106.382812 16.789062 106.382812 L 26.035156 106.289062 C 26.320312 106.859375 26.320312 107.621094 26.511719 108.289062 " fill-opacity="1" fill-rule="nonzero"/><path fill="#fcedd4" d="M 25.082031 78.460938 C 24.796875 78.460938 24.703125 78.167969 24.703125 77.882812 C 24.886719 77.699219 25.179688 77.984375 25.179688 78.167969 C 25.179688 78.269531 25.273438 78.460938 25.082031 78.460938 " fill-opacity="1" fill-rule="nonzero"/><path fill="#fcedd4" d="M 24.703125 91.132812 C 23.839844 90.941406 22.601562 91.035156 22.125 90.179688 C 22.125 85.699219 23.078125 80.554688 19.074219 77.699219 C 17.457031 76.074219 15.457031 75.410156 13.261719 75.027344 L 13.261719 13.933594 L 22.414062 13.933594 L 22.699219 13.550781 L 22.792969 4.496094 C 23.460938 4.402344 24.125 4.6875 24.601562 5.070312 C 24.796875 8.597656 24.601562 16.597656 24.796875 16.414062 C 24.703125 16.507812 15.742188 16.507812 15.933594 16.507812 C 15.933594 16.507812 15.933594 68.164062 16.027344 73.214844 C 18.125 73.59375 20.03125 74.742188 21.652344 76.265625 C 23.554688 78.074219 24.601562 80.269531 24.886719 82.75 C 24.988281 85.796875 24.988281 88.371094 24.703125 91.132812 " fill-opacity="1" fill-rule="nonzero"/><path fill="#fcedd4" d="M 24.703125 104.855469 C 23.746094 105.140625 23.078125 104.855469 22.03125 104.855469 C 21.839844 102.285156 22.03125 99.425781 22.125 96.847656 C 22.890625 96.5625 23.746094 96.847656 24.601562 96.847656 C 24.886719 99.425781 24.796875 102.191406 24.703125 104.855469 " fill-opacity="1" fill-rule="nonzero"/><path fill="#fcedd4" d="M 23.363281 125.730469 C 22.507812 127.925781 20.128906 128.6875 18.027344 128.78125 C 16.21875 128.589844 14.023438 127.734375 13.359375 125.730469 C 12.785156 124.207031 12.5 122.296875 12.785156 120.582031 C 13.546875 120.203125 14.601562 120.394531 15.457031 120.394531 C 15.546875 121.726562 15.546875 123.351562 16.410156 124.492188 C 17.074219 125.347656 18.3125 125.632812 19.265625 125.347656 C 20.316406 125.160156 21.363281 124.109375 21.554688 123.058594 C 21.839844 119.15625 21.9375 115.058594 21.9375 111.054688 C 22.890625 110.671875 23.554688 110.863281 24.601562 110.863281 L 24.796875 111.054688 C 24.417969 116.105469 25.464844 121.441406 23.363281 125.730469 " fill-opacity="1" fill-rule="nonzero"/><path fill="#fcedd4" d="M 24.316406 76.644531 C 23.839844 76.929688 23.554688 76.359375 23.363281 76.167969 C 23.363281 75.980469 23.65625 75.980469 23.941406 75.980469 C 24.125 76.167969 24.417969 76.265625 24.316406 76.644531 " fill-opacity="1" fill-rule="nonzero"/><path fill="#fcedd4" d="M 23.941406 3.355469 C 22.984375 3.546875 22.125 3.070312 22.507812 2.023438 C 22.890625 1.542969 23.460938 2.113281 23.941406 2.113281 C 24.226562 2.492188 23.941406 2.96875 23.941406 3.355469 " fill-opacity="1" fill-rule="nonzero"/><path fill="#fcedd4" d="M 17.363281 30.707031 C 17.363281 26.515625 17.363281 17.746094 17.457031 17.839844 C 17.363281 17.9375 21.652344 17.554688 23.65625 17.839844 C 22.03125 20.601562 18.21875 27.5625 17.363281 30.707031 " fill-opacity="1" fill-rule="nonzero"/><path fill="#fcedd4" d="M 21.652344 74.550781 L 21.460938 74.457031 C 22.03125 74.355469 22.984375 73.980469 23.175781 74.742188 C 22.890625 74.835938 21.9375 75.121094 21.652344 74.550781 " fill-opacity="1" fill-rule="nonzero"/><path fill="#fcedd4" d="M 18.21875 72.546875 L 21.839844 72.546875 L 22.222656 73.117188 C 20.984375 73.214844 19.367188 73.5 18.21875 72.546875 " fill-opacity="1" fill-rule="nonzero"/><path fill="#fcedd4" d="M 18.980469 3.355469 C 18.21875 4.210938 17.171875 5.070312 17.265625 6.3125 L 17.457031 7.738281 C 16.886719 7.550781 16.695312 6.882812 16.601562 6.402344 C 16.410156 5.164062 16.695312 3.925781 17.648438 3.070312 C 18.695312 2.113281 19.9375 1.730469 21.269531 2.023438 C 21.554688 3.546875 19.652344 2.785156 18.980469 3.355469 " fill-opacity="1" fill-rule="nonzero"/><path fill="#fcedd4" d="M 17.171875 71.40625 C 16.980469 71.308594 17.171875 71.023438 17.074219 70.832031 C 18.125 70.546875 19.550781 70.738281 20.792969 70.738281 L 21.175781 71.308594 L 20.890625 71.5 L 17.171875 71.40625 " fill-opacity="1" fill-rule="nonzero"/><path fill="#fcedd4" d="M 20.222656 8.5 C 19.367188 8.691406 18.789062 8.023438 18.503906 7.257812 C 18.21875 6.6875 18.503906 6.027344 18.597656 5.355469 C 19.074219 4.972656 19.550781 4.308594 20.222656 4.402344 C 20.507812 5.832031 20.222656 7.167969 20.222656 8.5 " fill-opacity="1" fill-rule="nonzero"/><path fill="#fcedd4" d="M 20.316406 69.589844 C 19.367188 69.691406 17.933594 69.78125 17.074219 69.40625 L 17.171875 69.113281 C 18.125 69.113281 19.175781 68.925781 20.222656 69.113281 C 20.316406 69.210938 20.414062 69.40625 20.316406 69.589844 " fill-opacity="1" fill-rule="nonzero"/><path fill="#fcedd4" d="M 17.171875 67.878906 L 17.171875 67.402344 L 19.652344 67.304688 C 19.9375 67.402344 19.9375 67.78125 19.835938 67.972656 L 17.171875 67.878906 " fill-opacity="1" fill-rule="nonzero"/><path fill="#fcedd4" d="M 19.550781 104.957031 L 16.3125 105.050781 C 15.839844 104.378906 15.457031 103.429688 15.078125 102.570312 L 19.746094 103.238281 C 19.835938 103.714844 20.03125 104.664062 19.550781 104.957031 " fill-opacity="1" fill-rule="nonzero"/><path fill="#fcedd4" d="M 19.367188 64.539062 L 17.363281 64.445312 C 17.171875 64.355469 17.171875 63.96875 17.265625 63.875 C 18.027344 63.777344 19.074219 63.683594 19.746094 63.875 C 19.835938 64.253906 19.652344 64.445312 19.367188 64.539062 " fill-opacity="1" fill-rule="nonzero"/><path fill="#fcedd4" d="M 19.652344 66.164062 C 18.980469 66.257812 18.125 66.257812 17.363281 66.257812 C 17.074219 66.066406 17.265625 65.78125 17.171875 65.59375 C 18.125 65.496094 18.695312 65.496094 19.652344 65.6875 L 19.652344 66.164062 " fill-opacity="1" fill-rule="nonzero"/><path fill="#fcedd4" d="M 18.789062 117.914062 L 7.070312 117.816406 C 5.257812 117.53125 3.734375 115.820312 3.066406 114.195312 C 2.304688 112.292969 2.875 110.101562 4.019531 108.574219 C 5.730469 106.859375 8.402344 106.765625 10.597656 106.574219 L 10.6875 108.476562 C 9.257812 108.765625 7.355469 108.476562 6.308594 109.90625 C 5.351562 110.957031 5.351562 112.671875 5.921875 113.910156 C 6.683594 115.058594 7.925781 115.628906 9.257812 115.628906 L 19.460938 115.722656 C 19.550781 116.484375 20.128906 118.199219 18.789062 117.914062 " fill-opacity="1" fill-rule="nonzero"/><path fill="#fcedd4" d="M 17.457031 51.578125 C 17.363281 51.292969 17.265625 51.101562 17.457031 50.910156 L 19.367188 51.007812 C 18.890625 51.578125 18.125 51.671875 17.457031 51.578125 " fill-opacity="1" fill-rule="nonzero"/><path fill="#fcedd4" d="M 17.457031 49.769531 C 17.363281 49.578125 17.265625 49.101562 17.550781 49.101562 C 18.125 49.101562 18.980469 48.910156 19.175781 49.675781 C 18.503906 50.054688 18.125 49.769531 17.457031 49.769531 " fill-opacity="1" fill-rule="nonzero"/><path fill="#fcedd4" d="M 17.265625 62.636719 C 17.074219 62.351562 17.265625 62.160156 17.265625 61.875 L 18.3125 62.636719 C 18.027344 62.828125 17.550781 62.828125 17.265625 62.636719 " fill-opacity="1" fill-rule="nonzero"/><path fill="#fcedd4" d="M 17.742188 48.054688 C 17.550781 47.960938 17.363281 47.960938 17.363281 47.769531 C 17.265625 47.484375 17.742188 47.484375 17.835938 47.484375 C 18.21875 47.578125 18.3125 48.246094 17.742188 48.054688 " fill-opacity="1" fill-rule="nonzero"/><path fill="#fcedd4" d="M 15.363281 113.71875 C 14.601562 114.003906 13.644531 114.105469 12.785156 113.910156 C 12.5 109.335938 13.738281 103.617188 8.878906 101.429688 C 8.210938 101.238281 7.355469 101.429688 6.785156 101.714844 C 6.023438 102.378906 5.636719 103.332031 5.921875 104.1875 C 6.207031 104.664062 6.308594 105.335938 6.878906 105.425781 C 7.164062 105.621094 7.355469 105.140625 7.355469 104.957031 C 7.070312 104.285156 6.59375 103.617188 7.070312 102.953125 C 7.449219 102.476562 8.117188 102.378906 8.6875 102.570312 C 9.164062 102.855469 9.449219 103.238281 9.640625 103.714844 C 9.734375 104.480469 9.257812 105.140625 8.59375 105.425781 C 7.832031 105.90625 6.59375 106.097656 5.730469 105.621094 C 4.875 105.050781 3.921875 104.1875 4.113281 102.953125 C 4.210938 101.714844 5.066406 100.761719 6.207031 100.375 C 7.164062 100.089844 8.023438 100.089844 8.972656 100.476562 C 9.257812 100.375 9.257812 99.996094 9.164062 99.898438 C 4.683594 97.140625 1.632812 92.46875 2.019531 87.128906 C 2.109375 84.175781 2.679688 81.410156 4.496094 79.222656 C 4.496094 79.03125 4.496094 78.746094 4.304688 78.746094 C 3.542969 78.929688 2.679688 79.984375 1.734375 79.316406 C 1.15625 78.929688 1.347656 78.167969 1.441406 77.597656 C 3.921875 74.640625 7.832031 72.929688 9.546875 69.40625 C 10.882812 67.402344 10.597656 64.253906 9.355469 62.351562 C 8.6875 61.492188 7.640625 60.921875 6.59375 61.296875 C 6.207031 61.296875 5.921875 61.777344 5.921875 62.160156 C 5.921875 62.445312 5.828125 62.828125 6.113281 63.015625 C 6.59375 62.828125 6.878906 61.683594 7.546875 62.253906 C 7.734375 62.636719 7.925781 63.113281 7.640625 63.398438 C 7.261719 64.0625 6.398438 63.96875 5.921875 63.683594 C 5.351562 63.398438 4.875 62.730469 5.066406 61.875 C 5.257812 61.207031 5.828125 60.636719 6.5 60.25 C 7.832031 59.871094 8.972656 60.535156 9.925781 61.296875 L 10.882812 62.828125 L 10.789062 69.589844 C 9.449219 75.980469 3.066406 80.171875 3.066406 87.128906 C 2.496094 93.800781 8.117188 98.472656 12.976562 101.90625 C 15.171875 103.523438 15.363281 106.097656 15.457031 108.765625 L 15.363281 113.71875 " fill-opacity="1" fill-rule="nonzero"/><path fill="#fcedd4" d="M 8.6875 76.835938 C 9.164062 75.503906 9.925781 74.070312 10.6875 72.832031 C 10.789062 73.59375 10.882812 74.933594 10.789062 75.980469 L 8.6875 76.835938 " fill-opacity="1" fill-rule="nonzero"/><path fill="#fcedd4" d="M 10.597656 105.050781 L 10.496094 105.050781 C 10.402344 104.855469 10.496094 104.664062 10.597656 104.570312 C 10.597656 104.765625 10.882812 104.957031 10.597656 105.050781 " fill-opacity="1" fill-rule="nonzero"/></svg>