<svg xmlns="http://www.w3.org/2000/svg" xmlns:xlink="http://www.w3.org/1999/xlink" width="175" zoomAndPan="magnify" viewBox="0 0 131.25 131.249998" height="175" preserveAspectRatio="xMidYMid meet" version="1.0"><defs><clipPath id="4df4c16e30"><path d="M 0 0 L 130.503906 0 L 130.503906 130.503906 L 0 130.503906 Z M 0 0 " clip-rule="nonzero"/></clipPath></defs><g clip-path="url(#4df4c16e30)"><path fill="#2f5982" d="M 3.921875 115.152344 C 5.15625 115.722656 6.777344 115.4375 7.917969 115.058594 C 9.066406 114.296875 9.730469 113.054688 9.921875 111.816406 C 10.398438 111.433594 11.160156 111.625 11.828125 111.625 L 12.113281 111.816406 L 12.113281 120.488281 C 12.113281 120.488281 58.339844 120.488281 58.246094 120.488281 C 57.007812 121.820312 56.152344 123.730469 57.007812 125.445312 C 57.292969 126.207031 58.054688 126.871094 58.816406 127.164062 C 59.863281 127.640625 60.816406 127.0625 61.578125 126.492188 C 62.433594 125.824219 62.433594 124.683594 62.058594 123.730469 L 61.007812 122.773438 C 63.964844 120.964844 67.492188 122.875 70.066406 124.492188 C 72.921875 126.300781 75.117188 129.828125 78.542969 130.398438 C 79.589844 130.496094 80.261719 129.542969 80.453125 128.6875 C 87.121094 130.210938 93.511719 127.734375 98.371094 123.351562 C 99.226562 125.0625 100.941406 126.109375 102.851562 126.015625 C 103.800781 125.921875 104.5625 125.347656 105.421875 124.777344 C 106.085938 125.347656 106.378906 126.492188 107.042969 127.253906 C 109.042969 129.921875 112.570312 130.398438 115.527344 129.449219 C 117.621094 128.6875 119.339844 126.585938 119.816406 124.398438 C 120.007812 123.058594 120.007812 121.726562 120.007812 120.488281 C 121.054688 120.109375 122.101562 120.488281 123.148438 120.109375 C 125.4375 119.441406 128.109375 117.53125 128.769531 115.058594 C 129.632812 112.480469 129.25 109.335938 127.054688 107.527344 C 126.675781 107.242188 126.199219 106.957031 125.722656 106.574219 C 126.867188 105.425781 127.4375 104 127.152344 102.378906 C 127.054688 100.667969 125.34375 99.804688 124.105469 99.042969 C 129.347656 94.5625 130.488281 87.039062 128.394531 80.746094 C 129.25 80.363281 129.824219 79.601562 130.011719 78.746094 C 130.203125 77.789062 129.726562 77.027344 129.25 76.265625 C 125.820312 72.832031 119.429688 69.882812 121.339844 64.0625 C 121.339844 63.875 121.625 63.683594 121.71875 63.492188 C 122.101562 64.253906 122.957031 65.015625 123.910156 65.015625 C 124.960938 65.015625 125.722656 63.96875 126.105469 63.113281 C 126.292969 61.96875 126.105469 60.921875 125.535156 59.964844 C 124.867188 59.109375 123.71875 58.824219 122.578125 59.015625 C 121.433594 59.015625 120.578125 59.964844 119.816406 60.726562 L 119.625 60.636719 L 119.339844 56.722656 L 119.339844 11.546875 L 110.28125 11.546875 C 110.089844 11.070312 110.089844 10.5 110.28125 9.929688 C 110.851562 9.546875 111.714844 9.835938 112.285156 9.453125 C 113.332031 9.070312 114.285156 8.023438 114.664062 6.972656 C 115.242188 5.070312 114.664062 3.164062 113.140625 2.023438 C 110.566406 0.113281 106.847656 0.683594 104.277344 2.023438 C 98.941406 4.972656 97.988281 11.167969 98.75 16.597656 C 99.035156 18.601562 100.085938 20.316406 100.5625 22.226562 C 99.609375 22.890625 99.035156 24.035156 98.941406 25.175781 C 98.371094 28.226562 102.089844 26.609375 103.421875 27.5625 C 104.5625 27.753906 105.515625 28.515625 106.472656 29.28125 C 107.425781 31.753906 106.378906 34.515625 105.421875 36.710938 C 103.800781 40.046875 101.613281 43.09375 99.609375 46.242188 C 98.5625 45.195312 97.222656 43.957031 95.796875 43.574219 C 93.605469 43.003906 91.601562 44.148438 90.171875 45.671875 L 88.9375 47.578125 C 85.027344 45.765625 80.261719 46.527344 77.019531 49.386719 C 74.445312 52.058594 73.398438 56.347656 74.824219 59.871094 C 75.6875 61.777344 77.117188 63.875 79.304688 64.445312 C 81.214844 64.730469 83.308594 64.355469 84.835938 63.304688 C 84.933594 64.539062 84.265625 65.78125 83.980469 66.925781 C 83.214844 70.167969 82.738281 73.308594 82.832031 76.742188 L 79.691406 78.359375 C 79.113281 77.984375 79.304688 77.027344 78.734375 76.457031 C 77.972656 75.789062 79.304688 75.121094 79.304688 74.265625 C 79.40625 73.695312 79.785156 73.117188 80.261719 72.738281 C 80.738281 72.738281 81.023438 73.59375 81.59375 73.117188 C 82.070312 72.261719 82.453125 71.214844 81.976562 70.261719 C 81.5 68.828125 79.976562 67.972656 78.449219 67.972656 C 76.734375 67.972656 75.496094 69.210938 74.539062 70.546875 L 67.777344 69.40625 C 67.492188 71.59375 67.777344 73.980469 67.964844 76.167969 C 67.015625 76.835938 65.960938 77.882812 65.777344 79.03125 C 65.582031 80.554688 65.867188 82.078125 67.109375 83.035156 C 67.964844 83.511719 69.300781 83.984375 70.15625 83.320312 C 69.964844 82.84375 69.300781 82.078125 70.25 81.886719 C 71.589844 81.316406 73.207031 81.316406 74.253906 79.984375 C 74.824219 80.648438 75.6875 81.03125 76.449219 81.410156 C 75.878906 82.273438 75.6875 84.175781 73.96875 83.605469 C 70.441406 84.082031 66.917969 84.652344 63.582031 85.605469 C 63.867188 83.511719 63.488281 81.316406 62.25 79.695312 C 60.148438 77.21875 56.722656 76.550781 53.574219 77.40625 C 49.953125 78.074219 46.234375 81.316406 45.570312 84.9375 C 44.902344 86.9375 45.09375 89.226562 45.570312 91.132812 C 43.753906 92.273438 41.945312 93.898438 42.136719 96.1875 C 41.851562 98.566406 43.46875 100.28125 45.09375 101.808594 C 43.945312 103.617188 41.851562 104.855469 40.136719 106.003906 C 36.707031 107.90625 32.796875 109.429688 28.792969 109.53125 C 27.652344 108.953125 26.597656 107.71875 25.835938 106.574219 C 24.789062 104.664062 25.457031 102.191406 25.265625 100.089844 C 24.027344 99.328125 22.21875 99.613281 20.976562 100.566406 L 20.023438 101.523438 C 14.59375 99.613281 7.449219 99.140625 2.964844 103.332031 C 0.679688 105.242188 0.0117188 108.191406 0.488281 111.054688 C 1.058594 112.863281 2.203125 114.296875 3.921875 115.152344 " fill-opacity="1" fill-rule="nonzero"/></g><path fill="#fcedd4" d="M 1.820312 108.859375 C 2.203125 108.765625 2.582031 108.574219 2.582031 108.191406 C 2.582031 107.71875 2.011719 107.71875 1.726562 107.621094 C 1.34375 107.527344 1.34375 108.003906 1.25 108.191406 C 1.15625 108.574219 1.535156 108.765625 1.820312 108.859375 " fill-opacity="1" fill-rule="nonzero"/><path fill="#fcedd4" d="M 4.390625 114.195312 C 5.253906 114.390625 6.207031 114.582031 6.96875 114.105469 C 7.253906 113.910156 7.632812 113.625 7.917969 113.339844 C 6.683594 113.820312 5.0625 114.003906 3.820312 113.148438 C 2.773438 112.386719 2.679688 111.054688 2.105469 110.101562 L 1.34375 110.292969 C 1.726562 111.910156 2.679688 113.625 4.390625 114.195312 " fill-opacity="1" fill-rule="nonzero"/><path fill="#fcedd4" d="M 2.964844 106.574219 C 3.160156 106.574219 3.34375 106.289062 3.535156 106.195312 C 3.25 105.71875 2.582031 105.90625 2.105469 106.003906 C 1.917969 106.667969 2.679688 106.480469 2.964844 106.574219 " fill-opacity="1" fill-rule="nonzero"/><path fill="#fcedd4" d="M 4.105469 105.140625 C 4.683594 105.050781 5.15625 104.480469 5.445312 104 C 5.347656 103.617188 4.683594 103.523438 4.390625 103.523438 C 3.921875 103.902344 2.679688 104.957031 4.105469 105.140625 " fill-opacity="1" fill-rule="nonzero"/><path fill="#fcedd4" d="M 3.445312 109.144531 L 14.496094 109.050781 L 14.496094 118.109375 C 14.496094 118.109375 66.347656 118.109375 74.160156 118.007812 C 74.730469 114.296875 76.925781 110.671875 80.546875 109.144531 L 83.117188 108.574219 L 98.179688 108.382812 C 98.464844 107.71875 98.464844 106.957031 98.371094 106.289062 L 82.070312 106.480469 C 78.164062 106.574219 74.445312 109.238281 72.828125 112.765625 C 72.351562 113.71875 72.253906 114.867188 71.589844 115.722656 C 71.589844 115.722656 16.6875 115.722656 16.597656 115.722656 L 16.597656 107.050781 C 16.597656 107.050781 4.207031 107.050781 4.300781 107.050781 C 3.535156 107.335938 3.445312 109.144531 3.445312 109.144531 " fill-opacity="1" fill-rule="nonzero"/><path fill="#fcedd4" d="M 5.347656 112.578125 C 6.394531 112.765625 7.347656 112.386719 7.917969 111.816406 C 6.96875 111.433594 5.632812 111.625 4.207031 111.71875 C 4.390625 112.195312 4.871094 112.671875 5.347656 112.578125 " fill-opacity="1" fill-rule="nonzero"/><path fill="#fcedd4" d="M 6.207031 105.71875 C 8.679688 105.527344 11.828125 106.003906 14.402344 105.425781 C 11.828125 103.714844 8.109375 103.808594 5.539062 105.527344 L 6.207031 105.71875 " fill-opacity="1" fill-rule="nonzero"/><path fill="#fcedd4" d="M 8.109375 103.238281 C 8.109375 102.667969 7.347656 102.285156 6.871094 102.09375 C 6.492188 102.191406 6.015625 102.191406 5.917969 102.570312 L 6.683594 103.523438 L 8.109375 103.238281 " fill-opacity="1" fill-rule="nonzero"/><path fill="#fcedd4" d="M 11.066406 103.046875 C 10.96875 102.476562 10.304688 101.808594 9.828125 101.429688 C 9.351562 101.238281 8.78125 101.429688 8.304688 101.617188 C 8.964844 102.476562 9.730469 103.617188 11.066406 103.046875 " fill-opacity="1" fill-rule="nonzero"/><path fill="#fcedd4" d="M 15.070312 104.1875 C 14.6875 102.953125 13.253906 102.09375 12.398438 101.136719 L 11.066406 101.136719 C 12.113281 102.476562 13.164062 104.1875 15.070312 104.1875 " fill-opacity="1" fill-rule="nonzero"/><path fill="#fcedd4" d="M 17.257812 105.8125 L 20.214844 108.191406 L 20.214844 108.003906 C 19.074219 105.8125 18.308594 103.429688 16.210938 101.617188 C 15.640625 101.523438 15.070312 101.332031 14.496094 101.429688 C 15.640625 102.667969 16.597656 104.285156 17.257812 105.8125 " fill-opacity="1" fill-rule="nonzero"/><path fill="#fcedd4" d="M 17.929688 114.296875 C 17.929688 114.296875 27.839844 114.296875 27.652344 114.296875 C 22.886719 112.195312 19.835938 109.816406 17.835938 107.90625 C 17.929688 107.8125 17.929688 114.296875 17.929688 114.296875 " fill-opacity="1" fill-rule="nonzero"/><path fill="#fcedd4" d="M 21.546875 108.382812 C 21.457031 108.574219 21.363281 108.667969 21.171875 108.765625 L 20.976562 108.765625 C 23.933594 110.863281 27.078125 112.957031 30.601562 114.003906 C 36.894531 114.582031 43.570312 113.71875 49.097656 111.054688 C 49.667969 110.769531 49.953125 109.90625 50.714844 110.191406 C 51.191406 112.003906 52.808594 113.71875 54.71875 114.003906 C 57.097656 114.582031 58.910156 113.054688 60.246094 111.339844 C 60.339844 110.957031 60.53125 110.484375 61.007812 110.292969 C 64.726562 112.292969 68.917969 110.578125 71.875 108.097656 C 75.117188 105.425781 79.304688 103.714844 83.785156 104.1875 C 83.695312 103.808594 83.59375 103.429688 83.402344 103.140625 C 83.214844 103.332031 83.023438 103.902344 82.546875 103.714844 C 82.167969 102.953125 82.167969 101.90625 81.40625 101.332031 C 81.40625 101.90625 81.691406 103.140625 81.023438 103.714844 L 80.644531 103.523438 C 80.453125 102.09375 80.453125 100.375 79.019531 99.710938 C 79.40625 100.953125 79.785156 103.046875 78.929688 104.1875 C 78.542969 104.285156 78.449219 103.808594 78.542969 103.523438 C 78.828125 101.523438 77.78125 99.710938 76.355469 98.566406 C 77.019531 100.089844 77.878906 102.09375 77.210938 103.714844 L 76.832031 103.617188 C 76.449219 101.617188 75.972656 99.234375 73.875 98.1875 C 74.640625 100.191406 75.78125 102.285156 75.117188 104.570312 C 74.925781 104.855469 74.539062 104.957031 74.445312 104.570312 C 74.539062 102 73.96875 99.804688 72.253906 97.996094 L 71.207031 97.328125 C 72.636719 99.234375 73.777344 101.808594 73.113281 104.480469 C 72.828125 105.527344 72.730469 106.667969 71.589844 107.335938 C 71.113281 107.242188 71.304688 106.667969 71.398438 106.382812 C 72.253906 104.957031 72.445312 103.140625 72.160156 101.429688 C 71.78125 99.519531 70.066406 97.710938 68.15625 97.328125 C 66.722656 96.949219 65.582031 97.425781 64.4375 97.996094 C 62.726562 99.140625 62.34375 101.238281 62.726562 103.046875 C 63.105469 104.285156 63.964844 105.527344 65.199219 106.097656 C 65.960938 106.574219 67.203125 106.574219 67.964844 106.097656 C 69.109375 105.335938 69.585938 104.1875 69.585938 102.855469 C 69.394531 101.90625 68.824219 101.136719 67.964844 100.761719 C 67.203125 100.667969 66.632812 101.136719 66.246094 101.808594 C 65.867188 102.855469 66.539062 103.808594 66.824219 104.765625 C 66.632812 105.050781 66.246094 104.765625 66.0625 104.664062 C 65.199219 103.808594 64.820312 102.761719 65.105469 101.523438 C 65.390625 100.667969 65.960938 99.613281 67.015625 99.425781 C 68.0625 99.425781 69.015625 99.613281 69.679688 100.476562 C 70.921875 102 70.828125 104.480469 69.964844 106.097656 C 68.347656 108.191406 65.960938 109.714844 63.199219 109.429688 C 62.914062 109.238281 62.914062 108.953125 63.199219 108.859375 C 64.34375 108.667969 65.296875 108.289062 66.246094 107.621094 C 64.820312 107.335938 63.296875 106.574219 62.535156 105.242188 C 60.339844 102.953125 59.578125 99.996094 59.292969 96.847656 C 59.007812 96.847656 58.625 96.5625 58.339844 96.847656 C 57.007812 99.710938 56.527344 103.046875 56.242188 106.289062 C 57.007812 106.765625 57.769531 107.242188 57.769531 108.191406 C 57.769531 108.953125 57.199219 109.816406 56.4375 110.101562 C 55.765625 110.191406 55.386719 110.101562 54.910156 109.714844 C 54.527344 109.238281 53.765625 108.765625 53.957031 108.003906 C 54.050781 107.242188 54.8125 106.667969 55.195312 106.003906 C 55.480469 102.761719 56.4375 99.710938 57.382812 96.757812 L 57.292969 96.5625 C 54.242188 100.476562 50.621094 104.1875 46.519531 106.957031 C 46.140625 107.8125 46.332031 109.238281 44.996094 109.429688 C 44.230469 109.53125 43.089844 109.429688 42.898438 108.476562 C 42.804688 107.71875 42.898438 106.859375 43.570312 106.289062 C 44.332031 105.8125 45.09375 106.097656 45.949219 106.097656 C 49.761719 103.808594 53.289062 99.996094 56.152344 96.5625 C 56.050781 96.085938 55.859375 95.515625 55.574219 95.230469 C 53.574219 95.617188 51.761719 96.277344 49.667969 96.472656 C 49.476562 97.328125 48.714844 98.378906 47.664062 98.1875 C 46.996094 98.28125 46.425781 97.710938 46.140625 97.140625 C 45.949219 96.5625 45.949219 95.617188 46.425781 95.136719 C 46.902344 94.753906 47.378906 94.46875 47.949219 94.5625 C 48.519531 94.5625 49 94.945312 49.382812 95.421875 C 51.667969 95.324219 53.765625 94.660156 55.765625 93.992188 C 56.621094 93.613281 56.527344 92.660156 56.8125 91.898438 C 54.242188 90.941406 51.953125 89.703125 50.429688 87.324219 C 50.523438 85.984375 49.382812 85.128906 49.570312 83.890625 C 48.714844 84.175781 48.519531 85.320312 47.859375 85.890625 C 47.378906 85.222656 47.949219 84.460938 48.234375 83.796875 C 49.761719 81.21875 52.332031 79.984375 55.097656 79.886719 C 56.722656 80.078125 58.4375 80.554688 59.292969 82.078125 C 59.863281 82.648438 59.675781 83.796875 59.484375 84.558594 C 59.199219 85.507812 58.246094 86.175781 57.382812 86.460938 C 55.859375 86.5625 54.050781 86.277344 53.09375 84.9375 C 53.003906 84.746094 52.910156 84.273438 53.195312 84.175781 C 54.050781 83.890625 54.433594 85.035156 55.195312 85.128906 C 56.152344 85.414062 57.199219 85.507812 57.960938 84.84375 C 58.53125 84.175781 58.53125 83.21875 58.148438 82.558594 C 57.382812 81.410156 56.152344 81.125 54.8125 81.125 C 53.386719 81.125 52.238281 81.601562 51.285156 82.648438 C 50.714844 83.511719 50.523438 84.9375 51.09375 85.796875 C 52.71875 88.464844 55.671875 88.371094 58.53125 87.984375 C 59.960938 87.507812 61.386719 86.847656 62.148438 85.320312 C 62.914062 83.511719 62.25 81.410156 61.007812 79.984375 C 58.816406 77.3125 55.386719 77.789062 52.523438 78.554688 C 49.097656 79.886719 46.140625 83.035156 46.140625 87.039062 C 46.042969 88.5625 46.332031 90.085938 46.804688 91.417969 C 45.855469 92.375 44.230469 92.753906 43.285156 93.898438 C 43.570312 94.5625 42.804688 94.945312 42.992188 95.617188 C 42.515625 97.804688 44.140625 99.710938 45.855469 100.851562 C 46.234375 101.136719 46.710938 101.136719 46.996094 101.523438 L 46.902344 101.90625 C 42.328125 106.574219 36.707031 109.144531 30.796875 110.671875 C 35.371094 112.863281 41.375 112.578125 45.949219 110.671875 C 46.234375 110.671875 46.519531 110.578125 46.519531 110.863281 L 46.519531 111.148438 C 40.992188 113.910156 33.464844 113.625 28.128906 110.484375 C 26.027344 108.667969 24.027344 106.574219 23.933594 103.902344 L 24.21875 100.761719 C 23.363281 100.191406 22.59375 100.851562 21.832031 101.238281 C 20.976562 101.714844 20.976562 102.667969 20.214844 103.140625 L 18.597656 102.476562 C 19.453125 104.378906 20.5 106.382812 21.546875 108.382812 " fill-opacity="1" fill-rule="nonzero"/><path fill="#fcedd4" d="M 20.40625 108.289062 L 20.601562 108.574219 L 20.691406 108.476562 L 20.40625 108.289062 " fill-opacity="1" fill-rule="nonzero"/><path fill="#2f5982" d="M 29.269531 113.148438 C 29.460938 113.148438 29.746094 113.242188 29.648438 112.957031 C 29.175781 112.195312 28.03125 111.910156 27.363281 111.246094 C 24.503906 108.667969 22.125 105.140625 23.363281 101.429688 C 23.265625 101.136719 22.980469 101.238281 22.789062 101.332031 C 21.742188 103.714844 22.023438 106.667969 23.648438 108.765625 C 25.171875 110.578125 27.078125 112.292969 29.269531 113.148438 " fill-opacity="1" fill-rule="nonzero"/><path fill="#fcedd4" d="M 45.570312 114.296875 C 45.757812 114.195312 45.664062 114.003906 45.664062 113.910156 C 45.472656 113.625 45.1875 113.820312 45.09375 114.003906 C 44.996094 114.390625 45.28125 114.105469 45.570312 114.296875 " fill-opacity="1" fill-rule="nonzero"/><path fill="#fcedd4" d="M 47.472656 114.195312 L 47.472656 113.148438 C 47.1875 113.054688 46.902344 113.148438 46.710938 113.339844 L 46.804688 114.195312 L 47.472656 114.195312 " fill-opacity="1" fill-rule="nonzero"/><path fill="#fcedd4" d="M 48.519531 114.296875 C 48.714844 114.390625 48.90625 114.296875 49.097656 114.296875 C 49.191406 113.71875 49.285156 112.957031 49 112.386719 C 48.042969 112.480469 48.621094 113.71875 48.519531 114.296875 " fill-opacity="1" fill-rule="nonzero"/><path fill="#fcedd4" d="M 50.714844 114.296875 L 50.808594 114.296875 C 50.90625 113.71875 50.808594 113.054688 50.332031 112.578125 C 50.144531 113.054688 50.238281 113.71875 50.238281 114.296875 L 50.714844 114.296875 " fill-opacity="1" fill-rule="nonzero"/><path fill="#fcedd4" d="M 59.101562 90.847656 C 64.058594 91.132812 67.394531 86.652344 72.253906 87.039062 C 72.445312 87.128906 72.351562 87.507812 72.160156 87.507812 C 67.964844 88.65625 63.105469 90.371094 61.203125 94.851562 C 60.726562 96.472656 60.148438 98.472656 61.007812 99.996094 C 60.910156 100.375 61.007812 100.667969 61.203125 100.953125 L 61.386719 100.953125 C 61.578125 96.847656 63.867188 93.136719 67.492188 91.035156 C 69.679688 89.894531 71.96875 88.847656 74.539062 88.65625 C 74.824219 87.507812 75.015625 86.082031 75.117188 84.84375 C 71.304688 84.460938 67.777344 85.984375 64.25 86.847656 C 60.910156 88.269531 57.199219 90.085938 53.386719 89.035156 C 54.910156 90.464844 57.097656 90.5625 59.101562 90.847656 " fill-opacity="1" fill-rule="nonzero"/><path fill="#fcedd4" d="M 59.292969 95.421875 L 59.675781 95.421875 L 60.816406 92.183594 C 60.054688 92.375 57.769531 91.226562 57.667969 93.039062 C 57.484375 93.707031 57.007812 94.277344 57.097656 95.039062 L 59.292969 95.421875 " fill-opacity="1" fill-rule="nonzero"/><path fill="#fcedd4" d="M 58.53125 125.730469 C 59.007812 126.300781 59.863281 126.492188 60.53125 126.207031 C 61.007812 125.921875 61.671875 125.445312 61.386719 124.683594 C 61.386719 124.207031 61.007812 123.824219 60.53125 123.636719 C 60.054688 123.636719 59.578125 124.015625 59.386719 124.492188 C 59.484375 124.777344 59.484375 125.253906 59.199219 125.445312 C 58.722656 125.445312 58.53125 124.777344 58.625 124.398438 C 58.625 123.445312 59.199219 122.683594 59.960938 122.011719 C 61.773438 120.488281 64.4375 120.871094 66.632812 121.535156 C 71.113281 123.058594 74.0625 127.824219 78.542969 129.449219 C 78.828125 129.449219 79.214844 129.160156 79.304688 128.875 C 79.589844 127.640625 77.496094 127.449219 78.257812 126.300781 C 83.117188 129.066406 89.984375 128.210938 94.558594 125.347656 C 96.082031 124.207031 97.609375 123.160156 98.75 121.632812 C 99.511719 122.011719 99.035156 123.253906 99.703125 123.921875 C 100.464844 124.871094 101.613281 125.160156 102.558594 124.871094 C 103.613281 124.585938 104.5625 123.539062 104.851562 122.488281 C 104.851562 121.34375 104.375 120.296875 103.324219 119.726562 C 102.753906 119.441406 102.183594 119.824219 101.703125 119.917969 C 101.035156 120.394531 100.75 121.25 100.847656 122.011719 C 100.941406 123.058594 102.183594 123.058594 102.851562 123.636719 C 102.851562 124.109375 102.273438 124.109375 101.988281 124.109375 C 101.132812 124.015625 100.371094 123.253906 100.179688 122.488281 C 99.894531 121.726562 99.894531 120.582031 100.371094 119.917969 C 101.132812 118.585938 102.558594 117.914062 104.183594 118.007812 C 104.851562 117.628906 104.277344 116.582031 104.46875 115.820312 C 103.324219 115.535156 102.273438 116.390625 101.328125 116.867188 C 98.941406 119.15625 97.324219 122.203125 94.273438 123.730469 C 91.21875 126.207031 87.027344 127.734375 83.117188 126.777344 C 77.496094 125.445312 73.113281 120.964844 67.203125 120.203125 C 63.867188 120.394531 59.007812 119.0625 57.863281 123.058594 C 57.578125 124.109375 57.863281 124.96875 58.53125 125.730469 " fill-opacity="1" fill-rule="nonzero"/><path fill="#fcedd4" d="M 60.53125 114.390625 C 61.101562 114.390625 60.910156 113.625 60.910156 113.339844 L 60.816406 113.054688 C 60.339844 113.242188 60.148438 114.003906 60.53125 114.390625 " fill-opacity="1" fill-rule="nonzero"/><path fill="#fcedd4" d="M 62.433594 114.296875 C 63.105469 114.003906 62.433594 113.148438 62.726562 112.578125 C 62.628906 112.386719 62.433594 112.101562 62.148438 112.195312 C 61.773438 112.578125 62.058594 113.527344 61.957031 114.195312 L 62.433594 114.296875 " fill-opacity="1" fill-rule="nonzero"/><path fill="#fcedd4" d="M 63.582031 97.140625 C 63.867188 97.328125 64.152344 97.042969 64.25 96.757812 C 64.25 96.472656 64.34375 95.992188 64.152344 95.707031 C 63.867188 96.085938 63.390625 96.5625 63.582031 97.140625 " fill-opacity="1" fill-rule="nonzero"/><path fill="#fcedd4" d="M 64.4375 114.296875 C 64.535156 113.71875 64.628906 112.863281 64.34375 112.386719 C 64.058594 112.386719 63.773438 112.386719 63.675781 112.578125 L 63.867188 114.296875 L 64.4375 114.296875 " fill-opacity="1" fill-rule="nonzero"/><path fill="#fcedd4" d="M 65.296875 96.1875 C 66.152344 96.472656 65.960938 95.421875 65.960938 94.851562 L 65.867188 93.613281 C 64.914062 93.992188 65.296875 95.324219 65.296875 96.1875 " fill-opacity="1" fill-rule="nonzero"/><path fill="#fcedd4" d="M 66.246094 114.296875 C 65.867188 113.625 66.824219 112.195312 65.675781 112.292969 C 65.484375 112.863281 65.582031 113.71875 65.582031 114.296875 L 66.246094 114.296875 " fill-opacity="1" fill-rule="nonzero"/><path fill="#fcedd4" d="M 67.300781 81.988281 C 67.585938 82.273438 67.871094 82.363281 68.253906 82.363281 C 67.777344 81.410156 67.585938 80.078125 68.0625 79.03125 C 68.632812 77.882812 69.871094 77.503906 71.011719 77.40625 C 71.78125 77.3125 72.542969 77.789062 73.207031 77.121094 C 73.398438 76.929688 73.492188 76.550781 73.304688 76.265625 C 72.445312 75.21875 71.113281 75.410156 70.15625 74.835938 C 69.964844 73.878906 69.679688 72.546875 70.15625 71.691406 C 71.011719 71.878906 72.351562 71.691406 72.730469 72.738281 C 72.828125 73.695312 73.113281 74.550781 73.683594 75.21875 C 74.160156 75.503906 74.640625 75.3125 75.117188 75.121094 C 75.878906 73.980469 75.015625 72.070312 76.257812 71.023438 C 77.117188 70.261719 78.351562 69.976562 79.40625 70.351562 C 80.070312 70.546875 80.546875 71.40625 81.121094 71.785156 C 81.5 71.308594 81.121094 70.644531 81.023438 70.167969 C 80.359375 69.113281 79.214844 69.113281 78.164062 68.925781 C 76.640625 69.113281 75.496094 70.644531 74.824219 71.878906 C 74.253906 72.738281 74.925781 73.980469 74.253906 74.835938 C 72.828125 74.171875 74.640625 71.878906 72.921875 71.308594 C 71.398438 71.121094 70.25 70.644531 68.726562 70.738281 C 68.539062 72.070312 68.632812 73.695312 68.824219 75.121094 C 69.394531 76.167969 70.921875 75.789062 71.875 76.167969 C 72.160156 76.359375 72.253906 76.644531 72.160156 76.835938 L 71.875 77.121094 C 70.636719 77.21875 68.917969 76.550781 67.777344 77.699219 C 66.4375 78.746094 66.4375 80.746094 67.300781 81.988281 " fill-opacity="1" fill-rule="nonzero"/><path fill="#fcedd4" d="M 67.585938 95.902344 C 67.777344 94.753906 67.679688 93.515625 67.679688 92.273438 C 67.394531 92.375 67.109375 92.46875 67.015625 92.753906 L 67.109375 95.902344 L 67.585938 95.902344 " fill-opacity="1" fill-rule="nonzero"/><path fill="#fcedd4" d="M 67.679688 114.296875 L 67.871094 114.296875 C 68.15625 113.433594 67.964844 112.671875 67.871094 111.816406 C 67.679688 111.816406 67.300781 111.816406 67.203125 112.003906 C 67.394531 112.765625 67.015625 114.105469 67.679688 114.296875 " fill-opacity="1" fill-rule="nonzero"/><path fill="#fcedd4" d="M 68.824219 95.707031 C 69.015625 95.902344 69.109375 95.707031 69.300781 95.707031 C 69.585938 94.375 69.488281 92.851562 69.394531 91.417969 C 68.726562 91.226562 68.726562 92.089844 68.726562 92.558594 L 68.824219 95.707031 " fill-opacity="1" fill-rule="nonzero"/><path fill="#fcedd4" d="M 69.109375 81.410156 C 70.535156 79.886719 73.683594 80.839844 73.875 78.269531 C 72.160156 78.839844 69.488281 77.597656 68.824219 79.886719 C 68.824219 80.457031 68.726562 81.125 69.109375 81.410156 " fill-opacity="1" fill-rule="nonzero"/><path fill="#fcedd4" d="M 69.109375 114.296875 C 69.488281 114.582031 69.679688 114.003906 69.679688 113.625 C 69.585938 112.765625 69.773438 111.71875 69.488281 111.054688 L 69.015625 111.339844 L 69.109375 114.296875 " fill-opacity="1" fill-rule="nonzero"/><path fill="#fcedd4" d="M 71.011719 95.902344 C 71.398438 94.277344 71.113281 92.375 71.113281 90.75 C 70.921875 90.65625 70.535156 90.65625 70.535156 90.847656 L 70.535156 95.707031 L 71.011719 95.902344 " fill-opacity="1" fill-rule="nonzero"/><path fill="#fcedd4" d="M 70.828125 114.003906 C 71.589844 113.054688 71.492188 111.433594 71.304688 110.007812 C 71.011719 110.101562 70.535156 110.386719 70.636719 110.769531 L 70.828125 114.003906 " fill-opacity="1" fill-rule="nonzero"/><path fill="#fcedd4" d="M 71.589844 74.070312 L 71.78125 74.070312 C 72.066406 73.785156 71.78125 73.5 71.78125 73.214844 C 71.589844 72.929688 71.207031 72.929688 70.921875 73.023438 C 70.726562 73.5 71.011719 74.070312 71.589844 74.070312 " fill-opacity="1" fill-rule="nonzero"/><path fill="#fcedd4" d="M 76.734375 122.773438 C 76.257812 122.011719 76.449219 120.296875 75.117188 120.488281 L 72.160156 120.488281 L 76.734375 122.773438 " fill-opacity="1" fill-rule="nonzero"/><path fill="#fcedd4" d="M 72.828125 96.1875 L 72.828125 90.273438 C 72.730469 90.179688 72.253906 90.085938 72.160156 90.464844 L 72.253906 96.1875 L 72.828125 96.1875 " fill-opacity="1" fill-rule="nonzero"/><path fill="#fcedd4" d="M 72.542969 110.769531 C 73.015625 110.386719 73.113281 109.621094 73.113281 108.953125 C 73.113281 108.574219 72.636719 108.859375 72.542969 108.953125 C 72.253906 109.53125 72.542969 110.292969 72.542969 110.769531 " fill-opacity="1" fill-rule="nonzero"/><path fill="#fcedd4" d="M 73.96875 96.5625 C 74.160156 96.757812 74.445312 96.949219 74.730469 96.949219 L 74.730469 89.988281 C 74.445312 89.800781 74.160156 89.988281 73.875 89.988281 C 73.875 92.089844 73.875 94.375 73.96875 96.5625 " fill-opacity="1" fill-rule="nonzero"/><path fill="#fcedd4" d="M 74.160156 108.574219 C 74.445312 108.667969 74.730469 108.191406 74.925781 108.003906 C 74.925781 107.8125 75.015625 107.527344 74.824219 107.429688 C 74.539062 107.621094 73.875 107.71875 74.0625 108.289062 C 74.160156 108.382812 74.160156 108.476562 74.160156 108.574219 " fill-opacity="1" fill-rule="nonzero"/><path fill="#fcedd4" d="M 74.445312 76.742188 C 74.640625 76.742188 74.640625 76.550781 74.824219 76.457031 C 74.640625 76.359375 74.355469 76.457031 74.445312 76.742188 " fill-opacity="1" fill-rule="nonzero"/><path fill="#fcedd4" d="M 75.972656 80.171875 C 76.925781 80.363281 77.78125 79.984375 78.449219 79.222656 C 78.644531 78.554688 78.644531 77.789062 78.164062 77.21875 C 77.402344 76.742188 76.449219 76.457031 75.6875 77.027344 C 74.445312 77.699219 74.730469 79.695312 75.972656 80.171875 " fill-opacity="1" fill-rule="nonzero"/><path fill="#fcedd4" d="M 77.6875 61.96875 C 79.214844 63.492188 81.785156 63.589844 83.695312 62.730469 C 85.695312 61.683594 86.457031 59.394531 86.550781 57.300781 C 86.550781 55.582031 86.167969 53.964844 84.640625 52.820312 C 83.308594 51.957031 81.40625 52.148438 80.070312 52.914062 C 79.113281 54.058594 78.449219 55.484375 78.644531 56.917969 C 78.734375 57.777344 79.304688 58.632812 80.167969 59.015625 C 80.738281 59.394531 81.785156 59.300781 82.261719 58.824219 C 83.308594 58.15625 83.402344 57.007812 83.402344 55.960938 C 83.214844 55.011719 82.355469 54.4375 82.261719 53.582031 C 82.640625 53.105469 83.117188 53.675781 83.5 53.867188 C 84.640625 55.011719 85.027344 57.109375 84.265625 58.539062 C 83.59375 59.394531 82.640625 60.25 81.59375 60.441406 C 79.589844 60.636719 78.066406 58.917969 77.304688 57.203125 C 76.542969 55.011719 76.925781 52.25 78.542969 50.53125 C 78.929688 50.148438 79.5 49.675781 80.070312 49.863281 C 80.070312 50.625 79.019531 51.101562 78.734375 51.863281 C 78.734375 52.058594 78.542969 52.25 78.542969 52.535156 C 80.167969 51.386719 82.546875 50.722656 84.550781 51.578125 C 85.3125 51.957031 85.980469 52.433594 86.550781 53.105469 C 86.742188 52.914062 87.027344 52.71875 87.3125 53.011719 C 88.746094 54.25 89.886719 55.867188 90.363281 57.585938 C 90.839844 58.15625 91.601562 57.585938 92.171875 57.679688 C 93.128906 55.582031 93.320312 53.011719 93.414062 50.53125 C 92.75 50.148438 92.648438 49.386719 92.648438 48.722656 C 92.84375 48.054688 93.21875 47.382812 93.984375 47.292969 C 94.746094 47.199219 95.699219 47.667969 95.890625 48.4375 C 96.175781 49.484375 95.507812 50.148438 94.746094 50.625 L 93.414062 57.488281 C 95.699219 57.679688 97.039062 55.011719 98.75 53.675781 L 104.46875 46.8125 C 103.898438 46.152344 103.898438 45.003906 104.46875 44.335938 C 105.136719 43.765625 105.992188 43.574219 106.847656 43.859375 C 107.613281 44.148438 107.902344 44.910156 107.996094 45.671875 C 107.804688 46.4375 107.425781 47.484375 106.472656 47.484375 L 105.421875 47.484375 C 102.183594 51.292969 98.847656 55.199219 94.9375 58.539062 C 95.035156 58.917969 94.84375 59.300781 95.128906 59.585938 C 98.464844 58.539062 102.183594 57.488281 105.902344 57.394531 C 106.378906 56.722656 107.140625 55.582031 108.1875 55.960938 C 108.757812 56.152344 109.519531 56.632812 109.804688 57.394531 C 109.804688 58.15625 109.613281 58.824219 109.042969 59.300781 C 108.472656 59.773438 107.710938 59.871094 107.140625 59.679688 C 106.085938 57.871094 103.898438 58.726562 102.273438 58.726562 C 99.703125 58.917969 97.222656 59.679688 95.035156 60.828125 C 94.84375 61.011719 94.84375 61.296875 94.84375 61.589844 C 97.507812 61.96875 100.941406 61.113281 102.660156 63.589844 C 104.375 64.160156 105.515625 65.878906 105.707031 67.6875 C 105.617188 68.351562 105.617188 68.734375 105.515625 69.304688 C 107.140625 68.257812 107.804688 66.449219 107.902344 64.640625 C 107.996094 64.445312 108.1875 64.355469 108.28125 64.539062 C 108.851562 66.449219 107.902344 68.351562 106.757812 69.78125 C 105.136719 71.59375 102.945312 72.355469 100.5625 72.167969 C 99.035156 72.070312 97.703125 71.023438 97.132812 69.589844 C 96.746094 68.640625 96.9375 67.496094 97.609375 66.734375 C 97.988281 65.972656 98.847656 65.78125 99.609375 65.6875 C 100.75 65.6875 101.988281 66.164062 102.558594 67.304688 C 102.753906 68.066406 103.421875 69.113281 102.558594 69.691406 C 101.613281 69.496094 101.988281 68.257812 101.417969 67.6875 C 100.65625 67.117188 99.609375 66.925781 98.75 67.304688 C 98.179688 67.6875 98.179688 68.640625 98.464844 69.210938 C 99.324219 70.644531 100.847656 70.832031 102.273438 70.738281 C 103.230469 70.546875 104.089844 69.691406 104.375 68.828125 C 104.753906 67.78125 104.277344 66.734375 103.898438 65.878906 C 102.46875 64.445312 100.273438 63.875 98.464844 64.445312 C 97.222656 64.925781 96.082031 65.59375 95.414062 66.832031 C 94.746094 68.542969 95.222656 70.546875 96.367188 71.878906 C 97.507812 73.402344 99.324219 73.785156 101.035156 73.980469 C 102.851562 73.878906 104.46875 73.308594 106.085938 72.738281 C 106.378906 72.640625 106.378906 73.023438 106.277344 73.117188 C 103.515625 74.835938 99.609375 75.597656 96.652344 73.785156 L 95.507812 72.832031 C 95.605469 73.5 95.890625 74.265625 96.460938 74.835938 C 98.371094 77.027344 101.703125 76.359375 104.089844 75.980469 C 104.375 76.359375 103.898438 76.742188 103.613281 76.835938 C 101.511719 77.597656 98.5625 77.503906 96.746094 76.742188 C 98.085938 78.746094 100.5625 78.929688 102.558594 79.222656 C 102.753906 79.316406 102.945312 79.601562 102.753906 79.792969 L 102.273438 79.984375 C 101.035156 80.078125 99.609375 79.695312 98.273438 79.410156 C 99.132812 81.125 101.035156 80.839844 102.660156 81.316406 L 102.851562 81.601562 C 102.273438 82.363281 101.226562 81.886719 100.371094 81.988281 C 100.75 83.035156 102.089844 82.363281 102.753906 83.035156 C 102.851562 83.699219 101.988281 83.511719 101.613281 83.699219 C 101.988281 84.558594 103.230469 84.273438 103.898438 84.84375 C 102.851562 82.078125 103.515625 79.03125 104.851562 76.550781 C 106.949219 72.355469 111.238281 68.542969 109.425781 63.113281 C 109.90625 62.160156 111.238281 62.253906 111.90625 61.398438 C 113.140625 60.535156 113.238281 59.015625 113.429688 57.679688 C 113.523438 55.011719 111.808594 52.535156 109.425781 51.386719 C 108.851562 50.53125 110.28125 49.863281 110.476562 49.007812 C 113.523438 44.621094 113.714844 38.234375 112.285156 32.992188 C 111.238281 30.226562 110.761719 27.179688 109.042969 24.699219 C 108.949219 24.992188 109.140625 25.277344 108.851562 25.371094 C 107.613281 24.890625 107.140625 23.652344 105.902344 23.082031 C 104.46875 22.128906 102.753906 21.558594 101.613281 20.125 C 101.613281 19.941406 101.613281 19.460938 101.988281 19.554688 C 104.183594 20.796875 106.664062 21.84375 108.378906 23.9375 C 107.902344 21.464844 105.800781 20.511719 104.089844 18.984375 C 102.558594 18.316406 101.226562 17.363281 99.894531 16.222656 C 99.988281 18.316406 101.511719 20.316406 102.183594 22.414062 C 102.089844 22.703125 101.613281 22.605469 101.328125 22.796875 C 100.5625 23.367188 99.894531 24.128906 99.894531 25.085938 L 99.988281 25.847656 C 103.230469 26.230469 106.378906 26.992188 108.472656 29.757812 C 112.476562 34.425781 113.046875 41.953125 110.476562 47.578125 C 109.804688 48.246094 109.710938 49.960938 108.566406 49.578125 L 108.472656 49.292969 C 112 44.910156 111.808594 37.574219 109.328125 32.707031 C 108.757812 32.136719 108.566406 31.46875 107.902344 31.089844 C 107.996094 38.042969 101.988281 42.71875 99.417969 48.722656 C 98.65625 48.53125 99.132812 47.578125 98.847656 47.097656 C 97.988281 45.765625 96.460938 44.335938 94.652344 44.433594 C 93.320312 44.527344 92.078125 44.910156 91.03125 45.859375 C 90.171875 46.8125 89.984375 48.144531 89.695312 49.386719 C 88.839844 49.578125 88.359375 48.4375 87.597656 48.246094 C 84.640625 47.097656 80.359375 47.382812 77.878906 49.863281 C 75.59375 51.863281 74.730469 55.011719 75.300781 57.964844 C 75.496094 59.585938 76.449219 60.921875 77.6875 61.96875 " fill-opacity="1" fill-rule="nonzero"/><path fill="#fcedd4" d="M 84.265625 101.046875 C 86.359375 101.90625 88.460938 102.476562 90.746094 102.570312 C 90.554688 101.332031 89.886719 100.191406 89.125 99.234375 C 85.410156 97.996094 81.691406 95.421875 79.976562 91.703125 C 78.929688 89.417969 79.019531 86.277344 80.546875 84.175781 C 81.214844 82.933594 82.640625 82.648438 83.402344 81.695312 L 82.832031 77.984375 C 79.882812 78.644531 76.925781 81.507812 76.257812 84.460938 C 74.445312 91.132812 78.164062 97.996094 84.265625 101.046875 " fill-opacity="1" fill-rule="nonzero"/><path fill="#fcedd4" d="M 75.972656 97.140625 L 76.257812 97.042969 C 76.164062 95.800781 76.734375 94.089844 75.78125 93.136719 C 75.878906 94.46875 75.59375 95.992188 75.972656 97.140625 " fill-opacity="1" fill-rule="nonzero"/><path fill="#fcedd4" d="M 76.066406 107.144531 C 76.257812 107.144531 76.355469 106.957031 76.542969 106.859375 C 76.542969 106.765625 76.542969 106.667969 76.449219 106.574219 C 76.164062 106.574219 75.878906 106.957031 76.066406 107.144531 " fill-opacity="1" fill-rule="nonzero"/><path fill="#fcedd4" d="M 78.929688 72.640625 L 79.5 71.976562 C 79.113281 71.308594 78.351562 71.214844 77.6875 71.40625 C 75.878906 72.070312 76.542969 74.265625 75.972656 75.695312 C 77.878906 75.695312 78.257812 73.980469 78.929688 72.640625 " fill-opacity="1" fill-rule="nonzero"/><path fill="#fcedd4" d="M 78.734375 123.636719 C 81.214844 125.347656 84.265625 126.585938 87.40625 125.921875 C 94.460938 124.398438 100.75 117.914062 102.183594 110.863281 C 102.753906 108.953125 102.945312 106.765625 103.136719 104.570312 C 102.183594 104.285156 100.847656 104.285156 99.894531 104.570312 C 99.324219 111.054688 96.9375 118.109375 90.457031 121.15625 C 88.269531 122.488281 85.027344 123.160156 82.546875 121.726562 C 81.40625 121.15625 80.738281 120.109375 80.453125 119.0625 C 80.359375 117.53125 81.121094 116.105469 82.453125 115.34375 C 83.308594 114.867188 84.355469 115.152344 85.121094 115.628906 C 86.074219 116.292969 86.550781 117.34375 86.550781 118.484375 C 88.074219 118.484375 89.410156 117.628906 90.554688 116.582031 C 92.171875 115.058594 93.796875 113.148438 94.460938 111.148438 C 93.320312 110.769531 91.695312 110.863281 90.269531 111.054688 L 88.839844 113.054688 C 87.984375 112.957031 88.074219 112.003906 87.3125 111.816406 C 84.355469 110.292969 81.023438 111.054688 78.542969 113.054688 C 76.925781 114.675781 75.878906 116.867188 76.449219 119.347656 C 76.832031 120.871094 77.402344 122.398438 78.734375 123.636719 " fill-opacity="1" fill-rule="nonzero"/><path fill="#fcedd4" d="M 78.066406 98.1875 L 78.734375 98.28125 L 77.402344 96.378906 C 77.402344 96.847656 77.304688 97.425781 77.496094 97.804688 L 78.066406 98.1875 " fill-opacity="1" fill-rule="nonzero"/><path fill="#fcedd4" d="M 78.734375 105.8125 L 77.6875 106.003906 L 77.6875 106.195312 Z M 78.734375 105.8125 " fill-opacity="1" fill-rule="nonzero"/><path fill="#fcedd4" d="M 80.738281 89.988281 C 86.074219 93.324219 91.601562 98.28125 92.363281 104.765625 L 95.414062 104.855469 C 95.320312 98.851562 91.792969 93.707031 87.121094 89.703125 C 85.21875 88.371094 83.117188 87.222656 80.929688 86.652344 C 80.359375 87.609375 80.453125 88.941406 80.738281 89.988281 " fill-opacity="1" fill-rule="nonzero"/><path fill="#fcedd4" d="M 86.457031 87.128906 C 89.222656 91.226562 93.414062 94.277344 98.085938 95.039062 C 98.5625 94.089844 98.179688 92.660156 97.800781 91.613281 C 93.035156 89.609375 88.746094 84.84375 87.984375 79.695312 C 87.503906 74.457031 88.746094 69.210938 92.75 65.878906 C 94.652344 64.355469 96.746094 63.304688 99.035156 62.921875 C 95.796875 62.542969 92.273438 63.398438 90.078125 65.972656 C 87.597656 68.640625 86.457031 71.878906 86.265625 75.597656 C 86.265625 76.265625 86.457031 77.21875 85.882812 77.597656 C 85.121094 76.835938 85.597656 75.597656 85.410156 74.640625 C 85.695312 67.78125 93.320312 60.921875 87.21875 54.4375 C 88.839844 60.921875 84.070312 66.164062 83.980469 72.738281 C 83.59375 77.789062 83.980469 83.035156 86.457031 87.128906 " fill-opacity="1" fill-rule="nonzero"/><path fill="#fcedd4" d="M 85.027344 104 C 85.121094 103.714844 85.410156 102.570312 84.835938 102.285156 L 84.457031 102.378906 C 84.457031 103.046875 84.640625 103.523438 85.027344 104 " fill-opacity="1" fill-rule="nonzero"/><path fill="#fcedd4" d="M 86.265625 104.855469 C 86.359375 104.957031 86.644531 104.855469 86.835938 104.855469 C 86.742188 104.285156 87.21875 103.140625 86.457031 102.855469 C 85.980469 103.140625 86.265625 104.1875 86.265625 104.855469 " fill-opacity="1" fill-rule="nonzero"/><path fill="#fcedd4" d="M 88.460938 104.855469 L 88.554688 104.855469 C 88.746094 104.378906 88.9375 103.523438 88.460938 103.332031 L 87.882812 103.429688 C 87.984375 103.902344 87.597656 104.957031 88.460938 104.855469 " fill-opacity="1" fill-rule="nonzero"/><path fill="#fcedd4" d="M 89.125 80.839844 C 93.890625 82.933594 97.800781 87.414062 99.226562 92.273438 C 99.609375 94.277344 99.894531 96.472656 99.988281 98.566406 C 100.941406 98.757812 101.796875 98.472656 102.753906 98.378906 C 103.230469 97.425781 102.753906 96.1875 102.660156 95.136719 C 101.988281 87.699219 97.039062 79.984375 89.695312 77.699219 C 89.410156 77.699219 89.03125 77.40625 88.839844 77.699219 L 89.125 80.839844 " fill-opacity="1" fill-rule="nonzero"/><path fill="#fcedd4" d="M 89.125 75.027344 C 90.839844 75.121094 92.933594 75.3125 94.746094 75.21875 C 94.84375 74.835938 94.460938 74.550781 94.175781 74.640625 L 89.410156 74.550781 C 89.125 74.640625 89.222656 74.835938 89.125 75.027344 " fill-opacity="1" fill-rule="nonzero"/><path fill="#fcedd4" d="M 89.601562 73.402344 C 90.933594 73.695312 92.648438 73.5 93.984375 73.5 C 94.082031 73.214844 93.796875 72.832031 93.414062 72.832031 L 89.695312 72.832031 C 89.695312 72.929688 89.410156 73.117188 89.601562 73.402344 " fill-opacity="1" fill-rule="nonzero"/><path fill="#fcedd4" d="M 95.222656 76.835938 L 95.035156 76.457031 C 93.320312 76.265625 91.410156 76.167969 89.507812 76.265625 C 91.125 77.3125 93.320312 76.929688 95.222656 76.835938 " fill-opacity="1" fill-rule="nonzero"/><path fill="#fcedd4" d="M 89.695312 104.765625 C 89.984375 104.957031 90.363281 104.855469 90.648438 104.855469 C 90.933594 104.664062 90.839844 104.09375 90.746094 103.902344 C 89.984375 103.429688 89.507812 104 89.695312 104.765625 " fill-opacity="1" fill-rule="nonzero"/><path fill="#fcedd4" d="M 93.890625 71.785156 C 93.890625 71.59375 94.175781 71.308594 93.890625 71.121094 L 90.363281 71.023438 L 89.984375 71.59375 C 91.316406 71.878906 92.558594 71.878906 93.890625 71.785156 " fill-opacity="1" fill-rule="nonzero"/><path fill="#fcedd4" d="M 90.648438 62.921875 C 91.695312 62.636719 92.84375 62.160156 93.890625 61.683594 C 93.984375 60.726562 93.984375 59.871094 93.890625 58.917969 C 92.933594 58.917969 91.410156 58.632812 90.746094 59.300781 C 90.839844 60.535156 90.839844 61.683594 90.648438 62.921875 " fill-opacity="1" fill-rule="nonzero"/><path fill="#fcedd4" d="M 93.796875 69.976562 C 93.984375 69.976562 93.890625 69.691406 93.890625 69.589844 C 92.933594 69.210938 92.171875 69.40625 91.125 69.40625 C 91.03125 69.589844 90.839844 70.066406 91.316406 69.976562 L 93.796875 69.976562 " fill-opacity="1" fill-rule="nonzero"/><path fill="#fcedd4" d="M 93.699219 68.257812 C 93.890625 68.257812 93.890625 67.972656 93.890625 67.6875 C 93.414062 67.6875 92.84375 67.496094 92.457031 67.6875 L 91.988281 68.164062 C 92.558594 68.351562 93.035156 68.257812 93.699219 68.257812 " fill-opacity="1" fill-rule="nonzero"/><path fill="#fcedd4" d="M 96.5625 78.746094 C 96.460938 77.597656 94.9375 78.167969 94.273438 78.074219 L 93.605469 78.167969 C 94.273438 79.125 95.605469 78.839844 96.5625 78.746094 " fill-opacity="1" fill-rule="nonzero"/><path fill="#fcedd4" d="M 94.273438 66.449219 L 94.460938 66.164062 L 93.890625 66.449219 C 93.890625 66.734375 94.175781 66.449219 94.273438 66.449219 " fill-opacity="1" fill-rule="nonzero"/><path fill="#fcedd4" d="M 96.175781 103.332031 C 99.035156 103.523438 101.703125 103.332031 104.375 103.140625 C 104.5625 102 104.46875 101.046875 104.46875 99.898438 C 101.511719 99.804688 98.464844 100.28125 95.414062 100.191406 L 96.175781 103.332031 " fill-opacity="1" fill-rule="nonzero"/><path fill="#fcedd4" d="M 97.324219 80.457031 C 97.507812 79.792969 96.652344 79.886719 96.277344 79.984375 C 96.460938 80.363281 96.9375 80.554688 97.324219 80.457031 " fill-opacity="1" fill-rule="nonzero"/><path fill="#fcedd4" d="M 98.5625 82.171875 L 98.75 82.171875 C 98.847656 81.886719 98.847656 81.507812 98.464844 81.507812 L 98.085938 81.601562 C 98.273438 81.695312 98.179688 82.273438 98.5625 82.171875 " fill-opacity="1" fill-rule="nonzero"/><path fill="#fcedd4" d="M 103.613281 17.363281 L 105.230469 18.316406 C 105.039062 17.652344 104.5625 16.792969 104.089844 16.027344 C 102.375 14.980469 100.941406 13.648438 99.609375 12.125 C 99.324219 12.59375 99.324219 13.648438 99.511719 14.3125 C 100.464844 15.550781 102.089844 16.699219 103.613281 17.363281 " fill-opacity="1" fill-rule="nonzero"/><path fill="#fcedd4" d="M 99.894531 83.796875 L 100.179688 83.699219 C 100.085938 83.414062 99.800781 83.128906 99.609375 83.320312 C 99.703125 83.511719 99.703125 83.699219 99.894531 83.796875 " fill-opacity="1" fill-rule="nonzero"/><path fill="#fcedd4" d="M 103.039062 14.125 C 103.515625 12.125 101.417969 10.40625 99.988281 9.261719 C 99.511719 9.929688 99.988281 10.597656 100.273438 11.167969 C 101.132812 12.125 101.988281 13.265625 103.039062 14.125 " fill-opacity="1" fill-rule="nonzero"/><path fill="#fcedd4" d="M 102.375 9.835938 C 103.421875 8.5 101.898438 7.257812 101.511719 6.117188 C 101.035156 6.402344 100.75 6.972656 100.464844 7.550781 C 100.5625 8.597656 101.796875 9.070312 102.375 9.835938 " fill-opacity="1" fill-rule="nonzero"/><path fill="#fcedd4" d="M 101.988281 85.507812 L 102.273438 85.414062 C 101.796875 85.128906 101.328125 84.652344 100.65625 84.9375 C 100.5625 85.890625 101.511719 85.320312 101.988281 85.507812 " fill-opacity="1" fill-rule="nonzero"/><path fill="#fcedd4" d="M 104.183594 87.128906 C 104.375 87.039062 104.375 86.847656 104.183594 86.746094 C 103.421875 86.367188 102.375 86.652344 101.613281 86.746094 L 101.703125 87.128906 L 104.183594 87.128906 " fill-opacity="1" fill-rule="nonzero"/><path fill="#fcedd4" d="M 101.898438 115.152344 C 102.660156 114.390625 104.753906 115.152344 104.46875 113.339844 L 104.277344 110.863281 L 103.421875 110.863281 C 102.851562 112.292969 102.375 113.71875 101.898438 115.152344 " fill-opacity="1" fill-rule="nonzero"/><path fill="#2f5982" d="M 104.851562 25.371094 C 107.613281 25.941406 109.710938 28.515625 111.136719 30.707031 C 110.953125 28.324219 108.757812 26.609375 107.042969 25.085938 C 105.707031 24.320312 103.707031 23.75 102.183594 24.699219 C 102.089844 24.800781 101.898438 24.890625 101.988281 25.085938 L 104.851562 25.371094 " fill-opacity="1" fill-rule="nonzero"/><path fill="#fcedd4" d="M 103.039062 6.6875 C 103.707031 6.027344 102.945312 5.070312 102.851562 4.402344 C 101.988281 4.785156 102.183594 5.640625 102.558594 6.117188 C 102.660156 6.402344 102.945312 6.496094 103.039062 6.6875 " fill-opacity="1" fill-rule="nonzero"/><path fill="#fcedd4" d="M 103.800781 89.035156 C 104.183594 88.847656 104.375 88.847656 104.375 88.371094 C 103.800781 88.179688 102.851562 88.179688 102.273438 88.464844 C 102.273438 89.324219 103.324219 88.847656 103.800781 89.035156 " fill-opacity="1" fill-rule="nonzero"/><path fill="#fcedd4" d="M 103.898438 91.328125 C 104.089844 91.328125 104.375 91.226562 104.375 90.941406 L 104.277344 90.179688 C 103.800781 89.988281 103.421875 89.988281 102.945312 90.273438 C 103.039062 90.847656 103.136719 91.511719 103.898438 91.328125 " fill-opacity="1" fill-rule="nonzero"/><path fill="#fcedd4" d="M 103.992188 95.421875 C 105.324219 95.902344 106.847656 95.421875 108.1875 95.421875 C 112.476562 94.753906 116.859375 92.273438 118.859375 88.179688 C 118.667969 87.984375 118.191406 88.371094 117.90625 88.179688 C 116.765625 88.179688 115.8125 87.507812 115.140625 86.460938 C 114.378906 85.507812 114.957031 84.175781 115.242188 83.128906 C 116.003906 81.507812 117.90625 81.601562 119.339844 81.601562 C 120.578125 82.171875 121.816406 83.21875 122.386719 84.558594 C 123.535156 88.65625 121.53125 92.46875 118.574219 95.136719 C 116.195312 96.847656 113.714844 98.472656 110.851562 98.949219 C 110.566406 99.804688 110.667969 101.046875 110.761719 102 C 117.144531 102.476562 122.769531 97.425781 125.4375 91.988281 C 127.4375 87.507812 126.007812 82.078125 122.480469 78.839844 C 120.957031 77.40625 118.667969 77.027344 116.574219 77.503906 C 114.480469 78.074219 112 79.222656 111.046875 81.507812 C 110.089844 83.21875 110.191406 85.890625 111.429688 87.414062 C 111.808594 88.179688 113.429688 87.984375 112.855469 89.132812 C 110.28125 91.613281 106.949219 92.558594 103.515625 92.558594 L 103.992188 95.421875 " fill-opacity="1" fill-rule="nonzero"/><path fill="#fcedd4" d="M 104.46875 13.648438 C 104.753906 11.648438 104.46875 9.453125 104.46875 7.257812 C 103.515625 9.167969 103.515625 11.832031 104.46875 13.648438 " fill-opacity="1" fill-rule="nonzero"/><path fill="#fcedd4" d="M 104.183594 4.878906 C 104.46875 4.878906 104.851562 4.402344 105.039062 4.117188 L 104.945312 2.878906 C 103.898438 2.878906 103.898438 4.117188 104.183594 4.878906 " fill-opacity="1" fill-rule="nonzero"/><path fill="#fcedd4" d="M 103.992188 108.289062 C 107.328125 108.476562 110.667969 108.382812 114.09375 108.289062 C 114.09375 107.71875 114.855469 106.382812 113.714844 106.382812 L 104.46875 106.289062 C 104.183594 106.859375 104.183594 107.621094 103.992188 108.289062 " fill-opacity="1" fill-rule="nonzero"/><path fill="#fcedd4" d="M 105.421875 78.460938 C 105.707031 78.460938 105.800781 78.167969 105.800781 77.882812 C 105.617188 77.699219 105.324219 77.984375 105.324219 78.167969 C 105.324219 78.269531 105.230469 78.460938 105.421875 78.460938 " fill-opacity="1" fill-rule="nonzero"/><path fill="#fcedd4" d="M 105.800781 91.132812 C 106.664062 90.941406 107.902344 91.035156 108.378906 90.179688 C 108.378906 85.699219 107.425781 80.554688 111.429688 77.699219 C 113.046875 76.074219 115.050781 75.410156 117.242188 75.027344 L 117.242188 13.933594 L 108.089844 13.933594 L 107.804688 13.550781 L 107.710938 4.496094 C 107.042969 4.402344 106.378906 4.6875 105.902344 5.070312 C 105.707031 8.597656 105.902344 16.597656 105.707031 16.414062 C 105.800781 16.507812 114.765625 16.507812 114.570312 16.507812 C 114.570312 16.507812 114.570312 68.164062 114.480469 73.214844 C 112.378906 73.59375 110.476562 74.742188 108.851562 76.265625 C 106.949219 78.074219 105.902344 80.269531 105.617188 82.75 C 105.515625 85.796875 105.515625 88.371094 105.800781 91.132812 " fill-opacity="1" fill-rule="nonzero"/><path fill="#fcedd4" d="M 105.800781 104.855469 C 106.757812 105.140625 107.425781 104.855469 108.472656 104.855469 C 108.664062 102.285156 108.472656 99.425781 108.378906 96.847656 C 107.613281 96.5625 106.757812 96.847656 105.902344 96.847656 C 105.617188 99.425781 105.707031 102.191406 105.800781 104.855469 " fill-opacity="1" fill-rule="nonzero"/><path fill="#fcedd4" d="M 107.140625 125.730469 C 107.996094 127.925781 110.375 128.6875 112.476562 128.78125 C 114.285156 128.589844 116.480469 127.734375 117.144531 125.730469 C 117.71875 124.207031 118.003906 122.296875 117.71875 120.582031 C 116.957031 120.203125 115.90625 120.394531 115.050781 120.394531 C 114.957031 121.726562 114.957031 123.351562 114.09375 124.492188 C 113.429688 125.347656 112.191406 125.632812 111.238281 125.347656 C 110.191406 125.160156 109.140625 124.109375 108.949219 123.058594 C 108.664062 119.15625 108.566406 115.058594 108.566406 111.054688 C 107.613281 110.671875 106.949219 110.863281 105.902344 110.863281 L 105.707031 111.054688 C 106.085938 116.105469 105.039062 121.441406 107.140625 125.730469 " fill-opacity="1" fill-rule="nonzero"/><path fill="#fcedd4" d="M 106.1875 76.644531 C 106.664062 76.929688 106.949219 76.359375 107.140625 76.167969 C 107.140625 75.980469 106.847656 75.980469 106.5625 75.980469 C 106.378906 76.167969 106.085938 76.265625 106.1875 76.644531 " fill-opacity="1" fill-rule="nonzero"/><path fill="#fcedd4" d="M 106.5625 3.355469 C 107.519531 3.546875 108.378906 3.070312 107.996094 2.023438 C 107.613281 1.542969 107.042969 2.113281 106.5625 2.113281 C 106.277344 2.492188 106.5625 2.96875 106.5625 3.355469 " fill-opacity="1" fill-rule="nonzero"/><path fill="#fcedd4" d="M 113.140625 30.707031 C 113.140625 26.515625 113.140625 17.746094 113.046875 17.839844 C 113.140625 17.9375 108.851562 17.554688 106.847656 17.839844 C 108.472656 20.601562 112.285156 27.5625 113.140625 30.707031 " fill-opacity="1" fill-rule="nonzero"/><path fill="#fcedd4" d="M 108.851562 74.550781 L 109.042969 74.457031 C 108.472656 74.355469 107.519531 73.980469 107.328125 74.742188 C 107.613281 74.835938 108.566406 75.121094 108.851562 74.550781 " fill-opacity="1" fill-rule="nonzero"/><path fill="#fcedd4" d="M 112.285156 72.546875 L 108.664062 72.546875 L 108.28125 73.117188 C 109.519531 73.214844 111.136719 73.5 112.285156 72.546875 " fill-opacity="1" fill-rule="nonzero"/><path fill="#fcedd4" d="M 111.523438 3.355469 C 112.285156 4.210938 113.332031 5.070312 113.238281 6.3125 L 113.046875 7.738281 C 113.617188 7.550781 113.808594 6.882812 113.902344 6.402344 C 114.09375 5.164062 113.808594 3.925781 112.855469 3.070312 C 111.808594 2.113281 110.566406 1.730469 109.234375 2.023438 C 108.949219 3.546875 110.851562 2.785156 111.523438 3.355469 " fill-opacity="1" fill-rule="nonzero"/><path fill="#fcedd4" d="M 113.332031 71.40625 C 113.523438 71.308594 113.332031 71.023438 113.429688 70.832031 C 112.378906 70.546875 110.953125 70.738281 109.710938 70.738281 L 109.328125 71.308594 L 109.613281 71.5 L 113.332031 71.40625 " fill-opacity="1" fill-rule="nonzero"/><path fill="#fcedd4" d="M 110.28125 8.5 C 111.136719 8.691406 111.714844 8.023438 112 7.257812 C 112.285156 6.6875 112 6.027344 111.90625 5.355469 C 111.429688 4.972656 110.953125 4.308594 110.28125 4.402344 C 109.996094 5.832031 110.28125 7.167969 110.28125 8.5 " fill-opacity="1" fill-rule="nonzero"/><path fill="#fcedd4" d="M 110.191406 69.589844 C 111.136719 69.691406 112.570312 69.78125 113.429688 69.40625 L 113.332031 69.113281 C 112.378906 69.113281 111.332031 68.925781 110.28125 69.113281 C 110.191406 69.210938 110.089844 69.40625 110.191406 69.589844 " fill-opacity="1" fill-rule="nonzero"/><path fill="#fcedd4" d="M 113.332031 67.878906 L 113.332031 67.402344 L 110.851562 67.304688 C 110.566406 67.402344 110.566406 67.78125 110.667969 67.972656 L 113.332031 67.878906 " fill-opacity="1" fill-rule="nonzero"/><path fill="#fcedd4" d="M 110.953125 104.957031 L 114.195312 105.050781 C 114.664062 104.378906 115.050781 103.429688 115.425781 102.570312 L 110.761719 103.238281 C 110.667969 103.714844 110.476562 104.664062 110.953125 104.957031 " fill-opacity="1" fill-rule="nonzero"/><path fill="#fcedd4" d="M 111.136719 64.539062 L 113.140625 64.445312 C 113.332031 64.355469 113.332031 63.96875 113.238281 63.875 C 112.476562 63.777344 111.429688 63.683594 110.761719 63.875 C 110.667969 64.253906 110.851562 64.445312 111.136719 64.539062 " fill-opacity="1" fill-rule="nonzero"/><path fill="#fcedd4" d="M 110.851562 66.164062 C 111.523438 66.257812 112.378906 66.257812 113.140625 66.257812 C 113.429688 66.066406 113.238281 65.78125 113.332031 65.59375 C 112.378906 65.496094 111.808594 65.496094 110.851562 65.6875 L 110.851562 66.164062 " fill-opacity="1" fill-rule="nonzero"/><path fill="#fcedd4" d="M 111.714844 117.914062 L 123.433594 117.816406 C 125.246094 117.53125 126.769531 115.820312 127.4375 114.195312 C 128.199219 112.292969 127.628906 110.101562 126.484375 108.574219 C 124.773438 106.859375 122.101562 106.765625 119.910156 106.574219 L 119.816406 108.476562 C 121.246094 108.765625 123.148438 108.476562 124.195312 109.90625 C 125.152344 110.957031 125.152344 112.671875 124.582031 113.910156 C 123.820312 115.058594 122.578125 115.628906 121.246094 115.628906 L 111.046875 115.722656 C 110.953125 116.484375 110.375 118.199219 111.714844 117.914062 " fill-opacity="1" fill-rule="nonzero"/><path fill="#fcedd4" d="M 113.046875 51.578125 C 113.140625 51.292969 113.238281 51.101562 113.046875 50.910156 L 111.136719 51.007812 C 111.617188 51.578125 112.378906 51.671875 113.046875 51.578125 " fill-opacity="1" fill-rule="nonzero"/><path fill="#fcedd4" d="M 113.046875 49.769531 C 113.140625 49.578125 113.238281 49.101562 112.953125 49.101562 C 112.378906 49.101562 111.523438 48.910156 111.332031 49.675781 C 112 50.054688 112.378906 49.769531 113.046875 49.769531 " fill-opacity="1" fill-rule="nonzero"/><path fill="#fcedd4" d="M 113.238281 62.636719 C 113.429688 62.351562 113.238281 62.160156 113.238281 61.875 L 112.191406 62.636719 C 112.476562 62.828125 112.953125 62.828125 113.238281 62.636719 " fill-opacity="1" fill-rule="nonzero"/><path fill="#fcedd4" d="M 112.761719 48.054688 C 112.953125 47.960938 113.140625 47.960938 113.140625 47.769531 C 113.238281 47.484375 112.761719 47.484375 112.667969 47.484375 C 112.285156 47.578125 112.191406 48.246094 112.761719 48.054688 " fill-opacity="1" fill-rule="nonzero"/><path fill="#fcedd4" d="M 115.140625 113.71875 C 115.90625 114.003906 116.859375 114.105469 117.71875 113.910156 C 118.003906 109.335938 116.765625 103.617188 121.625 101.429688 C 122.292969 101.238281 123.148438 101.429688 123.71875 101.714844 C 124.480469 102.378906 124.867188 103.332031 124.582031 104.1875 C 124.296875 104.664062 124.195312 105.335938 123.625 105.425781 C 123.339844 105.621094 123.148438 105.140625 123.148438 104.957031 C 123.433594 104.285156 123.910156 103.617188 123.433594 102.953125 C 123.054688 102.476562 122.386719 102.378906 121.816406 102.570312 C 121.339844 102.855469 121.054688 103.238281 120.863281 103.714844 C 120.769531 104.480469 121.246094 105.140625 121.910156 105.425781 C 122.671875 105.90625 123.910156 106.097656 124.773438 105.621094 C 125.628906 105.050781 126.582031 104.1875 126.390625 102.953125 C 126.292969 101.714844 125.4375 100.761719 124.296875 100.375 C 123.339844 100.089844 122.480469 100.089844 121.53125 100.476562 C 121.246094 100.375 121.246094 99.996094 121.339844 99.898438 C 125.820312 97.140625 128.871094 92.46875 128.484375 87.128906 C 128.394531 84.175781 127.824219 81.410156 126.007812 79.222656 C 126.007812 79.03125 126.007812 78.746094 126.199219 78.746094 C 126.960938 78.929688 127.824219 79.984375 128.769531 79.316406 C 129.347656 78.929688 129.15625 78.167969 129.0625 77.597656 C 126.582031 74.640625 122.671875 72.929688 120.957031 69.40625 C 119.625 67.402344 119.910156 64.253906 121.148438 62.351562 C 121.816406 61.492188 122.863281 60.921875 123.910156 61.296875 C 124.296875 61.296875 124.582031 61.777344 124.582031 62.160156 C 124.582031 62.445312 124.675781 62.828125 124.390625 63.015625 C 123.910156 62.828125 123.625 61.683594 122.957031 62.253906 C 122.769531 62.636719 122.578125 63.113281 122.863281 63.398438 C 123.242188 64.0625 124.105469 63.96875 124.582031 63.683594 C 125.152344 63.398438 125.628906 62.730469 125.4375 61.875 C 125.246094 61.207031 124.675781 60.636719 124.003906 60.25 C 122.671875 59.871094 121.53125 60.535156 120.578125 61.296875 L 119.625 62.828125 L 119.714844 69.589844 C 121.054688 75.980469 127.4375 80.171875 127.4375 87.128906 C 128.007812 93.800781 122.386719 98.472656 117.527344 101.90625 C 115.335938 103.523438 115.140625 106.097656 115.050781 108.765625 L 115.140625 113.71875 " fill-opacity="1" fill-rule="nonzero"/><path fill="#fcedd4" d="M 121.816406 76.835938 C 121.339844 75.503906 120.578125 74.070312 119.816406 72.832031 C 119.714844 73.59375 119.625 74.933594 119.714844 75.980469 L 121.816406 76.835938 " fill-opacity="1" fill-rule="nonzero"/><path fill="#fcedd4" d="M 119.910156 105.050781 L 120.007812 105.050781 C 120.101562 104.855469 120.007812 104.664062 119.910156 104.570312 C 119.910156 104.765625 119.625 104.957031 119.910156 105.050781 " fill-opacity="1" fill-rule="nonzero"/></svg>